<svg width="101" height="101" viewBox="0 0 101 101" fill="none" xmlns="http://www.w3.org/2000/svg">
<g clip-path="url(#clip0_606_4164)">
<path fill-rule="evenodd" clip-rule="evenodd" d="M69.028 67.9889C63.3424 67.64 57.678 66.7149 52.3927 64.7245C47.1141 62.7533 42.2727 59.6336 38.5104 55.4334C34.7206 51.2488 32.1547 46.0364 30.468 40.5936C28.787 35.1272 27.9752 29.3872 27.6499 23.6297L27.6498 23.6232C27.6273 23.2193 27.2802 22.9108 26.8778 22.9337C26.4781 22.9559 26.1726 23.2948 26.1874 23.6921C26.4011 29.5436 27.1046 35.422 28.7321 41.1131C30.3635 46.7764 32.9371 52.3138 36.8827 56.8577C40.7987 61.4153 45.9314 64.8666 51.4809 67.0637C57.0414 69.2847 62.954 70.3644 68.8487 70.8425C69.6369 70.907 70.326 70.3212 70.3892 69.5335C70.4536 68.7461 69.8671 68.0564 69.0815 67.9924C69.0738 67.9922 69.0663 67.9908 69.0598 67.9909L69.028 67.9889Z" fill="#6059DC"/>
<path fill-rule="evenodd" clip-rule="evenodd" d="M67.8137 74.7555C68.7664 74.2951 69.7595 73.8073 70.7928 73.2937C71.8256 72.7801 72.7756 72.2982 73.6429 71.8487C74.5097 71.399 75.0686 71.1021 75.3194 70.9591C75.4986 70.4487 75.3435 69.9306 74.8541 69.405C74.3648 68.8788 73.7144 68.3906 72.9034 67.9406C72.3945 67.5196 71.8763 67.0358 71.3489 66.4891C70.8214 65.9429 70.2941 65.3956 69.7666 64.8495C69.2392 64.3022 68.7094 63.7684 68.1771 63.2482C67.6448 62.7273 67.1193 62.2828 66.6006 61.9147C66.3742 61.9267 66.1669 61.9899 65.9777 62.1048C65.7887 62.218 65.6201 62.37 65.4731 62.5603C65.3991 62.6548 65.3328 62.7857 65.2743 62.9512C65.2153 63.1166 65.1737 63.2655 65.1493 63.3966C65.1765 63.9991 65.4216 64.6358 65.8839 65.3066C66.3463 65.9768 66.897 66.6979 67.5365 67.4693C67.8734 67.9124 68.2594 68.3175 68.6946 68.6839C69.1297 69.051 69.5306 69.3761 69.8968 69.6622C69.3367 69.9653 68.773 70.2881 68.2056 70.6306C67.6382 70.9731 67.1102 71.3293 66.6213 71.7004C66.1326 72.071 65.6945 72.4306 65.308 72.7801C64.9211 73.1288 64.6439 73.4515 64.4774 73.7459C64.362 74.2135 64.3825 74.6662 64.5391 75.1024C64.695 75.5391 64.9623 75.7933 65.3411 75.864C65.5033 75.8943 65.664 75.8555 65.824 75.7497C66.1974 75.5475 66.8605 75.2158 67.8137 74.7555Z" fill="#6059DC"/>
</g>
<defs>
<clipPath id="clip0_606_4164">
<rect width="69" height="73" fill="white" transform="translate(100.448 50.3125) rotate(133.567)"/>
</clipPath>
</defs>
</svg>
