<svg width="70" height="70" viewBox="0 0 70 70" fill="none" xmlns="http://www.w3.org/2000/svg">
<g clip-path="url(#clip0_608_5051)">
<path d="M68.8023 32.9245L37.7096 14.9733C37.3454 14.763 36.9323 14.6523 36.5118 14.6523C36.0913 14.6523 35.6781 14.763 35.314 14.9733C34.9498 15.1836 34.6474 15.486 34.4371 15.8502C34.2269 16.2144 34.1162 16.6275 34.1162 17.048V52.9503C34.1162 53.3709 34.2269 53.784 34.4371 54.1482C34.6474 54.5123 34.9498 54.8148 35.314 55.025C35.6781 55.2353 36.0913 55.346 36.5118 55.346C36.9323 55.346 37.3454 55.2353 37.7096 55.0251L68.8023 37.0739C69.1665 36.8636 69.4689 36.5612 69.6791 36.197C69.8894 35.8328 70.0001 35.4197 70.0001 34.9992C70.0001 34.5787 69.8894 34.1655 69.6791 33.8014C69.4689 33.4372 69.1665 33.1347 68.8023 32.9245Z" fill="#6059DC"/>
<path d="M29.93 34.5796L18.3282 27.8815C18.1923 27.803 18.0382 27.7617 17.8813 27.7617C17.7244 27.7617 17.5702 27.803 17.4344 27.8815C17.2985 27.9599 17.1856 28.0728 17.1072 28.2086C17.0287 28.3445 16.9874 28.4987 16.9874 28.6556V42.052C16.9874 42.2089 17.0288 42.363 17.1072 42.4989C17.1857 42.6348 17.2985 42.7476 17.4344 42.826C17.5702 42.9045 17.7244 42.9458 17.8813 42.9459C18.0382 42.9459 18.1923 42.9046 18.3282 42.8262L29.93 36.1279C30.0659 36.0495 30.1788 35.9366 30.2572 35.8007C30.3356 35.6648 30.3769 35.5107 30.3769 35.3538C30.3769 35.1969 30.3356 35.0427 30.2572 34.9068C30.1788 34.7709 30.0659 34.6581 29.93 34.5796Z" fill="#6059DC"/>
<path d="M12.9425 34.5796L1.3408 27.8815C1.20488 27.803 1.05069 27.7617 0.893733 27.7617C0.736781 27.7617 0.582602 27.8031 0.446701 27.8816C0.3108 27.9601 0.197969 28.073 0.119554 28.209C0.0411395 28.345 -9.41009e-05 28.4992 1.61254e-07 28.6561V42.0525C1.94973e-05 42.2094 0.0413316 42.3635 0.119786 42.4994C0.19824 42.6353 0.311073 42.7481 0.446947 42.8266C0.582822 42.9051 0.736953 42.9464 0.893854 42.9464C1.05076 42.9464 1.2049 42.9052 1.3408 42.8267L12.9425 36.1285C13.0785 36.0501 13.1915 35.9372 13.2701 35.8013C13.3486 35.6653 13.39 35.5111 13.39 35.354C13.39 35.197 13.3486 35.0428 13.2701 34.9068C13.1915 34.7709 13.0785 34.658 12.9425 34.5796Z" fill="#6059DC"/>
</g>
<defs>
<clipPath id="clip0_608_5051">
<rect width="70" height="70" fill="white"/>
</clipPath>
</defs>
</svg>
