<svg width="24" height="24" viewBox="0 0 24 24" fill="none" xmlns="http://www.w3.org/2000/svg">
<g clip-path="url(#clip0_160_15)">
<path d="M22.4534 10.0993C21.7067 9.39934 21.02 8.766 20.3934 8.17933V3.67933C20.3934 2.75269 19.64 1.99935 18.7134 1.99935C17.7867 1.99935 17.0334 2.75269 17.0334 3.67933V5.04603C12.9131 1.20462 13.9049 2.14425 13.7534 1.99268C13.7534 1.98601 13.7467 1.98601 13.7467 1.98601C13.7467 1.97933 13.74 1.97933 13.7334 1.97266C12.6163 1.02576 11.0225 1.21202 10.2334 2.00603C8.13056 3.96979 3.53785 8.24587 1.5467 10.0993C1.27338 10.346 1.26004 10.7727 1.51337 11.0394C1.75336 11.306 2.18671 11.326 2.45336 11.0727L2.94005 10.6193V19.9994C2.94005 21.4727 4.13337 22.666 5.60672 22.666H18.3934C19.86 22.666 21.06 21.4727 21.06 19.9994V10.6193L21.5467 11.0727C21.8134 11.326 22.2334 11.306 22.4867 11.0394C22.74 10.7727 22.7267 10.346 22.4534 10.0993ZM12 7.51933C13.08 7.51933 13.9534 8.39266 13.9534 9.46599C13.9534 10.546 13.08 11.4194 12 11.4194C10.92 11.4194 10.0467 10.546 10.0467 9.46599C10.0467 8.39266 10.92 7.51933 12 7.51933ZM15.0134 21.3327H8.98005V17.7193C8.98005 16.0527 10.3334 14.6993 12 14.6993C13.6667 14.6993 15.0134 16.0527 15.0134 17.7193V21.3327Z" fill="black"/>
<mask id="mask0_160_15" style="mask-type:alpha" maskUnits="userSpaceOnUse" x="0" y="0" width="24" height="24">
<path d="M22.4534 10.0993C21.7067 9.39934 21.02 8.766 20.3934 8.17933V3.67933C20.3934 2.75269 19.64 1.99935 18.7134 1.99935C17.7867 1.99935 17.0334 2.75269 17.0334 3.67933V5.04603C12.9131 1.20462 13.9049 2.14425 13.7534 1.99268C13.7534 1.98601 13.7467 1.98601 13.7467 1.98601C13.7467 1.97933 13.74 1.97933 13.7334 1.97266C12.6163 1.02576 11.0225 1.21202 10.2334 2.00603C8.13056 3.96979 3.53785 8.24587 1.5467 10.0993C1.27338 10.346 1.26004 10.7727 1.51337 11.0394C1.75336 11.306 2.18671 11.326 2.45336 11.0727L2.94005 10.6193V19.9994C2.94005 21.4727 4.13337 22.666 5.60672 22.666H18.3934C19.86 22.666 21.06 21.4727 21.06 19.9994V10.6193L21.5467 11.0727C21.8134 11.326 22.2334 11.306 22.4867 11.0394C22.74 10.7727 22.7267 10.346 22.4534 10.0993ZM12 7.51933C13.08 7.51933 13.9534 8.39266 13.9534 9.46599C13.9534 10.546 13.08 11.4194 12 11.4194C10.92 11.4194 10.0467 10.546 10.0467 9.46599C10.0467 8.39266 10.92 7.51933 12 7.51933ZM15.0134 21.3327H8.98005V17.7193C8.98005 16.0527 10.3334 14.6993 12 14.6993C13.6667 14.6993 15.0134 16.0527 15.0134 17.7193V21.3327Z" fill="black"/>
</mask>
<g mask="url(#mask0_160_15)">
<rect width="24" height="24" fill="#3A3535"/>
</g>
</g>
<defs>
<clipPath id="clip0_160_15">
<rect width="24" height="24" fill="white"/>
</clipPath>
</defs>
</svg>
