<svg version="1.2" xmlns="http://www.w3.org/2000/svg" viewBox="0 0 1200 1200" width="1200" height="1200">
	<title>Chatbots-ai</title>
	<style>
		.s0 { fill: #ffe8ad } 
		.s1 { fill: none;stroke: #000000;stroke-linecap: round;stroke-linejoin: round;stroke-width: 5.2 } 
		.s2 { fill: #fc613f } 
		.s3 { fill: #d43b20 } 
		.s4 { fill: #bbebf1 } 
	</style>
	<g id="Layer 1">
		<g id="&lt;Group&gt;">
			<path id="&lt;Path&gt;" class="s0" d="m763.2 319.7v253.4c0 25.6-20.7 46.3-46.3 46.3h-152.8c-9.7 0-19.2 3.3-26.9 9.3l-121.5 95.6c-6.5 5.2-16.1 0.5-16.1-7.8v-53.6c0-24.1-19.5-43.5-43.5-43.5h-16.6c-25.6 0-46.3-20.7-46.3-46.3v-253.4c0-25.6 20.7-46.3 46.2-46.3h377.5c25.6 0 46.3 20.7 46.3 46.3z"/>
			<path id="&lt;Path&gt;" class="s1" d="m763.2 319.7v253.4c0 25.6-20.7 46.3-46.3 46.3h-152.8c-7.3 0-14.4 1.8-20.7 5.3q-3.2 1.7-6.2 4l-121.5 95.6c-6.5 5.2-16.1 0.5-16.1-7.8v-53.6c0-24-19.5-43.5-43.5-43.5h-16.6c-25.6 0-46.3-20.7-46.3-46.3v-253.4c0-25.6 20.7-46.3 46.2-46.3h377.5c25.6 0 46.3 20.7 46.3 46.3z"/>
			<path id="&lt;Path&gt;" class="s2" d="m391.7 523.3h273c10.4 0 18.8-8.5 18.8-18.8v-116.2c0-10.4-8.4-18.8-18.8-18.8h-273c-10.4 0-18.8 8.4-18.8 18.8v116.2c0 10.3 8.4 18.8 18.8 18.8z"/>
			<path id="&lt;Path&gt;" class="s1" d="m391.7 523.3h273c10.4 0 18.8-8.5 18.8-18.8v-116.2c0-10.4-8.4-18.8-18.8-18.8h-273c-10.4 0-18.8 8.4-18.8 18.8v116.2c0 10.3 8.4 18.8 18.8 18.8z"/>
			<path id="&lt;Path&gt;" class="s0" d="m628 446.4c0 14.4-11.7 26.1-26.1 26.1-14.5 0-26.2-11.7-26.2-26.1 0-14.4 11.7-26.1 26.2-26.1 14.4 0 26.1 11.7 26.1 26.1z"/>
			<path id="&lt;Path&gt;" class="s0" d="m483.4 446.4c0 14.4-11.7 26.1-26.2 26.1-14.4 0-26.1-11.7-26.1-26.1 0-14.4 11.7-26.1 26.1-26.1 14.5 0 26.2 11.7 26.2 26.1z"/>
			<path id="&lt;Path&gt;" class="s1" d="m628 446.4c0 14.4-11.7 26.1-26.1 26.1-14.5 0-26.2-11.7-26.2-26.1 0-14.4 11.7-26.1 26.2-26.1 14.4 0 26.1 11.7 26.1 26.1z"/>
			<path id="&lt;Path&gt;" class="s1" d="m483.4 446.4c0 14.4-11.7 26.1-26.2 26.1-14.4 0-26.1-11.7-26.1-26.1 0-14.4 11.7-26.1 26.1-26.1 14.5 0 26.2 11.7 26.2 26.1z"/>
			<path id="&lt;Path&gt;" class="s2" d="m800.1 455.5c0 6.1 1.4 11.9 4 17h-40.9v-34.1h40.9c-2.6 5.1-4 10.9-4 17.1z"/>
			<path id="&lt;Path&gt;" class="s1" d="m800.1 455.5c0 6.1 1.4 11.9 4 17h-40.9v-34.1h40.9c-2.6 5.1-4 10.9-4 17.1z"/>
			<path id="&lt;Path&gt;" class="s3" d="m876.6 455.5c0 21.1-17.1 38.2-38.2 38.2-15 0-28-8.6-34.3-21.2-2.6-5.1-4-10.9-4-17 0-6.2 1.4-12 4-17.1 6.3-12.6 19.3-21.2 34.3-21.2 21.1 0 38.2 17.1 38.2 38.3z"/>
			<path id="&lt;Path&gt;" class="s1" d="m876.6 455.5c0 21.1-17.1 38.2-38.2 38.2-15 0-28-8.6-34.3-21.2-2.6-5.1-4-10.9-4-17 0-6.2 1.4-12 4-17.1 6.3-12.6 19.3-21.2 34.3-21.2 21.1 0 38.2 17.1 38.2 38.3z"/>
			<path id="&lt;Path&gt;" class="s2" d="m256.3 455.5c0 6.1-1.4 11.9-4 17h40.9v-34.1h-40.9c2.6 5.1 4 10.9 4 17.1z"/>
			<path id="&lt;Path&gt;" class="s1" d="m256.3 455.5c0 6.1-1.4 11.9-4 17h40.9v-34.1h-40.9c2.6 5.1 4 10.9 4 17.1z"/>
			<path id="&lt;Path&gt;" class="s3" d="m179.8 455.5c0 21.1 17.1 38.2 38.2 38.2 15 0 28-8.6 34.3-21.2 2.6-5.1 4-10.9 4-17 0-6.2-1.4-12-4-17.1-6.3-12.6-19.3-21.2-34.3-21.2-21.1 0-38.2 17.1-38.2 38.3z"/>
			<path id="&lt;Path&gt;" class="s1" d="m179.8 455.5c0 21.1 17.1 38.2 38.2 38.2 15 0 28-8.6 34.3-21.2 2.6-5.1 4-10.9 4-17 0-6.2-1.4-12-4-17.1-6.3-12.6-19.3-21.2-34.3-21.2-21.1 0-38.2 17.1-38.2 38.3z"/>
			<path id="&lt;Path&gt;" class="s4" d="m1020.2 554.7v264.4h-143.6v107.5l-149-105.8h-184.2v-196.1c6.3-3.5 13.4-5.3 20.7-5.3h152.8c25.6 0 46.3-20.7 46.3-46.3v-18.4z"/>
			<path id="&lt;Path&gt;" class="s1" d="m1020.2 554.7v264.4h-143.6v107.5l-149-105.8h-184.2v-196.1c6.3-3.5 13.4-5.3 20.7-5.3h152.8c25.6 0 46.3-20.7 46.3-46.3v-18.4z"/>
			<path id="&lt;Path&gt;" class="s1" d="m621.5 671.2h317.3"/>
			<path id="&lt;Path&gt;" class="s1" d="m621.5 711.3h317.3"/>
			<path id="&lt;Path&gt;" class="s1" d="m621.5 747.1h242.7"/>
		</g>
	</g>
</svg>