<svg version="1.2" xmlns="http://www.w3.org/2000/svg" viewBox="0 0 1400 1400" width="1400" height="1400">
	<title>Chatbot response ranking-ai</title>
	<defs>
		<clipPath clipPathUnits="userSpaceOnUse" id="cp1">
			<path d="m889.92 398.88c0 28.21-22.87 51.07-51.08 51.07-28.21 0-51.08-22.86-51.08-51.07 0-28.21 22.87-51.08 51.08-51.08 28.21 0 51.08 22.87 51.08 51.08z"/>
		</clipPath>
		<clipPath clipPathUnits="userSpaceOnUse" id="cp2">
			<path d="m1014.22 608.6c0 28.21 22.87 51.08 51.08 51.08 28.21 0 51.08-22.87 51.08-51.08 0-28.21-22.87-51.08-51.08-51.08-28.21 0-51.08 22.87-51.08 51.08z"/>
		</clipPath>
		<clipPath clipPathUnits="userSpaceOnUse" id="cp3">
			<path d="m889.92 826.42c0 28.21-22.87 51.08-51.08 51.08-28.21 0-51.08-22.87-51.08-51.08 0-28.21 22.87-51.08 51.08-51.08 28.21 0 51.08 22.87 51.08 51.08z"/>
		</clipPath>
	</defs>
	<style>
		.s0 { fill: #00bbd6 } 
		.s1 { fill: none;stroke: #000000;stroke-linecap: round;stroke-linejoin: round;stroke-width: 2 } 
		.s2 { fill: #ffffff } 
		.s3 { fill: #ffd740 } 
		.s4 { fill: #362d46 } 
		.s5 { fill: #fc6140 } 
		.s6 { fill: #fff8e1 } 
		.s7 { fill: #000000 } 
		.s8 { fill: #bbebf1 } 
		.s9 { fill: #fee8ad } 
		.s10 { fill: #d43b20 } 
		.s11 { fill: #fc613f } 
	</style>
	<g id="Layer 1">
		<g id="&lt;Group&gt;">
			<g id="&lt;Group&gt;">
				<g id="&lt;Group&gt;">
					<path id="&lt;Path&gt;" class="s0" d="m951.2 1130.1c0 0 26.8-52.6-5.2-78.3-31.9-25.6-74.3 9.5-74.3 9.5 0 0 7.3-33.6-25.2-48.2-32.4-14.7-40.3 15.7-40.3 15.7 0 0 4.2-32.5-20.9-40.3-25.2-7.9-32.5 3.6-32.5 3.6 0 0 4.7-30.9-46.1-29.8-50.8 1-33.5 46.6-33.5 46.6 0 0-12.1-59.2-73.4-59.7-61.2-0.6-34.5 69.6-34.5 69.6 0 0-65-12.8-98 20.8-33 33.7 20.5 90.5 20.5 90.5z"/>
					<path id="&lt;Path&gt;" class="s1" d="m951.2 1130.1c0 0 26.8-52.6-5.2-78.3-31.9-25.6-74.3 9.5-74.3 9.5 0 0 7.3-33.6-25.2-48.2-32.4-14.7-40.3 15.7-40.3 15.7 0 0 4.2-32.5-20.9-40.3-25.2-7.9-32.5 3.6-32.5 3.6 0 0 4.7-30.9-46.1-29.8-50.8 1-33.5 46.6-33.5 46.6 0 0-12.1-59.2-73.4-59.7-61.2-0.6-34.5 69.6-34.5 69.6 0 0-65-12.8-98 20.8-33 33.7 20.5 90.5 20.5 90.5z"/>
				</g>
				<g id="&lt;Group&gt;">
					<path id="&lt;Path&gt;" class="s1" d="m567.3 1112.6c-9.6 4.8-8.3 17.5-8.3 17.5 0 0-4.2-14.3-16.4-16.4"/>
					<path id="&lt;Path&gt;" class="s1" d="m559 1130.1c0 0 5.2-11.8 13.3-10.6"/>
				</g>
			</g>
			<g id="&lt;Group&gt;">
				<g id="&lt;Group&gt;">
					<g id="&lt;Group&gt;">
						<g id="&lt;Group&gt;">
							<path id="&lt;Path&gt;" class="s2" d="m1135.9 1130.1h-372.2c-34.4 0-62.4-27.9-62.4-62.4v-794.5c0-34.5 28-62.4 62.4-62.4h372.2c34.4 0 62.3 27.9 62.3 62.4v794.5c0 34.5-27.9 62.4-62.3 62.4z"/>
							<path id="&lt;Path&gt;" class="s1" d="m1151.1 1067.4h-382.9c-10.4 0-18.8-8.4-18.8-18.8v-756.3c0-10.4 8.4-18.8 18.8-18.8h382.9c10.4 0 18.9 8.4 18.9 18.8v756.3c0 10.4-8.5 18.8-18.9 18.8z"/>
							<g id="&lt;Group&gt;">
								<path id="&lt;Path&gt;" class="s3" d="m1151.1 1067.4h-382.9c-10.4 0-18.8-8.4-18.8-18.8v-756.3c0-10.4 8.4-18.8 18.8-18.8h382.9c10.4 0 18.9 8.4 18.9 18.8v756.3c0 10.4-8.5 18.8-18.9 18.8z"/>
							</g>
							<path id="&lt;Path&gt;" class="s1" d="m1151.1 1067.4h-382.9c-10.4 0-18.8-8.4-18.8-18.8v-756.3c0-10.4 8.4-18.8 18.8-18.8h382.9c10.4 0 18.9 8.4 18.9 18.8v756.3c0 10.4-8.5 18.8-18.9 18.8z"/>
							<path id="&lt;Path&gt;" class="s2" d="m1150.7 1039.1v-737.3c0-5-4.1-9-9-9h-364c-5 0-9 4-9 9v737.3c0 5 4 9 9 9h364c4.9 0 9-4 9-9z"/>
							<path id="&lt;Path&gt;" class="s1" d="m1150.7 1039.1v-737.3c0-5-4.1-9-9-9h-364c-5 0-9 4-9 9v737.3c0 5 4 9 9 9h364c4.9 0 9-4 9-9z"/>
							<path id="&lt;Path&gt;" class="s1" d="m1135.9 1130.1h-372.2c-34.4 0-62.4-27.9-62.4-62.4v-794.5c0-34.5 28-62.4 62.4-62.4h372.2c34.4 0 62.3 27.9 62.3 62.4v794.5c0 34.5-27.9 62.4-62.3 62.4z"/>
							<path id="&lt;Path&gt;" class="s1" d="m781.8 1130.1c-30.3 0-55-24.6-55-55v-809.3c0-30.4 24.7-55 55-55"/>
						</g>
						<g id="&lt;Group&gt;">
							<g id="&lt;Clip Group&gt;" clip-path="url(#cp1)">
								<g id="&lt;Group&gt;">
									<path id="&lt;Path&gt;" class="s4" d="m867.2 419.4c1.9-0.7 3.5-2.2 4.1-3.3 0.7-1.1 1-2.7 0.9-3.5-0.1-0.9-0.7-2.2-1.2-3.2-0.6-1-2.7-4.1-3-5-0.4-0.8-2.2-4.6-2.8-6-0.6-1.5-3.4-8.1-3.8-9.2-0.4-1-2.2-5.9-2.6-7.1-0.5-1.1-2-6-2.9-7.5-0.8-1.5-2.2-3.6-3.1-4.6-0.9-1-3.4-2.9-4.8-3.7-1.3-0.7-4.5-2-6.8-2.4-2.3-0.4-4.8 0-5.6 0.2-0.8 0.1-4.2 1.2-5.4 1.7-1.1 0.5-3.8 2.5-4.6 3.1-0.8 0.6-2.9 3.1-3.9 4.7-0.9 1.5-1.6 3.1-2.2 4.8-0.6 1.6-2 5.2-2.3 6.1-0.4 0.9-1 3.1-1.5 4.4-0.6 1.4-1.5 3.4-2.1 5-0.7 1.6-3 6.2-3 6.2 0 0-1 2.2-1.8 3.6-0.8 1.4-1.8 3.7-2.6 5-0.7 1.3-1.8 2.6-1.8 4.1 0.1 1.4 0.5 3 1.5 4 1.1 1.1 4.6 3.1 6.4 3.5 1.7 0.5 31.4 2.8 38.7 2.8 7.4 0 16.2-3.7 16.2-3.7z"/>
									<path id="&lt;Path&gt;" class="s1" d="m838.3 363.8c0 0-10.9-0.3-16.7 9.6-4.2 7.2-3.8 14.8-16.4 37.1-5.1 9.1 19 17.8 24.3 0.3"/>
									<path id="&lt;Path&gt;" class="s1" d="m838.3 363.8c0 0 11-0.3 16.8 9.6 4.2 7.2 3.8 14.8 16.4 37.1 5.1 9.1-19.1 17.8-24.4 0.3"/>
									<path id="&lt;Path&gt;" class="s5" d="m886.5 450.9c0-2.3-0.1-3.9 0-5.9 0.1-2.1-1.2-9.4-1.9-11.4-0.7-2.1-2.7-5-3.6-6-1-1-2.4-3.1-6.2-5.2-3.9-2.1-6.6-3.6-9.4-4.1-2.8-0.5-48.8 0.3-51.6 0.3-2.8-0.1-5.4 0-6.8 0.9-1.5 0.9-6.3 3.1-8.2 4.9-1.8 1.9-4.6 5.4-5.3 6.8-0.6 1.4-1.8 4.7-2.3 6.6-0.4 1.8-1 5.6-1 6.7-0.1 1.1-0.1 4.1-0.1 4.1z"/>
									<path id="&lt;Path&gt;" class="s6" d="m845.4 406.1c0.4 1.1 3.5 7.6 6.1 8.5 2.7 0.9 3.9 1.6 5.8 1.7 2 0.1 6.1 1.4 7.3 1.6 1.3 0.1 1.6 1.2 1.3 1.7-0.4 0.5-3.1 4.8-4.3 5.6-1.3 0.9-4.2 3.4-4.7 3.8-0.5 0.3-4.8 3-7 3.7-2.3 0.7-6.7 1.8-9.3 1.9-2.7 0.1-5.8-0.4-7.5-0.6-1.7-0.2-6.7-1.7-9.1-2.8-2.4-1-6.4-3.7-8.2-5.5-1.7-1.8-4.1-4.6-4.4-5.5-0.3-0.9-1.2-1.5 0.4-2.1 1.6-0.6 6.3-1.6 8.7-2.1 2.5-0.6 3-0.7 4.7-1.7 1.6-0.9 3.4-2.1 3.8-2.9 0.4-0.8 1.9-3.6 2.3-5 0.4-1.4 0.7-3.1 1-2.9 0.4 0.2 2.8 1.5 5.5 1.5 2.8 0.1 2.7 0.2 4.2-0.3 1.6-0.4 3-0.7 3.2-0.3 0.1 0.3 0.2 1.7 0.2 1.7z"/>
									<path id="&lt;Path&gt;" class="s6" d="m841.3 378.1l3.3-9c0 0-5.2 5.6-12.9 7.6-7.6 1.9-8.2 7.8-8.2 7.8 0 0-2.6 0.4-2.1 3 0.5 2.3 3.4 2.4 3.4 2.4 0 0-0.5 13.4 10.8 15.7 11.2 2.4 17.4-8.1 18-16.2 0 0 2.5-1.3 2.7-3.1 0.2-2.5-2.7-2.8-2.7-2.8 0 0-5.2-5.3-5.8-10.4 0 0-4.2 4.9-6.5 5z"/>
									<path id="&lt;Path&gt;" class="s1" d="m841.3 378.1l3.3-9c0 0-5.2 5.6-12.9 7.6-7.6 1.9-8.2 7.8-8.2 7.8 0 0-2.6 0.4-2.1 3 0.5 2.3 3.4 2.4 3.4 2.4 0 0-0.5 13.4 10.8 15.7 11.2 2.4 17.4-8.1 18-16.2 0 0 2.5-1.3 2.7-3.1 0.2-2.5-2.7-2.8-2.7-2.8 0 0-5.2-5.3-5.8-10.4 0 0-4.2 4.9-6.5 5z"/>
									<path id="&lt;Path&gt;" class="s1" d="m866.2 418.3c0 0-8.3 17.5-29.1 16.1-20.8-1.4-26.7-16-26.7-16"/>
									<path id="&lt;Path&gt;" class="s1" d="m845.2 404.2c-0.2 5.4 4.5 11.2 10.5 11.9 6.3 0.8 11.2 2.5 11.2 2.5 0 0 10.7 3.5 15.4 10.8 4.7 7.3 4.2 19.4 4.2 19.4"/>
									<path id="&lt;Path&gt;" class="s1" d="m831.5 404.1c0.2 5.3-4.5 11.3-10.5 12-6.3 0.8-11.2 2.5-11.2 2.5 0 0-10.7 3.5-15.4 10.8-4.7 7.3-4.2 19.4-4.2 19.4"/>
									<path id="&lt;Path&gt;" class="s1" d="m838.3 389.7v2.8c0 0.9 0.8 1.7 1.7 1.7"/>
									<path id="&lt;Path&gt;" class="s1" d="m836.3 398c0 0 2.6 2.2 5.9 0"/>
									<path id="&lt;Path&gt;" class="s7" d="m846.1 387c0 0.6-0.5 1.1-1.1 1.1-0.6 0-1.1-0.5-1.1-1.1 0-0.6 0.5-1.1 1.1-1.1 0.6 0 1.1 0.5 1.1 1.1z"/>
									<path id="&lt;Path&gt;" class="s7" d="m833.5 387c0 0.6-0.5 1.1-1.2 1.1-0.6 0-1.1-0.5-1.1-1.1 0-0.6 0.5-1.1 1.1-1.1 0.7 0 1.2 0.5 1.2 1.1z"/>
									<path id="&lt;Path&gt;" class="s1" d="m828.7 385.2l-4.8-2"/>
									<path id="&lt;Path&gt;" class="s1" d="m848.9 385.2l4.5-1.9"/>
									<path id="&lt;Path&gt;" class="s1" d="m840.8 387.1h-4"/>
									<path id="&lt;Path&gt;" class="s1" d="m848.1 380.8c0 0-2.6-1.4-6.2 0.3"/>
									<path id="&lt;Path&gt;" class="s1" d="m829.2 380.8c0 0 2.7-1.4 6.3 0.3"/>
									<path id="&lt;Path&gt;" class="s1" d="m849.1 387c0 2.2-1.9 4.1-4.1 4.1-2.2 0-4.1-1.9-4.1-4.1 0-2.2 1.9-4.1 4.1-4.1 2.2 0 4.1 1.9 4.1 4.1z"/>
									<path id="&lt;Path&gt;" class="s1" d="m836.4 387c0 2.2-1.8 4.1-4.1 4.1-2.2 0-4-1.9-4-4.1 0-2.2 1.8-4.1 4-4.1 2.3 0 4.1 1.9 4.1 4.1z"/>
								</g>
								<path id="&lt;Path&gt;" class="s5" d="m889.9 398.9c0 28.2-22.9 51.1-51.1 51.1-28.2 0-51-22.9-51-51.1 0-28.2 22.8-51.1 51-51.1 28.2 0 51.1 22.9 51.1 51.1z"/>
							</g>
							<path id="&lt;Path&gt;" class="s1" d="m889.9 398.9c0 28.2-22.9 51.1-51.1 51.1-28.2 0-51-22.9-51-51.1 0-28.2 22.8-51.1 51-51.1 28.2 0 51.1 22.9 51.1 51.1z"/>
						</g>
						<g id="&lt;Group&gt;">
							<g id="&lt;Clip Group&gt;" clip-path="url(#cp2)">
								<g id="&lt;Group&gt;">
									<path id="&lt;Path&gt;" class="s4" d="m1081.8 610.9c0.1-1.1 0.5-2.2 0.7-3.7 0.1-1.4 0.8-5.3 0.8-6.8 0-1.4-0.1-3.9-0.3-5.1-0.2-1.1-0.3-1.4-0.6-2.2-0.3-0.8-2.2-3-3-3.6-0.8-0.6-1.6-1.2-2.8-1.9-1.2-0.6-5.3-3-5.3-3 0 0-2.4-1-4.3-1.3-1.9-0.3-5.1-0.3-6.1-0.3-1 0.1-3.8 0.7-5.1 1-1.3 0.3-2.1 0.7-3.3 1.3-1.3 0.7-3.1 2.2-3.8 3-0.6 0.8-1.5 1.8-1.9 2.5-0.4 0.6-1.7 2.9-2 3.7-0.3 0.9-0.8 2.2-0.7 2.9 0 0.7 0.3 2.5 0.4 3 0 0.5 0.9 5.1 1.1 5.8 0.2 0.8 1.1 3.8 1.1 3.8z"/>
									<path id="&lt;Path&gt;" class="s6" d="m1079.5 607.5c0.1-0.5-0.1-3.5-0.1-3.7-0.1-0.2-0.4-3-0.9-4.2-0.5-1.1-0.9-1.8-1.2-2.5-0.4-0.6-1.2-2.1-2.4-2.7-1.1-0.5-2.4-1-4-0.8-1.6 0.1-2.7 0.4-3.4 0.6-0.6 0.3-2.7 1-3.7 1.2-0.9 0.2-1.9-0.2-2.9-0.6-0.9-0.5-2.6-1.3-3.9-1.2-1.3 0-2.1-0.2-3.1 0.1-1 0.3-2.7 1-3.4 1.6-0.8 0.5-1.7 1.7-1.9 2.2-0.3 0.5-0.7 2.1-0.9 3.2-0.2 1.2-0.3 3.1-0.2 3.9 0.2 0.9 0.4 2.7 0.6 3.2 0.1 0.4 0.1 0.8-0.3 1-0.4 0.1-1.5 0.5-1.8 1-0.4 0.5-1.1 2-1.1 2.8 0 0.7 0.5 2.3 1.2 2.9 0.7 0.7 0.5 0.7 1.1 1 0.7 0.4 1.3 0.3 1.3 0.9 0.1 0.7 0.5 3.7 0.8 4.9 0.4 1.2 0.5 1.7 0.8 2.2 0.4 0.6 1.6 2.4 2.5 3.2 1 0.9 2.6 2 3.3 2.4 0.6 0.4 2.4 1.5 3.7 2.1 1.4 0.6 1.9 0.8 3.4 1.1 1.4 0.2 3.1-0.3 4.1-0.6 1-0.3 4.2-2.3 5-2.7 0.9-0.5 3.7-2.7 4.3-3.4 0.5-0.7 1-1.6 1.2-2.2 0.3-0.5 0.5-1.3 0.9-2.3 0.3-1 0.8-4.4 0.8-4.4 0 0 0.1-0.9 0.8-1 0.7-0.2 1.7-1.1 2.1-1.8 0.3-0.8 0.5-1.4 0.5-2.1 0-0.8-0.2-1.7-0.4-2.1-0.2-0.3-0.9-1.2-1.4-1.5-0.5-0.3-0.5-0.3-0.8-0.4-0.4-0.1-0.6-0.3-0.6-0.6 0-0.3 0-0.7 0-0.7z"/>
									<path id="&lt;Path&gt;" class="s6" d="m1075.1 631.3l-0.2-2.8c0 0-0.3-0.5-0.5-0.3-0.3 0.3-1.6 1.3-2 1.6-0.4 0.3-2.9 1.7-3.5 2-0.5 0.4-3.5 1.4-4.1 1.5-0.6 0.1-2.3-0.1-2.9-0.3-0.6-0.2-2.5-0.8-3-1.1-0.6-0.3-3.5-2.1-3.5-2.1 0 0-1.5-1.3-1.8-1.5-0.3-0.2-0.7-0.3-0.7 0.2 0 0.5-0.3 5-0.4 5.1 0 0.1-0.1 2.7-0.1 3.2-0.1 0.4-0.3 3.6-0.3 3.6 0 0 0.2 1.1 0.4 1.8 0.1 0.8 1 3.1 2 4.1 1 1 2.4 8.4 10.3 6.9 7.8-1.5 14.4-5.7 14.4-10.2 0.1-4.6-1.9-6.5-2.7-6.9-0.7-0.5-1.3-2.4-1.4-3 0-0.5 0-1.8 0-1.8z"/>
									<path id="&lt;Path&gt;" class="s0" d="m1116.1 660.9c0.6-0.1 0.4-0.6 0.4-0.6 0 0-1.9-3.3-2.2-4-0.3-0.6-2.7-3.9-3.6-5-1-1-4.7-4.7-7-6.2-2.3-1.4-7.8-4.2-11.4-5.4-3.7-1.2-8.1-2.7-10.5-3.3-2.4-0.6-5.9-1.6-6-1.5-0.1 0-0.3 0.1-0.3 0.4 0 0.4 0.3 4.9 0.3 5.5 0 0.7-0.4 1.5-0.5 2-0.1 0.5-1.4 2.6-2.1 3.6-0.8 1-1.8 1.7-2.2 2-0.5 0.4-3.3 2.4-4.3 3-1 0.5-1.4 0.9-2.3 0.9-1 0.1-1.6-0.2-2.4-0.6-0.9-0.3-3.1-1.7-3.1-1.7 0 0-3.3-2.6-4-3.1-0.6-0.6-1.7-2.2-2-2.8-0.2-0.5-0.6-1.8-0.7-2.7-0.1-1-0.1-2.5 0-3.3 0.1-0.7 0.1-1.1 0.1-1.9 0.1-0.9 0.1-1.4-0.4-1.3-0.4 0.1-5.2 1.3-5.2 1.3l-6.7 2c0 0-5.6 1.9-7.4 2.6-1.9 0.8-6 2.6-6.6 3.1-0.6 0.4-2.5 1.7-2.9 1.9-0.4 0.3-3.5 3.1-4 3.5-0.5 0.4-2.8 3-3.5 4-0.7 1-2.5 3.7-3 4.5-0.5 0.9-0.9 1.7-1.1 2.3-0.2 0.5-0.3 0.7 0.1 0.7 0.3 0.1 7.2 0 7.2 0z"/>
									<path id="&lt;Path&gt;" class="s1" d="m1124.5 660.8h-121.2"/>
									<path id="&lt;Path&gt;" class="s1" d="m1053 627.9l-0.7 9.2c0 0-1.2 4.8 1.8 8.7 2 2.5 5.7 4.8 7.9 6.1 1.2 0.6 2.6 0.6 3.8 0 2.3-1.3 5.9-3.6 7.9-6.1 3.1-3.9 1.9-8.7 1.9-8.7l-0.8-9.2"/>
									<path id="&lt;Path&gt;" class="s1" d="m1079.5 613.3c0 0 0.1 5.9-1.3 10.2-1.5 4.3-10.2 9.8-14.3 9.8"/>
									<path id="&lt;Path&gt;" class="s1" d="m1048.3 613.3c0 0-0.1 5.9 1.4 10.2 1.4 4.3 10.1 9.8 14.2 9.8"/>
									<path id="&lt;Path&gt;" class="s1" d="m1079.4 608.7c0 0 2.5-0.1 3.2 2.8 0.8 2.8-1.4 5.2-3.2 5.3"/>
									<path id="&lt;Path&gt;" class="s1" d="m1048.3 608.7c0 0-2.4-0.1-3.2 2.8-0.8 2.8 1.5 5.2 3.2 5.3"/>
									<g id="&lt;Group&gt;">
										<path id="&lt;Path&gt;" class="s1" d="m1079.4 608.7c0 0 0.9-5.2-2-11.4-2.9-6.1-9.5-3.2-12.8-2-3.2 1.1-5.7-3.5-12.6-0.9-7 2.5-3.7 14.3-3.7 14.3"/>
										<path id="&lt;Path&gt;" class="s1" d="m1081.9 610c0 0 1.4-6 1.4-12.5 0-6.4-3.9-8.2-10.3-12-6.3-3.9-17.1-2.8-21.6 0.5-4.5 3.2-6.6 7.9-7.2 10.4-0.8 2.8 2.3 12.9 2.3 12.9"/>
									</g>
									<g id="&lt;Group&gt;">
										<path id="&lt;Path&gt;" class="s1" d="m1062.5 611.6v4c0 0.9 0.8 1.7 1.7 1.7"/>
										<path id="&lt;Path&gt;" class="s1" d="m1060.7 619.2c0 0 2.4 2.1 5.6 0"/>
										<path id="&lt;Path&gt;" class="s7" d="m1070 609.6c0 0.6-0.5 1.1-1.1 1.1-0.6 0-1-0.5-1-1.1 0-0.6 0.4-1.1 1-1.1 0.6 0 1.1 0.5 1.1 1.1z"/>
										<path id="&lt;Path&gt;" class="s7" d="m1057.9 609.6c0 0.6-0.5 1.1-1.1 1.1-0.6 0-1-0.5-1-1.1 0-0.6 0.4-1.1 1-1.1 0.6 0 1.1 0.5 1.1 1.1z"/>
										<path id="&lt;Path&gt;" class="s1" d="m1052.9 609l-4.9-2.7"/>
										<path id="&lt;Path&gt;" class="s1" d="m1072.8 609.4l6.8-2.8"/>
										<path id="&lt;Path&gt;" class="s1" d="m1071.9 603.7c0 0-2.5-1.3-6 0.3"/>
										<path id="&lt;Path&gt;" class="s1" d="m1053.8 603.7c0 0 2.6-1.3 6 0.3"/>
										<path id="&lt;Path&gt;" class="s1" d="m1072.8 609.6c0 2.2-1.7 3.9-3.9 3.9-2.1 0-3.8-1.7-3.8-3.9 0-2.1 1.7-3.9 3.8-3.9 2.2 0 3.9 1.8 3.9 3.9z"/>
										<path id="&lt;Path&gt;" class="s1" d="m1060.7 609.6c0 2.2-1.7 3.9-3.9 3.9-2.1 0-3.9-1.7-3.9-3.9 0-2.1 1.8-3.9 3.9-3.9 2.2 0 3.9 1.8 3.9 3.9z"/>
									</g>
									<path id="&lt;Path&gt;" class="s1" d="m1075.4 634.8c0 0 12.6 2.7 22.9 7.3 13.8 6.2 18.3 18.7 18.3 18.7"/>
									<path id="&lt;Path&gt;" class="s1" d="m1052.4 634.8c0 0-12.6 2.7-22.8 7.3-13.9 6.2-18.4 18.7-18.4 18.7"/>
									<path id="&lt;Path&gt;" class="s1" d="m1082.5 614.3c0 0-0.4-1.2-1.4-2.1"/>
									<path id="&lt;Path&gt;" class="s1" d="m1045.3 614.3c0 0 0.4-1.2 1.4-2.1"/>
									<path id="&lt;Path&gt;" class="s1" d="m1065.5 607.8c0 0-2.9-1.1-5.2 0"/>
								</g>
								<path id="&lt;Path&gt;" class="s0" d="m1014.2 608.6c0 28.2 22.9 51.1 51.1 51.1 28.2 0 51.1-22.9 51.1-51.1 0-28.2-22.9-51.1-51.1-51.1-28.2 0-51.1 22.9-51.1 51.1z"/>
							</g>
							<path id="&lt;Path&gt;" class="s1" d="m1014.2 608.6c0 28.2 22.9 51.1 51.1 51.1 28.2 0 51.1-22.9 51.1-51.1 0-28.2-22.9-51.1-51.1-51.1-28.2 0-51.1 22.9-51.1 51.1z"/>
						</g>
						<g id="&lt;Group&gt;">
							<g id="&lt;Clip Group&gt;" clip-path="url(#cp3)">
								<g id="&lt;Group&gt;">
									<path id="&lt;Path&gt;" class="s4" d="m867.2 846.9c1.9-0.7 3.5-2.2 4.1-3.3 0.7-1 1-2.6 0.9-3.5-0.1-0.8-0.7-2.2-1.2-3.2-0.6-1-2.7-4.1-3-4.9-0.4-0.9-2.2-4.6-2.8-6.1-0.6-1.5-3.4-8-3.8-9.1-0.4-1.1-2.2-6-2.6-7.1-0.5-1.2-2-6-2.9-7.5-0.8-1.5-2.2-3.7-3.1-4.7-0.9-1-3.4-2.8-4.8-3.6-1.3-0.8-4.5-2.1-6.8-2.5-2.3-0.4-4.8 0.1-5.6 0.2-0.8 0.2-4.2 1.3-5.4 1.8-1.1 0.5-3.8 2.4-4.6 3.1-0.8 0.6-2.9 3-3.9 4.6-0.9 1.6-1.6 3.2-2.2 4.8-0.6 1.7-2 5.3-2.3 6.1-0.4 0.9-1 3.1-1.5 4.5-0.6 1.3-1.5 3.3-2.1 4.9-0.7 1.6-3 6.2-3 6.2 0 0-1 2.3-1.8 3.6-0.8 1.4-1.8 3.7-2.6 5-0.7 1.3-1.8 2.7-1.8 4.1 0.1 1.5 0.5 3 1.5 4.1 1.1 1 4.6 3 6.4 3.5 1.7 0.5 31.4 2.7 38.7 2.7 7.4 0 16.2-3.7 16.2-3.7z"/>
									<path id="&lt;Path&gt;" class="s1" d="m838.3 791.4c0 0-10.9-0.3-16.7 9.5-4.2 7.3-3.8 14.8-16.4 37.2-5.1 9.1 19 17.8 24.3 0.3"/>
									<path id="&lt;Path&gt;" class="s1" d="m838.3 791.4c0 0 11-0.3 16.8 9.5 4.2 7.3 3.8 14.8 16.4 37.2 5.1 9.1-19.1 17.8-24.4 0.3"/>
									<path id="&lt;Path&gt;" class="s5" d="m886.5 878.4c0-2.2-0.1-3.8 0-5.9 0.1-2.1-1.2-9.3-1.9-11.4-0.7-2-2.7-4.9-3.6-6-1-1-2.4-3-6.2-5.2-3.9-2.1-6.6-3.5-9.4-4-2.8-0.5-48.8 0.3-51.6 0.2-2.8 0-5.4 0.1-6.8 1-1.5 0.8-6.3 3-8.2 4.9-1.8 1.8-4.6 5.4-5.3 6.8-0.6 1.4-1.8 4.7-2.3 6.5-0.4 1.8-1 5.6-1 6.7-0.1 1.1-0.1 4.2-0.1 4.2z"/>
									<path id="&lt;Path&gt;" class="s6" d="m845.4 833.6c0.4 1.2 3.5 7.6 6.1 8.5 2.7 1 3.9 1.6 5.8 1.8 2 0.1 6.1 1.4 7.3 1.5 1.3 0.1 1.6 1.2 1.3 1.7-0.4 0.6-3.1 4.8-4.3 5.7-1.3 0.9-4.2 3.3-4.7 3.7-0.5 0.4-4.8 3-7 3.8-2.3 0.7-6.7 1.8-9.3 1.9-2.7 0.1-5.8-0.5-7.5-0.7-1.7-0.2-6.7-1.6-9.1-2.7-2.4-1.1-6.4-3.7-8.2-5.5-1.7-1.8-4.1-4.6-4.4-5.5-0.3-0.9-1.2-1.5 0.4-2.1 1.6-0.6 6.3-1.6 8.7-2.2 2.5-0.5 3-0.7 4.7-1.6 1.6-1 3.4-2.2 3.8-3 0.4-0.8 1.9-3.5 2.3-5 0.4-1.4 0.7-3 1-2.8 0.4 0.2 2.8 1.4 5.5 1.5 2.8 0.1 2.7 0.1 4.2-0.3 1.6-0.5 3-0.7 3.2-0.4 0.1 0.4 0.2 1.7 0.2 1.7z"/>
									<path id="&lt;Path&gt;" class="s6" d="m841.3 805.6l3.3-9c0 0-5.2 5.7-12.9 7.6-7.6 2-8.2 7.9-8.2 7.9 0 0-2.6 0.3-2.1 3 0.5 2.2 3.4 2.3 3.4 2.3 0 0-0.5 13.4 10.8 15.8 11.2 2.3 17.4-8.2 18-16.2 0 0 2.5-1.4 2.7-3.2 0.2-2.5-2.7-2.7-2.7-2.7 0 0-5.2-5.4-5.8-10.4 0 0-4.2 4.8-6.5 4.9z"/>
									<path id="&lt;Path&gt;" class="s1" d="m841.3 805.6l3.3-9c0 0-5.2 5.7-12.9 7.6-7.6 2-8.2 7.9-8.2 7.9 0 0-2.6 0.3-2.1 3 0.5 2.2 3.4 2.3 3.4 2.3 0 0-0.5 13.4 10.8 15.8 11.2 2.3 17.4-8.2 18-16.2 0 0 2.5-1.4 2.7-3.2 0.2-2.5-2.7-2.7-2.7-2.7 0 0-5.2-5.4-5.8-10.4 0 0-4.2 4.8-6.5 4.9z"/>
									<path id="&lt;Path&gt;" class="s1" d="m866.2 845.9c0 0-8.3 17.5-29.1 16.1-20.8-1.4-26.7-16.1-26.7-16.1"/>
									<path id="&lt;Path&gt;" class="s1" d="m845.2 831.8c-0.2 5.3 4.5 11.1 10.5 11.8 6.3 0.8 11.2 2.5 11.2 2.5 0 0 10.7 3.6 15.4 10.9 4.7 7.3 4.2 19.4 4.2 19.4"/>
									<path id="&lt;Path&gt;" class="s1" d="m831.5 831.6c0.2 5.4-4.5 11.3-10.5 12-6.3 0.8-11.2 2.5-11.2 2.5 0 0-10.7 3.6-15.4 10.9-4.7 7.3-4.2 19.4-4.2 19.4"/>
									<path id="&lt;Path&gt;" class="s1" d="m838.3 817.3v2.7c0 1 0.8 1.8 1.7 1.8"/>
									<path id="&lt;Path&gt;" class="s1" d="m836.3 825.5c0 0 2.6 2.2 5.9 0"/>
									<path id="&lt;Path&gt;" class="s7" d="m846.1 814.5c0 0.7-0.5 1.2-1.1 1.2-0.6 0-1.1-0.5-1.1-1.2 0-0.6 0.5-1.1 1.1-1.1 0.6 0 1.1 0.5 1.1 1.1z"/>
									<path id="&lt;Path&gt;" class="s7" d="m833.5 814.5c0 0.7-0.5 1.2-1.2 1.2-0.6 0-1.1-0.5-1.1-1.2 0-0.6 0.5-1.1 1.1-1.1 0.7 0 1.2 0.5 1.2 1.1z"/>
									<path id="&lt;Path&gt;" class="s1" d="m828.7 812.8l-4.8-2.1"/>
									<path id="&lt;Path&gt;" class="s1" d="m848.9 812.8l4.5-2"/>
									<path id="&lt;Path&gt;" class="s1" d="m840.8 814.6h-4"/>
									<path id="&lt;Path&gt;" class="s1" d="m848.1 808.4c0 0-2.6-1.4-6.2 0.3"/>
									<path id="&lt;Path&gt;" class="s1" d="m829.2 808.4c0 0 2.7-1.4 6.3 0.3"/>
									<path id="&lt;Path&gt;" class="s1" d="m849.1 814.5c0 2.3-1.9 4.1-4.1 4.1-2.2 0-4.1-1.8-4.1-4.1 0-2.2 1.9-4 4.1-4 2.2 0 4.1 1.8 4.1 4z"/>
									<path id="&lt;Path&gt;" class="s1" d="m836.4 814.5c0 2.3-1.8 4.1-4.1 4.1-2.2 0-4-1.8-4-4.1 0-2.2 1.8-4 4-4 2.3 0 4.1 1.8 4.1 4z"/>
								</g>
								<path id="&lt;Path&gt;" class="s5" d="m889.9 826.4c0 28.2-22.9 51.1-51.1 51.1-28.2 0-51-22.9-51-51.1 0-28.2 22.8-51.1 51-51.1 28.2 0 51.1 22.9 51.1 51.1z"/>
							</g>
							<path id="&lt;Path&gt;" class="s1" d="m889.9 826.4c0 28.2-22.9 51.1-51.1 51.1-28.2 0-51-22.9-51-51.1 0-28.2 22.8-51.1 51-51.1 28.2 0 51.1 22.9 51.1 51.1z"/>
						</g>
						<g id="&lt;Group&gt;">
							<path id="&lt;Path&gt;" class="s1" d="m881.9 454.3c0 0 1.2-7.5 0-12.6-0.2-1.2 1.1-2.2 2.2-1.6 5.4 2.9 14.8 8.8 16.1 14.2h191.9c6.3 0 11.4 5.1 11.4 11.4v65.9c0 6.3-5.1 11.4-11.4 11.4h-219.9c-6.3 0-11.4-5.1-11.4-11.4v-65.9c0-6.3 5.1-11.4 11.4-11.4z"/>
						</g>
						<g id="&lt;Group&gt;">
							<path id="&lt;Path&gt;" class="s1" d="m1035.7 673.5c0 0-1.2-7.6-0.1-12.6 0.3-1.2-1-2.2-2.1-1.6-5.4 2.9-14.8 8.8-16.1 14.2h-191.9c-6.3 0-11.4 5.1-11.4 11.4v65.9c0 6.3 5.1 11.4 11.4 11.4h219.9c6.3 0 11.4-5.1 11.4-11.4v-65.9c0-6.3-5.1-11.4-11.4-11.4z"/>
						</g>
						<g id="&lt;Group&gt;">
							<path id="&lt;Path&gt;" class="s1" d="m881.9 892.7c0 0 1.2-7.6 0-12.6-0.2-1.3 1.1-2.2 2.2-1.6 5.4 2.9 14.8 8.8 16.1 14.2h191.9c6.3 0 11.4 5.1 11.4 11.3v66c0 6.3-5.1 11.4-11.4 11.4h-219.9c-6.3 0-11.4-5.1-11.4-11.4v-66c0-6.2 5.1-11.3 11.4-11.3z"/>
						</g>
					</g>
					<g id="&lt;Group&gt;">
						<path id="&lt;Path&gt;" class="s8" d="m525.6 385.1v21h-13.5v-20.9c2 1.1 4.3 1.7 6.8 1.7 2.4 0 4.7-0.7 6.7-1.8z"/>
						<path id="&lt;Path&gt;" class="s9" d="m532.8 372.9c0 5.3-2.9 9.9-7.2 12.2-2 1.1-4.3 1.8-6.7 1.8-2.5 0-4.8-0.6-6.8-1.7-4.3-2.4-7.2-7-7.2-12.3 0-7.7 6.2-14 14-14 7.7 0 13.9 6.3 13.9 14z"/>
						<path id="&lt;Path&gt;" class="s1" d="m532.8 372.9c0 5.3-2.9 9.9-7.2 12.2-2 1.1-4.3 1.8-6.7 1.8-2.5 0-4.8-0.6-6.8-1.7-4.3-2.4-7.2-7-7.2-12.3 0-7.7 6.2-14 14-14 7.7 0 13.9 6.3 13.9 14z"/>
						<path id="&lt;Path&gt;" class="s1" d="m525.6 385.1v21h-13.5v-20.9c2 1.1 4.3 1.7 6.8 1.7 2.4 0 4.7-0.7 6.7-1.8z"/>
						<path id="&lt;Path&gt;" class="s9" d="m572.5 645.8h-106.9c-10.7 0-19.3-8.6-19.3-19.3 0-10.7 8.6-19.3 19.3-19.3h106.9c10.7 0 19.3 8.6 19.3 19.3 0 10.7-8.6 19.3-19.3 19.3z"/>
						<path id="&lt;Path&gt;" class="s1" d="m572.5 645.8h-106.9c-10.7 0-19.3-8.6-19.3-19.3 0-10.7 8.6-19.3 19.3-19.3h106.9c10.7 0 19.3 8.6 19.3 19.3 0 10.7-8.6 19.3-19.3 19.3z"/>
						<g id="&lt;Group&gt;">
							<path id="&lt;Path&gt;" class="s10" d="m709.1 544.1c0 14.9-12.1 27.1-27 27.1-14.9 0-27-12.2-27-27.1 0-14.9 12.1-27 27-27 14.9 0 27 12.1 27 27z"/>
							<path id="&lt;Path&gt;" class="s10" d="m378 544.1c0 14.9-12.1 27.1-27 27.1-15 0-27.1-12.2-27.1-27.1 0-14.9 12.1-27 27.1-27 14.9 0 27 12.1 27 27z"/>
						</g>
						<g id="&lt;Group&gt;">
							<path id="&lt;Path&gt;" class="s1" d="m709.1 544.1c0 14.9-12.1 27.1-27 27.1-14.9 0-27-12.2-27-27.1 0-14.9 12.1-27 27-27 14.9 0 27 12.1 27 27z"/>
							<path id="&lt;Path&gt;" class="s1" d="m378 544.1c0 14.9-12.1 27.1-27 27.1-15 0-27.1-12.2-27.1-27.1 0-14.9 12.1-27 27.1-27 14.9 0 27 12.1 27 27z"/>
						</g>
						<path id="&lt;Path&gt;" class="s11" d="m670.7 511.7c0-61.6-69-111.6-154.2-111.6-85.1 0-154.1 50-154.1 111.6 0 61.6-6 111.6 154.1 111.6 154.2 0 154.2-50 154.2-111.6z"/>
						<path id="&lt;Path&gt;" class="s11" d="m677.7 701.8c-0.1 13.5-1 38.7-5.6 68.2q-0.3 2.3-0.7 4.6c-10.2 61.7-36.6 140.2-103.8 171.9-26.2 12.4-56.8 12.4-83 0-69.7-32.9-95.5-116.2-104.9-178.8-4.6-30.8-5.2-56.5-5.2-68.7 0-4.6 0-7.3 0-7.6 160 77.3 303.2-0.1 303.2-0.1 0 0 0.1 3.8 0 10.5z"/>
						<path id="&lt;Path&gt;" class="s10" d="m677.7 691.3c0 0-143.2 77.4-303.2 0.1q0 0 0-0.1c0 0 143.2-77.4 303.2 0z"/>
						<path id="&lt;Path&gt;" class="s1" d="m670.7 511.7c0-61.6-69-111.6-154.2-111.6-85.1 0-154.1 50-154.1 111.6 0 61.6-6 111.6 154.1 111.6 154.2 0 154.2-50 154.2-111.6z"/>
						<path id="&lt;Path&gt;" class="s1" d="m677.7 691.3c0 0-143.2 77.4-303.2 0.1q0 0 0-0.1c0 0 143.2-77.4 303.2 0z"/>
						<path id="&lt;Path&gt;" class="s1" d="m677.7 701.8c-0.1 13.5-1 38.7-5.6 68.2q-0.3 2.3-0.7 4.6c-10.2 61.7-36.6 140.2-103.8 171.9-26.2 12.4-56.8 12.4-83 0-69.7-32.9-95.5-116.2-104.9-178.8-4.6-30.8-5.2-56.5-5.2-68.7 0-4.6 0-7.3 0-7.6 160 77.3 303.2-0.1 303.2-0.1 0 0 0.1 3.8 0 10.5z"/>
						<path id="&lt;Path&gt;" class="s10" d="m601.2 572.4h-178.1c-18.9 0-34.3-15.4-34.3-34.3 0-18.9 15.4-34.2 34.3-34.2h178.1c18.9 0 34.3 15.3 34.3 34.2 0 18.9-15.4 34.3-34.3 34.3z"/>
						<path id="&lt;Path&gt;" class="s1" d="m601.2 572.4h-178.1c-18.9 0-34.3-15.4-34.3-34.3 0-18.9 15.4-34.2 34.3-34.2h178.1c18.9 0 34.3 15.3 34.3 34.2 0 18.9-15.4 34.3-34.3 34.3z"/>
						<path id="&lt;Path&gt;" class="s9" d="m599.5 535.2c0 10.4-8.5 18.8-18.9 18.8-10.4 0-18.9-8.4-18.9-18.8 0-10.5 8.5-18.9 18.9-18.9 10.4 0 18.9 8.4 18.9 18.9z"/>
						<path id="&lt;Path&gt;" class="s9" d="m466.2 535.2c0 10.4-8.5 18.8-18.9 18.8-10.4 0-18.8-8.4-18.8-18.8 0-10.5 8.4-18.9 18.8-18.9 10.4 0 18.9 8.4 18.9 18.9z"/>
						<path id="&lt;Path&gt;" class="s1" d="m599.5 535.2c0 10.4-8.5 18.8-18.9 18.8-10.4 0-18.9-8.4-18.9-18.8 0-10.5 8.5-18.9 18.9-18.9 10.4 0 18.9 8.4 18.9 18.9z"/>
						<path id="&lt;Path&gt;" class="s1" d="m466.2 535.2c0 10.4-8.5 18.8-18.9 18.8-10.4 0-18.8-8.4-18.8-18.8 0-10.5 8.4-18.9 18.8-18.9 10.4 0 18.9 8.4 18.9 18.9z"/>
						<g id="&lt;Group&gt;">
							<path id="&lt;Path&gt;" class="s9" d="m270.3 598.7c0 1.6-0.7 3.2-2.1 4.3l-13.3 9.8c-0.3-3.9-1.6-7.5-3.6-10.5l10.6-7.8c2.3-1.8 5.6-1.3 7.4 1.1 0.7 0.9 1 2 1 3.1z"/>
							<path id="&lt;Path&gt;" class="s9" d="m244.3 595.6c-3.1-1.8-6.7-3-10.6-3.1l-0.2-17.4c0-2.9 2.3-5.3 5.2-5.3h0.1c2.9 0 5.2 2.3 5.2 5.2z"/>
							<path id="&lt;Path&gt;" class="s9" d="m232.4 592.5c-3.7 0.1-7.2 1.1-10.2 2.8l-3.9-18.6c-0.5-2.9 1.3-5.7 4.2-6.2q0.5-0.1 1-0.1c2.5 0 4.7 1.7 5.2 4.2z"/>
							<path id="&lt;Path&gt;" class="s9" d="m220.6 596.3c-3.2 2.1-5.8 5.1-7.4 8.5l-10.8-20c-1.4-2.6-0.4-5.8 2.1-7.2q1.3-0.6 2.5-0.6c1.9 0 3.7 1 4.7 2.8z"/>
							<path id="&lt;Path&gt;" class="s9" d="m349.8 732.7c0 4.4 0.8 8.6 2.2 12.5l-73.8-10c11.1-3.3 19.2-13.6 19.2-25.8q0-0.9-0.1-1.8l58.6 5.1c-3.9 5.7-6.1 12.6-6.1 20z"/>
							<path id="&lt;Path&gt;" class="s9" d="m274.5 682.7q-2-0.3-4.1-0.3c-12 0-22.2 7.8-25.7 18.7l-22.9-67.5c3.3 1.9 7.1 3 11.2 3 6.6 0 12.6-3 16.6-7.6z"/>
							<path id="&lt;Path&gt;" class="s10" d="m297.4 709.4c0 12.2-8.1 22.5-19.2 25.8-2.5 0.8-5.1 1.2-7.8 1.2-14.9 0-27-12.1-27-27 0-2.9 0.5-5.7 1.3-8.3 3.5-10.9 13.7-18.7 25.7-18.7q2.1 0 4.1 0.3c12.4 1.9 22 12.2 22.8 24.9q0.1 0.9 0.1 1.8z"/>
							<path id="&lt;Path&gt;" class="s10" d="m255 614.5c0 5.6-2 10.6-5.4 14.5-4 4.6-10 7.6-16.6 7.6-4.1 0-7.9-1.1-11.2-3-6.5-3.8-10.9-10.9-10.9-19.1 0-3.5 0.8-6.8 2.3-9.7 1.6-3.4 4.2-6.4 7.4-8.5q0.8-0.6 1.6-1c3-1.7 6.5-2.7 10.2-2.8h0.6q0.3 0 0.7 0c3.9 0.1 7.5 1.3 10.6 3.1 2.8 1.7 5.2 4 7 6.7 2 3 3.3 6.6 3.6 10.5q0.1 0.8 0.1 1.7z"/>
							<path id="&lt;Path&gt;" class="s10" d="m379.7 767.7c-12.7-1.9-23.2-10.7-27.7-22.5-1.4-3.9-2.2-8.1-2.2-12.5 0-7.4 2.2-14.3 6.1-20 4.4-6.4 10.9-11.3 18.6-13.7 0 12.2 0.6 37.9 5.2 68.7z"/>
							<path id="&lt;Path&gt;" class="s1" d="m379.7 767.7c-12.7-1.9-23.2-10.7-27.7-22.5-1.4-3.9-2.2-8.1-2.2-12.5 0-7.4 2.2-14.3 6.1-20 4.4-6.4 10.9-11.3 18.6-13.7 0 12.2 0.6 37.9 5.2 68.7z"/>
							<path id="&lt;Path&gt;" class="s1" d="m349.8 732.7c0 4.4 0.8 8.6 2.2 12.5l-73.8-10c11.1-3.3 19.2-13.6 19.2-25.8q0-0.9-0.1-1.8l58.6 5.1c-3.9 5.7-6.1 12.6-6.1 20z"/>
							<path id="&lt;Path&gt;" class="s1" d="m297.4 709.4c0 12.2-8.1 22.5-19.2 25.8-2.5 0.8-5.1 1.2-7.8 1.2-14.9 0-27-12.1-27-27 0-2.9 0.5-5.7 1.3-8.3 3.5-10.9 13.7-18.7 25.7-18.7q2.1 0 4.1 0.3c12.4 1.9 22 12.2 22.8 24.9q0.1 0.9 0.1 1.8z"/>
							<path id="&lt;Path&gt;" class="s1" d="m255 614.5c0 5.6-2 10.6-5.4 14.5-4 4.6-10 7.6-16.6 7.6-4.1 0-7.9-1.1-11.2-3-6.5-3.8-10.9-10.9-10.9-19.1 0-3.5 0.8-6.8 2.3-9.7 1.6-3.4 4.2-6.4 7.4-8.5q0.8-0.6 1.6-1c3-1.7 6.5-2.7 10.2-2.8h0.6q0.3 0 0.7 0c3.9 0.1 7.5 1.3 10.6 3.1 2.8 1.7 5.2 4 7 6.7 2 3 3.3 6.6 3.6 10.5q0.1 0.8 0.1 1.7z"/>
							<path id="&lt;Path&gt;" class="s1" d="m297.4 709.4c0 12.2-8.1 22.5-19.2 25.8-2.5 0.8-5.1 1.2-7.8 1.2-14.9 0-27-12.1-27-27 0-2.9 0.5-5.7 1.3-8.3 3.5-10.9 13.7-18.7 25.7-18.7q2.1 0 4.1 0.3c12.4 1.9 22 12.2 22.8 24.9q0.1 0.9 0.1 1.8z"/>
							<path id="&lt;Path&gt;" class="s1" d="m255 614.5c0 5.6-2 10.6-5.4 14.5-4 4.6-10 7.6-16.6 7.6-4.1 0-7.9-1.1-11.2-3-6.5-3.8-10.9-10.9-10.9-19.1 0-3.5 0.8-6.8 2.3-9.7 1.6-3.4 4.2-6.4 7.4-8.5q0.8-0.6 1.6-1c3-1.7 6.5-2.7 10.2-2.8h0.6q0.3 0 0.7 0c3.9 0.1 7.5 1.3 10.6 3.1 2.8 1.7 5.2 4 7 6.7 2 3 3.3 6.6 3.6 10.5q0.1 0.8 0.1 1.7z"/>
							<path id="&lt;Path&gt;" class="s1" d="m274.5 682.7q-2-0.3-4.1-0.3c-12 0-22.2 7.8-25.7 18.7l-22.9-67.5c3.3 1.9 7.1 3 11.2 3 6.6 0 12.6-3 16.6-7.6z"/>
							<path id="&lt;Path&gt;" class="s1" d="m270.3 598.7c0 1.6-0.7 3.2-2.1 4.3l-13.3 9.8c-0.3-3.9-1.6-7.5-3.6-10.5l10.6-7.8c2.3-1.8 5.6-1.3 7.4 1.1 0.7 0.9 1 2 1 3.1z"/>
							<path id="&lt;Path&gt;" class="s1" d="m244.3 595.6c-3.1-1.8-6.7-3-10.6-3.1l-0.2-17.4c0-2.9 2.3-5.3 5.2-5.3h0.1c2.9 0 5.2 2.3 5.2 5.2z"/>
							<path id="&lt;Path&gt;" class="s1" d="m232.4 592.5c-3.7 0.1-7.2 1.1-10.2 2.8l-3.9-18.6c-0.5-2.9 1.3-5.7 4.2-6.2q0.5-0.1 1-0.1c2.5 0 4.7 1.7 5.2 4.2z"/>
							<path id="&lt;Path&gt;" class="s1" d="m220.6 596.3c-3.2 2.1-5.8 5.1-7.4 8.5l-10.8-20c-1.4-2.6-0.4-5.8 2.1-7.2q1.3-0.6 2.5-0.6c1.9 0 3.7 1 4.7 2.8z"/>
						</g>
						<g id="&lt;Group&gt;">
							<path id="&lt;Path&gt;" class="s9" d="m727.2 809.9c-3.1-0.8-6.2-1.1-9.6-0.9-2.6 0.3-5.2 0.9-7.6 1.9-4.6 1.8-8.5 4.8-11.5 8.7l-27.1-45q0.4-2.3 0.7-4.6c7.6-1.3 14.4-5.1 19.6-10.6 1.8-1.9 3.4-4 4.7-6.3z"/>
							<path id="&lt;Path&gt;" class="s9" d="m718.2 862.9q2.1 0.1 4.1 0c12-1.1 21.5-9.8 24-20.9l28.6 65.3c-3.4-1.6-7.2-2.4-11.3-2.1-6.6 0.6-12.3 4.1-15.9 9z"/>
							<path id="&lt;Path&gt;" class="s10" d="m700.9 740.6c-0.7 4.6-2.3 8.8-4.5 12.5-1.3 2.3-2.9 4.4-4.7 6.3-5.2 5.5-12 9.3-19.6 10.6 4.6-29.5 5.5-54.7 5.6-68.2 11.8 4.2 20.4 14.2 22.9 26.1 0.8 4.1 1 8.4 0.3 12.7z"/>
							<path id="&lt;Path&gt;" class="s1" d="m700.9 740.6c-0.7 4.6-2.3 8.8-4.5 12.5-1.3 2.3-2.9 4.4-4.7 6.3-5.2 5.5-12 9.3-19.6 10.6 4.6-29.5 5.5-54.7 5.6-68.2 11.8 4.2 20.4 14.2 22.9 26.1 0.8 4.1 1 8.4 0.3 12.7z"/>
							<path id="&lt;Path&gt;" class="s1" d="m677.7 701.8q-0.5-0.2-1-0.4"/>
							<path id="&lt;Path&gt;" class="s1" d="m727.2 809.9c-3.1-0.8-6.2-1.1-9.6-0.9-2.6 0.3-5.2 0.9-7.6 1.9-4.6 1.8-8.5 4.8-11.5 8.7l-27.1-45q0.4-2.3 0.7-4.6c7.6-1.3 14.4-5.1 19.6-10.6 1.8-1.9 3.4-4 4.7-6.3z"/>
							<path id="&lt;Path&gt;" class="s10" d="m746.3 842c-2.6 11.1-12 19.8-24 20.8q-2 0.2-4.1 0.1c-12.5-0.8-23-10.3-24.9-22.8q-0.1-0.9-0.2-1.8c-0.6-7 1.5-13.6 5.4-18.7 3-3.9 6.9-6.9 11.5-8.7 2.4-1 5-1.6 7.6-1.9 3.4-0.2 6.5 0.1 9.6 0.9 10.5 2.9 18.7 12.1 19.7 23.7 0.2 2.9 0 5.7-0.6 8.4z"/>
							<path id="&lt;Path&gt;" class="s10" d="m743.6 929.1c-0.5-5.5 1.1-10.7 4.1-14.9 3.6-4.9 9.3-8.4 15.9-9 4.1-0.3 7.9 0.5 11.3 2.1 6.9 3.2 11.9 9.9 12.6 18 0.3 3.5-0.2 6.8-1.4 9.9-1.4 3.6-3.7 6.7-6.7 9.1q-0.7 0.6-1.5 1.2c-2.9 1.9-6.2 3.2-9.9 3.6l-0.6 0.1q-0.4 0-0.7 0c-3.9 0.2-7.6-0.6-10.9-2.2-2.9-1.4-5.5-3.5-7.5-6-2.3-2.9-3.9-6.3-4.5-10.1q-0.2-0.9-0.2-1.8z"/>
							<path id="&lt;Path&gt;" class="s1" d="m746.3 842c-2.6 11.1-12 19.8-24 20.8q-2 0.2-4.1 0.1c-12.5-0.8-23-10.3-24.9-22.8q-0.1-0.9-0.2-1.8c-0.6-7 1.5-13.6 5.4-18.7 3-3.9 6.9-6.9 11.5-8.7 2.4-1 5-1.6 7.6-1.9 3.4-0.2 6.5 0.1 9.6 0.9 10.5 2.9 18.7 12.1 19.7 23.7 0.2 2.9 0 5.7-0.6 8.4z"/>
							<path id="&lt;Path&gt;" class="s1" d="m743.6 929.1c-0.5-5.5 1.1-10.7 4.1-14.9 3.6-4.9 9.3-8.4 15.9-9 4.1-0.3 7.9 0.5 11.3 2.1 6.9 3.2 11.9 9.9 12.6 18 0.3 3.5-0.2 6.8-1.4 9.9-1.4 3.6-3.7 6.7-6.7 9.1q-0.7 0.6-1.5 1.2c-2.9 1.9-6.2 3.2-9.9 3.6l-0.6 0.1q-0.4 0-0.7 0c-3.9 0.2-7.6-0.6-10.9-2.2-2.9-1.4-5.5-3.5-7.5-6-2.3-2.9-3.9-6.3-4.5-10.1q-0.2-0.9-0.2-1.8z"/>
							<path id="&lt;Path&gt;" class="s1" d="m718.2 862.9q2.1 0.1 4.1 0c12-1.1 21.5-9.8 24-20.9l28.6 65.3c-3.4-1.6-7.2-2.4-11.3-2.1-6.6 0.6-12.3 4.1-15.9 9z"/>
							<path id="&lt;Path&gt;" class="s9" d="m729.7 946.2c-0.2-1.6 0.4-3.3 1.7-4.4l12.4-10.9c0.6 3.8 2.2 7.2 4.5 10.1l-9.9 8.7c-2.2 1.9-5.5 1.7-7.4-0.5-0.8-0.9-1.2-1.9-1.3-3z"/>
							<path id="&lt;Path&gt;" class="s9" d="m755.8 947c3.3 1.6 7 2.4 10.9 2.2l1.7 17.3c0.3 2.9-1.8 5.5-4.7 5.8h-0.1c-2.9 0.2-5.4-1.9-5.7-4.8z"/>
							<path id="&lt;Path&gt;" class="s9" d="m768 949.1c3.7-0.4 7-1.7 9.9-3.6l5.4 18.1c0.9 2.8-0.7 5.8-3.5 6.6q-0.6 0.2-1.1 0.2c-2.4 0.2-4.8-1.3-5.5-3.8z"/>
							<path id="&lt;Path&gt;" class="s9" d="m779.4 944.3c3-2.4 5.3-5.5 6.7-9.1l12.5 19c1.5 2.4 0.9 5.7-1.6 7.3q-1.1 0.7-2.4 0.8c-1.9 0.2-3.8-0.7-4.9-2.4z"/>
							<path id="&lt;Path&gt;" class="s1" d="m729.7 946.2c-0.2-1.6 0.4-3.3 1.7-4.4l12.4-10.9c0.6 3.8 2.2 7.2 4.5 10.1l-9.9 8.7c-2.2 1.9-5.5 1.7-7.4-0.5-0.8-0.9-1.2-1.9-1.3-3z"/>
							<path id="&lt;Path&gt;" class="s1" d="m755.8 947c3.3 1.6 7 2.4 10.9 2.2l1.7 17.3c0.3 2.9-1.8 5.5-4.7 5.8h-0.1c-2.9 0.2-5.4-1.9-5.7-4.8z"/>
							<path id="&lt;Path&gt;" class="s1" d="m768 949.1c3.7-0.4 7-1.7 9.9-3.6l5.4 18.1c0.9 2.8-0.7 5.8-3.5 6.6q-0.6 0.2-1.1 0.2c-2.4 0.2-4.8-1.3-5.5-3.8z"/>
							<path id="&lt;Path&gt;" class="s1" d="m779.4 944.3c3-2.4 5.3-5.5 6.7-9.1l12.5 19c1.5 2.4 0.9 5.7-1.6 7.3q-1.1 0.7-2.4 0.8c-1.9 0.2-3.8-0.7-4.9-2.4z"/>
						</g>
						<path id="&lt;Path&gt;" class="s9" d="m574.8 811.9c0 25.6-20.8 46.4-46.4 46.4-25.6 0-46.4-20.8-46.4-46.4 0-25.6 20.8-46.4 46.4-46.4 25.6 0 46.4 20.8 46.4 46.4z"/>
						<path id="&lt;Path&gt;" class="s1" d="m574.8 811.9c0 25.6-20.8 46.4-46.4 46.4-25.6 0-46.4-20.8-46.4-46.4 0-25.6 20.8-46.4 46.4-46.4 25.6 0 46.4 20.8 46.4 46.4z"/>
						<path id="&lt;Path&gt;" class="s8" d="m528.4 785.6l-28 48.6h56z"/>
						<path id="&lt;Path&gt;" class="s1" d="m528.4 785.6l-28 48.6h56z"/>
					</g>
				</g>
				<g id="&lt;Group&gt;">
					<path id="&lt;Path&gt;" class="s1" d="m876.9 476.6h191.8"/>
					<path id="&lt;Path&gt;" class="s1" d="m876.9 500.8h191.8"/>
					<path id="&lt;Path&gt;" class="s1" d="m876.9 525h165.6"/>
				</g>
				<g id="&lt;Group&gt;">
					<path id="&lt;Path&gt;" class="s1" d="m833.8 695h191.8"/>
					<path id="&lt;Path&gt;" class="s1" d="m833.8 719.2h191.8"/>
					<path id="&lt;Path&gt;" class="s1" d="m833.8 743.4h165.6"/>
				</g>
				<g id="&lt;Group&gt;">
					<path id="&lt;Path&gt;" class="s1" d="m889.9 916.7h191.8"/>
					<path id="&lt;Path&gt;" class="s1" d="m889.9 940.9h191.8"/>
					<path id="&lt;Path&gt;" class="s1" d="m889.9 965.2h165.6"/>
				</g>
			</g>
			<path id="&lt;Path&gt;" class="s1" d="m1237 1130.1h-1074"/>
		</g>
	</g>
</svg>