<svg version="1.2" xmlns="http://www.w3.org/2000/svg" viewBox="0 0 1400 1400" width="1400" height="1400">
	<title>Generative Ai</title>
	<style>
		.s0 { fill: #ffcf44 } 
		.s1 { fill: none;stroke: #000000;stroke-linecap: round;stroke-linejoin: round;stroke-width: 2.6 } 
		.s2 { fill: #fc6140 } 
		.s3 { fill: #ffffff } 

	.c1 {
	-webkit-animation: c1 1.2s infinite cubic-bezier(0.390, 0.575, 0.565, 1.000) both;
	        animation: c1 1.2s infinite cubic-bezier(0.390, 0.575, 0.565, 1.000) both;
}

@-webkit-keyframes c1 {
  0% {
    opacity: 0;
  }
  100% {
    opacity: 1;
  }
}
@keyframes c1 {
  0% {
    opacity: 0;
  }
  100% {
    opacity: 1;
  }
}

	</style>
	<g id="Layer 1">
		<path id="&lt;Compound Path&gt;" fill-rule="evenodd" class="s0" d="m917.6 704.5c0 120.2-97.4 217.6-217.6 217.6-120.2 0-217.6-97.4-217.6-217.6 0-120.2 97.4-217.7 217.6-217.7 120.2 0 217.6 97.5 217.6 217.7zm-48 0c0-93.7-75.9-169.6-169.6-169.6-93.7 0-169.6 75.9-169.6 169.6 0 93.6 75.9 169.6 169.6 169.6 93.7 0 169.6-76 169.6-169.6z"/>
		<path id="&lt;Compound Path&gt;" fill-rule="evenodd" class="s0" d="m1103 467.3v465.4l-403 232.7-403-232.7v-465.4l403-232.7zm-52 30l-351-202.7-351.1 202.7v405.4l351.1 202.6 351-202.6z"/>
		<path id="&lt;Compound Path&gt;" fill-rule="evenodd" class="s1" d="m1103 467.3v465.4l-403 232.7-403-232.7v-465.4l403-232.7zm-52 30l-351-202.7-351.1 202.7v405.4l351.1 202.6 351-202.6z"/>
		<g id="&lt;Group&gt;">
			<path id="&lt;Path&gt;" class="s2" d="m786.7 277.3c0 47.9-38.8 86.7-86.7 86.7-47.9 0-86.7-38.8-86.7-86.7 0-47.9 38.8-86.7 86.7-86.7 47.9 0 86.7 38.8 86.7 86.7z"/>
			<path id="&lt;Path&gt;" class="s1" d="m786.7 277.3c0 47.9-38.8 86.7-86.7 86.7-47.9 0-86.7-38.8-86.7-86.7 0-47.9 38.8-86.7 86.7-86.7 47.9 0 86.7 38.8 86.7 86.7z"/>
			<path id="&lt;Path&gt;" class="s3 c1" d="m743.5 277.3c0 24-19.5 43.4-43.5 43.4-24 0-43.5-19.4-43.5-43.4 0-24 19.5-43.5 43.5-43.5 24 0 43.5 19.5 43.5 43.5z"/>
			<path id="&lt;Path&gt;" class="s1 c1" d="m743.5 277.3c0 24-19.5 43.4-43.5 43.4-24 0-43.5-19.4-43.5-43.4 0-24 19.5-43.5 43.5-43.5 24 0 43.5 19.5 43.5 43.5z"/>
		</g>
		<g id="&lt;Group&gt;">
			<path id="&lt;Path&gt;" class="s2" d="m786.7 1125.9c0 47.9-38.8 86.7-86.7 86.7-47.9 0-86.7-38.8-86.7-86.7 0-47.9 38.8-86.8 86.7-86.8 47.9 0 86.7 38.9 86.7 86.8z"/>
			<path id="&lt;Path&gt;" class="s1" d="m786.7 1125.9c0 47.9-38.8 86.7-86.7 86.7-47.9 0-86.7-38.8-86.7-86.7 0-47.9 38.8-86.8 86.7-86.8 47.9 0 86.7 38.9 86.7 86.8z"/>
			<path id="&lt;Path&gt;" class="s3 c1" d="m743.5 1125.9c0 24-19.5 43.4-43.5 43.4-24 0-43.5-19.4-43.5-43.4 0-24 19.5-43.5 43.5-43.5 24 0 43.5 19.5 43.5 43.5z"/>
			<path id="&lt;Path&gt;" class="s1 c1" d="m743.5 1125.9c0 24-19.5 43.4-43.5 43.4-24 0-43.5-19.4-43.5-43.4 0-24 19.5-43.5 43.5-43.5 24 0 43.5 19.5 43.5 43.5z"/>
		</g>
		<g id="&lt;Group&gt;">
			<path id="&lt;Path&gt;" class="s2" d="m1163.2 482.6c0 47.9-38.8 86.7-86.7 86.7-47.9 0-86.7-38.8-86.7-86.7 0-47.9 38.8-86.7 86.7-86.7 47.9 0 86.7 38.8 86.7 86.7z"/>
			<path id="&lt;Path&gt;" class="s1" d="m1163.2 482.6c0 47.9-38.8 86.7-86.7 86.7-47.9 0-86.7-38.8-86.7-86.7 0-47.9 38.8-86.7 86.7-86.7 47.9 0 86.7 38.8 86.7 86.7z"/>
			<path id="&lt;Path&gt;" class="s3 c1" d="m1120 482.6c0 24-19.5 43.5-43.5 43.5-24 0-43.4-19.5-43.4-43.5 0-24 19.4-43.4 43.4-43.4 24 0 43.5 19.4 43.5 43.4z"/>
			<path id="&lt;Path&gt;" class="s1 c1" d="m1120 482.6c0 24-19.5 43.5-43.5 43.5-24 0-43.4-19.5-43.4-43.5 0-24 19.4-43.4 43.4-43.4 24 0 43.5 19.4 43.5 43.4z"/>
		</g>
		<g id="&lt;Group&gt;">
			<path id="&lt;Path&gt;" class="s2" d="m410.2 482.6c0 47.9-38.8 86.7-86.7 86.7-47.9 0-86.8-38.8-86.8-86.7 0-47.9 38.9-86.7 86.8-86.7 47.9 0 86.7 38.8 86.7 86.7z"/>
			<path id="&lt;Path&gt;" class="s1" d="m410.2 482.6c0 47.9-38.8 86.7-86.7 86.7-47.9 0-86.8-38.8-86.8-86.7 0-47.9 38.9-86.7 86.8-86.7 47.9 0 86.7 38.8 86.7 86.7z"/>
			<path id="&lt;Path&gt;" class="s3 c1" d="m366.9 482.6c0 24-19.4 43.5-43.4 43.5-24 0-43.5-19.5-43.5-43.5 0-24 19.5-43.4 43.5-43.4 24 0 43.4 19.4 43.4 43.4z"/>
			<path id="&lt;Path&gt;" class="s1 c1" d="m366.9 482.6c0 24-19.4 43.5-43.4 43.5-24 0-43.5-19.5-43.5-43.5 0-24 19.5-43.4 43.5-43.4 24 0 43.4 19.4 43.4 43.4z"/>
		</g>
		<g id="&lt;Group&gt;">
			<path id="&lt;Path&gt;" class="s2" d="m1163.2 911.5c0 47.9-38.8 86.7-86.7 86.7-47.9 0-86.7-38.8-86.7-86.7 0-47.9 38.8-86.7 86.7-86.7 47.9 0 86.7 38.8 86.7 86.7z"/>
			<path id="&lt;Path&gt;" class="s1" d="m1163.2 911.5c0 47.9-38.8 86.7-86.7 86.7-47.9 0-86.7-38.8-86.7-86.7 0-47.9 38.8-86.7 86.7-86.7 47.9 0 86.7 38.8 86.7 86.7z"/>
			<path id="&lt;Path&gt;" class="s3 c1" d="m1120 911.5c0 24-19.5 43.5-43.5 43.5-24 0-43.4-19.5-43.4-43.5 0-24 19.4-43.5 43.4-43.5 24 0 43.5 19.5 43.5 43.5z"/>
			<path id="&lt;Path&gt;" class="s1 c1" d="m1120 911.5c0 24-19.5 43.5-43.5 43.5-24 0-43.4-19.5-43.4-43.5 0-24 19.4-43.5 43.4-43.5 24 0 43.5 19.5 43.5 43.5z"/>
		</g>
		<g id="&lt;Group&gt;">
			<path id="&lt;Path&gt;" class="s2" d="m410.2 911.5c0 47.9-38.8 86.7-86.7 86.7-47.9 0-86.8-38.8-86.8-86.7 0-47.9 38.9-86.7 86.8-86.7 47.9 0 86.7 38.8 86.7 86.7z"/>
			<path id="&lt;Path&gt;" class="s1" d="m410.2 911.5c0 47.9-38.8 86.7-86.7 86.7-47.9 0-86.8-38.8-86.8-86.7 0-47.9 38.9-86.7 86.8-86.7 47.9 0 86.7 38.8 86.7 86.7z"/>
			<path id="&lt;Path&gt;" class="s3 c1" d="m366.9 911.5c0 24-19.4 43.5-43.4 43.5-24 0-43.5-19.5-43.5-43.5 0-24 19.5-43.5 43.5-43.5 24 0 43.4 19.5 43.4 43.5z"/>
			<path id="&lt;Path&gt;" class="s1 c1" d="m366.9 911.5c0 24-19.4 43.5-43.4 43.5-24 0-43.5-19.5-43.5-43.5 0-24 19.5-43.5 43.5-43.5 24 0 43.4 19.5 43.4 43.5z"/>
		</g>
		<path id="&lt;Compound Path&gt;" fill-rule="evenodd" class="s1" d="m917.6 704.5c0 120.2-97.4 217.6-217.6 217.6-120.2 0-217.6-97.4-217.6-217.6 0-120.2 97.4-217.7 217.6-217.7 120.2 0 217.6 97.5 217.6 217.7zm-48 0c0-93.7-75.9-169.6-169.6-169.6-93.7 0-169.6 75.9-169.6 169.6 0 93.6 75.9 169.6 169.6 169.6 93.7 0 169.6-76 169.6-169.6z"/>
		<g id="&lt;Group&gt;">
			<path id="&lt;Path&gt;" class="s2" d="m800 519.2c0 55.2-44.8 100-100 100-55.2 0-100-44.8-100-100 0-55.2 44.8-100 100-100 55.2 0 100 44.8 100 100z"/>
			<path id="&lt;Path&gt;" class="s1" d="m800 519.2c0 55.2-44.8 100-100 100-55.2 0-100-44.8-100-100 0-55.2 44.8-100 100-100 55.2 0 100 44.8 100 100z"/>
			<path id="&lt;Path&gt;" class="s3" d="m750.1 519.2c0 27.7-22.4 50.1-50.1 50.1-27.7 0-50.1-22.4-50.1-50.1 0-27.7 22.4-50.1 50.1-50.1 27.7 0 50.1 22.4 50.1 50.1z"/>
			<path id="&lt;Path&gt;" class="s1" d="m750.1 519.2c0 27.7-22.4 50.1-50.1 50.1-27.7 0-50.1-22.4-50.1-50.1 0-27.7 22.4-50.1 50.1-50.1 27.7 0 50.1 22.4 50.1 50.1z"/>
		</g>
		<g id="&lt;Group&gt;">
			<g id="&lt;Group&gt;">
				<path id="&lt;Path&gt;" class="s2" d="m973.9 774.1c0 55.2-44.8 100-100 100-55.2 0-100-44.8-100-100 0-55.3 44.8-100 100-100 55.2 0 100 44.7 100 100z"/>
				<path id="&lt;Path&gt;" class="s1" d="m973.9 774.1c0 55.2-44.8 100-100 100-55.2 0-100-44.8-100-100 0-55.3 44.8-100 100-100 55.2 0 100 44.7 100 100z"/>
				<path id="&lt;Path&gt;" class="s3" d="m924 774.1c0 27.6-22.4 50.1-50.1 50.1-27.7 0-50.1-22.5-50.1-50.1 0-27.7 22.4-50.1 50.1-50.1 27.7 0 50.1 22.4 50.1 50.1z"/>
				<path id="&lt;Path&gt;" class="s1" d="m924 774.1c0 27.6-22.4 50.1-50.1 50.1-27.7 0-50.1-22.5-50.1-50.1 0-27.7 22.4-50.1 50.1-50.1 27.7 0 50.1 22.4 50.1 50.1z"/>
			</g>
			<g id="&lt;Group&gt;">
				<path id="&lt;Path&gt;" class="s2" d="m626.1 774.1c0 55.2-44.7 100-100 100-55.2 0-100-44.8-100-100 0-55.3 44.8-100 100-100 55.3 0 100 44.7 100 100z"/>
				<path id="&lt;Path&gt;" class="s1" d="m626.1 774.1c0 55.2-44.7 100-100 100-55.2 0-100-44.8-100-100 0-55.3 44.8-100 100-100 55.3 0 100 44.7 100 100z"/>
				<path id="&lt;Path&gt;" class="s3" d="m576.2 774.1c0 27.6-22.4 50.1-50.1 50.1-27.7 0-50.1-22.5-50.1-50.1 0-27.7 22.4-50.1 50.1-50.1 27.7 0 50.1 22.4 50.1 50.1z"/>
				<path id="&lt;Path&gt;" class="s1" d="m576.2 774.1c0 27.6-22.4 50.1-50.1 50.1-27.7 0-50.1-22.5-50.1-50.1 0-27.7 22.4-50.1 50.1-50.1 27.7 0 50.1 22.4 50.1 50.1z"/>
			</g>
		</g>
	</g>
</svg>