<svg version="1.2" xmlns="http://www.w3.org/2000/svg" viewBox="0 0 1400 1400" width="1400" height="1400">
	<title>Generative Ai-06-ai</title>
	<style>
		.s0 { fill: #00bbd6 } 
		.s1 { fill: none;stroke: #000000;stroke-linecap: round;stroke-linejoin: round;stroke-width: 2.6 } 
		.s2 { fill: #bcebf1 } 
		.s3 { fill: #ffcf44 } 
		.s4 { fill: #fc6140 } 
		.s5 { fill: #ffffff } 

		.c1 {
	-webkit-animation: c1 3s infinite cubic-bezier(0.100, 0.260, 0.250, 0.440) both;
	        animation: c1 3s infinite cubic-bezier(0.100, 0.260, 0.250, 0.440) both;
	
}

@-webkit-keyframes c1 {
  0% {
    -webkit-transform: translateX(0);
            transform: translateX(0);
  }
  100% {
    -webkit-transform: translateX(150px);
            transform: translateX(150px);
  }
}
@keyframes c1 {
  0% {
    -webkit-transform: translateX(-100px);
            transform: translateX(-100px);
  }
  100% {
    -webkit-transform: translateX(20px);
            transform: translateX(20px);
  }
}

		.c2 {
	-webkit-animation: c2 3s infinite cubic-bezier(0.100, 0.260, 0.250, 0.440) both;
	        animation: c2 3s infinite cubic-bezier(0.100, 0.260, 0.250, 0.440) both;
	
}

@-webkit-keyframes c2 {
  0% {
    -webkit-transform: translateX(0);
            transform: translateX(0);
  }
  100% {
    -webkit-transform: translateX(150px);
            transform: translateX(150px);
  }
}
@keyframes c2 {
  0% {
    -webkit-transform: translateX(100px);
            transform: translateX(100px);
  }
  100% {
    -webkit-transform: translateX(20px);
            transform: translateX(20px);
  }
}

		.c3 {
	-webkit-animation: c3 3s cubic-bezier(0.390, 0.575, 0.565, 1.000) both;
	        animation: c3 3s infinite cubic-bezier(0.390, 0.575, 0.565, 1.000) both;
}
@-webkit-keyframes c3 {
  0% {
    opacity: 0;
  }
  100% {
    opacity: 1;
  }
}
@keyframes c3 {
  0% {
    opacity: 0;
  }
  100% {
    opacity: 1;
  }
}
.c4 {
-webkit-animation: c4 3s infinite cubic-bezier(0.390, 0.575, 0.565, 1.000) both;
	        animation: c4 3s infinite cubic-bezier(0.390, 0.575, 0.565, 1.000) both;
}

@-webkit-keyframes c4 {
  0% {
    -webkit-transform: translateZ(-80px);
            transform: translateZ(-80px);
    opacity: 0;
  }
  100% {
    -webkit-transform: translateZ(0);
            transform: translateZ(0);
    opacity: 1;
  }
}
@keyframes c4 {
  0% {
    -webkit-transform: translateZ(-80px);
            transform: translateZ(-80px);
    opacity: 0;
  }
  100% {
    -webkit-transform: translateZ(0);
            transform: translateZ(0);
    opacity: 1;
  }
}




	</style>
	<g id="Layer 1">
		<g id="&lt;Group&gt;">
			<path id="&lt;Path&gt;" class="s0" d="m1106.7 370v59h-816.9v-59c0-22.7 18.4-41.2 41.1-41.2h734.7c22.7 0 41.1 18.5 41.1 41.2z"/>
			<path id="&lt;Path&gt;" class="s1" d="m1106.7 370v59h-816.9v-59c0-22.7 18.4-41.2 41.1-41.2h734.7c22.7 0 41.1 18.5 41.1 41.2z"/>
			<path id="&lt;Path&gt;" class="s2" d="m1106.7 429v455.8c0 22.7-18.4 41.1-41.1 41.1h-734.7c-22.7 0-41.1-18.4-41.1-41.1v-455.8z"/>
			<path id="&lt;Path&gt;" class="s1" d="m1106.7 429v455.8c0 22.7-18.4 41.1-41.1 41.1h-734.7c-22.7 0-41.1-18.4-41.1-41.1v-455.8z"/>
			<path id="&lt;Path&gt;" class="s3 c2" d="m957.8 673.4l-161.1 68.9v45.1c2.7-1.8 206.3-96.4 206.3-96.4v-35.2c0 0-203.6-94.7-206.3-96.5v45.1z"/>
			<path id="&lt;Path&gt;" class="s1 c2" d="m957.8 673.4l-161.1 68.9v45.1c2.7-1.8 206.3-96.4 206.3-96.4v-35.2c0 0-203.6-94.7-206.3-96.5v45.1z"/>
			<path id="&lt;Path&gt;" class="s3 c1" d="m439.9 673.4l161 68.9v45.1c-2.6-1.8-206.3-96.4-206.3-96.4v-35.2c0 0 203.7-94.7 206.3-96.5v45.1z"/>
			<path id="&lt;Path&gt;" class="s1 c1" d="m439.9 673.4l161 68.9v45.1c-2.6-1.8-206.3-96.4-206.3-96.4v-35.2c0 0 203.7-94.7 206.3-96.5v45.1z"/>
			<path id="&lt;Path&gt;" class="s4 c4" d="m769.2 511.3h-41.6l-92.2 312.5h41.6z"/>
			<path id="&lt;Path&gt;" class="s1 c4" d="m769.2 511.3h-41.6l-92.2 312.5h41.6z"/>
			<path id="&lt;Path&gt;" class="s3 c3" d="m529.2 377.1c0 13.9-11.2 25.2-25.2 25.2-13.9 0-25.2-11.3-25.2-25.2 0-13.9 11.3-25.2 25.2-25.2 14 0 25.2 11.3 25.2 25.2z"/>
			<path id="&lt;Path&gt;" class="s5 c3" d="m450.6 377.1c0 13.9-11.2 25.2-25.2 25.2-13.9 0-25.1-11.3-25.1-25.2 0-13.9 11.2-25.2 25.1-25.2 14 0 25.2 11.3 25.2 25.2z"/>
			<path id="&lt;Path&gt;" class="s4 c3" d="m372.1 377.1c0 13.9-11.3 25.2-25.2 25.2-14 0-25.2-11.3-25.2-25.2 0-13.9 11.2-25.2 25.2-25.2 13.9 0 25.2 11.3 25.2 25.2z"/>
			<path id="&lt;Path&gt;" class="s1 c3" d="m529.2 377.1c0 13.9-11.2 25.2-25.2 25.2-13.9 0-25.2-11.3-25.2-25.2 0-13.9 11.3-25.2 25.2-25.2 14 0 25.2 11.3 25.2 25.2z"/>
			<path id="&lt;Path&gt;" class="s1 c3" d="m450.6 377.1c0 13.9-11.2 25.2-25.2 25.2-13.9 0-25.1-11.3-25.1-25.2 0-13.9 11.2-25.2 25.1-25.2 14 0 25.2 11.3 25.2 25.2z"/>
			<path id="&lt;Path&gt;" class="s1 c3" d="m372.1 377.1c0 13.9-11.3 25.2-25.2 25.2-14 0-25.2-11.3-25.2-25.2 0-13.9 11.2-25.2 25.2-25.2 13.9 0 25.2 11.3 25.2 25.2z"/>
		</g>
	</g>
</svg>