<!-- <svg version="1.2" xmlns="http://www.w3.org/2000/svg" viewBox="0 0 1400 1400" width="1400" height="1400"> -->
<svg version="1.2" xmlns="http://www.w3.org/2000/svg" viewBox="0 0 1300 1300" width="1400" height="1400">
	<title>Editing, character-ai</title>
	<style>
		.s0 { fill: #fee8ad } 
		.s1 { fill: none;stroke: #000000;stroke-linecap: round;stroke-linejoin: round;stroke-width: 2.6 } 
		.s2 { fill: #fc613f } 
		.s3 { fill: #ffffff } 
		.s4 { fill: #fff8e1 } 
		.s5 { fill: #efe3c2 } 
		.s6 { fill: none;stroke: #000000;stroke-linecap: round;stroke-linejoin: round;stroke-width: 1.8 } 
		.s7 { fill: #362d46 } 
		.s8 { fill: #000000 } 
		.s9 { fill: #00bbd6 } 
		.s10 { fill: #bcebf1 } 
		.s11 { fill: #ffcf44 } 
		.s12 { fill: #7cd194 } 
		.s13 { fill: #71c687 } 
		.s14 { fill: #ffcf3d } 
		.s15 { fill: #fec9ac } 
		.s16 { fill: #3a4146 } 
	</style>
	<g id="Layer 1">
		<g id="&lt;Group&gt;">
			<g id="&lt;Group&gt;">
				<g id="Blogging">
					<g id="&lt;Group&gt;">
						<g id="&lt;Group&gt;">
							<g id="&lt;Group&gt;">
								<g id="&lt;Group&gt;">
									<g id="&lt;Group&gt;">
										<g id="&lt;Group&gt;">
											<g id="&lt;Group&gt;">
												<path id="&lt;Path&gt;" class="s0" d="m594.8 427.9l-1.5 314.6c-0.1 18.7 15.1 34 33.8 34l454.9 1.3c9.2 0 16.7-7.4 16.7-16.6l1.8-342.9c0.1-9.2-7.3-16.6-16.5-16.6l-516.9-1.7c15.4 0 27.8 12.6 27.7 27.9z"/>
											</g>
										</g>
										<g id="&lt;Group&gt;">
											<g id="&lt;Group&gt;">
												<path id="&lt;Path&gt;" class="s1" d="m594.8 427.9l-1.5 314.6c-0.1 18.7 15.1 34 33.8 34l454.9 1.3c9.2 0 16.7-7.4 16.7-16.6l1.8-342.9c0.1-9.2-7.3-16.6-16.5-16.6l-516.9-1.7c15.4 0 27.8 12.6 27.7 27.9z"/>
											</g>
										</g>
										<g id="&lt;Group&gt;">
											<g id="&lt;Group&gt;">
												<path id="&lt;Path&gt;" class="s2" d="m632.3 776.3l516.8-1.7c9.2 0 16.7-7.5 16.6-16.7l-1.8-247.1c0-9.1-7.5-15.1-16.7-15.1h-462.9c-14.4 0.1-26.1 11.8-26.1 26.3l1.8 226.3c0.1 15.4-12.4 27.9-27.7 28z"/>
											</g>
										</g>
										<g id="&lt;Group&gt;">
											<g id="&lt;Group&gt;">
												<path id="&lt;Path&gt;" class="s1" d="m632.3 776.3l516.8-1.7c9.2 0 16.7-7.5 16.6-16.7l-1.8-247.1c0-9.1-7.5-15.1-16.7-15.1h-462.9c-14.4 0.1-26.1 11.8-26.1 26.3l1.8 226.3c0.1 15.4-12.4 27.9-27.7 28z"/>
											</g>
										</g>
										<g id="&lt;Group&gt;">
											<g id="&lt;Group&gt;">
												<path id="&lt;Path&gt;" class="s0" d="m690 495.7c15.3 0 27.7 12.4 27.7 27.8v509.7c0 12.1 9.9 22 22 22h461.8c12.1 0 21.9-9.9 21.9-22v-515.6c0-12.1-9.8-21.9-21.9-21.9z"/>
											</g>
										</g>
										<g id="&lt;Group&gt;">
											<g id="&lt;Group&gt;">
												<path id="&lt;Path&gt;" class="s1" d="m690 495.7c15.3 0 27.7 12.4 27.7 27.8v509.7c0 12.1 9.9 22 22 22h461.8c12.1 0 21.9-9.9 21.9-22v-515.6c0-12.1-9.8-21.9-21.9-21.9z"/>
											</g>
										</g>
										<g id="&lt;Group&gt;">
											<g id="&lt;Group&gt;">
												<path id="&lt;Path&gt;" class="s3" d="m789.1 581v165.3c0 4.7 3.8 8.4 8.4 8.4h335.7c4.6 0 8.4-3.7 8.4-8.4v-165.3c0-4.6-3.8-8.4-8.4-8.4h-335.7c-4.6 0-8.4 3.8-8.4 8.4z"/>
											</g>
										</g>
										<g id="&lt;Group&gt;">
											<g id="&lt;Group&gt;">
												<g id="&lt;Group&gt;">
													<path id="&lt;Path&gt;" class="s2" d="m872.1 716.7h45.3l39.4-39.4-21.8-21.8c-2.7-2.7-7-2.7-9.7 0l-55.6 55.6c-2 2.1-0.5 5.6 2.4 5.6z"/>
												</g>
											</g>
											<g id="&lt;Group&gt;">
												<g id="&lt;Group&gt;">
													<path id="&lt;Path&gt;" class="s2" d="m924.7 716.7h133.9c2.9 0 4.4-3.5 2.3-5.6l-60.4-60.5c-2.7-2.7-7-2.7-9.7 0z"/>
												</g>
											</g>
											<g id="&lt;Group&gt;">
												<g id="&lt;Group&gt;">
													<path id="&lt;Path&gt;" class="s2" d="m944.8 626.9c0 8.9 7.3 16.2 16.3 16.2 9 0 16.2-7.3 16.2-16.2 0-9-7.2-16.3-16.2-16.3-9 0-16.3 7.3-16.3 16.3z"/>
												</g>
											</g>
										</g>
									</g>
									<g id="&lt;Group&gt;">
										<g id="&lt;Group&gt;">
											<g id="&lt;Group&gt;">
												<path id="&lt;Path&gt;" class="s2" d="m1173.2 528.7c0 4.9 3.9 8.9 8.8 8.9 4.9 0 8.9-4 8.9-8.9 0-4.9-4-8.8-8.9-8.8-4.9 0-8.8 3.9-8.8 8.8z"/>
											</g>
										</g>
										<g id="&lt;Group&gt;">
											<g id="&lt;Group&gt;">
												<path id="&lt;Path&gt;" class="s2" d="m1149.6 528.7c0 4.9 4 8.9 8.9 8.9 4.9 0 8.9-4 8.9-8.9 0-4.9-4-8.8-8.9-8.8-4.9 0-8.9 3.9-8.9 8.8z"/>
											</g>
										</g>
										<g id="&lt;Group&gt;">
											<g id="&lt;Group&gt;">
												<path id="&lt;Path&gt;" class="s2" d="m1126.1 528.7c0 4.9 3.9 8.9 8.8 8.9 4.9 0 8.9-4 8.9-8.9 0-4.9-4-8.8-8.9-8.8-4.9 0-8.8 3.9-8.8 8.8z"/>
											</g>
										</g>
									</g>
								</g>
							</g>
						</g>
					</g>
				</g>
				<path id="&lt;Path&gt;" class="s1" d="m1143.8 863.2h-354.7"/>
				<path id="&lt;Path&gt;" class="s1" d="m1143.8 906.3h-354.7"/>
				<path id="&lt;Path&gt;" class="s1" d="m1143.8 949.3h-354.7"/>
				<path id="&lt;Path&gt;" class="s1" d="m1143.8 992.3h-354.7"/>
			</g>
			<g id="&lt;Group&gt;">
				<g id="&lt;Group&gt;">
					<g id="&lt;Group&gt;">
						<path id="&lt;Path&gt;" class="s4" d="m637.8 511.8l-4-2.4-81.1 53c0 0-11.3-22-12.4-22.8-9.2 14.8-21.8 24.3-37.1 30.5 1.3 11.9 1.7 23.8-0.8 35.6-1 4.9-2.6 9.6-4.6 14.2 10.6 6.3 29 14.3 49.9 10.4 22-4.1 76.3-71.6 96.9-98.3 5.2-6.6 8.2-10.7 8.2-10.7z"/>
					</g>
				</g>
				<g id="&lt;Group&gt;">
					<g id="&lt;Group&gt;">
						<path id="&lt;Path&gt;" class="s5" d="m649.4 525.7c0 0-9.6 12.3-17.2 22.1-1.7-0.1-3.1-0.8-4.3-1.9-7.5-7.9-9.4-18.9-5.7-27.7z"/>
					</g>
				</g>
				<g id="&lt;Group&gt;">
					<g id="&lt;Group&gt;">
						<path id="&lt;Path&gt;" class="s6" d="m637.8 511.8l-4-2.4-81.1 53c0 0-11.3-22-12.4-22.8-9.2 14.8-21.8 24.3-37.1 30.5 1.3 11.9 1.7 23.8-0.8 35.6-1 4.9-2.6 9.6-4.6 14.2 10.6 6.3 29 14.3 49.9 10.4 22-4.1 76.3-71.6 96.9-98.3 5.2-6.6 8.2-10.7 8.2-10.7z"/>
					</g>
				</g>
				<g id="&lt;Group&gt;">
					<g id="&lt;Group&gt;">
						<path id="&lt;Path&gt;" class="s7" d="m487.8 438.7c4.3-1.7 7.9-5.1 9.4-7.6 1.5-2.4 2.3-6.2 2-8.1-0.2-2-1.6-5.1-2.8-7.4-1.2-2.3-6.2-9.4-6.9-11.3-0.7-2-4.9-10.7-6.3-14-1.4-3.4-7.8-18.5-8.7-21-0.9-2.5-5.1-13.7-6.2-16.4-1-2.6-4.5-13.8-6.5-17.2-2-3.4-5.2-8.4-7.3-10.7-2-2.3-7.8-6.6-10.9-8.4-3-1.8-10.4-4.7-15.7-5.6-5.2-1-11 0-12.9 0.3-1.9 0.4-9.8 2.9-12.3 4.1-2.6 1.1-9 5.7-10.8 7.1-1.8 1.5-6.7 7.1-8.8 10.7-2.2 3.6-3.8 7.3-5.1 11.1-1.3 3.8-4.5 12.1-5.4 14.1-0.8 2-2.1 7-3.4 10.1-1.2 3.2-3.3 7.8-4.9 11.5-1.6 3.6-6.7 14.3-6.7 14.3 0 0-2.5 5.1-4.2 8.2-1.8 3.2-4.3 8.6-6 11.6-1.6 3-4.2 6.1-4.1 9.4 0.1 3.3 1.1 6.9 3.5 9.3 2.3 2.4 10.5 6.9 14.5 8 4 1.1 72.4 6.4 89.2 6.4 16.9 0 37.3-8.5 37.3-8.5z"/>
						<path id="&lt;Path&gt;" class="s6" d="m421.3 310.8c0 0-25.1-0.7-38.4 22-9.8 16.7-8.8 34.1-37.8 85.4-11.8 21 43.8 41 55.9 0.8"/>
						<path id="&lt;Path&gt;" class="s6" d="m421.3 310.8c0 0 25.2-0.7 38.5 22 9.8 16.7 8.8 34.1 37.8 85.4 11.8 21-44 41-56.1 0.8"/>
						<path id="&lt;Path&gt;" class="s4" d="m437.7 408.1c0.7 2.6 1.6 11.3 14 19.5 5.3 3.6 8.8 3.7 13.4 4 4.5 0.3 13.8 3.3 16.7 3.6 2.9 0.2 3.7 2.7 2.8 4-0.8 1.2-7 10.9-9.9 12.9-2.8 2.1-9.5 7.8-10.7 8.6-1.2 0.9-10.9 7-16.2 8.6-5.2 1.7-15.2 4.2-21.3 4.5-6.1 0.2-13.2-1.1-17.1-1.6-4-0.4-15.6-3.8-21.2-6.3-5.5-2.4-14.7-8.5-18.7-12.6-4-4.2-9.5-10.6-10.2-12.7-0.7-2-2.8-3.5 0.9-4.8 3.7-1.4 13.4-4.2 19-5.5 5.6-1.2 6.9-1.1 10.6-3.3 3.8-2.2 9-4.9 10-6.8 0.9-1.8 4.4-8.2 5.3-11.4 0.9-3.3 1.6-7 2.4-6.6 0.8 0.4 6.3 3.3 12.7 3.5 6.4 0.2 6 0.2 9.6-0.7 3.7-1 6.9-1.7 7.3-0.9 0.3 0.8 0.6 4 0.6 4z"/>
						<path id="&lt;Path&gt;" class="s6" d="m437.7 408.1c0.7 2.6 1.6 11.3 14 19.5 5.3 3.6 8.8 3.7 13.4 4 4.5 0.3 13.8 3.3 16.7 3.6 2.9 0.2 3.7 2.7 2.8 4-0.8 1.2-7 10.9-9.9 12.9-2.8 2.1-9.5 7.8-10.7 8.6-1.2 0.9-10.9 7-16.2 8.6-5.2 1.7-15.2 4.2-21.3 4.5-6.1 0.2-13.2-1.1-17.1-1.6-4-0.4-15.6-3.8-21.2-6.3-5.5-2.4-14.7-8.5-18.7-12.6-4-4.2-9.5-10.6-10.2-12.7-0.7-2-2.8-3.5 0.9-4.8 3.7-1.4 16.5-5.3 22-6.6 5.6-1.2 4.8-0.8 8.5-3 3.8-2.2 7.9-4.4 9.9-7.5 1.1-1.8 3.6-6.7 4.5-9.9 0.9-3.3 1.6-7 2.4-6.6 0.8 0.4 6.3 3.3 12.7 3.5 6.4 0.2 6 0.2 9.6-0.7 3.7-1 6.9-1.7 7.3-0.9 0.3 0.8 0.6 4 0.6 4z"/>
						<path id="&lt;Path&gt;" class="s4" d="m428.1 343.6l7.5-20.7c0 0-11.8 13-29.5 17.5-17.7 4.5-19 18.1-19 18.1 0 0-5.9 0.8-4.7 6.8 1.1 5.2 7.8 5.5 7.8 5.5 0 0-1.1 30.8 24.8 36.2 25.8 5.4 40-18.7 41.3-37.2 0 0 6-3.2 6.4-7.3 0.5-5.8-6.1-6.3-6.1-6.3 0 0-12.1-12.4-13.4-24 0 0-9.7 11.2-15.1 11.4z"/>
						<path id="&lt;Path&gt;" class="s6" d="m428.1 343.6l7.5-20.7c0 0-11.8 13-29.5 17.5-17.7 4.5-19 18.1-19 18.1 0 0-5.9 0.8-4.7 6.8 1.1 5.2 7.8 5.5 7.8 5.5 0 0-1.1 30.8 24.8 36.2 25.8 5.4 40-18.7 41.3-37.2 0 0 6-3.2 6.4-7.3 0.5-5.8-6.1-6.3-6.1-6.3 0 0-12.1-12.4-13.4-24 0 0-9.7 11.2-15.1 11.4z"/>
						<path id="&lt;Path&gt;" class="s6" d="m421.2 370.4v6.3c0 2.3 1.8 4.1 4 4.1"/>
						<path id="&lt;Path&gt;" class="s6" d="m416.7 389.4c0 0 6 5.1 13.6 0"/>
						<path id="&lt;Path&gt;" class="s8" d="m439.2 364.1c0 1.5-1.1 2.6-2.6 2.6-1.4 0-2.5-1.1-2.5-2.6 0-1.4 1.1-2.5 2.5-2.5 1.5 0 2.6 1.1 2.6 2.5z"/>
						<path id="&lt;Path&gt;" class="s8" d="m410.1 364.1c0 1.5-1.2 2.6-2.6 2.6-1.4 0-2.6-1.1-2.6-2.6 0-1.4 1.2-2.5 2.6-2.5 1.4 0 2.6 1.1 2.6 2.5z"/>
						<path id="&lt;Path&gt;" class="s6" d="m399.1 360l-10.9-4.6"/>
						<path id="&lt;Path&gt;" class="s6" d="m445.5 360l10.5-4.4"/>
						<path id="&lt;Path&gt;" class="s6" d="m427.1 364.3h-9.3"/>
						<path id="&lt;Path&gt;" class="s6" d="m443.9 349.9c0 0-6.2-3.1-14.5 0.7"/>
						<path id="&lt;Path&gt;" class="s6" d="m400.3 349.9c0 0 6.2-3.1 14.5 0.7"/>
						<path id="&lt;Path&gt;" class="s6" d="m446 364.1c0 5.2-4.2 9.4-9.4 9.4-5.1 0-9.3-4.2-9.3-9.4 0-5.1 4.2-9.3 9.3-9.3 5.2 0 9.4 4.2 9.4 9.3z"/>
						<path id="&lt;Path&gt;" class="s6" d="m416.8 364.1c0 5.2-4.1 9.4-9.3 9.4-5.1 0-9.3-4.2-9.3-9.4 0-5.1 4.2-9.3 9.3-9.3 5.2 0 9.3 4.2 9.3 9.3z"/>
					</g>
					<path id="&lt;Path&gt;" class="s9" d="m551.5 500c-4.1-9.1-12.9-25.1-15.8-29.5-3-4.4-14.8-17.4-20.3-22-5.5-4.5-12.9-10.2-27.6-12.5-14.6-2.3-25.6-4.5-25.6-4.5 0 0-0.4-0.1-1-0.3-0.2 3.6-2.2 7.4-3.6 10.3-2.2 4.6-6.1 11.1-10.9 13.6q-0.5 0.6-1.2 1.1c-0.9 1.2-2.3 2-4.1 2.2-2.7 1.8-5.5 3.1-9.3 3.8-1 0.8-2.4 1.3-4.1 1.3q-1.1 0-2-0.2-0.5 0-1.1 0-0.8 0-1.5-0.1c-4.8 0.7-9.8 1-13.6-0.5q-0.8-0.1-1.7-0.4c-13.6-5.4-22.7-14.6-26.6-29q-0.3-1.2-0.2-2.4-0.9 0.2-1.6 0.3c-3.6 0.6-16.5 2.5-20.7 3.3-4.2 0.8-14 2.3-18.3 4.3-4.2 2-7.7 3.7-9.3 5-1.7 1.3-10.5 8.2-12.5 10.2-1.9 2-8.9 7.6-10.9 10.8-2 3.2-9 9.2-11.2 13.3-1.3 2.5-6.2 7.4-7.8 10.6q0.2 0.4 0.4 0.8c-13.1 20-21.5 37-21.5 37 0 0 20.9 15.8 43.9 21.1q0 0 0 0.1 0.4 0 0.7 0.1c6.5 1.4 13.1 1.9 19.4 1l-0.2-0.7c0.2 0.2 0.3 0.4 0.2 0.7-0.4 3.1-1 6-1.1 9-0.1 3 0 5.9-0.1 8.8 0 3.1 0.4 6.2 0.2 9.3-0.1 2.7-0.7 5.3-0.5 8 0.2 1.6-1.4 2.9-2.9 2.9q-0.1 0-0.1 0c-0.5 6.2-5 12.1-10.6 14.6q-0.6 0.3-1.1 0.5c10.3 4 26.4 6.9 26.8 12.8q0.4 6.6 0.1 13.2c21.9 0 61.9-0.1 97.6-0.1 31.4 0.4 46.5-12.6 64.5-27.7 14.5-12.3 11.8-48.2 29.3-55.8 9.3-4.1 19-7.5 29-9.6-2.5-8.6-7.8-26.2-11.5-34.7z"/>
					<g id="&lt;Group&gt;">
						<path id="&lt;Path&gt;" class="s3" d="m252.8 1054.6c0 0-1.5-0.2-1.7 0-0.3 0.3-2.7 0.4-2.4-1.2 0.3-1.5 2-8.1 2-8.1 0 0 0.9-0.7 1.9-1 1-0.2 153.5 0 153.5 0 0 0 1 1.3 1.3 2.2 0.3 0.9 0.3 6.2 0.3 6.7-0.1 0.4 0.1 1.4-1.1 1.3-1.2 0-153.8 0.1-153.8 0.1z"/>
						<g id="&lt;Group&gt;">
							<path id="&lt;Path&gt;" class="s4" d="m344.9 982.9c-3.1 0.6-2.6 1.3-3 4.4-0.3 3.1-1.5 6.9-1.5 9 0 2.1-0.6 3.3 3.5 3.3 4.2 0 49.4-1.3 51.6-1.9 2.2-0.6 4.5-2 4.5-5.7 0-3.7 6-9-2.3-9.6-8.4-0.6-37.5 0.7-37.5 0.7h-11.2z"/>
							<g id="&lt;Group&gt;">
								<path id="&lt;Path&gt;" class="s10" d="m408 996.5c0 0-35.6 3-65.2 2.9-29.6-0.2-30.6-6.6-57.4 6.5-26.7 13.1-29.6 19.3-35.2 38.4l157.2 0.5z"/>
								<path id="&lt;Path&gt;" class="s6" d="m408 996.5c0 0-35.6 3-65.2 2.9-29.6-0.2-30.6-6.6-57.4 6.5-26.7 13.1-29.6 19.3-35.2 38.4l157.2 0.5z"/>
								<path id="&lt;Path&gt;" class="s6" d=""/>
								<path id="&lt;Path&gt;" class="s6" d="m407.4 1044.8l0.2 9.8h-159.5l2.1-10.3"/>
								<path id="&lt;Path&gt;" class="s6" d="m373.6 1044.7c0 0 11.3-25.3 34.1-23.4"/>
								<path id="&lt;Path&gt;" class="s6" d="m308.8 997.9c0 0 4.5 19 18.3 21"/>
								<path id="&lt;Path&gt;" class="s6" d="m287.5 1005.6c0 0-0.5 11.2 16.5 19"/>
							</g>
							<path id="&lt;Path&gt;" class="s6" d="m342.6 983.5l-2.9 15.8"/>
							<path id="&lt;Path&gt;" class="s6" d="m401.9 983.5l-3 13"/>
						</g>
					</g>
					<g id="&lt;Group&gt;">
						<path id="&lt;Path&gt;" class="s3" d="m445.4 1044.4c0 0-1.5 0.3-1.8 0-0.2-0.3-1.3-0.3-1 1.2 0.4 1.5 0 8.1 0 8.1 0 0 1.5 0.8 2.6 1 1 0.2 156.1 0 156.1 0 0 0-0.6-1.3-0.3-2.2 0.3-0.8-0.7-6.2-0.8-6.7 0-0.4 0.2-1.3-1.1-1.3-1.2 0-153.7-0.1-153.7-0.1z"/>
						<g id="&lt;Group&gt;">
							<path id="&lt;Path&gt;" class="s4" d="m505 982.9c3.1 0.6 2.6 1.3 2.9 4.4 0.4 3.1 1.5 6.9 1.5 9 0 2.1 0.7 3.3-3.5 3.3-4.1 0-49.3-1.3-51.6-1.9-2.2-0.6-4.5-2-4.5-5.7 0-3.7-6-9 2.4-9.6 8.3-0.6 37.4 0.7 37.4 0.7h11.2z"/>
							<g id="&lt;Group&gt;">
								<path id="&lt;Path&gt;" class="s10" d="m441.9 996.5c0 0 35.6 3 65.1 2.9 29.6-0.2 30.7-6.6 57.4 6.5 26.8 13.1 29.7 19.3 35.2 38.4l-157.1 0.5z"/>
								<path id="&lt;Path&gt;" class="s6" d="m441.9 996.5c0 0 35.6 3 65.1 2.9 29.6-0.2 30.7-6.6 57.4 6.5 26.8 13.1 29.7 19.3 35.2 38.4l-157.1 0.5z"/>
								<path id="&lt;Path&gt;" class="s6" d="m442.5 1044.8l-0.2 9.8h159.5l-2.2-10.3"/>
								<path id="&lt;Path&gt;" class="s6" d="m476.2 1044.7c0 0-11.2-25.3-34-23.4"/>
								<path id="&lt;Path&gt;" class="s6" d="m541 997.9c0 0-4.5 19-18.2 21"/>
								<path id="&lt;Path&gt;" class="s6" d="m562.4 1005.6c0 0 0.4 11.2-16.5 19"/>
							</g>
							<path id="&lt;Path&gt;" class="s6" d="m507.2 983.5l3 15.8"/>
							<path id="&lt;Path&gt;" class="s6" d="m448 983.5l2.9 13"/>
						</g>
					</g>
					<g id="&lt;Group&gt;">
						<path id="&lt;Path&gt;" class="s11" d="m509.7 627.9c0.4 5.8 0.9 14.8 1 17.3 0.2 2.6 2.8 45.1 2.8 45.1l3 54.6 3.2 55.3 2.5 51.8 3.1 52.2 3.5 60.1c0 0 1.8 18 1.5 18.3-0.4 0.3-3.2 0.7-3.2 0.7l-47.5-0.4-43.2 0.4-0.5-2.2-1.8-24.2-2.1-35.4-2.4-37.2-3-46.6-3.7-55.9c0 0-1.6-21.9-1.5-22.3 0.1-0.3-1.3-2.3-1.3-0.9 0 1.5-0.3 8.1-0.3 8.1l-1.2 25.8-1.5 23-1.2 17.7-1.2 29.9-2.7 43.8-2.8 49.4-1.6 28.8c0 0-0.3 0.1-0.5 0.2-0.2 0.2-4.2 0.4-4.2 0.4l-53.7-0.2-36 0.3-0.3-1.3 1.9-37.2 2.1-43.6 2.2-43.7 3.6-72.4 2.5-49.5 3.1-62.4 1.2-28.5c0 0 0.8-19.1 2.6-18.9 1.9 0.2 7.1-0.1 11.5-0.4 4.7-0.2 6.7-0.7 8.5-0.3 1.4 0.3 12.1 0.3 12.1 0.3h121z"/>
						<path id="&lt;Path&gt;" class="s6" d="m329.8 644.7l-16.9 340.8h94.7l13.2-236.3 15.2 234h93.9l-19.9-355.3h-178.8z"/>
					</g>
					<g id="&lt;Group&gt;">
						<path id="&lt;Path&gt;" class="s6" d="m271.6 529.4l-3.7-2.9c17.6-41.2 51.6-78.7 72.4-87.5 6.9-2.9 27.8-6.2 41-8"/>
					</g>
					<g id="&lt;Group&gt;">
						<path id="&lt;Path&gt;" class="s6" d="m461.2 431.1c13.3 1.9 32.1 5.1 38.8 7.9 20.8 8.8 41.7 33.9 56.7 75.2"/>
					</g>
					<path id="&lt;Path&gt;" class="s6" d="m515.9 627.9h-191.5"/>
					<path id="&lt;Path&gt;" class="s6" d="m461.1 431.3c0 0-5 32.5-39.9 32.5"/>
					<path id="&lt;Path&gt;" class="s6" d="m381.3 431.3c0 0 5 32.5 39.9 32.5"/>
				</g>
				<g id="&lt;Group&gt;">
					<g id="&lt;Group&gt;">
						<g id="&lt;Group&gt;">
							<g id="&lt;Group&gt;">
								<path id="&lt;Path&gt;" class="s12" d="m643 493.1l-168 198.3c-10.7 12.6-29.5 14.2-42.1 3.5-12.6-10.6-14.1-29.4-3.5-42l168.1-198.4q10.3 34 45.5 38.6z"/>
							</g>
						</g>
						<g id="&lt;Group&gt;">
							<g id="&lt;Group&gt;">
								<path id="&lt;Path&gt;" class="s13" d="m474.4 673q6.3 2.2 13.5 3.1l155.1-183q-7.2-1-13.5-3.2z"/>
							</g>
						</g>
						<g id="&lt;Group&gt;">
							<g id="&lt;Group&gt;">
								<path id="&lt;Path&gt;" class="s6" d="m643 493.1l-168 198.3c-10.7 12.6-29.5 14.2-42.1 3.5-12.6-10.6-14.1-29.4-3.5-42l168.1-198.4q10.3 34 45.5 38.6z"/>
							</g>
						</g>
						<g id="&lt;Group&gt;">
							<g id="&lt;Group&gt;">
								<path id="&lt;Path&gt;" class="s14" d="m423.4 679.9q0.1 0.4 0.2 0.8c0.3 1.1 0.7 2.2 1.2 3.3q0.3 0.7 0.6 1.4 0.4 0.6 0.7 1.3 0.6 1 1.3 2 0.3 0.5 0.6 0.9 0.3 0.4 0.6 0.9 1.2 1.5 2.6 2.9 0.8 0.8 1.7 1.5c3.1 2.6 6.5 4.5 10.1 5.7 8.8 2.8 18.5 1.4 26.2-4q0.1 0 0.1 0 1.8-1.3 3.5-2.9 1.1-1.1 2.2-2.3l12.9-15.3q-7.2-0.9-13.5-3.1-23.8-8.5-32-35.4l-13 15.3c-6.5 7.8-8.5 17.9-6 27z"/>
							</g>
						</g>
						<g id="&lt;Group&gt;">
							<g id="&lt;Group&gt;">
								<path id="&lt;Path&gt;" class="s6" d="m423.4 679.9q0.1 0.4 0.2 0.8c0.3 1.1 0.7 2.2 1.2 3.3q0.3 0.7 0.6 1.4 0.4 0.6 0.7 1.3 0.6 1 1.3 2 0.3 0.5 0.6 0.9 0.3 0.4 0.6 0.9 1.2 1.5 2.6 2.9 0.8 0.8 1.7 1.5c3.1 2.6 6.5 4.5 10.1 5.7 8.8 2.8 18.5 1.4 26.2-4q0.1 0 0.1 0 1.8-1.3 3.5-2.9 1.1-1.1 2.2-2.3l12.9-15.3q-7.2-0.9-13.5-3.1-23.8-8.5-32-35.4l-13 15.3c-6.5 7.8-8.5 17.9-6 27z"/>
							</g>
						</g>
						<g id="&lt;Group&gt;">
							<g id="&lt;Group&gt;">
								<g id="&lt;Group&gt;">
									<g id="&lt;Group&gt;">
										<path id="&lt;Path&gt;" class="s15" d="m643 493.1q-35.2-4.6-45.5-38.6l36.1-16.4 16.3-7.4c4.4-2 9.2 2 8 6.7l-4.6 17.3z"/>
									</g>
								</g>
							</g>
							<g id="&lt;Group&gt;">
								<g id="&lt;Group&gt;">
									<path id="&lt;Path&gt;" class="s16" d="m653.3 454.7q-12.2-5.6-19.7-16.6l16.3-7.4c4.4-2 9.2 2 8 6.7z"/>
								</g>
							</g>
							<g id="&lt;Group&gt;">
								<g id="&lt;Group&gt;">
									<g id="&lt;Group&gt;">
										<path id="&lt;Path&gt;" class="s6" d="m643 493.1q-35.2-4.6-45.5-38.6l36.1-16.4 16.3-7.4c4.4-2 9.2 2 8 6.7l-4.6 17.3z"/>
									</g>
								</g>
							</g>
						</g>
					</g>
				</g>
				<path id="&lt;Path&gt;" class="s6" d="m330.1 584.4c0 0 0.5-46.1 8.9-67.7"/>
				<g id="&lt;Group&gt;">
					<g id="&lt;Group&gt;">
						<path id="&lt;Path&gt;" class="s4" d="m665.7 496.4c9.8 10.2-27.5 46-37.3 35.8-9.7-10.2-9.3-26.5 1-36.4 10.3-9.9 26.6-9.6 36.3 0.6z"/>
					</g>
				</g>
				<g id="&lt;Group&gt;">
					<g id="&lt;Group&gt;">
						<path id="&lt;Path&gt;" class="s6" d="m665.7 496.4c9.8 10.2-27.5 46-37.3 35.8-9.7-10.2-9.3-26.5 1-36.4 10.3-9.9 26.6-9.6 36.3 0.6z"/>
					</g>
				</g>
				<path id="&lt;Path&gt;" class="s4" d="m492.9 589.9c-1.5-24-45.9-8.3-45.9-8.3 0 0 8.8-7.8 3.2-12.2-5.7-4.4-17 16-17 16l-103.1-0.9v-0.1l1.1-23.7 1.1-12c-22.3 2.7-47.1-8.7-61-19.8-7.6 15.6-20 76.4 8 99.3l0.3-0.3-0.3 0.3c29.3 23.9 109.4 4.8 165.9-13.8 32.2 0.8 48.9-5.2 47.7-24.5z"/>
				<path id="&lt;Path&gt;" class="s6" d="m492.9 589.9c-1.5-24-45.9-8.3-45.9-8.3 0 0 8.8-7.8 3.2-12.2-5.7-4.4-17 16-17 16l-103.1-0.9v-0.1l1.1-23.7 1.1-12c-22.3 2.7-47.1-8.7-61-19.8-7.6 15.6-20 76.4 8 99.3l0.3-0.3-0.3 0.3c29.3 23.9 109.4 4.8 165.9-13.8 32.2 0.8 48.9-5.2 47.7-24.5z"/>
			</g>
			<path id="&lt;Path&gt;" class="s1" d="m1292.2 1054.6h-1184.4"/>
		</g>
	</g>
</svg>