<svg xmlns="http://www.w3.org/2000/svg" xmlns:xlink="http://www.w3.org/1999/xlink" width="500" zoomAndPan="magnify" viewBox="0 0 375 374.999991" height="500" preserveAspectRatio="xMidYMid meet" version="1.0"><defs><g/><clipPath id="88ad598183"><path d="M 89.769531 83.429688 L 297.910156 83.429688 L 297.910156 291.570312 L 89.769531 291.570312 Z M 89.769531 83.429688 " clip-rule="nonzero"/></clipPath><clipPath id="8bfe57efbc"><path d="M 193.839844 83.429688 C 136.363281 83.429688 89.769531 130.023438 89.769531 187.5 C 89.769531 244.976562 136.363281 291.570312 193.839844 291.570312 C 251.316406 291.570312 297.910156 244.976562 297.910156 187.5 C 297.910156 130.023438 251.316406 83.429688 193.839844 83.429688 " clip-rule="nonzero"/></clipPath></defs><g clip-path="url(#88ad598183)"><g clip-path="url(#8bfe57efbc)"><path fill="#ffde59" d="M 89.769531 83.429688 L 297.910156 83.429688 L 297.910156 291.570312 L 89.769531 291.570312 Z M 89.769531 83.429688 " fill-opacity="1" fill-rule="nonzero"/></g></g><g fill="#ff5758" fill-opacity="1"><g transform="translate(178.555715, 198.749987)"><g><path d="M 5.984375 0 L 0.75 0 L 8.71875 -23.078125 L 15.015625 -23.078125 L 22.96875 0 L 17.734375 0 L 16.03125 -5.265625 L 7.703125 -5.265625 Z M 8.9375 -9.078125 L 14.796875 -9.078125 L 11.953125 -17.8125 L 11.78125 -17.8125 Z M 8.9375 -9.078125 "/></g></g></g><g fill="#ff5758" fill-opacity="1"><g transform="translate(205.992927, 198.749987)"><g><path d="M 6.890625 -23.078125 L 6.890625 0 L 2 0 L 2 -23.078125 Z M 6.890625 -23.078125 "/></g></g></g><g fill="#ff5758" fill-opacity="1"><g transform="translate(106.564627, 179.22858)"><g><path d="M 14.96875 14.0625 C 15.894531 13.71875 16.597656 13.15625 17.078125 12.375 C 17.554688 11.59375 17.75 10.65625 17.65625 9.5625 C 17.53125 8.007812 16.851562 6.800781 15.625 5.9375 C 14.394531 5.082031 12.726562 4.738281 10.625 4.90625 C 8.5 5.082031 6.898438 5.6875 5.828125 6.71875 C 4.753906 7.757812 4.285156 9.085938 4.421875 10.703125 C 4.535156 12.117188 4.992188 13.207031 5.796875 13.96875 C 6.609375 14.726562 7.644531 15.070312 8.90625 15 L 8.546875 10.640625 L 11.78125 10.375 L 12.46875 18.84375 L 9.90625 19.046875 C 8.132812 19.191406 6.578125 18.941406 5.234375 18.296875 C 3.890625 17.660156 2.820312 16.707031 2.03125 15.4375 C 1.238281 14.175781 0.769531 12.695312 0.625 11 C 0.46875 9.09375 0.75 7.382812 1.46875 5.875 C 2.195312 4.375 3.300781 3.160156 4.78125 2.234375 C 6.257812 1.304688 8.070312 0.753906 10.21875 0.578125 C 12.40625 0.390625 14.3125 0.648438 15.9375 1.359375 C 17.570312 2.078125 18.859375 3.113281 19.796875 4.46875 C 20.742188 5.820312 21.296875 7.394531 21.453125 9.1875 C 21.578125 10.707031 21.394531 12.113281 20.90625 13.40625 C 20.425781 14.695312 19.707031 15.78125 18.75 16.65625 C 17.789062 17.539062 16.648438 18.125 15.328125 18.40625 Z M 14.96875 14.0625 "/></g></g></g><g fill="#ff5758" fill-opacity="1"><g transform="translate(109.42448, 202.825353)"><g/></g></g><g fill="#ff5758" fill-opacity="1"><g transform="translate(111.512565, 211.39982)"><g><path d="M 0.71875 1.609375 L 19.265625 -6.734375 L 24.890625 5.765625 L 21.65625 7.234375 L 17.796875 -1.34375 L 13.375 0.640625 L 16.953125 8.578125 L 13.71875 10.03125 L 10.140625 2.09375 L 5.71875 4.078125 L 9.59375 12.6875 L 6.359375 14.140625 Z M 0.71875 1.609375 "/></g></g></g><g fill="#ff5758" fill-opacity="1"><g transform="translate(120.012114, 228.844759)"><g/></g></g><g fill="#ff5758" fill-opacity="1"><g transform="translate(124.636696, 236.634816)"><g><path d="M 27.671875 -0.359375 L 12.90625 13.625 L 10.359375 10.9375 L 13.578125 -4.28125 L 13.46875 -4.390625 L 4.171875 4.40625 L 1.21875 1.28125 L 15.984375 -12.703125 L 18.5625 -9.96875 L 15.328125 5.203125 L 15.453125 5.34375 L 24.734375 -3.453125 Z M 27.671875 -0.359375 "/></g></g></g><g fill="#ff5758" fill-opacity="1"><g transform="translate(141.070985, 252.749941)"><g/></g></g><g fill="#ff5758" fill-opacity="1"><g transform="translate(148.040414, 258.164626)"><g><path d="M 1.5625 0.8125 L 10.890625 -17.25 L 23.078125 -10.96875 L 21.453125 -7.8125 L 13.09375 -12.125 L 10.875 -7.828125 L 18.609375 -3.828125 L 16.96875 -0.671875 L 9.234375 -4.671875 L 7.015625 -0.375 L 15.390625 3.953125 L 13.765625 7.109375 Z M 1.5625 0.8125 "/></g></g></g><g fill="#ff5758" fill-opacity="1"><g transform="translate(165.547593, 266.534094)"><g/></g></g><g fill="#ff5758" fill-opacity="1"><g transform="translate(173.908836, 269.605778)"><g><path d="M 1.75 0.265625 L 4.875 -19.8125 L 12.796875 -18.578125 C 15.078125 -18.210938 16.753906 -17.335938 17.828125 -15.953125 C 18.910156 -14.578125 19.296875 -12.894531 18.984375 -10.90625 C 18.765625 -9.53125 18.269531 -8.398438 17.5 -7.515625 C 16.738281 -6.628906 15.753906 -6.035156 14.546875 -5.734375 L 17.578125 2.75 L 12.890625 2.015625 L 10.203125 -5.6875 L 7.09375 -6.171875 L 5.984375 0.9375 Z M 7.625 -9.59375 L 10.515625 -9.140625 C 12.921875 -8.765625 14.28125 -9.578125 14.59375 -11.578125 C 14.914062 -13.628906 13.867188 -14.847656 11.453125 -15.234375 L 8.578125 -15.671875 Z M 7.625 -9.59375 "/></g></g></g><g fill="#ff5758" fill-opacity="1"><g transform="translate(194.448681, 272.118211)"><g/></g></g><g fill="#ff5758" fill-opacity="1"><g transform="translate(203.527617, 272.445577)"><g><path d="M 5.171875 -1 L 0.65625 -0.125 L 3.6875 -21.40625 L 9.125 -22.453125 L 19.859375 -3.84375 L 15.34375 -2.96875 L 12.984375 -7.234375 L 5.78125 -5.84375 Z M 6.21875 -9.34375 L 11.28125 -10.3125 L 7.375 -17.40625 L 7.21875 -17.375 Z M 6.21875 -9.34375 "/></g></g></g><g fill="#ff5758" fill-opacity="1"><g transform="translate(226.313939, 267.149618)"><g/></g></g><g fill="#ff5758" fill-opacity="1"><g transform="translate(234.741462, 264.19484)"><g><path d="M -7.75 -14.921875 L -9.5625 -17.96875 L 4.765625 -26.53125 L 6.578125 -23.484375 L 1.234375 -20.28125 L 9.84375 -5.875 L 6.203125 -3.703125 L -2.40625 -18.109375 Z M -7.75 -14.921875 "/></g></g></g><g fill="#ff5758" fill-opacity="1"><g transform="translate(252.438793, 252.798692)"><g/></g></g><g fill="#ff5758" fill-opacity="1"><g transform="translate(258.682636, 247.414713)"><g><path d="M -10.453125 -18.46875 L 4.203125 -4.375 L 1.21875 -1.265625 L -13.4375 -15.359375 Z M -10.453125 -18.46875 "/></g></g></g><g fill="#ff5758" fill-opacity="1"><g transform="translate(265.249759, 240.407767)"><g/></g></g><g fill="#ff5758" fill-opacity="1"><g transform="translate(271.19008, 233.535325)"><g><path d="M -15.453125 -14.296875 L 0.5 -11.4375 L 0.59375 -11.609375 L -10.765625 -23.171875 L -8.53125 -27.375 L 6.171875 -11.6875 L 3.59375 -6.796875 L -17.671875 -10.078125 Z M -15.453125 -14.296875 "/></g></g></g><g fill="#ff5758" fill-opacity="1"><g transform="translate(281.325456, 212.449704)"><g/></g></g><g fill="#ff5758" fill-opacity="1"><g transform="translate(284.199221, 204.105573)"><g><path d="M 0.265625 -1.75 L -19.84375 -4.734375 L -17.828125 -18.28125 L -14.3125 -17.765625 L -15.703125 -8.46875 L -10.921875 -7.75 L -9.640625 -16.359375 L -6.125 -15.84375 L -7.40625 -7.234375 L -2.625 -6.515625 L -1.234375 -15.84375 L 2.28125 -15.328125 Z M 0.265625 -1.75 "/></g></g></g><g fill="#ff5758" fill-opacity="1"><g transform="translate(286.461708, 184.832192)"><g/></g></g><g fill="#ff5758" fill-opacity="1"><g transform="translate(126.915796, 158.97424)"><g/></g></g><g fill="#ff5758" fill-opacity="1"><g transform="translate(130.132926, 153.963388)"><g><path d="M 13.96875 -10.484375 L 4.296875 -17.828125 L 8.640625 -6.5 L 4.4375 -3.328125 L -12.78125 -16.40625 L -8.578125 -19.5625 L 2.828125 -10.28125 L 2.921875 -10.359375 L -2.609375 -24.03125 L 0.25 -26.1875 L 11.828125 -17.046875 L 11.9375 -17.125 L 6.21875 -30.671875 L 10.40625 -33.8125 L 18.15625 -13.640625 Z M 13.96875 -10.484375 "/></g></g></g><g fill="#ff5758" fill-opacity="1"><g transform="translate(152.278314, 138.392299)"><g/></g></g><g fill="#ff5758" fill-opacity="1"><g transform="translate(157.49255, 135.251773)"><g><path d="M 3.171875 -9.9375 L 5.90625 -2.046875 L 1.4375 -0.5 L -5.359375 -20.15625 L -0.890625 -21.703125 L 1.8125 -13.859375 L 8.140625 -16.046875 L 5.4375 -23.890625 L 9.921875 -25.4375 L 16.71875 -5.78125 L 12.234375 -4.234375 L 9.5 -12.125 Z M 3.171875 -9.9375 "/></g></g></g><g fill="#ff5758" fill-opacity="1"><g transform="translate(174.935474, 129.583893)"><g/></g></g><g fill="#ff5758" fill-opacity="1"><g transform="translate(180.770064, 127.892719)"><g><path d="M 10.6875 -21.546875 L 20.421875 -1.34375 L 15.34375 -1 L 13.546875 -5.046875 L 5.640625 -4.53125 L 4.375 -0.28125 L -0.703125 0.046875 L 6.3125 -21.25 Z M 11.640625 -9.09375 L 8.953125 -14.984375 L 8.90625 -14.96875 L 6.96875 -8.796875 Z M 11.640625 -9.09375 "/></g></g></g><g fill="#ff5758" fill-opacity="1"><g transform="translate(199.626673, 127.031838)"><g/></g></g><g fill="#ff5758" fill-opacity="1"><g transform="translate(205.813801, 127.197365)"><g><path d="M 3.203125 -16.34375 L 3.953125 -20.421875 L 18.328125 -17.78125 L 17.578125 -13.703125 L 12.71875 -14.59375 L 9.71875 1.78125 L 5.0625 0.921875 L 8.0625 -15.453125 Z M 3.203125 -16.34375 "/></g></g></g><g fill="#ff5758" fill-opacity="1"><g transform="translate(219.844497, 129.954241)"><g/></g></g><g fill="#ff5758" fill-opacity="1"><g transform="translate(226.005984, 131.791146)"><g/></g></g><g fill="#ff5758" fill-opacity="1"><g transform="translate(232.024117, 134.053859)"><g/></g></g><g fill="#ff5758" fill-opacity="1"><g transform="translate(237.851449, 136.705381)"><g><path d="M 15.5625 -15.15625 L 5.46875 3.03125 L 1.328125 0.734375 L 11.421875 -17.453125 Z M 15.5625 -15.15625 "/></g></g></g><g fill="#ff5758" fill-opacity="1"><g transform="translate(244.221401, 140.233554)"><g/></g></g><g fill="#ff5758" fill-opacity="1"><g transform="translate(249.538569, 143.303931)"><g><path d="M 20.671875 -10.25 C 21.535156 -9.519531 22.269531 -8.679688 22.875 -7.734375 C 23.488281 -6.796875 23.890625 -6.03125 24.078125 -5.4375 L 24.328125 -4.578125 L 20.421875 -2.9375 C 20.378906 -3.101562 20.300781 -3.332031 20.1875 -3.625 C 20.082031 -3.914062 19.835938 -4.40625 19.453125 -5.09375 C 19.066406 -5.78125 18.628906 -6.332031 18.140625 -6.75 C 17.535156 -7.257812 16.960938 -7.523438 16.421875 -7.546875 C 15.878906 -7.566406 15.425781 -7.359375 15.0625 -6.921875 C 14.875 -6.703125 14.773438 -6.429688 14.765625 -6.109375 C 14.765625 -5.796875 14.859375 -5.375 15.046875 -4.84375 C 15.234375 -4.3125 15.414062 -3.863281 15.59375 -3.5 C 15.769531 -3.132812 16.046875 -2.582031 16.421875 -1.84375 C 17.078125 -0.53125 17.445312 0.804688 17.53125 2.171875 C 17.625 3.546875 17.269531 4.707031 16.46875 5.65625 C 15.695312 6.570312 14.863281 7.226562 13.96875 7.625 C 13.070312 8.03125 12.175781 8.179688 11.28125 8.078125 C 10.382812 7.972656 9.507812 7.71875 8.65625 7.3125 C 7.8125 6.914062 6.984375 6.378906 6.171875 5.703125 C 5.484375 5.109375 4.859375 4.460938 4.296875 3.765625 C 3.742188 3.066406 3.332031 2.414062 3.0625 1.8125 C 2.800781 1.21875 2.578125 0.664062 2.390625 0.15625 C 2.203125 -0.34375 2.085938 -0.734375 2.046875 -1.015625 L 1.96875 -1.4375 L 6.34375 -2.9375 C 6.394531 -2.6875 6.46875 -2.347656 6.5625 -1.921875 C 6.664062 -1.492188 6.914062 -0.828125 7.3125 0.078125 C 7.71875 0.992188 8.1875 1.675781 8.71875 2.125 C 10.238281 3.414062 11.441406 3.539062 12.328125 2.5 C 12.515625 2.28125 12.632812 2.03125 12.6875 1.75 C 12.738281 1.476562 12.703125 1.132812 12.578125 0.71875 C 12.460938 0.300781 12.34375 -0.0507812 12.21875 -0.34375 C 12.101562 -0.632812 11.898438 -1.09375 11.609375 -1.71875 C 11.316406 -2.351562 11.097656 -2.828125 10.953125 -3.140625 C 10.398438 -4.421875 10.160156 -5.640625 10.234375 -6.796875 C 10.304688 -7.953125 10.691406 -8.941406 11.390625 -9.765625 C 12.597656 -11.191406 14.109375 -11.910156 15.921875 -11.921875 C 17.742188 -11.941406 19.328125 -11.382812 20.671875 -10.25 Z M 20.671875 -10.25 "/></g></g></g><g fill="#ff5758" fill-opacity="1"><g transform="translate(261.705491, 153.923664)"><g/></g></g></svg>