<svg version="1.2" xmlns="http://www.w3.org/2000/svg" viewBox="0 0 1400 1400" width="830" height="837">	<title>Generative Ai-04-ai</title>
	<style>
		.s0 { fill: #bcebf1 } 
		.s1 { fill: none;stroke: #000000;stroke-linecap: round;stroke-linejoin: round;stroke-width: 2.6 } 
		.s2 { fill: #ffcf44 } 
		.s3 { fill: #fc6140 } 
		.s4 { fill: none;stroke: #000000;stroke-linecap: round;stroke-linejoin: round;stroke-width: 2.4 } 

		.c1 {
	-webkit-animation: c1 1.2s cubic-bezier(0.390, 0.575, 0.565, 1.000) both;
	        animation: c1 2s infinite cubic-bezier(0.390, 0.575, 0.565, 1.000) both;
}
@-webkit-keyframes c1 {
  0% {
    opacity: 0;
  }
  100% {
    opacity: 1;
  }
}
@keyframes c1 {
  0% {
    opacity: 0;
  }
  100% {
    opacity: 1;
  }
}

.c2 {
	-webkit-animation: c2 2.5s infinite cubic-bezier(0.250, 0.460, 0.450, 0.940) both;
	        animation: c2 2.5s infinite cubic-bezier(0.250, 0.460, 0.450, 0.940) both;
}

@-webkit-keyframes c2 {
  0% {
    -webkit-transform: rotateY(20deg) rotateX(35deg) translate(300px, -300px) skew(-35deg, 10deg);
            transform: rotateY(20deg) rotateX(35deg) translate(300px, -300px) skew(-35deg, 10deg);
    opacity: 0;
  }
  100% {
    -webkit-transform: rotateY(0) rotateX(0deg) translate(0, 0) skew(0deg, 0deg);
            transform: rotateY(0) rotateX(0deg) translate(0, 0) skew(0deg, 0deg);
    opacity: 1;
  }
}
@keyframes c2 {
  0% {
    -webkit-transform: rotateY(20deg) rotateX(35deg) translate(300px, -300px) skew(-35deg, 10deg);
            transform: rotateY(20deg) rotateX(35deg) translate(300px, -300px) skew(-35deg, 10deg);
    opacity: 0;
  }
  100% {
    -webkit-transform: rotateY(0) rotateX(0deg) translate(0, 0) skew(0deg, 0deg);
            transform: rotateY(0) rotateX(0deg) translate(0, 0) skew(0deg, 0deg);
    opacity: 1;
  }
}





	</style>
	<g id="Layer 1">
		<g id="&lt;Group&gt;" style="opacity: .6">
			<path id="&lt;Path&gt;" class="s0" d="m846.4 1187.8l-498.9-178c-22.5-8.1-34.3-32.9-26.3-55.5l187-523.9c8-22.6 32.9-34.4 55.5-26.3l498.8 178c22.6 8.1 34.4 32.9 26.3 55.5l-186.9 523.8c-8.1 22.6-32.9 34.4-55.5 26.4z"/>
			<path id="&lt;Path&gt;" class="s1" d="m846.4 1187.8l-498.9-178c-22.5-8.1-34.3-32.9-26.3-55.5l187-523.9c8-22.6 32.9-34.4 55.5-26.3l498.8 178c22.6 8.1 34.4 32.9 26.3 55.5l-186.9 523.8c-8.1 22.6-32.9 34.4-55.5 26.4z"/>
		</g>
		<g id="&lt;Group&gt;" style="opacity: .8">
			<path id="&lt;Path&gt;" class="s0 c3" d="m874.8 1085.7l-523.4-81.1c-23.7-3.6-39.9-25.8-36.2-49.5l85.1-549.7c3.7-23.7 25.9-39.9 49.6-36.2l523.4 81c23.7 3.7 39.9 25.9 36.2 49.6l-85.1 549.6c-3.7 23.7-25.9 40-49.6 36.3z"/>
			<path id="&lt;Path&gt;" class="s1 c3" d="m874.8 1085.7l-523.4-81.1c-23.7-3.6-39.9-25.8-36.2-49.5l85.1-549.7c3.7-23.7 25.9-39.9 49.6-36.2l523.4 81c23.7 3.7 39.9 25.9 36.2 49.6l-85.1 549.6c-3.7 23.7-25.9 40-49.6 36.3z"/>
		</g>
		<g id="&lt;Group&gt;">
			<path id="&lt;Path&gt;" class="s0 c2" d="m883.5 1000h-529.6c-24 0-43.5-19.4-43.5-43.4v-556.2c0-24 19.5-43.5 43.5-43.5h529.6c24 0 43.4 19.5 43.4 43.5v556.2c0 24-19.4 43.4-43.4 43.4z"/>
			<path id="&lt;Path&gt;" class="s1 c2" d="m883.5 1000h-529.6c-24 0-43.5-19.4-43.5-43.4v-556.2c0-24 19.5-43.5 43.5-43.5h529.6c24 0 43.4 19.5 43.4 43.5v556.2c0 24-19.4 43.4-43.4 43.4z"/>
			<path id="&lt;Path&gt;" class="s2 c2" d="m818.9 516.5c0 35.8-29 64.8-64.7 64.8-35.8 0-64.8-29-64.8-64.8 0-35.7 29-64.7 64.8-64.7 35.7 0 64.7 29 64.7 64.7z"/>
			<path id="&lt;Path&gt;" class="s2 c2" d="m764.7 674.9l122.8 209.7h-285.4l122.7-209.7c9-15.2 31-15.2 39.9 0z"/>
			<path id="&lt;Path&gt;" class="s1 c2" d="m818.9 516.5c0 35.8-29 64.8-64.7 64.8-35.8 0-64.8-29-64.8-64.8 0-35.7 29-64.7 64.8-64.7 35.7 0 64.7 29 64.7 64.7z"/>
			<path id="&lt;Path&gt;" class="s1 c2" d="m764.7 674.9l122.8 209.7h-285.4l122.7-209.7c9-15.2 31-15.2 39.9 0z"/>
			<path id="&lt;Path&gt;" class="s3 c2" d="m575.7 603.9l164.3 280.7h-382.1l164.4-280.7c11.9-20.4 41.4-20.4 53.4 0z"/>
			<path id="&lt;Path&gt;" class="s4 c2" d="m575.7 603.9l164.3 280.7h-382.1l164.4-280.7c11.9-20.4 41.4-20.4 53.4 0z"/>
		</g>
		<path id="&lt;Path&gt;" class="s0 c1" d="m1103.7 505.9c0 11-8.9 19.8-19.8 19.8-11 0-19.9-8.8-19.9-19.8 0-11 8.9-19.9 19.9-19.9 10.9 0 19.8 8.9 19.8 19.9z"/>
		<path id="&lt;Path&gt;" class="s0 c1" d="m1050.7 443.9c0 10.4-8.4 18.7-18.7 18.7-10.4 0-18.8-8.3-18.8-18.7 0-10.3 8.4-18.7 18.8-18.7 10.3 0 18.7 8.4 18.7 18.7z"/>
		<path id="&lt;Path&gt;" class="s0 c1" d="m1138.9 447.4c0 8.4-6.8 15.2-15.2 15.2-8.5 0-15.3-6.8-15.3-15.2 0-8.4 6.8-15.3 15.3-15.3 8.4 0 15.2 6.9 15.2 15.3z"/>
		<path id="&lt;Path&gt;" class="s0 c1" d="m373.4 1077c2-10.8 12.4-17.9 23.2-15.8 10.8 2 17.9 12.4 15.8 23.2-2 10.8-12.4 17.9-23.2 15.8-10.8-2-17.9-12.4-15.8-23.2z"/>
		<path id="&lt;Path&gt;" class="s0 c1" d="m414 1147.8c1.9-10.2 11.7-16.9 21.9-15 10.1 2 16.8 11.7 14.9 21.9-1.9 10.2-11.7 16.8-21.9 14.9-10.1-1.9-16.8-11.7-14.9-21.8z"/>
		<path id="&lt;Path&gt;" class="s0 c1" d="m327.9 1128c1.6-8.3 9.6-13.8 17.9-12.2 8.2 1.6 13.7 9.5 12.1 17.8-1.5 8.3-9.5 13.7-17.8 12.2-8.3-1.6-13.7-9.6-12.2-17.8z"/>
	</g>
</svg>