<svg version="1.2" xmlns="http://www.w3.org/2000/svg" viewBox="0 0 1200 1200" width="1200" height="1200">
	<title>Image generation-ai</title>
	<style>
		.s0 { fill: #bbebf1 } 
		.s1 { fill: none;stroke: #000000;stroke-linecap: round;stroke-linejoin: round;stroke-width: 5.2 } 
		.s2 { fill: #03bbd7 } 
		.s3 { fill: #fc613f } 
		.s4 { fill: #ffe8ad } 
		.s5 { fill: #ffffff } 
	</style>
	<g id="Layer 1">
		<g id="&lt;Group&gt;">
			<g id="&lt;Group&gt;">
				<path id="&lt;Path&gt;" class="s0" d="m817.5 428.8v478.1h-435v-613.8h305.8z"/>
				<path id="&lt;Path&gt;" class="s1" d="m817.5 428.8v478.1h-435v-613.8h305.8v135.7z"/>
				<path id="&lt;Path&gt;" class="s2" d="m817.5 428.8h-129.2v-135.7z"/>
				<path id="&lt;Path&gt;" class="s1" d="m817.5 428.8h-129.2v-135.7z"/>
			</g>
			<g id="&lt;Group&gt;">
				<path id="&lt;Path&gt;" class="s3" d="m743.3 608.8v176.6h-286.6v-26.1c2-3 131.8-136.7 131.8-136.7l69.8 74.8z"/>
				<path id="&lt;Compound Path&gt;" fill-rule="evenodd" class="s4" d="m743.3 498.7v110.1l-85 88.6-69.8-74.8c0 0-129.8 133.7-131.8 136.7v-260.6zm-38.4 79.4c0-17-13.8-30.8-30.8-30.8-17 0-30.8 13.8-30.8 30.8 0 17 13.8 30.7 30.8 30.7 17 0 30.8-13.7 30.8-30.7z"/>
				<path id="&lt;Path&gt;" class="s1" d="m743.3 608.8v176.6h-286.6v-26.1c2-3 131.8-136.7 131.8-136.7l69.8 74.8z"/>
				<path id="&lt;Compound Path&gt;" fill-rule="evenodd" class="s1" d="m743.3 498.7v110.1l-85 88.6-69.8-74.8c0 0-129.8 133.7-131.8 136.7v-260.6zm-38.4 79.4c0-17-13.8-30.8-30.8-30.8-17 0-30.8 13.8-30.8 30.8 0 17 13.8 30.7 30.8 30.7 17 0 30.8-13.7 30.8-30.7z"/>
				<path id="&lt;Path&gt;" class="s1" d="m704.9 578.1c0 17-13.8 30.7-30.8 30.7-17 0-30.8-13.7-30.8-30.7 0-17 13.8-30.8 30.8-30.8 17 0 30.8 13.8 30.8 30.8z"/>
				<path id="&lt;Path&gt;" class="s5" d="m704.9 578.1c0 17-13.8 30.7-30.8 30.7-17 0-30.8-13.7-30.8-30.7 0-17 13.8-30.8 30.8-30.8 17 0 30.8 13.8 30.8 30.8z"/>
				<path id="&lt;Path&gt;" class="s1" d="m704.9 578.1c0 17-13.8 30.7-30.8 30.7-17 0-30.8-13.7-30.8-30.7 0-17 13.8-30.8 30.8-30.8 17 0 30.8 13.8 30.8 30.8z"/>
			</g>
		</g>
	</g>
</svg>