<svg version="1.2" xmlns="http://www.w3.org/2000/svg" viewBox="0 0 1400 1400" width="1400" height="1400">
	<title>Relevance Ranking-ai</title>
	<style>
		tspan { white-space:pre } 
		.s0 { fill: #bbebf1 } 
		.s1 { fill: none;stroke: #000000;stroke-linecap: round;stroke-linejoin: round;stroke-width: 2.6 } 
		.s2 { fill: #03bbd7 } 
		.s3 { fill: none;stroke: #03bbd7;stroke-miterlimit:10;stroke-width: 2 } 
		.t4 { font-size: 24px;fill: #03bbd7;font-weight: 400;font-family: "BalooThambi2-Regular", "Baloo" } 
		.s5 { fill: #fc613f } 
		.s6 { fill: none;stroke: #ffffff;stroke-miterlimit:10;stroke-width: 2 } 
		.s7 { fill: #fee8ad } 
	</style>
	<g id="Layer 1">
		<g id="&lt;Group&gt;">
			<g id="&lt;Group&gt;">
				<g id="&lt;Group&gt;">
					<path id="&lt;Path&gt;" class="s0" d="m986.4 496.1h-129.6v-119h129.6z"/>
					<path id="&lt;Path&gt;" class="s1" d="m986.4 496.1h-129.6v-119h129.6z"/>
					<path id="&lt;Path&gt;" class="s0" d="m856.8 496.1h-123.4v-119h123.4z"/>
					<path id="&lt;Path&gt;" class="s1" d="m856.8 496.1h-123.4v-119h123.4z"/>
					<path id="&lt;Path&gt;" class="s0" d="m733.4 496.1h-124v-119h124z"/>
					<path id="&lt;Path&gt;" class="s1" d="m733.4 496.1h-124v-119h124z"/>
					<path id="&lt;Path&gt;" class="s0" d="m609.4 496.1h-132.1v-119h132.1z"/>
					<path id="&lt;Path&gt;" class="s1" d="m609.4 496.1h-132.1v-119h132.1z"/>
					<path id="&lt;Path&gt;" class="s0" d="m478.4 376.8v119h-221.3q-4.4 0.7-9 0.7c-33 0-59.8-26.8-59.8-59.9 0-33.1 26.8-59.8 59.8-59.8z"/>
					<g id="&lt;Group&gt;">
						<path id="&lt;Path&gt;" class="s2" d="m534.5 472.4c4.2-2.3 11.2-2.3 15.4 0l16.6 8.7c4.2 2.2 7 0.2 6.2-4.6l-3.1-18.4c-0.9-4.7 1.3-11.3 4.7-14.7l13.4-13c3.4-3.4 2.4-6.7-2.4-7.4l-18.5-2.6c-4.7-0.7-10.3-4.8-12.4-9.1l-8.3-16.8c-2.2-4.3-5.6-4.3-7.7 0l-8.3 16.8c-2.1 4.3-7.7 8.4-12.5 9.1l-18.5 2.6c-4.7 0.7-5.8 4-2.4 7.4l13.4 13c3.4 3.4 5.6 10 4.8 14.7l-3.2 18.4c-0.8 4.8 2 6.8 6.2 4.6z"/>
					</g>
					<g id="&lt;Group&gt;">
						<path id="&lt;Path&gt;" class="s2" d="m661.9 472.4c4.2-2.3 11.1-2.3 15.4 0l16.5 8.7c4.3 2.2 7.1 0.2 6.3-4.6l-3.2-18.4c-0.8-4.7 1.3-11.3 4.8-14.7l13.4-13c3.4-3.4 2.3-6.7-2.4-7.4l-18.5-2.6c-4.8-0.7-10.4-4.8-12.5-9.1l-8.3-16.8c-2.1-4.3-5.6-4.3-7.7 0l-8.3 16.8c-2.1 4.3-7.7 8.4-12.4 9.1l-18.6 2.6c-4.7 0.7-5.8 4-2.3 7.4l13.4 13c3.4 3.4 5.5 10 4.7 14.7l-3.1 18.4c-0.9 4.8 1.9 6.8 6.2 4.6z"/>
					</g>
					<g id="&lt;Group&gt;">
						<path id="&lt;Path&gt;" class="s2" d="m789.7 472.4c4.3-2.3 11.2-2.3 15.4 0l16.6 8.7c4.2 2.2 7 0.2 6.2-4.6l-3.1-18.4c-0.8-4.7 1.3-11.3 4.7-14.7l13.4-13c3.5-3.4 2.4-6.7-2.4-7.4l-18.5-2.6c-4.7-0.7-10.3-4.8-12.4-9.1l-8.3-16.8c-2.1-4.3-5.6-4.3-7.7 0l-8.3 16.8c-2.1 4.3-7.7 8.4-12.5 9.1l-18.5 2.6c-4.7 0.7-5.8 4-2.4 7.4l13.4 13c3.5 3.4 5.6 10 4.8 14.7l-3.2 18.4c-0.8 4.8 2 6.8 6.3 4.6z"/>
					</g>
					<path id="&lt;Path&gt;" class="s3" d="m907.6 472.3c4.2-2.2 11.2-2.2 15.4 0l16.6 8.7c4.2 2.3 7 0.2 6.2-4.5l-3.1-18.4c-0.9-4.8 1.3-11.3 4.7-14.7l13.4-13.1c3.4-3.3 2.4-6.6-2.4-7.3l-18.5-2.7c-4.7-0.7-10.3-4.7-12.5-9l-8.2-16.8c-2.2-4.3-5.6-4.3-7.7 0l-8.3 16.8c-2.1 4.3-7.8 8.3-12.5 9l-18.5 2.7c-4.7 0.7-5.8 4-2.4 7.3l13.4 13.1c3.4 3.4 5.6 9.9 4.8 14.7l-3.2 18.4c-0.8 4.7 2 6.8 6.2 4.5z"/>
					<text id="3 STARS
" style="transform: matrix(2,0,0,2,334.193,451.376)" >
						<tspan x="-41.4" y="0" class="t4">3 STARS
</tspan>
					</text>
					<path id="&lt;Path&gt;" class="s5" d="m1148.8 438.1c0 51.7-41.9 93.6-93.6 93.6-51.7 0-93.6-41.9-93.6-93.6 0-51.7 41.9-93.6 93.6-93.6 51.7 0 93.6 41.9 93.6 93.6z"/>
					<path id="&lt;Path&gt;" class="s1" d="m1148.8 438.1c0 51.7-41.9 93.6-93.6 93.6-51.7 0-93.6-41.9-93.6-93.6 0-51.7 41.9-93.6 93.6-93.6 51.7 0 93.6 41.9 93.6 93.6z"/>
					<path id="&lt;Path&gt;" class="s6" d="m1043.3 487.4c6.6-3.5 17.3-3.5 23.8 0l25.6 13.4c6.5 3.4 10.8 0.3 9.6-7l-4.9-28.4c-1.2-7.3 2.1-17.5 7.4-22.7l20.6-20.1c5.3-5.2 3.7-10.3-3.6-11.3l-28.6-4.2c-7.3-1-16-7.3-19.2-14l-12.8-25.9c-3.3-6.6-8.6-6.6-11.9 0l-12.8 25.9c-3.3 6.7-11.9 13-19.2 14l-28.6 4.2c-7.3 1-9 6.1-3.7 11.3l20.7 20.1c5.3 5.2 8.6 15.4 7.3 22.7l-4.8 28.4c-1.3 7.3 3 10.4 9.6 7z"/>
				</g>
				<g id="&lt;Group&gt;">
					<g id="&lt;Group&gt;">
						<path id="&lt;Path&gt;" class="s1" d="m478.4 376.8v119h-221.3q-4.4 0.7-9 0.7c-33 0-59.8-26.8-59.8-59.9 0-33.1 26.8-59.8 59.8-59.8z"/>
					</g>
				</g>
			</g>
			<g id="&lt;Group&gt;">
				<g id="&lt;Group&gt;">
					<path id="&lt;Path&gt;" class="s0" d="m986.4 720.4h-129.6v-119h129.6z"/>
					<path id="&lt;Path&gt;" class="s1" d="m986.4 720.4h-129.6v-119h129.6z"/>
					<path id="&lt;Path&gt;" class="s0" d="m856.8 720.4h-123.4v-119h123.4z"/>
					<path id="&lt;Path&gt;" class="s1" d="m856.8 720.4h-123.4v-119h123.4z"/>
					<path id="&lt;Path&gt;" class="s0" d="m733.4 720.4h-124v-119h124z"/>
					<path id="&lt;Path&gt;" class="s1" d="m733.4 720.4h-124v-119h124z"/>
					<path id="&lt;Path&gt;" class="s0" d="m609.4 720.4h-132.1v-119h132.1z"/>
					<path id="&lt;Path&gt;" class="s1" d="m609.4 720.4h-132.1v-119h132.1z"/>
					<path id="&lt;Path&gt;" class="s0" d="m478.4 601.1v119h-221.3q-4.4 0.7-9 0.7c-33 0-59.8-26.8-59.8-59.9 0-33.1 26.8-59.8 59.8-59.8z"/>
					<g id="&lt;Group&gt;">
						<path id="&lt;Path&gt;" class="s2" d="m534.5 696.7c4.2-2.3 11.2-2.3 15.4 0l16.6 8.7c4.2 2.2 7 0.2 6.2-4.6l-3.1-18.4c-0.9-4.7 1.3-11.3 4.7-14.7l13.4-13c3.4-3.4 2.4-6.7-2.4-7.4l-18.5-2.6c-4.7-0.7-10.3-4.8-12.4-9.1l-8.3-16.8c-2.2-4.3-5.6-4.3-7.7 0l-8.3 16.8c-2.1 4.3-7.7 8.4-12.5 9.1l-18.5 2.6c-4.7 0.7-5.8 4-2.4 7.4l13.4 13c3.4 3.4 5.6 10 4.8 14.7l-3.2 18.4c-0.8 4.8 2 6.8 6.2 4.6z"/>
					</g>
					<g id="&lt;Group&gt;">
						<path id="&lt;Path&gt;" class="s2" d="m661.9 696.7c4.2-2.3 11.1-2.3 15.4 0l16.5 8.7c4.3 2.2 7.1 0.2 6.3-4.6l-3.2-18.4c-0.8-4.7 1.3-11.3 4.8-14.7l13.4-13c3.4-3.4 2.3-6.7-2.4-7.4l-18.5-2.6c-4.8-0.7-10.4-4.8-12.5-9.1l-8.3-16.8c-2.1-4.3-5.6-4.3-7.7 0l-8.3 16.8c-2.1 4.3-7.7 8.4-12.4 9.1l-18.6 2.6c-4.7 0.7-5.8 4-2.3 7.4l13.4 13c3.4 3.4 5.5 10 4.7 14.7l-3.1 18.4c-0.9 4.8 1.9 6.8 6.2 4.6z"/>
					</g>
					<g id="&lt;Group&gt;">
						<path id="&lt;Path&gt;" class="s2" d="m789.7 696.7c4.3-2.3 11.2-2.3 15.4 0l16.6 8.7c4.2 2.2 7 0.2 6.2-4.6l-3.1-18.4c-0.8-4.7 1.3-11.3 4.7-14.7l13.4-13c3.5-3.4 2.4-6.7-2.4-7.4l-18.5-2.6c-4.7-0.7-10.3-4.8-12.4-9.1l-8.3-16.8c-2.1-4.3-5.6-4.3-7.7 0l-8.3 16.8c-2.1 4.3-7.7 8.4-12.5 9.1l-18.5 2.6c-4.7 0.7-5.8 4-2.4 7.4l13.4 13c3.5 3.4 5.6 10 4.8 14.7l-3.2 18.4c-0.8 4.8 2 6.8 6.3 4.6z"/>
					</g>
					<path id="&lt;Path&gt;" class="s2" d="m907.6 696.6c4.2-2.2 11.2-2.2 15.4 0l16.6 8.7c4.2 2.3 7 0.2 6.2-4.5l-3.1-18.4c-0.9-4.8 1.3-11.3 4.7-14.7l13.4-13.1c3.4-3.3 2.4-6.6-2.4-7.3l-18.5-2.7c-4.7-0.7-10.3-4.7-12.5-9l-8.2-16.8c-2.2-4.3-5.6-4.3-7.7 0l-8.3 16.8c-2.1 4.3-7.8 8.3-12.5 9l-18.5 2.7c-4.7 0.7-5.8 4-2.4 7.3l13.4 13.1c3.4 3.4 5.6 9.9 4.8 14.7l-3.2 18.4c-0.8 4.7 2 6.8 6.2 4.5z"/>
					<text id="4 STARS
" style="transform: matrix(2,0,0,2,334.193,675.678)" >
						<tspan x="-41.9" y="0" class="t4">4 STARS
</tspan>
					</text>
					<path id="&lt;Path&gt;" class="s5" d="m1148.8 662.4c0 51.7-41.9 93.6-93.6 93.6-51.7 0-93.6-41.9-93.6-93.6 0-51.7 41.9-93.6 93.6-93.6 51.7 0 93.6 41.9 93.6 93.6z"/>
					<path id="&lt;Path&gt;" class="s1" d="m1148.8 662.4c0 51.7-41.9 93.6-93.6 93.6-51.7 0-93.6-41.9-93.6-93.6 0-51.7 41.9-93.6 93.6-93.6 51.7 0 93.6 41.9 93.6 93.6z"/>
					<path id="&lt;Path&gt;" class="s6" d="m1043.3 711.7c6.6-3.5 17.3-3.5 23.8 0l25.6 13.4c6.5 3.5 10.8 0.3 9.6-7l-4.9-28.4c-1.2-7.3 2.1-17.5 7.4-22.7l20.6-20.1c5.3-5.2 3.7-10.3-3.6-11.3l-28.6-4.2c-7.3-1-16-7.3-19.2-14l-12.8-25.9c-3.3-6.6-8.6-6.6-11.9 0l-12.8 25.9c-3.3 6.7-11.9 13-19.2 14l-28.6 4.2c-7.3 1-9 6.1-3.7 11.3l20.7 20.1c5.3 5.2 8.6 15.4 7.3 22.7l-4.8 28.4c-1.3 7.3 3 10.5 9.6 7z"/>
				</g>
				<g id="&lt;Group&gt;">
					<g id="&lt;Group&gt;">
						<path id="&lt;Path&gt;" class="s1" d="m478.4 601.1v119h-221.3q-4.4 0.7-9 0.7c-33 0-59.8-26.8-59.8-59.9 0-33.1 26.8-59.8 59.8-59.8z"/>
					</g>
				</g>
			</g>
			<g id="&lt;Group&gt;">
				<g id="&lt;Group&gt;">
					<path id="&lt;Path&gt;" class="s0" d="m986.4 944.7h-129.6v-119h129.6z"/>
					<path id="&lt;Path&gt;" class="s1" d="m986.4 944.7h-129.6v-119h129.6z"/>
					<path id="&lt;Path&gt;" class="s0" d="m856.8 944.7h-123.4v-119h123.4z"/>
					<path id="&lt;Path&gt;" class="s1" d="m856.8 944.7h-123.4v-119h123.4z"/>
					<path id="&lt;Path&gt;" class="s0" d="m733.4 944.7h-124v-119h124z"/>
					<path id="&lt;Path&gt;" class="s1" d="m733.4 944.7h-124v-119h124z"/>
					<path id="&lt;Path&gt;" class="s0" d="m609.4 944.7h-132.1v-119h132.1z"/>
					<path id="&lt;Path&gt;" class="s1" d="m609.4 944.7h-132.1v-119h132.1z"/>
					<path id="&lt;Path&gt;" class="s0" d="m478.4 825.4v119h-221.3q-4.4 0.7-9 0.7c-33 0-59.8-26.8-59.8-59.9 0-33.1 26.8-59.8 59.8-59.8z"/>
					<g id="&lt;Group&gt;">
						<path id="&lt;Path&gt;" class="s2" d="m534.5 921c4.2-2.3 11.2-2.3 15.4 0l16.6 8.7c4.2 2.2 7 0.2 6.2-4.6l-3.1-18.4c-0.9-4.7 1.3-11.3 4.7-14.7l13.4-13c3.4-3.4 2.4-6.7-2.4-7.4l-18.5-2.6c-4.7-0.7-10.3-4.8-12.4-9.1l-8.3-16.8c-2.2-4.3-5.6-4.3-7.7 0l-8.3 16.8c-2.1 4.3-7.7 8.4-12.5 9.1l-18.5 2.6c-4.7 0.7-5.8 4-2.4 7.4l13.4 13c3.4 3.4 5.6 10 4.8 14.7l-3.2 18.4c-0.8 4.8 2 6.8 6.2 4.6z"/>
					</g>
					<g id="&lt;Group&gt;">
						<path id="&lt;Path&gt;" class="s2" d="m661.9 921c4.2-2.3 11.1-2.3 15.4 0l16.5 8.7c4.3 2.2 7.1 0.2 6.3-4.6l-3.2-18.4c-0.8-4.7 1.3-11.3 4.8-14.7l13.4-13c3.4-3.4 2.3-6.7-2.4-7.4l-18.5-2.6c-4.8-0.7-10.4-4.8-12.5-9.1l-8.3-16.8c-2.1-4.3-5.6-4.3-7.7 0l-8.3 16.8c-2.1 4.3-7.7 8.4-12.4 9.1l-18.6 2.6c-4.7 0.7-5.8 4-2.3 7.4l13.4 13c3.4 3.4 5.5 10 4.7 14.7l-3.1 18.4c-0.9 4.8 1.9 6.8 6.2 4.6z"/>
					</g>
					<g id="&lt;Group&gt;">
						<path id="&lt;Path&gt;" class="s2" d="m789.7 921c4.3-2.3 11.2-2.3 15.4 0l16.6 8.7c4.2 2.2 7 0.2 6.2-4.6l-3.1-18.4c-0.8-4.7 1.3-11.3 4.7-14.7l13.4-13c3.5-3.4 2.4-6.7-2.4-7.4l-18.5-2.6c-4.7-0.7-10.3-4.8-12.4-9.1l-8.3-16.8c-2.1-4.3-5.6-4.3-7.7 0l-8.3 16.8c-2.1 4.3-7.7 8.4-12.5 9.1l-18.5 2.6c-4.7 0.7-5.8 4-2.4 7.4l13.4 13c3.5 3.4 5.6 10 4.8 14.7l-3.2 18.4c-0.8 4.8 2 6.8 6.3 4.6z"/>
					</g>
					<path id="&lt;Path&gt;" class="s2" d="m907.6 920.9c4.2-2.2 11.2-2.2 15.4 0l16.6 8.7c4.2 2.3 7 0.2 6.2-4.5l-3.1-18.4c-0.9-4.8 1.3-11.3 4.7-14.7l13.4-13.1c3.4-3.3 2.4-6.6-2.4-7.3l-18.5-2.7c-4.7-0.7-10.3-4.7-12.5-9l-8.2-16.8c-2.2-4.3-5.6-4.3-7.7 0l-8.3 16.8c-2.1 4.3-7.8 8.3-12.5 9l-18.5 2.7c-4.7 0.7-5.8 4-2.4 7.3l13.4 13.1c3.4 3.4 5.6 9.9 4.8 14.7l-3.2 18.4c-0.8 4.7 2 6.8 6.2 4.5z"/>
					<text id="5 STARS
" style="transform: matrix(2,0,0,2,334.193,899.98)" >
						<tspan x="-41.8" y="0" class="t4">5 STARS
</tspan>
					</text>
					<path id="&lt;Path&gt;" class="s5" d="m1148.8 886.7c0 51.7-41.9 93.6-93.6 93.6-51.7 0-93.6-41.9-93.6-93.6 0-51.7 41.9-93.6 93.6-93.6 51.7 0 93.6 41.9 93.6 93.6z"/>
					<path id="&lt;Path&gt;" class="s1" d="m1148.8 886.7c0 51.7-41.9 93.6-93.6 93.6-51.7 0-93.6-41.9-93.6-93.6 0-51.7 41.9-93.6 93.6-93.6 51.7 0 93.6 41.9 93.6 93.6z"/>
					<path id="&lt;Path&gt;" class="s7" d="m1043.3 936c6.6-3.5 17.3-3.5 23.8 0l25.6 13.4c6.5 3.5 10.8 0.3 9.6-7l-4.9-28.4c-1.2-7.3 2.1-17.5 7.4-22.7l20.6-20.1c5.3-5.2 3.7-10.3-3.6-11.3l-28.6-4.2c-7.3-1-16-7.3-19.2-13.9l-12.8-25.9c-3.3-6.7-8.6-6.7-11.9 0l-12.8 25.9c-3.3 6.6-11.9 12.9-19.2 13.9l-28.6 4.2c-7.3 1-9 6.1-3.7 11.3l20.7 20.1c5.3 5.2 8.6 15.4 7.3 22.7l-4.8 28.4c-1.3 7.3 3 10.5 9.6 7z"/>
				</g>
				<g id="&lt;Group&gt;">
					<g id="&lt;Group&gt;">
						<path id="&lt;Path&gt;" class="s1" d="m478.4 825.4v119h-221.3q-4.4 0.7-9 0.7c-33 0-59.8-26.8-59.8-59.9 0-33.1 26.8-59.8 59.8-59.8z"/>
					</g>
				</g>
			</g>
		</g>
	</g>
</svg>