<svg version="1.2" xmlns="http://www.w3.org/2000/svg" viewBox="0 0 1200 1200" width="1200" height="1200">
	<title>Search-ai</title>
	<style>
		.s0 { fill: #fc613f } 
		.s1 { fill: none;stroke: #000000;stroke-linecap: round;stroke-linejoin: round;stroke-width: 5.2 } 
		.s2 { fill: #ffe8ad } 
		.s3 { fill: #d43b20 } 
	</style>
	<g id="Layer 1">
		<g id="&lt;Group&gt;">
			<path id="&lt;Path&gt;" class="s0" d="m787.2 549.4c0 41.1-10.6 79.8-29.2 113.6-21.5 39.2-54 71.7-93.3 93.4-33.7 18.5-72.4 29.1-113.6 29.1-130.4 0-236.1-105.7-236.1-236.1 0-130.4 105.7-236.1 236.1-236.1 130.4 0 236.1 105.7 236.1 236.1z"/>
			<path id="&lt;Path&gt;" class="s1" d="m787.2 549.4c0 41.1-10.6 79.8-29.2 113.6-21.5 39.2-54 71.7-93.3 93.4-33.7 18.5-72.4 29.1-113.6 29.1-130.4 0-236.1-105.7-236.1-236.1 0-130.4 105.7-236.1 236.1-236.1 130.4 0 236.1 105.7 236.1 236.1z"/>
			<path id="&lt;Path&gt;" class="s2" d="m736.2 549.4c0 102.2-82.9 185-185.1 185-102.2 0-185.1-82.8-185.1-185 0-102.2 82.9-185.1 185.1-185.1 102.2 0 185.1 82.9 185.1 185.1z"/>
			<path id="&lt;Path&gt;" class="s1" d="m736.2 549.4c0 102.2-82.9 185-185.1 185-102.2 0-185.1-82.8-185.1-185 0-102.2 82.9-185.1 185.1-185.1 102.2 0 185.1 82.9 185.1 185.1z"/>
			<path id="&lt;Path&gt;" class="s1" d="m397.1 549.4c0-85.1 69-154 154-154 30.1 0 58.1 8.6 81.8 23.6"/>
			<path id="&lt;Path&gt;" class="s1" d="m551.1 703.3c-67.3 0-124.5-43.1-145.5-103.3"/>
			<path id="&lt;Path&gt;" class="s1" d="m696.7 499.2c5.4 15.7 8.3 32.6 8.3 50.2 0 62.7-37.5 116.7-91.3 140.7"/>
			<path id="&lt;Path&gt;" class="s3" d="m914.5 912.8c-25.8 25.8-67.6 25.8-93.4 0l93.4-93.4c25.8 25.8 25.8 67.6 0 93.4z"/>
			<path id="&lt;Path&gt;" class="s1" d="m914.5 912.8c-25.8 25.8-67.6 25.8-93.4 0l93.4-93.4c25.8 25.8 25.8 67.6 0 93.4z"/>
			<path id="&lt;Path&gt;" class="s0" d="m914.5 819.4l-93.4 93.4-156.4-156.4c39.3-21.7 71.8-54.2 93.3-93.4z"/>
			<path id="&lt;Path&gt;" class="s1" d="m914.5 819.4l-93.4 93.4-156.4-156.4c39.3-21.7 71.8-54.2 93.3-93.4z"/>
		</g>
	</g>
</svg>