<svg version="1.2" xmlns="http://www.w3.org/2000/svg" viewBox="0 0 1200 1200" width="1200" height="1200">
	<title>Text summerization-ai</title>
	<style>
		.s0 { fill: #bbebf1 } 
		.s1 { fill: none;stroke: #000000;stroke-linecap: round;stroke-linejoin: round;stroke-width: 5.2 } 
		.s2 { fill: #03bbd7 } 
		.s3 { fill: #fc613f } 
		.s4 { fill: #ffe8ad } 
		.s5 { fill: #d43b20 } 
	</style>
	<g id="Layer 1">
		<g id="&lt;Group&gt;">
			<path id="&lt;Path&gt;" class="s0" d="m683.1 409.2v478h-435.1v-613.7h305.9z"/>
			<path id="&lt;Path&gt;" class="s1" d="m683.1 409.2v478h-435.1v-613.7h305.9v135.7z"/>
			<path id="&lt;Path&gt;" class="s2" d="m683.1 409.2h-129.2v-135.7z"/>
			<path id="&lt;Path&gt;" class="s1" d="m683.1 409.2h-129.2v-135.7z"/>
			<path id="&lt;Path&gt;" class="s1" d="m311 444.6h300.2"/>
			<path id="&lt;Path&gt;" class="s1" d="m311 529.9h300.2"/>
			<path id="&lt;Path&gt;" class="s1" d="m311 615.2h300.2"/>
			<path id="&lt;Path&gt;" class="s1" d="m311 700.5h300.2"/>
			<path id="&lt;Path&gt;" class="s1" d="m311 785.8h300.2"/>
		</g>
		<g id="&lt;Group&gt;">
			<path id="&lt;Path&gt;" class="s3" d="m847.5 768.4c0 33.7-8.6 65.3-23.8 92.9-17.7 32.2-44.2 58.7-76.3 76.4-27.6 15.2-59.3 23.8-93 23.8-106.6 0-193.1-86.4-193.1-193.1 0-106.6 86.5-193.1 193.1-193.1 106.7 0 193.1 86.5 193.1 193.1z"/>
			<path id="&lt;Path&gt;" class="s1" d="m847.5 768.4c0 33.7-8.6 65.3-23.8 92.9-17.7 32.2-44.2 58.7-76.3 76.4-27.6 15.2-59.3 23.8-93 23.8-106.6 0-193.1-86.4-193.1-193.1 0-106.6 86.5-193.1 193.1-193.1 106.7 0 193.1 86.5 193.1 193.1z"/>
			<path id="&lt;Path&gt;" class="s4" d="m805.8 768.4c0 83.6-67.8 151.4-151.4 151.4-83.6 0-151.3-67.8-151.3-151.4 0-83.6 67.7-151.3 151.3-151.3 83.6 0 151.4 67.7 151.4 151.3z"/>
			<path id="&lt;Path&gt;" class="s1" d="m805.8 768.4c0 83.6-67.8 151.4-151.4 151.4-83.6 0-151.3-67.8-151.3-151.4 0-83.6 67.7-151.3 151.3-151.3 83.6 0 151.4 67.7 151.4 151.3z"/>
			<path id="&lt;Path&gt;" class="s1" d="m528.5 768.4c0-69.5 56.4-125.9 125.9-125.9 24.6 0 47.6 7.1 67 19.3"/>
			<path id="&lt;Path&gt;" class="s1" d="m654.4 894.3c-55 0-101.8-35.3-118.9-84.5"/>
			<path id="&lt;Path&gt;" class="s1" d="m773.5 727.4c4.4 12.9 6.8 26.7 6.8 41 0 51.3-30.7 95.5-74.7 115.1"/>
			<path id="&lt;Path&gt;" class="s5" d="m951.7 1065.6h-0.1c-21 21.1-55.3 21.1-76.3 0l76.3-76.3c21.1 21 21.1 55.3 0.1 76.3z"/>
			<path id="&lt;Path&gt;" class="s1" d="m951.7 1065.6h-0.1c-21 21.1-55.3 21.1-76.3 0l76.3-76.3c21.1 21 21.1 55.3 0.1 76.3z"/>
			<path id="&lt;Path&gt;" class="s3" d="m951.6 989.3l-76.3 76.3-127.9-127.9c32.1-17.7 58.6-44.2 76.3-76.4z"/>
			<path id="&lt;Path&gt;" class="s1" d="m951.6 989.3l-76.3 76.3-127.9-127.9c32.1-17.7 58.6-44.2 76.3-76.4z"/>
		</g>
	</g>
</svg>