<svg version="1.2" xmlns="http://www.w3.org/2000/svg" viewBox="0 0 1200 1200" width="1200" height="1200">
	<title>Text generation-ai</title>
	<style>
		.s0 { fill: #ffe8ad } 
		.s1 { fill: none;stroke: #000000;stroke-linecap: round;stroke-linejoin: round;stroke-width: 5.2 } 
		.s2 { fill: #fc613f } 
		.s3 { fill: #ffffff } 
		.s4 { fill: #bbebf1 } 
		.s5 { fill: #03bbd7 } 
	</style>
	<g id="Layer 1">
		<g id="&lt;Group&gt;">
			<g id="&lt;Group&gt;">
				<g id="&lt;Group&gt;">
					<path id="&lt;Path&gt;" class="s0" d="m618.5 321v381.2h-346.9v-489.4h243.9z"/>
					<path id="&lt;Path&gt;" class="s1" d="m618.5 321v381.2h-346.9v-489.4h243.9v108.2z"/>
					<path id="&lt;Path&gt;" class="s2" d="m618.5 321h-103v-108.2z"/>
					<path id="&lt;Path&gt;" class="s1" d="m618.5 321h-103v-108.2z"/>
				</g>
				<path id="&lt;Path&gt;" class="s2" d="m588.9 553l-80.6-138c-6.3-10.9-21.6-12.3-29.8-2.6l-51.4 60.4c-7.5 8.8-21.3 8.5-28.5-0.7l-5.7-7.5c-8.4-10.8-25.4-8.9-31.2 3.5l-40.1 86.5c-5.6 12.1 3.3 26 16.7 26h234.7c14.2 0 23-15.3 15.9-27.6z"/>
				<path id="&lt;Path&gt;" class="s3" d="m421.4 378.1c0 24.1-19.5 43.6-43.6 43.6-24.1 0-43.7-19.5-43.7-43.6 0-24.1 19.6-43.7 43.7-43.7 24.1 0 43.6 19.6 43.6 43.7z"/>
			</g>
			<g id="&lt;Group&gt;">
				<path id="&lt;Path&gt;" class="s4" d="m928.4 606v381.2h-346.9v-489.4h243.9z"/>
				<path id="&lt;Path&gt;" class="s1" d="m928.4 606v381.2h-346.9v-489.4h243.9v108.2z"/>
				<path id="&lt;Path&gt;" class="s5" d="m928.4 606h-103v-108.2z"/>
				<path id="&lt;Path&gt;" class="s1" d="m928.4 606h-103v-108.2z"/>
				<path id="&lt;Path&gt;" class="s1" d="m631.7 634.2h239.4"/>
				<path id="&lt;Path&gt;" class="s1" d="m631.7 702.2h239.4"/>
				<path id="&lt;Path&gt;" class="s1" d="m631.7 770.3h239.4"/>
				<path id="&lt;Path&gt;" class="s1" d="m631.7 838.3h239.4"/>
				<path id="&lt;Path&gt;" class="s1" d="m631.7 906.3h239.4"/>
			</g>
		</g>
	</g>
</svg>