<?xml version="1.0" standalone="yes"?>
<svg xmlns="http://www.w3.org/2000/svg" width="834" height="834">
<style>
.s1 {
  width: 100px;
  height: 100px;
  background-color: #3498db;
  border-radius: 50%;
  position: relative;
  animation: rotate-90-cw 4s cubic-bezier(0.250, 0.460, 0.450, 0.940) both infinite;
  transform-origin: center center;
            transform-box: fill-box;
}

@keyframes rotate-90-cw {
  0% {
    transform: rotate(0);
  }
  100% {
    transform: rotate(360deg); /* Rotate 360 degrees for a full circle */
  }
}
.s2 {
	-webkit-animation: fade-in 1.2s infinite cubic-bezier(0.390, 0.575, 0.565, 1.000) both;
	        animation: fade-in 1.2s infinite cubic-bezier(0.390, 0.575, 0.565, 1.000) both;
}

@-webkit-keyframes fade-in {
  0% {
    opacity: 0;
  }
  100% {
    opacity: 1;
  }
}
@keyframes fade-in {
  0% {
    opacity: 0;
  }
  100% {
    opacity: 1;
  }
}

</style>
<path style="fill:#fffefc; stroke:none;" d="M0 0L0 834L834 834L834 0L0 0z"/>
<path style="fill:#fad444; stroke:none;" d="M366 172L367 173L366 172z"/>
<path style="fill:#fad444; stroke:none;" d="M385 172L386 173L385 172z"/>
<path style="fill:#727271; stroke:none;" d="M364 173L365 174L364 173z"/>
<path style="fill:#050403; stroke:none;" class="s1" d="M429 281C431.232 277.079 432.585 269.564 436.418 267.028C441.9 263.401 451.01 268.366 452.772 258.985C453.895 253.001 455.05 238.692 448.891 235.318C443.072 232.13 436.745 236.237 433.244 228.981C431.886 226.167 429.696 222.135 430.992 219C433.506 212.919 440.63 209.643 436.821 202C433.585 195.506 424.006 185.728 416 188.743C411.762 190.339 408.751 196.475 403.83 195.412C389.444 192.304 396.613 184.638 390.258 176.228C386.52 171.283 368.082 170.981 363.394 174.742C357.811 179.221 362.673 187.855 356.852 191.775C345.094 199.695 343.597 188.67 333 188.153C327.468 187.883 323.553 192.368 320.015 196.001C317.992 198.079 315.787 200.228 314.743 203C311.36 211.98 323.494 215.783 320.927 224C317.012 236.53 310.364 230.088 302.228 236.009C297.125 239.723 297.834 254.49 299.653 259.957C302.222 267.677 309.24 264.148 314.775 266.603C318.162 268.106 321.064 275.325 321.438 278.83C322.005 284.144 314.375 287.216 314.164 293C314.016 297.029 316.511 300.183 319.094 302.999C322.85 307.094 327.836 312.639 334 311.753C343.839 310.338 344.868 301.151 355.941 307.532C363.668 311.985 356.496 324.115 367.015 326.606C373.058 328.036 386.983 328.946 390.543 322.811C393.909 317.011 389.85 310.838 397.019 307.194C408.624 301.294 410.494 313.341 421 311.756C436.307 309.447 443.415 289.125 429 281z"/>
<path style="fill:#727271; stroke:none;" d="M387 173L388 174L387 173z"/>
<path style="fill:#fad444; stroke:none;" d="M389 174L390 175L389 174z"/>
<path style="fill:#727271; stroke:none;" d="M361 176L362 177L361 176z"/>
<path style="fill:#fad444; stroke:none;" d="M360 177L361 178L360 177z"/>
<path style="fill:#727271; stroke:none;" d="M391 177L392 178L391 177M360 178L361 179L360 178z"/>
<path style="fill:#fad444; stroke:none;" d="M367 178L368 179L367 178z"/>
<g id="rotate">
<path style="fill:#fffefc; stroke:none;" class="s1" d="M305 240C304.126 244.708 301.95 254.523 305.742 258.397C308.731 261.45 314.267 259.224 317.945 260.742C322.68 262.697 327.008 274.167 327.806 279C328.824 285.174 320.781 287.421 320.176 293C319.703 297.363 326.51 303.382 330 305.149C335.748 308.059 339.304 300.124 344 298.364C348.285 296.758 354.126 300.574 357.999 302.204C368.164 306.485 362.287 312.678 367.028 319.566C370.288 324.302 381.323 321.868 386 321C386 309.704 392.145 295.418 407 298.121C414.7 299.522 416.655 310.221 424.999 302.887C437.554 291.852 425.997 292.245 424.133 281C423.449 276.877 428.165 267.659 430.278 264.059C434.183 257.403 444.355 263.376 447.258 257.682C448.939 254.385 449.372 242.535 445.566 240.603C441.483 238.531 436.378 241.174 432.39 238.142C428.773 235.391 427.017 229.101 425.454 225C421.912 215.709 435.741 210.192 430.663 203C429.633 201.542 428.263 200.252 426.995 199.005C417.02 189.189 417.067 199.396 407.285 201.781C402.896 202.851 395.815 198.606 392.019 196.676C383.508 192.35 389.882 183.524 384.397 179.179C381.501 176.885 372.504 177.347 369.148 178.434C363.776 180.174 367.011 188.731 364.682 192.787C362.042 197.385 353.794 199.863 349 201.34C340.037 204.101 336.431 189.486 328 196.233C326.595 197.357 325.263 198.681 324.045 200.004C315.494 209.289 326.279 210.206 327.879 219C330.582 233.855 316.296 240 305 240z"/>
</g>
<path style="fill:#050403; stroke:none;" class="s1" d="M371 209.428C319.337 216.843 328.402 297.88 380 290.572C388.099 289.425 395.6 286.974 401.999 281.671C432.504 256.392 411.155 203.665 371 209.428z"/>
<path style="fill:#fad444; stroke:none;" class="s1" d="M372 213L372 214L375 214L372 213z"/>
<path style="fill:#fffefc; stroke:none;" d="M375 213.595C343.141 214.898 326.791 256.311 352.015 277.671C360.149 284.559 369.646 286.431 380 285.961C425.433 283.895 420.36 211.74 375 213.595z"/>
<path style="fill:#fad444; stroke:none;" d="M377 213L377 214L380 214L377 213z"/>
<path style="fill:#727271; stroke:none;" d="M380 213L380 214L383 214L380 213z"/>
<path style="fill:#fad444; stroke:none;" d="M395 213L396 214L395 213z"/>
<path style="fill:#727271; stroke:none;" d="M427 213L428 214L427 213M435 213L436 214L435 213M317 214L318 215L317 214M325 214L326 215L325 214M355 214L356 215L355 214M365.667 214.333L366.333 214.667L365.667 214.333z"/>
<path style="fill:#fad444; stroke:none;" d="M367 214L368 215L367 214z"/>
<path style="fill:#727271; stroke:none;" d="M385.667 214.333L386.333 214.667L385.667 214.333M396 214L397 215L396 214z"/>
<path style="fill:#fad444; stroke:none;" d="M397 214L398 215L397 214z"/>
<path style="fill:#727271; stroke:none;" d="M426 214L427 215L426 214M434 214L435 215L434 214M318 215L319 216L318 215M326 215L327 216L326 215M353 215L354 216L353 215M362.667 215.333L363.333 215.667L362.667 215.333z"/>
<path style="fill:#fad444; stroke:none;" d="M388 215L389 216L388 215z"/>
<path style="fill:#727271; stroke:none;" d="M389 215L390 216L389 215M398 215L399 216L398 215M425 215L426 216L425 215M433 215L434 216L433 215M319 216L320 217L319 216M327 216L328 217L327 216M352 216L353 217L352 216M360 216L361 217L360 216M391 216L392 217L391 216z"/>
<path style="fill:#fad444; stroke:none;" d="M400 216L401 217L400 216z"/>
<path style="fill:#727271; stroke:none;" d="M424 216L425 217L424 216M432 216L433 217L432 216M320 217L321 218L320 217z"/>
<path style="fill:#fad444; stroke:none;" d="M350 217L351 218L350 217z"/>
<path style="fill:#727271; stroke:none;" d="M358 217L359 218L358 217M393 217L394 218L393 217M401 217L402 218L401 217M431 217L432 218L431 217M321 218L322 219L321 218M328.333 218.667L328.667 219.333L328.333 218.667M349 218L350 219L349 218z"/>
<path style="fill:#fad444; stroke:none;" d="M357 218L358 219L357 218z"/>
<path style="fill:#727271; stroke:none;" d="M395 218L396 219L395 218M402 218L403 219L402 218z"/>
<path style="fill:#fad444; stroke:none;" d="M423 218L424 219L423 218z"/>
<path style="fill:#727271; stroke:none;" d="M430 218L431 219L430 218M322.333 219.667L322.667 220.333L322.333 219.667M348 219L349 220L348 219M355 219L356 220L355 219M396 219L397 220L396 219M403 219L404 220L403 219M423 219L424 220L423 219M429.333 219.667L429.667 220.333L429.333 219.667z"/>
<path style="fill:#fad444; stroke:none;" d="M328 220L329 221L328 220z"/>
<path style="fill:#727271; stroke:none;" d="M347 220L348 221L347 220z"/>
<path style="fill:#fad444; stroke:none;" d="M354 220L355 221L354 220z"/>
<path style="fill:#727271; stroke:none;" d="M346 221L347 222L346 221M352 221L353 222L352 221M399 221L400 222L399 221M321 222L322 223L321 222M327 222L328 223L327 222M345 222L346 223L345 222M351 222L352 223L351 222M400 222L401 223L400 222M406 222L407 223L406 222M424 222L425 223L424 222M430 222L431 223L430 222M344 223L345 224L344 223M350 223L351 224L350 223M401 223L402 224L401 223M407 223L408 224L407 223M320.333 224.667L320.667 225.333L320.333 224.667M326 224L327 225L326 224z"/>
<path style="fill:#fad444; stroke:none;" d="M343 224L344 225L343 224z"/>
<path style="fill:#727271; stroke:none;" d="M349 224L350 225L349 224M402 224L403 225L402 224M408 224L409 225L408 224M425 224L426 225L425 224M431 224L432 225L431 224z"/>
<path style="fill:#fad444; stroke:none;" d="M326 225L327 226L326 225z"/>
<path style="fill:#727271; stroke:none;" d="M348 225L349 226L348 225M403 225L404 226L403 225z"/>
<path style="fill:#fad444; stroke:none;" d="M409 225L410 226L409 225M425 225L426 226L425 225z"/>
<path style="fill:#727271; stroke:none;" d="M342 226L343 227L342 226M347 226L348 227L347 226M404 226L405 227L404 226M426.333 226.667L426.667 227.333L426.333 226.667z"/>
<path style="fill:#fad444; stroke:none;" d="M432 226L433 227L432 226z"/>
<path style="fill:#727271; stroke:none;" d="M319 227L320 228L319 227M325 227L326 228L325 227M341 227L342 228L341 227M410 227L411 228L410 227M432 227L433 228L432 227z"/>
<path style="fill:#fad444; stroke:none;" d="M346 228L347 229L346 228M411 228L412 229L411 228M573 228L574 229L573 228z"/>
<path style="fill:#727271; stroke:none;" d="M574 228L574 229L577 229L574 228z"/>
<path style="fill:#050403; stroke:none;" d="M232 656L137 656C129.667 656 122.333 655.95 115 656.001C113.102 656.014 108.45 655.508 107.921 658.17C107.23 661.647 114.202 660.996 116 661L143 661C182.363 661 221.702 662 261 662L504 662C548.819 662 594.323 664.149 639 661.089C667.385 659.146 696.543 661 725 661C736.541 661 750.92 663.275 762 660C758.983 652.496 739.082 656 732 656L637 656L637 525L637 489C637 484.716 635.77 478.039 638.028 474.213C646.169 460.419 657.798 479.942 665 483.543C674.318 488.202 682.481 482.192 689 475.961C697.429 467.904 710.732 456.755 702.995 444C699.838 438.797 688.666 432.64 689.67 426C690.413 421.081 697.742 401.595 702.225 399.603C712.019 395.253 725.588 403.687 731.95 390.96C736.895 381.066 737.529 350.308 725.985 344.97C718.818 341.656 706.201 346.355 700.499 341.397C695.628 337.16 691.844 324.141 689.924 318C685.958 305.32 712.198 299.357 703.839 283C698.061 271.692 680.197 252.262 666 258.009C657.97 261.26 652.625 275.299 643 271.696C636.75 269.356 625.039 266.625 620.603 261.502C615.516 255.626 620.682 243.275 617.08 236.04C611.363 224.553 578.675 224.484 569.185 231.147C559.101 238.228 566.201 250.674 562.397 259.892C560.043 265.596 542.818 271.256 537 272.528C529.473 274.173 523.198 261.556 517 258.457C503.018 251.466 486.588 270.897 479.653 281C468.393 297.402 491.573 302.248 492.762 315C493.292 320.68 484.591 341.178 478.956 342.682C470.76 344.87 461.768 340.758 454.185 346.144C448.544 350.151 451.104 360.99 444.941 362.682C430.466 366.657 410.042 363 395 363L287 363L248 363C244.524 363 236.468 361.522 234.028 364.603C230.816 368.659 233.107 380.016 232.985 385C232.529 403.644 232 422.289 232 441L232 656z"/>
<path style="fill:#727271; stroke:none;" d="M605 228L605 229L608 229L605 228z"/>
<path style="fill:#fad444; stroke:none;" d="M608 228L609 229L608 228z"/>
<path style="fill:#727271; stroke:none;" d="M318 229L319 230L318 229M324 229L325 230L324 229M340 229L341 230L340 229M345 229L346 230L345 229M406 229L407 230L406 229M411 229L412 230L411 229M427 229L428 230L427 229M433 229L434 230L433 229M571 229L572 230L571 229M610 229L611 230L610 229z"/>
<path style="fill:#fad444; stroke:none;" d="M324 230L325 231L324 230M373 230L373 231L379 231L373 230z"/>
<path style="fill:#727271; stroke:none;" d="M407 230L408 231L407 230z"/>
<path style="fill:#fad444; stroke:none;" d="M412 230L413 231L412 230z"/>
<path style="fill:#727271; stroke:none;" d="M569 230L570 231L569 230M612 230L613 231L612 230z"/>
<path style="fill:#fad444; stroke:none;" d="M317 231L318 232L317 231z"/>
<path style="fill:#727271; stroke:none;" d="M339 231L340 232L339 231z"/>
<path style="fill:#fad444; stroke:none;" d="M344 231L345 232L344 231M369 231L370 232L369 231z"/>
<path style="fill:#727271; stroke:none;" d="M370.667 231.333L371.333 231.667L370.667 231.333z"/>
<path style="fill:#050403; stroke:none;" class="s1" d="M372 231.468C348.645 235.979 355.601 272.667 379 268.671C403.974 264.406 396.951 226.65 372 231.468z"/>
<path style="fill:#727271; stroke:none;" d="M566 233L567 234L566 233M577 233L577 234L606 234L577 233z"/>
<path style="fill:#fad444; stroke:none;" d="M303 234L304 235L303 234z"/>
<path style="fill:#727271; stroke:none;" d="M304 234L305 235L304 234M322 234L323 235L322 234M342 234L343 235L342 234M364 234L365 235L364 234M387 234L388 235L387 234M409 234L410 235L409 234z"/>
<path style="fill:#fad444; stroke:none;" d="M414 234L415 235L414 234z"/>
<path style="fill:#727271; stroke:none;" d="M429 234L430 235L429 234M447.667 234.333L448.333 234.667L447.667 234.333M565 234L566 235L565 234M573.667 234.333L574.333 234.667L573.667 234.333z"/>
<path style="fill:#fffefc; stroke:none;" d="M454 362L493 362C497.664 362 505.422 363.48 509.683 361.397C514 359.286 515.813 343.634 517.862 339C524.093 324.906 534.199 312.942 547 304.359C602.16 267.372 679.328 314.686 670.711 381C668.835 395.435 662.508 409.65 653.485 421C649.36 426.188 640.981 430.872 638.603 437.039C635.583 444.873 638 457.63 638 466C642.009 464.644 646.843 461.608 651 463.836C658.358 467.779 665.808 483.775 676 478.817C683.607 475.117 703.493 457.446 698.82 448C695.382 441.051 684.564 436.776 683.083 429C682.42 425.524 685.281 421.967 686.681 419C689.962 412.042 691.425 403.628 695.278 397.059C701.695 386.116 724.07 400.917 727.606 385.985C729.478 378.078 731.308 352.764 721.957 349.653C714.644 347.22 703.724 352.138 697.34 347.258C690.69 342.174 685.94 324.893 683.508 317C679.853 305.134 701.146 300.848 699.728 289C698.787 281.138 682.876 266.528 676 263.183C665.176 257.918 658.496 275.498 650 278.381C643.218 280.682 632.186 273.284 626 270.8C622.252 269.295 617.305 268.013 614.742 264.66C609.256 257.482 616.296 245.785 611.682 238.214C607.483 231.323 581.869 232.039 575.015 234.742C561.535 240.059 575.879 260.775 563.956 267.468C557.747 270.953 539.973 280.654 533 279.045C525.203 277.245 521.12 266.746 514 263.319C504.26 258.629 488.261 277.538 483.859 285C477.148 296.375 495.194 303.309 498.717 312C501.242 318.23 493.139 330.172 490.8 336C489.065 340.326 487.72 346.32 482.956 348.258C471.354 352.977 454.176 342.533 454 362z"/>
<path style="fill:#fad444; stroke:none;" d="M607 234L608 235L607 234z"/>
<path style="fill:#727271; stroke:none;" d="M608 234L609 235L608 234M616 234L617 235L616 234M302 235L303 236L302 235z"/>
<path style="fill:#fad444; stroke:none;" d="M322 235L323 236L322 235z"/>
<path style="fill:#727271; stroke:none;" d="M337 235L338 236L337 235z"/>
<path style="fill:#fad444; stroke:none;" d="M342 235L343 236L342 235z"/>
<path style="fill:#727271; stroke:none;" d="M363 235L364 236L363 235M414 235L415 236L414 235z"/>
<path style="fill:#fad444; stroke:none;" d="M450 235L451 236L450 235M572 235L573 236L572 235M609 235L610 236L609 235z"/>
<path style="fill:#727271; stroke:none;" d="M321 236L322 237L321 236M410 236L411 237L410 236M430 236L431 237L430 236z"/>
<path style="fill:#fad444; stroke:none;" d="M451 236L452 237L451 236z"/>
<path style="fill:#727271; stroke:none;" d="M564 236L565 237L564 236z"/>
<path style="fill:#fad444; stroke:none;" d="M571 236L572 237L571 236z"/>
<path style="fill:#727271; stroke:none;" d="M617 236L618 237L617 236M341 237L342 238L341 237M361 237L362 238L361 237z"/>
<path style="fill:#fad444; stroke:none;" d="M410 237L411 238L410 237M415 237L416 238L415 237M570 237L571 238L570 237M611 237L612 238L611 237z"/>
<path style="fill:#727271; stroke:none;" d="M299 238L300 239L299 238M319 238L320 239L319 238z"/>
<path style="fill:#fad444; stroke:none;" d="M320 238L321 239L320 238z"/>
<path style="fill:#727271; stroke:none;" d="M336.333 238.667L336.667 239.333L336.333 238.667M360 238L361 239L360 238M391 238L392 239L391 238M415 238L416 239L415 238z"/>
<path style="fill:#fad444; stroke:none;" d="M431 238L432 239L431 238z"/>
<path style="fill:#727271; stroke:none;" d="M432 238L433 239L432 238M452 238L453 239L452 238z"/>
<path style="fill:#fad444; stroke:none;" d="M563 238L564 239L563 238z"/>
<path style="fill:#727271; stroke:none;" d="M569.333 238.667L569.667 239.333L569.333 238.667M612 238L613 239L612 238M618.333 238.667L618.667 239.333L618.333 238.667M306 239L307 240L306 239z"/>
<path style="fill:#727271; stroke:none;" d="M562 296L563 297L562 296M578 296L578 297L581 297L578 296z"/>
<path style="fill:#fad444; stroke:none;" d="M581.667 296.333L582.333 296.667L581.667 296.333z"/>
<path style="fill:#fffefc; stroke:none;" d="M517 362C526.849 362 545.752 365.702 554.582 361.397C560.428 358.546 563.886 346.408 570.001 341.927C590.443 326.95 619.098 338.039 626 362C629.746 362.011 634.56 361.531 636.821 365.228C639.666 369.881 638 378.734 638 384L638 429C672.132 407.591 673.825 352.981 649.674 324C627.431 297.308 591.807 289.216 560 302.616C548.55 307.439 538.358 316.15 530.9 326C523.272 336.075 517.548 349.279 517 362z"/>
<path style="fill:#fad444; stroke:none;" d="M599.667 296.333L600.333 296.667L599.667 296.333z"/>
<path style="fill:#727271; stroke:none;" d="M601 296L601 297L604 297L601 296M619 296L620 297L619 296z"/>
<path style="fill:#fad444; stroke:none;" d="M620 296L621 297L620 296z"/>
<path style="fill:#727271; stroke:none;" d="M697 296L698 297L697 296z"/>
<path style="fill:#fad444; stroke:none;" d="M704 296L705 297L704 296z"/>
<path style="fill:#727271; stroke:none;" d="M314 297L315 298L314 297M344.667 297.333L345.333 297.667L344.667 297.333z"/>
<path style="fill:#fad444; stroke:none;" d="M346 297L347 298L346 297z"/>
<path style="fill:#fad444; stroke:none;" d="M575 297L576 298L575 297M606 297L607 298L606 297z"/>
<path style="fill:#727271; stroke:none;" d="M607.667 297.333L608.333 297.667L607.667 297.333M622 297L623 298L622 297M696 297L697 298L696 297M703 297L704 298L703 297M315 298L316 299L315 298M342 298L343 299L342 298M348 298L349 299L348 298z"/>
<path style="fill:#fad444; stroke:none;" d="M349 298L350 299L349 298z"/>
<path style="fill:#727271; stroke:none;" d="M403 298L404 299L403 298M409 298L410 299L409 298M429 298L430 299L429 298M479 298L480 299L479 298M486 298L487 299L486 298M557 298L558 299L557 298M570 298L571 299L570 298z"/>
<path style="fill:#fad444; stroke:none;" d="M571 298L572 299L571 298M610 298L611 299L610 298z"/>
<path style="fill:#727271; stroke:none;" d="M611 298L612 299L611 298M624 298L625 299L624 298M695 298L696 299L695 298M341 299L342 300L341 299M351 299L352 300L351 299z"/>
<path style="fill:#fad444; stroke:none;" d="M400 299L401 300L400 299z"/>
<path style="fill:#727271; stroke:none;" d="M401 299L402 300L401 299M410 299L411 300L410 299M428 299L429 300L428 299z"/>
<path style="fill:#fad444; stroke:none;" d="M436 299L437 300L436 299z"/>
<path style="fill:#727271; stroke:none;" d="M487 299L488 300L487 299M555 299L556 300L555 299M567 299L568 300L567 299z"/>
<path style="fill:#fad444; stroke:none;" d="M568 299L569 300L568 299z"/>
<path style="fill:#727271; stroke:none;" d="M614 299L615 300L614 299M626 299L627 300L626 299M694 299L695 300L694 299z"/>
<path style="fill:#fad444; stroke:none;" d="M702 299L703 300L702 299M316 300L317 301L316 300z"/>
<path style="fill:#727271; stroke:none;" d="M340 300L341 301L340 300M353 300L354 301L353 300M398 300L399 301L398 300M411 300L412 301L411 300M427 300L428 301L427 300z"/>
<path style="fill:#fad444; stroke:none;" d="M435 300L436 301L435 300M480 300L481 301L480 300z"/>
<path style="fill:#727271; stroke:none;" d="M488 300L489 301L488 300M553 300L554 301L553 300M564 300L565 301L564 300z"/>
<path style="fill:#fad444; stroke:none;" d="M565 300L566 301L565 300z"/>
<path style="fill:#727271; stroke:none;" d="M617 300L618 301L617 300M628 300L629 301L628 300M693 300L694 301L693 300M701 300L702 301L701 300z"/>
<path style="fill:#fad444; stroke:none;" d="M317 301L318 302L317 301z"/>
<path style="fill:#727271; stroke:none;" d="M339 301L340 302L339 301M355 301L356 302L355 301z"/>
<path style="fill:#fad444; stroke:none;" d="M356 301L357 302L356 301M395 301L396 302L395 301z"/>
<path style="fill:#727271; stroke:none;" d="M396 301L397 302L396 301M412 301L413 302L412 301M426 301L427 302L426 301z"/>
<path style="fill:#fad444; stroke:none;" d="M434 301L435 302L434 301M481 301L482 302L481 301z"/>
<path style="fill:#727271; stroke:none;" d="M489 301L490 302L489 301M551 301L552 302L551 301M562 301L563 302L562 301z"/>
<path style="fill:#fad444; stroke:none;" d="M619 301L620 302L619 301z"/>
<path style="fill:#727271; stroke:none;" d="M620 301L621 302L620 301M630 301L631 302L630 301M692 301L693 302L692 301M700 301L701 302L700 301z"/>
<path style="fill:#fad444; stroke:none;" d="M318 302L319 303L318 302z"/>
<path style="fill:#727271; stroke:none;" d="M338 302L339 303L338 302M358 302L359 303L358 302M393 302L394 303L393 302M413 302L414 303L413 302M425 302L426 303L425 302z"/>
<path style="fill:#fad444; stroke:none;" d="M433 302L434 303L433 302M482 302L483 303L482 302z"/>
<path style="fill:#727271; stroke:none;" d="M490 302L491 303L490 302z"/>
<path style="fill:#fad444; stroke:none;" d="M549 302L550 303L549 302z"/>
<path style="fill:#727271; stroke:none;" d="M550 302L551 303L550 302M559 302L560 303L559 302z"/>
<path style="fill:#fad444; stroke:none;" d="M560 302L561 303L560 302z"/>
<path style="fill:#727271; stroke:none;" d="M622 302L623 303L622 302z"/>
<path style="fill:#fad444; stroke:none;" d="M632 302L633 303L632 302z"/>
<path style="fill:#727271; stroke:none;" d="M691 302L692 303L691 302M699 302L700 303L699 302z"/>
<path style="fill:#fad444; stroke:none;" d="M319 303L320 304L319 303z"/>
<path style="fill:#727271; stroke:none;" d="M337 303L338 304L337 303M345.667 303.333L346.333 303.667L345.667 303.333M360 303L361 304L360 303z"/>
<path style="fill:#fad444; stroke:none;" d="M361 303L362 304L361 303M390 303L391 304L390 303z"/>
<path style="fill:#727271; stroke:none;" d="M391 303L392 304L391 303M405.667 303.333L406.333 303.667L405.667 303.333M414 303L415 304L414 303M424 303L425 304L424 303z"/>
<path style="fill:#fad444; stroke:none;" d="M432 303L433 304L432 303M483 303L484 304L483 303z"/>
<path style="fill:#727271; stroke:none;" d="M491 303L492 304L491 303M548 303L549 304L548 303M557 303L558 304L557 303M624 303L625 304L624 303M633 303L634 304L633 303M690 303L691 304L690 303M698 303L699 304L698 303z"/>
<path style="fill:#050403; stroke:none;" class='s2' d="M234 312C233.905 320.029 230.767 319.976 224 322L224 323C230.767 325.024 233.905 324.971 234 333L237 324L246 323L246 322L237 321L236 312L234 312z"/>
<path style="fill:#fad444; stroke:none;" d="M421 312L422 313L421 312M492 312L493 313L492 312z"/>
<path style="fill:#727271; stroke:none;" d="M499 312L499 315L500 315L499 312M536 312L537 313L536 312M543 312L544 313L543 312M638 312L639 313L638 312M645 312L646 313L645 312z"/>
<path style="fill:#fad444; stroke:none;" d="M682 312L683 313L682 312z"/>
<path style="fill:#727271; stroke:none;" d="M689 312L690 313L689 312z"/>
<path style="fill:#fad444; stroke:none;" d="M493.333 313.667L493.667 314.333L493.333 313.667z"/>
<path style="fill:#727271; stroke:none;" d="M535 313L536 314L535 313M542 313L543 314L542 313M639 313L640 314L639 313M646 313L647 314L646 313M682 313L683 314L682 313M688.333 313.667L688.667 314.333L688.333 313.667M534 314L535 315L534 314M541 314L542 315L541 314z"/>
<path style="fill:#fad444; stroke:none;" d="M640 314L641 315L640 314z"/>
<path style="fill:#727271; stroke:none;" d="M647 314L648 315L647 314z"/>
<path style="fill:#fad444; stroke:none;" d="M682 314L683 315L682 314z"/>
<path style="fill:#727271; stroke:none;" d="M493 315L494 316L493 315z"/>
<path style="fill:#fad444; stroke:none;" d="M499 315L500 316L499 315z"/>
<path style="fill:#727271; stroke:none;" d="M533 315L534 316L533 315M540 315L541 316L540 315z"/>
<path style="fill:#fad444; stroke:none;" d="M641 315L642 316L641 315z"/>
<path style="fill:#727271; stroke:none;" d="M648 315L649 316L648 315M532 316L533 317L532 316z"/>
<path style="fill:#fad444; stroke:none;" d="M539 316L540 317L539 316M642 316L643 317L642 316z"/>
<path style="fill:#727271; stroke:none;" d="M649 316L650 317L649 316M683.333 316.667L683.667 317.333L683.333 316.667z"/>
<path style="fill:#fad444; stroke:none;" d="M689 316L690 317L689 316z"/>
<path style="fill:#727271; stroke:none;" d="M492 317L493 318L492 317M498 317L499 318L498 317z"/>
<path style="fill:#fad444; stroke:none;" d="M531 317L532 318L531 317M538 317L539 318L538 317M643 317L644 318L643 317z"/>
<path style="fill:#727271; stroke:none;" d="M650 317L651 318L650 317M689 317L690 318L689 317M365.333 318.667L365.667 319.333L365.333 318.667z"/>
<path style="fill:#fad444; stroke:none;" d="M530 318L531 319L530 318M537 318L538 319L537 318M644 318L645 319L644 318z"/>
<path style="fill:#727271; stroke:none;" d="M651 318L652 319L651 318z"/>
<path style="fill:#fad444; stroke:none;" d="M690 318L691 319L690 318z"/>
<path style="fill:#727271; stroke:none;" d="M386 319L387 320L386 319M491 319L492 320L491 319M497 319L498 320L497 319z"/>
<path style="fill:#fad444; stroke:none;" d="M536 319L537 320L536 319M645 319L646 320L645 319M652 319L653 320L652 319z"/>
<path style="fill:#727271; stroke:none;" d="M684 319L685 320L684 319M690 319L691 320L690 319z"/>
<path style="fill:#fad444; stroke:none;" d="M225 320L225 321L233 321L225 320M237 320L237 321L245 321L237 320M366 320L367 321L366 320M497 320L498 321L497 320z"/>
<path style="fill:#727271; stroke:none;" d="M535 320L536 321L535 320z"/>
<path style="fill:#fad444; stroke:none;" d="M646 320L647 321L646 320z"/>
<path style="fill:#727271; stroke:none;" d="M224 321L225 322L224 321M245 321L246 322L245 321M360 321L361 322L360 321M367 321L368 322L367 321z"/>
<path style="fill:#fad444; stroke:none;" d="M368 321L369 322L368 321M383 321L384 322L383 321z"/>
<path style="fill:#727271; stroke:none;" d="M384 321L385 322L384 321M391 321L392 322L391 321z"/>
<path style="fill:#fad444; stroke:none;" d="M490 321L491 322L490 321z"/>
<path style="fill:#727271; stroke:none;" d="M496.333 321.667L496.667 322.333L496.333 321.667M528 321L529 322L528 321M534 321L535 322L534 321z"/>
<path style="fill:#fad444; stroke:none;" d="M647 321L648 322L647 321z"/>
<path style="fill:#727271; stroke:none;" d="M685 321L686 322L685 321M691 321L692 322L691 321z"/>
<path style="fill:#fad444; stroke:none;" d="M246 322L247 323L246 322M391 322L392 323L391 322z"/>
<path style="fill:#727271; stroke:none;" d="M490 322L491 323L490 322M527 322L528 323L527 322M533 322L534 323L533 322M648 322L649 323L648 322M654 322L655 323L654 322M224 323L225 324L224 323M245 323L246 324L245 323M361 323L362 324L361 323M390 323L391 324L390 323z"/>
<path style="fill:#fad444; stroke:none;" d="M526 323L527 324L526 323z"/>
<path style="fill:#727271; stroke:none;" d="M532 323L533 324L532 323M649 323L650 324L649 323z"/>
<path style="fill:#fad444; stroke:none;" d="M655 323L656 324L655 323z"/>
<path style="fill:#727271; stroke:none;" d="M686.333 323.667L686.667 324.333L686.333 323.667z"/>
<path style="fill:#fad444; stroke:none;" d="M692 323L693 324L692 323M225 324L226 325L225 324z"/>
<path style="fill:#727271; stroke:none;" d="M226 324L226 325L233 325L226 324M237 324L237 325L245 325L237 324M489 324L490 325L489 324M495 324L496 325L495 324M650 324L651 325L650 324M692 324L693 325L692 324M233 325L233 333L234 333L233 325M363 325L364 326L363 325M388 325L389 326L388 325M525 325L526 326L525 325z"/>
<path style="fill:#fad444; stroke:none;" d="M531 325L532 326L531 325z"/>
<path style="fill:#727271; stroke:none;" d="M656 325L657 326L656 325z"/>
<path style="fill:#fad444; stroke:none;" d="M364 326L365 327L364 326z"/>
<path style="fill:#727271; stroke:none;" d="M365 326L366 327L365 326M387 326L388 327L387 326M488 326L489 327L488 326M494 326L495 327L494 326z"/>
<path style="fill:#fad444; stroke:none;" d="M524 326L525 327L524 326z"/>
<path style="fill:#727271; stroke:none;" d="M530 326L531 327L530 326z"/>
<path style="fill:#fad444; stroke:none;" d="M651 326L652 327L651 326z"/>
<path style="fill:#727271; stroke:none;" d="M657 326L658 327L657 326M687 326L688 327L687 326M693 326L694 327L693 326z"/>
<path style="fill:#fad444; stroke:none;" d="M367 327L368 328L367 327z"/>
<path style="fill:#fad444; stroke:none;" d="M384 327L385 328L384 327M494 327L495 328L494 327z"/>
<path style="fill:#727271; stroke:none;" d="M529 327L530 328L529 327M652 327L653 328L652 327z"/>
<path style="fill:#fad444; stroke:none;" d="M487 328L488 329L487 328z"/>
<path style="fill:#727271; stroke:none;" d="M523 328L524 329L523 328M658 328L659 329L658 328M688 328L689 329L688 328M694 328L695 329L694 328M487 329L488 330L487 329M493 329L494 330L493 329z"/>
<path style="fill:#fad444; stroke:none;" d="M522 329L523 330L522 329M528 329L529 330L528 329M653 329L654 330L653 329z"/>
<path style="fill:#727271; stroke:none;" d="M659 329L660 330L659 329z"/>
<path style="fill:#fad444; stroke:none;" d="M688 329L689 330L688 329z"/>
<path style="fill:#727271; stroke:none;" d="M522 330L523 331L522 330M527 330L528 331L527 330M654 330L655 331L654 330z"/>
<path style="fill:#fad444; stroke:none;" d="M695 330L696 331L695 330z"/>
<path style="fill:#727271; stroke:none;" d="M486 331L487 332L486 331M492 331L493 332L492 331M521 331L522 332L521 331M660 331L661 332L660 331M689 331L690 332L689 331M695 331L696 332L695 331M236 332L237 333L236 332M526 332L527 333L526 332z"/>
<path style="fill:#fad444; stroke:none;" d="M655 332L656 333L655 332z"/>
<path style="fill:#727271; stroke:none;" d="M234.667 333.333L235.333 333.667L234.667 333.333z"/>
<path style="fill:#fad444; stroke:none;" d="M485 333L486 334L485 333z"/>
<path style="fill:#727271; stroke:none;" d="M491.333 333.667L491.667 334.333L491.333 333.667M520 333L521 334L520 333M656 333L657 334L656 333M661 333L662 334L661 333M690 333L691 334L690 333M696 333L697 334L696 333M485 334L486 335L485 334z"/>
<path style="fill:#fad444; stroke:none;" d="M525 334L526 335L525 334M690 334L691 335L690 334z"/>
<path style="fill:#727271; stroke:none;" d="M519 335L520 336L519 335M524 335L525 336L524 335z"/>
<path style="fill:#fad444; stroke:none;" d="M583 335L584 336L583 335z"/>
<path style="fill:#727271; stroke:none;" d="M584 335L584 336L588 336L584 335M594 335L594 336L598 336L594 335z"/>
<path style="fill:#fad444; stroke:none;" d="M598 335L599 336L598 335z"/>
<path style="fill:#727271; stroke:none;" d="M657 335L658 336L657 335M662 335L663 336L662 335z"/>
<path style="fill:#fad444; stroke:none;" d="M697 335L698 336L697 335z"/>
<path style="fill:#727271; stroke:none;" d="M484 336L485 337L484 336M490 336L491 337L490 336z"/>
<path style="fill:#fad444; stroke:none;" d="M524 336L525 337L524 336z"/>
<path style="fill:#727271; stroke:none;" d="M580.667 336.333L581.333 336.667L580.667 336.333M600.667 336.333L601.333 336.667L600.667 336.333M691 336L692 337L691 336M697 336L698 337L697 336M518 337L519 338L518 337M523 337L524 338L523 337z"/>
<path style="fill:#fad444; stroke:none;" d="M577 337L578 338L577 337z"/>
<path style="fill:#727271; stroke:none;" d="M578 337L579 338L578 337M604 337L605 338L604 337M658 337L659 338L658 337M663 337L664 338L663 337M483.333 338.667L483.667 339.333L483.333 338.667M489 338L490 339L489 338z"/>
<path style="fill:#fad444; stroke:none;" d="M523 338L524 339L523 338z"/>
<path style="fill:#727271; stroke:none;" d="M575 338L576 339L575 338M606 338L607 339L606 338M692 338L693 339L692 338M698 338L699 339L698 338z"/>
<path style="fill:#fad444; stroke:none;" d="M489 339L490 340L489 339z"/>
<path style="fill:#727271; stroke:none;" d="M517.333 339.667L517.667 340.333L517.333 339.667M522 339L523 340L522 339M573 339L574 340L573 339M608 339L609 340L608 339M659 339L660 340L659 339M664 339L665 340L664 339z"/>
<path style="fill:#fad444; stroke:none;" d="M692 339L693 340L692 339M482 340L483 341L482 340M522 340L523 341L522 340M571 340L572 341L571 340M610 340L611 341L610 340M699 340L700 341L699 340z"/>
<path style="fill:#727271; stroke:none;" d="M482 341L483 342L482 341M488 341L489 342L488 341M570 341L571 342L570 341M611 341L612 342L611 341M660 341L661 342L660 341M665.333 341.667L665.667 342.333L665.333 341.667M693 341L694 342L693 341M699 341L700 342L699 341M516 342L517 343L516 342M521 342L522 343L521 342z"/>
<path style="fill:#fad444; stroke:none;" d="M613 342L614 343L613 342M660 342L661 343L660 342M458 343L459 344L458 343z"/>
<path style="fill:#727271; stroke:none;" d="M459.667 343.333L460.333 343.667L459.667 343.333M487.333 343.667L487.667 344.333L487.333 343.667z"/>
<path style="fill:#fad444; stroke:none;" d="M567 343L568 344L567 343z"/>
<path style="fill:#727271; stroke:none;" d="M614 343L615 344L614 343M694 343L695 344L694 343M721.667 343.333L722.333 343.667L721.667 343.333z"/>
<path style="fill:#fad444; stroke:none;" d="M723 343L724 344L723 343z"/>
<path style="fill:#727271; stroke:none;" d="M456 344L457 345L456 344z"/>
<path style="fill:#fad444; stroke:none;" d="M515 344L516 345L515 344z"/>
<path style="fill:#727271; stroke:none;" d="M520 344L521 345L520 344M566 344L567 345L566 344M615 344L616 345L615 344M661 344L662 345L661 344M666 344L667 345L666 344z"/>
<path style="fill:#fad444; stroke:none;" d="M694 344L695 345L694 344z"/>
<path style="fill:#727271; stroke:none;" d="M725 344L726 345L725 344M454 345L455 346L454 345M515 345L516 346L515 345z"/>
<path style="fill:#fad444; stroke:none;" d="M520 345L521 346L520 345z"/>
<path style="fill:#727271; stroke:none;" d="M565 345L566 346L565 345M616 345L617 346L616 345M695 345L696 346L695 345M727 345L728 346L727 345M453 346L454 347L453 346z"/>
<path style="fill:#fad444; stroke:none;" d="M486 346L487 347L486 346z"/>
<path style="fill:#727271; stroke:none;" d="M564 346L565 347L564 346M617 346L618 347L617 346M662.333 346.667L662.667 347.333L662.333 346.667z"/>
<path style="fill:#fad444; stroke:none;" d="M485 347L486 348L485 347M514 347L515 348L514 347z"/>
<path style="fill:#727271; stroke:none;" d="M519 347L520 348L519 347z"/>
<path style="fill:#fad444; stroke:none;" d="M563 347L564 348L563 347z"/>
<path style="fill:#727271; stroke:none;" d="M618 347L619 348L618 347M667.333 347.667L667.667 348.333L667.333 347.667z"/>
<path style="fill:#fad444; stroke:none;" d="M696 347L697 348L696 347z"/>
<path style="fill:#727271; stroke:none;" d="M451 348L452 349L451 348M461 348L461 349L483 349L461 348z"/>
<path style="fill:#fad444; stroke:none;" d="M483 348L484 349L483 348z"/>
<path style="fill:#727271; stroke:none;" d="M514 348L515 349L514 348z"/>
<path style="fill:#fad444; stroke:none;" d="M519 348L520 349L519 348M619 348L620 349L619 348M698 348L699 349L698 348z"/>
<path style="fill:#727271; stroke:none;" d="M699 348L699 349L721 349L699 348z"/>
<path style="fill:#fad444; stroke:none;" d="M450 349L451 350L450 349z"/>
<path style="fill:#727271; stroke:none;" d="M458.667 349.333L459.333 349.667L458.667 349.333M663.333 349.667L663.667 350.333L663.333 349.667z"/>
<path style="fill:#fad444; stroke:none;" d="M722 349L723 350L722 349z"/>
<path style="fill:#727271; stroke:none;" d="M723 349L724 350L723 349M731 349L732 350L731 349z"/>
<path style="fill:#fad444; stroke:none;" d="M457 350L458 351L457 350z"/>
<path style="fill:#727271; stroke:none;" d="M518.333 350.667L518.667 351.333L518.333 350.667M561 350L562 351L561 350M620 350L621 351L620 350z"/>
<path style="fill:#fad444; stroke:none;" d="M668 350L669 351L668 350M724 350L725 351L724 350z"/>
<path style="fill:#727271; stroke:none;" d="M449 351L450 352L449 351z"/>
<path style="fill:#fad444; stroke:none;" d="M456 351L457 352L456 351z"/>
<path style="fill:#727271; stroke:none;" d="M513.333 351.667L513.667 352.333L513.333 351.667z"/>
<path style="fill:#fad444; stroke:none;" d="M560 351L561 352L560 351M621 351L622 352L621 351M663 351L664 352L663 351z"/>
<path style="fill:#727271; stroke:none;" d="M668 351L669 352L668 351M732 351L733 352L732 351z"/>
<path style="fill:#fad444; stroke:none;" d="M455 352L456 353L455 352z"/>
<path style="fill:#727271; stroke:none;" d="M560 352L561 353L560 352z"/>
<path style="fill:#fad444; stroke:none;" d="M726 352L727 353L726 352z"/>
<path style="fill:#727271; stroke:none;" d="M559 353L560 354L559 353M622 353L623 354L622 353M664.333 353.667L664.667 354.333L664.333 353.667M727 353L728 354L727 353z"/>
<path style="fill:#fad444; stroke:none;" d="M733 353L734 354L733 353z"/>
<path style="fill:#727271; stroke:none;" d="M448 354L448 362L449 362L448 354M454 354L455 355L454 354M517.333 354.667L517.667 355.333L517.333 354.667z"/>
<path style="fill:#fad444; stroke:none;" d="M669 354L670 355L669 354M727 354L728 355L727 354z"/>
<path style="fill:#727271; stroke:none;" d="M733.333 354.667L733.667 355.333L733.333 354.667z"/>
<path style="fill:#fad444; stroke:none;" d="M512 355L513 356L512 355z"/>
<path style="fill:#727271; stroke:none;" d="M558 355L559 356L558 355M623 355L624 356L623 355z"/>
<path style="fill:#fad444; stroke:none;" d="M664 355L665 356L664 355z"/>
<path style="fill:#727271; stroke:none;" d="M669.333 355.667L669.667 356.333L669.333 355.667M512 356L512 359L513 359L512 356z"/>
<path style="fill:#fad444; stroke:none;" d="M517 356L518 357L517 356z"/>
<path style="fill:#727271; stroke:none;" d="M728 356L728 386L729 386L728 356M453 357L453 362L454 362L453 357z"/>
<path style="fill:#fad444; stroke:none;" d="M557 357L558 358L557 357z"/>
<path style="fill:#727271; stroke:none;" d="M624 357L625 358L624 357M557 358L558 359L557 358M665.333 358.667L665.667 359.333L665.333 358.667M516 359L516 363L517 363L516 359z"/>
<path style="fill:#fad444; stroke:none;" d="M625 359L626 360L625 359z"/>
<path style="fill:#727271; stroke:none;" d="M556.333 360.667L556.667 361.333L556.333 360.667M625 360L626 361L625 360z"/>
<path style="fill:#fad444; stroke:none;" d="M665.333 360.667L665.667 361.333L665.333 360.667M670 360L671 361L670 360M511 361C494.346 365.923 471.391 362 454 362L454 363C471.683 363 495.068 367.005 512 362L511 361z"/>
<path style="fill:#727271; stroke:none;" d="M670 361L670 367L671 367L670 361z"/>
<path style="fill:#fad444; stroke:none;" d="M235 362L235 363L448 363L428 362L385 362L235 362z"/>
<path style="fill:#727271; stroke:none;" d="M511 362L512 363L511 362z"/>
<path style="fill:#fad444; stroke:none;" d="M517 362L517 363L556 363C545.726 358.689 528.172 362 517 362M626 362L626 363L635 363L626 362z"/>
<path style="fill:#727271; stroke:none;" d="M233 363L234 364L233 363M636 363L637 364L636 363M232 364L232 391L233 391L232 364z"/>
<path style="fill:#fad444; stroke:none;" d="M637 365L637 392L638 392L637 365z"/>
<path style="fill:#727271; stroke:none;" d="M666 365L666 377L667 377L666 365z"/>
<path style="fill:#fad444; stroke:none;" d="M238 368L238 390L632 390L630.397 369.028L606 368L540 368L238 368z"/>
<path style="fill:#727271; stroke:none;" d="M631 368L632 369L631 368M670 375L670 381L671 381L670 375z"/>
<path style="fill:#fad444; stroke:none;" d="M665.333 380.667L665.667 381.333L665.333 380.667M670.333 381.667L670.667 382.333L670.333 381.667z"/>
<path style="fill:#727271; stroke:none;" d="M665 382L665 385L666 385L665 382M669.333 385.667L669.667 386.333L669.333 385.667z"/>
<path style="fill:#fad444; stroke:none;" d="M664 386L665 387L664 386z"/>
<path style="fill:#727271; stroke:none;" d="M733 386L733 389L734 389L733 386M664.333 387.667L664.667 388.333L664.333 387.667z"/>
<path style="fill:#fad444; stroke:none;" d="M669 387L670 388L669 387M727 387L728 388L727 387z"/>
<path style="fill:#727271; stroke:none;" d="M727 388L728 389L727 388z"/>
<path style="fill:#fad444; stroke:none;" d="M726 389L727 390L726 389z"/>
<path style="fill:#727271; stroke:none;" d="M668 390L669 391L668 390M732 390L733 391L732 390M663.333 391.667L663.667 392.333L663.333 391.667z"/>
<path style="fill:#fad444; stroke:none;" d="M668 391L669 392L668 391M724 391L725 392L724 391z"/>
<path style="fill:#727271; stroke:none;" d="M637 392L637 419L639 430L637 392z"/>
<path style="fill:#fad444; stroke:none;" d="M722 392L723 393L722 392z"/>
<path style="fill:#727271; stroke:none;" d="M723 392L724 393L723 392M731 392L732 393L731 392M697 393L697 394L721 394L697 393M730 393L731 394L730 393M662.333 394.667L662.667 395.333L662.333 394.667M667 394L668 395L667 394M238 395L238 396L631 396L631 608L632 608L632 395L238 395z"/>
<path style="fill:#fad444; stroke:none;" d="M695 395L696 396L695 395z"/>
<path style="fill:#727271; stroke:none;" d="M728 395L729 396L728 395z"/>
<path style="fill:#fffefc; stroke:none;" d="M238 396L238 607L631 607L631 396L238 396z"/>
<path style="fill:#727271; stroke:none;" d="M695 396L696 397L695 396M727 396L728 397L727 396M661 397L662 398L661 397M666 397L667 398L666 397M725 397L726 398L725 397z"/>
<path style="fill:#fad444; stroke:none;" d="M694 398L695 399L694 398z"/>
<path style="fill:#727271; stroke:none;" d="M721 398L721 399L724 399L721 398z"/>
<path style="fill:#fad444; stroke:none;" d="M660 399L661 400L660 399z"/>
<path style="fill:#727271; stroke:none;" d="M665.333 399.667L665.667 400.333L665.333 399.667M694 399L695 400L694 399z"/>
<path style="fill:#fad444; stroke:none;" d="M700 399L701 400L700 399z"/>
<path style="fill:#727271; stroke:none;" d="M660 400L661 401L660 400z"/>
<path style="fill:#fad444; stroke:none;" d="M693 401L694 402L693 401z"/>
<path style="fill:#727271; stroke:none;" d="M699 401L700 402L699 401M659 402L660 403L659 402M664 402L665 403L664 402M693 402L694 403L693 402z"/>
<path style="fill:#fad444; stroke:none;" d="M699 402L700 403L699 402M65 498C65.433 502.321 69.2635 507.847 68.338 512C67.3788 516.304 62.5172 518.589 61.4491 523C59.62 530.553 71.9601 542.852 79 543.728C85.659 544.557 88.3479 537.985 94 536.637C98.0017 535.682 103.027 539.294 107 540C107 545.131 106.238 551.49 109.703 555.772C114.091 561.194 133.004 561.009 137.486 555.772C141.019 551.643 140 545.031 140 540C143.925 539.324 149.095 535.805 153 536.661C161.338 538.49 164.705 548.372 174 540.772C179.227 536.497 187.632 529.639 185.343 522C183.779 516.778 177.183 513.714 179.212 507.91C183.651 495.217 191.438 502.503 198.566 494.721C203.03 489.849 202.867 471.874 197.772 467.514C193.643 463.981 187.031 465 182 465C181.324 461.075 177.805 455.905 178.661 452C179.661 447.444 184.635 444.817 185.59 440C187.126 432.26 174.608 419.218 167 419.218C161.309 419.218 158.951 424.965 154 426.442C149.689 427.728 144.268 423.758 140 423C140 417.969 141.019 411.357 137.486 407.228C133.128 402.135 115.282 401.983 110.419 406.514C104.627 411.911 109.948 420.751 101.981 424.381C89.9264 429.874 83.4442 412.943 72 423.109C67.4371 427.162 59.9252 433.066 61.4344 440C62.9002 446.735 70.238 449.498 67.5802 457C63.5561 468.359 55.2191 461.223 48.5139 468.419C43.97 473.295 44.1861 490.939 49.2785 495.347C53.4495 498.958 59.9014 498 65 498z"/>
<path style="fill:#727271; stroke:none;" d="M658 404L659 405L658 404M663 404L664 405L663 404z"/>
<path style="fill:#fad444; stroke:none;" d="M692 404L693 405L692 404z"/>
<path style="fill:#727271; stroke:none;" d="M698 404L699 405L698 404z"/>
<path style="fill:#fad444; stroke:none;" d="M663 405L664 406L663 405z"/>
<path style="fill:#727271; stroke:none;" d="M692 405L693 406L692 405z"/>
<path style="fill:#fad444; stroke:none;" d="M698 405L699 406L698 405z"/>
<path style="fill:#727271; stroke:none;" d="M657 406L658 407L657 406M662 406L663 407L662 406z"/>
<path style="fill:#fad444; stroke:none;" d="M662 407L663 408L662 407M691 407L692 408L691 407z"/>
<path style="fill:#727271; stroke:none;" d="M697 407L698 408L697 407M656 408L657 409L656 408M661 408L662 409L661 408M691 408L692 409L691 408z"/>
<path style="fill:#fad444; stroke:none;" d="M697 408L698 409L697 408M770 408L770 411L771 411L770 408z"/>
<path style="fill:#727271; stroke:none;" class='s2' d="M771 408L771 409L774 409L771 408z"/>
<path style="fill:#fad444; stroke:none;" d="M783 408L779 413L783 408z"/>
<path style="fill:#727271; stroke:none;" d="M784 408L784 409L782 416L787 408L784 408z"/>
<path style="fill:#fffefc; stroke:none;" class='s1' d="M117.059 409.573C109.738 411.873 115.103 423.44 107.956 427.775C104.531 429.853 97.0755 433.705 93 433.018C82.2939 431.212 82.9092 419.899 72.0154 431.004C60.8758 442.359 77.9909 443.923 74.365 455C72.7947 459.797 70.5839 467.221 65.8951 469.821C61.2793 472.38 53.586 468.65 51.5725 475.059C50.4172 478.736 49.8279 487.419 52.7423 490.397C55.7681 493.488 61.2567 491.151 64.956 492.603C69.9708 494.572 73.0824 504.192 74.5895 509C76.4316 514.877 70.172 517.343 68.0471 522C65.5518 527.469 72.9666 533.844 77 536.522C84.5551 541.539 87.7017 528.82 95 530.103C99.6914 530.927 108.392 534.301 111.258 538.214C114.065 542.047 111.753 546.742 113.603 550.721C115.803 555.453 125.883 554.552 129.941 553.276C137.14 551.014 131.877 540.378 138.109 535.994C141.619 533.524 150.686 528.705 155 530.238C159.536 531.85 162.429 538.907 168 537.338C173.066 535.911 181.36 527.606 178.802 522C177.156 518.392 172.612 516.063 171.994 512C171.371 507.904 175.759 500.804 177.387 497.019C180.685 489.357 186.92 494.232 192.682 491.397C196.489 489.524 195.72 477.644 194.682 474.148C193.349 469.657 187.49 471.412 184.001 470.772C179.614 469.967 177.487 466.857 175.816 462.999C174.401 459.734 171.367 454.65 171.982 451C172.681 446.856 177.277 444.674 178.953 441C181.446 435.536 173.545 428.06 169 426.072C161.783 422.915 158.331 434.623 151 432.837C146.383 431.713 138.556 428.846 135.742 424.867C132.98 420.961 135.219 416.271 133.397 412.228C131.297 407.571 121.096 408.304 117.059 409.573z"/>
<path style="fill:#fad444; stroke:none;" d="M655 409L656 410L655 409z"/>
<path style="fill:#050403; stroke:none;" class='s2' d="M771 409C774.067 415.927 772.908 417.028 771 424C777.972 422.092 779.073 420.933 786 424L786 409L771 409z"/>
<path style="fill:#727271; stroke:none;" d="M660 410L661 411L660 410M690 410L691 411L690 410M696 410L697 411L696 410M654 411L655 412L654 411z"/>
<path style="fill:#fad444; stroke:none;" d="M696 411L697 412L696 411z"/>
<path style="fill:#727271; stroke:none;" class='s2' d="M771 411L772 412L771 411M659 412L660 413L659 412z"/>
<path style="fill:#fad444; stroke:none;" d="M689 412L690 413L689 412z"/>
<path style="fill:#727271; stroke:none;" d="M695.333 412.667L695.667 413.333L695.333 412.667M772 412L773 413L772 412M653 413L654 414L653 413M658 413L659 414L658 413M689 413L690 414L689 413M773 413L774 414L773 413M652 414L653 415L652 414z"/>
<path style="fill:#fad444; stroke:none;" d="M658 414L659 415L658 414M688 414L689 415L688 414z"/>
<path style="fill:#727271; stroke:none;" d="M774 414L775 415L774 414z"/>
<path style="fill:#fad444; stroke:none;" d="M651 415L652 416L651 415z"/>
<path style="fill:#727271; stroke:none;" d="M657 415L658 416L657 415M688 415L689 416L688 415M694 415L695 416L694 415M775 415L776 416L775 415z"/>
<path style="fill:#fad444; stroke:none;" d="M775 416L776 417L775 416z"/>
<path style="fill:#727271; stroke:none;" d="M650 417L651 418L650 417M687 417L688 418L687 417M693 417L694 418L693 417z"/>
<path style="fill:#fad444; stroke:none;" d="M774 417L775 418L774 417z"/>
<path style="fill:#727271; stroke:none;" d="M649 418L650 419L649 418M655 418L656 419L655 418z"/>
<path style="fill:#fad444; stroke:none;" d="M773 418L774 419L773 418z"/>
<path style="fill:#727271; stroke:none;" d="M648 419L649 420L648 419M654 419L655 420L654 419M686 419L687 420L686 419M692 419L693 420L692 419z"/>
<path style="fill:#fad444; stroke:none;" d="M772 419L773 420L772 419z"/>
<path style="fill:#727271; stroke:none;" d="M778.667 419.333L779.333 419.667L778.667 419.333z"/>
<path style="fill:#fad444; stroke:none;" d="M424 420L425 421L424 420z"/>
<path style="fill:#fad444; stroke:none;" d="M647 420L648 421L647 420M771 420L772 421L771 420z"/>
<path style="fill:#727271; stroke:none;" d="M777 420L778 421L777 420M780 420L781 421L780 420z"/>
<path style="fill:#fad444; stroke:none;" d="M422 421L423 422L422 421z"/>
<path style="fill:#727271; stroke:none;" d="M446 421L447 422L446 421z"/>
<path style="fill:#fad444; stroke:none;" d="M646 421L647 422L646 421M653 421L654 422L653 421z"/>
<path style="fill:#727271; stroke:none;" d="M685 421L686 422L685 421M691 421L692 422L691 421M776 421L777 422L776 421M781 421L782 422L781 421M786 421L786 424L787 424L786 421M421 422L422 423L421 422z"/>
<path style="fill:#fad444; stroke:none;" d="M448 422L449 423L448 422M652 422L653 423L652 422M770.333 422.667L770.667 423.333L770.333 422.667z"/>
<path style="fill:#727271; stroke:none;" d="M775 422L776 423L775 422M782 422L783 423L782 422M420 423L421 424L420 423M651 423L652 424L651 423M684 423L685 424L684 423M690 423L691 424L690 423M774 423L775 424L774 423M783 423L784 424L783 423M449 424L450 425L449 424M650 424L651 425L650 424z"/>
<path style="fill:#fad444; stroke:none;" d="M683 424L684 425L683 424M771 424L771 425L774 425L771 424M784 424L784 425L787 425L784 424z"/>
<path style="fill:#fad444; stroke:none;" d="M450 425L451 426L450 425z"/>
<path style="fill:#727271; stroke:none;" d="M649 425L650 426L649 425M683 425L684 426L683 425M689 425L690 426L689 425M425 426L424 428L425 426z"/>
<path style="fill:#fa6240; stroke:none;" class="s1" d="M381 513L378 514C379.542 517.976 383.499 523.694 383.025 528C382.426 533.448 376.19 538.232 379.622 544C380.739 545.878 382.462 547.464 384.005 548.985C395.411 560.225 396.935 542.862 408 546.484C412.72 548.029 420.479 550.435 422.972 555.055C425.443 559.633 421.707 567.36 428.109 569.427C432.125 570.724 442.309 571.401 444.397 566.772C446.38 562.373 442.986 554.777 449.109 552.62C452.183 551.536 462.893 548.468 465.83 549.403C471.396 551.175 473.42 556.522 480 557C481.989 551.149 490.407 546.846 490.963 541C491.436 536.031 484.723 533.27 483.241 529C481.844 524.975 486.646 516.626 488.557 513.019C492.707 505.186 505.116 511.672 506.772 502.981C507.541 498.94 508.312 489.651 503.772 487.603C499.773 485.8 494.99 488.221 491.214 485.397C487.62 482.708 486.056 476.999 484.426 473C480.571 463.541 494.564 458.593 489.522 451C487.108 447.364 480.994 440.027 476 442.086C472.637 443.473 470.12 448.72 466.17 448.413C461.916 448.082 453.328 442.966 449.059 441.182C442.269 438.344 448.128 429.283 442.682 426.603C438.869 424.727 426.539 424.715 424.603 429.148C423.009 432.8 425.062 437.246 422.972 440.787C420.507 444.964 410.683 448.773 406 449.242C398.118 450.033 388.933 433.271 380.985 446.073C374.93 455.824 384.063 457.865 386.292 466C387.379 469.967 384.116 475.453 382.572 478.999C378.082 489.31 372.455 483.265 365.318 488.028C361.69 490.448 362.206 501.108 363.318 504.852C365.115 510.904 377.096 506.312 381 513z"/>
<path style="fill:#fad444; stroke:none;" class='s1' d="M454 552L455 553L454 552z"/>
<path style="fill:#fa6240; stroke:none;" class='s2' d="M196.044 588.786C187.28 591.823 192.33 605.51 200.945 602.242C209.354 599.053 204.38 585.897 196.044 588.786z"/>
<path style="fill:#fad444; stroke:none;" d="M200 588L201 589L200 588M202 589L203 590L202 589M204 591L205 592L204 591M191 592L192 593L191 592M205 593L206 594L205 593M205 597L206 598L205 597M191 598L192 599L191 598M195 602L196 603L195 602M201 602L202 603L201 602M238 607L238 608L545 608L517 607L455 607L238 607z"/>
<path style="fill:#727271; stroke:none;" d="M545 607L546 608L545 607z"/>
<path style="fill:#fad444; stroke:none;" d="M546 607L546 608L631 608L605 607L546 607z"/>
<path style="fill:#fa6240; stroke:none;" d="M238 613L238 628L276 628L276 613L238 613M283 613L283 628L321 628L321 613L283 613M327 613L327 628L365 628L365 613L327 613M371 613L371 628L409 628L409 613L371 613z"/>
<path style="fill:#727271; stroke:none;" d="M409 613L409 628L410 628L409 613z"/>
<path style="fill:#fa6240; stroke:none;" d="M416 613L416 628L454 628L454 613L416 613M460 613L460 628L498 628L498 613L460 613M504 613L504 628L543 628L543 613L504 613M549 613L549 628L587 628L587 613L549 613M593 613L593 628L632 628L630.972 614.603L621 613L593 613z"/>
<path style="fill:#727271; stroke:none;" d="M631 613L632 614L631 613M276 614L276 628L277 628L276 614M282 614L282 628L283 628L282 614M415 614L415 628L416 628L415 614z"/>
<path style="fill:#fad444; stroke:none;" d="M238 634L238 656L632 656L632 634L238 634z"/>
<path style="fill:#727271; stroke:none;" d="M107 656L108 657L107 656M761 657L762 658L761 657z"/>
<path style="fill:#fad444; stroke:none;" d="M106.333 658.667L106.667 659.333L106.333 658.667z"/>
<path style="fill:#727271; stroke:none;" d="M107 660L108 661L107 660z"/>
<path style="fill:#fad444; stroke:none;" d="M761 660L762 661L761 660M108 661L109 662L108 661z"/>
<path style="fill:#727271; stroke:none;" d="M109 661L109 662L234 662C223.973 657.792 206.896 661 196 661L109 661M635 661L635 662L760 662C749.972 657.792 732.896 661 722 661L635 661z"/>
</svg>
