<svg version="1.2" xmlns="http://www.w3.org/2000/svg" viewBox="0 0 1600 1400" width="1600" height="1400">
	<title>Advocating for an Ethical  AI Supply Chain-ai</title>
	<style>
		.s0 { fill: #fff8e1 } 
		.s1 { fill: #bcebf1 } 
		.s2 { fill: #ffd740 } 
		.s3 { fill: #362d46 } 
		.s4 { fill: none;stroke: #000000;stroke-linecap: round;stroke-linejoin: round;stroke-width: 2.6 } 
		.s5 { fill: #000000 } 
		.s6 { fill: #fc6140 } 
		.s7 { fill: #ffe8ad } 
		.s8 { fill: #00bbd6 } 
		.s9 { fill: #ffffff } 
	</style>
	<g id="Layer 1">
		<g id="&lt;Group&gt;">
			<path id="&lt;Path&gt;" class="s0" d="m152.1 884c-263.9-476.7 377.4-728.7 785.7-643.2 408.3 85.4 567 278.6 478 518.5-88.3 238.2-111.5 556.6-404.2 606.9-453.1 77.7-694.9-185-859.5-482.2z"/>
			<path id="&lt;Path&gt;" class="s1" d="m428.3 1271.2c0 0-197.8-147.2-254.2-208.5-56.5-61.3-94-183.7-8.1-141.5 85.8 42.3 165 90.2 165 90.2-77.6-102.5-84.5-108.8-105.3-269.3-20.9-160.5 48.7-210.3 131-82.5 82.4 127.7 147.3 200 147.3 200-7.4-209.2 56.6-285.8 91.7-211.7 35.1 74.1 69.2 212.9 69.2 212.9 0 0 23.8-107.4 68-215.4 44.2-108 93.2-123.4 99.9 5.9 6.7 129.3-30.6 310.2-30.6 310.2z"/>
			<path id="&lt;Path&gt;" class="s1" d="m761 1279c0 0-55.6-240.3-59-323.5-3.4-83.3 47.3-200.9 85.4-113.1 38.1 87.7 67.5 175.6 67.5 175.6 7.2-128.4 6-137.7 94-273.5 87.9-135.8 173.2-128.8 153.3 21.9-19.9 150.7-17.2 247.8-17.2 247.8 129.7-164.3 228.1-181.3 206.9-102-21.2 79.2-85 207.1-85 207.1 0 0 87.6-66.6 191.3-120.3 103.6-53.7 150.8-33.6 72.3 69.3-78.6 102.9-224.2 216.5-224.2 216.5z"/>
			<path id="&lt;Path&gt;" class="s1" d="m761 1100.3c0 0-55.6-240.2-59-323.5-3.4-83.2 47.3-200.8 85.4-113.1 38.1 87.8 67.5 175.6 67.5 175.6 7.2-128.4 6-137.6 94-273.4 87.9-135.9 173.2-128.8 153.3 21.8-19.9 150.7-17.2 247.9-17.2 247.9 129.7-164.4 228.1-181.3 206.9-102.1-21.2 79.2-85 207.1-85 207.1 0 0 87.6-66.5 191.3-120.2 103.6-53.7 150.8-33.7 72.3 69.2-78.6 102.9-224.2 216.6-224.2 216.6z"/>
			<g id="&lt;Group&gt;">
				<path id="&lt;Path&gt;" class="s0" d="m1210 1294.6c0.2-2.5 16.1-0.1 19.2-0.9 3.2-0.7-3.6 2.9-5 8.7-1.3 5.9-9.6 12.1-12.5 15.9-2.8 3.9 0.5-7.8-0.9-14.1 0 0-1-7.1-0.8-9.6z"/>
				<path id="&lt;Path&gt;" class="s0" d="m434.4 1304.2c-1.3 6.3 2 18-0.9 14.1-2.9-3.8-11.1-10-12.5-15.9-1.3-5.8-8.1-9.4-5-8.7 3.1 0.8 19.1-1.6 19.3 0.9 0.2 2.5-0.9 9.6-0.9 9.6z"/>
				<g id="&lt;Group&gt;">
					<path id="&lt;Path&gt;" class="s2" d="m1160.1 954.9c1.6 4.6 4.1 8.8 7.4 12.1-91.8 4.9-707.9 39.7-712 38.7-4.3-1.1-13.5-5-23.5-12-10-7-50.4-30.5-53.9-34.2-3.4-3.7-1.5-6.5-0.8-12.9 0.7-6.5 7.2-37.4 7.2-37.4l17.1-81.3c0 0 14.4-79 16.6-84.5 2.3-5.5 4.5-16.7 14.8-25.8 0 0 629.9-93.2 672-104.8 42.1-11.6 137.1 21.6 138.3 25.7 1.2 4.2 5.7 22.3 7.6 31 1.9 8.7 7.3 44.8 7.5 46.8 0.3 1.9 6.7 48.1 6.7 48.1 0 0 3.7 23.5 8.1 51-36.8 16.9-75.7 30.3-109.9 52.3q-0.1 0-0.2 0.1c-2-0.2-4.2 0.2-6.4 1.4-21.3 11.4-44.7 19.8-64.2 34-12.1 8.8-0.4 29.3 11.9 20.4 7.4-5.4 15.3-10 23.5-14.1-6.5 20.1 10 45 32.2 45.4z"/>
				</g>
				<g id="&lt;Group&gt;">
					<path id="&lt;Path&gt;" class="s3" d="m952.2 517.3c-61.5 0-310.3-19.1-324.8-23.1-14.4-4-44.5-20.4-52.9-29.3-8.5-8.9-12.5-21.7-12.7-33.8-0.2-12.2 9-23.4 15.1-34.3 6-10.9 15.1-30.6 21.6-42 6.4-11.5 15.4-30 15.4-30 0 0 18.6-38.8 24.4-52.1 5.8-13.3 13.3-30.3 17.9-41.7 4.6-11.3 9.4-29.7 12.4-37 3-7.2 14.8-37.3 19.5-51.1 4.8-13.7 10.6-27.3 18.4-40.4 7.9-13.1 25.7-33.6 32.3-38.9 6.6-5.3 29.7-21.9 39.1-26 9.4-4.2 38-13.5 45-14.7 7-1.3 27.9-4.9 46.9-1.5 19.1 3.5 46.2 14.1 57.2 20.6 11.1 6.5 32.3 22.3 39.7 30.6 7.4 8.4 19.2 26.4 26.5 38.9 7.2 12.5 19.9 53.1 23.7 62.8 3.7 9.7 19 50.4 22.3 59.4 3.3 9.1 26.7 64.3 31.8 76.5 5.1 12.2 20.2 43.7 22.9 50.9 2.6 7.2 20.7 32.9 25.1 41.2 4.4 8.4 9.4 19.8 10.3 26.9 0.9 7-1.9 20.6-7.3 29.6-5.4 8.9-18.7 21.6-34.2 27.5 0 0-74.2 31-135.6 31z"/>
					<path id="&lt;Path&gt;" class="s4" d="m771.9 414.7c-44.1 146.4-246.6 73.6-203.5-2.8 105.5-187 101.8-250.3 137.4-311 48.6-82.5 140.1-80 140.1-80"/>
					<path id="&lt;Path&gt;" class="s4" d="m845.9 20.9c0 0 91.5-2.5 140 80 35.6 60.7 31.9 124 137.4 311 43.1 76.4-159.9 149.2-204 2.8"/>
					<g id="&lt;Group&gt;">
						<path id="&lt;Path&gt;" class="s2" d="m421.6 731.1c0 0 7.1-25.2 7.7-34.2 0.6-9 12.9-42.3 16.3-57.6 3.5-15.4 19.3-42.2 24.7-53.9 5.5-11.7 29.1-41.6 44.7-56.9 15.7-15.3 55.8-33.8 67.9-41.1 12.2-7.3 34.2-8.2 57.3-7.8 23.2 0.4 408.6-6.3 432.1-2.2 23.5 4 46.5 16.2 78.6 34 32.1 17.8 44.1 35 51.9 43.6 7.9 8.7 24.9 33.1 30.8 50.2 5.9 17.1 16.6 77.8 15.8 95.2-0.8 17.4-0.1 13.3 0 32.2z"/>
					</g>
					<path id="&lt;Path&gt;" class="s0" d="m905.3 374.9c2.8 9.7 6 41.1 50.9 71.2 19.5 13.1 32.3 13.3 48.8 14.4 16.5 1.1 50.4 12 60.9 13 10.5 1 14.5 4.9 11.4 9.3-3.1 4.4-25.2 41.3-35.7 48.7-10.5 7.3-35.9 31.9-40.4 35-4.4 3.2-39.8 25.3-58.9 31.4-19.2 6.1-55.4 15.2-77.7 16.1-22.3 0.8-48-4-62.3-5.6-14.3-1.6-56.7-13.9-76.9-22.9-20.1-9-53.7-30.9-68.2-46.1-14.6-15.2-34.5-38.4-37-45.9-2.6-7.6-10.3-12.9 3.1-17.9 13.4-5 45.9-12.1 70.9-16.1 20.6-3.4 23.9-3.5 41.6-14.2 13.5-8.3 26.9-20.2 31.5-26.2 7.9-10.1 16.2-29.8 19.4-41.7 3.3-11.9 2.2-26.2 5.2-24.7 2.9 1.6 26.4 12.7 49.7 13.5 23.3 0.7 21.9 0.9 35.2-2.6 13.3-3.6 25.1-6.1 26.3-3.1 1.1 2.9 2.2 14.4 2.2 14.4z"/>
					<path id="&lt;Path&gt;" class="s0" d="m925.4 98.8c4.7 42.3 48.6 87.3 48.6 87.3 0 0 24.2 1.9 22.3 23-1.3 14.8-23.1 26.4-23.1 26.4-4.7 67.4-56.4 155.1-150.6 135.5-94.1-19.6-90.2-131.8-90.2-131.8 0 0-24.4-1.1-28.2-19.9-4.5-21.9 17.2-24.8 17.2-24.8 0 0 4.7-49.4 69.1-65.9 64.3-16.5 107.4-63.5 107.4-63.5l-27.4 75.3c19.6-0.8 54.9-41.6 54.9-41.6z"/>
					<path id="&lt;Path&gt;" class="s4" d="m925.4 98.8c4.7 42.3 48.6 87.3 48.6 87.3 0 0 24.2 1.9 22.3 23-1.3 14.8-23.1 26.4-23.1 26.4-4.7 67.4-56.4 155.1-150.6 135.5-94.1-19.6-90.2-131.8-90.2-131.8 0 0-24.4-1.1-28.2-19.9-4.5-21.9 17.2-24.8 17.2-24.8 0 0 4.7-49.4 69.1-65.9 64.3-16.5 107.4-63.5 107.4-63.5l-27.4 75.3c19.6-0.8 54.9-41.6 54.9-41.6z"/>
					<path id="&lt;Path&gt;" class="s4" d="m1079.1 477.4c0 0-69.1 146.4-243.5 134.8-174.3-11.7-223.7-134.6-223.7-134.6"/>
					<path id="&lt;Path&gt;" class="s4" d="m903.1 359.2c-1.1 45 37.6 93.4 88.3 99.5 52.6 6.4 93.6 20.6 93.6 20.6 0 0 89.7 29.9 129.2 91 39.5 61.1 45.8 162.3 45.8 162.3l12.8 80.4-63.1 29.5"/>
					<path id="&lt;Path&gt;" class="s4" d="m860.1 275.5c-8.1 0-14.6-6.5-14.6-14.6v-23.1"/>
					<path id="&lt;Path&gt;" class="s4" d="m829.1 306.9c0 0 21.7 18.5 49.3 0"/>
					<path id="&lt;Path&gt;" class="s5" d="m910.9 215c0 5.2-4.1 9.4-9.3 9.4-5.2 0-9.4-4.2-9.4-9.4 0-5.2 4.2-9.4 9.4-9.4 5.2 0 9.3 4.2 9.3 9.4z"/>
					<path id="&lt;Path&gt;" class="s5" d="m804.9 215c0 5.2-4.2 9.4-9.4 9.4-5.1 0-9.3-4.2-9.3-9.4 0-5.2 4.2-9.4 9.3-9.4 5.2 0 9.4 4.2 9.4 9.4z"/>
					<path id="&lt;Path&gt;" class="s4" d="m765 200l-39.7-16.9"/>
					<path id="&lt;Path&gt;" class="s4" d="m933.8 200l38.1-16.2"/>
					<path id="&lt;Path&gt;" class="s4" d="m866.8 215.7h-33.9"/>
					<path id="&lt;Path&gt;" class="s4" d="m927.9 163.2c0 0-22.5-11.4-52.7 2.6"/>
					<path id="&lt;Path&gt;" class="s4" d="m769.2 163.2c0 0 22.5-11.4 52.7 2.6"/>
					<path id="&lt;Path&gt;" class="s4" d="m935.6 215c0 18.8-15.3 34-34 34-18.8 0-34-15.2-34-34 0-18.8 15.2-34 34-34 18.7 0 34 15.2 34 34z"/>
					<path id="&lt;Path&gt;" class="s4" d="m829.5 215c0 18.8-15.2 34-34 34-18.7 0-33.9-15.2-33.9-34 0-18.8 15.2-34 33.9-34 18.8 0 34 15.2 34 34z"/>
				</g>
				<g id="&lt;Group&gt;">
					<path id="&lt;Path&gt;" class="s0" d="m1106.1 752.2c-2.8-31.9 13-117.2 41.3-182.6 28.2-65.4 91.3-97.4 107.1-28.8 15.7 68.7-9.8 211.4-9.8 211.4"/>
					<path id="&lt;Path&gt;" class="s6" d="m1177.4 524.1c0 0 13.6 50.9 9.2 76.4-4.5 25.4-24.1 17.5-28.5 2.8-4.4-14.8-7.9-39.8-7.9-39.8"/>
					<path id="&lt;Path&gt;" class="s6" d="m1134.3 603.7c0 0 26.6 60 21.9 85.7-4.6 25.7-26.4 21.1-39.3-24"/>
					<path id="&lt;Path&gt;" class="s4" d="m1106.1 752.2c-2.8-31.9 13-117.2 41.3-182.6 28.2-65.4 91.3-97.4 107.1-28.8 15.7 68.7-9.8 211.4-9.8 211.4"/>
					<path id="&lt;Path&gt;" class="s4" d="m1177.4 524.1c0 0 13.6 50.9 9.2 76.4-4.5 25.4-24.1 17.5-28.5 2.8-4.4-14.8-7.9-39.8-7.9-39.8"/>
					<path id="&lt;Path&gt;" class="s4" d="m1134.3 603.7c0 0 26.6 60 21.9 85.7-4.6 25.7-26.4 21.1-39.3-24"/>
				</g>
				<path id="&lt;Path&gt;" class="s7" d="m898.1 752.9c-5.3 0-2.9-1.6-4.2-10.2-1.2-8.5-0.7-15.5-0.8-25.4-0.1-9.8-5.5-43.8-5.6-48.6 0-4.8 1.1-5.4 4.8-6.1 3.7-0.7 7.7 0.1 18-1.9 10.3-2 22.6-10.1 25.3-12 2.7-1.9 3.9-0.9 5.6 1.1 1.8 1.9 3.4 3.2 9.7 7.2 6.3 4 23.5 11.4 32.5 14.2 8.9 2.9 27.9 4.2 37.5 3.6 9.7-0.7 10.2 5.7 11.7 7.4 1.4 1.6 11.3 13 17.6 22.9 6.2 9.8 24.6 40.8 25.7 43 1.1 2.2 3 4.8-1.4 4.8 0 0-171 0-176.4 0z"/>
				<path id="&lt;Path&gt;" class="s4" d="m452.8 1007.5l-78.1-48.6 46-224.7c0 0 17.4-102.8 56.9-163.9 39.4-61.1 129.2-91 129.2-91 0 0 41-14.2 93.6-20.6 50.7-6.1 89.4-55.8 88.3-100.8"/>
				<path id="&lt;Path&gt;" class="s4" d="m452.8 1006.8c-2.9-1.6-5.7-3.4-8.1-5-6.2-4.2-54.9-34.1-61.5-38.2-6.7-4.2-7.7-8.2-7.7-8.2l1.8-8.8 33.7-164.7c0 0 19.8-96.5 26.2-116.5 6.3-20.1 16.4-50.4 19.5-56.2"/>
				<path id="&lt;Path&gt;" class="s4" d=""/>
				<path id="&lt;Path&gt;" class="s4" d=""/>
				<path id="&lt;Path&gt;" class="s6" d="m1278.8 771.4v503.4c0 10.2-8.3 18.5-18.5 18.5h-876.8c-10.3 0-18.6-8.3-18.6-18.5v-503.4c0-10.2 8.3-18.5 18.6-18.5h876.8c10.2 0 18.5 8.3 18.5 18.5z"/>
				<path id="&lt;Path&gt;" class="s4" d="m1278.8 771.4v503.4c0 10.2-8.3 18.5-18.5 18.5h-876.8c-10.3 0-18.6-8.3-18.6-18.5v-503.4c0-10.2 8.3-18.5 18.6-18.5h876.8c10.2 0 18.5 8.3 18.5 18.5z"/>
				<g id="&lt;Group&gt;">
					<path id="&lt;Path&gt;" class="s7" d="m819.4 588.8c0 0-18.3-6.9-28.7-21.6-10.5-14.7-10.3-30.6 1-37.5 11.2-6.8 35.7 1.8 46.3 17.6"/>
					<path id="&lt;Path&gt;" class="s7" d="m904.2 525.6c-2.1-18.9 11.2-41.2 24.2-43.2 12.9-2 23.3 10.1 24.8 28.1 1.5 18-8.1 35-8.1 35"/>
					<path id="&lt;Path&gt;" class="s7" d="m886 663.2c0 0 12.3 72 6.3 117.9-6.1 45.9-49.2 87.1-63.2 52.4-14-34.7-6.7-108.4 0-137 6.7-28.5 19.6-46.1 19.6-46.1"/>
					<path id="&lt;Path&gt;" class="s7" d="m963.7 605.2c0 0 40.1-11.5 74.5-5.3 34.5 6.2 50.5 28.4 43.8 48.2-6.8 19.8-51.2 28.8-81 26.8-39.7-2.6-61.4-27.7-61.4-27.7"/>
					<path id="&lt;Path&gt;" class="s7" d="m963.4 578.5c8.2 37.2-17.1 74.4-56.3 83-39.3 8.6-77.8-14.6-86-51.8-8.1-37.2 17.1-74.3 56.4-82.9 39.3-8.7 77.8 14.5 85.9 51.7z"/>
					<path id="&lt;Path&gt;" class="s4" d="m963.4 578.5c8.2 37.2-17.1 74.4-56.3 83-39.3 8.6-77.8-14.6-86-51.8-8.1-37.2 17.1-74.3 56.4-82.9 39.3-8.7 77.8 14.5 85.9 51.7z"/>
					<path id="&lt;Path&gt;" class="s5" d="m939 582.1c0 5.2-4.2 9.4-9.5 9.4-5.2 0-9.4-4.2-9.4-9.4 0-5.3 4.2-9.5 9.4-9.5 5.3 0 9.5 4.2 9.5 9.5z"/>
					<path id="&lt;Path&gt;" class="s5" d="m934.1 558.1c0 2.8-4.8 5-10.6 5-5.8 0-10.5-2.2-10.5-5 0-2.8 4.7-5.1 10.5-5.1 5.8 0 10.6 2.3 10.6 5.1z"/>
					<path id="&lt;Path&gt;" class="s5" d="m858.5 605.3c2.5-4.6 8.3-6.2 12.9-3.7 4.5 2.5 6.2 8.3 3.7 12.9-2.5 4.5-8.3 6.2-12.9 3.7-4.6-2.5-6.2-8.3-3.7-12.9z"/>
					<path id="&lt;Path&gt;" class="s5" d="m844.2 590.6c2.9-5.1 7.1-8.2 9.6-6.8 2.4 1.3 2.1 6.6-0.7 11.7-2.8 5.1-7.1 8.1-9.5 6.8-2.5-1.4-2.2-6.6 0.6-11.7z"/>
					<path id="&lt;Path&gt;" class="s5" d="m909.3 599.6c1.5 3.1-1.6 7.8-6.9 10.5-5.4 2.6-11 2.2-12.6-0.9-1.5-3.1 1.6-7.8 7-10.5 5.4-2.6 11-2.2 12.5 0.9z"/>
					<g id="&lt;Group&gt;">
						<path id="&lt;Path&gt;" class="s4" d="m916.4 608.4c0 0-2.5 8.5-8.3 7.6-5.8-1-6.2-8.3-6.2-8.3"/>
						<path id="&lt;Path&gt;" class="s4" d="m901.4 608.6c0 0 4.8 7.5 0.3 11.2-4.5 3.8-10.3-0.7-10.3-0.7"/>
					</g>
					<path id="&lt;Path&gt;" class="s4" d="m904.2 525.6c-2.1-18.9 11.2-41.2 24.2-43.2 12.9-2 23.3 10.1 24.8 28.1 1.5 18-8.1 35-8.1 35"/>
					<path id="&lt;Path&gt;" class="s4" d="m819.4 588.8c0 0-18.3-6.9-28.7-21.6-10.5-14.7-10.3-30.6 1-37.5 11.2-6.8 35.7 1.8 46.3 17.6"/>
					<path id="&lt;Path&gt;" class="s4" d="m963.7 605.2c0 0 40.1-11.5 74.5-5.3 34.5 6.2 50.5 28.4 43.8 48.2-6.8 19.8-51.2 28.8-81 26.8-39.7-2.6-61.4-27.7-61.4-27.7"/>
					<path id="&lt;Path&gt;" class="s4" d="m886 663.2c0 0 12.3 72 6.3 117.9-6.1 45.9-49.2 87.1-63.2 52.4-14-34.7-6.7-108.4 0-137 6.7-28.5 19.6-46.1 19.6-46.1"/>
					<path id="&lt;Path&gt;" class="s4" d="m1026.3 675.2c0 0 27.4 27.6 52 77.7"/>
				</g>
				<g id="&lt;Group&gt;">
					<g id="&lt;Group&gt;">
						<path id="&lt;Path&gt;" class="s0" d="m473.8 1286.9c0 72-20.6 59.6-31.5 49-10.9-10.7-6.1-4.2-6.7-50.8-0.3-21.3 38.2-70.1 38.2 1.8z"/>
						<path id="&lt;Path&gt;" class="s0" d="m513.5 1286.9c0 72-20.6 59.6-31.5 49-10.9-10.7-6.8-12.1-6.6-50.8 0.1-21.3 38.1-70.1 38.1 1.8z"/>
						<path id="&lt;Path&gt;" class="s0" d="m553.3 1286.9c0 72-20.6 59.6-31.5 49-10.9-10.7-8.6 6.8-6.7-50.8 0.7-21.3 38.2-70.1 38.2 1.8z"/>
						<path id="&lt;Path&gt;" class="s0" d="m593 1286.9c0 72-20.5 59.6-31.4 49-10.9-10.7-8.6 6.8-6.7-50.8 0.7-21.3 38.1-70.1 38.1 1.8z"/>
					</g>
					<g id="&lt;Group&gt;">
						<path id="&lt;Path&gt;" class="s4" d="m473.8 1286.9c0 72-28.1 60.7-34.2 46.7-3.2-7.5-5.6-3.6-4-48.5 0.8-21.3 38.2-70.1 38.2 1.8z"/>
						<path id="&lt;Path&gt;" class="s4" d="m513.5 1286.9c0 72-20.6 59.6-31.5 49-10.9-10.7-8.2-14.3-6.6-50.8 0.9-21.3 38.1-70.1 38.1 1.8z"/>
						<path id="&lt;Path&gt;" class="s4" d="m553.3 1286.9c0 72-20.6 59.6-31.5 49-10.9-10.7-8.9-9-6.7-50.8 1.2-21.3 38.2-70.1 38.2 1.8z"/>
						<path id="&lt;Path&gt;" class="s4" d="m593 1286.9c0 72-20.5 59.6-31.4 49-10.9-10.7-9.5-8.5-6.7-50.8 1.4-21.3 38.1-70.1 38.1 1.8z"/>
					</g>
				</g>
				<path id="&lt;Path&gt;" class="s4" d="m435.7 1325.1l-21.4-30.5"/>
				<g id="&lt;Group&gt;">
					<g id="&lt;Group&gt;">
						<path id="&lt;Path&gt;" class="s0" d="m1209.6 1285.1c-0.5 46.6 4.3 40.1-6.6 50.8-10.9 10.6-31.5 23-31.5-49 0-71.9 38.4-23.1 38.1-1.8z"/>
						<path id="&lt;Path&gt;" class="s0" d="m1169.9 1285.1c0.1 38.7 4.2 40.1-6.7 50.8-10.9 10.6-31.5 23-31.5-49 0-71.9 38.1-23.1 38.2-1.8z"/>
						<path id="&lt;Path&gt;" class="s0" d="m1130.1 1285.1c1.9 57.6 4.2 40.1-6.7 50.8-10.9 10.6-31.4 23-31.4-49 0-71.9 37.4-23.1 38.1-1.8z"/>
						<path id="&lt;Path&gt;" class="s0" d="m1090.3 1285.1c1.9 57.6 4.3 40.1-6.6 50.8-10.9 10.6-31.5 23-31.5-49 0-71.9 37.4-23.1 38.1-1.8z"/>
					</g>
					<g id="&lt;Group&gt;">
						<path id="&lt;Path&gt;" class="s4" d="m1209.6 1285.1c1.6 44.9-0.8 41-4 48.5-6 14-34.1 25.3-34.1-46.7 0-71.9 37.4-23.1 38.1-1.8z"/>
						<path id="&lt;Path&gt;" class="s4" d="m1169.9 1285.1c1.5 36.5 4.2 40.1-6.7 50.8-10.9 10.6-31.5 23-31.5-49 0-71.9 37.3-23.1 38.2-1.8z"/>
						<path id="&lt;Path&gt;" class="s4" d="m1130.1 1285.1c2.3 41.8 4.2 40.1-6.7 50.8-10.9 10.6-31.4 23-31.4-49 0-71.9 37-23.1 38.1-1.8z"/>
						<path id="&lt;Path&gt;" class="s4" d="m1090.3 1285.1c2.8 42.3 4.3 40.1-6.6 50.8-10.9 10.6-31.5 23-31.5-49 0-71.9 36.8-23.1 38.1-1.8z"/>
					</g>
				</g>
				<path id="&lt;Path&gt;" class="s4" d="m1209.5 1325.1l21.4-30.5"/>
				<g id="&lt;Group&gt;">
					<path id="&lt;Path&gt;" class="s8" d="m408.5 578.9v-105.1l70.5 71.4 96.3 207.7h-90.9z"/>
					<path id="&lt;Path&gt;" class="s1" d="m466.7 570c-3-1.1-5.9-1.4-6.4 2.8-0.5 4.1 2.3 27.9 1 29.5-1.2 1.6-25.1-13.8-25.1-13.8 0 0-4.4-3.4-5.9-0.5-1.4 2.8-2 13.3-3.8 20.6-1.8 7.4-3.7 4-4.8 1.5-1.2-2.5-9.4-20.8-11.1-25.3-1.6-4.5-1.6-7.9-2.5-14-0.8-6 1-46.8 1.8-50.4 0.8-3.7 2-2.8 4.1-4.8 2.2-2.1 20.4-9.7 22.5-10.1 2-0.5 39.9 36.1 39.9 36.1 0 0 3.4 3.5 4.5 5.6 1.1 2.1 12.4 27.7 12.8 29 0.4 1.4-0.2 1.5-3.6 2.1 0 0-20.4-7.2-23.4-8.3z"/>
					<path id="&lt;Path&gt;" class="s9" d="m413.2 516c-3.1 0.9-3.9-0.2-4.3-3.1-0.5-2.9-0.8-28.3 0-33.4 0.7-5.2 1.9-3.3 2.6-2.6 0.7 0.7 22.3 21.7 24.1 24.4 1.7 2.6 0.9 4.2 0.9 4.2l-6 2c0 0-14.3 7.6-17.3 8.5z"/>
					<path id="&lt;Path&gt;" class="s4" d="m408.5 578.9v-105.1l70.5 71.4 96.3 207.7h-90.9z"/>
					<path id="&lt;Path&gt;" class="s4" d="m425.7 618.3l4.5-34.2 31.5 19.7-1.7-36.4 34.9 12.1"/>
					<path id="&lt;Path&gt;" class="s4" d="m438.4 504.1l-29.9 14.1"/>
					<path id="&lt;Path&gt;" class="s4" d="m486.9 618l62.9 134.9"/>
					<path id="&lt;Path&gt;" class="s4" d="m452.7 618l63 134.9"/>
				</g>
				<path id="&lt;Path&gt;" class="s0" d="m834.3 1130.9v0.1q0 0 0 0 0 0 0 0 0 0 0 0 0 0-0.1 0v-0.1c-117.6-60.5-119.3-137.6-119.2-145.2q0-0.2 0-0.5c-0.7-34.8 23.9-67.2 61.7-67.9 30.1-0.6 47.9 20.7 54.3 40.8 5.5-20.3 22.6-42.3 52.6-42.8 37.9-0.8 63.7 30.6 64.3 65.4q0 0.3 0 0.6c0.4 7.6 1.7 84.6-113.6 149.6z"/>
				<g id="&lt;Group&gt;">
					<g id="&lt;Group&gt;">
						<path id="&lt;Path&gt;" class="s8" d="m621.3 752.4c0 0-4.7 0-6.4 0-1.7 0-3.5-1.2-3.7-1.3-0.3-0.1-19.5-75.2-19.5-75.2l-39.7-151.1c0 0-7.1-26-7.7-28.5-0.6-2.4-2.6-9.4-1.8-13.7 0.8-4.3 5.1-5.8 7.9-6.1 2.7-0.4 6.8 2.2 10.6 3.4 3.9 1.3 12.4 1.5 15.5 1.2 3-0.3 7-3.2 9.4-5.9 2.4-2.8 4.7-9.2 5.4-12.5 0.6-3.2 2.1-9.8 2.1-13.2 0-3.5 0.9-6.8 3.9-8.7 3-1.8 6.1-0.6 8.9 0.9 2.9 1.5 74.5 53.4 74.5 53.4l67.3 47.8 1.1 1.6 27.9 100.2 28.7 103.2c0 0 0.6 2.4 0.9 3.2 0.2 0.9-1.3 1.6-5.6 1.8z"/>
						<path id="&lt;Path&gt;" class="s9" d="m607.9 460l62.3 42.3 52.4 35.5c0 0 12.8 6.9 12.9 13.3 0.1 6.3-2.4 14.4-5.6 18-3.3 3.6-7.5 7-12.6 8-5.2 1-7 1.3-14.1 0.6-7-0.7-13.2-2.2-16.2-3.5-3.1-1.3-7.4-4-10.7-6.5-3.3-2.5-31.1-23.2-31.1-23.2 0 0-79.9-59.8-80.9-60.5-0.9-0.7-2.1-2.3 0.7-2.4 2.9-0.1 13.5 0.2 18.7-4.3 5.1-4.5 7.3-11.8 8.4-18.6 1.1-6.7 2.6-8.9 4.4-7.3 1.9 1.7 11.4 8.6 11.4 8.6z"/>
						<path id="&lt;Path&gt;" class="s4" d="m611.8 752.4l-69.5-264.6c-0.7-2.6-0.1-5.5 1.5-7.7 3-4 8.7-4.9 12.8-1.9l123.1 92.1c2.9 2.1 6 3.7 9.4 4.5 6.9 1.8 18.5 4.4 25.4 3 17.7-3.6 20.6-17.2 20.7-25.4 0-3.8-1.9-7.4-5.1-9.5l-133.6-90.6c-3.2-2.1-4-6.5-1.8-9.7 2.2-3.1 6.5-3.9 9.7-1.7l144.4 102.5 58.1 209z"/>
						<path id="&lt;Path&gt;" class="s4" d="m695.8 613.2l38.7 139.2"/>
						<path id="&lt;Path&gt;" class="s4" d="m593.6 448.1c0 0 0.2 14-6.1 24.8-6.3 10.7-22.8 10.7-32.3 4.5"/>
						<path id="&lt;Path&gt;" class="s4" d="m590.7 465.9l117.6 80.3"/>
						<path id="&lt;Path&gt;" class="s4" d="m580.4 479.3l107.6 74.9"/>
					</g>
					<path id="&lt;Path&gt;" class="s4" d="m758.3 637.5l-34.1 11.3"/>
					<path id="&lt;Path&gt;" class="s4" d="m769.6 670.6l-34.1 11.4"/>
					<path id="&lt;Path&gt;" class="s4" d="m780.9 703.7l-34 11.4"/>
				</g>
			</g>
			<path id="&lt;Path&gt;" class="s6" d="m1358.8 742.3c0 7.2-5.8 13-13 13-7.1 0-12.9-5.8-12.9-13 0-7.1 5.8-12.9 12.9-12.9 7.2 0 13 5.8 13 12.9z"/>
			<path id="&lt;Path&gt;" class="s6" d="m358.6 563.1c0 7.2-5.8 13-12.9 13-7.2 0-13-5.8-13-13 0-7.1 5.8-13 13-13 7.1 0 12.9 5.9 12.9 13z"/>
			<path id="&lt;Path&gt;" class="s1" d="m649.4 1350.5c0 3.6-2.9 6.5-6.5 6.5-3.6 0-6.5-2.9-6.5-6.5 0-3.5 2.9-6.5 6.5-6.5 3.6 0 6.5 3 6.5 6.5z"/>
			<path id="&lt;Path&gt;" class="s8" d="m179.1 794.1c0 3.6-2.9 6.5-6.5 6.5-3.6 0-6.5-2.9-6.5-6.5 0-3.6 2.9-6.5 6.5-6.5 3.6 0 6.5 2.9 6.5 6.5z"/>
			<path id="&lt;Path&gt;" class="s8" d="m1377.6 685.5c0 3.6-2.9 6.5-6.4 6.5-3.6 0-6.5-2.9-6.5-6.5 0-3.6 2.9-6.5 6.5-6.5 3.5 0 6.4 2.9 6.4 6.5z"/>
		</g>
	</g>
</svg>