<svg version="1.2" xmlns="http://www.w3.org/2000/svg" viewBox="0 0 1600 1400" width="1600" height="1400">
	<title>Let's be Responsible-ai</title>
	<style>
		.s0 { fill: #fff8e1 } 
		.s1 { fill: #bcebf1 } 
		.s2 { fill: #ffe8ad } 
		.s3 { fill: #00bbd6 } 
		.s4 { fill: none;stroke: #000000;stroke-linecap: round;stroke-linejoin: round;stroke-width: 2.6 } 
		.s5 { fill: #fc6140 } 
		.s6 { fill: #ffd740 } 
	</style>
	<g id="Layer 1">
		<g id="&lt;Group&gt;">
			<path id="&lt;Path&gt;" class="s0" d="m314.3 1168.4c0 0-12.4-41.4-96.8-265.2-104.2-276.5 207.3-292.9 566.6-473.1 169.1-84.8 375.5 129.8 509.1 231.2 167.2 126.9 114.9 343.8 29.6 507.1z"/>
			<path id="&lt;Path&gt;" class="s1" d="m892.9 416.3c0 51.3-41.6 92.9-92.9 92.9-51.3 0-92.9-41.6-92.9-92.9 0-51.3 41.6-93 92.9-93 51.3 0 92.9 41.7 92.9 93z"/>
			<path id="&lt;Path&gt;" class="s1" d="m354.3 929c0 31.4-25.5 56.9-56.9 56.9-31.4 0-56.9-25.5-56.9-56.9 0-31.4 25.5-56.9 56.9-56.9 31.4 0 56.9 25.5 56.9 56.9z"/>
			<path id="&lt;Path&gt;" class="s1" d="m1172.9 749.5c0 5.4-4.3 9.8-9.8 9.8-5.4 0-9.7-4.4-9.7-9.8 0-5.4 4.3-9.8 9.7-9.8 5.5 0 9.8 4.4 9.8 9.8z"/>
			<path id="&lt;Path&gt;" class="s2" d="m363.9 1165.8c0 0-28.6-123.7-30.4-166.5-1.7-42.9 24.4-103.4 44-58.3 19.6 45.2 34.7 90.4 34.7 90.4 3.7-66.1 3.1-70.8 48.4-140.7 45.3-70 89.2-66.4 79 11.2-10.3 77.6-8.9 127.6-8.9 127.6 66.8-84.6 117.4-93.3 106.5-52.5-10.9 40.7-43.8 106.6-43.8 106.6 0 0 45.2-34.3 98.5-61.9 53.4-27.7 77.7-17.3 37.2 35.6-40.4 53-115.4 111.5-115.4 111.5z"/>
			<g id="&lt;Group&gt;">
				<path id="&lt;Path&gt;" class="s3" d="m796.5 1168.1c0 0 224.3-231.9 383.1-333.2 158.9-101.3 166.6 86 25 333.5"/>
				<path id="&lt;Path&gt;" class="s4" d="m796.5 1168.1c0 0 224.3-231.9 383.1-333.2 158.9-101.3 166.6 86 25 333.5"/>
				<path id="&lt;Path&gt;" class="s4" d="m1278.1 815.5l-259.7 352.9"/>
				<path id="&lt;Path&gt;" class="s4" d="m1299.8 916.8l-126.4 41 3.5-121.2"/>
				<path id="&lt;Path&gt;" class="s4" d="m1271.2 1025.8l-181.3 45.6-15.2-159.1"/>
				<path id="&lt;Path&gt;" class="s4" d="m1228.4 1123.7l-210 44.7-47.7-166.6"/>
			</g>
			<g id="&lt;Group&gt;">
				<path id="&lt;Path&gt;" class="s5" d="m453.2 1168.4c-88.6-154.8-83.8-271.9 15.6-208.6 99.4 63.4 239.6 208.4 239.6 208.4"/>
				<path id="&lt;Path&gt;" class="s4" d="m453.2 1168.4c-88.6-154.8-83.8-271.9 15.6-208.6 99.4 63.4 239.6 208.4 239.6 208.4"/>
				<path id="&lt;Path&gt;" class="s4" d="m407.2 947.7l162.4 220.7"/>
				<path id="&lt;Path&gt;" class="s4" d="m470.5 960.9l2.2 75.8-79.1-25.7"/>
				<path id="&lt;Path&gt;" class="s4" d="m534.4 1008.2l-9.4 99.5-113.5-28.5"/>
				<path id="&lt;Path&gt;" class="s4" d="m599.5 1064.2l-29.9 104.2-131.3-28"/>
			</g>
			<g id="&lt;Group&gt;">
				<path id="&lt;Path&gt;" class="s3" d="m570 1168.4c-165.2-288.7-156.3-507.3 29.1-389.1 185.3 118.2 446.9 388.7 446.9 388.7"/>
				<path id="&lt;Path&gt;" class="s4" d="m570 1168.4c-165.2-288.7-156.3-507.3 29.1-389.1 185.3 118.2 446.9 388.7 446.9 388.7"/>
				<path id="&lt;Path&gt;" class="s4" d="m484.3 756.7l302.8 411.7"/>
				<path id="&lt;Path&gt;" class="s4" d="m602.3 781.4l4.1 141.4-147.5-47.9"/>
				<path id="&lt;Path&gt;" class="s4" d="m721.5 869.6l-17.7 185.6-211.5-53.2"/>
				<path id="&lt;Path&gt;" class="s4" d="m842.9 974.1l-55.8 194.3-244.9-52.2"/>
			</g>
			<g id="&lt;Group&gt;">
				<g id="&lt;Group&gt;">
					<path id="&lt;Path&gt;" class="s6" d="m812.3 863.9c0 25.6-20.8 46.3-46.3 46.3-25.6 0-46.3-20.7-46.3-46.3 0-25.6 20.7-46.3 46.3-46.3 25.5 0 46.3 20.7 46.3 46.3z"/>
				</g>
				<path id="&lt;Path&gt;" class="s4" d="m812.3 863.9c0 25.6-20.8 46.3-46.3 46.3-25.6 0-46.3-20.7-46.3-46.3 0-25.6 20.7-46.3 46.3-46.3 25.5 0 46.3 20.7 46.3 46.3z"/>
				<path id="&lt;Path&gt;" class="s2" d="m800 863.9c0 18.8-15.2 34.1-34 34.1-18.8 0-34.1-15.3-34.1-34.1 0-18.8 15.3-34 34.1-34 18.8 0 34 15.2 34 34z"/>
				<path id="&lt;Path&gt;" class="s4" d="m800 863.9c0 18.8-15.2 34.1-34 34.1-18.8 0-34.1-15.3-34.1-34.1 0-18.8 15.3-34 34.1-34 18.8 0 34 15.2 34 34z"/>
			</g>
			<g id="&lt;Group&gt;">
				<g id="&lt;Group&gt;">
					<path id="&lt;Path&gt;" class="s6" d="m1063.1 751.3c0 25.5-20.7 46.3-46.3 46.3-25.6 0-46.3-20.8-46.3-46.3 0-25.6 20.7-46.3 46.3-46.3 25.6 0 46.3 20.7 46.3 46.3z"/>
				</g>
				<path id="&lt;Path&gt;" class="s4" d="m1063.1 751.3c0 25.5-20.7 46.3-46.3 46.3-25.6 0-46.3-20.8-46.3-46.3 0-25.6 20.7-46.3 46.3-46.3 25.6 0 46.3 20.7 46.3 46.3z"/>
				<path id="&lt;Path&gt;" class="s2" d="m1050.8 751.3c0 18.8-15.2 34-34 34-18.8 0-34.1-15.2-34.1-34 0-18.8 15.3-34.1 34.1-34.1 18.8 0 34 15.3 34 34.1z"/>
				<path id="&lt;Path&gt;" class="s4" d="m1050.8 751.3c0 18.8-15.2 34-34 34-18.8 0-34.1-15.2-34.1-34 0-18.8 15.3-34.1 34.1-34.1 18.8 0 34 15.3 34 34.1z"/>
			</g>
			<g id="&lt;Group&gt;">
				<path id="&lt;Path&gt;" class="s6" d="m676.3 882.9v285.9h-177.2v-275.9z"/>
			</g>
			<g id="&lt;Group&gt;">
				<path id="&lt;Path&gt;" class="s0" d="m740 637.8l31-93.8c-28.6-65.5-99.2-93.7-126.1-61.3-27 32.4 20.5 104.5 50.3 152.1 29.7 47.7 4 73.8 4 73.8 0 0-150.6-145.5-195.5-179.8-45-34.2-60.5-112.9-60.5-112.9l-119.5-35.5 44.4-121.3c0 0 98.6 46.2 151.6 63.9 52.9 17.7 195.8 51.4 236.1 91.1 40.3 39.7 80.5 126.5 80.5 126.5l-37.8 86"/>
				<path id="&lt;Path&gt;" class="s4" d="m740 637.8l31-93.8c-28.6-65.5-99.2-93.7-126.1-61.3-27 32.4 20.5 104.5 50.3 152.1 29.7 47.7 4 73.8 4 73.8 0 0-150.6-145.5-195.5-179.8-45-34.2-60.5-112.9-60.5-112.9l-119.5-35.5 44.4-121.3c0 0 98.6 46.2 151.6 63.9 52.9 17.7 195.8 51.4 236.1 91.1 40.3 39.7 80.5 126.5 80.5 126.5l-37.8 86"/>
				<g id="&lt;Group&gt;">
					<g id="&lt;Group&gt;">
						<path id="&lt;Path&gt;" class="s6" d="m854 681.7c9.5 39.9-15.1 79.9-54.9 89.4-39.9 9.4-79.8-15.2-89.3-55-9.5-39.8 15.1-79.8 54.9-89.3 39.9-9.5 79.9 15.1 89.3 54.9z"/>
					</g>
					<path id="&lt;Path&gt;" class="s2" d="m820.8 689.7c5.1 21.4-8.2 43-29.6 48.1-21.5 5.1-43.1-8.1-48.2-29.6-5.1-21.5 8.2-43.1 29.6-48.2 21.5-5.1 43.1 8.2 48.2 29.7z"/>
					<path id="&lt;Path&gt;" class="s4" d="m820.8 689.7c5.1 21.4-8.2 43-29.6 48.1-21.5 5.1-43.1-8.1-48.2-29.6-5.1-21.5 8.2-43.1 29.6-48.2 21.5-5.1 43.1 8.2 48.2 29.7z"/>
					<path id="&lt;Path&gt;" class="s4" d="m854 681.7c9.5 39.9-15.1 79.9-54.9 89.4-39.9 9.4-79.8-15.2-89.3-55-9.5-39.8 15.1-79.8 54.9-89.3 39.9-9.5 79.9 15.1 89.3 54.9z"/>
				</g>
			</g>
			<g id="&lt;Group&gt;">
				<path id="&lt;Path&gt;" class="s3" d="m795 846.9l107.4-95 67.3 73.4-23.6 21.6"/>
				<path id="&lt;Path&gt;" class="s4" d="m795 846.9l107.4-95 67.3 73.4-23.6 21.6"/>
				<path id="&lt;Path&gt;" class="s1" d="m815.4 846.9l85.5-77.5 50.4 57-23 20.5"/>
				<path id="&lt;Path&gt;" class="s4" d="m815.4 846.9l85.5-77.5 50.4 57-23 20.5"/>
			</g>
			<path id="&lt;Path&gt;" class="s5" d="m1053.7 892.9v275.9h-377.4v-275.9"/>
			<g id="&lt;Group&gt;">
				<path id="&lt;Path&gt;" class="s6" d="m1071.7 892.9h-419.2v-46h419.2z"/>
			</g>
			<path id="&lt;Path&gt;" class="s4" d="m1071.7 892.9h-419.2v-46h419.2z"/>
			<path id="&lt;Path&gt;" class="s5" d="m485.5 846.9h167v46h-167z"/>
			<path id="&lt;Path&gt;" class="s4" d="m485.5 846.9h167v46h-167z"/>
			<path id="&lt;Path&gt;" class="s4" d="m1053.7 892.9v275.9h-377.4v-275.9"/>
			<path id="&lt;Path&gt;" class="s2" d="m995.4 942.3v159.2h-256.9v-159.2z"/>
			<path id="&lt;Path&gt;" class="s4" d="m995.4 942.3v159.2h-256.9v-159.2z"/>
			<path id="&lt;Path&gt;" class="s4" d="m676.3 1168.8h-177.2v-275.9"/>
			<g id="&lt;Group&gt;">
				<g id="&lt;Group&gt;">
					<path id="&lt;Path&gt;" class="s6" d="m587.7 1122.5c0 25.6-20.7 46.3-46.3 46.3-25.6 0-46.3-20.7-46.3-46.3 0-25.5 20.7-46.3 46.3-46.3 25.6 0 46.3 20.8 46.3 46.3z"/>
				</g>
				<path id="&lt;Path&gt;" class="s4" d="m587.7 1122.5c0 25.6-20.7 46.3-46.3 46.3-25.6 0-46.3-20.7-46.3-46.3 0-25.5 20.7-46.3 46.3-46.3 25.6 0 46.3 20.8 46.3 46.3z"/>
				<path id="&lt;Path&gt;" class="s2" d="m575.4 1122.5c0 18.8-15.2 34.1-34 34.1-18.8 0-34.1-15.3-34.1-34.1 0-18.8 15.3-34 34.1-34 18.8 0 34 15.2 34 34z"/>
				<path id="&lt;Path&gt;" class="s4" d="m575.4 1122.5c0 18.8-15.2 34.1-34 34.1-18.8 0-34.1-15.3-34.1-34.1 0-18.8 15.3-34 34.1-34 18.8 0 34 15.2 34 34z"/>
			</g>
			<g id="&lt;Group&gt;">
				<g id="&lt;Group&gt;">
					<path id="&lt;Path&gt;" class="s6" d="m587.7 783.6c0 25.5-20.7 46.3-46.3 46.3-25.6 0-46.3-20.8-46.3-46.3 0-25.6 20.7-46.3 46.3-46.3 25.6 0 46.3 20.7 46.3 46.3z"/>
				</g>
				<path id="&lt;Path&gt;" class="s4" d="m587.7 783.6c0 25.5-20.7 46.3-46.3 46.3-25.6 0-46.3-20.8-46.3-46.3 0-25.6 20.7-46.3 46.3-46.3 25.6 0 46.3 20.7 46.3 46.3z"/>
				<path id="&lt;Path&gt;" class="s2" d="m575.4 783.6c0 18.8-15.2 34-34 34-18.8 0-34.1-15.2-34.1-34 0-18.8 15.3-34.1 34.1-34.1 18.8 0 34 15.3 34 34.1z"/>
				<path id="&lt;Path&gt;" class="s4" d="m575.4 783.6c0 18.8-15.2 34-34 34-18.8 0-34.1-15.2-34.1-34 0-18.8 15.3-34.1 34.1-34.1 18.8 0 34 15.3 34 34.1z"/>
			</g>
			<path id="&lt;Path&gt;" class="s4" d="m1401.2 1168.8h-1204.1"/>
			<path id="&lt;Path&gt;" class="s5" d="m378.8 431.1l-84-35.8 69.9-164.1 84 35.7z"/>
			<path id="&lt;Path&gt;" class="s4" d="m378.8 431.1l-84-35.8 69.9-164.1 84 35.7z"/>
			<g id="&lt;Group&gt;">
				<path id="&lt;Path&gt;" class="s6" d="m370.2 388.5c1.3 5.7-2.2 11.4-7.9 12.8-5.7 1.3-11.4-2.2-12.7-7.9-1.4-5.6 2.1-11.3 7.8-12.7 5.7-1.4 11.4 2.2 12.8 7.8z"/>
			</g>
			<path id="&lt;Path&gt;" class="s4" d="m370.2 388.5c1.3 5.7-2.2 11.4-7.9 12.8-5.7 1.3-11.4-2.2-12.7-7.9-1.4-5.6 2.1-11.3 7.8-12.7 5.7-1.4 11.4 2.2 12.8 7.8z"/>
			<path id="&lt;Path&gt;" class="s5" d="m855.2 573.5c0 1.1-0.9 2-2 2-1.1 0-1.9-0.9-1.9-2 0-1.1 0.8-2 1.9-2 1.1 0 2 0.9 2 2z"/>
			<path id="&lt;Path&gt;" class="s5" d="m1155.3 600.1c0 2.8-2.3 5-5 5-2.8 0-5.1-2.2-5.1-5 0-2.8 2.3-5.1 5.1-5.1 2.7 0 5 2.3 5 5.1z"/>
			<path id="&lt;Path&gt;" class="s5" d="m1326.8 950.6c0 1.1-0.9 2-2 2-1.1 0-2-0.9-2-2 0-1.1 0.9-2 2-2 1.1 0 2 0.9 2 2z"/>
			<path id="&lt;Path&gt;" class="s5" d="m429.9 760.2c0 1.1-0.9 1.9-2 1.9-1.1 0-2-0.8-2-1.9 0-1.1 0.9-2 2-2 1.1 0 2 0.9 2 2z"/>
			<path id="&lt;Path&gt;" class="s5" d="m416.2 467.6c0 2.1-1.7 3.7-3.7 3.7-2.1 0-3.7-1.6-3.7-3.7 0-2 1.6-3.7 3.7-3.7 2 0 3.7 1.7 3.7 3.7z"/>
			<path id="&lt;Path&gt;" class="s5" d="m923.8 337.4c0 1.1-0.9 2-2 2-1.1 0-2-0.9-2-2 0-1.1 0.9-2 2-2 1.1 0 2 0.9 2 2z"/>
		</g>
	</g>
</svg>