<svg id="Layer_1" data-name="Layer 1" xmlns="http://www.w3.org/2000/svg" viewBox="0 0 700 700"><defs><style>.cls-1{fill:#e6e6ff;}.cls-1,.cls-3{opacity:0.25;}.cls-12,.cls-2,.cls-3{fill:none;}.cls-12,.cls-2{stroke:#000;stroke-linecap:round;stroke-linejoin:round;}.cls-2{stroke-width:1.3px;}.cls-3{stroke:#4c4c4c;stroke-miterlimit:10;}.cls-4{fill:#4c4c4c;}.cls-5{fill:#6059dc;}.cls-6{fill:#f3f3ff;}.cls-7{fill:#fff;}.cls-8{fill:#f5feff;}.cls-9{fill:#00bbd6;}.cls-10{fill:#a3efa9;}.cls-11{fill:#fffffe;}.cls-12{stroke-width:0.81px;}.cls-13{fill:#362d46;}.cls-14{fill:#fefefd;}</style></defs><path class="cls-1" d="M429.54,152.82s-249.06-32-293.74,121.24V384.73s54.92-114.35,293.74-118.48Z"/><path class="cls-2" d="M429.54,152.82s-249.06-32-293.74,121.24V384.73s54.92-114.35,293.74-118.48Z"/><path class="cls-2" d="M135.8,356.25s4.8-109.79,203.31-130.51"/><path class="cls-2" d="M135.8,435.18s4.8-109.79,203.31-130.51"/><polygon class="cls-3" points="447.39 456.69 447.39 465.1 402.49 490.63 402.49 482.87 447.39 456.69"/><polygon class="cls-4" points="402.49 482.87 402.49 490.63 328.44 447.05 328.44 440.14 402.49 482.87"/><polygon class="cls-1" points="447.39 456.69 402.49 482.87 328.44 440.14 370.46 415.46 370.46 442.06 403.42 460.87 408.45 457.66 408.45 434.3 447.39 456.69"/><polyline class="cls-5" points="491.24 481.89 502.39 476.57 502.39 336.47 293.13 215.37 283.5 222.21"/><polygon class="cls-6" points="491.24 342.55 491.24 481.89 447.39 456.69 408.45 434.3 403.42 431.41 370.46 412.47 283.5 362.49 283.5 222.22 491.24 342.55"/><polygon class="cls-7" points="484.48 466.69 289.4 354.71 289.4 233.61 484.48 346.6 484.48 466.69"/><polygon class="cls-5" points="403.42 431.41 403.42 460.87 370.46 442.06 370.46 412.47 403.42 431.41"/><polygon class="cls-2" points="484.15 465.68 289.07 353.7 289.07 232.6 484.15 345.59 484.15 465.68"/><polygon class="cls-2" points="491.24 342.55 491.24 481.89 447.39 456.69 408.45 434.3 403.42 431.41 370.46 412.47 283.5 362.49 283.5 222.22 491.24 342.55"/><polyline class="cls-2" points="491.24 481.89 502.39 476.57 502.39 336.47 293.13 215.37 283.5 222.21"/><polygon class="cls-5" points="408.45 434.3 408.45 457.66 403.42 460.87 403.42 431.41 408.45 434.3"/><line class="cls-2" x1="491.24" y1="342.55" x2="502.39" y2="336.47"/><line class="cls-2" x1="370.46" y1="415.46" x2="370.46" y2="412.47"/><polygon class="cls-2" points="408.45 434.3 408.45 457.66 403.42 460.87 403.42 431.41 408.45 434.3"/><polygon class="cls-2" points="447.39 456.69 447.39 465.1 402.49 490.63 402.49 482.87 447.39 456.69"/><polygon class="cls-2" points="402.49 482.87 402.49 490.63 328.44 447.05 328.44 440.14 402.49 482.87"/><polygon class="cls-2" points="447.39 456.69 402.49 482.87 328.44 440.14 370.46 415.46 370.46 442.06 403.42 460.87 408.45 457.66 408.45 434.3 447.39 456.69"/><polygon class="cls-8" points="467.96 439.61 467.96 354.83 373.31 300.24 373.31 384.47 467.96 439.61"/><polygon class="cls-9" points="417.92 375.84 395.45 345.38 373.31 346.89 373.31 384.47 408.44 404.94 417.92 375.84"/><polygon class="cls-10" points="467.96 418.82 434.77 375.84 373.31 376.92 373.31 384.47 467.96 439.61 467.96 418.82"/><polygon class="cls-8" points="358.22 341.54 358.22 292.88 303.89 261.55 303.89 309.89 358.22 341.54"/><polygon class="cls-9" points="329.5 304.94 316.6 287.46 303.89 288.33 303.89 309.89 324.06 321.64 329.5 304.94"/><polygon class="cls-10" points="358.22 329.61 339.17 304.94 303.89 305.56 303.89 309.89 358.22 341.54 358.22 329.61"/><ellipse class="cls-9" cx="346.19" cy="297.63" rx="3.15" ry="4.82" transform="translate(-109.51 269.89) rotate(-37.2)"/><polygon class="cls-2" points="467.96 439.61 467.96 354.83 373.31 300.24 373.31 384.47 467.96 439.61"/><polygon class="cls-2" points="358.22 292.83 303.89 261.55 303.89 310.11 358.22 342.55 358.22 292.83"/><ellipse class="cls-9" cx="447.01" cy="363.1" rx="5.48" ry="8.4" transform="translate(-128.58 344.17) rotate(-37.2)"/><path class="cls-11" d="M242.69,193.56v88.66s-39.18,11.9-58.61,29.27V223.43S222.88,197.22,242.69,193.56Z"/><path class="cls-5" d="M390.39,363.1l-11.63,46.38-5.47-5.74L366.63,414a4.84,4.84,0,0,1-6.73,1.4h0a4.84,4.84,0,0,1-1.44-6.6l5.13-8.25,1.2-1.93-9.21-2.4Z"/><path class="cls-12" d="M390.39,363.1l-11.63,46.38-5.47-5.74L366.63,414a4.84,4.84,0,0,1-6.73,1.4h0a4.84,4.84,0,0,1-1.44-6.6l5.13-8.25,1.2-1.93-9.21-2.4Z"/><polygon class="cls-13" points="355.58 396.18 364.79 398.58 363.59 400.51 350.54 397.14 390.39 363.1 355.58 396.18"/><polygon class="cls-12" points="355.58 396.18 364.79 398.58 363.59 400.51 350.54 397.14 390.39 363.1 355.58 396.18"/><path class="cls-2" d="M242.69,193.56v88.66s-39.18,11.9-58.61,29.27V223.43S222.88,197.22,242.69,193.56Z"/><path class="cls-2" d="M231.35,213.33a147.59,147.59,0,0,0-37.66,19"/><path class="cls-2" d="M232.22,227.25s-17.83,5.27-37.67,19"/><path class="cls-2" d="M233.08,241.16s-17.83,5.27-37.66,19"/><path class="cls-2" d="M208.84,266.25c-4,2.22-8.22,4.81-12.56,7.81"/><path class="cls-2" d="M234,255.07a112.7,112.7,0,0,0-12.45,4.82"/><path class="cls-1" d="M202.56,502.14c104.09,46.75,187,43.89,251.82,31.91,125.82-23.26,155-99.07,155-99.07V296.23S611,362.77,468.31,399.89C317.79,439,202.56,370.42,202.56,370.42Z"/><path class="cls-2" d="M234.81,269a147.44,147.44,0,0,0-37.66,19"/><path class="cls-2" d="M202.56,501.36c104.09,46.75,187,43.89,251.82,31.9,125.82-23.26,155-99.06,155-99.06V295.44S611,362,468.31,399.11c-150.52,39.15-265.75-29.47-265.75-29.47Z"/><path class="cls-2" d="M609.37,295.44s10.82-65.56-66.71-97.77"/><path class="cls-2" d="M609.37,376.44S511.47,541.78,234.81,459"/><path class="cls-2" d="M612.11,473.66s-103.94,150.88-380.6,68.15"/><path class="cls-2" d="M442.72,225.74s130.33,28.23,166.65,109"/><path class="cls-14" d="M581,370.44v85.91s-34.16,28-54.31,34.67V400.67S562.59,386.15,581,370.44Z"/><path class="cls-2" d="M581,370.44v85.91s-34.16,28-54.31,34.67V400.67S562.59,386.15,581,370.44Z"/><path class="cls-2" d="M571.13,390.76s-13.33,11.11-35.36,19.3"/><path class="cls-2" d="M572.25,404.81A181.34,181.34,0,0,1,551,416.38"/><path class="cls-2" d="M573.38,419.56s-20.87,12.82-36.19,19.74"/><path class="cls-2" d="M572.25,433.17s-20.28,15-32.91,20.88"/><line class="cls-2" x1="573.38" y1="447.02" x2="564.19" y2="453.14"/><path class="cls-2" d="M554.55,460s-12.11,8.17-20,11.69"/><path class="cls-7" d="M243.22,399.87V513.12s-55.38-23.56-78.53-48.56v-106S211.6,391,243.22,399.87Z"/><path class="cls-2" d="M243.22,399.87V513.12s-55.38-23.56-78.53-48.56v-106S211.6,391,243.22,399.87Z"/><path class="cls-2" d="M179,382.51s29.76,21.08,52.49,28.52"/><path class="cls-2" d="M177.5,401.73s34.93,21.52,53.94,27.6"/><path class="cls-2" d="M177.5,420.33s24.18,17.36,42.16,24.8"/><path class="cls-2" d="M177.5,440s29.76,22.53,53.94,29.14"/><path class="cls-2" d="M177.5,459.6a272,272,0,0,0,53.94,30.17"/></svg>