<svg id="Layer_1" enable-background="new 0 0 512 512" viewBox="0 0 512 512" xmlns="http://www.w3.org/2000/svg"><g id="XMLID_1_"><g id="XMLID_4605_"><path id="XMLID_1447_" d="m347.6 391c5.9-5.9 6.3-15.5.8-21.8l-28.6-35.6 23.4 23.4c6.7 6.7 17.6 6.7 24.2 0 6.2-6.2 6.7-16 1.3-22.8l-37.6-47.3-84-84-80.4-32.3-161.7-95.6v164.8l86.9 42.7 23.4 23.4 98.5 98.5h-.1l43.5 30c2.5 1.7 5.5 2.6 8.5 2.6 4 0 7.8-1.6 10.6-4.4 7-7 7-18.2 0-25.2l-15.2-15.2 29 20.1c6.9 5.6 17 5.1 23.3-1.2 6.8-6.8 6.8-17.8 0-24.6l-23.2-23.2 35.6 28.5c6.3 5.5 15.9 5.2 21.8-.8z" fill="#fae7d9"/><g fill="#f6c9aa"><path id="XMLID_906_" d="m98.4 130.2-6.5 152.2-86.9-42.6v-164.8z"/><path id="XMLID_1456_" d="m507 75-145.2 62.8-74.3 7.1c-19.7 1.9-38 10.5-52 24.5l-26.7 26.7c-5.4 5.4-10.1 11.6-13.9 18.2l-10.7 18.9-20.5 20.5 7.6 3.1c16.7 6.7 35.8 2.7 48.4-10.2l44.5-26.8 67 67 30.2 38 93.8-93.8 51.8-17.5z"/><path id="XMLID_1455_" d="m160 296.8c-6.2-6.2-16.1-6.7-23-1.3l-25 18.1c-8.2 6.4-8.8 18.4-1.5 25.7l3.5 3.5c6.7 6.7 17.4 7 24.2.3l21.6-21.6c6.8-6.9 7-18 .2-24.7z"/><path id="XMLID_1454_" d="m195 338.3c5.5-6.3 5.2-15.9-.8-21.8-5.9-5.9-15.5-6.3-21.8-.8l-33.3 28.1c-7 6.1-7.2 16.7-.7 23.2l5.2 5.2c6.6 6.6 17.2 6.3 23.2-.7z"/><path id="XMLID_1453_" d="m215.4 374.3c5.6-7 5.1-17.1-1.2-23.5l.1.1c-6.9-6.9-18-6.6-24.9.3l-21.2 21.2c-6.9 6.9-6.8 17.5 0 24.3l3.2 3.2c7.4 7.4 19.5 6.8 26-1.4z"/><path id="XMLID_1452_" d="m236.7 408c4.4-6.5 3.5-15.3-2-20.8-6.3-6.3-16.8-6.5-23.1-.1l-15.4 15.4c-6.3 6.3-5.9 16.6.5 23l4.2 4.2c7.2 7.2 19 6.2 24.8-2.2z"/></g><path id="XMLID_6_" d="m264.1 219.9 6.4 6.4c18 18 47.1 18 65.1 0l59 65.5-33.1 33.1-30.2-38z" fill="#f3ab7d"/><path id="XMLID_909_" d="m418.2 113.4 25 129.8 12-12 51.8-17.5v-138.7z" fill="#f3ab7d"/><path id="XMLID_1449_" d="m5 75 93.4 55.2-46.7 161.6-46.7-29.5z" fill="#3279af"/><path id="XMLID_1448_" d="m418.2 113.4 58.8 138.3 30-25.4v-151.3z" fill="#3279af"/></g><g id="XMLID_3360_"><g id="XMLID_717_"><path id="XMLID_3428_" d="m126.4 353c-5.7 0-11.4-2.2-15.9-6.7l-3.5-3.5c-4.5-4.5-6.9-10.8-6.5-17.1s3.5-12.2 8.4-16.1c.1 0 .1-.1.2-.1l24.9-18c8.9-6.9 21.6-6.2 29.5 1.8 8.7 8.7 8.6 22.9-.2 31.7l-21.6 21.6c-4.2 4.2-9.7 6.4-15.3 6.4zm-11.3-35.5c-2.7 2.2-4.3 5.3-4.6 8.7-.2 3.5 1.1 6.9 3.6 9.5l3.5 3.5c2.4 2.4 5.4 3.7 8.6 3.7 3.2.1 6.2-1.2 8.5-3.5l21.6-21.6c2.3-2.3 3.6-5.5 3.7-8.8 0-3.3-1.2-6.4-3.5-8.7-4.4-4.4-11.4-4.8-16.3-.9-.1 0-.1.1-.2.1z" fill="#101f3c"/></g><g id="XMLID_716_"><path id="XMLID_3425_" d="m155 382.1c-5.5 0-10.9-2.2-14.9-6.2l-5.2-5.2c-4.1-4.1-6.4-9.8-6.2-15.6s2.7-11.1 7.1-14.9l33.4-28.2c8.2-7.2 20.8-6.7 28.6 1 7.8 7.8 8.2 20.3 1 28.6l-28.1 33.3c-3.9 4.5-9.2 7-15 7.2-.2 0-.5 0-.7 0zm27.9-65.3c-2.6 0-5.1.9-7.2 2.7l-33.4 28.2c-2.2 1.9-3.5 4.7-3.6 7.7-.1 3.1 1.1 6 3.3 8.2l5.2 5.2c2.2 2.2 5.1 3.4 8.2 3.3 3-.1 5.7-1.4 7.7-3.7l28.1-33.3s0 0 .1-.1c3.8-4.3 3.6-10.9-.5-15-2.2-2.1-5.1-3.2-7.9-3.2z" fill="#101f3c"/></g><g id="XMLID_715_"><path id="XMLID_3422_" d="m183.8 410.2c-6 0-11.7-2.4-16-6.6l-3.2-3.2c-4.3-4.3-6.6-9.8-6.6-15.7s2.3-11.4 6.6-15.7l21.2-21.2c4.3-4.3 9.9-6.7 15.9-6.7 6-.1 11.6 2.1 15.8 6.2 0 0 .1.1.1.1s0 0 .1.1l.1.1s.1.1.1.1c7.9 8.1 8.5 20.9 1.4 29.8l-17.9 24.2s-.1.1-.1.1c-4 5-9.9 8-16.2 8.4-.5 0-.9 0-1.3 0zm18.3-59.2c-.1 0-.1 0-.2 0-3.4.1-6.6 1.4-9 3.8l-21.2 21.2c-2.4 2.4-3.7 5.4-3.7 8.6s1.3 6.3 3.7 8.6l3.2 3.2c2.5 2.5 6.1 3.9 9.6 3.7s6.7-1.8 8.9-4.6l17.9-24.2s.1-.1.1-.1c4-5 3.7-12.2-.8-16.7-2.2-2.3-5.3-3.5-8.5-3.5z" fill="#101f3c"/></g><g id="XMLID_713_"><path id="XMLID_3418_" d="m212.4 439.4c-5.6 0-11-2.2-15.1-6.3l-4.2-4.2c-8.4-8.4-8.6-21.9-.5-30l15.4-15.4c4-4 9.4-6.2 15.1-6.2s11 2.3 15.1 6.3c7.3 7.3 8.4 18.6 2.7 27l-11 19.3c-.1.1-.1.2-.2.4-3.6 5.2-9.2 8.5-15.4 9-.6 0-1.3.1-1.9.1zm10.6-52.4c-3 0-5.8 1.3-7.9 3.4l-15.4 15.5c-4.2 4.2-4 11.4.5 15.9l4.2 4.2c2.4 2.4 5.7 3.6 9 3.3 3.2-.3 6.1-1.9 8-4.6l11-19.2c.1-.1.1-.2.2-.3 3-4.4 2.4-10.8-1.4-14.6-2.2-2.2-5-3.6-8.2-3.6.1 0 .1 0 0 0z" fill="#101f3c"/></g><g id="XMLID_24_"><path id="XMLID_3415_" d="m51.7 296.8c-.9 0-1.9-.3-2.7-.8l-46.7-29.4c-1.5-.9-2.3-2.5-2.3-4.2v-187.4c0-1.8 1-3.5 2.5-4.3 1.6-.9 3.5-.9 5 0l93.4 55.2c2 1.2 2.9 3.5 2.3 5.7l-46.7 161.6c-.4 1.5-1.6 2.7-3 3.3-.6.2-1.2.3-1.8.3zm-41.7-37.2 38.7 24.4 43.8-151.5-82.5-48.7z" fill="#101f3c"/></g><g id="XMLID_90_"><path id="XMLID_3410_" d="m477 256.7c-.4 0-.8 0-1.2-.1-1.5-.4-2.8-1.4-3.4-2.9l-58.8-138.3c-1.1-2.5.1-5.5 2.6-6.5l88.8-38.5c1.5-.7 3.3-.5 4.7.4s2.3 2.5 2.3 4.2v151.3c0 1.5-.6 2.9-1.8 3.8l-30 25.3c-.9.9-2 1.3-3.2 1.3zm-52.2-140.7 54.2 127.5 23-19.5v-141.4z" fill="#101f3c"/></g><g id="XMLID_2338_"><path id="XMLID_3276_" d="m213.1 194.6-48.2-19.4c-.2-.1-.5-.2-.7-.3l-68.4-40.4 5.1-8.6 68.1 40.2 47.8 19.2z" fill="#101f3c"/></g><g id="XMLID_719_"><path id="XMLID_3275_" d="m265.8 442c-4.1 0-8-1.2-11.3-3.5l-25.6-17.6 5.7-8.2 25.6 17.6c1.7 1.2 3.6 1.8 5.7 1.8 2.7 0 5.2-1 7-2.9 5-5 5-13.1 0-18.1l-15.2-15.2c-1.8-1.8-2-4.8-.3-6.7 1.7-2 4.6-2.4 6.7-.9l29 20.1c.1.1.2.1.3.2 5 4 12.1 3.6 16.6-.9 4.8-4.8 4.8-12.7 0-17.6l-23.2-23.2c-1.9-1.9-2-4.9-.2-6.9s4.8-2.2 6.9-.6l35.6 28.5c.1 0 .1.1.1.1 4.4 3.8 10.9 3.5 15-.5 4.1-4.1 4.3-10.7.5-15 0 0-.1-.1-.1-.1l-28.6-35.6c-1.7-2.1-1.4-5.1.6-6.9s5-1.7 6.9.2l23.4 23.4c4.7 4.7 12.4 4.7 17.2 0 4.4-4.4 4.8-11.3.9-16.1l-37.5-47.1-66.8-66.8 7.1-7.1 67 67 .4.4 37.6 47.3c7 8.8 6.3 21.5-1.7 29.4-4.9 4.9-11.7 7.1-18.1 6.3 6.4 8.3 5.7 20.2-1.8 27.7s-19.5 8.2-27.8 1.7c.7 6.6-1.4 13.4-6.4 18.4-8.1 8.1-20.9 8.8-29.8 1.7l-1-.7c1.4 7.2-.7 14.9-6.3 20.5-3.8 3.8-8.8 5.9-14.1 5.9z" fill="#101f3c"/></g><g id="XMLID_718_"><path id="XMLID_3273_" d="m100.6 298.1-11.6-11.6-32.1-15.8 4.4-9 32.9 16.1c.5.2.9.6 1.3 1l12.2 12.2z" fill="#101f3c"/></g><g id="XMLID_768_"><path id="XMLID_3271_" d="m379.2 314.2-7.1-7.1 79.5-79.5c.5-.5 1.2-1 1.9-1.2l11.5-3.9 3.2 9.5-10.4 3.5z" fill="#101f3c"/></g><g id="XMLID_711_"><path id="XMLID_3270_" d="m188 265.1c-6.2 0-12.5-1.2-18.5-3.6l-7.6-3.1c-1.6-.6-2.7-2-3-3.6s.2-3.3 1.4-4.5l20-20 10.4-18.4c4-7.1 8.9-13.6 14.7-19.3l26.7-26.7c14.7-14.7 34.3-24 55.1-25.9l73.5-7 55.7-24.1 4 9.2-56.4 24.4c-.5.2-1 .3-1.5.4l-74.3 7.1c-18.5 1.8-35.8 10-48.9 23.1l-26.7 26.7c-5.1 5.1-9.5 10.9-13 17.2l-10.7 18.9c-.2.4-.5.8-.8 1.1l-15.5 15 .6.2c14.9 6 31.7 2.4 42.9-9.1.3-.3.6-.6 1-.8l44.5-26.8c2-1.2 4.5-.9 6.1.7l6.4 6.4c16 16 42 16 58 0l7.1 7.1c-19.9 19.9-52.2 19.9-72.1 0l-3.6-3.6-40.6 24.4c-9.6 9.6-22.1 14.6-34.9 14.6z" fill="#101f3c"/></g></g></g></svg>