<svg id="Capa_1" data-name="Capa 1" xmlns="http://www.w3.org/2000/svg" viewBox="0 0 512 512"><defs><style>.cls-1{fill:#61eaf9;}.cls-2{fill:#9d98e9;}.cls-3{fill:#e0e7ef;}.cls-4{fill:#1e1d1d;}.cls-5{fill:#332f2f;}</style></defs><path class="cls-1" d="M345,228.71a78.85,78.85,0,1,0,0,111.51A78.85,78.85,0,0,0,345,228.71Zm-23.47,88a45.67,45.67,0,1,1,0-64.59A45.68,45.68,0,0,1,321.51,316.76Z"/><path class="cls-2" d="M433.71,405.76A23.2,23.2,0,0,1,393,421l-61.07-70.22A79,79,0,0,0,345,340.22a78.12,78.12,0,0,0,10.53-13.05l70.23,61.07a23.16,23.16,0,0,1,8,17.52Z"/><path class="cls-3" d="M215.28,157a11.54,11.54,0,0,1,0-16.05l6.8-7a11.53,11.53,0,0,0,1.71-13.79l-10.37-18a11.54,11.54,0,0,0-12.79-5.41l-9.48,2.39a11.54,11.54,0,0,1-13.9-8l-2.67-9.39a11.54,11.54,0,0,0-11.08-8.37H142.76a11.54,11.54,0,0,0-11.09,8.37L129,91.13a11.54,11.54,0,0,1-13.9,8l-9.48-2.39a11.54,11.54,0,0,0-12.79,5.41l-10.36,18a11.52,11.52,0,0,0,1.7,13.79l6.8,7A11.52,11.52,0,0,1,91,157l-6.8,7a11.5,11.5,0,0,0-1.7,13.78l10.36,18a11.51,11.51,0,0,0,12.79,5.41l9.48-2.38a11.53,11.53,0,0,1,13.9,8l2.67,9.39a11.53,11.53,0,0,0,11.09,8.38H163.5a11.53,11.53,0,0,0,11.08-8.38l2.67-9.39a11.53,11.53,0,0,1,13.9-8l9.48,2.38a11.51,11.51,0,0,0,12.79-5.41l10.37-18A11.52,11.52,0,0,0,222.08,164Zm-62.16,19.29A27.32,27.32,0,1,1,180.44,149,27.31,27.31,0,0,1,153.12,176.29Z"/><path d="M430.61,382.64l-.68-.59a7.42,7.42,0,1,0-9.75,11.2l.68.6a15.78,15.78,0,1,1-22.26,22.26L342.88,352a86.74,86.74,0,0,0,13.91-13.91L370.9,350.4a7.43,7.43,0,0,0,9.75-11.21l-15.6-13.57a86.13,86.13,0,1,0-34.67,34.67l57,65.57a30.63,30.63,0,1,0,43.22-43.22ZM238.71,335a71.42,71.42,0,1,1,89.76,9.17A71.52,71.52,0,0,1,238.71,335Z"/><path d="M342.31,284.46a53.09,53.09,0,0,0-90.63-37.54c-20.47,20.47-20.47,54.62,0,75.09s54.62,20.46,75.08,0A52.74,52.74,0,0,0,342.31,284.46Zm-53.09,38.25a38,38,0,0,1-27-11.2,38.61,38.61,0,0,1,0-54.09,38.29,38.29,0,0,1,54.08,0,38.61,38.61,0,0,1,0,54.09A38,38,0,0,1,289.22,322.71Z"/><path d="M153.12,183.72A34.75,34.75,0,1,0,118.39,149,34.78,34.78,0,0,0,153.12,183.72Zm0-54.63A19.89,19.89,0,1,1,133.24,149,19.91,19.91,0,0,1,153.12,129.09Z"/><path d="M78.84,158.85A19,19,0,0,0,76,181.52L86.4,199.47a19,19,0,0,0,21,8.9l9.48-2.38a4.1,4.1,0,0,1,5,2.86l2.67,9.4A19,19,0,0,0,142.76,232H163.5a19.05,19.05,0,0,0,18.23-13.77l2.66-9.39a4.1,4.1,0,0,1,5-2.86l9.48,2.38a19,19,0,0,0,21-8.9l10.36-17.94a19,19,0,0,0-2.79-22.68l-6.81-7h0a4.09,4.09,0,0,1,0-5.71l6.81-7a19,19,0,0,0,2.8-22.66l-10.36-18a19,19,0,0,0-21-8.9L189.34,92a4.09,4.09,0,0,1-5-2.85l-2.67-9.41A19,19,0,0,0,163.5,65.94H142.76a19,19,0,0,0-18.24,13.77l-2.66,9.39a4.09,4.09,0,0,1-5,2.86l-9.47-2.38a19,19,0,0,0-21,8.9L76,116.43a19,19,0,0,0,2.8,22.68l6.8,7a4.1,4.1,0,0,1,0,5.72ZM96.3,135.78l-6.8-7a4.11,4.11,0,0,1-.6-4.91l10.36-18a4.11,4.11,0,0,1,4.56-1.92l9.48,2.38a18.89,18.89,0,0,0,22.85-13.21l2.66-9.39a4.12,4.12,0,0,1,3.95-3H163.5a4.13,4.13,0,0,1,3.94,3l2.67,9.4A18.88,18.88,0,0,0,193,106.37l9.48-2.39a4.12,4.12,0,0,1,4.55,1.93l10.37,18a4.1,4.1,0,0,1-.61,4.89l-6.8,7a18.87,18.87,0,0,0,0,26.38l6.8,7a4.11,4.11,0,0,1,.61,4.9l-10.37,18a4.1,4.1,0,0,1-4.55,1.92L193,191.59a18.87,18.87,0,0,0-22.85,13.2l-2.66,9.38a4.14,4.14,0,0,1-3.95,3H142.76a4.12,4.12,0,0,1-3.95-3l-2.67-9.4a19.07,19.07,0,0,0-22.85-13.2L103.81,194a4.1,4.1,0,0,1-4.55-1.92l-10.37-18a4.1,4.1,0,0,1,.61-4.89l6.8-7A18.87,18.87,0,0,0,96.3,135.78Z"/><path d="M315.2,170.53a7.42,7.42,0,0,0,2.41,10.22l24,14.82a7.49,7.49,0,0,0,10.22-2.41l14.82-24a7.43,7.43,0,1,0-12.64-7.8l-5,8A133,133,0,0,0,239.7,73.72a7.43,7.43,0,0,0-2,14.71A118.07,118.07,0,0,1,334.9,174l-9.48-5.85a7.42,7.42,0,0,0-10.22,2.41Z"/><path d="M64.14,258.67a7.51,7.51,0,0,0,10.33-1.92l5.58-8.13A132.64,132.64,0,0,0,195.37,349.33c.25,0,.51,0,.76,0a7.43,7.43,0,0,0,.74-14.82A118.07,118.07,0,0,1,94.53,245.32l8.83,6.06a7.43,7.43,0,0,0,8.41-12.24l-23.25-16a7.51,7.51,0,0,0-10.33,1.92l-16,23.25a7.42,7.42,0,0,0,1.91,10.33Z"/><path d="M406.71,362.2c-3.79-5.78-13.09-3.26-13.58,3.58s8.22,10.63,12.88,5.56A7.5,7.5,0,0,0,406.71,362.2Z"/><path class="cls-4" d="M25.27,105.45c8.87,0,16.06-5.11,16.06-24.73V41.33l4.87-8.89H98.27c5.63,0,13.44-5.1,13.44-15.95A16,16,0,0,0,98.27,9.21H33.6A24.39,24.39,0,0,0,9.21,33.6V80.72C9.21,98.27,16.4,105.45,25.27,105.45Z"/><path class="cls-4" d="M33.6,493.9H98.27c5.63,0,13.44-4.83,13.44-15.95a16,16,0,0,0-13.44-7.28H41.33V413.73a16.06,16.06,0,0,0-32.12,0v47.11C9.21,484.71,20.13,493.9,33.6,493.9Z"/><path class="cls-5" d="M98.27,23.77H46.2a4.87,4.87,0,0,0-4.87,4.87V41.33H98.27a16.05,16.05,0,0,0,13.44-24.84A16,16,0,0,1,98.27,23.77Z"/><path class="cls-5" d="M25.27,96.77a16.06,16.06,0,0,1-16.06-16V98.27a16.06,16.06,0,0,0,32.12,0V80.72A16.06,16.06,0,0,1,25.27,96.77Z"/><path class="cls-4" d="M486.73,105.45c-8.87,0-16.06-5.11-16.06-24.73V41.33l-4.87-8.89H413.73c-5.63,0-13.44-5.1-13.44-15.95a16,16,0,0,1,13.44-7.28H478.4A24.39,24.39,0,0,1,502.79,33.6V80.72C502.79,98.27,495.6,105.45,486.73,105.45Z"/><path class="cls-5" d="M413.73,23.77H465.8a4.87,4.87,0,0,1,4.87,4.87V41.33H413.73a16.05,16.05,0,0,1-13.44-24.84A16,16,0,0,0,413.73,23.77Z"/><path class="cls-5" d="M486.73,96.77a16.06,16.06,0,0,0,16.06-16V98.27a16.06,16.06,0,1,1-32.12,0V80.72A16.06,16.06,0,0,0,486.73,96.77Z"/><path class="cls-5" d="M98.27,485.23H33.6A24.39,24.39,0,0,1,9.21,460.84V478.4A24.39,24.39,0,0,0,33.6,502.79H98.27A16.05,16.05,0,0,0,111.71,478,16,16,0,0,1,98.27,485.23Z"/><path class="cls-4" d="M478.4,493.9H413.73c-5.63,0-13.44-4.83-13.44-15.95a16,16,0,0,1,13.44-7.28h56.94V413.73a16.06,16.06,0,0,1,32.12,0v47.11C502.79,484.71,491.87,493.9,478.4,493.9Z"/><path class="cls-5" d="M413.73,485.23H478.4a24.38,24.38,0,0,0,24.38-24.39V478.4a24.38,24.38,0,0,1-24.38,24.39H413.73A16.05,16.05,0,0,1,400.29,478,16,16,0,0,0,413.73,485.23Z"/></svg>