<svg id="Layer_1" enable-background="new 0 0 512 512" viewBox="0 0 512 512" xmlns="http://www.w3.org/2000/svg"><g clip-rule="evenodd" fill-rule="evenodd"><g><g><path d="m45.321 398.239 67.45-39.078c12.659-7.334 25.531-12.534 39.445-8.021 15.513 5.031 40.845 15.833 66.678 20.492 9.589 3.109 15.567 12.711 12.958 22.446-2.609 9.737-10.837 14.757-22.446 12.962l9.03 1.445c10.348 1.655 19.852.238 28.909-5.036l64.85-37.772c50.41-29.359 57.814 15.808 41.053 26.127l-117.687 72.467c-10.824 6.663-22.668 8.219-34.946 4.927l-85.362-22.873-31.613 18.251c-6.078 3.509-13.898 1.414-17.407-4.664l-25.563-44.277c-3.503-6.071-1.416-13.881 4.651-17.396z" fill="#f6dccd"/><path d="m45.321 398.239 67.451-39.078c12.659-7.334 25.531-12.534 39.445-8.021 8.299 2.691 19.41 7.035 31.904 11.206l-130.662 75.438-12.786-22.146c-3.506-6.073-1.419-13.884 4.648-17.399z" fill="#f1cbbc"/><path d="m52.047 376.956 53.494 94.519c2.587 4.57.963 10.426-3.607 13.012l-18.196 10.298c-4.57 2.587-10.426.964-13.012-3.606l-53.494-94.52c-2.586-4.57-.963-10.426 3.607-13.012l18.195-10.298c4.571-2.587 10.426-.964 13.013 3.607z" fill="#d1d1d6"/><path d="m80.181 441.897 9.468 16.729 9.363 16.544c2.581 4.561.97 10.402-3.579 12.996l6.5-3.679c4.57-2.587 6.193-8.442 3.606-13.012l-9.394-16.599-18.864-33.331-18.885-33.368-6.35-11.221c-2.241-3.959-6.935-5.706-11.121-4.421l10.995 19.428 18.864 33.331 9.395 16.599z" fill="#b1b1b5"/></g><g><circle cx="79.961" cy="79.965" fill="#ffc338" r="63.96"/><path d="m79.961 16.005c35.324 0 63.96 28.636 63.96 63.96s-28.636 63.96-63.96 63.96c-1.845 0-3.67-.083-5.475-.236 32.76-2.778 58.484-30.245 58.484-63.724s-25.724-60.946-58.484-63.724c1.805-.153 3.63-.236 5.475-.236z" fill="#f5b829"/></g><g><path d="m188.338 327.26h135.323c3.695 0 6.43-3.348 5.693-6.969-6.958-34.146-37.154-59.841-73.354-59.841-36.201 0-66.397 25.695-73.354 59.841-.738 3.621 1.997 6.969 5.692 6.969z" fill="#8ac9fe"/><path d="m310.43 327.26h13.231c3.695 0 6.43-3.348 5.693-6.969-6.958-34.146-37.154-59.841-73.354-59.841-2.229 0-4.436.098-6.615.289 33.215 2.909 60.21 27.508 66.739 59.551.737 3.622-1.999 6.97-5.694 6.97z" fill="#60b7ff"/><ellipse cx="256" cy="222.598" fill="#f6dccd" rx="37.851" ry="37.851" transform="matrix(.924 -.383 .383 .924 -65.698 114.911)"/><path d="m256 184.747c20.905 0 37.851 16.947 37.851 37.851 0 20.905-16.947 37.851-37.851 37.851-1.79 0-3.55-.127-5.274-.367 18.408-2.566 32.578-18.369 32.578-37.484s-14.17-34.917-32.578-37.484c1.724-.24 3.484-.367 5.274-.367z" fill="#f1cbbc"/></g><g><path d="m466.678 113.767-67.45 39.078c-12.659 7.334-25.531 12.534-39.445 8.021-15.513-5.031-40.845-15.833-66.679-20.493-9.589-3.109-15.567-12.711-12.958-22.446 2.609-9.737 10.837-14.757 22.446-12.962l-9.03-1.445c-10.348-1.655-19.852-.238-28.909 5.036l-64.85 37.772c-50.41 29.359-57.814-15.808-41.053-26.127l117.687-72.467c10.824-6.663 22.668-8.218 34.946-4.927l85.362 22.873 31.613-18.251c6.078-3.509 13.898-1.414 17.407 4.664l25.563 44.277c3.504 6.072 1.417 13.882-4.65 17.397z" fill="#f6dccd"/><path d="m466.678 113.768-67.451 39.078c-12.659 7.334-25.531 12.534-39.445 8.021-8.3-2.691-19.41-7.035-31.904-11.206l130.662-75.438 12.786 22.146c3.506 6.073 1.419 13.883-4.648 17.399z" fill="#f1cbbc"/><path d="m459.952 135.051-53.494-94.519c-2.587-4.57-.963-10.426 3.607-13.012l18.196-10.298c4.57-2.587 10.426-.963 13.012 3.607l53.494 94.52c2.586 4.57.964 10.425-3.607 13.012l-18.195 10.298c-4.57 2.586-10.426.962-13.013-3.608z" fill="#d1d1d6"/><path d="m431.818 70.11-9.468-16.73-9.363-16.543c-2.581-4.561-.97-10.402 3.579-12.996l-6.5 3.678c-4.57 2.587-6.193 8.442-3.607 13.012l9.394 16.599 18.864 33.331 18.885 33.368 6.35 11.221c2.241 3.959 6.935 5.706 11.121 4.421l-10.995-19.428-18.864-33.331-9.395-16.599z" fill="#b1b1b5"/></g><g><path d="m466.541 434.028-29.241 11.861 23.033 49.473c.179.384.532.621.956.64s.797-.185 1.01-.551l8.581-14.768 16.826 2.94c.418.073.814-.082 1.072-.418.258-.337.305-.759.125-1.144z" fill="#fe646f"/><path d="m466.541 434.028-2.581 1.047 21.875 46.986c.179.385.133.807-.125 1.144l-.05.061 2.046.358c.418.073.814-.082 1.072-.418.258-.337.305-.759.125-1.144zm-6.675 60.329 8.229-14.161 2.786.487-8.581 14.768c-.213.366-.586.57-1.01.551s-.777-.256-.956-.64z" fill="#fd4755"/><path d="m407.203 434.028 29.241 11.861-23.033 49.473c-.179.384-.532.621-.956.64-.423.019-.797-.185-1.01-.551l-8.582-14.768-16.825 2.94c-.418.073-.814-.082-1.072-.418-.258-.337-.304-.759-.125-1.144z" fill="#fe646f"/><path d="m434.47 445.088 1.974.801-23.033 49.473c-.179.384-.532.621-.956.64-.423.019-.797-.185-1.01-.551l-8.582-14.768-16.825 2.94c-.418.073-.814-.082-1.072-.418-.258-.337-.304-.759-.125-1.144l.391-.84 16.366-2.86 8.582 14.768c.213.367.587.57 1.01.551.424-.019.777-.256.956-.64z" fill="#fd4755"/><path d="m444.343 352.33 7.511 5.622c2.054 1.537 4.216 2.324 6.778 2.467l9.367.521c5.609.312 10.164 4.134 11.445 9.604l2.14 9.134c.585 2.498 1.736 4.491 3.607 6.247l6.841 6.421c4.096 3.844 5.129 9.701 2.595 14.714l-4.232 8.373c-1.157 2.29-1.557 4.556-1.252 7.103l1.113 9.316c.667 5.578-2.306 10.728-7.47 12.939l-8.624 3.694c-2.359 1.01-4.121 2.489-5.526 4.636l-5.135 7.852c-3.074 4.702-8.662 6.735-14.04 5.11l-8.981-2.714c-2.456-.742-4.757-.742-7.213 0l-8.981 2.714c-5.377 1.625-10.965-.409-14.04-5.11l-5.135-7.852c-1.405-2.147-3.167-3.626-5.526-4.636l-8.624-3.694c-5.164-2.212-8.137-7.361-7.471-12.939l1.113-9.316c.304-2.547-.095-4.813-1.252-7.103l-4.232-8.373c-2.534-5.013-1.501-10.87 2.594-14.714l6.841-6.421c1.871-1.756 3.021-3.749 3.607-6.247l2.14-9.134c1.281-5.47 5.837-9.292 11.445-9.604l9.367-.521c2.562-.143 4.724-.93 6.778-2.467l7.511-5.622c4.497-3.367 10.443-3.367 14.941 0z" fill="#ffe177"/><path d="m444.343 352.33 7.511 5.622c2.054 1.537 4.216 2.324 6.778 2.467l9.367.521c5.609.312 10.164 4.134 11.445 9.604l2.14 9.134c.585 2.498 1.736 4.491 3.607 6.247l6.841 6.421c4.096 3.844 5.129 9.701 2.595 14.714l-4.232 8.373c-1.157 2.29-1.557 4.556-1.252 7.103l1.113 9.316c.667 5.578-2.306 10.728-7.47 12.939l-8.624 3.694c-2.359 1.01-4.121 2.489-5.526 4.636l-5.135 7.852c-3.074 4.702-8.662 6.735-14.04 5.11l-1.464-.442c2.184-.941 4.104-2.528 5.503-4.668l5.135-7.852c1.404-2.147 3.167-3.626 5.525-4.636l8.624-3.694c5.164-2.212 8.137-7.361 7.47-12.939l-1.113-9.316c-.305-2.547.095-4.813 1.252-7.103l4.232-8.373c2.534-5.013 1.501-10.87-2.595-14.714l-6.841-6.421c-1.871-1.756-3.021-3.749-3.607-6.247l-2.14-9.134c-1.281-5.47-5.837-9.292-11.445-9.604l-9.367-.521c-2.562-.143-4.724-.93-6.778-2.467l-7.511-5.622c-.784-.587-1.613-1.072-2.47-1.454 4.058-1.81 8.759-1.325 12.472 1.454zm-12.471 111.459-1.394-.421c-2.456-.742-4.757-.742-7.213 0l-7.517 2.272c2.614 1.127 5.607 1.328 8.537.442z" fill="#ffd064"/><circle cx="436.872" cy="408.22" fill="#eceff1" r="31.932"/><path d="m436.872 376.288c1.701 0 3.371.134 5 .391-15.26 2.4-26.932 15.607-26.932 31.541s11.672 29.141 26.932 31.541c-1.629.256-3.299.391-5 .391-17.636 0-31.932-14.297-31.932-31.932s14.297-31.932 31.932-31.932z" fill="#d1d1d6"/></g></g><path d="m436.875 432.156c-13.2 0-23.928-10.743-23.928-23.943 0-13.19 10.729-23.928 23.928-23.928 13.191 0 23.934 10.738 23.934 23.928 0 13.2-10.743 23.943-23.934 23.943zm0-63.872c-22.017 0-39.929 17.921-39.929 39.929 0 22.018 17.912 39.939 39.929 39.939 22.022 0 39.93-17.921 39.93-39.939 0-22.008-17.908-39.929-39.93-39.929zm-345.408-268.751c.607-.702 1.201-1.681.96-3.63-.221-1.841-.739-6.148-13.704-8.281-21.099-3.46-24.809-15.469-25.138-22.319-.541-11.124 6.788-20.483 18.378-23.67v-2.152c0-4.411 3.583-7.998 8.003-7.998 4.421 0 7.998 3.587 7.998 7.998v2.081c7.471 1.977 14.462 6.948 18.2 15.869 1.713 4.081-.198 8.761-4.27 10.479-4.077 1.714-8.77-.207-10.479-4.279-3.032-7.24-10.559-7.64-14.528-6.741-1.779.4-7.579 2.152-7.32 7.641.071 1.483.268 5.418 11.75 7.311 16.458 2.697 25.538 10.14 26.998 22.13.73 6.049-.909 11.59-4.75 16.029-3.62 4.19-9.199 7.202-15.601 8.573v1.859c0 4.42-3.578 7.998-7.998 7.998s-8.003-3.578-8.003-7.998v-2.001c-10.135-2.481-17.846-9.58-20.275-19.329-1.074-4.293 1.539-8.633 5.818-9.702 4.289-1.069 8.629 1.539 9.702 5.832 1.549 6.219 8.177 8.29 13.398 8.158 4.6-.106 8.959-1.659 10.861-3.858zm100.568 218.813c7.151-29.022 33.23-49.943 63.943-49.952h.028.019c30.712.009 56.792 20.93 63.943 49.952zm34.6-95.324c0-16.189 13.172-29.361 29.371-29.361 16.189 0 29.361 13.172 29.361 29.361 0 16.194-13.162 29.361-29.342 29.371-.009 0-.019 0-.019 0-.009 0-.019 0-.019 0-16.19-.01-29.352-13.177-29.352-29.371zm58.539 34.704c9.891-8.323 16.194-20.793 16.194-34.704 0-25.006-20.351-45.357-45.362-45.357-25.021 0-45.367 20.351-45.367 45.357 0 13.911 6.299 26.381 16.189 34.704-28.071 10.658-48.893 36.277-52.263 67.766-.24 2.259.49 4.51 2.01 6.2 1.521 1.69 3.681 2.65 5.95 2.65h146.951c2.269 0 4.439-.97 5.951-2.65 1.521-1.69 2.25-3.949 2.01-6.2-3.371-31.489-24.192-57.108-52.263-67.766zm179.674-142.314c-.513-3.55 1.939-6.85 5.489-7.358 3.549-.523 6.849 1.93 7.372 5.489.518 3.549-1.944 6.84-5.494 7.363-3.55.517-6.849-1.93-7.367-5.494zm-417.694 281.169c.522 3.554-1.939 6.854-5.489 7.372-3.549.522-6.85-1.94-7.367-5.489-.522-3.55 1.94-6.85 5.489-7.372 3.549-.518 6.849 1.944 7.367 5.489zm440.332 6.863c.932-1.841.579-3.86-.927-5.272l-6.845-6.417c-3.027-2.853-4.967-6.204-5.918-10.253l-2.142-9.137c-.471-2.001-2.038-3.324-4.1-3.441l-9.368-.518c-4.152-.23-7.791-1.553-11.119-4.053l-7.523-5.621c-1.648-1.238-3.7-1.238-5.348 0l-7.509 5.621c-3.333 2.5-6.972 3.823-11.133 4.053l-9.359.518c-2.062.118-3.63 1.431-4.1 3.441l-2.137 9.137c-.951 4.048-2.895 7.41-5.932 10.253l-6.84 6.417c-1.502 1.412-1.859 3.432-.932 5.282l4.241 8.37c1.869 3.71 2.551 7.532 2.048 11.661l-1.106 9.321c-.249 2.038.777 3.818 2.679 4.628l8.62 3.7c3.827 1.629 6.788 4.119 9.071 7.612l5.141 7.847c1.13 1.723 3.05 2.434 5.027 1.831l8.982-2.721c1.987-.598 3.95-.899 5.917-.899 1.963 0 3.931.301 5.922.899l8.977 2.721c1.973.603 3.903-.108 5.033-1.831l5.131-7.847c2.279-3.493 5.249-5.983 9.076-7.622l8.62-3.691c1.902-.81 2.923-2.589 2.683-4.628l-1.12-9.321c-.49-4.128.179-7.951 2.057-11.661zm-15.229 69.357c-3.3-.579-6.609.96-8.29 3.86l-1.954 3.352-2.919-6.28c4.439-1.36 8.389-4.241 11.1-8.379l1.233-1.878 4.656 9.999zm-60.52 7.212-1.949-3.352c-1.695-2.9-4.99-4.439-8.299-3.86l-3.823.673 4.66-9.999 1.229 1.869c2.712 4.147 6.661 7.019 11.1 8.379zm-255.212-14.32c30.821 14.683 64.55 22.309 99.481 22.309 45.951 0 89.773-13.176 127.65-38.249-5.833-4.289-9.001-11.378-8.111-18.849l1.12-9.321c.113-.979-.01-1.671-.447-2.537l-4.242-8.384c-4.133-8.177-2.42-17.879 4.26-24.15l6.84-6.417c.72-.683 1.069-1.28 1.299-2.241l2.137-9.137c2.095-8.921 9.641-15.252 18.793-15.765l9.359-.518c.994-.061 1.653-.301 2.439-.89l7.504-5.621c7.339-5.489 17.197-5.489 24.526 0l7.513 5.621c.791.589 1.45.829 2.429.89l7.791.428c14.019-30.43 21.137-62.978 21.137-96.858 0-38.428-9.566-76.399-27.69-109.997-2.98-1.502-5.56-3.874-7.33-6.996l-3.427-6.058-46.29 26.8c-9.603 5.56-20.661 10.79-32.863 10.79-4.218 0-8.577-.631-13.068-2.076-4.162-1.351-9.02-3.112-14.179-4.971-14.702-5.32-33-11.943-51.449-15.262-.362-.071-.711-.16-1.05-.268-13.84-4.482-21.853-18.6-18.223-32.129.24-.913.523-1.794.843-2.641-1.553.621-3.074 1.379-4.581 2.259l-64.861 37.769c-13.901 8.087-24.733 10.912-33.071 10.912-14.801 0-21.758-8.86-24.103-12.771-7.589-12.673-3.827-30.778 7.895-37.99l117.699-72.482c12.508-7.697 26.758-9.716 41.219-5.837l42.001 11.251c-30.82-14.683-64.55-22.3-99.471-22.3-38.461 0-76.291 9.528-109.898 27.629 3.738 8.7 5.819 18.27 5.819 28.33 0 39.68-32.28 71.96-71.96 71.96-10.06 0-19.63-2.081-28.33-5.819-18.101 33.608-27.629 71.447-27.629 109.898 0 38.418 9.556 76.39 27.681 109.978 3.06 1.553 5.597 3.959 7.329 7.005l3.389 5.997 46.177-26.739c12.955-7.49 28.551-14.391 46.082-8.7 4.162 1.346 9.02 3.107 14.179 4.971 14.702 5.32 33 11.924 51.459 15.257.353.071.701.151 1.045.259 13.836 4.491 21.848 18.6 18.218 32.129-.24.913-.523 1.789-.842 2.65 1.553-.631 3.083-1.379 4.59-2.26l64.851-37.778c38.56-22.45 53.511-4.251 57.169 1.869 7.593 12.668 3.832 30.778-7.89 37.99l-117.699 72.478c-8.37 5.155-17.521 7.763-26.998 7.763-4.684 0-9.434-.64-14.212-1.921zm-86.238-72.779 46.318-26.819c14.212-8.233 23.811-10.352 33.118-7.329 3.912 1.266 8.441 2.9 13.685 4.797 15.107 5.461 33.89 12.254 53.45 15.85 5.56 2.02 8.657 7.363 7.259 12.612-1.501 5.579-5.701 8.022-12.489 7.259-9.429-1.949-18.43-4.51-27.949-7.231-4.562-1.309-9.284-2.65-14.142-3.959-4.26-1.139-8.652 1.389-9.801 5.659-1.139 4.274 1.389 8.662 5.659 9.801 4.731 1.271 9.392 2.603 13.892 3.884 9.938 2.839 19.329 5.517 29.488 7.598.052.01.104.01.151.019.052.009.113.033.16.038l8.083 1.313c12.588 2.01 23.778.038 34.196-6.021l64.861-37.778c17.201-10.022 30.773-11.463 35.382-3.743 3.098 5.174 1.789 13.469-2.551 16.152l-117.699 72.468c-8.794 5.409-18.439 6.76-28.683 4.011l-85.367-22.869c-2.062-.551-4.241-.259-6.082.801l-11.006 6.36zm27.718 84.599c.73-.419 1.003-1.389.579-2.118l-53.497-94.533c-.25-.447-.654-.64-.932-.72-.132-.028-.278-.056-.438-.056-.231 0-.48.047-.744.198l-18.199 10.3c-.438.249-.631.65-.711.927-.08.292-.127.734.132 1.182l53.502 94.533c.409.73 1.379.998 2.109.589zm-73.998-397.549c0 30.858 25.101 55.959 55.959 55.959 30.849 0 55.959-25.101 55.959-55.959s-25.11-55.959-55.959-55.959c-30.858 0-55.959 25.101-55.959 55.959zm417.67 39.059-46.431 26.88c-14.17 8.21-23.731 10.342-32.972 7.339-3.907-1.266-8.436-2.909-13.68-4.797-15.106-5.47-33.89-12.249-53.449-15.85-5.56-2.02-8.657-7.372-7.259-12.621 1.502-5.578 5.701-8.008 12.499-7.25 9.424 1.939 18.421 4.51 27.935 7.231 4.566 1.299 9.288 2.65 14.146 3.95.692.188 1.389.277 2.071.277 3.54 0 6.77-2.358 7.73-5.936 1.139-4.26-1.389-8.653-5.658-9.792-4.731-1.271-9.391-2.599-13.892-3.893-9.938-2.839-19.329-5.517-29.488-7.589-.052-.009-.103-.019-.16-.028-.052-.009-.104-.019-.151-.033l-8.069-1.309c-12.602-2.02-23.792-.047-34.21 6.021l-64.851 37.783c-17.211 10.018-30.773 11.449-35.392 3.738-3.097-5.183-1.789-13.482 2.552-16.151l117.698-72.468c8.794-5.409 18.44-6.77 28.683-4.02l85.377 22.879c2.052.551 4.232.259 6.073-.8l11.006-6.36zm-28.401-83.588c-.08.287-.122.72.141 1.168l53.497 94.533c.41.73 1.384.998 2.114.588l18.2-10.3c.73-.409.998-1.379.579-2.109l-53.501-94.528c-.249-.452-.65-.64-.942-.725-.278-.075-.716-.118-1.167.132l-18.2 10.3c-.452.258-.641.649-.721.941zm64.593 109.667 17.239-9.759c8.417-4.759 11.388-15.493 6.628-23.91l-53.501-94.533c-4.769-8.427-15.497-11.397-23.919-6.628l-18.199 10.3c-4.067 2.302-7 6.063-8.253 10.592-1.257 4.519-.678 9.246 1.624 13.318l4.42 7.81-3.531 2.038c-42.26-30.326-92.061-46.327-144.372-46.327-41.229 0-81.799 10.258-117.831 29.728-13.091-18.001-34.298-29.727-58.208-29.727-39.68 0-71.96 32.28-71.96 71.96 0 23.91 11.731 45.117 29.728 58.209-19.47 36.032-29.728 76.601-29.728 117.83 0 38.55 9.01 76.658 26.132 110.901l-17.244 9.749c-4.067 2.312-7 6.068-8.248 10.587-1.261 4.533-.678 9.264 1.629 13.332l53.502 94.533c3.22 5.701 9.18 8.897 15.3 8.897 2.919 0 5.889-.73 8.61-2.269l18.2-10.3c8.422-4.769 11.388-15.502 6.633-23.919l-4.425-7.81 3.531-2.043c42.26 30.331 92.061 46.341 144.381 46.341 44.83 0 87.763-11.741 125.702-34.149l-4.119 8.831c-1.431 3.088-1.045 6.675 1.026 9.378 2.071 2.712 5.451 4.03 8.803 3.441l11.326-1.982 5.795 9.952c1.638 2.82 4.618 4.529 7.847 4.529.142 0 .283 0 .419-.009 3.399-.151 6.412-2.161 7.862-5.259l12.569-27.002 2.349-.711c.941-.278 1.643-.278 2.58 0l2.354.711 12.565 27.012c1.441 3.088 4.453 5.098 7.843 5.249.141 0 .278.009.419.009 3.239 0 6.233-1.709 7.871-4.529l5.781-9.952 11.326 1.982c3.361.579 6.732-.73 8.813-3.441 2.062-2.702 2.462-6.289 1.022-9.378l-12.005-25.779 1.784-.763c8.417-3.611 13.351-12.141 12.259-21.241l-1.111-9.321c-.118-.979 0-1.671.452-2.537l4.227-8.384c4.133-8.177 2.424-17.879-4.26-24.15l-6.835-6.417c-.72-.683-1.073-1.28-1.294-2.241l-2.137-9.137c-.913-3.874-2.839-7.254-5.489-9.881 14.768-32.332 22.257-66.89 22.257-102.832-.003-38.548-9.023-76.656-26.139-110.899z" fill="#242222"/></g></svg>