<svg width="36" height="36" viewBox="0 0 36 36" fill="none" xmlns="http://www.w3.org/2000/svg">
<path d="M33.4688 3.9375H2.53125C2.00928 3.93808 1.50886 4.14568 1.13977 4.51477C0.770684 4.88386 0.563077 5.38428 0.5625 5.90625V25.5938C0.563077 26.1157 0.770684 26.6161 1.13977 26.9852C1.50886 27.3543 2.00928 27.5619 2.53125 27.5625H13.7939L13.1189 29.25H10.125C9.97582 29.25 9.83274 29.3093 9.72725 29.4148C9.62176 29.5202 9.5625 29.6633 9.5625 29.8125V30.9375H6.1875C6.03832 30.9375 5.89524 30.9968 5.78975 31.1023C5.68426 31.2077 5.625 31.3508 5.625 31.5C5.625 31.6492 5.68426 31.7923 5.78975 31.8977C5.89524 32.0032 6.03832 32.0625 6.1875 32.0625H29.8125C29.9617 32.0625 30.1048 32.0032 30.2102 31.8977C30.3157 31.7923 30.375 31.6492 30.375 31.5C30.375 31.3508 30.3157 31.2077 30.2102 31.1023C30.1048 30.9968 29.9617 30.9375 29.8125 30.9375H26.4375V29.8125C26.4375 29.6633 26.3782 29.5202 26.2727 29.4148C26.1673 29.3093 26.0242 29.25 25.875 29.25H22.8811L22.2061 27.5625H33.4688C33.9907 27.5619 34.4911 27.3543 34.8602 26.9852C35.2293 26.6161 35.4369 26.1157 35.4375 25.5938V5.90625C35.4369 5.38428 35.2293 4.88386 34.8602 4.51477C34.4911 4.14568 33.9907 3.93808 33.4688 3.9375ZM25.3125 30.375V30.9375H10.6875V30.375H25.3125ZM14.3311 29.25L15.0061 27.5625H20.9939L21.6689 29.25H14.3311ZM34.3125 25.5938C34.3123 25.8175 34.2234 26.032 34.0652 26.1902C33.907 26.3484 33.6925 26.4373 33.4688 26.4375H2.53125C2.30753 26.4373 2.09303 26.3484 1.93483 26.1902C1.77664 26.032 1.68769 25.8175 1.6875 25.5938V24.1875H34.3125V25.5938ZM34.3125 23.0625H1.6875V5.90625C1.68769 5.68253 1.77664 5.46803 1.93483 5.30983C2.09303 5.15164 2.30753 5.06269 2.53125 5.0625H33.4688C33.6925 5.06269 33.907 5.15164 34.0652 5.30983C34.2234 5.46803 34.3123 5.68253 34.3125 5.90625V23.0625Z" fill="#5431A2"/>
<path d="M18 18C18.6675 18 19.32 17.8021 19.875 17.4312C20.4301 17.0604 20.8626 16.5333 21.1181 15.9166C21.3735 15.2999 21.4404 14.6213 21.3102 13.9666C21.1799 13.3119 20.8585 12.7105 20.3865 12.2385C19.9145 11.7665 19.3131 11.4451 18.6584 11.3149C18.0037 11.1846 17.3251 11.2515 16.7084 11.5069C16.0917 11.7624 15.5646 12.1949 15.1938 12.75C14.8229 13.305 14.625 13.9575 14.625 14.625C14.626 15.5198 14.9819 16.3777 15.6146 17.0104C16.2473 17.6431 17.1052 17.999 18 18ZM18 12.375C18.445 12.375 18.88 12.507 19.25 12.7542C19.62 13.0014 19.9084 13.3528 20.0787 13.764C20.249 14.1751 20.2936 14.6275 20.2068 15.064C20.12 15.5004 19.9057 15.9013 19.591 16.216C19.2763 16.5307 18.8754 16.745 18.439 16.8318C18.0025 16.9186 17.5501 16.874 17.139 16.7037C16.7278 16.5334 16.3764 16.245 16.1292 15.875C15.882 15.505 15.75 15.07 15.75 14.625C15.7507 14.0285 15.9879 13.4566 16.4097 13.0348C16.8316 12.6129 17.4035 12.3757 18 12.375Z" fill="#5431A2"/>
<path d="M10.4981 17.8838C12.9945 19.8 15.5886 20.8125 18 20.8125C20.4114 20.8125 23.0055 19.8 25.5019 17.8838C26.6243 17.0286 27.6506 16.0544 28.563 14.978C28.6436 14.878 28.6875 14.7534 28.6875 14.625C28.6875 14.4966 28.6436 14.372 28.563 14.272C27.6506 13.1956 26.6243 12.2214 25.5019 11.3662C23.0055 9.45 20.4117 8.4375 18 8.4375C15.5883 8.4375 12.9945 9.45 10.4981 11.3662C9.37571 12.2214 8.34936 13.1956 7.43703 14.272C7.35644 14.372 7.3125 14.4966 7.3125 14.625C7.3125 14.7534 7.35644 14.878 7.43703 14.978C8.34936 16.0544 9.37571 17.0286 10.4981 17.8838ZM18 9.5625C22.4555 9.5625 26.2925 13.4221 27.3797 14.625C26.2924 15.8279 22.4554 19.6875 18 19.6875C13.5447 19.6875 9.70742 15.8278 8.62032 14.625C9.70749 13.4221 13.5445 9.5625 18 9.5625Z" fill="#5431A2"/>
</svg>
