<svg width="36" height="36" viewBox="0 0 36 36" fill="none" xmlns="http://www.w3.org/2000/svg">
<g clip-path="url(#clip0_257_67)">
<path d="M9.49573 13.8606H11.6051V12.0938H16.9453V24.1066H15.1175V26.2159H20.8826V24.1066H19.0547V12.0938H24.3949V13.8606H26.5043V9.98438H9.49573V13.8606Z" fill="#5431A2"/>
<path d="M33.4863 28.1957V7.80434C34.9599 7.19648 36 5.74509 36 4.05471C36 1.81891 34.1811 0 31.9453 0C30.2549 0 28.8035 1.04013 28.1957 2.51367H7.80434C7.19648 1.04013 5.74509 0 4.05471 0C1.81891 0 0 1.81891 0 4.05471C0 5.74509 1.04013 7.19655 2.51367 7.80441V28.1957C1.04013 28.8035 0 30.2549 0 31.9453C0 34.1811 1.81891 36 4.05471 36C5.74509 36 7.19648 34.9599 7.80434 33.4863H28.1957C28.8035 34.9599 30.2549 36 31.9453 36C34.1811 36 36 34.1811 36 31.9453C36 30.2549 34.9599 28.8035 33.4863 28.1957ZM27.9313 31.377H8.06871C7.81755 29.5952 6.4047 28.1824 4.62305 27.9313V8.06871C6.4047 7.81762 7.81755 6.4047 8.06871 4.62305H27.9313C28.1824 6.40477 29.5953 7.81762 31.377 8.06871V27.9312C29.5953 28.1824 28.1824 29.5952 27.9313 31.377ZM31.9453 2.10938C33.018 2.10938 33.8906 2.98202 33.8906 4.05471C33.8906 5.1274 33.018 6.00005 31.9453 6.00005C30.8727 6.00005 30 5.1274 30 4.05471C30 2.98202 30.8727 2.10938 31.9453 2.10938ZM4.05471 2.10938C5.12733 2.10938 5.99998 2.98202 5.99998 4.05471C5.99998 5.1274 5.12733 6.00005 4.05471 6.00005C2.98202 5.99998 2.10938 5.12733 2.10938 4.05471C2.10938 2.98202 2.98202 2.10938 4.05471 2.10938ZM4.05471 33.8906C2.98202 33.8906 2.10938 33.018 2.10938 31.9453C2.10938 30.8726 2.98202 30 4.05471 30C5.12733 30 5.99998 30.8726 5.99998 31.9453C5.99998 33.018 5.12733 33.8906 4.05471 33.8906ZM31.9453 33.8906C30.8727 33.8906 30 33.018 30 31.9453C30 30.8726 30.8727 30 31.9453 30C33.018 30 33.8906 30.8726 33.8906 31.9453C33.8906 33.018 33.018 33.8906 31.9453 33.8906Z" fill="#5431A2"/>
</g>
<defs>
<clipPath id="clip0_257_67">
<rect width="36" height="36" fill="white"/>
</clipPath>
</defs>
</svg>
