<svg width="544" height="376" viewBox="0 0 544 376" fill="none" xmlns="http://www.w3.org/2000/svg">
<g clip-path="url(#clip0_257_112)">
<path d="M544 0H0V375.745H544V0Z" fill="#F8FCFF"/>
<mask id="mask0_257_112" style="mask-type:luminance" maskUnits="userSpaceOnUse" x="-40" y="-31" width="584" height="407">
<path d="M544 -30.6357H-39.8072V375.746H544V-30.6357Z" fill="white"/>
</mask>
<g mask="url(#mask0_257_112)">
<path d="M436.098 112.436C438.11 110.557 438.981 110.532 439.09 109.643C439.198 108.753 438.382 108.39 437.485 107.138C436.587 105.885 424.198 94.4877 421.505 91.8825C417.319 88.3382 412.938 84.9939 408.381 81.8626C406.518 80.6101 395.787 74.2099 393.176 72.8823C388.272 70.4375 383.234 68.2302 378.08 66.2692C373.701 64.7787 370.546 64.1149 367.2 63.0002C363.854 61.8855 350.05 58.867 346.596 58.1531C343.142 57.4392 341.156 57.2388 341.156 57.2388C340.714 57.2517 340.285 57.375 339.913 57.5957C339.542 57.8163 339.243 58.1259 339.048 58.4913C338.504 59.7437 336.151 72.0557 336.151 72.0557L332.71 88.1752C332.71 88.1752 330.521 95.9907 330.834 96.4917C331.146 96.9926 332.017 97.0678 333.023 97.193C334.03 97.3183 350.703 99.9485 354.457 100.875C357.484 101.479 360.45 102.317 363.324 103.38C366.887 104.783 376.924 109.355 378.597 110.069C380.27 110.783 388.702 114.49 392.414 117.245C396.127 120.001 400.221 122.155 402.886 125.75C405.552 129.344 408.462 132.388 409.374 134.429C410.285 136.471 410.339 136.609 411.631 135.394C412.923 134.179 422.253 125.913 422.253 125.913L432.752 115.567L436.098 112.436Z" fill="#FFA723"/>
<path d="M580.625 321.062C568.208 318.983 552.718 315.802 552.718 315.802L508.232 306.759L469.88 297.754L433.718 288.686L390.674 275.823C390.674 275.823 366.534 267.18 364.058 265.94C361.583 264.701 358.455 262.183 357.775 260.668C355.011 255.223 351.919 249.925 348.514 244.799C346.188 241.868 342.312 237.284 340.422 235.442C338.531 233.601 328.114 225.009 325.992 222.755C323.309 220.275 320.432 217.981 317.383 215.891C314.663 213.85 307.646 205.395 306.258 202.94C303.906 198.182 301.845 193.307 300.084 188.336C299.309 185.706 296.426 174.008 295.678 170.802C294.71 166.551 293.345 162.386 291.598 158.352C290.102 155.484 288.048 151.626 285.6 149.409C283.152 147.192 280.16 144.85 277.875 144.249C275.59 143.648 270.286 143.498 267.24 145.213C264.194 146.929 263.228 151.376 263.024 153.442C262.741 156.282 262.651 159.134 262.752 161.984C262.888 165.316 264.588 174.835 263.84 179.707C263.092 184.579 263.323 194.737 262.058 199.246C260.921 203.306 259.364 207.257 257.407 211.044C256.863 212.132 256.079 213.103 255.105 213.897C254.131 214.69 252.988 215.289 251.75 215.653C249.818 216.242 248.363 214.626 247.67 213.148C246.976 211.67 246.214 205.283 246.119 203.667C246.024 202.051 246.609 188.311 247.003 185.556C247.442 181.394 247.546 177.207 247.316 173.031C247.017 171.077 244.351 163.249 244.188 162.473C244.025 161.696 241.182 157.062 239.265 156.21C238.319 155.757 237.277 155.502 236.212 155.463C235.147 155.424 234.086 155.602 233.104 155.985C231.472 156.774 228.303 158.49 227.433 160.556C226.562 162.623 223.557 167.094 222.931 169.95C222.306 172.806 220.837 179.394 220.823 179.481C220.81 179.569 219.3 191.593 219.178 194.161C219.055 196.728 219.178 202.164 219.178 203.742C219.189 204.062 219.129 204.38 219.002 204.678C218.875 204.976 218.684 205.247 218.439 205.474C218.195 205.702 217.903 205.881 217.581 206.001C217.259 206.121 216.914 206.179 216.566 206.172C215.206 206.247 196.914 204.418 196.914 204.418L182.226 203.391C182.226 203.391 178.922 203.103 177.97 200.886C177.018 198.669 172.72 189.263 171.999 185.606C171.278 181.949 170.639 175.073 170.354 172.28C170.068 169.487 168.395 161.283 167.974 158.69C166.726 154.133 164.986 149.702 162.778 145.464C161.418 143.072 157.814 137.01 153.87 135.068C149.926 133.127 146.023 133.666 144.881 134.342C143.738 135.018 139.876 138.375 139.577 140.604C139.278 142.834 137.931 150.261 137.51 155.872C137.088 161.483 138.217 170.038 138.543 173.106C138.87 176.175 139.726 183.464 140.311 186.195C140.896 188.925 143.439 197.78 143.874 199.659C144.31 201.538 143.956 201.938 141.712 201.149C138.445 199.635 135.267 197.963 132.192 196.139L117.477 188.8L100.545 180.358C100.545 180.358 82.1984 170.251 81.7224 169.85C81.2464 169.449 72.9504 165.153 69.4824 164.84C66.0144 164.527 62.3424 164.564 61.0096 166.405C59.6276 169.007 59.2857 171.974 60.044 174.785C60.8192 177.114 62.764 182.988 64.3144 184.804C65.8648 186.621 71.808 194.824 73.0184 196.077C74.2288 197.329 85.2584 206.56 85.2584 206.56L96.5872 215.328L112.2 224.696L124.277 230.533C124.277 230.533 139.019 236.357 148.444 238.887C157.869 241.417 162.126 242.394 165.444 243.07C168.867 243.78 172.332 244.307 175.821 244.648C179.166 244.949 180.499 245.162 182.145 245.901C184.941 247.579 187.621 249.415 190.169 251.399C191.134 252.163 201.13 258.551 202.3 259.24L213.778 266.203L231.01 275.86C231.01 275.86 233.362 277.113 234.654 277.714C235.946 278.315 236.341 278.54 236.79 279.367C237.238 280.194 242.624 290.639 242.624 290.639C242.624 290.639 250.784 305.281 255.558 310.103C261.62 316.052 268.237 321.5 275.332 326.385C283.274 331.884 303.334 343.92 311.916 348.717C320.498 353.514 351.682 369.17 351.682 369.17L403.702 393.243C403.702 393.243 480.61 403.263 522.022 391.627C563.434 379.992 580.625 321.062 580.625 321.062Z" fill="url(#paint0_linear_257_112)"/>
<path d="M245.793 170.927C246.12 168.727 245.976 166.489 245.371 164.339C244.895 163.086 244.378 160.08 242.284 158.415C240.19 156.749 235.688 154.081 233.988 154.92C232.288 155.759 230.588 156.173 229.31 157.701C227.191 161.05 225.402 164.566 223.965 168.209C223.339 170.163 221.884 173.457 222.496 174.734C223.108 176.012 225.42 179.945 228.249 180.796C231.078 181.648 235.334 181.485 236.654 180.859C239.218 179.567 241.409 177.729 243.046 175.498C244.528 173.069 245.793 170.927 245.793 170.927Z" fill="#37A7F4"/>
<path d="M81.6 198.006C81.2203 194.398 80.5429 190.822 79.5736 187.309C78.345 184.854 76.8408 182.525 75.0856 180.358C73.4944 178.367 66.9256 171.591 64.6952 170.589C63.5861 169.911 62.4169 169.32 61.2 168.823C60.112 168.56 59.6496 169.123 59.6904 170.977C59.8414 173.86 60.4934 176.701 61.6216 179.394C63.3616 182.787 65.4041 186.043 67.728 189.126C70.0128 191.906 77.6288 200.836 79.3424 201.65C81.056 202.464 81.7224 203.128 81.7224 201.788C81.7224 200.448 81.6 198.006 81.6 198.006Z" fill="#37A7F4"/>
<path d="M163.676 151.35C164.016 150.427 164.136 149.446 164.028 148.476C163.92 147.506 163.586 146.568 163.05 145.727C162.194 143.986 158.753 138.613 156.346 136.721C154.438 135.047 151.987 133.996 149.369 133.728C147.424 133.728 143.154 134.78 142.365 135.87C141.197 137.482 140.247 139.219 139.536 141.043C138.852 143.733 138.326 146.454 137.958 149.196C137.664 150.126 137.634 151.11 137.872 152.053C138.11 152.997 138.608 153.867 139.318 154.582C141.553 156.806 144.521 158.289 147.764 158.803C150.892 159.204 152.456 159.416 154.659 158.803C156.736 158.23 158.613 157.163 160.099 155.709C161.337 154.356 163.676 151.35 163.676 151.35Z" fill="#37A7F4"/>
<path d="M261.419 182.738C261.922 183.74 262.983 184.604 259.896 185.355C256.809 186.107 249.75 187.685 248.812 187.86C247.874 188.036 246.622 187.985 246.622 186.608C246.622 185.23 247.792 174.922 247.37 173.043C246.502 169.272 245.398 165.551 244.066 161.896C243.158 160.229 241.868 158.763 240.285 157.6C238.843 156.348 237.986 155.383 237.932 154.532C238.125 153.359 238.467 152.211 238.952 151.112L247.561 155.872L258.278 167.858L261.419 182.738Z" fill="#FFA723"/>
<path d="M576.803 319.497C524.389 313.397 379.44 277.05 359.04 263.172" stroke="black" stroke-width="1.22" stroke-linecap="round" stroke-linejoin="round"/>
<path d="M404.546 393.719C349.52 369.233 284.24 336.843 259.678 314.286C235.117 291.729 218.321 233.526 218.96 200.548C220.007 147.944 242.08 145 246.69 170.651C250.172 190.09 238.734 200.335 255.054 231.773C271.374 263.21 326.454 260.692 326.454 260.692" stroke="black" stroke-width="1.22" stroke-linecap="round" stroke-linejoin="round"/>
<path d="M248.39 215.603C248.39 215.603 257.162 219.235 261.99 199.759C266.818 180.283 259.27 155.421 265.132 147.317C270.994 139.214 289.422 142.308 295.487 169.862C301.553 197.417 305.116 207.074 324.17 221.339C343.223 235.605 372.504 263.185 359.013 303.665" stroke="black" stroke-width="1.22" stroke-linecap="round" stroke-linejoin="round"/>
<path d="M236.871 278.904C236.871 278.904 178.269 247.591 158.209 227.176C138.149 206.76 131.92 144.95 142.283 136.245C152.646 127.541 165.131 142.621 169.048 163.224C172.965 183.827 169.048 206.773 203.646 219.949" stroke="black" stroke-width="1.22" stroke-linecap="round" stroke-linejoin="round"/>
<path d="M144.69 202.439C144.69 202.439 105.142 183.827 82.96 170.451C60.7784 157.074 49.504 167.683 70.5024 192.545C91.5008 217.407 136.966 242.143 180.662 245.074" stroke="black" stroke-width="1.22" stroke-linecap="round" stroke-linejoin="round"/>
<path d="M179.126 202.527L218.96 206.522" stroke="black" stroke-width="1.22" stroke-linecap="round" stroke-linejoin="round"/>
<path d="M246.432 169.324C246.432 169.324 243.345 178.504 236.912 181.085C230.479 183.665 222.482 179.018 222.278 173.081" stroke="black" stroke-width="1.22" stroke-linecap="round" stroke-linejoin="round"/>
<path d="M164.846 149.497C164.846 149.497 160.616 157.124 155.013 158.965C149.41 160.807 138.693 156.886 137.55 151.45" stroke="black" stroke-width="1.22" stroke-linecap="round" stroke-linejoin="round"/>
<path d="M59.976 168.271C67.0554 171.459 72.9148 176.555 76.7769 182.881C80.6389 189.207 82.321 196.465 81.6 203.692" stroke="black" stroke-width="1.22" stroke-linecap="round" stroke-linejoin="round"/>
<path d="M410.394 136.521L439.566 109.129C439.566 109.129 414.256 79.896 381.222 67.3836C367.851 62.2157 353.745 58.8413 339.334 57.3638L330.888 96.9423C330.888 96.9423 391.68 101.539 410.394 136.521Z" stroke="black" stroke-width="1.22" stroke-linecap="round" stroke-linejoin="round"/>
<path d="M286.96 178.755C289.34 178.179 290.088 178.592 290.278 177.502C290.469 176.413 290.578 161.533 290.278 160.418C289.979 159.304 288.456 144.637 288.374 143.886C288.293 143.134 285.654 129.269 285.41 127.916C285.165 126.564 280.908 111.221 279.548 107.952C278.188 104.683 272.435 92.7718 272.435 92.7718C272.435 92.7718 265.037 81.1362 264.602 80.1342C264.166 79.1322 262.766 77.1282 261.378 76.9404C259.991 76.7525 249.655 77.1909 249.655 77.1909L231.146 77.9549C230.914 77.9549 231.363 80.2344 231.363 80.2344L235.28 103.155C235.28 103.155 238.313 121.015 238.286 124.973C238.258 128.931 238.762 137.924 238.598 141.506C238.435 145.088 237.891 152.778 237.891 152.778C237.891 152.778 250.485 164.865 252.498 168.835C254.51 172.806 259.842 184.829 261.732 184.604C263.622 184.379 283.642 179.594 283.941 179.594C284.24 179.594 286.96 178.755 286.96 178.755Z" fill="#FFA723"/>
<path d="M141.807 134.931L102.952 169.324C102.952 169.324 74.6776 156.799 68.204 138.187C61.7304 119.575 47.6 99.8985 27.5808 92.0955L58.548 57.3892C58.548 57.3892 84.7008 67.91 93.5272 83.516C102.354 99.122 99.6472 107.714 115.083 119.199C130.519 130.685 141.807 134.931 141.807 134.931Z" fill="#FFA723"/>
<path d="M141.807 134.931L102.952 169.324C102.952 169.324 74.6776 156.799 68.204 138.187C61.7304 119.575 47.6 99.8985 27.5808 92.0955L58.548 57.3892C58.548 57.3892 84.7008 67.91 93.5272 83.516C102.354 99.122 99.6472 107.714 115.083 119.199C130.519 130.685 141.807 134.931 141.807 134.931Z" stroke="black" stroke-width="1.22" stroke-linecap="round" stroke-linejoin="round"/>
<path d="M246.745 188.562L290.455 177.853C290.455 177.853 290.768 135.92 279.861 109.643C268.954 83.3656 261.773 76.6147 261.773 76.6147L230.887 77.8672C230.887 77.8672 238.748 116.932 238.748 136.321C238.748 141.719 238.34 148.407 237.742 155.246" stroke="black" stroke-width="1.22" stroke-linecap="round" stroke-linejoin="round"/>
</g>
</g>
<defs>
<linearGradient id="paint0_linear_257_112" x1="59.704" y1="265.527" x2="580.625" y2="265.527" gradientUnits="userSpaceOnUse">
<stop stop-color="#FFE6C1"/>
<stop offset="1" stop-color="#FFB321"/>
</linearGradient>
<clipPath id="clip0_257_112">
<rect width="544" height="375.745" rx="16" fill="white"/>
</clipPath>
</defs>
</svg>
