<svg width="544" height="380" viewBox="0 0 544 380" fill="none" xmlns="http://www.w3.org/2000/svg">
<g clip-path="url(#clip0_257_397)">
<path d="M544 0H0V380H544V0Z" fill="#F8FCFF"/>
<path d="M388.348 215.46C390.347 212.483 388.348 210.191 393.625 209.595C397.205 209.227 400.811 209.121 404.41 209.279C404.926 209.279 404.804 207.125 404.41 206.935C404.015 206.745 302.913 132.493 302.913 132.493L299.608 131.429H215.152L209.154 131.987L107.154 208.506L110.201 209.431L130.356 209.595C131.108 210.115 131.826 210.678 132.505 211.28V328.32L133.538 331.17H322.102L385.669 238.209L388.348 215.46Z" fill="#C5E4EA"/>
<path d="M390.347 209.595H288.932V331.259H390.347V209.595Z" fill="white"/>
<path d="M310.379 207.797L212.16 133L209.141 132.025L108.324 208.456L109.222 209.862L127.84 209.57L132.369 209.254C132.28 208.668 132.346 208.071 132.561 207.514C132.777 206.958 133.136 206.459 133.606 206.062L208.406 149.872L211.494 150.936L287.572 208.519L291.203 209.596H311.698L310.379 207.797Z" fill="#043DBC"/>
<path d="M390.347 209.595H288.932V331.259H390.347V209.595Z" stroke="black" stroke-width="1.3" stroke-linecap="round" stroke-linejoin="round"/>
<path d="M288.932 209.595L209.182 149.251L132.342 206.986V331.246H419.9" stroke="black" stroke-width="1.3" stroke-linecap="round" stroke-linejoin="round"/>
<path d="M270.069 259.958H218.239V293.753H270.069V259.958Z" fill="white"/>
<path d="M139.264 331.246H96.3968" stroke="black" stroke-width="1.3" stroke-linecap="round" stroke-linejoin="round"/>
<path d="M388.906 209.595H407.374L301.512 131.429H210.174L106.298 209.595H132.342" stroke="black" stroke-width="1.3" stroke-linecap="round" stroke-linejoin="round"/>
<path d="M210.174 131.429L312.732 209.595" stroke="black" stroke-width="1.3" stroke-linecap="round" stroke-linejoin="round"/>
<path d="M372.735 233.688H310.746V268.711H372.735V233.688Z" fill="#BCEBF1"/>
<path d="M372.735 233.688H310.746V268.711H372.735V233.688Z" stroke="black" stroke-width="1.3" stroke-linecap="round" stroke-linejoin="round"/>
<path d="M210.174 215.853C219.931 215.853 227.841 208.486 227.841 199.399C227.841 190.312 219.931 182.945 210.174 182.945C200.417 182.945 192.508 190.312 192.508 199.399C192.508 208.486 200.417 215.853 210.174 215.853Z" fill="white"/>
<path d="M341.741 233.688V268.723" stroke="black" stroke-width="1.3" stroke-linecap="round" stroke-linejoin="round"/>
<path d="M270.069 259.958H218.239V293.753H270.069V259.958Z" stroke="black" stroke-width="1.3" stroke-linecap="round" stroke-linejoin="round"/>
<path d="M169.415 258.641H181.764C186.125 258.641 190.307 260.254 193.39 263.126C196.474 265.998 198.206 269.893 198.206 273.955V331.246H152.973V273.955C152.973 269.893 154.705 265.998 157.789 263.126C160.872 260.254 165.054 258.641 169.415 258.641Z" fill="white"/>
<path d="M210.174 215.853C219.931 215.853 227.841 208.486 227.841 199.399C227.841 190.312 219.931 182.945 210.174 182.945C200.417 182.945 192.508 190.312 192.508 199.399C192.508 208.486 200.417 215.853 210.174 215.853Z" stroke="black" stroke-width="1.3" stroke-linecap="round" stroke-linejoin="round"/>
<path d="M169.415 258.641H181.764C186.125 258.641 190.307 260.254 193.39 263.126C196.474 265.998 198.206 269.893 198.206 273.955V331.246H152.973V273.955C152.973 269.893 154.705 265.998 157.789 263.126C160.872 260.254 165.054 258.641 169.415 258.641Z" stroke="black" stroke-width="1.3" stroke-linecap="round" stroke-linejoin="round"/>
<path d="M397.12 180.259C362.766 159.296 346.582 143.526 346.582 128.326V65.2587L397.12 48.792L447.671 65.2587V128.263C447.671 143.463 431.474 159.296 397.12 180.259Z" fill="#043DBC"/>
<path d="M397.12 166.187C370.11 149.72 357.381 137.281 357.381 125.324V75.7973L397.12 62.814L436.859 75.7973V125.324C436.859 137.281 424.13 149.707 397.12 166.187Z" fill="#BCEBF1"/>
<path d="M397.052 136.103C411.225 136.103 422.715 125.402 422.715 112.201C422.715 99.0006 411.225 88.2993 397.052 88.2993C382.879 88.2993 371.389 99.0006 371.389 112.201C371.389 125.402 382.879 136.103 397.052 136.103Z" fill="white"/>
<path d="M397.12 180.259C362.766 159.296 346.582 143.526 346.582 128.326V65.2587L397.12 48.792L447.671 65.2587V128.263C447.671 143.463 431.474 159.296 397.12 180.259Z" stroke="black" stroke-width="1.3" stroke-linecap="round" stroke-linejoin="round"/>
<path d="M397.12 166.187C370.11 149.72 357.381 137.281 357.381 125.324V75.7973L397.12 62.814L436.859 75.7973V125.324C436.859 137.281 424.13 149.707 397.12 166.187Z" stroke="black" stroke-width="1.3" stroke-linecap="round" stroke-linejoin="round"/>
<path d="M381.058 112.164H413.046" stroke="black" stroke-width="1.3" stroke-linecap="round" stroke-linejoin="round"/>
<path d="M397.052 127.06V97.2676" stroke="black" stroke-width="1.3" stroke-linecap="round" stroke-linejoin="round"/>
<path d="M397.052 136.103C411.225 136.103 422.715 125.402 422.715 112.201C422.715 99.0006 411.225 88.2993 397.052 88.2993C382.879 88.2993 371.389 99.0006 371.389 112.201C371.389 125.402 382.879 136.103 397.052 136.103Z" stroke="black" stroke-width="1.3" stroke-linecap="round" stroke-linejoin="round"/>
</g>
<defs>
<clipPath id="clip0_257_397">
<rect width="544" height="380" rx="16" fill="white"/>
</clipPath>
</defs>
</svg>
