<svg width="544" height="380" viewBox="0 0 544 380" fill="none" xmlns="http://www.w3.org/2000/svg">
<g clip-path="url(#clip0_257_138)">
<path d="M544 0H0V380H544V0Z" fill="#F8FCFF"/>
<path d="M193.025 92.9212L204.571 84.8652L221.422 97.2406L219.164 102.89L206.258 95.1506L199.05 99.9259" fill="#FFE8AD"/>
<path d="M199.852 105.195L204.558 106.855L202.722 111.567L197.513 110.085" fill="white"/>
<path d="M193.691 114.594L194.806 122.738L208.502 126.931L209.182 132.998L186.578 130.009L182.974 115.126" fill="#FFE8AD"/>
<path d="M134.531 78.0001C136.476 78.4941 140.325 77.4301 141.617 78.0001C142.909 78.5701 176.025 89.7548 177.466 90.4134C178.908 91.0721 180.826 91.5788 180.05 92.5161C179.275 93.4534 175.059 97.2914 174.311 100.597C173.81 102.605 173.64 104.673 173.808 106.728C173.808 107.488 174.189 108.539 172.366 107.868C170.544 107.197 130.927 93.8334 130.927 93.8334L134.531 78.0001Z" fill="#10D4FF"/>
<path d="M82.62 146.4C83.98 148.794 89.42 143.246 89.42 143.246L110.554 119.8C110.554 119.8 137.088 89.2353 138.081 86.6133C138.928 84.5001 139.388 82.2692 139.441 80.014C139.305 79.1527 136.435 70.6407 134.708 69.0067C132.981 67.3727 128.846 63.446 124.508 62.8C120.17 62.154 115.423 62.9013 114.988 64.3833C114.553 65.8653 114.906 81.8887 111.629 85.9167C108.351 89.9447 73.8072 131.301 75.2216 138.825C76.636 146.349 82.62 146.4 82.62 146.4Z" fill="#042E37"/>
<path d="M48.076 123.144C46.4848 122.27 45.764 121.877 46.716 120.826C47.668 119.775 86.6048 84.9415 86.6048 84.9415C86.6048 84.9415 97.4032 74.3648 100.205 72.8068C103.006 71.2488 108.079 69.6655 110.622 70.4001C113.166 71.1348 117.164 73.1108 118.374 74.4661C119.585 75.8215 122.454 79.7988 122.74 81.9268C123.026 84.0548 120.523 91.7308 119.163 93.1748C117.803 94.6188 109.412 104.397 109.412 104.397C109.412 104.397 86.428 132.733 85.2992 133.936C84.1704 135.139 82.0488 138.205 77.1392 136.089C72.2296 133.974 66.9392 128.857 58.7384 127.096C50.5376 125.335 48.076 123.144 48.076 123.144Z" fill="white"/>
<path d="M104.026 71.0589C102.435 71.0589 104.489 68.4369 106.978 66.4989C109.466 64.5609 112.826 61.9895 116.13 63.3829C119.435 64.7762 122.087 66.2709 123.76 68.8802C125.433 71.4896 128.071 75.4162 127.378 78.8616C126.684 82.3069 123.42 89.7802 123.012 88.3742C122.604 86.9682 123.284 84.3589 122.835 82.5222C122.386 80.6855 120.333 75.4669 118.32 73.9849C116.115 72.3882 113.547 71.2833 110.813 70.7549C108.546 70.6044 106.268 70.7064 104.026 71.0589Z" fill="#F29305"/>
<path d="M56.2496 122.739C60.5744 122.739 66.1504 122.017 68.408 122.954C71.3561 124.352 74.0987 126.097 76.568 128.147C77.996 129.528 89.964 149.199 89.964 149.199L114.24 190.176C114.24 190.176 127.84 213.039 128.71 214.597C129.581 216.155 133.035 223.869 133.593 227.391C133.992 231.53 133.955 235.696 133.484 239.829C133.171 241.489 130.642 242.743 125.664 242.831C120.686 242.92 116.144 243.503 116.729 240.501C117.349 238.145 117.678 235.731 117.708 233.306C117.407 229.448 116.687 225.629 115.559 221.906C114.594 219.588 112.676 214.445 112.309 214.306C111.942 214.167 101.592 197.396 101.592 197.396L87.04 173L70.04 144.082C70.04 144.082 63.6616 133.404 60.18 130.009C57.9667 127.696 55.2684 125.83 52.2512 124.525C50.8912 124.069 50.252 122.207 50.9864 122.473C52.6974 122.722 54.4235 122.87 56.1544 122.916" fill="#042E37"/>
<path d="M81.8176 242.287C81.2872 241.109 80.0496 237.499 80.0496 237.499L56.6168 190.429C56.6168 190.429 37.74 152.999 37.1416 147.73C36.6877 144.256 36.7471 140.74 37.3184 137.28C38.1467 134.133 39.351 131.083 40.9088 128.185C42.4048 125.931 43.724 122.992 47.056 123.448C50.1759 123.978 53.1751 125.002 55.9232 126.475C58.2131 128.349 60.3794 130.35 62.4104 132.467C63.2536 133.493 72.3248 148.515 72.3248 148.515L99.1304 192.595C99.1304 192.595 114.349 218.043 115.083 219.867C116.632 224.58 117.434 229.479 117.463 234.408C117.178 239.196 117.15 239.196 116.729 240.526C116.307 241.856 81.8176 242.287 81.8176 242.287Z" fill="#B3EDFF"/>
<path d="M81.6815 240.817L39.6847 155.533C36.902 149.888 36.0618 143.58 37.2792 137.473C38.4966 131.366 41.712 125.759 46.4847 121.421L98.3959 74.1998C99.798 72.9229 101.465 71.9252 103.294 71.2677C105.124 70.6102 107.078 70.3065 109.037 70.3753C110.997 70.444 112.921 70.8837 114.692 71.6675C116.464 72.4514 118.045 73.563 119.34 74.9345C121.545 77.2729 122.813 80.2507 122.927 83.3614C123.041 86.4721 121.995 89.5235 119.966 91.9965L82.8375 137.28L128.153 213.635C131.902 219.822 133.896 226.797 133.946 233.901C133.952 236.427 133.692 238.947 133.171 241.425" stroke="black" stroke-width="1.3" stroke-linecap="round" stroke-linejoin="round"/>
<path d="M44.0776 123.866C44.0776 123.866 55.8688 119.205 68.2176 140.915C76.8128 156.001 103.36 200.36 112.785 216.181C115.504 220.674 117.133 225.668 117.558 230.811C117.885 234.813 117.749 239.145 116.198 241.489" stroke="black" stroke-width="1.3" stroke-linecap="round" stroke-linejoin="round"/>
<path d="M45.1248 122.739H63.7568C68.34 122.739 75.0992 124.221 82.7968 137.28" stroke="black" stroke-width="1.3" stroke-linecap="round" stroke-linejoin="round"/>
<path d="M48.5385 154.19C53.0151 154.19 56.6441 148.961 56.6441 142.511C56.6441 136.061 53.0151 130.833 48.5385 130.833C44.0619 130.833 40.4329 136.061 40.4329 142.511C40.4329 148.961 44.0619 154.19 48.5385 154.19Z" fill="#C0BEB4"/>
<path d="M48.5385 154.19C53.0151 154.19 56.6441 148.961 56.6441 142.511C56.6441 136.061 53.0151 130.833 48.5385 130.833C44.0619 130.833 40.4329 136.061 40.4329 142.511C40.4329 148.961 44.0619 154.19 48.5385 154.19Z" stroke="black" stroke-width="1.3" stroke-linecap="round" stroke-linejoin="round"/>
<path d="M108.202 93.9219C112.761 93.9219 116.457 89.8614 116.457 84.8525C116.457 79.8437 112.761 75.7832 108.202 75.7832C103.642 75.7832 99.9464 79.8437 99.9464 84.8525C99.9464 89.8614 103.642 93.9219 108.202 93.9219Z" fill="#C0BEB4"/>
<path d="M108.202 93.9219C112.761 93.9219 116.457 89.8614 116.457 84.8525C116.457 79.8437 112.761 75.7832 108.202 75.7832C103.642 75.7832 99.9464 79.8437 99.9464 84.8525C99.9464 89.8614 103.642 93.9219 108.202 93.9219Z" stroke="black" stroke-width="1.3" stroke-linecap="round" stroke-linejoin="round"/>
<path d="M87.5432 145.133C87.5432 145.133 130.75 98.2667 137.673 87.2593C142.419 79.7607 136.626 68.652 128.982 64.4593C128.238 64.0605 127.449 63.7378 126.63 63.4967C124.08 62.539 121.338 62.1068 118.592 62.23L113.302 63.1167" stroke="black" stroke-width="1.3" stroke-linecap="round" stroke-linejoin="round"/>
<path d="M98.396 74.2001C98.396 74.2001 107.046 65.9288 110.119 64.0668C115.967 60.6341 122.917 65.4728 126.439 72.4521C129.962 79.4314 123.053 88.2348 119.286 92.8328" stroke="black" stroke-width="1.3" stroke-linecap="round" stroke-linejoin="round"/>
<path d="M138.842 77.1768L182.022 91.9461" stroke="black" stroke-width="1.3" stroke-linecap="round" stroke-linejoin="round"/>
<path d="M132.287 94.5049L174.882 109.072" stroke="black" stroke-width="1.3" stroke-linecap="round" stroke-linejoin="round"/>
<path d="M186.578 115.607C193.774 115.607 199.607 110.174 199.607 103.473C199.607 96.7708 193.774 91.3379 186.578 91.3379C179.383 91.3379 173.55 96.7708 173.55 103.473C173.55 110.174 179.383 115.607 186.578 115.607Z" fill="white"/>
<path d="M186.578 115.607C193.774 115.607 199.607 110.174 199.607 103.473C199.607 96.7708 193.774 91.3379 186.578 91.3379C179.383 91.3379 173.55 96.7708 173.55 103.473C173.55 110.174 179.383 115.607 186.578 115.607Z" stroke="black" stroke-width="1.38" stroke-linecap="round" stroke-linejoin="round"/>
<path d="M193.025 92.9212L204.571 84.8652L221.422 97.2406L219.164 102.89L206.258 95.1506L199.05 99.9259" fill="#F29305"/>
<path d="M193.025 92.9212L204.571 84.8652L221.422 97.2406L219.164 102.89L206.258 95.1506L199.05 99.9259" stroke="black" stroke-width="1.38" stroke-linecap="round" stroke-linejoin="round"/>
<path d="M193.691 114.594L194.806 122.738L208.502 126.931L209.182 132.998L186.578 130.009L182.974 115.126" fill="#F29305"/>
<path d="M193.691 114.594L194.806 122.738L208.502 126.931L209.182 132.998L186.578 130.009L182.974 115.126" stroke="black" stroke-width="1.38" stroke-linecap="round" stroke-linejoin="round"/>
<path d="M199.852 105.195L204.558 106.855L202.722 111.567L197.513 110.085" stroke="black" stroke-width="1.38" stroke-linecap="round" stroke-linejoin="round"/>
<path d="M87.9105 241.084C87.9105 241.084 87.2713 232.217 90.3041 225.415C93.8129 217.587 106.719 218.917 110.704 223.832C114.689 228.746 114.39 237.765 113.71 241.489" fill="#C0BEB4"/>
<path d="M93.8401 241.489C92.8134 237.718 93.2969 233.729 95.2001 230.266C98.4641 224.845 106.869 228.581 104.883 241.489" fill="white"/>
<path d="M93.8401 241.489C92.8134 237.718 93.2969 233.729 95.2001 230.266C98.4641 224.845 106.869 228.581 104.883 241.489" stroke="black" stroke-width="1.38" stroke-linecap="round" stroke-linejoin="round"/>
<path d="M87.9105 241.084C87.9105 241.084 87.2713 232.217 90.3041 225.415C93.8129 217.587 106.719 218.917 110.704 223.832C114.689 228.746 114.39 237.765 113.71 241.489" stroke="black" stroke-width="1.38" stroke-linecap="round" stroke-linejoin="round"/>
<path d="M296.888 210.278L292.4 203.02L290.714 202.526C290.714 202.526 254.266 202.45 253.558 202.526C252.851 202.602 251.219 202.209 251.056 203.134C250.893 204.059 255.476 211.063 255.925 211.405C256.412 211.788 257.028 211.998 257.666 212.001C258.196 212.001 294.726 211.608 295.61 211.735C296.494 211.861 296.711 211.849 296.97 211.557C297.228 211.266 296.888 210.278 296.888 210.278Z" fill="#FFD740"/>
<path d="M292.264 240.437V212.837L291.108 212.368H258.142C258.142 212.368 255.054 210.417 254.973 210.303L251.967 205.237C251.967 205.237 250.607 203.97 250.199 205.237C249.791 206.503 249.982 239.956 250.009 240.184C250.036 240.412 250.553 241.197 250.852 241.273C251.151 241.349 291.285 241.033 291.285 241.033L292.264 240.437Z" fill="#FFD740"/>
<path d="M247.316 241.805C247.751 241.805 249.669 240.881 249.75 240.273C249.832 239.665 250.104 206.199 249.846 205.237C249.587 204.274 248.39 203.463 247.724 205.237C247.058 207.01 245.874 210.151 244.514 210.823C243.154 211.494 223.054 211.507 222.306 211.785C221.558 212.064 220.606 213.381 220.606 213.381C220.606 213.381 220.606 237.79 220.973 239.437C221.34 241.083 221.993 241.197 222.115 241.235C222.238 241.273 247.316 241.805 247.316 241.805Z" fill="#FFE8AD"/>
<path d="M245.126 210.532L248.635 204.034C248.664 203.874 248.654 203.711 248.606 203.556C248.558 203.401 248.474 203.257 248.359 203.136C248.245 203.015 248.103 202.919 247.944 202.855C247.784 202.791 247.612 202.761 247.438 202.767C246.078 202.767 221.299 202.476 221.299 202.476C221.299 202.476 221 202.995 220.306 204.11C219.613 205.224 216.226 210.772 216.226 210.772L218.511 211.798H243.372L245.126 210.532Z" fill="#FFD740"/>
<path d="M292.264 241.489V212.153H256.183L249.846 202.349V241.489H292.264Z" stroke="black" stroke-width="1.38" stroke-linecap="round" stroke-linejoin="round"/>
<path d="M292.264 212.153H297.99L292.264 202.349H249.846" stroke="black" stroke-width="1.38" stroke-linecap="round" stroke-linejoin="round"/>
<path d="M249.125 202.349H220.497L215.288 211.773H244.528L249.125 202.349Z" stroke="black" stroke-width="1.38" stroke-linecap="round" stroke-linejoin="round"/>
<path d="M220.81 211.772V241.488H249.846" stroke="black" stroke-width="1.38" stroke-linecap="round" stroke-linejoin="round"/>
<path d="M193.555 210.278L189.04 203.02L187.34 202.526C187.34 202.526 150.906 202.45 150.198 202.526C149.491 202.602 147.859 202.209 147.696 203.134C147.533 204.059 152.116 211.063 152.565 211.405C153.049 211.785 153.659 211.995 154.292 212.001C154.836 212.001 191.366 211.608 192.25 211.735C193.134 211.861 193.351 211.849 193.61 211.557C193.868 211.266 193.555 210.278 193.555 210.278Z" fill="#FFD740"/>
<path d="M188.931 240.437V212.837L187.775 212.368H154.809C154.809 212.368 151.722 210.417 151.64 210.303L148.634 205.237C148.634 205.237 147.274 203.97 146.866 205.237C146.458 206.503 146.649 239.956 146.676 240.184C146.703 240.412 147.22 241.197 147.519 241.273C147.818 241.349 187.952 241.033 187.952 241.033L188.931 240.437Z" fill="#FFD740"/>
<path d="M143.983 241.805C144.418 241.805 146.322 240.881 146.418 240.273C146.513 239.665 146.771 206.199 146.499 205.237C146.227 204.274 145.058 203.463 144.391 205.237C143.725 207.01 142.542 210.151 141.182 210.823C139.822 211.494 119.721 211.507 118.973 211.785C118.225 212.064 117.273 213.381 117.273 213.381C117.273 213.381 117.273 237.79 117.64 239.437C118.007 241.083 118.66 241.197 118.782 241.235C118.905 241.273 143.983 241.805 143.983 241.805Z" fill="#FFE8AD"/>
<path d="M141.794 210.532L145.302 204.034C145.331 203.874 145.321 203.711 145.273 203.556C145.225 203.401 145.141 203.257 145.027 203.136C144.912 203.015 144.77 202.919 144.611 202.855C144.451 202.791 144.279 202.761 144.106 202.767C142.746 202.767 117.966 202.476 117.966 202.476C117.966 202.476 117.667 202.995 116.96 204.11C116.253 205.224 112.88 210.772 112.88 210.772L115.165 211.798H140.026L141.794 210.532Z" fill="#FFD740"/>
<path d="M188.931 241.489V212.153H152.837L146.499 202.349V241.489H188.931Z" stroke="black" stroke-width="1.38" stroke-linecap="round" stroke-linejoin="round"/>
<path d="M188.931 212.153H194.657L188.931 202.349H146.499" stroke="black" stroke-width="1.38" stroke-linecap="round" stroke-linejoin="round"/>
<path d="M145.792 202.349H117.164L111.955 211.773H141.182L145.792 202.349Z" stroke="black" stroke-width="1.38" stroke-linecap="round" stroke-linejoin="round"/>
<path d="M117.477 211.772V241.488H146.499" stroke="black" stroke-width="1.38" stroke-linecap="round" stroke-linejoin="round"/>
<path d="M474.341 240.918H74.936C61.1757 240.918 50.0208 251.305 50.0208 264.117C50.0208 276.93 61.1757 287.316 74.936 287.316H474.341C488.101 287.316 499.256 276.93 499.256 264.117C499.256 251.305 488.101 240.918 474.341 240.918Z" fill="#10D4FF"/>
<path d="M474.341 240.918H74.936C61.1757 240.918 50.0208 251.305 50.0208 264.117C50.0208 276.93 61.1757 287.316 74.936 287.316H474.341C488.101 287.316 499.256 276.93 499.256 264.117C499.256 251.305 488.101 240.918 474.341 240.918Z" stroke="black" stroke-width="1.3" stroke-linecap="round" stroke-linejoin="round"/>
<path d="M151.395 278.982C160.566 278.982 168.001 272.057 168.001 263.516C168.001 254.974 160.566 248.05 151.395 248.05C142.224 248.05 134.79 254.974 134.79 263.516C134.79 272.057 142.224 278.982 151.395 278.982Z" fill="#C0BEB4"/>
<path d="M151.395 278.982C160.566 278.982 168.001 272.057 168.001 263.516C168.001 254.974 160.566 248.05 151.395 248.05C142.224 248.05 134.79 254.974 134.79 263.516C134.79 272.057 142.224 278.982 151.395 278.982Z" stroke="black" stroke-width="1.3" stroke-linecap="round" stroke-linejoin="round"/>
<path d="M211.249 278.982C220.42 278.982 227.854 272.057 227.854 263.516C227.854 254.974 220.42 248.05 211.249 248.05C202.078 248.05 194.643 254.974 194.643 263.516C194.643 272.057 202.078 278.982 211.249 278.982Z" fill="#C0BEB4"/>
<path d="M211.249 278.982C220.42 278.982 227.854 272.057 227.854 263.516C227.854 254.974 220.42 248.05 211.249 248.05C202.078 248.05 194.643 254.974 194.643 263.516C194.643 272.057 202.078 278.982 211.249 278.982Z" stroke="black" stroke-width="1.3" stroke-linecap="round" stroke-linejoin="round"/>
<path d="M271.116 278.982C280.287 278.982 287.722 272.057 287.722 263.516C287.722 254.974 280.287 248.05 271.116 248.05C261.945 248.05 254.51 254.974 254.51 263.516C254.51 272.057 261.945 278.982 271.116 278.982Z" fill="#C0BEB4"/>
<path d="M271.116 278.982C280.287 278.982 287.722 272.057 287.722 263.516C287.722 254.974 280.287 248.05 271.116 248.05C261.945 248.05 254.51 254.974 254.51 263.516C254.51 272.057 261.945 278.982 271.116 278.982Z" stroke="black" stroke-width="1.3" stroke-linecap="round" stroke-linejoin="round"/>
<path d="M155.584 155.951L142.419 146.945" stroke="black" stroke-width="1.3" stroke-linecap="round" stroke-linejoin="round"/>
<path d="M235.28 168.807L227.868 158.079" stroke="black" stroke-width="1.3" stroke-linecap="round" stroke-linejoin="round"/>
<path d="M142.419 40.5322L145.316 20.6709" stroke="black" stroke-width="1.3" stroke-linecap="round" stroke-linejoin="round"/>
<path d="M257.094 145.184L264.003 123.397" stroke="black" stroke-width="1.3" stroke-linecap="round" stroke-linejoin="round"/>
</g>
<defs>
<clipPath id="clip0_257_138">
<rect width="544" height="380" rx="16" fill="white"/>
</clipPath>
</defs>
</svg>
