<svg width="544" height="380" viewBox="0 0 544 380" fill="none" xmlns="http://www.w3.org/2000/svg">
<path d="M544 0H0V380H544V0Z" fill="#F8FCFF"/>
<path d="M338.218 116.533L271.578 83.0427H269.144C269.144 83.0427 204.68 116.533 204.449 116.533C204.218 116.533 203.728 117.521 203.728 117.521L270.164 155.027L272.204 154.698L338.218 118.332L339.021 116.825L338.218 116.533Z" fill="#BCEBF1"/>
<path d="M413.277 248.393C413.277 248.229 412.937 245.442 412.937 245.442L410.706 243.757H408.721L277.93 304.127L137.224 239.894L130.764 242.757L129.717 245.125L136.204 251.585L268.124 323.785L413.277 248.393Z" fill="#3C3438"/>
<path d="M272 322.278L271.171 320.581L130.016 245.125L128.629 245.607V267.267L129.404 268.964L269.947 343.761L271.579 343.419L272 322.278Z" fill="white"/>
<path d="M272 292.841L271.171 291.131L130.016 215.688L128.629 216.169V237.829L129.404 239.527L269.947 314.323L271.579 313.981L272 292.841Z" fill="white"/>
<path d="M412.434 218.183L412.937 216.993L340.966 178.157L202.45 176.738H201.171L130.111 214.548L129.717 216.144L269.674 290.966L272.517 291.485L412.434 218.183Z" fill="#D43B20"/>
<path d="M338.844 192.179L329.623 186.947H328.087L272.707 216.245L270.518 216.435L214.595 187.467L211.929 187.568L204.041 192.369L203.66 193.825L269.851 228.925L272.286 229.191L338.069 194.193L338.844 192.179Z" fill="#3C3438"/>
<path d="M338.844 153.875L329.623 148.643H328.087L272.707 177.941L270.518 178.119L214.595 149.163L211.929 149.264L204.041 154.052L203.66 155.521L269.851 190.621L270.912 192.521L338.069 155.889L338.844 153.875Z" fill="#3C3438"/>
<path d="M271.32 213.826L271.17 193.027L270.395 191.507L204.286 156.117L202.762 156.687L202.871 180.057L203.497 181.247L269.946 216.157L270.735 215.422L271.32 213.826Z" fill="white"/>
<path d="M271.32 251.535L271.17 230.736L270.395 229.216L204.286 193.825L202.762 194.395L202.871 217.765L203.497 218.969L269.946 253.865L270.735 253.131L271.32 251.535Z" fill="white"/>
<path d="M340.218 217.677L340.027 194.851L339.334 193.851L272.449 229.469L271.32 230.901L271.47 253.612L272.299 253.84L339.524 218.703L340.218 217.677Z" fill="#FC6140"/>
<path d="M340.218 179.411L340.027 156.573L339.334 155.572L272.449 191.191L271.32 192.622L271.47 215.333L272.299 215.574L339.524 180.424L340.218 179.411Z" fill="#FC6140"/>
<path d="M340.218 142.323L340.027 119.485L339.334 118.484L272.449 154.103L271.32 155.534L271.47 178.245L272.299 178.486L339.524 143.349L340.218 142.323Z" fill="#FC6140"/>
<path d="M414.011 247.975L413.25 247.063L272.639 320.733L271.837 321.974L271.578 343.849L272.258 344.546L413.508 270.345L413.834 269.382L414.011 247.975Z" fill="#FC6140"/>
<path d="M414.011 218.069L413.25 217.157L272.639 290.827L271.837 292.068L271.578 313.943L272.258 314.653L414.011 241.059L413.834 239.476L414.011 218.069Z" fill="#FC6140"/>
<path d="M271.32 176.333L271.17 155.534L270.395 154.014L204.286 118.623L202.762 119.193L202.871 142.563L203.497 143.767L269.946 178.663L270.735 177.929L271.32 176.333Z" fill="white"/>
<path d="M201.742 176.269L128.629 215.574L271.171 291.764L414.011 217.373L340.245 177.764" stroke="black" stroke-width="1.3" stroke-linecap="round" stroke-linejoin="round"/>
<path d="M213.343 187.315L202.599 193.154V219.133L271.171 254.423L340.027 218.728V193.154L329.107 186.643" stroke="black" stroke-width="1.3" stroke-linecap="round" stroke-linejoin="round"/>
<path d="M213.343 149.365L202.599 155.205V181.197L271.171 217.056L340.027 180.779V155.205L328.875 149.365" stroke="black" stroke-width="1.3" stroke-linecap="round" stroke-linejoin="round"/>
<path d="M271.171 179.119V155.205L340.027 117.268V142.842L271.171 179.119ZM271.171 179.119L202.599 143.26V117.268L213.343 111.429L270.722 82.5234L340.027 117.268" stroke="black" stroke-width="1.3" stroke-linecap="round" stroke-linejoin="round"/>
<path d="M202.599 193.154L271.171 229.786L340.027 193.154" stroke="black" stroke-width="1.3" stroke-linecap="round" stroke-linejoin="round"/>
<path d="M340.027 155.205L271.171 192.28L202.599 155.205" stroke="black" stroke-width="1.3" stroke-linecap="round" stroke-linejoin="round"/>
<path d="M271.17 229.786V254.423" stroke="black" stroke-width="1.3" stroke-linecap="round" stroke-linejoin="round"/>
<path d="M271.17 217.056V192.28" stroke="black" stroke-width="1.3" stroke-linecap="round" stroke-linejoin="round"/>
<path d="M271.171 155.205L202.599 117.268" stroke="black" stroke-width="1.3" stroke-linecap="round" stroke-linejoin="round"/>
<path d="M414.011 217.373V241.287L271.17 314.437V291.764" stroke="black" stroke-width="1.3" stroke-linecap="round" stroke-linejoin="round"/>
<path d="M222.755 120.764H314.405C316.93 120.764 319.351 119.83 321.137 118.167C322.922 116.504 323.925 114.249 323.925 111.897V44.3332C323.925 41.9816 322.922 39.7264 321.137 38.0635C319.351 36.4007 316.93 35.4666 314.405 35.4666H222.755C220.23 35.4666 217.808 36.4007 216.023 38.0635C214.238 39.7264 213.235 41.9816 213.235 44.3332V111.847C213.227 113.015 213.468 114.174 213.944 115.255C214.419 116.337 215.119 117.32 216.004 118.149C216.888 118.978 217.94 119.635 219.099 120.084C220.257 120.533 221.5 120.764 222.755 120.764Z" fill="#FFBB43"/>
<path d="M320.756 55.8726L323.476 55.7713L324.034 54.3653C324.034 54.3653 324.414 41.9646 322.837 39.8113C321.259 37.6579 320.865 36.9739 317.397 35.9353C313.929 34.8966 308.04 35.4666 308.04 35.4666C308.04 35.4666 225.08 34.9979 222.7 35.4666C220.32 35.9353 219.98 35.1246 217.79 36.7333C215.601 38.3419 214.159 39.1779 213.71 40.5333C213.325 41.8852 213.074 43.2676 212.962 44.6626L212.609 53.1999C212.609 53.1999 214.282 55.9359 215.995 56.0753C217.401 56.1356 218.81 56.106 220.211 55.9866L320.756 55.8726Z" fill="white"/>
<path d="M222.755 120.764H314.405C316.93 120.764 319.351 119.83 321.137 118.167C322.922 116.504 323.925 114.249 323.925 111.897V44.3332C323.925 41.9816 322.922 39.7264 321.137 38.0635C319.351 36.4007 316.93 35.4666 314.405 35.4666H222.755C220.23 35.4666 217.808 36.4007 216.023 38.0635C214.238 39.7264 213.235 41.9816 213.235 44.3332V111.847C213.227 113.015 213.468 114.174 213.944 115.255C214.419 116.337 215.119 117.32 216.004 118.149C216.888 118.978 217.94 119.635 219.099 120.084C220.257 120.533 221.5 120.764 222.755 120.764Z" stroke="black" stroke-width="1.3" stroke-linecap="round" stroke-linejoin="round"/>
<path d="M323.952 55.8726H213.207" stroke="black" stroke-width="1.3" stroke-linecap="round" stroke-linejoin="round"/>
<path d="M283.982 84.4994L259.325 71.2374C259.114 71.1106 258.869 71.0408 258.618 71.0357C258.367 71.0306 258.119 71.0904 257.902 71.2085C257.685 71.3265 257.507 71.4983 257.389 71.7046C257.27 71.9109 257.215 72.1438 257.23 72.3774V98.8761C257.215 99.1097 257.27 99.3425 257.389 99.5489C257.507 99.7552 257.685 99.9269 257.902 100.045C258.119 100.163 258.367 100.223 258.618 100.218C258.869 100.213 259.114 100.143 259.325 100.016L283.982 86.7541C284.204 86.6478 284.391 86.4863 284.522 86.2874C284.652 86.0885 284.722 85.8599 284.722 85.6267C284.722 85.3936 284.652 85.165 284.522 84.9661C284.391 84.7672 284.204 84.6057 283.982 84.4994Z" fill="#FC6140"/>
<path d="M283.982 84.4994L259.325 71.2374C259.114 71.1106 258.869 71.0408 258.618 71.0357C258.367 71.0306 258.119 71.0904 257.902 71.2085C257.685 71.3265 257.507 71.4983 257.389 71.7046C257.27 71.9109 257.215 72.1438 257.23 72.3774V98.8761C257.215 99.1097 257.27 99.3425 257.389 99.5489C257.507 99.7552 257.685 99.9269 257.902 100.045C258.119 100.163 258.367 100.223 258.618 100.218C258.869 100.213 259.114 100.143 259.325 100.016L283.982 86.7541C284.204 86.6478 284.391 86.4863 284.522 86.2874C284.652 86.0885 284.722 85.8599 284.722 85.6267C284.722 85.3936 284.652 85.165 284.522 84.9661C284.391 84.7672 284.204 84.6057 283.982 84.4994Z" stroke="black" stroke-width="1.3" stroke-linecap="round" stroke-linejoin="round"/>
<path d="M222.591 46.322H228.331" stroke="black" stroke-width="1.3" stroke-linecap="round" stroke-linejoin="round"/>
<path d="M235.09 46.322H240.829" stroke="black" stroke-width="1.3" stroke-linecap="round" stroke-linejoin="round"/>
<path d="M247.588 46.322H253.341" stroke="black" stroke-width="1.3" stroke-linecap="round" stroke-linejoin="round"/>
<path d="M271.171 314.437L128.629 239.691V215.574" stroke="black" stroke-width="1.3" stroke-linecap="round" stroke-linejoin="round"/>
<path d="M132.274 241.604L128.629 244.391L271.837 320.935L414.011 246.671L410.135 243.263" stroke="black" stroke-width="1.3" stroke-linecap="round" stroke-linejoin="round"/>
<path d="M414.011 246.671V270.079L271.32 344.736L128.629 268.546V244.391" stroke="black" stroke-width="1.3" stroke-linecap="round" stroke-linejoin="round"/>
<path d="M271.837 320.935L271.32 344.736" stroke="black" stroke-width="1.3" stroke-linecap="round" stroke-linejoin="round"/>
</svg>
