<svg version="1.2" xmlns="http://www.w3.org/2000/svg" viewBox="0 0 956 836" width="956" height="1028">
    <style>
        .a {
            opacity: 0.5;
            fill: #ffe8ad;
        }
        .b {
            fill: none;
            stroke: #000;
            stroke-linecap: round;
            stroke-linejoin: round;
            stroke-width: 2.6;
        }
        .c {
            fill: #ffcf44;
        }
        .d {
            fill: #ffe8ad;
        }
        .e {
            fill: #fc6140;
        }
        .f {
            fill: #bcebf1;
        }
        .g {
            fill: #00bbd6;
        }
        .h {
            fill: #fffffe;
        }
        .i {
            fill: none;
            stroke: #000;
            stroke-linecap: round;
            stroke-linejoin: round;
            stroke-width: 1.6;
        }
        .j {
            fill: #362d46;
        }
        .k {
            fill: #fefefd;
        }
        .l {
            fill: #fff;
        }

.s1 {
	-webkit-animation: s1 2s infinite cubic-bezier(0.470, 0.000, 0.745, 0.715) both;
	        animation: s1 2s infinite cubic-bezier(0.470, 0.000, 0.745, 0.715) both;
       
}


@-webkit-keyframes s1 {
  0% {
    -webkit-transform: translateZ(0) translateY(0) translateX(0);
            transform: translateZ(0) translateY(0) translateX(0);
  }
  100% {
    -webkit-transform: translateZ(-300px) translateY(-50px) translateX(50px);
            transform: translateZ(-300px) translateY(-50px) translateX(50px);
  }
}
@keyframes s1 {
  0% {
    -webkit-transform: translateZ(0) translateY(0) translateX(0);
            transform: translateZ(0) translateY(0) translateX(0);
  }
  100% {
    -webkit-transform: translateZ(-300px) translateY(-50px) translateX(50px);
            transform: translateZ(-300px) translateY(-50px) translateX(50px);
        
  }
}

.fade {
	-webkit-animation: fade 2s infinite cubic-bezier(0.390, 0.575, 0.565, 1.000) both;
	        animation: fade 2s inifinte cubic-bezier(0.390, 0.575, 0.565, 1.000) both;
          
}


@-webkit-keyframes fade {
  0% {
    opacity: 0;
  }
  100% {
    opacity: 1;
  }
}
@keyframes fade {
  0% {
    opacity: 0;
  }
  100% {
    opacity: 1;
  }
}

.blink {
	-webkit-animation: blink 0.4s cubic-bezier(0.250, 0.460, 0.450, 0.940) both;
	        animation: sblink 0.4s cubic-bezier(0.250, 0.460, 0.450, 0.940) both;
}

@-webkit-keyframes blink {
  0% {
    -webkit-transform: translateZ(0);
            transform: translateZ(0);
    -webkit-box-shadow: 0 0 0 0 rgba(0, 0, 0, 0);
            box-shadow: 0 0 0 0 rgba(0, 0, 0, 0);
  }
  100% {
    -webkit-transform: translateZ(50px);
            transform: translateZ(50px);
    -webkit-box-shadow: 0 0 20px 0px rgba(0, 0, 0, 0.35);
            box-shadow: 0 0 20px 0px rgba(0, 0, 0, 0.35);
  }
}
@keyframes blink {
  0% {
    -webkit-transform: translateZ(0);
            transform: translateZ(0);
    -webkit-box-shadow: 0 0 0 0 rgba(0, 0, 0, 0);
            box-shadow: 0 0 0 0 rgba(0, 0, 0, 0);
  }
  100% {
    -webkit-transform: translateZ(50px);
            transform: translateZ(50px);
    -webkit-box-shadow: 0 0 20px 0px rgba(0, 0, 0, 0.35);
            box-shadow: 0 0 20px 0px rgba(0, 0, 0, 0.35);
  }
}


    </style>
    <path class="a" d="m589.2 7c0 0-498.1-64-587.5 242.5v221.3c0 0 109.8-228.7 587.5-236.9z" />
    <path class="b" d="m589.2 7c0 0-498.1-64-587.5 242.5v221.3c0 0 109.8-228.7 587.5-236.9z" />
    <path class="b" d="m1.7 413.9c0 0 9.6-219.6 406.6-261.1" />
    <path class="b" d="m1.7 571.7c0 0 9.6-219.6 406.6-261" />
    <path class="c" d="m624.9 614.7v16.9l-89.8 51v-15.5z" />
    <path class="c" d="m535.1 667.1v15.5l-148.1-87.1v-13.9z" />
    <path class="d" d="m624.9 614.7l-89.8 52.4-148.1-85.5 84-49.3v53.2l65.9 37.6 10.1-6.4v-46.7z" />
    <path class="e" d="m712.6 665.1l22.3-10.6v-280.2l-418.6-242.2-19.2 13.7" />
    <path class="c" d="m712.6 386.5v278.6l-87.7-50.4-77.9-44.7-10.1-5.8-65.9-37.9-173.9-100v-280.5z" />
    <path class="d" d="m698.4 632.7l-390.2-223.9v-242.2l390.2 225.9z" />
    <path class="e" d="m536.9 564.2v58.9l-65.9-37.6v-59.2z" />
    <path class="b" d="m698.4 632.7l-390.2-223.9v-242.2l390.2 225.9z" />
    <path class="b" d="m712.6 386.5v278.6l-87.7-50.4-77.9-44.7-10.1-5.8-65.9-37.9-173.9-100v-280.5z" />
    <path class="b" d="m712.6 665.1l22.3-10.6v-280.2l-418.6-242.2-19.2 13.7" />
    <path class="e" d="m547 570v46.7l-10.1 6.4v-58.9z" />
    <path class="b" d="m712.6 386.5l22.3-12.2" />
    <path class="b" d="m471 532.3v-6" />
    <path class="b" d="m547 570v46.7l-10.1 6.4v-58.9z" />
    <path class="b" d="m624.9 614.7v16.9l-89.8 51v-15.5z" />
    <path class="b" d="m535.1 667.1v15.5l-148.1-87.1v-13.9z" />
    <path class="b" d="m624.9 614.7l-89.8 52.4-148.1-85.5 84-49.3v53.2l65.9 37.6 10.1-6.4v-46.7z" />
    <g class="fade">
    <path class="f s2" d="m666 580.6v-169.6l-189.3-109.2v168.5z" />
    <path class="g s2" d="m565.9 453l-44.9-60.9-44.3 3v75.2l70.3 40.9z" />
    <path class="e s2" d="m666 539l-66.4-86-122.9 2.2v15.1l189.3 110.3z" />
    <path class="b s2" d="m666 580.6v-169.6l-189.3-109.2v168.5z" />
    <path class="g s2" d="m634.3 440.9c-4.9 3.7-13.3 0.7-18.9-6.7-5.6-7.4-6.3-16.4-1.5-20 4.9-3.7 13.3-0.7 18.9 6.7 5.7 7.4 6.3 16.4 1.5 20z" />
    </g>
    <path class="f" d="m446.5 384.4v-97.3l-108.6-62.6v96.6z" />
    <path class="g" d="m389.1 311.2l-25.8-34.9-25.4 1.7v43.1l40.3 23.5z" />
    <path class="e" d="m446.5 360.6l-38.1-49.4-70.5 1.3v8.6l108.6 63.3z" />
    <path class="g" d="m428.3 304.3c-2.8 2.1-7.6 0.4-10.8-3.9-3.3-4.2-3.6-9.4-0.9-11.5 2.8-2.1 7.7-0.3 10.9 3.9 3.2 4.3 3.6 9.4 0.8 11.5z" />
   
    <path class="b" d="m446.5 287l-108.6-62.5v97.1l108.6 64.9z" />
   
    <path class="h s2" d="m215.5 88.5v177.3c0 0-78.4 23.8-117.3 58.5v-176.1c0 0 77.7-52.4 117.3-59.7z" />
    <path class="e s1" d="m510.9 427.6l-23.3 92.7-10.9-11.5-13.3 20.5c-3 4.5-9 5.7-13.5 2.8-4.4-2.9-5.7-8.8-2.9-13.2l10.3-16.5 2.4-3.9-18.5-4.8z" />
    <path class="i s1" d="m510.9 427.6l-23.3 92.7-10.9-11.5-13.3 20.5c-3 4.5-9 5.7-13.5 2.8-4.4-2.9-5.7-8.8-2.9-13.2l10.3-16.5 2.4-3.9-18.5-4.8z" />
    <path class="j s1" d="m441.2 493.7l18.5 4.8-2.4 3.9-26.1-6.7 79.7-68.1z" />
    <path class="i s1" d="m441.2 493.7l18.5 4.8-2.4 3.9-26.1-6.7 79.7-68.1z" />
    <g class="fade">
    <path class="b s2" d="m215.5 88.5v177.3c0 0-78.4 23.8-117.3 58.5v-176.1c0 0 77.7-52.4 117.3-59.7z" />
    <path class="b s2" d="m192.8 128c0 0-35.7 10.6-75.3 38" />
    <path class="b s2" d="m194.5 155.9c0 0-35.6 10.5-75.3 37.9" />
    <path class="b s2" d="m196.3 183.7c0 0-35.7 10.5-75.4 38" />
    <path class="b s2" d="m147.8 233.9c-8 4.4-16.5 9.6-25.1 15.6" />
    <path class="b s2 " d="m198 211.5c0 0-9.8 2.9-24.9 9.6" />
    <path class="a s2" d="m135.2 704.1c208.2 93.5 374 87.8 503.6 63.8 251.7-46.5 310-198.1 310-198.1v-277.6c0 0 3.3 133.1-282.1 207.4-301 78.3-531.5-59-531.5-59z" />
    <path class="b s2" d="m199.7 239.3c0 0-35.6 10.6-75.3 38" />
    </g>
    <path class="b" d="m135.2 704.1c208.2 93.5 374 87.8 503.6 63.8 251.7-46.5 310-198.1 310-198.1v-277.6c0 0 3.3 133.1-282.1 207.4-301 78.3-531.5-59-531.5-59z" />
    <path class="b" d="m948.8 292.2c0 0 21.7-131.1-133.4-195.5" />
    <path class="b" d="m948.8 454.2c0 0-195.8 330.7-749.1 165.2" />
    <path class="b" d="m954.3 648.7c0 0-207.9 301.7-761.2 136.3" />
    <path class="b" d="m615.5 152.8c0 0 260.7 56.5 333.3 218" />
    <g class="fade">
    <path class="k s2" d="m892.2 442.2v171.9c0 0-68.4 56-108.7 69.3v-180.7c0 0 71.8-29 108.7-60.5z" />
    <path class="b s2" d="m892.2 442.2v171.9c0 0-68.4 56-108.7 69.3v-180.7c0 0 71.8-29 108.7-60.5z" />
    <path class="b s2" d="m872.3 482.9c0 0-26.6 22.2-70.7 38.6" />
    <path class="b s2" d="m874.6 511c0 0-20.7 13.4-42.5 23.1" />
    <path class="b s2" d="m876.9 540.5c0 0-41.8 25.6-72.4 39.5" />
    <path class="b s2" d="m874.6 567.7c0 0-40.6 30-65.8 41.8" />
    <path class="b s2" d="m876.9 595.4l-18.4 12.2" />
    <path class="b s2" d="m839.2 621.3c0 0-24.2 16.3-40 23.3" />
        <path class="l s2" d="m216.5 501.1v226.5c0 0-110.7-47.1-157-97.1v-212.1c0 0 93.8 64.9 157 82.7z" />
    <path class="b s2" d="m216.5 501.1v226.5c0 0-110.7-47.1-157-97.1v-212.1c0 0 93.8 64.9 157 82.7z" />
    <path class="b s2" d="m88 466.4c0 0 59.5 42.1 105 57" />
    <path class="b s2" d="m85.1 504.8c0 0 69.8 43.1 107.9 55.2" />
    <path class="b s2" d="m85.1 542c0 0 48.4 34.7 84.3 49.6" />
    <path class="b s2" d="m85.1 581.3c0 0 59.5 45 107.9 58.3" />
    <path class="b s2" d="m85.1 620.6c0 0 47.9 35.9 107.9 60.3" />
    </g>

</svg>
