<svg version="1.2" xmlns="http://www.w3.org/2000/svg" viewBox="0 0 998 1128" width="998" height="1028">
    <style>
        tspan {
            white-space: pre;
        }
        .a {
            fill: #fc6140;
        }
        .b {
            fill: #ffcf44;
        }
        .c {
            fill: #bbebf1;
        }
        .d {
            fill: #00bbd6;
        }
        .e {
            fill: none;
            stroke: #000;
            stroke-linecap: round;
            stroke-linejoin: round;
            stroke-width: 2.6;
        }
        .f {
            fill: #fed045;
        }
        .g {
            fill: #372d46;
        }
        .h {
            fill: #fee8ad;
        }
        .i {
            fill: #bbebf2;
        }
        .j {
            fill: #03bbd7;
        }
        .k {
            fill: #fc613f;
        }
        .l {
            fill: #d43b20;
        }
        .m {
            fill: #fc6240;
        }
        .n {
            fill: #fff;
        }
        .o {
            fill: #fff;
            stroke: #000;
            stroke-linecap: round;
            stroke-linejoin: round;
            stroke-width: 4.3;
        }
        .p {
            fill: #bcebf1;
        }
        .q {
            fill: #362d46;
        }
        .r {
            fill: #ffe8ad;
        }
        .s {
            fill: #ec1a23;
        }
        .t {
            fill: #fed043;
        }
        .u {
            font-size: 11px;
            fill: #ffffff;
            font-weight: 500;
            font-family: "Montserrat-Medium", "Montserrat";
        }
        .v {
            font-size: 11px;
            fill: #fffeff;
            font-weight: 500;
            font-family: "Montserrat-Medium", "Montserrat";
        }
        .w {
            fill: #0bbbd8;
        }

        .s1 {
-webkit-animation: s1 5s infinite cubic-bezier(0.390, 0.575, 0.565, 1.000) both;
	        animation: s1 5s infinite  cubic-bezier(0.390, 0.575, 0.565, 1.000) both;
           
}

@-webkit-keyframes s1 {
  0% {
    opacity: 0;
  }
  100% {
    opacity: 1;
  }
}
@keyframes s1 {
  0% {
    opacity: 0;
  }
  100% {
    opacity: 1;
  }
}


        .s3 {
-webkit-animation: s1 5s infinite cubic-bezier(0.390, 0.575, 0.565, 1.000) both;
	        animation: s1 5s infinite  cubic-bezier(0.390, 0.575, 0.565, 1.000) both;
            animation-delay: 1s;
}

@-webkit-keyframes s3 {
  0% {
    opacity: 0;
  }
  100% {
    opacity: 1;
  }
}
@keyframes s1 {
  0% {
    opacity: 0;
  }
  100% {
    opacity: 1;
  }
}


    </style>
    <path class="a s1" d="m136 589.3c0 5.6-4.5 10.2-10.1 10.2-5.6 0-10.2-4.6-10.2-10.2 0-5.6 4.6-10.1 10.2-10.1 5.6 0 10.1 4.5 10.1 10.1z" />
    <path class="a s1" d="m660.1 908.6c0 1.9-1.6 3.5-3.6 3.5-2 0-3.6-1.6-3.6-3.5 0-2 1.6-3.6 3.6-3.6 2 0 3.6 1.6 3.6 3.6z" />
    <path class="a s1" d="m429.3 130.9c0 2-1.6 3.6-3.6 3.6-2 0-3.6-1.6-3.6-3.6 0-1.9 1.6-3.5 3.6-3.5 2 0 3.6 1.6 3.6 3.5z" />
    <path class="b s1" d="m745.3 438.6c0 5.4-4.4 9.7-9.8 9.7-5.4 0-9.7-4.3-9.7-9.7 0-5.4 4.3-9.8 9.7-9.8 5.4 0 9.8 4.4 9.8 9.8z" />
    <path class="b" d="m162.5 999.1c0 2.3-1.9 4.2-4.2 4.2-2.3 0-4.2-1.9-4.2-4.2 0-2.3 1.9-4.1 4.2-4.1 2.3 0 4.2 1.8 4.2 4.1z" />
    <path class="b s1" d="m809.4 136.6c0 2.3-1.8 4.2-4.1 4.2-2.3 0-4.2-1.9-4.2-4.2 0-2.3 1.9-4.1 4.2-4.1 2.3 0 4.1 1.8 4.1 4.1z" />
    <path class="c" d="m646.9 498.1h-446.3c-13.6 0-24.6-11-24.6-24.6v-233.5c0-13.6 11-24.6 24.6-24.6h446.3c13.6 0 24.6 11 24.6 24.6v233.5c0 13.6-11 24.6-24.6 24.6z" />
    <path class="d" d="m671.5 461.7v11.8c0 13.6-11 24.6-24.6 24.6h-446.3c-13.6 0-24.6-11-24.6-24.6v-11.8z" />
    <path class="e" d="m671.5 461.7v11.8c0 13.6-11 24.6-24.6 24.6h-446.3c-13.6 0-24.6-11-24.6-24.6v-11.8z" />
    <path class="e" d="m671.5 240v221.7h-495.5v-221.7c0-13.6 11-24.6 24.6-24.6h446.3c13.6 0 24.6 11 24.6 24.6z" />
    <path class="f" d="m473.6 415.8c-13.6-1.6-28.8-2.4-46.2-2.4-20.5 0-38.2 1.1-53.6 3.4 0 0 2.2-17.9 14.3-23.6 1.3-0.6 2.8-1.1 4.3-1.6 12.7-4.1 31.3-3.9 31.3-3.9 0 0 23-0.2 35.3 5.3 0.1 0.1 0.2 0.1 0.3 0.2 12.2 5.7 14.3 22.6 14.3 22.6z" />
    <path
        class="g"
        d="m479.7 296.9c0 5.7-1.4 13.9-3.5 22.7 0 0 0 0 0 0.1q0 0-0.1 0.1c-2.1 9.3-4.9 19.3-7.5 27.4-1.3 4.1-3.3 7.8-5.6 10.9-1.2 1.8-2.6 3.3-4 4.8-6 6.1-13.4 9.8-19.7 11.2-5.4 1.2-26.3 2.8-35.7-0.9-3.2-1.3-7.1-4.5-11.2-8.7-2.4-2.4-4.8-5.3-7.1-8.3-5.3-7.1-10.1-15.2-12.6-22.2-1.5-4.6-3.2-9.3-4.5-14.2 0-0.1 0-0.1 0-0.1-3.3-11.7-5.1-24.7-0.6-39.6 3.9-13 26.5-30 50.7-30.8 28.5-1 39.2 21.8 39.2 21.8 6.4-3.5 22.2 14.1 22.2 25.8z"
    />
    <path class="e" d="m457.5 271.1l1.2 7.3" />
    <path class="g" d="m476.1 319.8c-2.1 9.3-4.9 19.3-7.5 27.4-1.3 4.1-3.3 7.8-5.6 10.9z" />
    <path class="g" d="m385.3 356.2c-5.3-7.1-10.1-15.2-12.6-22.2-1.5-4.6-3.2-9.3-4.5-14.2z" />
    <path
        class="h"
        d="m614.6 650.5h-35c-10.8 0-26-24.8-26-24.8v-41.3c0-11.3-5.5-21.2-14-27.3-5.6-4-12.3-6.3-19.6-6.3h-192.5c-7.3 0-14.1 2.3-19.6 6.3-8.5 6.1-14.1 16-14.1 27.3v41.3c0 0-15.1 24.8-25.9 24.8h-27.6c0 0-33.5-12.7-22.1-56.4 11.5-43.7 36.3-102 68.2-134.5 23-23.4 48-37 87.4-42.8 15.4-2.3 33.1-3.4 53.6-3.4 17.4 0 32.6 0.8 46.2 2.4 43.8 5.1 70.5 19 94.9 43.8 31.9 32.5 56.7 90.8 68.1 134.5 11.5 43.7-22 56.4-22 56.4z"
    />
    <path class="i" d="m293.8 650.5v48.3h-132.9c-6.6 0-12.7-2.7-17.1-7.1-4.3-4.3-7-10.4-7-17 0-13.4 10.8-24.2 24.1-24.2z" />
    <path class="e" d="m240.3 650.5h-79.4c-13.3 0-24.1 10.8-24.1 24.2 0 6.6 2.7 12.7 7 17 4.4 4.4 10.5 7.1 17.1 7.1h132.9" />
    <path class="e" d="m293.8 650.5h-25.9" />
    <path class="i" d="m710.7 674.7c0 6.6-2.7 12.7-7.1 17-4.3 4.4-10.4 7.1-17 7.1h-133v-48.3h133c13.3 0 24.1 10.8 24.1 24.2z" />
    <path class="e" d="m553.6 698.8h133c6.6 0 12.7-2.7 17-7.1 4.4-4.3 7.1-10.4 7.1-17 0-13.4-10.8-24.2-24.1-24.2h-72" />
    <path class="e" d="m579.6 650.5h-26" />
    <path class="j" d="m467.8 887.6c0 44.7 0 175.7 0 175.7h-100v-175.7" />
    <path class="j" d="m553.6 740.7c0 0 40.9 12.7 40.9 57.3 0 44.7 0 265.3 0 265.3h-99.9v-175.7" />
    <path class="e" d="m834 1126h-832.4" />
    <path class="k" d="m553.6 584.4v269.6c0 18.6-15 33.6-33.6 33.6h-192.5c-18.6 0-33.7-15-33.7-33.6v-269.6c0-11.3 5.6-21.2 14.1-27.3 5.5-4 12.3-6.3 19.6-6.3h192.5c7.3 0 14 2.3 19.6 6.3 8.5 6.1 14 16 14 27.3z" />
    <path class="l" d="m497 606.7c7.3 0 13.2 5.9 13.2 13.1v267.8h-26.4v-267.8c0-7.2 5.9-13.1 13.2-13.1z" />
    <path class="l" d="m350.5 606.7c7.3 0 13.1 5.9 13.1 13.1v267.8h-26.3v-267.8c0-7.2 5.9-13.1 13.2-13.1z" />
    <path class="e" d="m553.6 584.4v269.6c0 18.6-15 33.6-33.6 33.6h-192.5c-18.6 0-33.7-15-33.7-33.6v-269.6c0-11.3 5.6-21.2 14.1-27.3 5.5-4 12.3-6.3 19.6-6.3h192.5c7.3 0 14 2.3 19.6 6.3 8.5 6.1 14 16 14 27.3z" />
    <path class="e" d="m497 606.7c7.3 0 13.2 5.9 13.2 13.1v267.8h-26.4v-267.8c0-7.2 5.9-13.1 13.2-13.1z" />
    <path class="e" d="m350.5 606.7c7.3 0 13.1 5.9 13.1 13.1v267.8h-26.3v-267.8c0-7.2 5.9-13.1 13.2-13.1z" />
    <path class="e" d="m497 629.4v30" />
    <path class="e" d="m350.5 629.4v30" />
    <path class="e" d="m524.5 498.1c-0.4 7.7 15 59 15 59" />
    <path class="e" d="m323 498.1c0.4 7.7-15.1 59-15.1 59" />
    <path
        class="e"
        d="m614.6 650.5h-35c-10.8 0-26-24.8-26-24.8v-41.3c0-11.3-5.5-21.2-14-27.3-5.6-4-12.3-6.3-19.6-6.3h-192.5c-7.3 0-14.1 2.3-19.6 6.3-8.5 6.1-14.1 16-14.1 27.3v41.3c0 0-15.1 24.8-25.9 24.8h-27.6c0 0-33.5-12.7-22.1-56.4 11.5-43.7 36.3-102 68.2-134.5 23-23.4 48-37 87.4-42.8 15.4-2.3 33.1-3.4 53.6-3.4 17.4 0 32.6 0.8 46.2 2.4 43.8 5.1 70.5 19 94.9 43.8 31.9 32.5 56.7 90.8 68.1 134.5 11.5 43.7-22 56.4-22 56.4z"
    />
    <path class="e" d="m553.6 740.7c0 0 40.9 12.7 40.9 57.3 0 44.7 0 265.3 0 265.3h-99.9v-175.7" />
    <path class="e" d="m467.8 887.6c0 44.7 0 175.7 0 175.7h-100v-175.7" />
    <path class="m" d="m371.2 1063.3l-8.8 62.7h170.1c0.5-17.5-43.8-30.2-56.3-37.1-12.6-6.9-19.7-25.6-19.7-25.6z" />
    <path class="e" d="m371.2 1063.3l-8.8 62.7h170.1c0.5-17.5-43.8-30.2-56.3-37.1-12.6-6.9-19.7-25.6-19.7-25.6z" />
    <path class="m" d="m587.1 1063.3c0 0 7.1 18.7 19.7 25.6 12.5 6.9 56.8 19.6 56.3 37.1h-170.2l8.9-62.7z" />
    <path class="e" d="m587.1 1063.3c0 0 7.1 18.7 19.7 25.6 12.5 6.9 56.8 19.6 56.3 37.1h-170.2l8.9-62.7z" />
    <path class="e" d="m473.6 415.8c-13.6-1.6-28.8-2.4-46.2-2.4-20.5 0-38.2 1.1-53.6 3.4 0 0 2.2-17.9 14.3-23.6 1.3-0.6 2.8-1.1 4.3-1.6 12.7-4.1 31.3-3.9 31.3-3.9 0 0 23-0.2 35.3 5.3 0.1 0.1 0.2 0.1 0.3 0.2 12.2 5.7 14.3 22.6 14.3 22.6z" />
    <path class="n" d="m484.5 333.4c-0.4 8.4-5.1 11.2-7.6 15.7-2.4 4.3-13.2 8.8-13.9 9.1v-0.1c2.3-3.1 4.3-6.8 5.6-10.9 2.6-8.1 5.4-18.1 7.5-27.4q0.1-0.1 0.1-0.1c0-0.1 0-0.1 0-0.1 0 0 8.7 5.5 8.3 13.8z" />
    <path class="n" d="m385.4 356.3c0 0-15.5-2.8-18-7.2-2.5-4.5-7.2-7.3-7.6-15.7-0.4-8.3 8.3-13.8 8.3-13.8l0.1 0.1c0 0 0 0 0 0.1 1.3 4.9 3 9.6 4.5 14.2 2.5 7 7.3 15.1 12.6 22.2z" />
    <path class="n" d="m459 362.9v30.1c-12.3-5.5-35.3-5.3-35.3-5.3 0 0-18.6-0.2-31.3 3.9v-27.1c4.1 4.2 8 7.4 11.2 8.7 9.4 3.7 30.3 2.1 35.7 0.9 6.3-1.4 13.7-5.1 19.7-11.2z" />
    <path class="e" d="m459 362.9v30.1c-12.3-5.5-35.3-5.3-35.3-5.3 0 0-18.6-0.2-31.3 3.9v-27.1c4.1 4.2 8 7.4 11.2 8.7 9.4 3.7 30.3 2.1 35.7 0.9 6.3-1.4 13.7-5.1 19.7-11.2z" />
    <path
        class="e"
        d="m479.7 296.9c0 5.7-1.4 13.9-3.5 22.7 0 0 0 0 0 0.1q0 0-0.1 0.1c-2.1 9.3-4.9 19.3-7.5 27.4-1.3 4.1-3.3 7.8-5.6 10.9-1.2 1.8-2.6 3.3-4 4.8-6 6.1-13.4 9.8-19.7 11.2-5.4 1.2-26.3 2.8-35.7-0.9-3.2-1.3-7.1-4.5-11.2-8.7-2.4-2.4-4.8-5.3-7.1-8.3-5.3-7.1-10.1-15.2-12.6-22.2-1.5-4.6-3.2-9.3-4.5-14.2 0-0.1 0-0.1 0-0.1-3.3-11.7-5.1-24.7-0.6-39.6 3.9-13 26.5-30 50.7-30.8 28.5-1 39.2 21.8 39.2 21.8 6.4-3.5 22.2 14.1 22.2 25.8z"
    />
    <path class="e" d="m457.5 271.1l1.2 7.3" />
    <path class="o" d="m484.5 333.4c-0.4 8.4-5.1 11.2-7.6 15.7-2.4 4.3-13.2 8.8-13.9 9.1v-0.1c2.3-3.1 4.3-6.8 5.6-10.9 2.6-8.1 5.4-18.1 7.5-27.4q0.1-0.1 0.1-0.1c0-0.1 0-0.1 0-0.1 0 0 8.7 5.5 8.3 13.8z" />
    <path class="e" d="m463 358.2q0 0 0 0" />
    <path class="o" d="m385.4 356.3c0 0-15.5-2.8-18-7.2-2.5-4.5-7.2-7.3-7.6-15.7-0.4-8.3 8.3-13.8 8.3-13.8l0.1 0.1c0 0 0 0 0 0.1 1.3 4.9 3 9.6 4.5 14.2 2.5 7 7.3 15.1 12.6 22.2z" />
    <path class="j" d="m486.4 925.4h-125.3v-37.8h125.3z" />
    <path class="e" d="m486.4 925.4h-125.3v-37.8h125.3z" />
    <path class="p" d="m412.9 1011.3h21.4v-85.9h-21.4z" />
    <path class="e" d="m412.9 1011.3h21.4v-85.9h-21.4z" />
    <path class="j" d="m442.2 1053.5h-36.9v-42.2h36.9z" />
    <path class="e" d="m442.2 1053.5h-36.9v-42.2h36.9z" />
    <path class="q" d="m550.6 1116.9c0 5-4.1 9.1-9 9.1-5.1 0-9.1-4.1-9.1-9.1 0-2.7 1.2-5.2 3.1-6.8 1.6-1.4 3.7-2.2 6-2.2 2.1 0 3.9 0.7 5.5 1.9 2.1 1.6 3.5 4.2 3.5 7.1z" />
    <path class="e" d="m550.6 1116.9c0 5-4.1 9.1-9 9.1-5.1 0-9.1-4.1-9.1-9.1 0-2.7 1.2-5.2 3.1-6.8 1.6-1.4 3.7-2.2 6-2.2 2.1 0 3.9 0.7 5.5 1.9 2.1 1.6 3.5 4.2 3.5 7.1z" />
    <path class="r" d="m547.1 1093.2v16.6c-1.6-1.2-3.4-1.9-5.5-1.9-2.3 0-4.4 0.8-6 2.2v-12l-111.9-18.6-113.1 18.6v12c-1.6-1.4-3.7-2.2-5.9-2.2-2.1 0-4 0.7-5.6 1.9v-16.6l105-42.1h38z" />
    <path class="r" d="m313.7 1116.9c0 5-4 9.1-9 9.1-5 0-9.1-4.1-9.1-9.1 0-2.9 1.4-5.5 3.5-7.1 1.6-1.2 3.5-1.9 5.6-1.9 2.2 0 4.3 0.8 5.9 2.2 1.9 1.6 3.1 4.1 3.1 6.8z" />
    <path class="e" d="m547.1 1093.2v16.6c-1.6-1.2-3.4-1.9-5.5-1.9-2.3 0-4.4 0.8-6 2.2v-12l-111.9-18.6-113.1 18.6v12c-1.6-1.4-3.7-2.2-5.9-2.2-2.1 0-4 0.7-5.6 1.9v-16.6l105-42.1h38z" />
    <path class="q" d="m313.7 1116.9c0 5-4 9.1-9 9.1-5 0-9.1-4.1-9.1-9.1 0-2.9 1.4-5.5 3.5-7.1 1.6-1.2 3.5-1.9 5.6-1.9 2.2 0 4.3 0.8 5.9 2.2 1.9 1.6 3.1 4.1 3.1 6.8z" />
    <path class="e" d="m313.7 1116.9c0 5-4 9.1-9 9.1-5 0-9.1-4.1-9.1-9.1 0-2.9 1.4-5.5 3.5-7.1 1.6-1.2 3.5-1.9 5.6-1.9 2.2 0 4.3 0.8 5.9 2.2 1.9 1.6 3.1 4.1 3.1 6.8z" />
    <path class="r s1" d="m660.8 173h335.6v124h-335.6z" />
    <path class="b s1" d="m744.2 142.4h-83.4v30.6h83.4z" />
    <path
        class="d"
        d="m958.8 274.1h24.5c0 0 1.4-15.2-1.9-18.4 0 0-2.9-20.7-25.7-24-22.9-3.4-57.2-8.4-57.2-8.4 0 0-44.1-33.5-53.8-35.4-9.6-1.9-60.6 0-72 0-11.3 0-56.9 30-56.9 30 0 0-22.8 0-30.1 0-7.3 0-13 20.8-12.6 24.1 0 0-2.1 13.3 6.1 19.6 5.9 4.5 20.1 7 27.6 8-0.1-0.3-0.1-0.6-0.2-0.9-0.8-7.7 1.4-15.3 6.3-21.3 5.6-6.9 13.8-10.8 22.7-10.8 6.6 0 13.1 2.3 18.2 6.4 9.5 7.7 12.9 20.1 9.5 31.1h139.9c-0.5-1.7-0.9-3.5-1.1-5.4-0.8-7.7 1.4-15.3 6.3-21.3 5.5-6.9 13.8-10.8 22.6-10.8 6.7 0 13.1 2.3 18.3 6.4 9.5 7.7 12.9 20.1 9.5 31.1z"
    />
    <path class="s" d="m682.2 242.6c7.2 0 6.8-0.3 6.7-5.1-0.1-4.9 1.7-9.3-2.2-11.7-4-2.3-8-1.8-8.5-0.7-0.5 1-3.5 6.8-4.1 10.9-0.5 4 0.5 7.1 2.5 7 2.1-0.1 5.6-0.4 5.6-0.4z" />
    <path class="s" d="m975.6 252c-10.9-6.3-15.3-11.2-12.7-11.9 2.6-0.7 8.4-0.4 12 3.2 3.6 3.5 4.5 4.6 3.9 7.3-0.7 2.7-3.2 1.4-3.2 1.4z" />
    <path class="t" d="m889 223.3c5.1-0.4 4-1.9 2.1-5.5-1.9-3.6-26.1-18.7-30.6-21.5-4.5-2.8-6.1-0.7-4.5 4 1.6 4.8 18.6 16.5 18.6 16.5 0 0 6.6 4.6 8.5 5.1 1.9 0.6 5.9 1.4 5.9 1.4z" />
    <path class="t" d="m858.7 223.3h9.3c0 0 0-3.8-3.6-6.9-3.7-3.2-18.1-13.8-20.6-16.5-2.5-2.8-9.5-4.4-16.6-4.3-7 0.1-19.3-1.4-27 0-7.6 1.4-7.4 1.3-8.4 6-1.1 4.6-1.4 10-1.9 14.8-0.5 4.8 0.7 6.2 4.1 6.2 3.5 0 64.7 0.7 64.7 0.7z" />
    <path class="n" d="m948.4 279.7c-7.7 9.7-21.8 11.2-31.5 3.4-9.6-7.8-11.1-21.9-3.3-31.5 7.8-9.6 21.9-11.1 31.5-3.4 9.6 7.8 11.1 21.9 3.3 31.5z" />
    <path class="e" d="m948.4 279.7c-7.7 9.7-21.8 11.2-31.5 3.4-9.6-7.8-11.1-21.9-3.3-31.5 7.8-9.6 21.9-11.1 31.5-3.4 9.6 7.8 11.1 21.9 3.3 31.5z" />
    <path d="m935.3 269.1c-1.9 2.4-5.4 2.8-7.8 0.9-2.4-2-2.7-5.4-0.8-7.8 1.9-2.4 5.4-2.8 7.8-0.9 2.4 2 2.7 5.5 0.8 7.8z" />
    <path class="e" d="m913.6 251.6l34.8 28.1" />
    <path class="e" d="m916.9 283.1l28.2-34.9" />
    <path class="n" d="m752.9 279.7c-7.7 9.7-21.8 11.2-31.5 3.4-9.6-7.8-11.1-21.9-3.3-31.5 7.8-9.6 21.9-11.1 31.5-3.4 9.6 7.8 11.1 21.9 3.3 31.5z" />
    <path class="e" d="m752.9 279.7c-7.7 9.7-21.8 11.2-31.5 3.4-9.6-7.8-11.1-21.9-3.3-31.5 7.8-9.6 21.9-11.1 31.5-3.4 9.6 7.8 11.1 21.9 3.3 31.5z" />
    <path d="m739.8 269.1c-1.9 2.4-5.4 2.8-7.8 0.9-2.3-2-2.7-5.4-0.8-7.8 1.9-2.4 5.4-2.8 7.8-0.9 2.4 2 2.8 5.5 0.8 7.8z" />
    <path class="e" d="m718.1 251.6l34.8 28.1" />
    <path class="e" d="m721.4 283.1l28.2-34.9" />
    <path
        class="e"
        d="m958.8 274.1h24.5c0 0 1.4-15.2-1.9-18.4 0 0-2.9-20.7-25.7-24-22.9-3.4-57.2-8.4-57.2-8.4 0 0-44.1-33.5-53.8-35.4-9.6-1.9-60.6 0-72 0-11.3 0-56.9 30-56.9 30 0 0-22.8 0-30.1 0-7.3 0-13 20.8-12.6 24.1 0 0-2.1 13.3 6.1 19.6 5.9 4.5 20.1 7 27.6 8-0.1-0.3-0.1-0.6-0.2-0.9-0.8-7.7 1.4-15.3 6.3-21.3 5.6-6.9 13.8-10.8 22.7-10.8 6.6 0 13.1 2.3 18.2 6.4 9.5 7.7 12.9 20.1 9.5 31.1h139.9c-0.5-1.7-0.9-3.5-1.1-5.4-0.8-7.7 1.4-15.3 6.3-21.3 5.5-6.9 13.8-10.8 22.6-10.8 6.7 0 13.1 2.3 18.3 6.4 9.5 7.7 12.9 20.1 9.5 31.1z"
    />
    <path class="e" d="m878 274.1c0 0 13.4-11.5 8.9-28.5-4.5-16.9-31.8-37-40.3-43.7-8.5-6.7-13-6.3-18.3-6.3-5.4 0-26.3 0-30.9 0-4.7 0-7.5 8.1-7.5 20.8 0 12.7 1.6 24.9 3.8 35.2 2.2 10.3 5.6 22.5 14.8 22.5" />
    <path class="t" d="m781 195.6c0 0-5.2 0-11 0-5.9 0-20.3 9.8-22.5 27 0 0 0 0 10.4 0 9.3 0 16.8 1 18.5-5.9 3-11.3 4.6-21.1 4.6-21.1z" />
    <path class="e" d="m781 195.6c0 0-5.2 0-11 0-5.9 0-20.3 9.8-22.5 27 0 0 0 0 10.4 0 9.3 0 16.8 1 18.5-5.9 3-11.3 4.6-21.1 4.6-21.1z" />
    <path class="e" d="m892.1 233.1l15.5 1.2" />
    <path class="e" d="m856 193.5c0 0-3.3 4.6 0 8.8 3.3 4.2 25.8 19.5 25.8 19.5l16.7 1.5" />
    <path class="e" d="m799 238.3h12.5" />
    <path class="e" d="m790 222.6h81" />
    <path class="e" d="m747.5 222.6c0 0-5.4-4.1-9.2-4.1-3.8 0-24.3-0.7-24.3-0.7" />
    <path class="e" d="m673.4 243.3c0 0 17.6-1.6 25.8 0 4.3 0.8 8.7 3.9 11.9 6.7" />
    <path class="e" d="m680.7 222.7l8.7 4.6v15.3" />
    <path class="e" d="m980.6 254.3c0 0-10.4-4.4-13.4-7.4-3.1-3-5.6-6.8-5.6-6.8h10.7" />
    <path class="e s1" d="m660.8 173h335.6v124h-335.6z" />
    <path class="e s1" d="m744.2 142.4h-83.4v30.6h83.4z" />
    <path class="r s3" d="m84.8 62.1h167.8v277.5h-167.8z" />
    <path class="d s3" d="m204.2 31.2h-119.4v30.9h119.4z" />
    <text style="transform: matrix(2, 0, 0, 2, 95.769, 55.642);"><tspan x="0" y="0" class="u">PERSON</tspan></text>
    <path class="n" d="m186.5 107.7l-16.7 8-3.3-6.2c0 0-2.2 1.7-5.1-2.1-3-3.8-0.3-8.6-0.3-8.6l-5.7 0.1 7.9-16.1c0 0 11 4.4 9.7 9.7 0 0 5.4 1.8 6.1 4.2 0.7 2.3 1.4 9.4 7.4 11z" />
    <path class="n" d="m175.6 206.9l-3 5.9-5.5 11.1-8.8-1.4 1.2-10.3 8.7-9.4z" />
    <path class="n" d="m143.3 297.9c0 0-5 10.6-5.6 11.3-2.3-0.4-5.2-1.1-7.7-2.1-2.1-0.8-3.4-2.3-4.1-3.7 0.3-0.3 6.5-9.9 6.5-9.9z" />
    <path class="n" d="m228.4 312.1c-2.2 0.7-5.1 1.5-7.8 1.8-2.2 0.2-4-0.4-5.4-1.2 0.1-0.8-1.8-10.8-1.8-10.8l12.5-2.5c0 0 2.5 11.9 2.5 12.7z" />
    <path class="j" d="m141.6 309.8l-7.1 12.8-35.8-17.4c0 0 7.2-4.8 15-5 7.7-0.1 10.8-0.4 10.8-0.4 0 0 0.3 1.7 1.4 3.6 0.7 1.4 2 2.9 4.1 3.7 2.5 1 5.4 1.7 7.7 2.1v0.1c2.2 0.4 3.9 0.5 3.9 0.5z" />
    <path class="j" d="m232 310.7v14.6l-39.8 2.1c0 0 4.1-7.7 10.8-11.6 6.7-3.9 9.3-5.6 9.3-5.6 0 0 1 1.4 2.9 2.5 1.4 0.8 3.2 1.4 5.4 1.2 2.7-0.3 5.6-1.1 7.8-1.8 2.1-0.7 3.6-1.4 3.6-1.4z" />
    <path class="g" d="m192.5 87.6c0.3 8.8-6 20.1-6 20.1-6-1.6-6.7-8.7-7.4-11-0.7-2.4-6.1-4.2-6.1-4.2 1.3-5.3-9.7-9.7-9.7-9.7 0 0 2.4-6.9 10.8-8.2 8.4-1.2 18.2 4.2 18.4 13z" />
    <path class="h" d="m205.8 180.4l-12.8 2.3-15.1 25.5-2.3-1.3-7.4-4.1-1.9-1c0 0 7.3-14.8 9.4-24.2l-9.4 1.2-2.7-12.6c0 0 3.2-41.6 6.2-50.5l16.7-8c0 0 14.6 12 16.6 25.7 2 13.7 1.1 40.7 1.1 40.7z" />
    <path class="j" d="m180.3 229.2l-18 32.7-14.3 37.9-4.7-1.9-10.9-4.4-5-2.1c0 0 16-43 21.4-58 5.5-15.1 19.6-47 19.6-47l-2.1-7.6 9.4-1.2c-2.1 9.4-9.4 24.2-9.4 24.2l1.9 1-8.7 9.4-1.2 10.3 8.8 1.4 5.5-11.1z" />
    <path class="j" d="m230.3 298.6l-4.4 0.8-12.5 2.5-4 0.8-21.3-57.1-7.8-16.4-7.7-16.4 3-5.9 2.3 1.3 15.1-25.5 12.8-2.3c0 0 0.3 2 1.7 9.3 1.3 7.3-1.7 18.7-1.7 18.7z" />
    <path class="e" d="m141.6 309.8l-7.1 12.8-35.8-17.4c0 0 7.2-4.8 15-5 7.7-0.1 10.8-0.4 10.8-0.4 0 0 0.3 1.7 1.4 3.6 0.7 1.4 2 2.9 4.1 3.7 2.5 1 5.4 1.7 7.7 2.1v0.1c2.2 0.4 3.9 0.5 3.9 0.5z" />
    <path class="e" d="m137.7 309.3v-0.1" />
    <path class="e" d="m143.3 297.9c0 0-5 10.6-5.6 11.3-2.3-0.4-5.2-1.1-7.7-2.1-2.1-0.8-3.4-2.3-4.1-3.7 0.3-0.3 6.5-9.9 6.5-9.9z" />
    <path class="e" d="m232 310.7v14.6l-39.8 2.1c0 0 4.1-7.7 10.8-11.6 6.7-3.9 9.3-5.6 9.3-5.6 0 0 1 1.4 2.9 2.5 1.4 0.8 3.2 1.4 5.4 1.2 2.7-0.3 5.6-1.1 7.8-1.8 2.1-0.7 3.6-1.4 3.6-1.4z" />
    <path class="e" d="m228.4 312.1c-2.2 0.7-5.1 1.5-7.8 1.8-2.2 0.2-4-0.4-5.4-1.2 0.1-0.8-1.8-10.8-1.8-10.8l12.5-2.5c0 0 2.5 11.9 2.5 12.7z" />
    <path class="e" d="m228.4 312.1q0 0 0 0" />
    <path class="e" d="m215.2 312.7" />
    <path class="e" d="m230.3 298.6l-4.4 0.8-12.5 2.5-4 0.8-21.3-57.1-7.8-16.4-7.7-16.4 3-5.9 2.3 1.3 15.1-25.5 12.8-2.3c0 0 0.3 2 1.7 9.3 1.3 7.3-1.7 18.7-1.7 18.7z" />
    <path class="e" d="m199 141.6c0.8 11.3-3.8 37.3-3.8 37.3l-2.2 3.8" />
    <path class="e" d="m175.7 177.6c2.1-9.4 4.1-41 4.1-41" />
    <path class="e" d="m205.8 180.4l-12.8 2.3-15.1 25.5-2.3-1.3-7.4-4.1-1.9-1c0 0 7.3-14.8 9.4-24.2l-9.4 1.2-2.7-12.6c0 0 3.2-41.6 6.2-50.5l16.7-8c0 0 14.6 12 16.6 25.7 2 13.7 1.1 40.7 1.1 40.7z" />
    <path class="e s3" d="m204.2 174.1l-8.5 1.5" />
    <path class="e" d="m175.6 206.9l-3 5.9-5.5 11.1-8.8-1.4 1.2-10.3 8.7-9.4z" />
    <path class="e" d="m180.3 229.2l-18 32.7-14.3 37.9-4.7-1.9-10.9-4.4-5-2.1c0 0 16-43 21.4-58 5.5-15.1 19.6-47 19.6-47l-2.1-7.6 9.4-1.2c-2.1 9.4-9.4 24.2-9.4 24.2l1.9 1-8.7 9.4-1.2 10.3 8.8 1.4 5.5-11.1z" />
    <path class="e" d="m192.5 87.6c0.3 8.8-6 20.1-6 20.1-6-1.6-6.7-8.7-7.4-11-0.7-2.4-6.1-4.2-6.1-4.2 1.3-5.3-9.7-9.7-9.7-9.7 0 0 2.4-6.9 10.8-8.2 8.4-1.2 18.2 4.2 18.4 13z" />
    <path class="e" d="m186.5 107.7l-16.7 8-3.3-6.2c0 0-2.2 1.7-5.1-2.1-3-3.8-0.3-8.6-0.3-8.6l-5.7 0.1 7.9-16.1c0 0 11 4.4 9.7 9.7 0 0 5.4 1.8 6.1 4.2 0.7 2.3 1.4 9.4 7.4 11z" />
    <path class="e s3" d="m84.8 62.1h167.8v277.5h-167.8z" />
    <path class="e s3" d="m204.2 31.2h-119.4v30.9h119.4z" />
    <text style="transform: matrix(2, 0, 0, 2, 680.551, 164.791);"><tspan x="0" y="0" class="v">CAR</tspan></text>
    <path class="e" d="m252.6 151.5h37.7v-14.9" />
    <path class="k" d="m346.9 136.6h-64.6c-5.9 0-10.8-4.8-10.8-10.8v-113c0-6 4.9-10.8 10.8-10.8h64.6c6 0 10.9 4.8 10.9 10.8v113c0 6-4.9 10.8-10.9 10.8z" />
    <path class="r" d="m336.7 69.3h-44.1c-4.4 0-7.9-3.5-7.9-7.9v-24.8c0-4.4 3.5-7.9 7.9-7.9h44.1c4.3 0 7.9 3.5 7.9 7.9v24.8c0 4.4-3.6 7.9-7.9 7.9z" />
    <path class="r" d="m344.6 114.6h-59.9v-13.3h59.9z" />
    <path class="e" d="m346.9 136.6h-64.6c-5.9 0-10.8-4.8-10.8-10.8v-113c0-6 4.9-10.8 10.8-10.8h64.6c6 0 10.9 4.8 10.9 10.8v113c0 6-4.9 10.8-10.9 10.8z" />
    <path class="e" d="m336.7 69.3h-44.1c-4.4 0-7.9-3.5-7.9-7.9v-24.8c0-4.4 3.5-7.9 7.9-7.9h44.1c4.3 0 7.9 3.5 7.9 7.9v24.8c0 4.4-3.6 7.9-7.9 7.9z" />
    <path class="e" d="m284.7 83.5h59.9" />
    <path class="e" d="m284.7 92h59.9" />
    <path class="e" d="m344.6 114.6h-59.9v-13.3h59.9z" />
    <path class="e s2" d="m685 590h84.1" />
    <path class="e s2" d="m192.2 754.7h-66.3" />
    <path class="e s2" d="m127.4 387.7h-60" />
    <path class="e" d="m293.8 191.1h43.5" />
    <path class="e s2" d="m727.1 327.4h37.1" />
    <path class="e s2" d="m623.7 831.4h47.8" />
    <path class="w" d="m509 143.8h71.1c4.6 0 8.3-3.7 8.3-8.3v-27.9c0-4.6-3.7-8.4-8.3-8.4h-71.1c-4.6 0-8.3 3.8-8.3 8.4v27.9c0 4.6 3.7 8.3 8.3 8.3z" />
    <path class="e" d="m509 143.8h71.1c4.6 0 8.3-3.7 8.3-8.3v-27.9c0-4.6-3.7-8.4-8.3-8.4h-71.1c-4.6 0-8.3 3.8-8.3 8.4v27.9c0 4.6 3.7 8.3 8.3 8.3z" />
    <path class="n" d="m549.7 116.8h-39.6v-8.9h39.6z" />
    <path class="e" d="m549.7 116.8h-39.6v-8.9h39.6z" />
    <path class="e" d="m510.1 130.9h67.3" />
    <path class="e" d="m588.4 120.7h11.8" />
    <path class="e" d="m488.9 120.7h11.8" />
    <path class="e s2" d="m563.3 400.2h71.8" />
    <path class="e s2" d="m563.3 375.5h71.8" />
    <path class="e s2" d="m243.7 400.2h71.8" />
    <path class="j" d="m624.7 332.3h-53.4v-53.4h53.4z" />
    <path class="e" d="m624.7 332.3h-53.4v-53.4h53.4z" />
    <path class="e s2" d="m248.1 438.6h-19.7" />
</svg>
