<svg width="687" height="388" viewBox="0 0 687 388" fill="none" xmlns="http://www.w3.org/2000/svg">
<path d="M32.8734 387C32.8734 387 -13.9591 307.033 4.17251 216.361C22.3041 125.689 147.307 136.524 263.829 78.9381C380.351 21.352 490.599 52.2792 606.96 122.98C723.322 193.681 606.96 387 606.96 387H32.8734Z" fill="#F6F5FF"/>
<path d="M345.966 366.898V365.488L345.516 362.959L330.641 328.903L286.396 327.074L280.642 332.602L265.028 368.037L345.966 366.898Z" fill="#E3E7F0"/>
<path d="M498.531 73.2695H114.54C103.346 73.2695 94.271 82.3499 94.271 93.5511V311.311C94.271 322.512 103.346 331.592 114.54 331.592H498.531C509.725 331.592 518.8 322.512 518.8 311.311V93.5511C518.8 82.3499 509.725 73.2695 498.531 73.2695Z" fill="#5857D2"/>
<path d="M498.531 73.2695H114.54C103.346 73.2695 94.271 82.3499 94.271 93.5511V311.311C94.271 322.512 103.346 331.592 114.54 331.592H498.531C509.725 331.592 518.8 322.512 518.8 311.311V93.5511C518.8 82.3499 509.725 73.2695 498.531 73.2695Z" stroke="black" stroke-width="0.5" stroke-linecap="round" stroke-linejoin="round"/>
<path d="M486.962 87.2754H128.726C121.09 87.2754 114.9 93.4692 114.9 101.11V259.124C114.9 266.765 121.09 272.958 128.726 272.958H486.962C494.598 272.958 500.788 266.765 500.788 259.124V101.11C500.788 93.4692 494.598 87.2754 486.962 87.2754Z" fill="#E3E7F0"/>
<path d="M518.8 286.021H94.271" stroke="black" stroke-width="0.5" stroke-linecap="round" stroke-linejoin="round"/>
<path d="M486.962 87.2754H128.726C121.09 87.2754 114.9 93.4692 114.9 101.11V259.124C114.9 266.765 121.09 272.958 128.726 272.958H486.962C494.598 272.958 500.788 266.765 500.788 259.124V101.11C500.788 93.4692 494.598 87.2754 486.962 87.2754Z" stroke="black" stroke-width="0.5" stroke-linecap="round" stroke-linejoin="round"/>
<path d="M306.535 319.668C312.29 319.668 316.955 315 316.955 309.242C316.955 303.484 312.29 298.816 306.535 298.816C300.781 298.816 296.116 303.484 296.116 309.242C296.116 315 300.781 319.668 306.535 319.668Z" fill="#EBEBEB"/>
<path d="M306.535 319.668C312.29 319.668 316.955 315 316.955 309.242C316.955 303.484 312.29 298.816 306.535 298.816C300.781 298.816 296.116 303.484 296.116 309.242C296.116 315 300.781 319.668 306.535 319.668Z" stroke="black" stroke-width="0.5" stroke-linecap="round" stroke-linejoin="round"/>
<path d="M331.99 331.594L345.966 364" stroke="black" stroke-width="0.5" stroke-linecap="round" stroke-linejoin="round"/>
<path d="M281.081 331.594L267.105 364" stroke="black" stroke-width="0.5" stroke-linecap="round" stroke-linejoin="round"/>
<path d="M215.737 364H397.333C403.427 364 409.271 366.422 413.58 370.734C417.889 375.045 420.31 380.893 420.31 386.99H192.741C192.741 383.97 193.336 380.978 194.492 378.188C195.648 375.397 197.342 372.862 199.478 370.727C201.613 368.592 204.148 366.898 206.938 365.744C209.728 364.59 212.718 363.997 215.737 364Z" fill="#5857D2"/>
<path d="M215.737 364H397.333C403.427 364 409.271 366.422 413.58 370.734C417.889 375.045 420.31 380.893 420.31 386.99H192.741C192.741 383.97 193.336 380.978 194.492 378.188C195.648 375.397 197.342 372.862 199.478 370.727C201.613 368.592 204.148 366.898 206.938 365.744C209.728 364.59 212.718 363.997 215.737 364Z" stroke="black" stroke-width="0.5" stroke-linecap="round" stroke-linejoin="round"/>
<path d="M467.282 176.998V193.291" stroke="black" stroke-width="0.5" stroke-linecap="round" stroke-linejoin="round"/>
<path d="M449.57 172.209V198.358" stroke="black" stroke-width="0.5" stroke-linecap="round" stroke-linejoin="round"/>
<path d="M431.848 177.137V193.43" stroke="black" stroke-width="0.5" stroke-linecap="round" stroke-linejoin="round"/>
<path d="M414.136 177.137V193.43" stroke="black" stroke-width="0.5" stroke-linecap="round" stroke-linejoin="round"/>
<path d="M396.424 167.352V203.217" stroke="black" stroke-width="0.5" stroke-linecap="round" stroke-linejoin="round"/>
<path d="M378.702 145.52V225.047" stroke="black" stroke-width="0.5" stroke-linecap="round" stroke-linejoin="round"/>
<path d="M360.99 177.137V193.43" stroke="black" stroke-width="0.5" stroke-linecap="round" stroke-linejoin="round"/>
<path d="M343.278 169.73V200.838" stroke="black" stroke-width="0.5" stroke-linecap="round" stroke-linejoin="round"/>
<path d="M325.566 177.137V193.43" stroke="black" stroke-width="0.5" stroke-linecap="round" stroke-linejoin="round"/>
<path d="M307.844 177.137V193.43" stroke="black" stroke-width="0.5" stroke-linecap="round" stroke-linejoin="round"/>
<path d="M290.132 177.137V193.43" stroke="black" stroke-width="0.5" stroke-linecap="round" stroke-linejoin="round"/>
<path d="M272.42 172.398V198.168" stroke="black" stroke-width="0.5" stroke-linecap="round" stroke-linejoin="round"/>
<path d="M254.708 165.771V204.795" stroke="black" stroke-width="0.5" stroke-linecap="round" stroke-linejoin="round"/>
<path d="M236.986 172.398V198.168" stroke="black" stroke-width="0.5" stroke-linecap="round" stroke-linejoin="round"/>
<path d="M219.274 177.137V193.43" stroke="black" stroke-width="0.5" stroke-linecap="round" stroke-linejoin="round"/>
<path d="M201.562 177.137V193.43" stroke="black" stroke-width="0.5" stroke-linecap="round" stroke-linejoin="round"/>
<path d="M183.84 181.156V189.403" stroke="black" stroke-width="0.5" stroke-linecap="round" stroke-linejoin="round"/>
<path d="M166.128 177.137V193.43" stroke="black" stroke-width="0.5" stroke-linecap="round" stroke-linejoin="round"/>
<path d="M148.416 177.137V193.43" stroke="black" stroke-width="0.5" stroke-linecap="round" stroke-linejoin="round"/>
<path d="M404.356 32.877H686V220.329C686 225.366 684 230.197 680.441 233.759C676.881 237.32 672.053 239.321 667.019 239.321H423.387C418.353 239.321 413.525 237.32 409.965 233.759C406.406 230.197 404.406 225.366 404.406 220.329V32.877H404.356Z" fill="white"/>
<path d="M404.356 32.877H686V220.329C686 225.366 684 230.197 680.441 233.759C676.881 237.32 672.053 239.321 667.019 239.321H423.387C418.353 239.321 413.525 237.32 409.965 233.759C406.406 230.197 404.406 225.366 404.406 220.329V32.877H404.356Z" stroke="black" stroke-width="0.5" stroke-linecap="round" stroke-linejoin="round"/>
<path d="M644.043 54.4883V217.761" stroke="black" stroke-width="0.5" stroke-linecap="round" stroke-linejoin="round"/>
<path d="M644.042 129.097C656.092 129.097 665.86 119.323 665.86 107.267C665.86 95.2096 656.092 85.4355 644.042 85.4355C631.993 85.4355 622.225 95.2096 622.225 107.267C622.225 119.323 631.993 129.097 644.042 129.097Z" fill="#F8C63B"/>
<path d="M644.042 129.097C656.092 129.097 665.86 119.323 665.86 107.267C665.86 95.2096 656.092 85.4355 644.042 85.4355C631.993 85.4355 622.225 95.2096 622.225 107.267C622.225 119.323 631.993 129.097 644.042 129.097Z" stroke="black" stroke-width="0.5" stroke-linecap="round" stroke-linejoin="round"/>
<path d="M644.043 116.412C649.091 116.412 653.184 112.317 653.184 107.265C653.184 102.214 649.091 98.1191 644.043 98.1191C638.995 98.1191 634.902 102.214 634.902 107.265C634.902 112.317 638.995 116.412 644.043 116.412Z" fill="#EBEBEB"/>
<path d="M644.043 116.412C649.091 116.412 653.184 112.317 653.184 107.265C653.184 102.214 649.091 98.1191 644.043 98.1191C638.995 98.1191 634.902 102.214 634.902 107.265C634.902 112.317 638.995 116.412 644.043 116.412Z" stroke="black" stroke-width="0.5" stroke-linecap="round" stroke-linejoin="round"/>
<path d="M578.13 54.4883V217.761" stroke="black" stroke-width="0.5" stroke-linecap="round" stroke-linejoin="round"/>
<path d="M578.13 189.072C590.179 189.072 599.948 179.298 599.948 167.241C599.948 155.184 590.179 145.41 578.13 145.41C566.08 145.41 556.312 155.184 556.312 167.241C556.312 179.298 566.08 189.072 578.13 189.072Z" fill="#F8C63B"/>
<path d="M578.13 189.072C590.179 189.072 599.948 179.298 599.948 167.241C599.948 155.184 590.179 145.41 578.13 145.41C566.08 145.41 556.312 155.184 556.312 167.241C556.312 179.298 566.08 189.072 578.13 189.072Z" stroke="black" stroke-width="0.5" stroke-linecap="round" stroke-linejoin="round"/>
<path d="M578.13 176.388C583.178 176.388 587.27 172.293 587.27 167.242C587.27 162.191 583.178 158.096 578.13 158.096C573.081 158.096 568.989 162.191 568.989 167.242C568.989 172.293 573.081 176.388 578.13 176.388Z" fill="#EBEBEB"/>
<path d="M578.13 176.388C583.178 176.388 587.27 172.293 587.27 167.242C587.27 162.191 583.178 158.096 578.13 158.096C573.081 158.096 568.989 162.191 568.989 167.242C568.989 172.293 573.081 176.388 578.13 176.388Z" stroke="black" stroke-width="0.5" stroke-linecap="round" stroke-linejoin="round"/>
<path d="M512.227 54.4883V217.761" stroke="black" stroke-width="0.5" stroke-linecap="round" stroke-linejoin="round"/>
<path d="M512.227 159.084C524.276 159.084 534.044 149.31 534.044 137.253C534.044 125.196 524.276 115.422 512.227 115.422C500.177 115.422 490.409 125.196 490.409 137.253C490.409 149.31 500.177 159.084 512.227 159.084Z" fill="#F8C63B"/>
<path d="M512.227 159.084C524.276 159.084 534.044 149.31 534.044 137.253C534.044 125.196 524.276 115.422 512.227 115.422C500.177 115.422 490.409 125.196 490.409 137.253C490.409 149.31 500.177 159.084 512.227 159.084Z" stroke="black" stroke-width="0.5" stroke-linecap="round" stroke-linejoin="round"/>
<path d="M512.227 146.4C517.275 146.4 521.367 142.305 521.367 137.254C521.367 132.202 517.275 128.107 512.227 128.107C507.178 128.107 503.086 132.202 503.086 137.254C503.086 142.305 507.178 146.4 512.227 146.4Z" fill="#EBEBEB"/>
<path d="M512.227 146.4C517.275 146.4 521.367 142.305 521.367 137.254C521.367 132.202 517.275 128.107 512.227 128.107C507.178 128.107 503.086 132.202 503.086 137.254C503.086 142.305 507.178 146.4 512.227 146.4Z" stroke="black" stroke-width="0.5" stroke-linecap="round" stroke-linejoin="round"/>
<path d="M446.313 54.4883V217.761" stroke="black" stroke-width="0.5" stroke-linecap="round" stroke-linejoin="round"/>
<path d="M446.313 129.097C458.363 129.097 468.131 119.323 468.131 107.267C468.131 95.2096 458.363 85.4355 446.313 85.4355C434.264 85.4355 424.496 95.2096 424.496 107.267C424.496 119.323 434.264 129.097 446.313 129.097Z" fill="#F8C63B"/>
<path d="M446.313 129.097C458.363 129.097 468.131 119.323 468.131 107.267C468.131 95.2096 458.363 85.4355 446.313 85.4355C434.264 85.4355 424.496 95.2096 424.496 107.267C424.496 119.323 434.264 129.097 446.313 129.097Z" stroke="black" stroke-width="0.5" stroke-linecap="round" stroke-linejoin="round"/>
<path d="M446.696 116.251C451.745 116.251 455.837 112.157 455.837 107.105C455.837 102.054 451.745 97.959 446.696 97.959C441.648 97.959 437.556 102.054 437.556 107.105C437.556 112.157 441.648 116.251 446.696 116.251Z" fill="#EBEBEB"/>
<path d="M446.314 116.412C451.362 116.412 455.454 112.317 455.454 107.265C455.454 102.214 451.362 98.1191 446.314 98.1191C441.265 98.1191 437.173 102.214 437.173 107.265C437.173 112.317 441.265 116.412 446.314 116.412Z" stroke="black" stroke-width="0.5" stroke-linecap="round" stroke-linejoin="round"/>
<path d="M423.387 1.00007H666.979C672.013 1.00007 676.841 3.00102 680.401 6.56273C683.96 10.1244 685.96 14.9552 685.96 19.9922V32.8369H404.356V20.0722C404.346 17.5671 404.83 15.0848 405.783 12.768C406.735 10.4513 408.136 8.34596 409.905 6.57324C411.674 4.80052 413.775 3.39546 416.089 2.43897C418.403 1.48248 420.883 0.993452 423.387 1.00007Z" fill="#5857D2"/>
<path d="M423.387 1.00007H666.979C672.013 1.00007 676.841 3.00102 680.401 6.56273C683.96 10.1244 685.96 14.9552 685.96 19.9922V32.8369H404.356V20.0722C404.346 17.5671 404.83 15.0848 405.783 12.768C406.735 10.4513 408.136 8.34596 409.905 6.57324C411.674 4.80052 413.775 3.39546 416.089 2.43897C418.403 1.48248 420.883 0.993452 423.387 1.00007Z" stroke="black" stroke-width="0.5" stroke-linecap="round" stroke-linejoin="round"/>
<path d="M60.3356 152.458C64.628 152.458 68.1077 148.976 68.1077 144.681C68.1077 140.386 64.628 136.904 60.3356 136.904C56.0432 136.904 52.5635 140.386 52.5635 144.681C52.5635 148.976 56.0432 152.458 60.3356 152.458Z" stroke="black" stroke-width="0.5" stroke-linecap="round" stroke-linejoin="round"/>
<path d="M33.7526 158.495C38.045 158.495 41.5247 155.013 41.5247 150.718C41.5247 146.423 38.045 142.941 33.7526 142.941C29.4602 142.941 25.9805 146.423 25.9805 150.718C25.9805 155.013 29.4602 158.495 33.7526 158.495Z" stroke="black" stroke-width="0.5" stroke-linecap="round" stroke-linejoin="round"/>
<path d="M68.1079 144.68V107.266L41.5249 113.493V150.708" stroke="black" stroke-width="0.5" stroke-linecap="round" stroke-linejoin="round"/>
<path d="M41.5249 123.73L68.1079 117.822" stroke="black" stroke-width="0.5" stroke-linecap="round" stroke-linejoin="round"/>
<path d="M591.426 303.216C595.718 303.216 599.198 299.734 599.198 295.439C599.198 291.144 595.718 287.662 591.426 287.662C587.133 287.662 583.654 291.144 583.654 295.439C583.654 299.734 587.133 303.216 591.426 303.216Z" stroke="black" stroke-width="0.5" stroke-linecap="round" stroke-linejoin="round"/>
<path d="M564.843 309.253C569.136 309.253 572.616 305.771 572.616 301.476C572.616 297.181 569.136 293.699 564.843 293.699C560.551 293.699 557.071 297.181 557.071 301.476C557.071 305.771 560.551 309.253 564.843 309.253Z" stroke="black" stroke-width="0.5" stroke-linecap="round" stroke-linejoin="round"/>
<path d="M599.188 295.438V258.023L572.615 264.251V301.475" stroke="black" stroke-width="0.5" stroke-linecap="round" stroke-linejoin="round"/>
<path d="M572.615 274.488L599.188 268.58" stroke="black" stroke-width="0.5" stroke-linecap="round" stroke-linejoin="round"/>
<path d="M640.267 387H5.69092" stroke="black" stroke-width="0.5" stroke-linecap="round" stroke-linejoin="round"/>
</svg>
