<svg width="662" height="662" viewBox="0 0 662 662" fill="none" xmlns="http://www.w3.org/2000/svg">
<path d="M377.246 142.236H329.96C329.96 142.236 325.856 197.74 319.841 211.841H367.618C367.618 211.841 373.973 191.555 377.246 142.236Z" fill="#F5F4FF"/>
<path d="M377.246 142.236H329.96C329.96 142.236 325.856 197.74 319.841 211.841H367.618C367.618 211.841 373.973 191.555 377.246 142.236Z" stroke="black" stroke-width="1.3" stroke-linecap="round" stroke-linejoin="round"/>
<path d="M197.286 402.997H85.7102L61.2729 333.421H120.021L130.272 322.016H167.061L197.286 402.997Z" fill="#4B45AF"/>
<path d="M90.0132 261.641V333.42H120.021L130.272 322.015H167.061L197.323 402.997V261.641H90.0132ZM183.28 290.428H164.791V271.921H183.28V290.428Z" fill="#FFF6DE"/>
<path d="M207.206 250.443V356.07H197.285V261.641H98.061V250.443H207.206Z" fill="#F5F4FF"/>
<path d="M197.286 402.997H85.7102L61.2729 333.421H120.021L130.272 322.016H167.061L197.286 402.997Z" stroke="black" stroke-width="1.3" stroke-linecap="round" stroke-linejoin="round"/>
<path d="M90.0132 261.641V333.42H120.021L130.272 322.015H167.061L197.323 402.997V261.641H90.0132ZM183.28 290.428H164.791V271.921H183.28V290.428Z" stroke="black" stroke-width="1.3" stroke-linecap="round" stroke-linejoin="round"/>
<path d="M207.206 250.443V356.07H197.285V261.641H98.061V250.443H207.206Z" stroke="black" stroke-width="1.3" stroke-linecap="round" stroke-linejoin="round"/>
<path d="M105.021 276.518H148.903" stroke="black" stroke-width="1.3" stroke-linecap="round" stroke-linejoin="round"/>
<path d="M105.021 287.648H148.903" stroke="black" stroke-width="1.3" stroke-linecap="round" stroke-linejoin="round"/>
<path d="M105.021 298.779H130.896" stroke="black" stroke-width="1.3" stroke-linecap="round" stroke-linejoin="round"/>
<path d="M183.279 271.922H164.791V290.43H183.279V271.922Z" fill="white"/>
<path d="M183.279 271.922H164.791V290.43H183.279V271.922Z" stroke="black" stroke-width="1.3" stroke-linecap="round" stroke-linejoin="round"/>
<path d="M535.341 433.865C535.349 434.858 535.143 435.841 534.737 436.747C534.331 437.653 533.734 438.46 532.987 439.114C532.239 439.767 531.36 440.252 530.408 440.535C529.457 440.817 528.455 440.891 527.472 440.75L520.143 439.757L243.049 400.472C241.403 400.238 239.897 399.417 238.807 398.161C237.718 396.905 237.118 395.298 237.119 393.635V178.286C237.118 177.298 237.328 176.322 237.737 175.422C238.146 174.523 238.743 173.722 239.488 173.074C240.233 172.426 241.109 171.945 242.056 171.664C243.004 171.384 244 171.31 244.978 171.449L527.841 205.362C529.482 205.589 530.986 206.399 532.078 207.645C533.171 208.89 533.778 210.486 533.79 212.143L535.341 433.865Z" fill="#E1DFFF"/>
<path d="M535.341 433.865C535.349 434.858 535.143 435.841 534.737 436.747C534.331 437.653 533.734 438.46 532.987 439.114C532.239 439.767 531.36 440.252 530.408 440.535C529.457 440.817 528.455 440.891 527.472 440.75L520.143 439.757L243.049 400.472C241.403 400.238 239.897 399.417 238.807 398.161C237.718 396.905 237.118 395.298 237.119 393.635V178.286C237.118 177.298 237.328 176.322 237.737 175.422C238.146 174.523 238.743 173.722 239.488 173.074C240.233 172.426 241.109 171.945 242.056 171.664C243.004 171.384 244 171.31 244.978 171.449L527.841 205.362C529.482 205.589 530.986 206.399 532.078 207.645C533.171 208.89 533.778 210.486 533.79 212.143L535.341 433.865Z" stroke="black" stroke-width="1.3" stroke-linecap="round" stroke-linejoin="round"/>
<path d="M529.534 435.169L528.011 211.243L242.973 177.027V394.542L529.534 435.169Z" fill="white"/>
<path d="M529.534 435.169L528.011 211.243L242.973 177.027V394.542L529.534 435.169Z" stroke="black" stroke-width="1.3" stroke-linecap="round" stroke-linejoin="round"/>
<path d="M539.776 212.171V432.673C539.775 434.588 539.14 436.447 537.969 437.962C536.799 439.476 535.159 440.56 533.307 441.043C532.159 441.344 530.961 441.402 529.789 441.213L520.143 439.757L527.453 440.788C528.436 440.928 529.438 440.854 530.389 440.572C531.341 440.289 532.221 439.805 532.968 439.151C533.715 438.497 534.312 437.69 534.718 436.784C535.124 435.878 535.33 434.896 535.322 433.903L533.818 212.18C533.806 210.524 533.199 208.927 532.107 207.682C531.014 206.437 529.51 205.627 527.87 205.399L245.006 171.486C244.028 171.348 243.032 171.421 242.085 171.702C241.138 171.982 240.262 172.463 239.516 173.111C238.771 173.76 238.174 174.561 237.765 175.46C237.357 176.359 237.146 177.336 237.147 178.324V176.744C237.147 175.454 237.424 174.179 237.958 173.005C238.493 171.831 239.274 170.785 240.247 169.939C241.221 169.093 242.365 168.465 243.602 168.099C244.839 167.733 246.14 167.637 247.418 167.817C296.68 174.739 484.792 194.741 529.95 200.917C532.673 201.285 535.169 202.629 536.976 204.699C538.783 206.768 539.778 209.423 539.776 212.171Z" fill="#4B45AF"/>
<path d="M539.776 212.171V432.673C539.775 434.588 539.14 436.447 537.969 437.962C536.799 439.476 535.159 440.56 533.307 441.043C532.159 441.344 530.961 441.402 529.789 441.213L520.143 439.757L527.453 440.788C528.436 440.928 529.438 440.854 530.389 440.572C531.341 440.289 532.221 439.805 532.968 439.151C533.715 438.497 534.312 437.69 534.718 436.784C535.124 435.878 535.33 434.896 535.322 433.903L533.818 212.18C533.806 210.524 533.199 208.927 532.107 207.682C531.014 206.437 529.51 205.627 527.869 205.399L245.006 171.486C244.028 171.348 243.032 171.421 242.085 171.702C241.138 171.982 240.262 172.463 239.516 173.111C238.771 173.76 238.174 174.561 237.765 175.46C237.357 176.359 237.146 177.336 237.147 178.324V176.744C237.147 175.454 237.424 174.179 237.958 173.005C238.493 171.831 239.274 170.785 240.247 169.939C241.221 169.093 242.365 168.465 243.602 168.099C244.839 167.733 246.14 167.637 247.418 167.817C296.68 174.739 484.792 194.741 529.95 200.917C532.673 201.285 535.169 202.629 536.976 204.699C538.783 206.768 539.778 209.423 539.776 212.171Z" stroke="black" stroke-width="1.3" stroke-linecap="round" stroke-linejoin="round"/>
<path d="M237.166 187.79V178.285" stroke="black" stroke-width="1.3" stroke-linecap="round" stroke-linejoin="round"/>
<path d="M532.957 463.692L360.714 554.973C358.791 556.006 356.588 556.4 354.425 556.098L70.5599 517.381C68.3206 517.081 66.2495 516.03 64.6859 514.4C63.1223 512.769 62.159 510.656 61.9539 508.406L61.2729 500.84L350.245 540.683C353.489 541.119 356.788 540.555 359.703 539.066L534.953 449.592L536.305 456.6C536.587 457.985 536.413 459.424 535.809 460.702C535.206 461.98 534.206 463.029 532.957 463.692Z" fill="#4B45AF"/>
<path d="M532.957 463.692L360.714 554.973C358.791 556.006 356.588 556.4 354.425 556.098L70.5599 517.381C68.3206 517.081 66.2495 516.03 64.6859 514.4C63.1223 512.769 62.159 510.656 61.9539 508.406L61.2729 500.84L350.245 540.683C353.489 541.119 356.788 540.555 359.703 539.066L534.953 449.592L536.305 456.6C536.587 457.985 536.413 459.424 535.809 460.702C535.206 461.98 534.206 463.029 532.957 463.692Z" stroke="black" stroke-width="1.3" stroke-linecap="round" stroke-linejoin="round"/>
<path d="M534.981 449.63L359.731 539.104C356.817 540.593 353.517 541.157 350.274 540.721L61.2729 500.878L243.096 400.434L520.143 439.756L529.77 441.251C530.942 441.44 532.14 441.382 533.288 441.08L534.981 449.63Z" fill="#E1DFFF"/>
<path d="M534.981 449.63L359.731 539.104C356.817 540.593 353.517 541.157 350.274 540.721L61.2729 500.878L243.096 400.434L520.143 439.756L529.77 441.251C530.942 441.44 532.14 441.382 533.288 441.08L534.981 449.63Z" stroke="black" stroke-width="1.3" stroke-linecap="round" stroke-linejoin="round"/>
<path d="M262.757 521.06L300.113 499.27L223.539 487.439L181.341 510.099L262.757 521.06Z" fill="#CFCEE2"/>
<path d="M407.953 493.918L168.914 460.496L155.693 468.185H155.674H155.693L394.75 501.606L407.953 493.918Z" fill="#CFCEE2"/>
<path d="M432.778 479.477L193.701 446.056L206.932 438.367L445.98 471.789L432.778 479.477Z" fill="#CFCEE2"/>
<path d="M212.71 435.001L225.931 427.293L464.989 460.733L451.777 468.403L212.71 435.001Z" fill="#CFCEE2"/>
<path d="M174.702 457.13L187.923 449.432L426.961 482.844L413.769 490.532L174.702 457.13Z" fill="#CFCEE2"/>
<path d="M439.559 388.49V258.425L276.007 235.482V367.258C276.008 368.949 276.619 370.582 277.727 371.859C278.835 373.136 280.367 373.97 282.04 374.209L431.548 395.441C432.544 395.583 433.559 395.509 434.524 395.225C435.488 394.941 436.381 394.453 437.141 393.794C437.9 393.135 438.509 392.32 438.926 391.405C439.344 390.49 439.559 389.495 439.559 388.49Z" fill="white"/>
<path d="M439.559 388.49V258.425L276.007 235.482V367.258C276.008 368.949 276.619 370.582 277.727 371.859C278.835 373.136 280.367 373.97 282.04 374.209L431.548 395.441C432.544 395.583 433.559 395.509 434.524 395.225C435.488 394.941 436.381 394.453 437.141 393.794C437.9 393.135 438.509 392.32 438.926 391.405C439.344 390.49 439.559 389.495 439.559 388.49Z" stroke="black" stroke-width="1.3" stroke-linecap="round" stroke-linejoin="round"/>
<path d="M439.559 258.426V244.722C439.559 243.026 438.945 241.386 437.831 240.107C436.717 238.828 435.177 237.995 433.497 237.762L283.989 217.098C282.995 216.96 281.984 217.037 281.022 217.323C280.061 217.609 279.172 218.098 278.416 218.757C277.659 219.415 277.053 220.229 276.637 221.141C276.222 222.054 276.007 223.046 276.007 224.049V235.483L439.559 258.426Z" fill="#4B45AF"/>
<path d="M439.559 258.426V244.722C439.559 243.026 438.945 241.386 437.831 240.107C436.717 238.828 435.177 237.995 433.497 237.762L283.989 217.098C282.995 216.96 281.984 217.037 281.022 217.323C280.061 217.609 279.172 218.098 278.416 218.757C277.659 219.415 277.053 220.229 276.637 221.141C276.222 222.054 276.007 223.046 276.007 224.049V235.483L439.559 258.426Z" stroke="black" stroke-width="1.3" stroke-linecap="round" stroke-linejoin="round"/>
<path d="M285.473 227.482L310.279 230.906" stroke="black" stroke-width="1.3" stroke-linecap="round" stroke-linejoin="round"/>
<path d="M315.585 231.643L325.676 233.042" stroke="black" stroke-width="1.3" stroke-linecap="round" stroke-linejoin="round"/>
<path d="M511.111 479.904H471.183C470.473 479.904 469.793 479.622 469.291 479.12C468.789 478.618 468.507 477.937 468.507 477.227V450.284C468.506 449.932 468.574 449.583 468.708 449.258C468.842 448.933 469.039 448.637 469.288 448.389C469.537 448.14 469.832 447.943 470.158 447.809C470.483 447.675 470.831 447.606 471.183 447.607H545.838C546.548 447.607 547.229 447.889 547.73 448.391C548.232 448.893 548.514 449.574 548.514 450.284V477.227C548.514 477.937 548.232 478.618 547.73 479.12C547.229 479.622 546.548 479.904 545.838 479.904H528.494L514.185 488.935C513.881 489.127 513.532 489.233 513.173 489.243C512.814 489.253 512.459 489.167 512.145 488.993C511.831 488.819 511.569 488.564 511.387 488.254C511.206 487.945 511.11 487.592 511.111 487.233V479.904Z" fill="#FFF3D5"/>
<path d="M511.111 479.904H471.183C470.473 479.904 469.793 479.622 469.291 479.12C468.789 478.618 468.507 477.937 468.507 477.227V450.284C468.506 449.932 468.574 449.583 468.708 449.258C468.842 448.933 469.039 448.637 469.288 448.389C469.537 448.14 469.832 447.943 470.158 447.809C470.483 447.675 470.831 447.606 471.183 447.607H545.838C546.548 447.607 547.229 447.889 547.73 448.391C548.232 448.893 548.514 449.574 548.514 450.284V477.227C548.514 477.937 548.232 478.618 547.73 479.12C547.229 479.622 546.548 479.904 545.838 479.904H528.494L514.185 488.935C513.881 489.127 513.532 489.233 513.173 489.243C512.814 489.253 512.459 489.167 512.145 488.993C511.831 488.819 511.569 488.564 511.387 488.254C511.206 487.945 511.11 487.592 511.111 487.233V479.904Z" stroke="black" stroke-width="1.3" stroke-linecap="round" stroke-linejoin="round"/>
<path d="M478.049 456.676H513.816" stroke="black" stroke-width="1.3" stroke-linecap="round" stroke-linejoin="round"/>
<path d="M478.049 467.287H523.623" stroke="black" stroke-width="1.3" stroke-linecap="round" stroke-linejoin="round"/>
<path d="M523.623 456.676H536.768" stroke="black" stroke-width="1.3" stroke-linecap="round" stroke-linejoin="round"/>
<path d="M538.272 173.52C539.019 182.296 529.761 186.912 524.919 186.874C524.894 186.882 524.867 186.882 524.843 186.874C524.086 186.713 517.826 185.171 517.561 176.007L507.243 174.665C512.047 160.346 520.426 160.148 522.375 160.318C522.438 160.323 522.501 160.323 522.564 160.318C522.62 160.318 522.677 160.318 522.706 160.318H522.781C530.489 161.519 537.534 164.801 538.272 173.52Z" fill="#F5F4FF"/>
<path d="M524.871 186.863C524.615 186.868 524.359 186.852 524.105 186.816C519.613 186.173 504.926 184.773 504.926 184.773C505.417 181.339 506.201 177.954 507.272 174.654L517.589 175.997C517.826 185.161 524.086 186.703 524.871 186.863Z" fill="#4B45AF"/>
<path d="M471.542 293.115C469.027 292.85 413.466 286.732 393.843 284.717C373.756 282.646 375.657 264.072 375.657 264.072L409.409 267.95L456.222 273.312C456.893 284.405 463.684 291.28 471.542 293.115Z" fill="#4B45AF"/>
<path d="M522.394 160.309C520.426 160.139 512.047 160.309 507.262 174.655C506.192 177.955 505.407 181.34 504.917 184.774C504.822 185.436 504.728 186.098 504.652 186.789C501.295 213.77 500.869 219.643 500.869 219.643L494.58 276.291C494.58 276.291 492.537 291.81 478.427 293.503C476.175 293.771 473.893 293.643 471.684 293.125H471.599C463.74 291.233 456.95 284.415 456.279 273.322L409.466 267.959C409.466 267.959 416.341 202.79 419.623 174.551C422.64 148.601 442.708 151.012 442.708 151.012C442.708 151.012 512.918 159.221 521.202 160.157C521.58 160.195 522.034 160.243 522.394 160.309Z" fill="#F5F4FF"/>
<path d="M538.272 173.52C539.019 182.296 529.761 186.912 524.919 186.874C524.894 186.882 524.867 186.882 524.843 186.874C524.086 186.713 517.826 185.171 517.561 176.007L507.243 174.665C512.047 160.346 520.426 160.148 522.375 160.318C522.438 160.323 522.501 160.323 522.564 160.318C522.62 160.318 522.677 160.318 522.706 160.318H522.781C530.489 161.519 537.534 164.801 538.272 173.52Z" stroke="black" stroke-width="1.3" stroke-linecap="round" stroke-linejoin="round"/>
<path d="M522.394 160.309C520.426 160.139 512.047 160.309 507.262 174.655C506.192 177.955 505.407 181.34 504.917 184.774C504.822 185.436 504.728 186.098 504.652 186.789C501.295 213.77 500.869 219.643 500.869 219.643L494.58 276.291C494.58 276.291 492.537 291.81 478.427 293.503C476.175 293.771 473.893 293.643 471.684 293.125H471.599C463.74 291.233 456.95 284.415 456.279 273.322L409.466 267.959C409.466 267.959 416.341 202.79 419.623 174.551C422.64 148.601 442.708 151.012 442.708 151.012C442.708 151.012 512.918 159.221 521.202 160.157C521.58 160.195 522.034 160.243 522.394 160.309Z" stroke="black" stroke-width="1.3" stroke-linecap="round" stroke-linejoin="round"/>
<path d="M507.243 174.654H507.234" stroke="black" stroke-width="1.3" stroke-linecap="round" stroke-linejoin="round"/>
<path d="M524.871 186.863C524.615 186.868 524.359 186.852 524.105 186.816C519.613 186.173 504.926 184.773 504.926 184.773C505.417 181.339 506.201 177.954 507.272 174.654L517.589 175.997C517.826 185.161 524.086 186.703 524.871 186.863Z" stroke="black" stroke-width="1.3" stroke-linecap="round" stroke-linejoin="round"/>
<path d="M471.542 293.115C469.027 292.85 413.466 286.732 393.843 284.717C373.756 282.646 375.657 264.072 375.657 264.072L409.409 267.95L456.222 273.312C456.893 284.405 463.684 291.28 471.542 293.115Z" stroke="black" stroke-width="1.3" stroke-linecap="round" stroke-linejoin="round"/>
<path d="M522.583 160.326C522.64 160.326 522.696 160.326 522.725 160.326H522.801" stroke="black" stroke-width="1.3" stroke-linecap="round" stroke-linejoin="round"/>
<path d="M425.836 215.896L482.031 222.602" stroke="black" stroke-width="1.3" stroke-linecap="round" stroke-linejoin="round"/>
<path d="M425.061 222.848L481.255 229.553" stroke="black" stroke-width="1.3" stroke-linecap="round" stroke-linejoin="round"/>
<path d="M431.615 179.25L487.809 185.955" stroke="black" stroke-width="1.3" stroke-linecap="round" stroke-linejoin="round"/>
<path d="M430.839 186.191L487.033 192.897" stroke="black" stroke-width="1.3" stroke-linecap="round" stroke-linejoin="round"/>
<path d="M424.285 229.789L480.479 236.494" stroke="black" stroke-width="1.3" stroke-linecap="round" stroke-linejoin="round"/>
<path d="M423.51 236.74L479.704 243.445" stroke="black" stroke-width="1.3" stroke-linecap="round" stroke-linejoin="round"/>
<path d="M422.725 243.682L478.928 250.387" stroke="black" stroke-width="1.3" stroke-linecap="round" stroke-linejoin="round"/>
<path opacity="0.6" d="M541.97 309.343C541.974 320.601 538.639 331.606 532.387 340.968C526.136 350.33 517.249 357.627 506.849 361.938C496.45 366.248 485.006 367.378 473.965 365.184C462.924 362.99 452.781 357.571 444.82 349.613C436.858 341.654 431.436 331.513 429.239 320.472C427.041 309.432 428.167 297.988 432.474 287.587C436.781 277.186 444.076 268.297 453.435 262.042C462.795 255.788 473.8 252.449 485.057 252.449C500.148 252.449 514.621 258.443 525.294 269.112C535.966 279.781 541.965 294.252 541.97 309.343Z" fill="#C9C9C9"/>
<path d="M485.057 240.58C471.455 240.58 458.158 244.614 446.848 252.171C435.538 259.728 426.724 270.47 421.519 283.037C416.314 295.604 414.952 309.432 417.607 322.773C420.261 336.114 426.812 348.368 436.431 357.985C446.05 367.603 458.305 374.152 471.646 376.804C484.987 379.457 498.815 378.094 511.382 372.887C523.948 367.68 534.688 358.864 542.244 347.553C549.799 336.243 553.831 322.945 553.829 309.343C553.829 300.312 552.05 291.37 548.594 283.026C545.138 274.683 540.072 267.102 533.686 260.717C527.3 254.332 519.718 249.267 511.374 245.812C503.031 242.357 494.088 240.579 485.057 240.58ZM485.057 366.256C473.803 366.254 462.803 362.915 453.447 356.662C444.09 350.409 436.798 341.522 432.493 331.124C428.187 320.727 427.061 309.286 429.257 298.249C431.453 287.211 436.872 277.073 444.83 269.115C452.787 261.158 462.925 255.739 473.963 253.543C485 251.347 496.441 252.473 506.838 256.779C517.236 261.084 526.123 268.376 532.376 277.733C538.63 287.089 541.968 298.089 541.97 309.343C541.971 316.817 540.5 324.219 537.64 331.124C534.781 338.03 530.589 344.304 525.303 349.589C520.018 354.874 513.744 359.067 506.838 361.926C499.933 364.786 492.531 366.257 485.057 366.256Z" fill="#4B45AF"/>
<path d="M485.057 240.58C471.455 240.58 458.158 244.614 446.848 252.171C435.538 259.728 426.724 270.47 421.519 283.037C416.314 295.604 414.952 309.432 417.607 322.773C420.261 336.114 426.812 348.368 436.431 357.985C446.05 367.603 458.305 374.152 471.646 376.804C484.987 379.457 498.815 378.094 511.382 372.887C523.948 367.68 534.688 358.864 542.244 347.553C549.799 336.243 553.831 322.945 553.829 309.343C553.829 300.312 552.05 291.37 548.594 283.026C545.138 274.683 540.072 267.102 533.686 260.717C527.3 254.332 519.718 249.267 511.374 245.812C503.031 242.357 494.088 240.579 485.057 240.58ZM485.057 366.256C473.803 366.254 462.803 362.915 453.447 356.662C444.09 350.409 436.798 341.522 432.493 331.124C428.187 320.727 427.061 309.286 429.257 298.249C431.453 287.211 436.872 277.073 444.83 269.115C452.787 261.158 462.925 255.739 473.963 253.543C485 251.347 496.441 252.473 506.838 256.779C517.236 261.084 526.123 268.376 532.376 277.733C538.63 287.089 541.968 298.089 541.97 309.343C541.971 316.817 540.5 324.219 537.64 331.124C534.781 338.03 530.589 344.304 525.303 349.589C520.018 354.874 513.744 359.067 506.838 361.926C499.933 364.786 492.531 366.257 485.057 366.256Z" stroke="black" stroke-width="1.3" stroke-linecap="round" stroke-linejoin="round"/>
<path d="M541.97 309.343C541.974 320.601 538.639 331.606 532.387 340.968C526.136 350.33 517.249 357.627 506.849 361.938C496.45 366.248 485.006 367.378 473.965 365.184C462.924 362.99 452.781 357.571 444.82 349.613C436.858 341.654 431.436 331.513 429.239 320.472C427.041 309.432 428.167 297.988 432.474 287.587C436.781 277.186 444.076 268.297 453.435 262.042C462.795 255.788 473.8 252.449 485.057 252.449C500.148 252.449 514.621 258.443 525.294 269.112C535.966 279.781 541.965 294.252 541.97 309.343Z" stroke="black" stroke-width="1.3" stroke-linecap="round" stroke-linejoin="round"/>
<path d="M547.569 361.982L537.733 372.045L528.371 362.909C528.069 362.616 527.827 362.266 527.661 361.879C527.495 361.492 527.406 361.077 527.401 360.656C527.396 360.235 527.474 359.817 527.63 359.426C527.787 359.036 528.019 358.68 528.314 358.379L533.657 352.903C533.95 352.601 534.3 352.36 534.687 352.194C535.074 352.027 535.489 351.939 535.91 351.934C536.331 351.929 536.749 352.006 537.14 352.163C537.53 352.32 537.886 352.552 538.187 352.847L547.569 361.982Z" fill="#4B45AF"/>
<path d="M547.569 361.982L537.733 372.045L528.371 362.909C528.069 362.616 527.827 362.266 527.661 361.879C527.495 361.492 527.406 361.077 527.401 360.656C527.396 360.235 527.474 359.817 527.63 359.426C527.787 359.036 528.019 358.68 528.314 358.379L533.657 352.903C533.95 352.601 534.3 352.36 534.687 352.194C535.074 352.027 535.489 351.939 535.91 351.934C536.331 351.929 536.749 352.006 537.14 352.163C537.53 352.32 537.886 352.552 538.187 352.847L547.569 361.982Z" stroke="black" stroke-width="1.3" stroke-linecap="round" stroke-linejoin="round"/>
<path d="M598.93 412.086L589.104 422.158C587.929 423.357 586.326 424.04 584.648 424.06C582.969 424.079 581.351 423.433 580.148 422.262L576.687 418.895L595.365 399.764L598.817 403.121C600.019 404.296 600.707 405.899 600.728 407.58C600.749 409.261 600.103 410.882 598.93 412.086Z" fill="#E0DEFF"/>
<path d="M598.93 412.086L589.104 422.158C587.929 423.357 586.326 424.04 584.648 424.06C582.969 424.079 581.351 423.433 580.148 422.262L576.687 418.895L595.365 399.764L598.817 403.121C600.019 404.296 600.707 405.899 600.728 407.58C600.749 409.261 600.103 410.882 598.93 412.086Z" stroke="black" stroke-width="1.3" stroke-linecap="round" stroke-linejoin="round"/>
<path d="M595.365 399.763L576.687 418.895L537.837 381C536.636 379.826 535.951 378.223 535.932 376.544C535.912 374.865 536.56 373.246 537.733 372.044L547.569 361.982C548.149 361.384 548.841 360.907 549.607 360.578C550.372 360.249 551.195 360.074 552.028 360.063C552.861 360.052 553.687 360.207 554.461 360.516C555.234 360.826 555.939 361.286 556.534 361.869L595.365 399.763Z" fill="#4B45AF"/>
<path d="M595.365 399.763L576.687 418.895L537.837 381C536.636 379.826 535.951 378.223 535.932 376.544C535.912 374.865 536.56 373.246 537.733 372.044L547.569 361.982C548.149 361.384 548.841 360.907 549.607 360.578C550.372 360.249 551.195 360.074 552.028 360.063C552.861 360.052 553.687 360.207 554.461 360.516C555.234 360.826 555.939 361.286 556.534 361.869L595.365 399.763Z" stroke="black" stroke-width="1.3" stroke-linecap="round" stroke-linejoin="round"/>
<path d="M468.261 490.533H420.975C420.975 490.533 416.852 546.047 410.837 560.138H458.672C458.672 560.138 464.998 539.852 468.261 490.533Z" fill="#F6F5FF"/>
<path d="M468.261 490.533H420.975C420.975 490.533 416.852 546.047 410.837 560.138H458.672C458.672 560.138 464.998 539.852 468.261 490.533Z" stroke="black" stroke-width="1.3" stroke-linecap="round" stroke-linejoin="round"/>
<path d="M303.83 285.805L408.151 300.425" stroke="black" stroke-width="1.3" stroke-linecap="round" stroke-linejoin="round"/>
<path d="M303.83 302.043L408.151 316.664" stroke="black" stroke-width="1.3" stroke-linecap="round" stroke-linejoin="round"/>
<path d="M303.83 318.271L408.151 332.892" stroke="black" stroke-width="1.3" stroke-linecap="round" stroke-linejoin="round"/>
<path d="M303.83 334.508L408.151 349.129" stroke="black" stroke-width="1.3" stroke-linecap="round" stroke-linejoin="round"/>
<path d="M303.83 350.746L408.151 365.367" stroke="black" stroke-width="1.3" stroke-linecap="round" stroke-linejoin="round"/>
</svg>
