<svg width="569" height="387" viewBox="0 0 569 387" fill="none" xmlns="http://www.w3.org/2000/svg">
<path d="M506.466 385.844C506.466 385.844 548.642 367.412 564.953 293.837C581.265 220.262 466.106 221.124 414.77 57.0487C386.347 -33.6981 229.05 0.901397 148.099 43.8548C67.1489 86.8082 158.313 162.486 20.3153 244.547C-39.1711 279.923 48.509 376.467 72.9802 385.825L506.466 385.844Z" fill="#F6F5FF"/>
<path d="M417.391 366.555V236.259C417.391 233.706 416.904 231.177 415.958 228.818C415.013 226.459 413.627 224.315 411.88 222.51C410.133 220.704 408.058 219.272 405.776 218.295C403.493 217.317 401.046 216.814 398.575 216.814H267.544C266.95 216.813 266.362 216.688 265.816 216.447C265.269 216.205 264.776 215.853 264.364 215.41L230.494 179.133C230.081 178.692 229.587 178.341 229.041 178.101C228.495 177.861 227.907 177.737 227.314 177.736H168.396C163.406 177.736 158.62 179.785 155.091 183.432C151.563 187.078 149.581 192.024 149.581 197.181V366.555C149.581 371.712 151.563 376.658 155.091 380.305C158.62 383.951 163.406 386 168.396 386H398.575C401.046 386 403.493 385.497 405.776 384.52C408.058 383.542 410.133 382.11 411.88 380.305C413.627 378.499 415.013 376.355 415.958 373.996C416.904 371.637 417.391 369.109 417.391 366.555Z" fill="#5857D2"/>
<path d="M417.391 366.555V236.259C417.391 233.706 416.904 231.177 415.958 228.818C415.013 226.459 413.627 224.315 411.88 222.51C410.133 220.704 408.058 219.272 405.776 218.295C403.493 217.317 401.046 216.814 398.575 216.814H267.544C266.95 216.813 266.362 216.688 265.816 216.447C265.269 216.205 264.776 215.853 264.364 215.41L230.494 179.133C230.081 178.692 229.587 178.341 229.041 178.101C228.495 177.861 227.907 177.737 227.314 177.736H168.396C163.406 177.736 158.62 179.785 155.091 183.432C151.563 187.078 149.581 192.024 149.581 197.181V366.555C149.581 371.712 151.563 376.658 155.091 380.305C158.62 383.951 163.406 386 168.396 386H398.575C401.046 386 403.493 385.497 405.776 384.52C408.058 383.542 410.133 382.11 411.88 380.305C413.627 378.499 415.013 376.355 415.958 373.996C416.904 371.637 417.391 369.109 417.391 366.555Z" stroke="black" stroke-width="1.3" stroke-linecap="round" stroke-linejoin="round"/>
<path d="M384.021 60.0751L309.936 34.7733C306.746 33.6851 303.269 33.9504 300.269 35.5109C297.268 37.0713 294.99 39.7992 293.935 43.0949L250.565 178.747C249.517 182.041 249.776 185.631 251.286 188.728C252.795 191.825 255.432 194.177 258.617 195.267L349.236 226.213C352.425 227.301 355.901 227.037 358.902 225.478C361.902 223.919 364.181 221.193 365.237 217.899L404.267 95.8673C404.543 95.0096 404.635 94.1001 404.536 93.202C404.437 92.304 404.15 91.439 403.695 90.6673L387.264 62.7367C386.523 61.4794 385.374 60.5358 384.021 60.0751Z" fill="white"/>
<path d="M384.021 60.0751L309.936 34.7733C306.746 33.6851 303.269 33.9504 300.269 35.5109C297.268 37.0713 294.99 39.7992 293.935 43.0949L250.565 178.747C249.517 182.041 249.776 185.631 251.286 188.728C252.795 191.825 255.432 194.177 258.617 195.267L349.236 226.213C352.425 227.301 355.901 227.037 358.902 225.478C361.902 223.919 364.181 221.193 365.237 217.899L404.267 95.8673C404.543 95.0096 404.635 94.1001 404.536 93.202C404.437 92.304 404.15 91.439 403.695 90.6673L387.264 62.7367C386.523 61.4794 385.374 60.5358 384.021 60.0751Z" stroke="black" stroke-width="1.3" stroke-linecap="round" stroke-linejoin="round"/>
<path d="M379.871 130.501L392.9 90.741L392.479 89.2048C392.479 89.2048 382.463 86.6746 381.255 85.2206C380.046 83.7665 379.188 82.5754 379.204 81.6635C379.309 80.7019 379.493 79.7511 379.752 78.8212L381.342 73.8101C381.342 73.8101 380.825 72.4629 380.436 72.3315L306.423 47.0625L305.858 48.1222L288.863 99.2844L289.738 100.106L379.871 130.501Z" fill="#FFD740"/>
<path d="M374.839 129.153L369.839 97.2464L348.433 120.133L333.226 114.941L330.086 65.3398L296.406 102.372" fill="#4B47BC"/>
<path d="M393.122 89.4272L379.871 130.871L289.006 99.8437L305.937 46.8906L381.691 72.7593" stroke="black" stroke-width="1.3" stroke-linecap="round" stroke-linejoin="round"/>
<path d="M374.839 129.153L369.839 97.2464L348.433 120.133L333.226 114.941L330.086 65.3398L296.406 102.372" stroke="black" stroke-width="1.3" stroke-linecap="round" stroke-linejoin="round"/>
<path d="M350.15 92.8271C355.365 92.8271 359.593 88.4578 359.593 83.0679C359.593 77.678 355.365 73.3086 350.15 73.3086C344.935 73.3086 340.707 77.678 340.707 83.0679C340.707 88.4578 344.935 92.8271 350.15 92.8271Z" fill="white"/>
<path d="M350.15 92.8271C355.365 92.8271 359.593 88.4578 359.593 83.0679C359.593 77.678 355.365 73.3086 350.15 73.3086C344.935 73.3086 340.707 77.678 340.707 83.0679C340.707 88.4578 344.935 92.8271 350.15 92.8271Z" stroke="black" stroke-width="1.3" stroke-linecap="round" stroke-linejoin="round"/>
<path d="M361.398 150.769L316.351 135.391" stroke="black" stroke-width="1.3" stroke-linecap="round" stroke-linejoin="round"/>
<path d="M355.778 168.355L310.723 152.977" stroke="black" stroke-width="1.3" stroke-linecap="round" stroke-linejoin="round"/>
<path d="M350.15 185.951L305.103 170.564" stroke="black" stroke-width="1.3" stroke-linecap="round" stroke-linejoin="round"/>
<path d="M393.122 290.584H322.177" stroke="white" stroke-width="1.3" stroke-linecap="round" stroke-linejoin="round"/>
<path d="M393.122 305.025H322.177" stroke="white" stroke-width="1.3" stroke-linecap="round" stroke-linejoin="round"/>
<path d="M393.122 319.469H322.177" stroke="white" stroke-width="1.3" stroke-linecap="round" stroke-linejoin="round"/>
<path d="M393.122 333.918H322.177" stroke="#FDFDFD" stroke-width="1.3" stroke-linecap="round" stroke-linejoin="round"/>
<path d="M565.552 318.803C567.587 318.803 568.406 318.433 567.81 320.725C567.056 323.469 565.828 326.049 564.185 328.34C562.667 330.279 558.43 334.674 554.948 336.358C551.466 338.042 544.455 339.422 540.974 339.94C537.492 340.457 526.809 340.112 526.809 340.112L467.461 340.309C467.461 340.309 452.112 340.038 447.851 338.469C443.59 336.9 441.404 335.75 439.989 334.362C438.575 332.973 435.371 328.956 434.56 326.911C433.604 324.461 432.887 321.918 432.422 319.32C432.247 317.677 431.945 309.011 431.945 309.011L432.351 291.998L431.897 210.235C431.897 210.235 431.842 208.124 430.093 208.042C428.344 207.959 417.899 208.28 416.445 208.329C414.99 208.378 405.976 208.214 403.98 207.352C401.985 206.489 401.031 204.83 399.919 203.343C398.687 201.619 397.66 199.749 396.858 197.773C395.912 195.547 395.435 194.553 395.666 192.77C395.966 190.58 396.515 188.435 397.303 186.379C398.019 184.736 400.952 181.294 402.534 180.415C404.116 179.536 408.623 177.491 410.324 177.4C412.025 177.31 422.367 177.704 422.367 177.704H500.768C500.768 177.704 508.494 178.419 510.934 179.249C512.941 179.857 514.915 180.576 516.848 181.401C518.669 182.222 523.303 185.82 524.448 187.332C525.592 188.843 527.452 193.551 527.794 194.651C528.381 196.914 528.751 199.231 528.899 201.568C528.899 203.376 528.963 209.956 528.979 210.071C528.995 210.186 528.74 317.275 528.74 317.275C528.74 317.275 528.7 318.096 530.099 318.482C531.498 318.868 565.552 318.803 565.552 318.803Z" fill="white"/>
<path d="M567.81 318.803C567.81 318.803 566.92 339.94 535.346 339.94H457.072C457.072 339.94 475.752 336.572 475.752 318.803H567.81Z" stroke="black" stroke-width="1.3" stroke-linecap="round" stroke-linejoin="round"/>
<path d="M528.74 318.802V200.729C528.74 200.729 529.098 177.793 499.981 177.793H416.015C416.015 177.793 400.825 176.29 396.818 187.988C392.812 199.686 401.635 207.523 406.937 208.082C411.85 208.599 417.271 207.876 419.163 196.688H431.595L432.184 300.244V316.165C432.184 316.165 431.635 339.938 457.072 339.938" stroke="black" stroke-width="1.3" stroke-linecap="round" stroke-linejoin="round"/>
<path d="M431.595 196.688C431.595 196.688 431.595 178.016 410.626 178.016" stroke="black" stroke-width="1.3" stroke-linecap="round" stroke-linejoin="round"/>
<path d="M409.887 208.164H431.595" stroke="black" stroke-width="1.3" stroke-linecap="round" stroke-linejoin="round"/>
<path d="M511.213 228.52H457.072" stroke="black" stroke-width="1.3" stroke-linecap="round" stroke-linejoin="round"/>
<path d="M511.213 250.883H457.072" stroke="black" stroke-width="1.3" stroke-linecap="round" stroke-linejoin="round"/>
<path d="M511.213 273.25H457.072" stroke="black" stroke-width="1.3" stroke-linecap="round" stroke-linejoin="round"/>
<path d="M511.213 295.621H457.072" stroke="black" stroke-width="1.3" stroke-linecap="round" stroke-linejoin="round"/>
<path d="M566.283 386H39.1128" stroke="black" stroke-width="1.3" stroke-linecap="round" stroke-linejoin="round"/>
<path d="M430.037 156.953H439.958" stroke="black" stroke-width="1.3" stroke-linecap="round" stroke-linejoin="round"/>
<path d="M434.998 162.078V151.826" stroke="black" stroke-width="1.3" stroke-linecap="round" stroke-linejoin="round"/>
<path d="M221.678 143.079C224.369 143.079 226.551 140.825 226.551 138.044C226.551 135.262 224.369 133.008 221.678 133.008C218.987 133.008 216.805 135.262 216.805 138.044C216.805 140.825 218.987 143.079 221.678 143.079Z" fill="#FC6140"/>
<path d="M115.996 353.478C118.687 353.478 120.869 351.223 120.869 348.442C120.869 345.661 118.687 343.406 115.996 343.406C113.305 343.406 111.123 345.661 111.123 348.442C111.123 351.223 113.305 353.478 115.996 353.478Z" fill="#FC6140"/>
<path d="M406.524 159.572C407.591 159.572 408.456 158.679 408.456 157.576C408.456 156.474 407.591 155.58 406.524 155.58C405.458 155.58 404.593 156.474 404.593 157.576C404.593 158.679 405.458 159.572 406.524 159.572Z" fill="#FFD740"/>
<path d="M562.587 284.112C564.624 284.112 566.276 282.405 566.276 280.3C566.276 278.195 564.624 276.488 562.587 276.488C560.55 276.488 558.899 278.195 558.899 280.3C558.899 282.405 560.55 284.112 562.587 284.112Z" fill="#FFD740"/>
<path d="M385.372 61.25L379.418 79.8567C379.233 80.436 379.16 81.0473 379.204 81.6558C379.247 82.2642 379.407 82.8578 379.672 83.4025C379.938 83.9473 380.305 84.4326 380.753 84.8306C381.2 85.2286 381.719 85.5315 382.28 85.7221L404.116 93.1812" stroke="black" stroke-width="1.3" stroke-linecap="round" stroke-linejoin="round"/>
<path d="M103.866 77.7948L33.2071 112.01C31.7004 112.739 30.3475 113.767 29.2256 115.037C28.1037 116.306 27.2348 117.791 26.6686 119.408C26.1024 121.024 25.85 122.74 25.9257 124.458C26.0015 126.175 26.404 127.86 27.1102 129.417L85.75 258.785C86.4546 260.343 87.4493 261.742 88.6773 262.902C89.9053 264.062 91.3425 264.961 92.9068 265.547C94.4711 266.133 96.1318 266.394 97.794 266.317C99.4562 266.239 101.087 265.823 102.594 265.094L189.039 223.247C192.081 221.774 194.432 219.112 195.575 215.848C196.718 212.584 196.56 208.984 195.136 205.84L142.363 89.4189C141.992 88.6013 141.454 87.8766 140.786 87.2951C140.117 86.7136 139.334 86.289 138.492 86.0508L108.015 77.4334C106.634 77.0447 105.165 77.1727 103.866 77.7948Z" fill="white"/>
<path d="M103.866 77.7948L33.2071 112.01C31.7004 112.739 30.3475 113.767 29.2256 115.037C28.1037 116.306 27.2348 117.791 26.6686 119.408C26.1024 121.024 25.85 122.74 25.9257 124.458C26.0015 126.175 26.404 127.86 27.1102 129.417L85.75 258.785C86.4546 260.343 87.4493 261.742 88.6773 262.902C89.9053 264.062 91.3425 264.961 92.9068 265.547C94.4711 266.133 96.1318 266.394 97.794 266.317C99.4562 266.239 101.087 265.823 102.594 265.094L189.039 223.247C192.081 221.774 194.432 219.112 195.575 215.848C196.718 212.584 196.56 208.984 195.136 205.84L142.363 89.4189C141.992 88.6013 141.454 87.8766 140.786 87.2951C140.117 86.7136 139.334 86.289 138.492 86.0508L108.015 77.4334C106.634 77.0447 105.165 77.1727 103.866 77.7948Z" stroke="black" stroke-width="1.3" stroke-linecap="round" stroke-linejoin="round"/>
<path d="M147.657 131.938L130.694 93.7881L129.366 92.9667C129.366 92.9667 120.408 98.2324 118.563 98.0352C116.719 97.8381 115.304 97.5834 114.708 96.9016C114.143 96.1254 113.643 95.3009 113.214 94.4371L111.052 89.6561C111.052 89.6561 109.78 89.0482 109.406 89.2289L38.8269 123.403L39.1131 124.577L60.7741 173.817H61.9506L147.657 131.938Z" fill="#FFD740"/>
<path d="M143.102 134.526L118.262 114.893L117.92 146.717L103.413 153.741L68.167 119.92L68.3021 170.737" fill="#4B47BC"/>
<path d="M129.986 92.6803L147.903 132.202L61.2432 174.155L38.3501 123.65L110.599 88.6797" stroke="black" stroke-width="1.3" stroke-linecap="round" stroke-linejoin="round"/>
<path d="M143.102 134.526L118.262 114.893L117.92 146.717L103.413 153.741L68.167 119.92L68.3021 170.737" stroke="black" stroke-width="1.3" stroke-linecap="round" stroke-linejoin="round"/>
<path d="M94.5335 128.315C99.749 128.315 103.977 123.946 103.977 118.556C103.977 113.166 99.749 108.797 94.5335 108.797C89.3181 108.797 85.0901 113.166 85.0901 118.556C85.0901 123.946 89.3181 128.315 94.5335 128.315Z" fill="white"/>
<path d="M94.5335 128.315C99.749 128.315 103.977 123.946 103.977 118.556C103.977 113.166 99.749 108.797 94.5335 108.797C89.3181 108.797 85.0901 113.166 85.0901 118.556C85.0901 123.946 89.3181 128.315 94.5335 128.315Z" stroke="black" stroke-width="1.3" stroke-linecap="round" stroke-linejoin="round"/>
<path d="M147.705 159.779L104.74 180.579" stroke="black" stroke-width="1.3" stroke-linecap="round" stroke-linejoin="round"/>
<path d="M155.304 176.553L112.339 197.353" stroke="black" stroke-width="1.3" stroke-linecap="round" stroke-linejoin="round"/>
<path d="M162.911 193.328L119.947 214.128" stroke="black" stroke-width="1.3" stroke-linecap="round" stroke-linejoin="round"/>
<path d="M105.623 77.7031L113.667 95.4473C113.917 95.9999 114.27 96.4962 114.706 96.9077C115.142 97.3192 115.652 97.6378 116.207 97.8454C116.763 98.0529 117.352 98.1453 117.942 98.1172C118.532 98.0891 119.11 97.9411 119.645 97.6817L140.471 87.602" stroke="black" stroke-width="1.3" stroke-linecap="round" stroke-linejoin="round"/>
</svg>
