<svg width="832" height="386" viewBox="0 0 832 386" fill="none" xmlns="http://www.w3.org/2000/svg">
<path d="M422.902 286.388C478.553 286.388 523.667 239.769 523.667 182.26C523.667 124.752 478.553 78.1328 422.902 78.1328C367.252 78.1328 322.138 124.752 322.138 182.26C322.138 239.769 367.252 286.388 422.902 286.388Z" fill="#FFF6DE"/>
<path d="M422.902 265.057C467.153 265.057 503.025 227.988 503.025 182.26C503.025 136.532 467.153 99.4629 422.902 99.4629C378.652 99.4629 342.779 136.532 342.779 182.26C342.779 227.988 378.652 265.057 422.902 265.057Z" fill="#FFE8AD"/>
<path d="M422.902 233.287C450.173 233.287 472.28 210.442 472.28 182.261C472.28 154.08 450.173 131.234 422.902 131.234C395.631 131.234 373.523 154.08 373.523 182.261C373.523 210.442 395.631 233.287 422.902 233.287Z" fill="#FFCF44"/>
<path d="M422.902 217.18C441.565 217.18 456.695 201.546 456.695 182.26C456.695 162.974 441.565 147.34 422.902 147.34C404.239 147.34 389.11 162.974 389.11 182.26C389.11 201.546 404.239 217.18 422.902 217.18Z" stroke="#4A4A4A" stroke-width="1.3" stroke-linecap="round" stroke-linejoin="round"/>
<path d="M819.284 383.999C819.284 383.999 786.274 311.175 737.791 331.664C689.307 352.153 697.612 332.764 639.912 280.529C582.213 228.295 607.829 235.094 495.389 202.815C382.949 170.536 389.352 238.643 327.104 286.362C264.857 334.081 234.919 335.522 171.237 308.092C107.554 280.663 70.9315 383.674 29.6726 383.674L819.284 383.999Z" fill="#7688B6"/>
<path d="M734.622 303.719C737.072 300.605 738.618 296.838 739.08 292.853C739.542 288.868 738.902 284.829 737.233 281.205C735.565 277.581 732.936 274.52 729.653 272.377C726.369 270.233 722.565 269.096 718.681 269.096C714.797 269.096 710.993 270.233 707.71 272.377C704.426 274.52 701.798 277.581 700.129 281.205C698.46 284.829 697.82 288.868 698.282 292.853C698.745 296.838 700.29 300.605 702.74 303.719C696.21 307.383 691.047 313.191 688.069 320.226C685.091 327.261 684.467 335.121 686.295 342.563C688.124 350.006 692.301 356.606 698.167 361.32C704.032 366.035 711.25 368.594 718.681 368.594C726.112 368.594 733.33 366.035 739.196 361.32C745.061 356.606 749.238 350.006 751.067 342.563C752.896 335.121 752.271 327.261 749.293 320.226C746.315 313.191 741.152 307.383 734.622 303.719Z" fill="#00A4A7"/>
<path d="M734.622 303.719C737.072 300.605 738.618 296.838 739.08 292.853C739.542 288.868 738.902 284.829 737.233 281.205C735.565 277.581 732.936 274.52 729.653 272.377C726.369 270.233 722.565 269.096 718.681 269.096C714.797 269.096 710.993 270.233 707.71 272.377C704.426 274.52 701.798 277.581 700.129 281.205C698.46 284.829 697.82 288.868 698.282 292.853C698.745 296.838 700.29 300.605 702.74 303.719C696.21 307.383 691.047 313.191 688.069 320.226C685.091 327.261 684.467 335.121 686.295 342.563C688.124 350.006 692.301 356.606 698.167 361.32C704.032 366.035 711.25 368.594 718.681 368.594C726.112 368.594 733.33 366.035 739.196 361.32C745.061 356.606 749.238 350.006 751.067 342.563C752.896 335.121 752.271 327.261 749.293 320.226C746.315 313.191 741.152 307.383 734.622 303.719Z" stroke="#4A4A4A" stroke-width="1.3" stroke-linecap="round" stroke-linejoin="round"/>
<path d="M718.697 384V315.668" stroke="#4A4A4A" stroke-width="1.3" stroke-linecap="round" stroke-linejoin="round"/>
<path d="M718.697 354.138L730.397 341.557" stroke="#4A4A4A" stroke-width="1.3" stroke-linecap="round" stroke-linejoin="round"/>
<path d="M718.697 339.649L712.747 334.791" stroke="#4A4A4A" stroke-width="1.3" stroke-linecap="round" stroke-linejoin="round"/>
<path d="M229.404 383.484V143.574H321.904V383.484H229.404Z" fill="#82C5FE"/>
<path d="M321.903 143.574H352.027V383.484H321.903" fill="#BCEBF1"/>
<path d="M352.036 143.574H229.404V160.964H352.036V143.574Z" fill="white"/>
<path d="M229.404 383.484V143.574H321.904V383.484H229.404Z" stroke="#4A4A4A" stroke-width="1.3" stroke-linecap="round" stroke-linejoin="round"/>
<path d="M321.903 143.574H352.027V383.484H321.903" stroke="#4A4A4A" stroke-width="1.3" stroke-linecap="round" stroke-linejoin="round"/>
<path d="M229.404 160.955H352.028" stroke="#4A4A4A" stroke-width="1.3" stroke-linecap="round" stroke-linejoin="round"/>
<path d="M302.81 176.145H291.175V220.414H302.81V176.145Z" fill="#FFE8AD"/>
<path d="M263.68 176.145H252.045V220.414H263.68V176.145Z" fill="#FFE8AD"/>
<path d="M302.81 242.928H291.175V287.197H302.81V242.928Z" fill="#FFE8AD"/>
<path d="M263.68 242.928H252.045V287.197H263.68V242.928Z" fill="#FFE8AD"/>
<path d="M302.81 176.145H291.175V220.414H302.81V176.145Z" stroke="#4A4A4A" stroke-width="1.3" stroke-linecap="round" stroke-linejoin="round"/>
<path d="M263.68 176.145H252.045V220.414H263.68V176.145Z" stroke="#4A4A4A" stroke-width="1.3" stroke-linecap="round" stroke-linejoin="round"/>
<path d="M302.81 242.928H291.175V287.197H302.81V242.928Z" stroke="#4A4A4A" stroke-width="1.3" stroke-linecap="round" stroke-linejoin="round"/>
<path d="M263.68 242.928H252.045V287.197H263.68V242.928Z" stroke="#4A4A4A" stroke-width="1.3" stroke-linecap="round" stroke-linejoin="round"/>
<path d="M321.903 176.145H338.263" stroke="#4A4A4A" stroke-width="1.3" stroke-linecap="round" stroke-linejoin="round"/>
<path d="M321.903 199.141H338.263" stroke="#4A4A4A" stroke-width="1.3" stroke-linecap="round" stroke-linejoin="round"/>
<path d="M321.903 222.146H338.263" stroke="#4A4A4A" stroke-width="1.3" stroke-linecap="round" stroke-linejoin="round"/>
<path d="M321.903 245.145H338.263" stroke="#4A4A4A" stroke-width="1.3" stroke-linecap="round" stroke-linejoin="round"/>
<path d="M321.903 268.141H338.263" stroke="#4A4A4A" stroke-width="1.3" stroke-linecap="round" stroke-linejoin="round"/>
<path d="M321.903 291.137H338.263" stroke="#4A4A4A" stroke-width="1.3" stroke-linecap="round" stroke-linejoin="round"/>
<path d="M321.903 314.135H338.263" stroke="#4A4A4A" stroke-width="1.3" stroke-linecap="round" stroke-linejoin="round"/>
<path d="M321.903 337.131H338.263" stroke="#4A4A4A" stroke-width="1.3" stroke-linecap="round" stroke-linejoin="round"/>
<path d="M705.619 146.166H647.742V383.426H705.619V146.166Z" fill="#BCEBF1"/>
<path d="M699.789 150.691C705.619 147.908 704.732 145.316 703.426 144.025L661.11 103.197L660.393 102.73H610.716C610.45 102.73 608.257 105.788 608.257 105.788L651.225 161.073L699.789 150.691Z" fill="#BCEBF1"/>
<path d="M705.619 146.166H647.742V383.426H705.619V146.166Z" stroke="#4A4A4A" stroke-width="1.3" stroke-linecap="round" stroke-linejoin="round"/>
<path d="M647.742 146.165L608.257 102.779L563.039 146.165V383.425H647.742V146.165Z" fill="#82C5FE"/>
<path d="M647.742 146.165L608.257 102.779L563.039 146.165V383.425H647.742V146.165Z" stroke="#4A4A4A" stroke-width="1.3" stroke-linecap="round" stroke-linejoin="round"/>
<path d="M705.619 146.165L660.627 102.779H608.257" stroke="#4A4A4A" stroke-width="1.3" stroke-linecap="round" stroke-linejoin="round"/>
<path d="M287.353 361.461C280.514 360.306 273.748 358.729 267.091 356.737C258.181 353.887 254.69 352.054 254.327 351.462C253.964 350.871 258.076 345.322 258.076 345.322L255.472 339.239L255.528 328.74L257.665 325.583L255.673 317.6L257.076 315.767C257.076 315.767 256.504 304.302 258.592 298.861C260.681 293.42 269.687 284.005 278.282 280.289C286.878 276.573 309.503 269.657 325.75 267.874C341.997 266.091 362.913 264.941 365.582 264.108C368.25 263.274 395.141 244.594 413.154 237.211C431.167 229.829 462.726 221.822 485.222 220.188C507.718 218.555 561.015 223.221 574.513 223.838C588.01 224.455 618.142 228.662 626.044 229.671C633.946 230.679 631.833 234.953 630.334 236.67C628.834 238.386 627.213 243.277 632.857 247.443C638.502 251.609 652.789 259.725 660.272 264.108C667.754 268.49 669.222 271.798 668.391 274.939C667.561 278.081 666.779 280.147 667.795 282.788C668.811 285.43 667.642 288.696 667.263 291.954C666.884 295.212 666.739 297.628 669.069 300.661C671.399 303.694 671.488 308.118 671.407 312.709C671.326 317.3 670.722 324.849 670.722 324.849C670.722 324.849 672.858 327.966 673.254 328.507C673.507 328.797 673.687 329.148 673.777 329.527C673.867 329.907 673.865 330.304 673.77 330.682C673.568 331.765 671.939 337.906 671.238 339.672C670.536 341.439 667.279 347.896 665.118 349.671C662.957 351.446 658.434 353.462 656.821 354.062C654.89 354.646 652.912 355.048 650.911 355.262C649.879 355.362 589.123 344.222 578.665 346.238C568.207 348.255 498.155 351.062 455.526 350.971C412.896 350.879 339.207 353.595 326.129 356.253C313.05 358.911 290.345 357.303 290.345 357.303L287.353 361.461Z" fill="#5857D2"/>
<path d="M668.359 274.874C669.166 271.758 667.682 268.417 660.24 264.042C652.797 259.668 638.469 251.544 632.825 247.378C627.181 243.212 628.794 238.363 630.269 236.654C631.745 234.946 633.873 230.664 625.98 229.655C618.086 228.647 587.986 224.448 574.448 223.823C560.91 223.198 507.645 218.54 485.157 220.173C462.669 221.806 431.07 229.814 413.089 237.196C395.109 244.578 368.178 263.318 365.517 264.092C362.856 264.867 341.892 266.034 325.645 267.825C309.398 269.617 286.837 276.607 278.25 280.29C269.663 283.973 260.64 293.43 258.56 298.863C256.48 304.295 257.036 315.769 257.036 315.769C257.036 315.769 300.625 293.538 340.328 295.505C391.198 298.004 472.184 303.529 521.498 297.588C570.812 291.647 668.359 274.874 668.359 274.874Z" fill="#5857D2"/>
<path d="M572.465 240.352C570.007 239.146 567.441 238.189 564.805 237.494C562.539 236.902 556.081 235.611 556.081 235.611L549.985 235.153L526.142 234.586L499.292 234.003C499.292 234.003 485.795 233.853 481.134 234.369C476.474 234.886 464.008 236.336 464.008 236.336C464.008 236.336 454.969 237.96 451.994 238.752C449.019 239.544 437.964 242.302 437.964 242.302L428.409 245.009L412.815 250.942L397.971 258.199C397.971 258.199 385.256 266.023 384.78 266.34C384.304 266.657 376.241 272.098 376.241 272.098C376.241 272.098 375.903 272.831 376.386 272.931C376.87 273.031 382.45 274.172 384.32 274.497C386.191 274.822 397.713 276.28 398.955 276.23C400.197 276.18 407.873 276.572 411.316 276.572C414.759 276.572 420.725 276.105 420.725 276.105L435.57 275.097L444.624 274.789L461.557 274.489L480.763 273.839L502.582 272.722L528.465 271.514L555.621 269.998L583.503 267.715C584.741 267.441 585.997 267.265 587.261 267.19C588.454 267.19 588.567 266.357 588.285 266.14C588.003 265.923 582.205 257.141 582.205 257.141L571.626 242.56L572.465 240.352Z" fill="#DEF0FF"/>
<path d="M483.787 234.112C484.754 233.804 484.891 234.054 485.117 233.054C485.343 232.054 486.133 231.187 484.714 230.979C483.295 230.771 478.022 231.404 476.441 231.629C474.861 231.854 470.507 232.579 469.184 232.737C467.862 232.895 462.919 233.745 461.565 234.029C460.21 234.312 456.332 235.037 454.735 235.328C453.139 235.62 450.027 236.328 447.664 236.995C445.302 237.661 441.762 238.661 439.891 239.195C438.021 239.728 435.142 240.936 432.473 241.694C429.804 242.452 426.498 243.502 424.265 244.302C422.031 245.102 418.314 246.51 416.363 247.402C414.412 248.293 409.526 249.835 408.09 250.593C406.655 251.351 402.099 253.626 400.834 254.276C398.617 255.47 396.464 256.786 394.383 258.217C393.456 258.967 389.215 261.55 388.053 262.308C386.892 263.066 382.99 265.641 381.692 266.524C380.394 267.407 375.628 270.382 374.62 271.049C373.612 271.715 373.145 271.882 373.725 272.24C374.089 272.455 374.502 272.564 374.921 272.555C375.34 272.546 375.749 272.42 376.104 272.19C376.822 271.64 380.942 269.049 380.942 269.049L387.392 264.883L394.343 260.175C394.343 260.175 408.373 252.443 411.291 251.401C414.21 250.36 425.45 246.152 425.45 246.152L443.995 240.669C443.995 240.669 456.896 237.22 461.823 236.67C466.749 236.12 477.715 234.662 477.715 234.662L483.787 234.112Z" fill="#B2A8AC"/>
<path d="M604.951 257.758C604.05 256.406 603.072 255.109 602.024 253.875C600.716 252.403 599.286 251.051 597.751 249.834C596.598 249.001 593.461 246.643 592.058 245.834C590.655 245.026 588.615 243.835 587.72 243.335C586.825 242.835 580.109 239.719 577.714 238.469C574.582 236.999 571.348 235.777 568.038 234.811C565.813 234.194 564.063 233.694 562.692 233.453C561.322 233.211 556.161 232.861 554.686 232.678C553.21 232.495 547.114 232.211 545.445 232.028C543.776 231.845 535.229 231.378 533.706 231.378C532.182 231.378 523.522 231.061 522.095 231.061C520.667 231.061 512.306 231.203 510.339 231.203C508.371 231.203 504.444 231.003 502.937 231.061C501.429 231.12 500.889 230.911 500.59 231.895C500.292 232.878 500.59 233.903 501.284 234.028C501.977 234.153 505.541 234.269 505.541 234.269L517.023 234.453L530.601 234.803L543.873 235.011C543.873 235.011 552.904 235.011 555.815 235.569C558.725 236.127 566.966 238.16 570.231 239.177C573.497 240.194 577.803 241.827 578.415 242.152C579.028 242.477 587.382 246.834 588.373 247.609C589.365 248.384 598.049 254.458 599.13 255.308C600.21 256.158 604.032 258.783 604.774 259.524C605.516 260.266 605.999 260.058 605.645 259.341C605.29 258.624 604.951 257.758 604.951 257.758Z" fill="#B2A8AC"/>
<path d="M494.269 273.274L495.583 273.357C495.785 273.255 495.958 273.103 496.088 272.913C496.217 272.724 496.299 272.504 496.325 272.274C496.325 271.632 496.542 269.466 496.542 269.466L499.655 239.945C499.655 239.945 500.614 231.613 500.606 231.613C500.57 231.42 500.47 231.247 500.322 231.123C500.175 231 499.99 230.934 499.8 230.938L490.648 230.979L486.617 231.096C486.617 231.096 485.375 231.054 485.27 231.929C485.165 232.804 475.836 273.407 475.836 273.407C475.836 273.407 475.973 274.048 476.336 274.073C476.699 274.098 494.269 273.274 494.269 273.274Z" fill="#979797"/>
<path d="M602.387 257.683C602.387 257.683 596.09 252.792 593.155 250.776C590.22 248.76 586.382 246.202 584.463 245.21C582.544 244.219 579.004 242.552 577.593 241.969C576.182 241.386 570.618 239.211 570.618 239.211C570.618 239.211 569.247 239.261 569.505 239.603L575.061 247.102L580.665 254.942C580.665 254.942 587.236 264.941 587.76 265.516C588.138 266.05 588.462 266.622 588.728 267.224C588.768 267.224 590.558 266.982 590.711 266.949C594.212 266.313 597.657 265.391 601.016 264.191C604.919 262.608 604.927 262.691 605.411 262.324C605.566 262.215 605.696 262.071 605.792 261.903C605.888 261.736 605.948 261.548 605.966 261.355C605.985 261.161 605.962 260.965 605.899 260.782C605.837 260.598 605.736 260.431 605.604 260.291C604.603 259.332 603.527 258.46 602.387 257.683Z" fill="#626262"/>
<path d="M656.652 264.316C653.061 264.469 649.467 264.118 645.968 263.275C643.452 262.525 641.001 261.9 639.429 260.675C637.857 259.45 633.503 256.909 633.503 256.909L622.392 248.918L613.24 241.919L612.369 241.236L612.78 240.636C612.78 240.636 618.021 238.97 620.747 238.203C623.543 237.375 626.28 236.348 628.939 235.128C629.618 234.816 630.266 234.436 630.874 233.995C631.277 233.712 631.68 233.52 631.624 234.07C631.506 234.812 631.249 235.523 630.866 236.162C630.138 237.009 629.62 238.027 629.358 239.128C629.076 240.628 628.955 241.169 629.269 242.261C629.582 243.35 630.073 244.376 630.721 245.294C632.096 246.821 633.673 248.139 635.405 249.21C636.825 250.043 640.856 252.668 642.122 253.434C643.388 254.201 648.572 257.192 649.693 257.942C650.814 258.692 656.144 261.392 657.668 262.433C659.192 263.475 659.683 264.266 658.998 264.308L656.652 264.316Z" fill="#4A4A4A"/>
<path d="M666.448 284.03C667.416 283.672 667.795 283.589 667.69 282.88C667.457 281.621 667.389 280.334 667.488 279.056C667.657 277.556 668.359 275.231 668.464 274.448C668.601 273.617 668.568 272.766 668.367 271.948C668.297 271.471 668.066 271.035 667.715 270.716C667.364 270.398 666.915 270.217 666.448 270.207C665.529 270.307 656.474 271.607 655.418 271.873C654.556 272.046 653.786 272.541 653.257 273.265C652.563 274.098 645.629 280.581 645.04 281.381C644.452 282.18 643.839 282.647 644.613 283.047C645.387 283.447 647.677 284.847 648.024 284.955C648.522 285.078 649.036 285.123 649.548 285.088C650.354 285.088 661.038 285.138 661.941 285.088C662.597 285.123 663.254 285.026 663.876 284.805C664.722 284.547 666.448 284.03 666.448 284.03Z" fill="#A30000"/>
<path d="M353.39 372.711C356 370.359 358.326 367.69 360.316 364.762C361.929 362.345 363.348 359.012 363.348 358.163C363.348 357.313 362.3 356.613 361.735 356.238L359.897 355.013C359.897 355.013 359.494 354.538 359.187 355.805C358.881 357.071 357.188 362.704 355.212 365.803C353.165 368.889 350.844 371.77 348.278 374.41C346.73 375.885 345.254 376.793 345.053 377.202C344.851 377.61 346.206 377.068 347.375 376.51C348.544 375.952 353.39 372.711 353.39 372.711Z" fill="#4A4A4A"/>
<path d="M672.084 327.007L670.689 324.79C670.689 324.79 668.198 326.407 667.117 327.007C665.104 327.809 663.03 328.439 660.917 328.89C660.111 329.023 658.167 328.757 657.506 328.89C656.845 329.023 647.024 332.356 647.024 332.356L645.154 332.831L644.638 332.998C644.452 333.056 643.944 331.948 643.726 331.415C643.509 330.881 640.832 325.124 639.905 323.591C638.977 322.058 635.292 317.108 633.325 315.492C631.358 313.875 628.076 310.559 625.052 308.826C620.97 306.361 616.607 304.433 612.063 303.085C607.042 301.89 601.891 301.388 596.743 301.594C592.205 302.157 587.746 303.262 583.455 304.885C579.595 306.433 575.955 308.512 572.634 311.067C569.278 313.586 566.312 316.618 563.837 320.058C561.293 323.431 559.128 327.093 557.387 330.973C556.1 333.975 555.1 337.101 554.403 340.305C554.129 341.747 554.089 343.255 554.016 343.863C553.944 344.471 553.847 344.454 552.896 344.363C551.944 344.271 538.842 341.597 538.842 341.597C538.842 341.597 520.2 337.847 519.055 337.697C517.91 337.547 514.596 337.364 513.789 337.405C512.983 337.447 503.307 338.239 503.307 338.239L488.6 339.03L463.234 340.755L423.725 343.255L382.248 346.046L372.572 347.837C373.325 346.837 373.664 345.57 373.516 344.313C373.073 341.253 372.432 338.227 371.597 335.256C370.879 333.114 369.283 329.423 368.508 327.59C367.734 325.757 364.364 321.049 363.211 319.258C362.058 317.466 357.728 313.425 355.817 311.692C351.856 308.437 347.42 305.853 342.674 304.035C340.505 303.268 336.764 302.202 335.934 301.919C333.467 301.436 330.968 301.157 328.459 301.085C326.011 300.943 323.557 300.979 321.114 301.194C319.646 301.477 315.09 302.327 314.171 302.585C313.252 302.843 308.204 304.252 306.721 305.268C305.237 306.285 300.94 308.393 299.827 309.176C298.714 309.959 294.304 313.267 292.868 314.958C291.433 316.65 288.684 320.041 287.498 321.624C285.934 323.827 284.53 326.147 283.298 328.565C282.661 329.948 280.242 335.997 279.806 337.73C279.371 339.463 279 342.53 278.685 344.796C278.398 346.361 278.271 347.953 278.307 349.545C278.379 350.42 278.218 350.504 276.75 349.995C275.283 349.487 274.122 349.162 273.211 348.912C272.299 348.662 272.243 349.062 271.171 348.187C270.098 347.312 266.438 344.379 266.018 344.138C265.599 343.896 262.358 343.605 260.374 343.055C258.391 342.505 257.762 342.013 257.342 342.055C256.923 342.096 256.625 342.163 257.076 342.888C257.587 343.536 257.872 344.343 257.883 345.179C257.897 345.441 257.856 345.703 257.765 345.947C257.673 346.191 257.532 346.412 257.35 346.596C256.377 347.909 255.508 349.303 254.754 350.762C254.464 351.595 254.117 351.745 254.569 352.028C255.02 352.312 259.157 354.136 260.374 354.595C261.592 355.053 267.631 357.094 268.905 357.486C270.179 357.878 279.967 360.186 281.717 360.594C283.467 361.002 287.434 361.535 287.668 362.002C287.902 362.469 288.232 363.244 288.974 363.219C289.716 363.194 299.077 359.927 299.077 359.927C299.077 359.927 355.882 352.003 357.067 351.778C358.252 351.554 364.404 354.17 364.727 354.911C365.049 355.653 366.493 360.619 366.493 360.619C366.493 360.619 366.92 362.11 367.428 362.285C367.936 362.46 375.048 362.127 375.048 362.127L412.872 362.319L452.752 362.127H547.388L561.37 363.26L563.636 362.427L628.995 353.403C628.995 353.403 637.276 355.636 637.865 355.686C638.453 355.736 642.211 356.519 644.468 356.011C646.726 355.503 653.757 355.178 657.53 353.72C661.304 352.262 666.142 348.521 667.206 347.129C668.271 345.738 670.375 341.397 671.552 338.589C672.426 336.368 673.083 334.062 673.512 331.706C673.665 330.915 674.108 329.648 673.512 328.798C672.915 327.948 672.084 327.007 672.084 327.007Z" fill="#D6D5D5"/>
<path d="M565.595 361.595C565.2 362.67 565.095 362.47 565.426 363.261C565.756 364.053 567.724 366.278 568.401 367.361C569.078 368.444 574.005 373.418 576.295 375.151C578.897 377.175 581.697 378.912 584.648 380.334C587.7 381.604 590.969 382.225 594.259 382.159C594.759 382.042 584.446 374.893 581.608 372.777C578.77 370.66 577.391 367.078 574.045 362.253C570.699 357.429 566.506 355.804 566.175 356.996C565.884 358.514 565.69 360.05 565.595 361.595Z" fill="#4A4A4A"/>
<path d="M361.534 356.103C362.34 356.62 362.751 357.47 364.049 357.12C365.348 356.77 366.468 356.678 366.468 355.72C366.468 354.762 367.105 346.313 367.065 345.046C366.664 341.667 366.012 338.324 365.114 335.048C364.396 332.94 361.969 326.599 360.002 324.041C357.431 320.725 354.599 317.634 351.536 314.8C349.613 313.168 347.526 311.754 345.311 310.584C343.924 309.851 340.36 308.268 339.667 308.01C338.973 307.751 330.273 305.51 328.378 305.352C325.346 305.372 322.32 305.651 319.331 306.185C317.402 306.503 315.499 306.974 313.639 307.593C311.995 308.158 310.381 308.809 308.801 309.543C307.753 310.068 300.544 314.642 298.835 316.308C297.366 317.713 295.97 319.195 294.65 320.749C293.917 321.683 290.764 326.457 289.506 328.773C288.601 330.463 287.866 332.244 287.313 334.089C286.966 335.189 285.926 340.239 285.329 343.096C284.733 345.954 285.249 351.845 285.531 353.728C285.887 356.248 286.451 358.732 287.216 361.152C287.893 362.819 287.91 363.427 288.764 363.219C289.619 363.01 293.32 361.752 293.32 361.752L295.739 360.769C296.055 355.681 296.778 350.628 297.9 345.663C299.762 337.331 296.803 332.148 305.487 325.549C314.171 318.95 324.839 313.534 332.184 317.217C339.53 320.899 347.609 324.982 351.31 332.815C355.011 340.647 355.777 351.254 356.559 354.02C357.341 356.786 357.236 353.345 357.849 353.828C358.462 354.312 361.534 356.103 361.534 356.103Z" fill="#4A4A4A"/>
<path d="M633.994 354.095C634.11 354.53 634.332 354.926 634.639 355.245C635.107 355.695 637.599 357.211 637.599 357.211L640.324 356.62L640.888 356.078C640.888 356.078 641.695 348.171 641.695 348.029C641.695 347.888 640.969 340.697 640.477 338.672C639.525 334.968 638.22 331.371 636.583 327.932C634.419 323.995 631.738 320.386 628.616 317.209C625.835 314.501 617.957 308.926 613.837 307.96C609.716 306.993 604.911 305.535 602.355 305.535C599.799 305.535 595.84 306.16 594.404 306.118C592.969 306.077 587.438 307.785 586.261 308.268C585.084 308.751 581.753 310.268 580.512 311.009C579.27 311.751 576.569 313.584 575.948 314.067C575.327 314.551 571.489 317.525 570.256 319.383C569.063 321.051 567.771 322.64 566.385 324.141C565.724 324.908 562.878 330.973 562.418 332.223C561.959 333.473 560.757 337.722 560.225 339.889C559.693 342.055 559.104 347.588 559.467 350.229C559.83 352.87 560.273 357.103 561.08 359.395C561.886 361.686 562.338 362.727 562.321 362.827C562.305 362.927 562.684 363.127 563.047 363.027L568.554 361.553C568.753 361.32 568.875 361.028 568.901 360.719C568.909 360.328 633.994 354.095 633.994 354.095Z" fill="#4A4A4A"/>
<path d="M600.541 382.942C619.204 382.942 634.333 367.308 634.333 348.022C634.333 328.736 619.204 313.102 600.541 313.102C581.877 313.102 566.748 328.736 566.748 348.022C566.748 367.308 581.877 382.942 600.541 382.942Z" fill="#4A4A4A"/>
<path d="M600.54 374.902C614.906 374.902 626.552 362.868 626.552 348.022C626.552 333.177 614.906 321.143 600.54 321.143C586.175 321.143 574.529 333.177 574.529 348.022C574.529 362.868 586.175 374.902 600.54 374.902Z" fill="#C0C0C0"/>
<path d="M600.54 358.338C606.053 358.338 610.522 353.719 610.522 348.022C610.522 342.325 606.053 337.707 600.54 337.707C595.027 337.707 590.558 342.325 590.558 348.022C590.558 353.719 595.027 358.338 600.54 358.338Z" fill="#674F58"/>
<path d="M600.54 358.338C606.053 358.338 610.522 353.719 610.522 348.022C610.522 342.325 606.053 337.707 600.54 337.707C595.027 337.707 590.558 342.325 590.558 348.022C590.558 353.719 595.027 358.338 600.54 358.338Z" stroke="#4A4A4A" stroke-width="1.3" stroke-linecap="round" stroke-linejoin="round"/>
<path d="M600.541 350.347C601.783 350.347 602.79 349.306 602.79 348.022C602.79 346.738 601.783 345.697 600.541 345.697C599.298 345.697 598.291 346.738 598.291 348.022C598.291 349.306 599.298 350.347 600.541 350.347Z" fill="#654C55"/>
<path d="M600.541 350.347C601.783 350.347 602.79 349.306 602.79 348.022C602.79 346.738 601.783 345.697 600.541 345.697C599.298 345.697 598.291 346.738 598.291 348.022C598.291 349.306 599.298 350.347 600.541 350.347Z" stroke="#4A4A4A" stroke-width="1.3" stroke-linecap="round" stroke-linejoin="round"/>
<path d="M591.631 373.11L599.242 354.296C599.349 354.032 599.529 353.807 599.759 353.649C599.99 353.491 600.26 353.406 600.537 353.406C600.813 353.406 601.084 353.491 601.314 353.649C601.544 353.807 601.724 354.032 601.831 354.296L609.45 373.11C609.45 373.11 604.161 375.168 600.581 374.91C598.335 374.754 596.105 374.408 593.913 373.877C593.121 373.734 592.353 373.476 591.631 373.11Z" fill="#8D7E83"/>
<path d="M591.631 373.11L599.242 354.296C599.349 354.032 599.529 353.807 599.759 353.649C599.99 353.491 600.26 353.406 600.537 353.406C600.813 353.406 601.084 353.491 601.314 353.649C601.544 353.807 601.724 354.032 601.831 354.296L609.45 373.11" stroke="#4A4A4A" stroke-width="1.3" stroke-linecap="round" stroke-linejoin="round"/>
<path d="M617.102 368.535L605.145 352.321C604.977 352.093 604.878 351.819 604.86 351.533C604.843 351.248 604.908 350.963 605.046 350.715C605.185 350.468 605.392 350.268 605.64 350.141C605.889 350.015 606.168 349.967 606.443 350.004L626.012 352.596C626.012 352.596 625.101 358.353 623.069 361.47C621.812 363.399 620.407 365.222 618.868 366.919C618.355 367.54 617.761 368.085 617.102 368.535Z" fill="#8D7E83"/>
<path d="M617.102 368.535L605.145 352.321C604.977 352.093 604.878 351.819 604.86 351.533C604.843 351.248 604.908 350.963 605.046 350.715C605.185 350.468 605.392 350.268 605.64 350.141C605.889 350.015 606.168 349.967 606.443 350.004L626.012 352.596" stroke="#4A4A4A" stroke-width="1.3" stroke-linecap="round" stroke-linejoin="round"/>
<path d="M626.012 343.456L606.418 346.047C606.144 346.084 605.864 346.037 605.616 345.91C605.367 345.783 605.161 345.584 605.022 345.336C604.883 345.088 604.818 344.804 604.836 344.518C604.853 344.232 604.952 343.958 605.12 343.731L617.078 327.508C617.078 327.508 621.448 331.216 623.044 334.582C624.034 336.672 624.861 338.839 625.52 341.064C625.789 341.834 625.954 342.639 626.012 343.456Z" fill="#8D7E83"/>
<path d="M626.012 343.456L606.418 346.047C606.144 346.084 605.864 346.037 605.616 345.91C605.367 345.783 605.161 345.584 605.022 345.336C604.883 345.088 604.818 344.804 604.836 344.518C604.853 344.232 604.952 343.958 605.12 343.731L617.078 327.508" stroke="#4A4A4A" stroke-width="1.3" stroke-linecap="round" stroke-linejoin="round"/>
<path d="M609.45 322.941L601.831 341.755C601.724 342.019 601.544 342.244 601.314 342.403C601.084 342.561 600.813 342.645 600.537 342.645C600.26 342.645 599.99 342.561 599.759 342.403C599.529 342.244 599.349 342.019 599.242 341.755L591.631 322.941C591.631 322.941 596.92 320.883 600.541 321.142C602.787 321.298 605.017 321.643 607.209 322.175C607.987 322.322 608.741 322.58 609.45 322.941Z" fill="#8D7E83"/>
<path d="M609.45 322.941L601.831 341.756C601.724 342.019 601.544 342.244 601.314 342.403C601.084 342.561 600.813 342.645 600.537 342.645C600.26 342.645 599.99 342.561 599.759 342.403C599.529 342.244 599.349 342.019 599.242 341.756L591.631 322.941" stroke="#4A4A4A" stroke-width="1.3" stroke-linecap="round" stroke-linejoin="round"/>
<path d="M583.979 327.508L595.937 343.731C596.105 343.958 596.204 344.232 596.221 344.518C596.238 344.804 596.174 345.088 596.035 345.336C595.896 345.584 595.689 345.783 595.441 345.91C595.192 346.037 594.913 346.084 594.639 346.047L575.069 343.456C575.069 343.456 575.98 337.698 578.012 334.582C579.271 332.638 580.681 330.805 582.229 329.099C582.74 328.49 583.329 327.954 583.979 327.508Z" fill="#8D7E83"/>
<path d="M583.979 327.508L595.937 343.731C596.105 343.958 596.204 344.232 596.221 344.518C596.238 344.804 596.174 345.088 596.035 345.336C595.896 345.584 595.689 345.783 595.441 345.91C595.192 346.037 594.913 346.084 594.639 346.047L575.069 343.456" stroke="#4A4A4A" stroke-width="1.3" stroke-linecap="round" stroke-linejoin="round"/>
<path d="M575.069 352.596L594.639 350.004C594.913 349.967 595.192 350.015 595.441 350.141C595.689 350.268 595.896 350.468 596.035 350.715C596.174 350.963 596.238 351.248 596.221 351.533C596.204 351.819 596.105 352.093 595.937 352.321L583.979 368.535C583.979 368.535 579.609 364.836 578.012 361.47C577.023 359.38 576.195 357.212 575.537 354.987C575.276 354.216 575.119 353.411 575.069 352.596Z" fill="#8D7E83"/>
<path d="M575.069 352.596L594.639 350.004C594.913 349.967 595.192 350.015 595.441 350.141C595.689 350.268 595.896 350.468 596.035 350.715C596.174 350.963 596.238 351.248 596.221 351.533C596.204 351.819 596.105 352.093 595.937 352.321L583.979 368.535" stroke="#4A4A4A" stroke-width="1.3" stroke-linecap="round" stroke-linejoin="round"/>
<path d="M600.54 374.902C614.906 374.902 626.552 362.868 626.552 348.022C626.552 333.177 614.906 321.143 600.54 321.143C586.175 321.143 574.529 333.177 574.529 348.022C574.529 362.868 586.175 374.902 600.54 374.902Z" stroke="#4A4A4A" stroke-width="1.3" stroke-linecap="round" stroke-linejoin="round"/>
<path d="M600.541 382.942C619.204 382.942 634.333 367.308 634.333 348.022C634.333 328.736 619.204 313.102 600.541 313.102C581.877 313.102 566.748 328.736 566.748 348.022C566.748 367.308 581.877 382.942 600.541 382.942Z" stroke="#4A4A4A" stroke-width="1.3" stroke-linecap="round" stroke-linejoin="round"/>
<path d="M326.097 382.942C344.76 382.942 359.889 367.308 359.889 348.022C359.889 328.736 344.76 313.102 326.097 313.102C307.434 313.102 292.304 328.736 292.304 348.022C292.304 367.308 307.434 382.942 326.097 382.942Z" fill="#4A4A4A"/>
<path d="M326.097 374.902C340.462 374.902 352.108 362.868 352.108 348.022C352.108 333.177 340.462 321.143 326.097 321.143C311.731 321.143 300.085 333.177 300.085 348.022C300.085 362.868 311.731 374.902 326.097 374.902Z" fill="#C0C0C0"/>
<path d="M326.096 358.338C331.609 358.338 336.079 353.719 336.079 348.022C336.079 342.325 331.609 337.707 326.096 337.707C320.583 337.707 316.114 342.325 316.114 348.022C316.114 353.719 320.583 358.338 326.096 358.338Z" fill="#674F58"/>
<path d="M326.096 358.338C331.609 358.338 336.079 353.719 336.079 348.022C336.079 342.325 331.609 337.707 326.096 337.707C320.583 337.707 316.114 342.325 316.114 348.022C316.114 353.719 320.583 358.338 326.096 358.338Z" stroke="#4A4A4A" stroke-width="1.3" stroke-linecap="round" stroke-linejoin="round"/>
<path d="M326.097 350.347C327.339 350.347 328.346 349.306 328.346 348.022C328.346 346.738 327.339 345.697 326.097 345.697C324.854 345.697 323.847 346.738 323.847 348.022C323.847 349.306 324.854 350.347 326.097 350.347Z" fill="#654C55"/>
<path d="M326.097 350.347C327.339 350.347 328.346 349.306 328.346 348.022C328.346 346.738 327.339 345.697 326.097 345.697C324.854 345.697 323.847 346.738 323.847 348.022C323.847 349.306 324.854 350.347 326.097 350.347Z" stroke="#4A4A4A" stroke-width="1.3" stroke-linecap="round" stroke-linejoin="round"/>
<path d="M317.187 373.11L324.807 354.296C324.913 354.032 325.093 353.807 325.324 353.649C325.554 353.491 325.824 353.406 326.101 353.406C326.377 353.406 326.648 353.491 326.878 353.649C327.108 353.807 327.288 354.032 327.395 354.296L335.006 373.11C335.006 373.11 329.725 375.168 326.097 374.91C323.851 374.754 321.62 374.408 319.429 373.877C318.651 373.728 317.897 373.47 317.187 373.11Z" fill="#8D7E83"/>
<path d="M317.187 373.11L324.807 354.296C324.913 354.032 325.093 353.807 325.324 353.649C325.554 353.491 325.824 353.406 326.101 353.406C326.377 353.406 326.648 353.491 326.878 353.649C327.108 353.807 327.288 354.032 327.395 354.296L335.006 373.11" stroke="#4A4A4A" stroke-width="1.3" stroke-linecap="round" stroke-linejoin="round"/>
<path d="M342.666 368.536L330.709 352.322C330.541 352.094 330.443 351.821 330.425 351.537C330.408 351.252 330.472 350.968 330.609 350.721C330.747 350.473 330.952 350.274 331.2 350.146C331.447 350.019 331.725 349.97 331.999 350.005L351.576 352.597C351.576 352.597 350.657 358.354 348.625 361.47C347.37 363.399 345.968 365.222 344.432 366.92C343.917 367.539 343.323 368.083 342.666 368.536Z" fill="#8D7E83"/>
<path d="M342.666 368.536L330.709 352.322C330.541 352.094 330.443 351.821 330.425 351.537C330.408 351.252 330.472 350.968 330.609 350.721C330.747 350.473 330.952 350.274 331.2 350.146C331.447 350.019 331.725 349.97 331.999 350.005L351.576 352.597" stroke="#4A4A4A" stroke-width="1.3" stroke-linecap="round" stroke-linejoin="round"/>
<path d="M351.576 343.456L331.999 346.047C331.725 346.082 331.447 346.033 331.2 345.906C330.952 345.779 330.747 345.579 330.609 345.331C330.472 345.084 330.408 344.8 330.425 344.516C330.443 344.231 330.541 343.958 330.709 343.731L342.666 327.508C342.666 327.508 347.036 331.216 348.625 334.582C349.618 336.67 350.446 338.838 351.1 341.064C351.361 341.836 351.521 342.64 351.576 343.456Z" fill="#8D7E83"/>
<path d="M351.576 343.456L331.999 346.047C331.725 346.082 331.447 346.033 331.2 345.906C330.952 345.779 330.747 345.579 330.609 345.331C330.472 345.084 330.408 344.8 330.425 344.516C330.443 344.231 330.541 343.958 330.709 343.731L342.666 327.508" stroke="#4A4A4A" stroke-width="1.3" stroke-linecap="round" stroke-linejoin="round"/>
<path d="M335.006 322.941L327.435 341.755C327.328 342.019 327.148 342.244 326.918 342.403C326.688 342.561 326.417 342.645 326.141 342.645C325.864 342.645 325.594 342.561 325.364 342.403C325.133 342.244 324.954 342.019 324.847 341.755L317.227 322.941C317.227 322.941 322.516 320.883 326.096 321.142C328.343 321.296 330.573 321.642 332.765 322.175C333.543 322.322 334.297 322.58 335.006 322.941Z" fill="#8D7E83"/>
<path d="M335.006 322.941L327.435 341.756C327.328 342.019 327.148 342.244 326.918 342.403C326.688 342.561 326.417 342.645 326.141 342.645C325.864 342.645 325.594 342.561 325.364 342.403C325.133 342.244 324.954 342.019 324.847 341.756L317.227 322.941" stroke="#4A4A4A" stroke-width="1.3" stroke-linecap="round" stroke-linejoin="round"/>
<path d="M309.535 327.508L321.492 343.731C321.659 343.958 321.758 344.231 321.776 344.516C321.793 344.8 321.729 345.084 321.592 345.331C321.454 345.579 321.249 345.779 321.001 345.906C320.754 346.033 320.476 346.082 320.202 346.047L300.625 343.456C300.625 343.456 301.544 337.698 303.568 334.582C304.825 332.652 306.23 330.83 307.769 329.133C308.283 328.51 308.877 327.963 309.535 327.508Z" fill="#8D7E83"/>
<path d="M309.535 327.508L321.492 343.731C321.659 343.958 321.758 344.231 321.776 344.516C321.793 344.8 321.729 345.084 321.592 345.331C321.454 345.579 321.249 345.779 321.001 345.906C320.754 346.033 320.476 346.082 320.202 346.047L300.625 343.456" stroke="#4A4A4A" stroke-width="1.3" stroke-linecap="round" stroke-linejoin="round"/>
<path d="M300.625 352.597L320.178 350.005C320.452 349.97 320.73 350.019 320.977 350.146C321.224 350.274 321.43 350.473 321.567 350.721C321.705 350.968 321.769 351.252 321.752 351.537C321.734 351.821 321.635 352.094 321.468 352.322L309.535 368.536C309.535 368.536 305.165 364.837 303.568 361.47C302.576 359.383 301.751 357.215 301.101 354.988C300.84 354.216 300.68 353.412 300.625 352.597Z" fill="#8D7E83"/>
<path d="M300.625 352.597L320.178 350.005C320.452 349.97 320.73 350.019 320.977 350.146C321.224 350.274 321.43 350.473 321.567 350.721C321.705 350.968 321.769 351.252 321.752 351.537C321.734 351.821 321.635 352.094 321.468 352.322L309.535 368.536" stroke="#4A4A4A" stroke-width="1.3" stroke-linecap="round" stroke-linejoin="round"/>
<path d="M326.097 374.902C340.462 374.902 352.108 362.868 352.108 348.022C352.108 333.177 340.462 321.143 326.097 321.143C311.731 321.143 300.085 333.177 300.085 348.022C300.085 362.868 311.731 374.902 326.097 374.902Z" stroke="#4A4A4A" stroke-width="1.3" stroke-linecap="round" stroke-linejoin="round"/>
<path d="M326.097 382.942C344.76 382.942 359.889 367.308 359.889 348.022C359.889 328.736 344.76 313.102 326.097 313.102C307.434 313.102 292.304 328.736 292.304 348.022C292.304 367.308 307.434 382.942 326.097 382.942Z" stroke="#4A4A4A" stroke-width="1.3" stroke-linecap="round" stroke-linejoin="round"/>
<path d="M633.728 354.63L637.759 357.304L640.872 356.471L641.525 348.022C641.525 336.783 637.204 326.004 629.513 318.057C621.823 310.109 611.392 305.645 600.516 305.645C589.64 305.645 579.209 310.109 571.518 318.057C563.827 326.004 559.507 336.783 559.507 348.022C559.507 348.022 559.676 357.613 562.547 363.253L569.263 361.237" stroke="#4A4A4A" stroke-width="1.3" stroke-linecap="round" stroke-linejoin="round"/>
<path d="M359.317 354.63L363.348 357.304L366.452 356.471L367.106 348.022C367.106 336.783 362.785 326.004 355.094 318.057C347.404 310.109 336.973 305.645 326.097 305.645C315.22 305.645 304.79 310.109 297.099 318.057C289.408 326.004 285.088 336.783 285.088 348.022C285.088 348.022 285.257 357.613 288.135 363.253L294.844 361.237" stroke="#4A4A4A" stroke-width="1.3" stroke-linecap="round" stroke-linejoin="round"/>
<path d="M373.685 346.155C372.649 333.477 366.915 321.703 357.679 313.291C348.444 304.878 336.42 300.477 324.119 301.006C311.818 301.535 300.191 306.953 291.663 316.13C283.136 325.306 278.368 337.532 278.355 350.254L271.727 348.504L266.26 344.03L257.036 341.822" stroke="#4A4A4A" stroke-width="1.3" stroke-linecap="round" stroke-linejoin="round"/>
<path d="M673.923 329.357C673.923 329.357 657.265 335.448 654.015 339.673L666.11 340.173L672.375 336.148" fill="#A39497"/>
<path d="M564.748 362.594C564.748 362.594 578.109 382.941 594.533 382.391" stroke="#4A4A4A" stroke-width="1.3" stroke-linecap="round" stroke-linejoin="round"/>
<path d="M640.864 356.47L654.66 354.737C654.66 354.737 665.707 351.812 669.504 343.638C673.302 335.465 673.923 329.357 673.923 329.357L670.698 324.791C670.698 324.791 663.917 329.832 658.466 328.666L644.372 333.065" stroke="#4A4A4A" stroke-width="1.3" stroke-linecap="round" stroke-linejoin="round"/>
<path d="M543.107 345.697L516.168 340.09L385.006 348.505L381.934 350.888L543.107 345.697Z" fill="#98878B"/>
<path d="M644.363 333.065C640.71 322.85 633.825 314.21 624.825 308.545C615.825 302.881 605.237 300.523 594.778 301.855C584.319 303.187 574.602 308.13 567.202 315.884C559.802 323.637 555.153 333.746 554.008 344.572L520.49 337.906C517.985 337.414 515.43 337.254 512.887 337.431L373.669 346.18" stroke="#4A4A4A" stroke-width="1.3" stroke-linecap="round" stroke-linejoin="round"/>
<path d="M543.107 345.697L516.168 340.09L385.006 348.505L381.934 350.888L543.107 345.697Z" stroke="#4A4A4A" stroke-width="1.3" stroke-linecap="round" stroke-linejoin="round"/>
<path d="M554.226 354.096C554.226 354.096 542.535 359.303 533.262 359.303H385.869C381.031 359.303 371.774 356.379 371.774 356.379L554.226 354.096Z" fill="#6B545D"/>
<path d="M554.226 354.096C554.226 354.096 542.535 359.303 533.262 359.303H385.869C381.031 359.303 371.774 356.379 371.774 356.379L554.226 354.096Z" stroke="#4A4A4A" stroke-width="1.3" stroke-linecap="round" stroke-linejoin="round"/>
<path d="M562.539 363.254L547.743 362.12H366.96L365.396 357.121" stroke="#4A4A4A" stroke-width="1.3" stroke-linecap="round" stroke-linejoin="round"/>
<path d="M673.923 329.357C673.923 329.357 657.265 335.448 654.015 339.673L666.11 340.173L672.375 336.148" stroke="#4A4A4A" stroke-width="1.3" stroke-linecap="round" stroke-linejoin="round"/>
<path d="M363.348 357.305C363.348 357.305 361.3 374.344 334.2 381.935" stroke="#4A4A4A" stroke-width="1.3" stroke-linecap="round" stroke-linejoin="round"/>
<path d="M287.353 361.461C280.514 360.306 273.748 358.729 267.091 356.737C258.181 353.887 254.69 352.054 254.327 351.462C253.964 350.871 258.076 345.322 258.076 345.322L255.472 339.239L255.528 328.74L257.665 325.583L255.673 317.6L257.076 315.767C257.076 315.767 256.504 304.302 258.592 298.861C260.681 293.42 269.687 284.005 278.282 280.289C286.878 276.573 309.503 269.657 325.75 267.874C341.997 266.091 362.913 264.941 365.582 264.108C368.25 263.274 395.141 244.594 413.154 237.211C431.167 229.829 462.726 221.822 485.222 220.188C507.718 218.555 561.015 223.221 574.513 223.838C588.01 224.455 618.142 228.662 626.044 229.671C633.946 230.679 631.833 234.953 630.334 236.67C628.834 238.386 627.213 243.277 632.857 247.443C638.502 251.609 652.789 259.725 660.272 264.108C667.754 268.49 669.222 271.798 668.391 274.939C667.561 278.081 666.779 280.147 667.795 282.788C668.811 285.43 667.642 288.696 667.263 291.954C666.884 295.212 666.739 297.628 669.069 300.661C671.399 303.694 671.488 308.118 671.407 312.709C671.326 317.3 670.722 324.849 670.722 324.849" stroke="#4A4A4A" stroke-width="1.3" stroke-linecap="round" stroke-linejoin="round"/>
<path d="M620.98 306.461L654.015 272.332L667.577 270.199" stroke="#4A4A4A" stroke-width="1.3" stroke-linecap="round" stroke-linejoin="round"/>
<path d="M667.577 283.522L663.078 285.13H648.419L643.944 282.73" stroke="#4A4A4A" stroke-width="1.3" stroke-linecap="round" stroke-linejoin="round"/>
<path d="M660.24 264.107C660.24 264.107 648.701 265.691 640.211 261.124C631.72 256.558 611.901 240.886 611.901 240.886C611.901 240.886 628.471 236.719 631.704 233.17" stroke="#4A4A4A" stroke-width="1.3" stroke-linecap="round" stroke-linejoin="round"/>
<path d="M611.901 240.845C610.861 237.692 609.115 234.837 606.805 232.513C602.951 228.655 588.26 225.014 588.26 225.014" stroke="#4A4A4A" stroke-width="1.3" stroke-linecap="round" stroke-linejoin="round"/>
<path d="M577.706 223.754C577.706 223.754 587.615 220.596 591.856 220.246C591.856 220.246 590.881 224.629 592.759 225.512" stroke="#4A4A4A" stroke-width="1.3" stroke-linecap="round" stroke-linejoin="round"/>
<path d="M493.14 231.045L486.593 272.848C486.593 272.848 483.754 282.205 481.368 300.902C478.981 319.6 479.957 339.53 479.957 339.53" stroke="#4A4A4A" stroke-width="1.3" stroke-linecap="round" stroke-linejoin="round"/>
<path d="M280.153 291.057L264.981 290.912C264.468 290.961 263.99 291.217 263.644 291.629C263.138 292.303 260.607 294.828 260.053 296.322C259.499 297.815 259.088 298.096 259.262 299.368C259.436 300.639 260.575 307.9 261.239 309.325C261.904 310.75 262.03 311.569 263.32 311.671C264.609 311.774 266.262 310.647 267.528 309.7C268.794 308.753 271.483 304.496 272.1 303.455C272.717 302.414 274.821 298.591 274.821 298.591L277.819 298.736C278.391 298.263 278.94 297.759 279.465 297.226C279.924 296.706 284.037 292.96 284.44 292.107C284.844 291.253 284.646 290.946 283.76 291.049C282.874 291.151 280.153 291.057 280.153 291.057Z" fill="#D6D5D5"/>
<path d="M381.707 273.873C381.707 273.873 378.127 283.922 378.385 303.802C378.643 323.683 378.385 345.863 378.385 345.863" stroke="#4A4A4A" stroke-width="1.3" stroke-linecap="round" stroke-linejoin="round"/>
<path d="M363.195 272.207C363.195 272.207 354.849 281.081 344.222 281.464C333.595 281.847 314.058 283.489 302.923 285.73C291.788 287.972 285.644 289.68 281.725 294.896L297.158 311.027" stroke="#4A4A4A" stroke-width="1.3" stroke-linecap="round" stroke-linejoin="round"/>
<path d="M264.035 290.904L285.91 291.045" stroke="#4A4A4A" stroke-width="1.3" stroke-linecap="round" stroke-linejoin="round"/>
<path d="M281.725 294.879L278.5 298.403H274.993C274.993 298.403 270.034 307.652 267.067 309.627C264.1 311.602 262.068 312.127 261.084 308.669C260.063 305.134 259.366 301.507 259.004 297.837" stroke="#4A4A4A" stroke-width="1.3" stroke-linecap="round" stroke-linejoin="round"/>
<path d="M355.237 265.265C355.237 265.265 352.181 266.848 351.6 269.648C351.02 272.447 363.695 274.305 372.048 269.098C380.402 263.89 401.205 250.125 415.105 244.318C429.006 238.51 436.714 235.986 436.714 235.986L428.651 231.77" stroke="#4A4A4A" stroke-width="1.3" stroke-linecap="round" stroke-linejoin="round"/>
<path d="M595.178 301.903C595.178 301.903 598.573 290.404 595.178 279.481C591.784 268.557 568.812 238.703 568.812 238.703" stroke="#4A4A4A" stroke-width="1.3" stroke-linecap="round" stroke-linejoin="round"/>
<path d="M477.433 292.002L455.985 292.461L454.784 290.669L456.525 288.245L476.481 287.203L479.013 289.419L477.433 292.002Z" stroke="#4A4A4A" stroke-width="1.3" stroke-linecap="round" stroke-linejoin="round"/>
<path d="M470.821 292.145L468.95 294.927H462.186L460.347 292.37" stroke="#4A4A4A" stroke-width="1.3" stroke-linecap="round" stroke-linejoin="round"/>
<path d="M471.394 287.472L469.902 285.289H463.581L460.92 288.014" stroke="#4A4A4A" stroke-width="1.3" stroke-linecap="round" stroke-linejoin="round"/>
<path d="M586.059 287.747L564.619 288.205L563.418 286.405L565.16 283.989L585.116 282.947L587.64 285.164L586.059 287.747Z" stroke="#4A4A4A" stroke-width="1.3" stroke-linecap="round" stroke-linejoin="round"/>
<path d="M579.455 287.889L577.577 290.672H570.82L568.981 288.114" stroke="#4A4A4A" stroke-width="1.3" stroke-linecap="round" stroke-linejoin="round"/>
<path d="M580.028 283.214L578.528 281.031H572.215L569.546 283.756" stroke="#4A4A4A" stroke-width="1.3" stroke-linecap="round" stroke-linejoin="round"/>
<path d="M590.107 267.042C594.711 266.083 603.121 263.934 605.685 262.101C608.249 260.268 599.799 250.302 591.873 245.728C583.947 241.153 572.352 235.254 563.281 233.605C554.21 231.955 524.231 231.221 515.87 231.047C507.509 230.872 487.496 231.047 482.223 231.047C476.949 231.047 455.751 234.704 444.423 237.954C433.094 241.203 413.968 247.511 403.648 253.044C393.327 258.576 372.661 272.208 372.661 272.208C372.661 272.208 395.375 276.882 408.074 276.649C420.774 276.415 438.577 274.549 456.453 274.549C474.329 274.549 534.157 271.216 552.259 270.2C570.36 269.183 590.107 267.042 590.107 267.042Z" stroke="#4A4A4A" stroke-width="1.3" stroke-linecap="round" stroke-linejoin="round"/>
<path d="M606.12 260.692C606.12 260.692 591.84 248.869 583.059 244.477C574.279 240.086 560.233 235.154 550.331 235.154C540.43 235.154 500.606 234.004 500.606 234.004" stroke="#4A4A4A" stroke-width="1.3" stroke-linecap="round" stroke-linejoin="round"/>
<path d="M500.606 230.963L496.155 273.149" stroke="#4A4A4A" stroke-width="1.3" stroke-linecap="round" stroke-linejoin="round"/>
<path d="M485.577 231.045L475.74 274.031" stroke="#4A4A4A" stroke-width="1.3" stroke-linecap="round" stroke-linejoin="round"/>
<path d="M484.899 234.004C484.899 234.004 463.766 235.62 452.099 238.603C440.431 241.586 420.798 246.219 401.68 256.168C391.343 261.542 375.273 272.715 375.273 272.715" stroke="#4A4A4A" stroke-width="1.3" stroke-linecap="round" stroke-linejoin="round"/>
<path d="M402.422 276.497L404.035 273.164H410.001L411.291 270.231V265.648C411.291 262.007 407.308 259.574 403.849 259.499C400.39 259.424 398.14 260.716 396.778 265.207C395.415 269.698 396.367 275.939 396.367 275.939" fill="#4A4A4A"/>
<path d="M402.422 276.497L404.035 273.164H410.001L411.291 270.231V265.648C411.291 262.007 407.308 259.574 403.849 259.499C400.39 259.424 398.14 260.716 396.778 265.207C395.415 269.698 396.367 275.939 396.367 275.939" stroke="#4A4A4A" stroke-width="1.3" stroke-linecap="round" stroke-linejoin="round"/>
<path d="M411.291 270.258H401.769C399.858 270.258 397.036 271.741 396.125 273.191H404.034" fill="#4A4A4A"/>
<path d="M411.291 270.258H401.769C399.858 270.258 397.036 271.741 396.125 273.191H404.034" stroke="#4A4A4A" stroke-width="1.3" stroke-linecap="round" stroke-linejoin="round"/>
<path d="M831 383.426H2" stroke="#4A4A4A" stroke-width="1.3" stroke-linecap="round" stroke-linejoin="round"/>
<path d="M226.646 319.042C228.711 316.42 230.015 313.246 230.405 309.89C230.795 306.533 230.257 303.131 228.852 300.077C227.447 297.024 225.233 294.445 222.467 292.639C219.701 290.833 216.497 289.875 213.225 289.875C209.954 289.875 206.749 290.833 203.983 292.639C201.217 294.445 199.003 297.024 197.598 300.077C196.194 303.131 195.655 306.533 196.045 309.89C196.436 313.246 197.739 316.42 199.804 319.042C194.306 322.126 189.959 327.017 187.452 332.94C184.944 338.862 184.419 345.48 185.958 351.746C187.498 358.012 191.015 363.569 195.953 367.539C200.891 371.508 206.969 373.663 213.225 373.663C219.481 373.663 225.559 371.508 230.497 367.539C235.435 363.569 238.952 358.012 240.492 351.746C242.032 345.48 241.506 338.862 238.999 332.94C236.491 327.017 232.145 322.126 226.646 319.042Z" fill="#00A4A7"/>
<path d="M226.646 319.042C228.711 316.42 230.015 313.246 230.405 309.89C230.795 306.533 230.257 303.131 228.852 300.077C227.447 297.024 225.233 294.445 222.467 292.639C219.701 290.833 216.497 289.875 213.225 289.875C209.954 289.875 206.749 290.833 203.983 292.639C201.217 294.445 199.003 297.024 197.598 300.077C196.194 303.131 195.655 306.533 196.045 309.89C196.436 313.246 197.739 316.42 199.804 319.042C194.306 322.126 189.959 327.017 187.452 332.94C184.944 338.862 184.419 345.48 185.958 351.746C187.498 358.012 191.015 363.569 195.953 367.539C200.891 371.508 206.969 373.663 213.225 373.663C219.481 373.663 225.559 371.508 230.497 367.539C235.435 363.569 238.952 358.012 240.492 351.746C242.032 345.48 241.506 338.862 238.999 332.94C236.491 327.017 232.145 322.126 226.646 319.042Z" stroke="#4A4A4A" stroke-width="1.3" stroke-linecap="round" stroke-linejoin="round"/>
<path d="M213.213 383.15V333.557" stroke="#4A4A4A" stroke-width="1.3" stroke-linecap="round" stroke-linejoin="round"/>
<path d="M213.213 361.485L223.066 350.895" stroke="#4A4A4A" stroke-width="1.3" stroke-linecap="round" stroke-linejoin="round"/>
<path d="M213.213 349.296L208.206 345.205" stroke="#4A4A4A" stroke-width="1.3" stroke-linecap="round" stroke-linejoin="round"/>
<path d="M136.678 266.373H218.115C218.115 266.373 210.447 256.466 203.287 257.591C203.287 257.591 199.167 242.677 182.654 244.301C168.608 245.676 168.084 254.508 165.254 256.067C158.521 259.758 151.804 255.342 147.095 255.958C133.743 257.716 131.558 266.373 131.558 266.373H136.678Z" fill="#D8D5CD"/>
<path d="M514.12 89.2313H595.557C595.557 89.2313 587.889 79.3244 580.729 80.4492C580.729 80.4492 576.601 65.5345 560.096 67.1177C546.074 68.5341 545.55 77.3746 542.72 78.9244C535.987 82.6156 529.27 78.1995 524.561 78.8244C511.209 80.5742 509.024 89.2313 509.024 89.2313H514.12Z" fill="#D8D5CD"/>
</svg>
