<svg width="783" height="387" viewBox="0 0 783 387" fill="none" xmlns="http://www.w3.org/2000/svg">
<path d="M74.7727 384.043C74.7727 384.043 130.379 363.674 81.1816 253.522C20.4504 117.566 202.043 109.44 411.486 20.7738C510.129 -20.9746 630.448 84.593 708.368 134.51C805.856 196.947 775.355 303.631 725.604 384.043H74.7727Z" fill="#F6F5FF"/>
<path d="M397.844 362.643V361.154L397.314 358.463L379.772 322.213L327.594 320.277L320.808 326.159L302.406 363.855L397.844 362.643Z" fill="white"/>
<path d="M577.764 50.2031H124.925C111.723 50.2031 101.021 59.8655 101.021 71.7847V303.502C101.021 315.421 111.723 325.083 124.925 325.083H577.764C590.965 325.083 601.667 315.421 601.667 303.502V71.7847C601.667 59.8655 590.965 50.2031 577.764 50.2031Z" fill="#5857D2"/>
<path d="M577.764 50.2031H124.925C111.723 50.2031 101.021 59.8655 101.021 71.7847V303.502C101.021 315.421 111.723 325.083 124.925 325.083H577.764C590.965 325.083 601.667 315.421 601.667 303.502V71.7847C601.667 59.8655 590.965 50.2031 577.764 50.2031Z" stroke="black" stroke-width="1.3" stroke-linecap="round" stroke-linejoin="round"/>
<path d="M564.121 65.1055H141.654C132.649 65.1055 125.349 71.6963 125.349 79.8264V247.969C125.349 256.099 132.649 262.69 141.654 262.69H564.121C573.126 262.69 580.426 256.099 580.426 247.969V79.8264C580.426 71.6963 573.126 65.1055 564.121 65.1055Z" fill="#FFF0F0"/>
<path d="M601.667 276.592H101.021" stroke="black" stroke-width="1.3" stroke-linecap="round" stroke-linejoin="round"/>
<path d="M564.121 65.1055H141.654C132.649 65.1055 125.349 71.6963 125.349 79.8264V247.969C125.349 256.099 132.649 262.69 141.654 262.69H564.121C573.126 262.69 580.426 256.099 580.426 247.969V79.8264C580.426 71.6963 573.126 65.1055 564.121 65.1055Z" stroke="black" stroke-width="1.3" stroke-linecap="round" stroke-linejoin="round"/>
<path d="M351.344 312.395C358.13 312.395 363.632 307.428 363.632 301.301C363.632 295.174 358.13 290.207 351.344 290.207C344.558 290.207 339.057 295.174 339.057 301.301C339.057 307.428 344.558 312.395 351.344 312.395Z" fill="white"/>
<path d="M351.344 312.395C358.13 312.395 363.632 307.428 363.632 301.301C363.632 295.174 358.13 290.207 351.344 290.207C344.558 290.207 339.057 295.174 339.057 301.301C339.057 307.428 344.558 312.395 351.344 312.395Z" stroke="black" stroke-width="1.3" stroke-linecap="round" stroke-linejoin="round"/>
<path d="M381.374 325.084L397.844 359.568" stroke="black" stroke-width="1.3" stroke-linecap="round" stroke-linejoin="round"/>
<path d="M321.326 325.084L304.845 359.568" stroke="black" stroke-width="1.3" stroke-linecap="round" stroke-linejoin="round"/>
<path d="M244.266 359.568H458.422C465.608 359.568 472.5 362.146 477.582 366.734C482.663 371.322 485.518 377.544 485.518 384.032H217.158C217.158 377.544 220.013 371.322 225.095 366.734C230.176 362.146 237.068 359.568 244.255 359.568H244.266Z" fill="#5857D2"/>
<path d="M244.266 359.568H458.422C465.608 359.568 472.5 362.146 477.582 366.734C482.663 371.322 485.518 377.544 485.518 384.032H217.158C217.158 377.544 220.013 371.322 225.095 366.734C230.176 362.146 237.068 359.568 244.255 359.568H244.266Z" stroke="#7688B6" stroke-width="1.3" stroke-linecap="round" stroke-linejoin="round"/>
<path d="M545.095 163.729H125.349" stroke="black" stroke-width="1.3" stroke-linecap="round" stroke-linejoin="round"/>
<path d="M351.344 65.1055V262.69" stroke="black" stroke-width="1.3" stroke-linecap="round" stroke-linejoin="round"/>
<path d="M351.344 204.763C376.446 204.763 396.795 186.391 396.795 163.727C396.795 141.064 376.446 122.691 351.344 122.691C326.242 122.691 305.893 141.064 305.893 163.727C305.893 186.391 326.242 204.763 351.344 204.763Z" stroke="black" stroke-width="1.3" stroke-linecap="round" stroke-linejoin="round"/>
<path d="M351.344 213.634C381.872 213.634 406.621 191.29 406.621 163.727C406.621 136.164 381.872 113.82 351.344 113.82C320.816 113.82 296.067 136.164 296.067 163.727C296.067 191.29 320.816 213.634 351.344 213.634Z" stroke="black" stroke-width="1.3" stroke-linecap="round" stroke-linejoin="round"/>
<path d="M1 384.043H781.54" stroke="black" stroke-width="1.3" stroke-linecap="round" stroke-linejoin="round"/>
<path d="M467.14 269.935L445.145 280.316V242.514L467.14 252.895" fill="#D4E6F7"/>
<path d="M643.454 252.895H467.14V269.924H643.454V252.895Z" fill="#82C5FE"/>
<path d="M735.594 376.566H745.843V295.229H735.594V376.566Z" fill="#82C5FE"/>
<path d="M735.594 285.783H715.849V386.001H735.594V285.783Z" fill="#E5E5E5"/>
<path d="M681.542 302.025L715.849 289.389V382.384L681.542 369.748" fill="#82C5FE"/>
<path d="M643.454 369.758H681.542V302.035H643.454V369.758Z" fill="#E5E5E5"/>
<path d="M634.454 286.9H466.904C461.933 286.9 457.903 290.539 457.903 295.027V376.758C457.903 381.246 461.933 384.884 466.904 384.884H634.454C639.425 384.884 643.454 381.246 643.454 376.758V295.027C643.454 290.539 639.425 286.9 634.454 286.9Z" fill="#82C5FE"/>
<path d="M634.454 286.9H466.904C461.933 286.9 457.903 290.539 457.903 295.027V376.758C457.903 381.246 461.933 384.884 466.904 384.884H634.454C639.425 384.884 643.454 381.246 643.454 376.758V295.027C643.454 290.539 639.425 286.9 634.454 286.9Z" stroke="black" stroke-width="1.3" stroke-linecap="round" stroke-linejoin="round"/>
<path d="M643.454 369.758H681.542V302.035H643.454V369.758Z" stroke="black" stroke-width="1.3" stroke-linecap="round" stroke-linejoin="round"/>
<path d="M681.542 302.025L715.849 289.389V382.384L681.542 369.748" stroke="black" stroke-width="1.3" stroke-linecap="round" stroke-linejoin="round"/>
<path d="M735.594 285.783H715.849V386.001H735.594V285.783Z" stroke="black" stroke-width="1.3" stroke-linecap="round" stroke-linejoin="round"/>
<path d="M735.594 376.566H745.843V295.229H735.594V376.566Z" stroke="black" stroke-width="1.3" stroke-linecap="round" stroke-linejoin="round"/>
<path d="M643.454 252.895H467.14V269.924H643.454V252.895Z" stroke="black" stroke-width="1.3" stroke-linecap="round" stroke-linejoin="round"/>
<path d="M643.442 275.104H698.695V247.736H643.442V275.104Z" fill="#D4E6F6"/>
<path d="M643.442 275.104H698.695V247.736H643.442V275.104Z" stroke="black" stroke-width="1.3" stroke-linecap="round" stroke-linejoin="round"/>
<path d="M467.14 269.935L445.145 280.316V242.514L467.14 252.895" stroke="black" stroke-width="1.3" stroke-linecap="round" stroke-linejoin="round"/>
<path d="M522.569 269.934L510.824 286.899" stroke="black" stroke-width="1.3" stroke-linecap="round" stroke-linejoin="round"/>
<path d="M502.718 269.934L490.973 286.899" stroke="black" stroke-width="1.3" stroke-linecap="round" stroke-linejoin="round"/>
<path d="M613.342 269.934L601.596 286.899" stroke="black" stroke-width="1.3" stroke-linecap="round" stroke-linejoin="round"/>
<path d="M593.491 269.934L581.745 286.899" stroke="black" stroke-width="1.3" stroke-linecap="round" stroke-linejoin="round"/>
<path d="M526.01 286.9V384.884" stroke="black" stroke-width="1.3" stroke-linecap="round" stroke-linejoin="round"/>
<path d="M500.562 286.9V384.884" stroke="black" stroke-width="1.3" stroke-linecap="round" stroke-linejoin="round"/>
<path d="M472.088 286.9V384.884" stroke="black" stroke-width="1.3" stroke-linecap="round" stroke-linejoin="round"/>
<path d="M213.541 342.326H116.312" stroke="black" stroke-width="1.3" stroke-linecap="round" stroke-linejoin="round"/>
<path d="M203.951 34.1641H30.6055" stroke="black" stroke-width="1.3" stroke-linecap="round" stroke-linejoin="round"/>
<path d="M489.877 34.1641H549.996" stroke="black" stroke-width="1.3" stroke-linecap="round" stroke-linejoin="round"/>
<path d="M680.082 213.625C685.56 213.625 690.001 209.615 690.001 204.669C690.001 199.723 685.56 195.713 680.082 195.713C674.603 195.713 670.162 199.723 670.162 204.669C670.162 209.615 674.603 213.625 680.082 213.625Z" fill="#40DAFC"/>
<path d="M44.7428 133.828C48.1717 133.828 50.9514 131.318 50.9514 128.223C50.9514 125.127 48.1717 122.617 44.7428 122.617C41.3139 122.617 38.5342 125.127 38.5342 128.223C38.5342 131.318 41.3139 133.828 44.7428 133.828Z" fill="#FFCF44"/>
<path d="M438.394 343.07C441.823 343.07 444.603 340.561 444.603 337.465C444.603 334.369 441.823 331.859 438.394 331.859C434.965 331.859 432.186 334.369 432.186 337.465C432.186 340.561 434.965 343.07 438.394 343.07Z" fill="#FFCF44"/>
<path d="M346.031 11.2109C349.46 11.2109 352.239 8.70126 352.239 5.60546C352.239 2.50965 349.46 0 346.031 0C342.602 0 339.822 2.50965 339.822 5.60546C339.822 8.70126 342.602 11.2109 346.031 11.2109Z" fill="#FFCF44"/>
</svg>
