<svg version="1.2" xmlns="http://www.w3.org/2000/svg" viewBox="0 0 1400 1400" width="1000" height="1000">
	<title>404_Error-svg</title>
	<style>
		.s0 { fill: #fff8e1 } 
		.s1 { fill: #ffffff } 
		.s2 { fill: none;stroke: #000000;stroke-linecap: round;stroke-linejoin: round;stroke-width: 2.6 } 
		.s3 { fill: #ffcf44 } 
		.s4 { fill: #00bbd6 } 
		.s5 { fill: #362d46 } 
		.s6 { fill: #000000 } 
		.s7 { fill: #bcebf1 } 
	</style>
	<g id="Layer 1">
		<g id="&lt;Group&gt;">
			<path id="&lt;Path&gt;" class="s0" d="m791.7 118.8c376.2 64.8 458.7 462.6 294.8 750.3-163.9 287.7-308.5 289.6-508.2 235-194.6-53.2-426.6-238.4-393.3-471.8 51.5-361.3 340.9-559.2 606.7-513.5z"/>
			<path id="&lt;Path&gt;" class="s1" d="m1064.7 178.6c1.1 2.3 2.2 3 2.2 8.5 0 5.4 0 9.7 0 9.7v555.5c0 0-1.4 10.5-5.2 15.6-3.8 5.1-8.1 8.8-12.8 11-4.7 2.2-12.3 3-15.9 3.2-3.6 0.2-23 0-23 0h-501.8c0 0-9-0.5-12.5-2-3.5-1.4-4.2-1.6-7.5-3.9-3.3-2.2-6.2-5.2-7.9-7.7-1.8-2.4-3.9-7.1-4.9-10.3-1.1-3.1-0.8-9-1-11.6-0.2-2.5 0-12.7 0-12.7v-556.9z"/>
			<path id="&lt;Path&gt;" class="s0" d="m670 453.4c-3.6 0.2-17.3 2.1-22.7 1.4-5.4-0.7-17-1.3-19.5-2-2.4-0.7-2.8-1.9-3.4-3-0.6-1-4.9-13.4-5.4-15.7-0.5-2.4 1.4-2.4 3.3-2.4 1.8 0.1 5-1.1 7.9-1.8 2.9-0.7 7.2-5 8.8-7.8 1.6-2.9 3-13.4 3.4-15.8 0.3-2.5 1-8.6 1-10.7-0.1-2.1-2.5-2.3-4.5-3.5-2-1.3-6.4-4.5-7.4-6.7-1-2.3-0.5-6.3-0.3-7.9 0.2-1.7 0.8-3.3 3.4-5.2 2.7-1.8 7.3-0.8 9.3-0.6 2.1 0.1 1.8 0.3 2.3-0.9 0.4-1.2 0.3-4.8 0.4-8 0-3.2-0.1-5.1 0.4-9.1 0.5-4 4.7-9.3 5.9-10.8 1.3-1.6 6.9-6.4 9.2-7.4 2.2-1 3.4-0.3 3.4-0.3 0 0 4.1 7.5 5.2 9.6 1.1 2.1 7.2 14.6 8.5 17.4 1.3 2.7 3.6 3.3 5.4 4.1 1.8 0.7 4.5 3.8 5.1 5.8 0.7 2 0.5 2.4-0.1 5.1-0.5 2.8-2.4 3.6-1.7 5.6 0.7 2.1 2.6 11.1 2.3 15.1-0.2 4-1 4.7-4.3 10.4-3.4 5.7-8.2 7.2-10.2 7.9-2 0.7-1.7 1.4-1.2 3.6 0.4 2.1 5.6 25.2 5.9 28.2 0.3 3 3.2 6.6 4.2 9.4 0 0-10.9-4.2-14.6-4z"/>
			<path id="&lt;Path&gt;" class="s2" d="m1025.4 716.8h-357.8"/>
			<path id="&lt;Path&gt;" class="s3" d="m482.9 183.4c0 0-4.8 0.2-6.3 0-1.5-0.2-2.5-1.2-2.5-1.2l0.1-8c0 0 0.3-8.1 0.5-10.8 0.1-2.7 1-8.6 2-11.1 1.1-2.5 4.1-7.4 5.3-9.1 1.3-1.7 7.1-5.9 8.2-6.4 1.1-0.6 4.2-1.9 6.5-2.6 2.2-0.8 7.3-1.1 7.3-1.1h524.5c0 0 7.4 0 10.2 0 2.7-0.1 8 1.1 10.6 2.8 2.5 1.7 7.1 4.3 9.3 6.5 2.2 2.1 5.2 8 5.9 9.6 0.8 1.7 2.4 5.5 2.4 8.1 0 2.5 0 19.9 0 21.6 0 1.8-0.9 1.9-0.9 1.9h-5.7z"/>
			<path id="&lt;Path&gt;" class="s3" d="m786.6 762.6l87 435.5c0 0-0.6 1.6-1.4 1.6-0.7 0-4.3 0.2-4.3 0.2l-121.7-0.4c0 0-1-0.3-1.5-2-0.6-1.7-1.4-3.4-1.4-3.4l-61.1-275.4c0 0-1.5-0.4-2.4 1.3-1 1.7-1.3 2.5-1.3 2.5l-85.7 275.3c0 0-0.2 1.6-3.6 1.9-3.3 0.3-5.4 0.2-5.4 0.2 0 0-101.3 0.1-101.7 0-0.4-0.1-2.4 0-2-1.6 0.3-1.5 0.7-3.1 0.7-3.1 0 0 93.4-421.4 93.5-421.7 0.1-0.2 1.4-5.4 1.4-5.4z"/>
			<path id="&lt;Path&gt;" class="s4" d="m679 452.4c6.6-1.2 8.6-2.4 12.3-3 3.8-0.7 9.6-0.9 14.6 0.6 4.9 1.6 8.3 3.3 11.3 5 3.1 1.7 9.8 5.7 9.8 5.7l21.5 14.2 25.5 17.6 36 25.5c0 0 44.2 31.9 44.4 32 0.2 0.2 1.6 1 1.1 3.2-0.6 2.1-7.6 21-7.6 21l-29.4 82.1c0 0-1.7 3.2-2.2 2.8-0.4-0.3-4.6-3.6-4.6-3.6l-36.9-25.6c0 0-1-0.4-0.9 2.4 0.2 2.9 3.7 25.5 3.7 25.5l16.2 103.5c0 0 1.4 4.8 0.8 5.2-0.6 0.4-3.7 0.9-3.7 0.9h-21.5l-190.9 3.8-7.1 0.1-0.6-4.3c0 0-1.5-48.8-3.6-68.7-2-19.9-5-41.7-5-41.7 0 0-3.7-21.8-3.8-22.1 0-0.4-6.3-27.8-6.3-27.8l-6.2-20.2c0 0 1.2-1.1-3.2 0.3-4.4 1.5-7.9 3.1-7.9 3.1l-53.5 24.1c0 0-56.8 25.6-57.6 25.5-0.8-0.1-1.6-2.1-1.8-2.7-0.2-0.5-22.1-69.8-22.1-69.8 0 0-7.1-21.9-7-22.3 0.1-0.4-0.3-2.2 1.1-3.6 1.4-1.3 2.5-2.1 2.5-2.1l50.3-34.8 58.2-38.7c0 0 29.7-16.4 32.9-17.9 3.2-1.6 13.7-6.5 18.7-7.2 4.9-0.7 18.7-2.7 23.4-3.3 4.7-0.6 21.2-0.7 25-0.7 3.8 0 10.1 1 11.5 1.2 1.5 0.2 3.7-0.2 4.5 1.9 0.9 2.1 3 10 3.9 11.4 0.8 1.3 1.9 1.8 4.4 2.2 2.6 0.4 15.9 1.9 22.3 1.8 6.4 0 15.1-1.2 15.4-1.2 0.2 0 12.1-1.3 12.1-1.3z"/>
			<path id="&lt;Path&gt;" class="s0" d="m381.3 644.5c-3.1 1.1-6.5 2-10.6 1.9-4.1-0.1-8.2-0.7-11.8-4.1-3.6-3.3-5.6-9.2-6.7-16.4-1.1-7.1-0.3-21.7 0.4-25.8 0.7-4.1 5.9-19.6 6.9-22.1 1-2.5 6.1-13.2 6.1-13.2l31.1-53 38.1-65.3c0 0 14-24.1 15.4-26.6 1.4-2.5 1.7-3.5 2-7.6 0.2-4.2 1.8-15.7 2.2-18 0.4-2.4 4-17.6 4.2-20 0.2-2.4 4-14.2 6.3-18.7 2.2-4.4 6.8-8.7 7.7-9.1 0.9-0.4 2.2 0.8 1.9 2.9-0.3 2.2 0 7.4 0 9.7 0 2.4 0 36.8 0 41.1 0 4.3 1.3 3.6 1.7 2.7 0.4-0.9 9.1-19.3 10-21.3 1-2 5-2.6 6.9-4 1.9-1.3 4.2-6.9 4.6-11.3 0.5-4.5 1.6-4.5 1.8-2.2 0.3 2.4 1.5 11.4 1.4 16.4 0 4.9-2.8 14.3-3.3 17.2-0.5 2.8-0.2 4.8 0 8.5 0.3 3.6-2.4 10.1-3.7 13.6-1.3 3.4-3.5 6.2-4.2 7.9-0.7 1.7-24 58.2-25.2 61-1.1 2.7-3.5 5.9-3.5 5.9l-64.5 44.7c-0.1 0.1-1.7 1.2-2.9 1.7-1.2 0.5-1.1 3.9-1.1 3.9 0 0 26.1 81.3 26.5 83.4 0.5 2.1 0.5 2.5-1.4 3.8 0 0-33.3 11.4-36.3 12.4z"/>
			<path id="&lt;Path&gt;" class="s0" d="m825.3 643.2c-1.1-1.4-0.9-2-0.4-4.7 0.6-2.8 24.3-68.8 24.9-70.1 0.6-1.3 2.5-2.3 3.8-2.7 1.3-0.4 13.6-4.5 13.6-4.5l143.9-47.5c0 0 21.4-6.6 22.6-7.2 1.2-0.5 3.5-2.3 5-5.5 1.5-3.1 1.1-5.7 1.7-9.1 0.7-3.4 2.6-7.1 4-10 1.5-3 3.6-9.5 4.6-12.4 1-2.9 4.4-9.8 6-12.6 1.6-2.8 3.1-4.9 5.1-8.1 2-3.3 5.5-4.2 5.9-3.8 0.4 0.5 0.4 2.3-0.3 6.6-0.7 4.3-4.3 26.7-5 31.2-0.7 4.5 0.6 3.7 1.4 2.6 0.7-1.2 2.4-2.2 3.1-4.7 0.7-2.6 2.9-11 2.4-15.8-0.5-4.8-0.2-14.9-0.1-18.9 0.1-4.1 2.1-0.2 3.9 1.4 1.8 1.5 4.9 3.7 6.1 5.7 1.2 1.9 1.8 8.8 2.2 11.4 0.4 2.7 4.5 20.5 4.9 23.2 0.5 2.7 1.6 13.3 1.6 15.5 0 2.2 0.4 3.8-0.9 7.3-1.3 3.4-8.4 13.9-13 18.5-4.6 4.6-8.6 6.7-8.6 6.7l-72.6 41-75.2 42.2c0 0-34.4 19.4-41.2 22.5-6.9 3-17 7.2-17 7.2 0 0-5.8 1.9-9.7 2.3-3.9 0.4-9.3-1-15.1-2.3z"/>
			<path id="&lt;Path&gt;" class="s2" d="m681.6 451.5l-7.8-34.9"/>
			<path id="&lt;Path&gt;" class="s2" d="m664.7 334c3.7 4.9 15.8 30.9 15.8 30.9 0 0 2.4-0.5 7.7 5 5.3 5.4-1.3 11.2-1.3 11.2 0 0 7.5 16.3-1.3 28.2-8.9 11.9-23.5 6.3-23.5 6.3"/>
			<path id="&lt;Path&gt;" class="s5" d="m643.9 393.4c0 0-2 18.4-3.3 24.5-2.1 9.9-15.3 17.7-27.5 11.9 0 0-47.6-51-44.9-71.7 2.6-20.8 29.4-53.1 54.4-58.9 25-5.8 45.3 4.6 46.4 19.7 1 15.2-4.3 15.1-12.5 20.3 0 0-7.5 6.5-9 13.6-1.5 7.1-0.8 20-0.8 20 0 0-10.7-4.5-14.6 1.9-4 6.4-1.2 17.6 13.5 18.9"/>
			<path id="&lt;Path&gt;" class="s2" d="m643.9 393.4c0 0-2 18.4-3.3 24.5-2.1 9.9-15.3 17.7-27.5 11.9 0 0-47.6-51-44.9-71.7 2.6-20.8 29.4-53.1 54.4-58.9 25-5.8 45.3 4.6 46.4 19.7 1 15.2-4.3 15.1-12.5 20.3 0 0-7.5 6.5-9 13.6-1.5 7.1-0.8 20-0.8 20 0 0-10.7-4.5-14.6 1.9-4 6.4-1.2 17.6 13.5 18.9"/>
			<path id="&lt;Path&gt;" class="s2" d="m617.8 431.8l7.5 20.6"/>
			<path id="&lt;Path&gt;" class="s2" d="m647.6 367.1l20-8.2"/>
			<path id="&lt;Path&gt;" class="s2" d="m678.3 361.9c-3.9 1.6-8.4-0.2-10.1-4.1-1.7-3.9 0.1-8.5 4.1-10.2"/>
			<path id="&lt;Path&gt;" class="s6" d="m677 355.3c0 1.5-1.1 2.6-2.5 2.6-1.4 0-2.6-1.1-2.6-2.6 0-1.4 1.2-2.5 2.6-2.5 1.4 0 2.5 1.1 2.5 2.5z"/>
			<path id="&lt;Path&gt;" class="s2" d="m625.3 452.4c22.6 4.4 36.8 1.7 36.8 1.7 35.7-2.9 30.7-10.9 53.4 0 22.8 11 140.6 97.2 140.6 97.2l-38.7 108.1-44-30.4 21.3 137.9-223.9 4.4c0 0 0.9-165.9-45.5-225.3"/>
			<path id="&lt;Path&gt;" class="s2" d="m545.4 585.1c0 0-122.9 55.7-122.9 54.8 0-0.9-30.4-97.5-30.4-97.5 0 0 129.1-93.3 161-101 31.9-7.7 66.9-3.7 66.9-3.7"/>
			<path id="&lt;Path&gt;" class="s2" d="m419.9 631.3l-42.5 14.6c-9.9 3.2-20.5-2.3-23.5-12.3-4.6-15.4-5.1-41.7 18.1-80.4 40.5-67.5 79.9-136.3 79.9-136.3"/>
			<path id="&lt;Path&gt;" class="s2" d="m462.5 493.6l28.1-68.1"/>
			<path id="&lt;Path&gt;" class="s2" d="m850.6 566.7l172.4-56.9"/>
			<path id="&lt;Path&gt;" class="s2" d="m1066.9 533.9c0 0-168 95.4-198.1 110.5-30.2 15.1-45.2-2.3-45.2-2.3"/>
			<g id="&lt;Group&gt;">
				<path id="&lt;Path&gt;" class="s0" d="m574.4 1199.9c3.8 0.7 0.4 1.4 0.8 5.1 0.4 3.8-1.6 8.6-1.6 11.2 0 2.6 1.2 3.9-3.8 3.9-5.1 0-63.7-1.6-66.4-2.3-2.7-0.8-0.7-2.2-0.7-6.8 0-3.9-0.1-10.5 3.8-11 1-0.1 2.4 0.7 3.7 0.6 10.2-0.7 45.9-0.7 45.9-0.7h13.7z"/>
				<g id="&lt;Group&gt;">
					<path id="&lt;Path&gt;" class="s7" d="m490.1 1216.5c0 0 43.5 3.8 79.7 3.6 36.1-0.2 37.4-8 70.1 8 32.7 16 36.3 23.6 43.1 47l-192.2 0.5z"/>
					<path id="&lt;Path&gt;" class="s2" d="m490.1 1216.5c0 0 43.5 3.8 79.7 3.6 36.1-0.2 37.4-8 70.1 8 32.7 16 36.3 23.6 43.1 47l-192.2 0.5z"/>
					<path id="&lt;Path&gt;" class="s2" d="m683 1275.1l2.6 12.5-195.1 0.1 0.3-12.1"/>
					<path id="&lt;Path&gt;" class="s2" d="m532.1 1275.5c0 0-13.8-30.9-41.6-28.6"/>
					<path id="&lt;Path&gt;" class="s2" d="m611.3 1218.3c0 0-5.5 23.2-22.3 25.7"/>
					<path id="&lt;Path&gt;" class="s2" d="m637.4 1227.7c0 0 0.6 13.7-20.1 23.2"/>
				</g>
				<path id="&lt;Path&gt;" class="s2" d="m576.3 1200.6l-2.7 19.4"/>
				<path id="&lt;Path&gt;" class="s2" d="m503.8 1200.6l-2.7 15.9"/>
			</g>
			<g id="&lt;Group&gt;">
				<path id="&lt;Path&gt;" class="s0" d="m845.9 1199.9c3.8 0.7 3.2 1.6 3.6 5.4 0.4 3.8 1.8 8.4 1.8 11 0 2.6 0.8 4-4.2 4-5.1 0-60.4-1.5-63.1-2.3-2.7-0.7-5.5-2.4-5.5-6.9 0-4.6-7.4-11 2.8-11.8 10.2-0.7 45.8 0.9 45.8 0.9h13.7z"/>
				<g id="&lt;Group&gt;">
					<path id="&lt;Path&gt;" class="s7" d="m768.8 1216.5c0 0 43.4 3.8 79.6 3.6 36.2-0.2 37.5-8 70.2 8 32.7 16 36.3 23.6 43.1 47l-192.2 0.5z"/>
					<path id="&lt;Path&gt;" class="s2" d="m768.8 1216.5c0 0 43.4 3.8 79.6 3.6 36.2-0.2 37.5-8 70.2 8 32.7 16 36.3 23.6 43.1 47l-192.2 0.5z"/>
					<path id="&lt;Path&gt;" class="s2" d="m961.7 1275.1l2.5 12.5-195 0.1 0.3-12.1"/>
					<path id="&lt;Path&gt;" class="s2" d="m810.8 1275.5c0 0-13.8-30.9-41.7-28.6"/>
					<path id="&lt;Path&gt;" class="s2" d="m890 1218.3c0 0-5.5 23.2-22.3 25.7"/>
					<path id="&lt;Path&gt;" class="s2" d="m916.1 1227.7c0 0 0.6 13.7-20.2 23.2"/>
				</g>
				<path id="&lt;Path&gt;" class="s2" d="m848.6 1200.6l3.6 19.4"/>
				<path id="&lt;Path&gt;" class="s2" d="m776.2 1200.6l3.6 15.9"/>
			</g>
			<path id="&lt;Path&gt;" class="s2" d="m787.3 767.1l86.3 432.6h-128.7l-77.3-344.2"/>
			<path id="&lt;Path&gt;" class="s2" d="m680.9 914.9l-88.7 284.8h-112.4l95-428.4"/>
			<path id="&lt;Path&gt;" class="s2" d="m474.5 406.6v-218.3-24.5c0-17 13.8-30.9 30.9-30.9h530.6c17.1 0 30.9 13.9 30.9 30.9v314.5"/>
			<path id="&lt;Path&gt;" class="s2" d="m1066.9 533.9v216.9c0 17.1-13.8 30.9-30.9 30.9h-245.8"/>
			<path id="&lt;Path&gt;" class="s2" d="m572.5 781.7h-67.1c-17.1 0-30.9-13.8-30.9-30.9v-133.7"/>
			<path id="&lt;Path&gt;" class="s2" d="m474.5 464.4v21.2"/>
			<path id="&lt;Path&gt;" class="s2" d="m1066.9 183.6h-592.4"/>
			<path id="&lt;Path&gt;" class="s2" d="m1025.4 236.4h-357.8"/>
			<path id="&lt;Path&gt;" class="s2" d="m1025.4 416.9h-116"/>
			<path id="&lt;Path&gt;" class="s2" d="m1025.4 446.7h-116"/>
			<g id="&lt;Group&gt;">
				<path id="&lt;Compound Path&gt;" class="s5" d="m828.1 350.3h-4.9c-1.4 0-2.5 1.1-2.5 2.4v7.8c0 1.4-1.1 2.5-2.4 2.5h-19.3c-1.3 0-2.4-1.1-2.4-2.5v-7.8c0-1.3-1.1-2.4-2.5-2.4h-33.4c-1.3 0-2.4-1.1-2.4-2.4v-12.7c0-0.5 0.1-0.9 0.4-1.3l30.2-43.7c0.4-0.7 1.2-1.1 2-1.1h19.7c1.9 0 3.1 2.2 2 3.8l-22.8 34.3c-1.1 1.6 0.1 3.8 2 3.8h3.1c1.3 0 2.4-1.1 2.4-2.4v-6.4c0-1.4 1.1-2.5 2.4-2.5h18.6c1.3 0 2.4 1.1 2.4 2.5v6.4c0 1.3 1.1 2.4 2.5 2.4h4.9c1.3 0 2.4 1.1 2.4 2.4v14.5c0 1.3-1.1 2.4-2.4 2.4z"/>
				<path id="&lt;Compound Path&gt;" fill-rule="evenodd" class="s5" d="m834 326c0-24.4 13.9-38.6 33.5-38.6 19.5 0 33.4 14.2 33.4 38.6 0 24.5-13.9 38.7-33.4 38.7-19.6 0-33.5-14.2-33.5-38.7zm41.9 0c0-14.2-3.6-18.6-8.4-18.6-4.9 0-8.5 4.4-8.5 18.6 0 14.3 3.6 18.7 8.5 18.7 4.8 0 8.4-4.4 8.4-18.7z"/>
				<path id="&lt;Compound Path&gt;" class="s5" d="m976.2 350.3h-4.9c-1.4 0-2.5 1.1-2.5 2.4v7.8c0 1.4-1 2.5-2.4 2.5h-19.3c-1.3 0-2.4-1.1-2.4-2.5v-7.8c0-1.3-1.1-2.4-2.5-2.4h-33.4c-1.3 0-2.4-1.1-2.4-2.4v-12.7c0-0.5 0.1-0.9 0.4-1.3l30.2-43.7c0.5-0.7 1.2-1.1 2-1.1h19.7c1.9 0 3.1 2.2 2 3.8l-22.8 34.3c-1.1 1.6 0.1 3.8 2.1 3.8h3c1.3 0 2.4-1.1 2.4-2.4v-6.4c0-1.4 1.1-2.5 2.5-2.5h18.5c1.4 0 2.4 1.1 2.4 2.5v6.4c0 1.3 1.1 2.4 2.5 2.4h4.9c1.4 0 2.5 1.1 2.5 2.4v14.5c0 1.3-1.1 2.4-2.5 2.4z"/>
			</g>
			<path id="&lt;Path&gt;" class="s2" d="m493.7 679.8h41.8"/>
			<path id="&lt;Path&gt;" class="s2" d="m451.9 416.9c0 0 0.4-18.4 7.3-45.1 7-26.7 14.5-25.5 14.5-25.5"/>
			<path id="&lt;Path&gt;" class="s2" d="m474.5 406.6l21.1-44.9c0 0 3.4-5.8 4.6 11.1 1.2 16.9-2.6 22.1-3.2 33.8-0.6 11.8-6.4 18.9-6.4 18.9"/>
			<g id="&lt;Group&gt;">
				<path id="&lt;Path&gt;" class="s2" d="m1067 436.4c0 0 5.3-1.2 12.3 25.5 7 26.6 7.3 45.1 7.3 45.1"/>
				<path id="&lt;Path&gt;" class="s2" d="m1066.9 478.3l-10.8 15.9"/>
				<path id="&lt;Path&gt;" class="s2" d="m1023 509.8c0 0 4.1-1.1 8.7-2.4 4.3-1.3 7.4-5.2 7.8-9.7 0.3-3.6 1.2-8.5 3.9-13.7 5.3-10.5 4.6-16.9 14-31 9.5-14 9.3-7.4 9.3-7.4l-6.9 42.5"/>
			</g>
			<path id="&lt;Path&gt;" class="s2" d="m1086.6 507c-5.3 15.8-19.7 26.9-19.7 26.9"/>
			<path id="&lt;Path&gt;" class="s2" d="m773.4 629l-32.6-28.3"/>
			<path id="&lt;Path&gt;" class="s2" d="m498.1 363.4c0 0 2.2 12.3-11.1 16.7"/>
			<path id="&lt;Path&gt;" class="s2" d="m1066.9 441.9c0 0 2.2 5.6 8.6 7.5"/>
			<path id="&lt;Path&gt;" class="s2" d="m689.2 388.5c0 0-4.8-1.2-9.5 2.2"/>
			<path id="&lt;Path&gt;" class="s2" d="m1218.2 1287.7h-977"/>
			<g id="&lt;Group&gt;">
				<path id="&lt;Path&gt;" class="s2" d="m1159.9 1287.7l11.1-14"/>
				<path id="&lt;Path&gt;" class="s2" d="m1161 1246.1v40.1l-9.5-10.2"/>
				<path id="&lt;Path&gt;" class="s2" d="m1161 1260.1l6.9-9.2"/>
			</g>
			<g id="&lt;Group&gt;">
				<path id="&lt;Path&gt;" class="s2" d="m347.6 1287.7l11.1-14"/>
				<path id="&lt;Path&gt;" class="s2" d="m348.7 1246.1v40.1l-9.5-10.2"/>
				<path id="&lt;Path&gt;" class="s2" d="m348.7 1260.1l6.9-9.2"/>
			</g>
			<path id="&lt;Path&gt;" class="s2" d="m1099.6 1287.7l8.5-27.6"/>
			<path id="&lt;Path&gt;" class="s2" d="m860.5 823.1h57.9"/>
			<path id="&lt;Path&gt;" class="s2" d="m894 917.1l40.2 38 5.7-52.2 32.8 57.3 9.6-54.4 48.8 75.5"/>
			<path id="&lt;Path&gt;" class="s2" d="m290.2 1152.3l40.2 38 5.7-52.1 32.8 57.2 9.7-54.4 48.7 75.5"/>
		</g>
	</g>
</svg>