<svg version="1.2" xmlns="http://www.w3.org/2000/svg" viewBox="0 0 817 817" width="817" height="817">
	<title>About_us_graph_adobe_express-svg</title>
	<style>
		tspan { white-space:pre } 
		.s0 { fill: #3f334f } 
		.s1 { display: none;fill: #000000 } 
		.s2 { display: none;fill: #3f3350 } 
		.s3 { fill: #3f3350 } 
		.s4 { fill: #ff7043 } 
		.s5 { display: none;fill: #3f334f } 
		.s6 { fill: #da4517 } 
		.s7 { fill: #db4618 } 
		.s8 { fill: #dc481a } 
		.s9 { fill: #da4618 } 
		.s10 { fill: #c55e47 } 
		.s11 { fill: #6f404a } 
		.s12 { fill: #643e4c } 
		.t13 { font-size: 20px;fill: #000000;font-weight: 400;font-family: "DejaVuSans", "DejaVu Sans" } 
	</style>
	<path id="Layer copy" class="s0" d="m366.5 594c2.2 0.3 3.9 0.9 5.7 1 15.8 0 31.6-0.1 47.4 0.1 4.3 0.1 5.4-1.4 5.3-5.4-0.3-9.7-0.3-19.3-0.6-29.8-0.3-4.2-0.4-7.6-0.5-11 0.4-1.8 1-3.6 1-5.3 0-34.9 0-69.7 0.1-105.4-0.1-2-0.1-3.1-0.2-4.2-0.1-14.1-0.3-28.2-0.6-42.7-0.1-3.3-0.3-6.4 0-9.3 0.4-4.1-1.5-5.1-5.2-5.1-24.5 0.2-49 0.1-73.5 0.1-1.5 0-3.2 0.4-4.4-0.2-1.3-0.6-2-2.2-2.9-3.3 1-0.9 1.9-1.9 3-2.4 0.9-0.4 2-0.1 3-0.1q40 0 80 0c6.4 0 6.9 0.4 6.9 6.8q0 107.7 0 215.4c0 6.9-1 7.8-7.8 7.8-26.3 0-52.6-0.1-79 0.1-4.7 0-6.3-1.4-6.3-6.3 0.1-65.3 0.1-130.6 0.1-195.9 0-1-0.3-2.2 0.2-2.9 0.6-1.1 1.9-2.7 2.8-2.6 1 0 2.4 1.5 2.8 2.6 0.5 1.5 0.2 3.3 0.2 5q0 92.9 0 185.9c0 7.1 0 7.1 7 7.1 5 0 10 0 15.5 0z"/>
	<path id="Layer" fill-rule="evenodd" class="s1" d="m1 596c0-137 0-273.9 0-410.9q408.5 0 817 0c0 10 0 20-0.4 30.5-3.7-0.6-7.1-2.4-10.4-2.5-31-0.2-62-0.1-93-0.1-1.5 0-3.2-0.4-4.4 0.2-1.2 0.6-2.4 2.2-2.5 3.5-0.1 1 1.2 2.6 2.3 3 1.3 0.6 3 0.3 4.5 0.3q44.5 0 89 0c6.9 0 7 0 6.9 7.2-0.3 21.3-0.9 42.5-1 63.8-0.1 99.5 0 199 0 298.5 0 6.5 0 6.5-6.6 6.5-21.3 0-42.7-0.1-64 0.1-4.8 0.1-6.5-1-6.5-6.3-0.2-112.6-0.6-225.2-1-337.8 0-2.8 2.1-7.7-3.3-7.8-5.6-0.1-3.5 4.8-3.5 7.6q-0.2 152.2-0.1 304.5c0.1 11.4 0.5 22.9 1.1 34.3 0.1 4.1-1.1 5.6-5.4 5.5-11.9-0.3-23.9-0.1-35.9-0.1-9.9-0.1-8.8 1.1-8.8-8.8q0-165 0-330c0-8.2-0.1-8.2-8-8.2q-39.7 0-79.5 0c-1.1 0-2.5-0.4-3.4 0.1-1.8 1.1-3.3 2.6-5 3.9 1.6 1.3 3.1 3.3 4.9 3.8 2.5 0.7 5.3 0.2 7.9 0.2 23.4 0 46.7 0.1 70-0.1 3.9 0 5.4 1.1 5.2 5.1-0.4 4.7-0.2 9.3-0.7 14-20 0-39.6 0-59.1 0 0 106 0 211.3 0 317 20 0 39.8 0 59.3 0.3-2.3 0.4-4.2 0.7-6.2 0.7q-32.5 0-65 0c-7.4 0-7.4 0-7.4-7.2q0-149.7 0-299.4c0-1.8 0.3-3.8-0.2-5.4-0.5-1.2-2.2-2.7-3.3-2.7-1.2 0-2.9 1.5-3.3 2.7-0.6 1.6-0.2 3.6-0.2 5.4q0 150 0 299.9c0 1.7 0.4 3.5-0.2 4.9-0.6 1.5-2.1 3.1-3.6 3.6-1.6 0.6-3.6 0.2-5.4 0.2q-285.4 0-570.8 0zm237-89q-27.3 0-54.7 0c0 28 0 55.3 0 83.1 18.8 0 37.2 0 55.7 0.8q1.7 2 3.3 4c1.2-1.7 3.5-3.4 3.5-5.1q0.3-49.7 0-99.4c0-1.5-2.1-2.9-3.3-4.3-1.2 1.4-3.2 2.8-3.3 4.3-0.4 5.5-0.2 11-1.2 16.6zm230 78q-7.5 0-15 0c-7 0-7 0-7-7.1q0-93 0-185.9c0-1.7 0.3-3.5-0.2-5-0.4-1.1-1.8-2.6-2.8-2.6-0.9-0.1-2.2 1.5-2.8 2.6-0.5 0.7-0.2 1.9-0.2 2.9 0 65.3 0 130.6-0.1 195.9 0 4.9 1.6 6.3 6.3 6.3 26.4-0.2 52.7-0.1 79-0.1 6.8 0 7.8-0.9 7.8-7.8q0-107.7 0-215.4c0-6.4-0.5-6.8-6.9-6.8q-40 0-80 0c-1 0-2.1-0.3-3 0.1-1.1 0.5-2 1.5-3 2.4 0.9 1.1 1.6 2.7 2.9 3.3 1.2 0.6 2.9 0.2 4.4 0.2 24.5 0 49 0.1 73.5-0.1 3.7 0 5.6 1 5.2 5.1-0.3 2.9-0.1 6-1.1 9-18.6 0-37.2 0-56 0 0 2.6 0 4.6 0 6.6 0 65.4-0.1 130.9-1 196.4zm280 4.4q0.1 2.1 0.2 4.3c20.1 0 39.8 0 59.4 0 0-117.8 0-235.2 0-352.4-20 0-39.6 0-59.6 0 0 115.8 0 231.5 0 348.1zm-359-50.9q0-53.2 0-106.5c0-6-0.9-7-6.4-7-26.9 0-53.7 0-80.5 0-4.4-0.1-6.2 1.4-6.2 6.1q0.2 79 0 158c0 4.6 1.6 6 6.1 6q40.5-0.3 81 0c4.6 0 6.1-1.5 6.1-6.1-0.2-16.5-0.1-33-0.1-50.5zm-339.5-2.5c-11.9-0.3-23.9-0.7-35.9-1-4.3-0.1-6.7 1.5-6.7 6.4 0.2 15.4 0.2 30.7 0 46 0 4 1.1 5.7 5.4 5.7 4.4 0 5.8-1.5 5.8-5.8-0.2-13.2 0-26.3-0.1-39.5-0.1-3.1 0.5-4.8 4.3-4.9q34.2-0.2 68.3-1c4.1-0.1 5.6 1.1 5.5 5.3-0.2 14.4-0.2 28.7 0 43 0 1.6 1.6 3.1 2.5 4.6 0.8-1.5 2.3-3 2.3-4.5 0.2-16.5 0.1-33 0.1-49.5 0-1.4-0.3-2.9-0.4-4.8-17 0-33.5 0-51.1 0zm103.5-35.5c0 28.8 0.1 57.6-0.1 86.4 0 4.9 1.7 6.4 6.4 6.2 4.8-0.2 5.7-2.7 5.7-6.8 0-29.1 0-58.2 0-87.4 0-6.9 0-6.8 7.2-6.9 14.2-0.3 28.5-0.6 42.8-1.1 1.5 0 3-1.2 4.6-1.8-1.7-1-3.3-2.9-4.9-2.9-8-0.4-16-0.1-24-0.2-10.3-0.2-20.6-0.8-30.8-1-6.1-0.1-6.8 0.8-6.9 7 0 2.5 0 5 0 8.5zm-95.5 52.5c-10.1 0-20.2 0-30.1 0 0 12.7 0 24.8 0 36.7 21.6 0 42.9 0 64.3 0 0-12.3 0-24.3 0-36.7-11.3 0-22.2 0-34.2 0z"/>
	<path id="Layer" class="s1" d="m818 533q0 50.5 0 101-408.5 0-817 0c0-10.1 0-20.1 0.5-30.5 101.2-0.5 202.1-0.5 302.9-0.5q252.2 0 504.3 0c7.3 0 7.3 0 7.3-7.2 0-19.1-0.1-38.3 0.1-57.4 0-1.8 1.2-3.6 1.9-5.4z"/>
	<path id="Layer" class="s2" d="m817 532.5c-0.7 2.3-1.9 4.1-1.9 5.9-0.2 19.1-0.1 38.3-0.1 57.4 0 7.2 0 7.2-7.3 7.2q-252.1 0-504.3 0c-100.8 0-201.7 0-302.9 0-0.5-2-0.5-4.1-0.5-6.6 190.3-0.4 380.5-0.4 570.8-0.4 1.8 0 3.8 0.4 5.4-0.2 1.5-0.5 3-2.1 3.6-3.6 0.6-1.4 0.2-3.2 0.2-4.9q0-149.9 0-299.9c0-1.8-0.4-3.8 0.2-5.4 0.4-1.2 2.1-2.7 3.3-2.7 1.1 0 2.8 1.5 3.3 2.7 0.5 1.6 0.2 3.6 0.2 5.4q0 149.7 0 299.4c0 7.2 0 7.2 7.4 7.2q32.5 0 65 0c2 0 3.9-0.3 6.2-1.2 0.4-105.3 0.4-209.8 0.4-314.3 0-0.8-0.1-1.7-0.1-2.5 0-4.7-0.2-9.3 0.2-14 0.2-4-1.3-5.1-5.2-5.1-23.3 0.2-46.6 0.1-70 0.1-2.6 0-5.4 0.5-7.9-0.2-1.8-0.5-3.3-2.5-4.9-3.8 1.7-1.3 3.2-2.8 5-3.9 0.9-0.5 2.3-0.1 3.4-0.1q39.8 0 79.5 0c7.9 0 8 0 8 8.2q0 165 0 330c0 9.9-1.1 8.7 8.8 8.8 12 0 24-0.2 35.9 0.1 4.3 0.1 5.5-1.4 5.4-5.5-0.6-11.4-1-22.9-1.1-34.3q-0.1-152.3 0.1-304.5c0-2.8-2.1-7.7 3.5-7.6 5.4 0.1 3.3 5 3.3 7.8 0.4 112.6 0.8 225.2 1 337.8 0 5.3 1.7 6.4 6.5 6.3 21.3-0.2 42.7-0.1 64-0.1 6.6 0 6.6 0 6.6-6.5 0-99.5-0.1-199 0-298.5 0.1-21.3 0.7-42.5 1-63.8 0.1-7.2 0-7.2-6.9-7.2q-44.5 0-89 0c-1.5 0-3.2 0.3-4.5-0.3-1.1-0.4-2.4-2-2.3-3 0.1-1.3 1.3-2.9 2.5-3.5 1.2-0.6 2.9-0.2 4.4-0.2 31 0 62-0.1 93 0.1 3.3 0.1 6.7 1.9 10.4 2.9 0.4 105.4 0.4 210.7 0.4 316.5z"/>
	<path id="Layer copy 3" class="s3" d="m695 532.5c-0.7 2.3-1.9 4.1-1.9 5.9-0.2 19.1-0.1 38.3-0.1 57.4 0 7.2 0 7.2-7.3 7.2q-252.1 0-504.3 0c-100.8 0-201.7 0-302.9 0-0.5-2-0.5-4.1-0.5-6.6 190.3-0.4 380.5-0.4 570.8-0.4 1.8 0 3.8 0.4 5.4-0.2 1.5-0.5 3-2.1 3.6-3.6 0.6-1.4 0.2-3.2 0.2-4.9q0-149.9 0-299.9c0-1.8-0.4-3.8 0.2-5.4 0.4-1.2 2.1-2.7 3.3-2.7 1.1 0 2.8 1.5 3.3 2.7 0.5 1.6 0.2 3.6 0.2 5.4q0 149.7 0 299.4c0 7.2 0 7.2 7.4 7.2q32.5 0 65 0c2 0 3.9-0.3 6.2-1.2 0.4-105.3 0.4-209.8 0.4-314.3 0-0.8-0.1-1.7-0.1-2.5 0-4.7-0.2-9.3 0.2-14 0.2-4-1.3-5.1-5.2-5.1-23.3 0.2-46.6 0.1-70 0.1-2.6 0-5.4 0.5-7.9-0.2-1.8-0.5-3.3-2.5-4.9-3.8 1.7-1.3 3.2-2.8 5-3.9 0.9-0.5 2.3-0.1 3.4-0.1q39.8 0 79.5 0c7.9 0 8 0 8 8.2q0 165 0 330c0 9.9-1.1 8.7 8.8 8.8 12 0 24-0.2 35.9 0.1 4.3 0.1 5.5-1.4 5.4-5.5-0.6-11.4-1-22.9-1.1-34.3q-0.1-152.3 0.1-304.5c0-2.8-2.1-7.7 3.5-7.6 5.4 0.1 3.3 5 3.3 7.8 0.4 112.6 0.8 225.2 1 337.8 0 5.3 1.7 6.4 6.5 6.3 21.3-0.2 42.7-0.1 64-0.1 6.6 0 6.6 0 6.6-6.5 0-99.5-0.1-199 0-298.5 0.1-21.3 0.7-42.5 1-63.8 0.1-7.2 0-7.2-6.9-7.2q-44.5 0-89 0c-1.5 0-3.2 0.3-4.5-0.3-1.1-0.4-2.4-2-2.3-3 0.1-1.3 1.3-2.9 2.5-3.5 1.2-0.6 2.9-0.2 4.4-0.2 31 0 62-0.1 93 0.1 3.3 0.1 6.7 1.9 10.4 2.9 0.4 105.4 0.4 210.7 0.4 316.5z"/>
	<path id="Layer" fill-rule="evenodd" class="s4" d="m627 590.9c0-116.1 0-231.8 0-347.6 20 0 39.6 0 59.6 0 0 117.2 0 234.6 0 352.4-19.6 0-39.3 0-59.4 0 0-1.5-0.1-2.9-0.2-4.8zm18.6-191.7c-4.7 3.5-4.9 9.8-0.3 15.5 0.7 1 2.2 2.2 3.1 1.9 1.1-0.2 2.5-1.5 3-2.7 2.1-4.8-0.4-11.7-5.8-14.7zm10.4-47.5c-0.8-1.6-1.1-3.9-2.4-4.6-2.1-1.4-4.8-1.7-7.3-2.4-0.7 2.3-2.6 5.5-1.8 6.8 1.7 2.7 4.9 4.2 7.5 6.3 1.4-1.8 2.7-3.5 4-6.1zm-6 216.9c-0.2-3.6 0.5-7.5-3.1-10.3-4.5 6-4 18.8 1.9 23.3 0.5-4.6 0.9-8.3 1.2-13zm27.5-78.4c-1.6 0.3-4.6 0.3-4.7 1-0.8 3.2-1.5 6.8-0.9 10 0.5 3 3.6 3.6 4.7 0.4 1.3-3.3 1-7.2 0.9-11.4zm-14-33.7c-1.9-2.3-3.4-5.9-7.3-3-2.7 2-2.6 5.9 0.4 8.5 1.3 1.1 3.5 1.2 5.3 1.7 0.6-2.2 1.3-4.3 1.6-7.2zm16.1-113.2c-3.8-1.8-4.9 1.1-5.4 3.7-0.5 3.2-1.1 7 2.9 8.5 1 0.4 4-1.4 4-2.3 0.1-3.1-0.6-6.3-1.5-9.9zm-40.9-43.4c0.2 5.8-5.6 11.8 1 17.6 1.5-5.1 2.3-10.3 2.6-15.5 0-0.9-2.1-1.8-3.6-2.1zm39.3 251.8c3.2 0.8 5.5-0.7 5.8-3.7 0.1-2.3-1-4.8-2-7.1-0.2-0.3-3.8 0.1-4.1 0.9-1 2.5-1.2 5.3-1.6 8.1 0 0.4 0.8 0.9 1.9 1.8zm-34.9-33.7c4.3 1.4 5.5-1.5 5.7-4.6 0.1-1.3-1.9-4.1-2.9-4-3.7 0.1-4.1 3.1-3.9 6.1 0.1 0.7 0.4 1.3 1.1 2.5zm9.8-204.5c-0.6-2-1.3-4-2.2-6.6-4.7 5.6-4.3 8.8 1 11.6 0.5-1.5 0.8-2.8 1.2-5zm20.2 102.8q2.6 0 5.2-0.1c-0.2-1.6 0-3.8-0.9-4.7-1-1-3.2-0.6-4.9-0.9 0 1.7 0.1 3.5 0.6 5.7z"/>
	<path id="Layer" fill-rule="evenodd" class="s4" d="m544.4 277c0.5 0.8 0.6 1.7 0.6 2.5 0 104.5 0 209-0.1 314-19.8 0.5-39.6 0.5-59.6 0.5 0-105.7 0-211 0-317 19.5 0 39.1 0 59.1 0zm-39.4 272.6c0.1 7.2-0.8 14.6 3.9 21.4 4.7-7.1 4.2-29.1-0.7-34.9-3.2 3.8-2.8 8.3-3.2 13.5zm2-195.2c1.6 1.1 3.1 2.9 4.9 3.2 1.7 0.3 4.9-0.3 5.5-1.5 1.8-3.7 0.3-7.1-2.7-9.8-2.4-2.1-5.2-3.6-8-1.2-2.9 2.6-1.8 5.7 0.3 9.3zm1.1 45.1c-0.8-2.7-1.2-5.5-2.4-7.9-0.6-1.2-2.8-2.4-3.9-2.2-1.2 0.3-2.5 2.3-2.6 3.7-0.2 2.7-0.2 5.8 0.8 8.3 0.9 2.1 3.3 3.5 5.1 5.2 1-2.1 2-4.1 3-7.1zm33 139.8c0.5-4.4 1.6-8.9 1.3-13.3-0.1-3.4-3.4-3.9-5.7-1.4-2.7 3.1-3.4 11.4-0.7 14.4 0.8 0.9 3 0.6 5.1 0.3zm-5.3-198.8c-4.1 4.3-4.7 7.9-1.9 11.9 2.1 2.9 4.3 2.8 6.2-0.2 2.3-3.9 0.6-9.4-4.3-11.7zm-3.8 147.2c-4.5 3.1-4.7 7.5-3.4 11.9 0.3 1.2 3.3 2.8 4.2 2.4 4.3-2.2 4-11.4-0.8-14.3zm-23.1-20c-1.8 1-5.2 2.2-5.1 2.8 0.4 2.7 1.6 5.5 3.2 7.6 0.6 0.8 4.6 0.3 4.7-0.2 0.5-2.4 0.5-5 0.2-7.5-0.1-0.8-1.6-1.6-3-2.7zm5.8-145.4c1.2-0.4 3.3-0.5 3.4-1.1 0.9-3.3 0.5-6.3-2.6-8.8-3 3.1-2.7 6.1-0.8 9.9zm12.2 87.3c-3.4-0.9-5.7 0-4.3 3.8 0.5 1.3 3.5 3 4.5 2.6 3-1.3 2.5-3.8-0.2-6.4z"/>
	<path id="Layer" fill-rule="evenodd" class="s4" d="m368.9 593.9q0.1-98.1 0.1-196.3c0-2 0-4 0-6.6 18.8 0 37.4 0 56.6 0.4 0.8 14.4 1 28.5 0.9 42.8-0.3 0.8-0.4 1.4-0.8 1.7-2-1.2-3.9-2.1-5.7-3.1-0.7 1.8-2 3.6-2.1 5.5 0 1 2.4 3.3 3.1 3 1.8-0.5 3.3-2.2 5.1-3.3 0.2 0 0.6 0.1 0.6 0.6 0.1 35.3 0.1 70.1 0.1 105 0 1.7-0.6 3.5-1.3 5.4-1.6 2.3-3.6 4.5-3.8 6.9-0.1 1.2 2.8 2.8 4.6 4.5 0.3 10 0.3 19.6 0.6 29.3 0.1 4-1 5.5-5.3 5.4-15.8-0.2-31.6-0.1-47.4-0.1-1.8-0.1-3.5-0.7-5.3-1.1zm21.9-14.7c0.4-0.2 1.2-0.2 1.3-0.4 2.4-6.6 2.4-13.2 0.5-19.9-0.2-0.6-1.4-1.6-1.7-1.4-0.9 0.4-2.3 1.2-2.3 2-0.6 6.5-2.2 13.2 2.2 19.7zm-0.3-113.9c-1.5-2.9-3.6-5.3-7-3.5-1.2 0.7-2.3 4.1-1.7 5.2 1.5 2.2 4 5.2 6.2 5.3 3.4 0.1 3.2-3.5 2.5-7zm-7.8-32.5c2.8 1.4 5.5 3.1 8.5 3.9 0.7 0.2 2.2-2.4 3.3-3.8-2.3-1.5-4.5-3.7-7.1-4.5-2.2-0.7-5 0.2-4.7 4.4zm28.9 94.7c-0.8 4.9 0.9 8.3 3.6 6.8 1.6-0.8 2.9-3.1 3.4-4.9 0.3-1.3-0.9-4.1-1.6-4.2-1.6-0.1-3.3 1-5.4 2.3zm-16.7-11.8c-2-1.2-3.8-3.1-5.8-3.4-2.7-0.3-3.9 2.1-2.5 4.3 0.9 1.4 3.1 2.6 4.7 2.8 1.1 0.1 2.4-1.9 3.6-3.7zm16.5-37.2c2.2-3-0.2-3.9-2.3-4.2-1.2-0.2-2.5 0.9-3.8 1.4 1.1 1.1 2.2 2.2 3.5 3.2 0.4 0.3 1.3-0.1 2.6-0.4zm-16.2-66.8c-3.5-0.1-3.2 2.2-2.5 4.3 0.4 1 1.8 1.5 2.8 2.2 0.3-1.6 0.7-3.2 1-4.8 0-0.4-0.5-0.9-1.3-1.7z"/>
	<path id="Layer" fill-rule="evenodd" class="s4" d="m194 597.1c-18.5 0-36.9 0-55.7 0 0-27.8 0-55.1 0-83.1 18.3 0 36.5 0 55.5 0.2 0.9 13.7 1 27.3 0.9 40.8-0.5 0.3-0.7 0.5-1.2 0.9-5 4.7-4.7 8.5 0.7 11.2 0.2 0 0.7 0 0.7 0.4 0.1 8 0.2 15.5 0.1 23 0 2.2-0.7 4.4-1 6.6zm-38-19.9c0.6 2.9 1.2 5.7 2 9.3 5.6-5.4 5.3-18.8-0.7-23.9-0.5 5.2-0.9 9.5-1.3 14.6zm24.2-43.3q0.4 3.3 0.8 6.6c1.6-0.4 4.3-0.5 4.5-1.4 0.7-2.1 0.1-4.5 0.1-6.8-1.7 0.3-3.3 0.6-5.4 1.6zm-24.1-8.6q3-0.1 6.1-0.2c-0.2-1.6 0.1-4.2-0.7-4.6-1.8-0.8-4.2-0.6-6.3-0.8 0.1 1.7 0.2 3.5 0.9 5.6z"/>
	<path id="Layer" class="s5" d="m668.5 666c2.2 0.3 3.9 0.9 5.7 1 15.8 0 31.6-0.1 47.4 0.1 4.3 0.1 5.4-1.4 5.3-5.4-0.3-9.7-0.3-19.3-0.6-29.8-0.3-4.2-0.4-7.6-0.5-11 0.4-1.8 1-3.6 1-5.3 0-34.9 0-69.7 0.1-105.4-0.1-2-0.1-3.1-0.2-4.2-0.1-14.1-0.3-28.2-0.6-42.7-0.1-3.3-0.3-6.4 0-9.3 0.4-4.1-1.5-5.1-5.2-5.1-24.5 0.2-49 0.1-73.5 0.1-1.5 0-3.2 0.4-4.4-0.2-1.3-0.6-2-2.2-2.9-3.3 1-0.9 1.9-1.9 3-2.4 0.9-0.4 2-0.1 3-0.1q40 0 80 0c6.4 0 6.9 0.4 6.9 6.8q0 107.7 0 215.4c0 6.9-1 7.8-7.8 7.8-26.3 0-52.6-0.1-79 0.1-4.7 0-6.3-1.4-6.3-6.3 0.1-65.3 0.1-130.6 0.1-195.9 0-1-0.3-2.2 0.2-2.9 0.6-1.1 1.9-2.7 2.8-2.6 1 0 2.4 1.5 2.8 2.6 0.5 1.5 0.2 3.3 0.2 5q0 92.9 0 185.9c0 7.1 0 7.1 7 7.1 5 0 10 0 15.5 0z"/>
	<path id="Layer" fill-rule="evenodd" class="s3" d="m316 544c0 17-0.1 33.5 0.1 50 0 4.6-1.5 6.1-6.1 6.1q-40.5-0.3-81 0c-4.5 0-6.1-1.4-6.1-6q0.2-79 0-158c0-4.7 1.8-6.2 6.2-6.1 26.8 0 53.6 0 80.5 0 5.5 0 6.4 1 6.4 7 0 35.5 0 71 0 107zm-7-94c0-2.3-0.2-4.7 0-6.9 0.7-4.9-1.2-6.3-6.1-6.2-22.4 0.2-44.9 0.2-67.4 0-4.4 0-5.6 1.3-5.6 5.7 0.2 23.1 0.1 46.3 0.1 69.4 0 25.6 0.1 51.3-0.1 76.9 0 3.9 1.1 5.4 5.1 5.2 5.7-0.3 11.3-0.2 17.9 0 17.6 0 35.2 0 52.8 0.2 3.3 0 4.3-1.1 4.3-4.3-0.2-10-0.1-20 0.3-30.6-0.2-3.8-0.3-7.7-0.4-12.4 0-30.3 0-60.5 0-90.8 0-1.7-0.6-3.5-0.9-6.2z"/>
	<path id="Layer" class="s4" d="m66 559c11.5 0 22.4 0 33.7 0 0 12.4 0 24.4 0 36.7-21.4 0-42.7 0-64.3 0 0-11.9 0-24 0-36.7 9.9 0 20 0 30.6 0z"/>
	<path id="Layer" class="s3" d="m116 508c0-3 0-5.5 0-8 0.1-6.2 0.8-7.1 6.9-7 10.2 0.2 20.5 0.8 30.8 1 8 0.1 16-0.2 24 0.2 1.6 0 3.2 1.9 4.9 2.9-1.6 0.6-3.1 1.8-4.6 1.8-14.3 0.5-28.6 0.8-42.8 1.1-7.2 0.1-7.2 0-7.2 6.9 0 29.2 0 58.3 0 87.4 0 4.1-0.9 6.6-5.7 6.8-4.7 0.2-6.4-1.3-6.4-6.2 0.2-28.8 0.1-57.6 0.1-86.9z"/>
	<path id="Layer" class="s3" d="m51 542c17.1 0 33.6 0 50.6 0 0.1 1.9 0.4 3.4 0.4 4.8 0 16.5 0.1 33-0.1 49.5 0 1.5-1.5 3-2.3 4.5-0.9-1.5-2.5-3-2.5-4.6-0.2-14.3-0.2-28.6 0-43 0.1-4.2-1.4-5.4-5.5-5.3q-34.1 0.8-68.3 1c-3.8 0.1-4.4 1.8-4.3 4.9 0.1 13.2-0.1 26.3 0.1 39.5 0 4.3-1.4 5.8-5.8 5.8-4.3 0-5.4-1.7-5.4-5.7 0.2-15.3 0.2-30.6 0-46 0-4.9 2.4-6.5 6.7-6.4 12 0.3 24 0.7 36.4 1z"/>
	<path id="Layer" class="s3" d="m193 595.5c0.3-2.6 1-4.8 1-7 0.1-7.5 0-15 0.2-23.3 0-4.6-0.2-8.4-0.3-12.2-0.1-13.5-0.2-27.1-0.6-40.8-0.3-5.8-0.5-11.3-0.1-16.8 0.1-1.5 2.1-2.9 3.3-4.3 1.2 1.4 3.3 2.8 3.3 4.3q0.3 49.7 0 99.4c0 1.7-2.3 3.4-3.5 5.1-1.1-1.4-2.2-2.7-3.3-4.4z"/>
	<path id="Layer" class="s6" d="m646 399.2c5 3 7.5 9.9 5.4 14.7-0.5 1.2-1.9 2.5-3 2.7-0.9 0.3-2.4-0.9-3.1-1.9-4.6-5.7-4.4-12 0.7-15.5z"/>
	<path id="Layer" class="s6" d="m656 352.1c-1.3 2.2-2.6 3.9-4 5.7-2.6-2.1-5.8-3.6-7.5-6.3-0.8-1.3 1.1-4.5 1.8-6.8 2.5 0.7 5.2 1 7.3 2.4 1.3 0.7 1.6 3 2.4 5z"/>
	<path id="Layer" class="s7" d="m650 569.1c-0.3 4.2-0.7 7.9-1.2 12.5-5.9-4.5-6.4-17.3-1.9-23.3 3.6 2.8 2.9 6.7 3.1 10.8z"/>
	<path id="Layer" class="s6" d="m677.8 490.5c-0.2 3.9 0.1 7.8-1.2 11.1-1.1 3.2-4.2 2.6-4.7-0.4-0.6-3.2 0.1-6.8 0.9-10 0.1-0.7 3.1-0.7 5-0.7z"/>
	<path id="Layer" class="s6" d="m663.7 456.8c-0.5 2.6-1.2 4.7-1.8 6.9-1.8-0.5-4-0.6-5.3-1.7-3-2.6-3.1-6.5-0.4-8.5 3.9-2.9 5.4 0.7 7.5 3.3z"/>
	<path id="Layer" class="s6" d="m679.9 343.5c0.6 3.4 1.3 6.6 1.2 9.7 0 0.9-3 2.7-4 2.3-4-1.5-3.4-5.3-2.9-8.5 0.5-2.6 1.6-5.5 5.7-3.5z"/>
	<path id="Layer" class="s7" d="m638.9 298.6c1.3 0.6 3.4 1.5 3.4 2.4-0.3 5.2-1.1 10.4-2.6 15.5-6.6-5.8-0.8-11.8-0.8-17.9z"/>
	<path id="Layer" class="s7" d="m677.7 551.5c-0.8-0.7-1.6-1.2-1.6-1.6 0.4-2.8 0.6-5.6 1.6-8.1 0.3-0.8 3.9-1.2 4.1-0.9 1 2.3 2.1 4.8 2 7.1-0.3 3-2.6 4.5-6.1 3.5z"/>
	<path id="Layer" class="s7" d="m642.9 517.7c-0.5-0.9-0.8-1.5-0.9-2.2-0.2-3 0.2-6 3.9-6.1 1-0.1 3 2.7 2.9 4-0.2 3.1-1.4 6-5.9 4.3z"/>
	<path id="Layer" class="s7" d="m652.9 313.9c-0.4 1.8-0.7 3.1-1.2 4.6-5.3-2.8-5.7-6-1-11.6 0.9 2.6 1.6 4.6 2.2 7z"/>
	<path id="Layer" class="s8" d="m672.9 416c-0.3-1.9-0.4-3.7-0.4-5.4 1.7 0.3 3.9-0.1 4.9 0.9 0.9 0.9 0.7 3.1 0.9 4.7-1.7 0.1-3.4 0.1-5.4-0.2z"/>
	<path id="Layer" class="s9" d="m505 549.2c0.4-4.8 0-9.3 3.2-13.1 4.9 5.8 5.4 27.8 0.7 34.9-4.7-6.8-3.8-14.2-3.9-21.8z"/>
	<path id="Layer" class="s6" d="m506.8 354.1c-1.9-3.3-3-6.4-0.1-9 2.8-2.4 5.6-0.9 8 1.2 3 2.7 4.5 6.1 2.7 9.8-0.6 1.2-3.8 1.8-5.5 1.5-1.8-0.3-3.3-2.1-5.1-3.5z"/>
	<path id="Layer" class="s6" d="m508.1 401c-1 2.5-2 4.5-3 6.6-1.8-1.7-4.2-3.1-5.1-5.2-1-2.5-1-5.6-0.8-8.3 0.1-1.4 1.4-3.4 2.6-3.7 1.1-0.2 3.3 1 3.9 2.2 1.2 2.4 1.6 5.2 2.4 8.4z"/>
	<path id="Layer" class="s6" d="m540.8 539.6c-1.8 0-4 0.3-4.8-0.6-2.7-3-2-11.3 0.7-14.4 2.3-2.5 5.6-2 5.7 1.4 0.3 4.4-0.8 8.9-1.6 13.6z"/>
	<path id="Layer" class="s7" d="m536.2 340.5c4.5 2.3 6.2 7.8 3.9 11.7-1.9 3-4.1 3.1-6.2 0.2-2.8-4-2.2-7.6 2.3-11.9z"/>
	<path id="Layer" class="s7" d="m532.3 487.7c4.5 2.9 4.8 12.1 0.5 14.3-0.9 0.4-3.9-1.2-4.2-2.4-1.3-4.4-1.1-8.8 3.7-11.9z"/>
	<path id="Layer" class="s9" d="m509.2 467.9c1.1 0.9 2.6 1.7 2.7 2.5 0.3 2.5 0.3 5.1-0.2 7.5-0.1 0.5-4.1 1-4.7 0.2-1.6-2.1-2.8-4.9-3.2-7.6-0.1-0.6 3.3-1.8 5.4-2.6z"/>
	<path id="Layer" class="s8" d="m514.5 322c-1.7-3.5-2-6.5 1-9.6 3.1 2.5 3.5 5.5 2.6 8.8-0.1 0.6-2.2 0.7-3.6 0.8z"/>
	<path id="Layer" class="s7" d="m527.2 408.8c2.4 2.4 2.9 4.9-0.1 6.2-1 0.4-4-1.3-4.5-2.6-1.4-3.8 0.9-4.7 4.6-3.6z"/>
	<path id="Layer" class="s7" d="m390.5 579c-4.1-6.3-2.5-13-1.9-19.5 0-0.8 1.4-1.6 2.3-2 0.3-0.2 1.5 0.8 1.7 1.4 1.9 6.7 1.9 13.3-0.5 19.9-0.1 0.2-0.9 0.2-1.6 0.2z"/>
	<path id="Layer" class="s6" d="m390.6 465.7c0.6 3.1 0.8 6.7-2.6 6.6-2.2-0.1-4.7-3.1-6.2-5.3-0.6-1.1 0.5-4.5 1.7-5.2 3.4-1.8 5.5 0.6 7.1 3.9z"/>
	<path id="Layer" class="s7" d="m382.6 432.5c-0.2-3.9 2.6-4.8 4.8-4.1 2.6 0.8 4.8 3 7.1 4.5-1.1 1.4-2.6 4-3.3 3.8-3-0.8-5.7-2.5-8.6-4.2z"/>
	<path id="Layer" class="s8" d="m411.8 527.2c1.9-1 3.6-2.1 5.2-2 0.7 0.1 1.9 2.9 1.6 4.2-0.5 1.8-1.8 4.1-3.4 4.9-2.7 1.5-4.4-1.9-3.4-7.1z"/>
	<path id="Layer" class="s9" d="m425.9 437.9c-1.6 1.2-3.1 2.9-4.9 3.4-0.7 0.3-3.1-2-3.1-3 0.1-1.9 1.4-3.7 2.1-5.5 1.8 1 3.7 1.9 5.7 3.4 0.2 0.9 0.2 1.3 0.2 1.7z"/>
	<path id="Layer" class="s6" d="m394.9 516.1c-1.2 1.4-2.5 3.4-3.6 3.3-1.6-0.2-3.8-1.4-4.7-2.8-1.4-2.2-0.2-4.6 2.5-4.3 2 0.3 3.8 2.2 5.8 3.8z"/>
	<path id="Layer" class="s6" d="m423.5 550c0.4 3.3 0.5 6.7 0.5 10.6-1.5-0.9-4.4-2.5-4.3-3.7 0.2-2.4 2.2-4.6 3.8-6.9z"/>
	<path id="Layer" class="s8" d="m411 478.6c-0.9 0.2-1.8 0.6-2.2 0.3-1.3-1-2.4-2.1-3.5-3.2 1.3-0.5 2.6-1.6 3.8-1.4 2.1 0.3 4.5 1.2 1.9 4.3z"/>
	<path id="Layer" class="s8" d="m395.5 411.9c0.5 0.6 1 1.1 1 1.5-0.3 1.6-0.7 3.2-1 4.8-1-0.7-2.4-1.2-2.8-2.2-0.7-2.1-1-4.4 2.8-4.1z"/>
	<path id="Layer" class="s10" d="m526.1 429c-0.2-0.5-0.2-0.9-0.2-1.5 0.2-0.9 0.3-1.5 0.6-2.3 0.3 0.9 0.3 2 0.3 3.5-0.1 0.4-0.5 0.3-0.7 0.3z"/>
	<path id="Layer" class="s9" d="m156 575.8c0.4-4.7 0.8-9 1.3-14.2 6 5.1 6.3 18.5 0.7 23.9-0.8-3.6-1.4-6.4-2-9.7z"/>
	<path id="Layer" class="s8" d="m180.4 533.6c1.9-0.7 3.5-1 5.2-1.3 0 2.3 0.6 4.7-0.1 6.8-0.2 0.9-2.9 1-4.5 1.4-0.3-2.2-0.6-4.4-0.6-6.9z"/>
	<path id="Layer" class="s6" d="m155.8 525.1c-0.4-1.9-0.5-3.7-0.6-5.4 2.1 0.2 4.5 0 6.3 0.8 0.8 0.4 0.5 3 0.7 4.6-2 0.1-4.1 0.2-6.4 0z"/>
	<path id="Layer" class="s9" d="m194 566.1c-5.2-2.7-5.5-6.5-0.5-10.7 0.5 3.8 0.5 7.2 0.5 10.7z"/>
	<path id="Layer" class="s11" d="m193.2 565.1c-0.2-3.5-0.2-6.9-0.3-10.9 0.1-0.7 0.3-0.9 0.8-1.2 0.3 3.8 0.5 7.6 0.4 11.7-0.2 0.4-0.7 0.4-0.9 0.4z"/>
	<path id="Layer" fill-rule="evenodd" class="s4" d="m310.8 561.1c0.1 9.9 0 19.9 0.2 29.9 0 3.2-1 4.3-4.3 4.3-17.6-0.2-35.2-0.2-53.2-0.8-0.5-47.7-0.5-94.9-0.5-142.5 19.4 0 38.1 0 56.9 0 0.4 1.7 1 3.5 1 5.2 0 30.3 0 60.5-0.3 91.2-0.2 0.5-0.6 0.6-0.9 0.7-5.8 4.8-5.6 8.9 0.5 11.9 0.2 0 0.6 0.1 0.6 0.1zm-32.8 4.7c-0.5-3.1-0.1-6.6-3.6-8.5-4 6-3.4 18.6 2.2 23.1 0.5-5.1 0.9-9.4 1.4-14.6zm-9.3-104.4c-0.7 0.5-1.6 0.9-1.9 1.6-1.7 3.4-0.9 6.7 2 8.8 1.2 0.8 4.4 0.5 5.1-0.4 2.2-3 0.9-6-1.5-8.4-0.8-0.8-2-1.1-3.7-1.6zm6.7 58.5q2-1.5 4-3c-1.4-1.5-2.5-3.5-4.3-4.3-1.2-0.5-3.5 0.2-4.8 1.2-0.6 0.4-0.2 3 0.5 4.1 0.8 1 2.6 1.3 4.6 2zm27.5 9.6c-1.3-4.6-3.4-5.7-5.7-3-1.2 1.4-1.5 3.8-1.6 5.8 0 0.8 2.4 2.4 2.6 2.3 1.7-1.3 3.1-2.9 4.7-5.1zm-12.6-54.7c-2.1 2.5-0.4 3.7 1.7 4 1.1 0.2 2.4-0.9 3.7-1.3-1.1-1-2.2-2.1-3.4-3-0.3-0.2-0.9 0-2 0.3z"/>
	<path id="Layer" class="s1" d="m382 445.5c-18.9 0.5-37.6 0.5-57 0.5 0 47.6 0 94.8 0 142.4-5.7 0.5-11.3 0.4-17 0.7-4 0.2-5.1-1.3-5.1-5.2 0.2-25.6 0.1-51.3 0.1-76.9 0-23.1 0.1-46.3-0.1-69.4 0-4.4 1.2-5.7 5.6-5.7 22.5 0.2 45 0.2 67.4 0 4.9-0.1 6.8 1.3 6.1 6.2-0.2 2.2 0 4.6 0 7.4z"/>
	<path id="Layer" class="s12" d="m310.1 560.7c-0.3 0.4-0.7 0.3-0.9-0.2-0.2-4.2-0.2-7.8-0.2-11.5 0 0 0.4-0.1 0.6-0.1 0.4 3.8 0.5 7.7 0.5 11.8z"/>
	<path id="Layer" class="s9" d="m278 566.3c-0.5 4.7-0.9 9-1.4 14.1-5.6-4.5-6.2-17.1-2.2-23.1 3.5 1.9 3.1 5.4 3.6 9z"/>
	<path id="Layer" class="s9" d="m269 461.4c1.4 0.5 2.6 0.8 3.4 1.6 2.4 2.4 3.7 5.4 1.5 8.4-0.7 0.9-3.9 1.2-5.1 0.4-2.9-2.1-3.7-5.4-2-8.8 0.3-0.7 1.2-1.1 2.2-1.6z"/>
	<path id="Layer" class="s8" d="m275.1 519.9c-1.7-0.7-3.5-1-4.3-2-0.7-1.1-1.1-3.7-0.5-4.1 1.3-1 3.6-1.7 4.8-1.2 1.8 0.8 2.9 2.8 4.3 4.3-1.3 1-2.6 2-4.3 3z"/>
	<path id="Layer" class="s7" d="m302.9 529.8c-1.6 1.9-3 3.5-4.7 4.8-0.2 0.1-2.6-1.5-2.6-2.3 0.1-2 0.4-4.4 1.6-5.8 2.3-2.7 4.4-1.6 5.7 3.3z"/>
	<path id="Layer" class="s7" d="m308.7 549.1c0.3 3.6 0.3 7.2 0.3 11.3-5.9-2.4-6.1-6.5-0.3-11.3z"/>
	<path id="Layer" class="s6" d="m290.6 474.7c0.8-0.2 1.4-0.4 1.7-0.2 1.2 0.9 2.3 2 3.4 3-1.3 0.4-2.6 1.5-3.7 1.3-2.1-0.3-3.8-1.5-1.4-4.1z"/>
	<text id="" style="transform: matrix(1,0,0,1,33.5,513.5)" >
	</text>
	<text id="25" style="transform: matrix(1,0,0,1,45,526)" >
		<tspan x="0" y="0" class="t13">2</tspan><tspan  y="0" class="t13">5
</tspan>
	</text>
	<text id="250" style="transform: matrix(1,0,0,1,247.5,423.5)" >
		<tspan x="0" y="0" class="t13">2</tspan><tspan  y="0" class="t13">5</tspan><tspan  y="0" class="t13">0
</tspan>
	</text>
	<text id="560" style="transform: matrix(1,0,0,1,364.5,360.5)" >
		<tspan x="0" y="0" class="t13">5</tspan><tspan  y="0" class="t13">6</tspan><tspan  y="0" class="t13">0
</tspan>
	</text>
	<text id="850" style="transform: matrix(1,0,0,1,481.5,240)" >
		<tspan x="0" y="0" class="t13">8</tspan><tspan  y="0" class="t13">5</tspan><tspan  y="0" class="t13">0</tspan><tspan  y="0" class="t13">
</tspan>
	</text>
	<text id="1500*" style="transform: matrix(1,0,0,1,614.5,203.5)" >
		<tspan x="0" y="0" class="t13">1</tspan><tspan  y="0" class="t13">5</tspan><tspan  y="0" class="t13">0</tspan><tspan  y="0" class="t13">0</tspan><tspan  y="0" class="t13">*</tspan><tspan  y="0" class="t13">
</tspan>
	</text>
	<text id="" style="transform: matrix(1,0,0,1,178,541)" >
	</text>
	<text id="" style="transform: matrix(1,0,0,1,488.5,728.5)" >
	</text>
	<text id="" style="transform: matrix(1,0,0,1,601,-178)" >
	</text>
	<text id="" style="transform: matrix(1,0,0,1,186.5,467)" >
	</text>
	<text id="" style="transform: matrix(1,0,0,1,1067.5,223)" >
	</text>
	<text id="" style="transform: matrix(1,0,0,1,39.5,512.5)" >
	</text>
	<text id="56" style="transform: matrix(1,0,0,1,145,485.5)" >
		<tspan x="0" y="0" class="t13">5</tspan><tspan  y="0" class="t13">6
</tspan>
	</text>
	<text id="2018" style="transform: matrix(1,0,0,1,33.5,633)" >
		<tspan x="0" y="0" class="t13">2</tspan><tspan  y="0" class="t13">0</tspan><tspan  y="0" class="t13">1</tspan><tspan  y="0" class="t13">8
</tspan>
	</text>
	<text id="2019" style="transform: matrix(1,0,0,1,134.5,632.5)" >
		<tspan x="0" y="0" class="t13">2</tspan><tspan  y="0" class="t13">0</tspan><tspan  y="0" class="t13">1</tspan><tspan  y="0" class="t13">9
</tspan>
	</text>
	<text id="2020" style="transform: matrix(1,0,0,1,247.5,635.5)" >
		<tspan x="0" y="0" class="t13">2</tspan><tspan  y="0" class="t13">0</tspan><tspan  y="0" class="t13">2</tspan><tspan  y="0" class="t13">0
</tspan>
	</text>
	<text id="2021" style="transform: matrix(1,0,0,1,373,634.5)" >
		<tspan x="0" y="0" class="t13">2</tspan><tspan  y="0" class="t13">0</tspan><tspan  y="0" class="t13">2</tspan><tspan  y="0" class="t13">1</tspan><tspan  y="0" class="t13">
</tspan>
	</text>
	<text id="2022" style="transform: matrix(1,0,0,1,485.5,635.5)" >
		<tspan x="0" y="0" class="t13">2</tspan><tspan  y="0" class="t13">0</tspan><tspan  y="0" class="t13">2</tspan><tspan  y="0" class="t13">2
</tspan>
	</text>
	<text id="2023" style="transform: matrix(1,0,0,1,626,636.5)" >
		<tspan x="0" y="0" class="t13">2</tspan><tspan  y="0" class="t13">0</tspan><tspan  y="0" class="t13">2</tspan><tspan  y="0" class="t13">3
</tspan>
	</text>
</svg>