<svg width="813" height="496" viewBox="0 0 813 496" fill="none" xmlns="http://www.w3.org/2000/svg">
<path fill-rule="evenodd" clip-rule="evenodd" d="M560.702 439.218H632.073V195.386H560.702V439.218Z" fill="#FF7043"/>
<path fill-rule="evenodd" clip-rule="evenodd" d="M623.747 386.434C625.531 382.889 629.099 381.707 631.478 383.677C632.744 385.162 633.507 386.813 633.712 388.514C633.917 390.214 633.561 391.924 632.668 393.524C630.884 397.07 627.315 398.251 624.936 396.282C623.67 394.796 622.908 393.145 622.703 391.445C622.497 389.744 622.853 388.034 623.747 386.434" fill="#D84315"/>
<path fill-rule="evenodd" clip-rule="evenodd" d="M579.139 247.383C577.507 246.506 576.339 245.308 575.804 243.963C575.269 242.617 575.396 241.193 576.166 239.898C576.873 239.415 577.729 239.037 578.676 238.792C579.623 238.546 580.639 238.439 581.654 238.476C582.67 238.513 583.661 238.695 584.561 239.008C585.461 239.322 586.249 239.76 586.871 240.292C588.504 241.169 589.672 242.366 590.207 243.712C590.741 245.058 590.615 246.482 589.845 247.777C588.061 249.746 583.303 249.746 579.139 247.383Z" fill="#D84315"/>
<path fill-rule="evenodd" clip-rule="evenodd" d="M586.277 420.31C583.897 419.917 582.113 413.614 582.113 405.736C582.113 397.857 583.897 391.555 585.682 391.949C588.061 392.343 589.845 398.645 589.845 406.524C589.845 414.402 588.061 420.704 586.277 420.31Z" fill="#D84315"/>
<path fill-rule="evenodd" clip-rule="evenodd" d="M591.035 227.293C589.25 227.293 588.061 225.324 587.466 222.96C587.325 222.105 587.465 221.24 587.875 220.424C588.286 219.608 588.958 218.861 589.845 218.233C591.629 218.233 592.819 220.203 593.414 222.566C594.008 224.93 592.819 227.293 591.035 227.293Z" fill="#D84315"/>
<path fill-rule="evenodd" clip-rule="evenodd" d="M627.315 250.534C626.72 253.685 623.747 255.261 621.368 254.473C619.886 253.69 618.765 252.647 618.135 251.463C617.504 250.28 617.387 249.002 617.799 247.777C618.394 244.625 621.368 243.05 623.747 243.837C626.72 244.625 627.91 247.777 627.315 250.534Z" fill="#D84315"/>
<path fill-rule="evenodd" clip-rule="evenodd" d="M611.851 297.804C611.257 299.379 608.877 299.773 606.498 299.379C605.337 299.028 604.339 298.478 603.607 297.785C602.875 297.092 602.436 296.283 602.335 295.44C602.93 293.864 605.309 293.47 607.688 293.864C609.023 294.029 610.207 294.533 610.986 295.27C611.765 296.007 612.075 296.917 611.851 297.804" fill="#D84315"/>
<path fill-rule="evenodd" clip-rule="evenodd" d="M616.609 354.133C618.988 354.921 620.178 358.072 618.988 361.617C617.799 364.769 615.42 366.738 613.041 365.951C610.662 365.163 609.472 362.011 610.662 358.466C611.851 355.315 614.825 353.345 616.609 354.133Z" fill="#D84315"/>
<path fill-rule="evenodd" clip-rule="evenodd" d="M583.897 347.831C582.282 347.209 581.008 346.263 580.26 345.13C579.511 343.997 579.327 342.735 579.734 341.528C579.845 341.017 580.154 340.534 580.632 340.126C581.109 339.718 581.738 339.399 582.458 339.2C583.177 339.002 583.962 338.93 584.736 338.993C585.51 339.056 586.245 339.251 586.871 339.558C588.486 340.18 589.76 341.125 590.509 342.259C591.258 343.392 591.442 344.654 591.035 345.861C590.44 348.224 587.466 349.012 583.897 347.831Z" fill="#D84315"/>
<path fill-rule="evenodd" clip-rule="evenodd" d="M586.277 287.168C586.277 291.107 583.303 293.077 580.329 291.895C578.486 290.738 577.051 289.326 576.126 287.76C575.201 286.194 574.808 284.513 574.976 282.835C574.976 278.896 577.95 276.926 580.924 278.108C582.766 279.265 584.201 280.676 585.127 282.242C586.052 283.808 586.444 285.49 586.277 287.168" fill="#D84315"/>
<path d="M528.585 173.327H632.073V441.582H528.585" stroke="#3F3350" stroke-width="6" stroke-linecap="round" stroke-linejoin="round"/>
<path d="M528.585 439.218V200.507" stroke="#3F3350" stroke-width="6" stroke-linecap="round" stroke-linejoin="round"/>
<path fill-rule="evenodd" clip-rule="evenodd" d="M730.379 439.283H801.75V63.8394H730.379V439.283Z" fill="#FF7043"/>
<path fill-rule="evenodd" clip-rule="evenodd" d="M793.424 358.008C795.208 352.549 798.776 350.729 801.155 353.762C802.421 356.05 803.184 358.592 803.389 361.21C803.594 363.829 803.238 366.461 802.345 368.925C800.561 374.384 796.992 376.204 794.613 373.171C793.347 370.883 792.585 368.342 792.38 365.723C792.174 363.105 792.53 360.472 793.424 358.008" fill="#D84315"/>
<path fill-rule="evenodd" clip-rule="evenodd" d="M748.816 143.902C747.184 142.552 746.016 140.708 745.481 138.636C744.946 136.564 745.073 134.371 745.843 132.378C746.55 131.633 747.406 131.052 748.353 130.674C749.3 130.296 750.316 130.13 751.331 130.188C752.347 130.245 753.338 130.525 754.238 131.007C755.138 131.49 755.926 132.164 756.548 132.984C758.181 134.333 759.349 136.178 759.884 138.25C760.418 140.322 760.292 142.514 759.522 144.508C757.738 147.541 752.98 147.541 748.816 143.902Z" fill="#D84315"/>
<path fill-rule="evenodd" clip-rule="evenodd" d="M755.953 410.17C753.574 409.563 751.79 399.859 751.79 387.728C751.79 375.597 753.574 365.893 755.359 366.499C757.738 367.106 759.522 376.81 759.522 388.941C759.522 401.072 757.738 410.776 755.953 410.17Z" fill="#D84315"/>
<path fill-rule="evenodd" clip-rule="evenodd" d="M760.712 112.969C758.927 112.969 757.738 109.936 757.143 106.297C757.002 104.98 757.142 103.648 757.552 102.392C757.963 101.136 758.635 99.9851 759.522 99.0183C761.306 99.0183 762.496 102.051 763.091 105.69C763.685 109.329 762.496 112.969 760.712 112.969Z" fill="#D84315"/>
<path fill-rule="evenodd" clip-rule="evenodd" d="M796.992 148.754C796.397 153.606 793.423 156.032 791.044 154.819C789.563 153.614 788.442 152.008 787.811 150.185C787.181 148.362 787.064 146.395 787.476 144.508C788.071 139.656 791.044 137.23 793.423 138.443C796.397 139.656 797.587 144.508 796.992 148.754Z" fill="#D84315"/>
<path fill-rule="evenodd" clip-rule="evenodd" d="M781.528 221.538C780.933 223.964 778.554 224.571 776.175 223.964C775.014 223.423 774.016 222.576 773.284 221.509C772.552 220.443 772.113 219.196 772.012 217.899C772.607 215.473 774.986 214.866 777.365 215.473C778.7 215.725 779.884 216.503 780.663 217.637C781.441 218.771 781.752 220.172 781.528 221.538" fill="#D84315"/>
<path fill-rule="evenodd" clip-rule="evenodd" d="M786.286 308.272C788.665 309.485 789.855 314.338 788.665 319.796C787.476 324.649 785.097 327.681 782.718 326.468C780.339 325.255 779.149 320.403 780.339 314.944C781.528 310.092 784.502 307.059 786.286 308.272Z" fill="#D84315"/>
<path fill-rule="evenodd" clip-rule="evenodd" d="M753.574 298.568C751.959 297.611 750.685 296.155 749.937 294.41C749.188 292.665 749.004 290.722 749.411 288.863C749.522 288.076 749.831 287.332 750.309 286.704C750.786 286.076 751.415 285.585 752.135 285.279C752.854 284.974 753.639 284.864 754.413 284.96C755.187 285.057 755.922 285.357 756.548 285.83C758.163 286.787 759.437 288.244 760.186 289.988C760.935 291.733 761.119 293.676 760.712 295.535C760.117 299.174 757.143 300.387 753.574 298.568Z" fill="#D84315"/>
<path fill-rule="evenodd" clip-rule="evenodd" d="M755.953 205.162C755.953 211.227 752.98 214.26 750.006 212.44C748.163 210.659 746.728 208.485 745.803 206.074C744.878 203.663 744.485 201.073 744.653 198.49C744.653 192.424 747.627 189.392 750.601 191.211C752.443 192.993 753.878 195.166 754.804 197.577C755.729 199.988 756.121 202.578 755.953 205.162" fill="#D84315"/>
<path d="M698.262 29.8735H803.13V442.923H698.262" stroke="#3F3350" stroke-width="6" stroke-linecap="round" stroke-linejoin="round"/>
<path d="M698.262 441.464V66.0721" stroke="#3F3350" stroke-width="6" stroke-linecap="round" stroke-linejoin="round"/>
<path d="M810 445.418L3 445.486" stroke="#3F3350" stroke-width="6" stroke-linecap="round" stroke-linejoin="round"/>
<path fill-rule="evenodd" clip-rule="evenodd" d="M388.266 443.157H459.637V271.805H388.266V443.157Z" fill="#FF7043"/>
<path fill-rule="evenodd" clip-rule="evenodd" d="M451.311 390.373C453.095 386.828 456.664 385.646 459.043 387.616C460.308 389.102 461.071 390.752 461.276 392.453C461.481 394.153 461.125 395.863 460.232 397.464C458.448 401.009 454.879 402.19 452.5 400.221C451.234 398.735 450.472 397.084 450.267 395.384C450.061 393.683 450.418 391.973 451.311 390.373Z" fill="#D84315"/>
<path fill-rule="evenodd" clip-rule="evenodd" d="M413.841 424.25C411.462 423.856 409.677 417.553 409.677 409.675C409.677 401.797 411.462 395.494 413.246 395.888C415.625 396.282 417.409 402.584 417.409 410.463C417.409 418.341 415.625 424.644 413.841 424.25Z" fill="#D84315"/>
<path fill-rule="evenodd" clip-rule="evenodd" d="M439.415 301.743C438.821 303.318 436.442 303.712 434.063 303.318C432.901 302.967 431.903 302.417 431.171 301.724C430.439 301.032 430 300.222 429.899 299.379C430.494 297.804 432.873 297.41 435.252 297.804C436.587 297.968 437.771 298.472 438.55 299.209C439.329 299.946 439.639 300.856 439.415 301.743" fill="#D84315"/>
<path fill-rule="evenodd" clip-rule="evenodd" d="M444.173 358.072C446.552 358.86 447.742 362.011 446.552 365.557C445.363 368.708 442.984 370.677 440.605 369.89C438.226 369.102 437.036 365.951 438.226 362.405C439.415 359.254 442.389 357.284 444.173 358.072Z" fill="#D84315"/>
<path fill-rule="evenodd" clip-rule="evenodd" d="M411.462 351.77C409.846 351.148 408.572 350.202 407.824 349.069C407.075 347.936 406.891 346.674 407.298 345.467C407.409 344.956 407.718 344.473 408.196 344.065C408.673 343.657 409.303 343.338 410.022 343.139C410.741 342.941 411.526 342.87 412.3 342.932C413.074 342.995 413.809 343.19 414.435 343.497C416.05 344.119 417.325 345.065 418.073 346.198C418.822 347.331 419.006 348.593 418.599 349.8C418.004 352.164 415.03 352.951 411.462 351.77Z" fill="#D84315"/>
<path fill-rule="evenodd" clip-rule="evenodd" d="M413.841 291.107C413.841 295.046 410.867 297.016 407.893 295.834C406.05 294.677 404.615 293.266 403.69 291.7C402.765 290.134 402.372 288.452 402.54 286.774C402.54 282.835 405.514 280.865 408.488 282.047C410.33 283.204 411.765 284.615 412.691 286.181C413.616 287.747 414.008 289.429 413.841 291.107" fill="#D84315"/>
<path d="M356.149 443.157V249.746H459.637V445.521H356.149" stroke="#3F3350" stroke-width="6" stroke-linecap="round" stroke-linejoin="round"/>
<path fill-rule="evenodd" clip-rule="evenodd" d="M217.644 442.992H288.421V344.119H217.644V442.992Z" fill="#FF7043"/>
<path fill-rule="evenodd" clip-rule="evenodd" d="M280.094 396.904C281.879 393.359 285.447 392.177 287.826 394.146C289.092 395.632 289.854 397.283 290.06 398.983C290.265 400.684 289.909 402.394 289.016 403.994C287.232 407.539 283.663 408.721 281.284 406.752C280.018 405.266 279.256 403.615 279.05 401.915C278.845 400.214 279.201 398.504 280.094 396.904" fill="#D84315"/>
<path fill-rule="evenodd" clip-rule="evenodd" d="M242.624 430.78C240.245 430.386 238.461 424.084 238.461 416.206C238.461 408.327 240.245 402.025 242.03 402.419C244.409 402.812 246.193 409.115 246.193 416.993C246.193 424.872 244.409 431.174 242.624 430.78Z" fill="#D84315"/>
<path fill-rule="evenodd" clip-rule="evenodd" d="M272.957 364.603C275.336 365.391 276.526 368.542 275.336 372.087C274.147 375.239 271.768 377.208 269.389 376.42C267.01 375.632 265.82 372.481 267.01 368.936C268.199 365.785 271.173 363.815 272.957 364.603Z" fill="#D84315"/>
<path fill-rule="evenodd" clip-rule="evenodd" d="M240.245 358.3C238.63 357.679 237.356 356.733 236.608 355.6C235.859 354.467 235.675 353.205 236.082 351.998C236.193 351.487 236.502 351.004 236.98 350.596C237.457 350.188 238.086 349.869 238.806 349.67C239.525 349.472 240.31 349.4 241.084 349.463C241.858 349.526 242.593 349.72 243.219 350.028C244.834 350.649 246.108 351.595 246.857 352.729C247.606 353.862 247.79 355.124 247.382 356.331C247.241 356.83 246.914 357.298 246.432 357.693C245.949 358.088 245.325 358.397 244.617 358.592C243.909 358.788 243.139 358.863 242.376 358.812C241.612 358.761 240.88 358.585 240.245 358.3" fill="#D84315"/>
<path fill-rule="evenodd" clip-rule="evenodd" d="M182.339 442.992V322.06C182.342 321.016 182.97 320.016 184.084 319.277C185.199 318.539 186.71 318.123 188.286 318.121V318.121L257.279 319.697C257.724 319.691 258.166 319.752 258.572 319.875C258.977 319.998 259.336 320.179 259.622 320.406C259.907 320.633 260.112 320.899 260.221 321.186C260.33 321.472 260.341 321.771 260.252 322.06C260.202 322.572 259.873 323.054 259.326 323.416C258.779 323.779 258.051 323.997 257.279 324.03L188.286 325.606L194.234 321.666V442.598C194.282 443.123 194.161 443.65 193.879 444.142C193.597 444.634 193.16 445.081 192.598 445.454C192.036 445.826 191.361 446.115 190.618 446.302C189.874 446.488 189.08 446.569 188.286 446.537C187.53 446.613 186.757 446.577 186.024 446.431C185.291 446.285 184.616 446.034 184.047 445.695C183.479 445.356 183.031 444.938 182.735 444.47C182.44 444.003 182.304 443.498 182.339 442.992" fill="#3F3350"/>
<path d="M288.421 322.06V445.355" stroke="#3F3350" stroke-width="6" stroke-linecap="round" stroke-linejoin="round"/>
<path fill-rule="evenodd" clip-rule="evenodd" d="M39.2556 443.054H115.98V400.511H39.2556V443.054Z" fill="#FF7043"/>
<path fill-rule="evenodd" clip-rule="evenodd" d="M7.13846 443.054V382.391C7.14174 381.347 7.76942 380.346 8.88411 379.608C9.99879 378.87 11.5097 378.454 13.0861 378.452L110.627 380.028C111.553 380.069 112.424 380.332 113.081 380.766C113.737 381.201 114.133 381.778 114.196 382.391C114.196 383.573 112.411 384.361 110.627 384.755L13.0861 386.33L19.0337 382.391V442.66C19.0816 443.185 18.9606 443.712 18.6787 444.204C18.3967 444.696 17.9603 445.143 17.3981 445.516C16.836 445.888 16.1609 446.177 15.4176 446.364C14.6743 446.551 13.8796 446.631 13.0861 446.599C12.3383 446.643 11.585 446.584 10.8729 446.427C10.1609 446.269 9.50551 446.016 8.94753 445.684C8.38955 445.351 7.94097 444.946 7.62973 444.493C7.31849 444.041 7.15126 443.551 7.13846 443.054" fill="#3F3350"/>
<path d="M115.98 382.391V445.417" stroke="#3F3350" stroke-width="6" stroke-linecap="round" stroke-linejoin="round"/>
<path d="M54.9598 357.984V357.217L57.8405 354.063C58.1786 353.694 58.457 353.373 58.6757 353.1C58.8945 352.825 59.0564 352.566 59.1615 352.325C59.2695 352.08 59.3234 351.825 59.3234 351.558C59.3234 351.251 59.2496 350.985 59.1019 350.761C58.957 350.536 58.7581 350.363 58.5053 350.241C58.2524 350.119 57.9683 350.058 57.653 350.058C57.3178 350.058 57.0252 350.127 56.7752 350.266C56.528 350.403 56.3362 350.594 56.1999 350.842C56.0663 351.089 55.9996 351.379 55.9996 351.711H54.9939C54.9939 351.2 55.1118 350.751 55.3476 350.364C55.5834 349.978 55.9044 349.677 56.3107 349.461C56.7198 349.245 57.1786 349.137 57.6871 349.137C58.1984 349.137 58.6516 349.245 59.0465 349.461C59.4413 349.677 59.751 349.968 59.9754 350.334C60.1999 350.701 60.3121 351.109 60.3121 351.558C60.3121 351.879 60.2538 352.192 60.1374 352.499C60.0237 352.803 59.8249 353.143 59.5408 353.518C59.2595 353.89 58.8689 354.344 58.3689 354.881L56.4087 356.978V357.046H60.4655V357.984H54.9598ZM64.9527 358.103C64.4527 358.103 64.0024 358.004 63.6019 357.805C63.2013 357.606 62.8803 357.333 62.6388 356.986C62.3973 356.64 62.2652 356.245 62.2425 355.802H63.2652C63.305 356.197 63.484 356.523 63.8021 356.782C64.1232 357.038 64.5067 357.165 64.9527 357.165C65.3107 357.165 65.6288 357.082 65.9073 356.914C66.1885 356.746 66.4087 356.516 66.5678 356.224C66.7297 355.928 66.8107 355.594 66.8107 355.222C66.8107 354.842 66.7269 354.502 66.5592 354.204C66.3945 353.903 66.1672 353.665 65.8774 353.492C65.5877 353.319 65.2567 353.231 64.8845 353.228C64.6175 353.225 64.3433 353.266 64.0621 353.352C63.7808 353.434 63.5493 353.54 63.3675 353.671L62.3788 353.552L62.9073 349.256H67.4413V350.194H63.7936L63.4868 352.768H63.5379C63.7169 352.626 63.9413 352.508 64.2112 352.414C64.4811 352.32 64.7624 352.273 65.055 352.273C65.5891 352.273 66.0649 352.401 66.4825 352.657C66.903 352.91 67.2325 353.256 67.4712 353.697C67.7127 354.137 67.8334 354.64 67.8334 355.205C67.8334 355.762 67.7084 356.259 67.4584 356.697C67.2112 357.131 66.8703 357.475 66.4357 357.728C66.001 357.978 65.5067 358.103 64.9527 358.103Z" fill="black"/>
<path d="M228.627 297.286C228.127 297.286 227.677 297.186 227.276 296.987C226.876 296.788 226.555 296.516 226.313 296.169C226.072 295.822 225.94 295.428 225.917 294.984H226.94C226.98 295.379 227.158 295.706 227.477 295.964C227.798 296.22 228.181 296.348 228.627 296.348C228.985 296.348 229.303 296.264 229.582 296.097C229.863 295.929 230.083 295.699 230.242 295.406C230.404 295.111 230.485 294.777 230.485 294.405C230.485 294.024 230.401 293.685 230.234 293.386C230.069 293.085 229.842 292.848 229.552 292.675C229.262 292.501 228.931 292.413 228.559 292.411C228.292 292.408 228.018 292.449 227.737 292.534C227.455 292.616 227.224 292.723 227.042 292.854L226.053 292.734L226.582 288.439H231.116V289.376H227.468L227.161 291.95H227.212C227.391 291.808 227.616 291.69 227.886 291.597C228.156 291.503 228.437 291.456 228.73 291.456C229.264 291.456 229.739 291.584 230.157 291.839C230.578 292.092 230.907 292.439 231.146 292.879C231.387 293.32 231.508 293.822 231.508 294.388C231.508 294.945 231.383 295.442 231.133 295.879C230.886 296.314 230.545 296.658 230.11 296.911C229.676 297.161 229.181 297.286 228.627 297.286ZM236.098 297.286C235.741 297.28 235.383 297.212 235.025 297.081C234.667 296.95 234.34 296.73 234.045 296.42C233.749 296.108 233.512 295.686 233.333 295.155C233.154 294.621 233.064 293.95 233.064 293.143C233.064 292.371 233.137 291.686 233.282 291.089C233.427 290.49 233.637 289.986 233.912 289.577C234.188 289.165 234.52 288.852 234.91 288.639C235.302 288.426 235.743 288.32 236.235 288.32C236.723 288.32 237.158 288.418 237.539 288.614C237.922 288.807 238.235 289.077 238.476 289.423C238.718 289.77 238.874 290.169 238.945 290.621H237.905C237.809 290.229 237.621 289.903 237.343 289.645C237.064 289.386 236.695 289.257 236.235 289.257C235.559 289.257 235.026 289.551 234.637 290.139C234.25 290.727 234.056 291.553 234.053 292.615H234.121C234.28 292.374 234.469 292.168 234.688 291.997C234.91 291.824 235.154 291.69 235.421 291.597C235.688 291.503 235.971 291.456 236.269 291.456C236.769 291.456 237.226 291.581 237.641 291.831C238.056 292.078 238.388 292.42 238.638 292.858C238.888 293.293 239.013 293.791 239.013 294.354C239.013 294.893 238.893 295.388 238.651 295.837C238.41 296.283 238.07 296.638 237.633 296.902C237.198 297.163 236.687 297.291 236.098 297.286ZM236.098 296.348C236.456 296.348 236.777 296.259 237.062 296.08C237.348 295.901 237.574 295.661 237.739 295.359C237.907 295.058 237.991 294.723 237.991 294.354C237.991 293.993 237.91 293.665 237.748 293.369C237.589 293.071 237.368 292.834 237.087 292.658C236.809 292.482 236.491 292.393 236.133 292.393C235.863 292.393 235.611 292.447 235.378 292.555C235.145 292.661 234.941 292.805 234.765 292.99C234.591 293.175 234.455 293.386 234.356 293.625C234.256 293.861 234.206 294.109 234.206 294.371C234.206 294.717 234.287 295.041 234.449 295.342C234.614 295.643 234.839 295.886 235.123 296.071C235.41 296.256 235.735 296.348 236.098 296.348Z" fill="black"/>
<path d="M388.635 232.294V231.527L391.516 228.374C391.854 228.005 392.132 227.683 392.351 227.411C392.57 227.135 392.732 226.877 392.837 226.635C392.945 226.391 392.999 226.135 392.999 225.868C392.999 225.561 392.925 225.296 392.777 225.071C392.632 224.847 392.433 224.674 392.18 224.551C391.928 224.429 391.644 224.368 391.328 224.368C390.993 224.368 390.7 224.438 390.45 224.577C390.203 224.713 390.011 224.905 389.875 225.152C389.742 225.399 389.675 225.689 389.675 226.022H388.669C388.669 225.51 388.787 225.061 389.023 224.675C389.259 224.289 389.58 223.987 389.986 223.772C390.395 223.556 390.854 223.448 391.362 223.448C391.874 223.448 392.327 223.556 392.722 223.772C393.117 223.987 393.426 224.279 393.651 224.645C393.875 225.012 393.987 225.419 393.987 225.868C393.987 226.189 393.929 226.503 393.813 226.81C393.699 227.114 393.5 227.453 393.216 227.828C392.935 228.201 392.544 228.655 392.044 229.192L390.084 231.289V231.357H394.141V232.294H388.635ZM398.628 232.414C398.128 232.414 397.678 232.314 397.277 232.115C396.876 231.916 396.555 231.644 396.314 231.297C396.073 230.951 395.94 230.556 395.918 230.112H396.94C396.98 230.507 397.159 230.834 397.477 231.093C397.798 231.348 398.182 231.476 398.628 231.476C398.986 231.476 399.304 231.392 399.582 231.225C399.864 231.057 400.084 230.827 400.243 230.534C400.405 230.239 400.486 229.905 400.486 229.533C400.486 229.152 400.402 228.813 400.234 228.514C400.07 228.213 399.842 227.976 399.553 227.803C399.263 227.63 398.932 227.541 398.56 227.539C398.293 227.536 398.019 227.577 397.737 227.662C397.456 227.745 397.224 227.851 397.043 227.982L396.054 227.862L396.582 223.567H401.117V224.505H397.469L397.162 227.078H397.213C397.392 226.936 397.617 226.818 397.886 226.725C398.156 226.631 398.438 226.584 398.73 226.584C399.264 226.584 399.74 226.712 400.158 226.968C400.578 227.22 400.908 227.567 401.146 228.007C401.388 228.448 401.509 228.951 401.509 229.516C401.509 230.073 401.384 230.57 401.134 231.007C400.886 231.442 400.546 231.786 400.111 232.039C399.676 232.289 399.182 232.414 398.628 232.414ZM406.048 232.414C405.406 232.414 404.859 232.239 404.407 231.889C403.956 231.537 403.611 231.027 403.372 230.36C403.133 229.689 403.014 228.88 403.014 227.931C403.014 226.987 403.133 226.182 403.372 225.514C403.613 224.844 403.96 224.333 404.412 223.98C404.866 223.625 405.412 223.448 406.048 223.448C406.684 223.448 407.228 223.625 407.68 223.98C408.135 224.333 408.481 224.844 408.72 225.514C408.961 226.182 409.082 226.987 409.082 227.931C409.082 228.88 408.963 229.689 408.724 230.36C408.486 231.027 408.14 231.537 407.689 231.889C407.237 232.239 406.69 232.414 406.048 232.414ZM406.048 231.476C406.684 231.476 407.179 231.169 407.531 230.556C407.883 229.942 408.059 229.067 408.059 227.931C408.059 227.175 407.978 226.531 407.816 226C407.657 225.469 407.427 225.064 407.126 224.786C406.828 224.507 406.468 224.368 406.048 224.368C405.417 224.368 404.924 224.679 404.569 225.301C404.214 225.921 404.037 226.797 404.037 227.931C404.037 228.686 404.116 229.328 404.275 229.857C404.434 230.385 404.663 230.787 404.961 231.063C405.262 231.338 405.625 231.476 406.048 231.476Z" fill="black"/>
<path d="M556.832 155.378C556.332 155.378 555.882 155.279 555.481 155.08C555.081 154.881 554.76 154.608 554.518 154.262C554.277 153.915 554.145 153.52 554.122 153.077H555.145C555.185 153.472 555.364 153.799 555.682 154.057C556.003 154.313 556.386 154.441 556.832 154.441C557.19 154.441 557.508 154.357 557.787 154.189C558.068 154.022 558.288 153.792 558.447 153.499C558.609 153.203 558.69 152.87 558.69 152.497C558.69 152.117 558.606 151.777 558.439 151.479C558.274 151.178 558.047 150.941 557.757 150.767C557.467 150.594 557.136 150.506 556.764 150.503C556.497 150.5 556.223 150.542 555.942 150.627C555.66 150.709 555.429 150.816 555.247 150.946L554.258 150.827L554.787 146.532H559.321V147.469H555.673L555.366 150.043H555.418C555.597 149.901 555.821 149.783 556.091 149.689C556.361 149.595 556.642 149.549 556.935 149.549C557.469 149.549 557.945 149.676 558.362 149.932C558.783 150.185 559.112 150.532 559.351 150.972C559.592 151.412 559.713 151.915 559.713 152.48C559.713 153.037 559.588 153.534 559.338 153.972C559.091 154.407 558.75 154.75 558.315 155.003C557.881 155.253 557.386 155.378 556.832 155.378ZM564.304 155.378C563.946 155.372 563.588 155.304 563.23 155.174C562.872 155.043 562.545 154.823 562.25 154.513C561.954 154.201 561.717 153.779 561.538 153.247C561.359 152.713 561.269 152.043 561.269 151.236C561.269 150.463 561.342 149.779 561.487 149.182C561.632 148.583 561.842 148.078 562.117 147.669C562.393 147.257 562.725 146.945 563.115 146.732C563.507 146.519 563.948 146.412 564.44 146.412C564.929 146.412 565.363 146.51 565.744 146.706C566.127 146.899 566.44 147.169 566.681 147.516C566.923 147.863 567.079 148.262 567.15 148.713H566.11C566.014 148.321 565.826 147.996 565.548 147.738C565.269 147.479 564.9 147.35 564.44 147.35C563.764 147.35 563.231 147.644 562.842 148.232C562.456 148.82 562.261 149.645 562.258 150.708H562.326C562.485 150.466 562.674 150.26 562.893 150.09C563.115 149.917 563.359 149.783 563.626 149.689C563.893 149.595 564.176 149.549 564.474 149.549C564.974 149.549 565.431 149.674 565.846 149.924C566.261 150.171 566.593 150.513 566.843 150.951C567.093 151.385 567.218 151.884 567.218 152.446C567.218 152.986 567.098 153.48 566.856 153.929C566.615 154.375 566.275 154.73 565.838 154.995C565.403 155.256 564.892 155.384 564.304 155.378ZM564.304 154.441C564.662 154.441 564.983 154.351 565.267 154.172C565.554 153.993 565.779 153.753 565.944 153.452C566.112 153.151 566.196 152.816 566.196 152.446C566.196 152.086 566.115 151.757 565.953 151.462C565.794 151.164 565.573 150.926 565.292 150.75C565.014 150.574 564.696 150.486 564.338 150.486C564.068 150.486 563.816 150.54 563.583 150.648C563.35 150.753 563.146 150.898 562.97 151.083C562.796 151.267 562.66 151.479 562.561 151.718C562.461 151.953 562.412 152.202 562.412 152.463C562.412 152.81 562.492 153.134 562.654 153.435C562.819 153.736 563.044 153.979 563.328 154.164C563.615 154.348 563.94 154.441 564.304 154.441ZM571.741 155.378C571.099 155.378 570.552 155.203 570.1 154.854C569.648 154.502 569.303 153.992 569.065 153.324C568.826 152.654 568.707 151.844 568.707 150.895C568.707 149.952 568.826 149.147 569.065 148.479C569.306 147.809 569.653 147.297 570.104 146.945C570.559 146.59 571.104 146.412 571.741 146.412C572.377 146.412 572.921 146.59 573.373 146.945C573.827 147.297 574.174 147.809 574.413 148.479C574.654 149.147 574.775 149.952 574.775 150.895C574.775 151.844 574.655 152.654 574.417 153.324C574.178 153.992 573.833 154.502 573.381 154.854C572.93 155.203 572.383 155.378 571.741 155.378ZM571.741 154.441C572.377 154.441 572.871 154.134 573.224 153.52C573.576 152.907 573.752 152.032 573.752 150.895C573.752 150.14 573.671 149.496 573.509 148.965C573.35 148.434 573.12 148.029 572.819 147.75C572.521 147.472 572.161 147.333 571.741 147.333C571.11 147.333 570.617 147.644 570.262 148.266C569.907 148.885 569.729 149.762 569.729 150.895C569.729 151.651 569.809 152.293 569.968 152.821C570.127 153.35 570.356 153.752 570.654 154.027C570.955 154.303 571.317 154.441 571.741 154.441Z" fill="black"/>
<path d="M729.311 12.1193C728.953 12.1136 728.595 12.0455 728.237 11.9148C727.879 11.7841 727.552 11.5639 727.257 11.2543C726.961 10.9418 726.724 10.5199 726.545 9.98864C726.366 9.45455 726.277 8.78409 726.277 7.97727C726.277 7.20455 726.349 6.51989 726.494 5.9233C726.639 5.32386 726.849 4.8196 727.125 4.41051C727.4 3.99858 727.732 3.68608 728.122 3.47301C728.514 3.25994 728.955 3.15341 729.447 3.15341C729.936 3.15341 730.37 3.25142 730.751 3.44744C731.134 3.64062 731.447 3.91051 731.688 4.2571C731.93 4.60369 732.086 5.00284 732.157 5.45455H731.117C731.021 5.0625 730.833 4.73722 730.555 4.47869C730.277 4.22017 729.907 4.09091 729.447 4.09091C728.771 4.09091 728.238 4.38494 727.849 4.97301C727.463 5.56108 727.268 6.38636 727.265 7.44886H727.333C727.492 7.20739 727.681 7.00142 727.9 6.83097C728.122 6.65767 728.366 6.52415 728.633 6.4304C728.9 6.33665 729.183 6.28977 729.481 6.28977C729.981 6.28977 730.438 6.41477 730.853 6.66477C731.268 6.91193 731.6 7.25426 731.85 7.69176C732.1 8.12642 732.225 8.625 732.225 9.1875C732.225 9.72727 732.105 10.2216 731.863 10.6705C731.622 11.1165 731.282 11.4716 730.845 11.7358C730.41 11.9972 729.899 12.125 729.311 12.1193ZM729.311 11.1818C729.669 11.1818 729.99 11.0923 730.274 10.9134C730.561 10.7344 730.786 10.4943 730.951 10.1932C731.119 9.89205 731.203 9.55682 731.203 9.1875C731.203 8.8267 731.122 8.49858 730.96 8.20312C730.801 7.90483 730.58 7.66761 730.299 7.49148C730.021 7.31534 729.703 7.22727 729.345 7.22727C729.075 7.22727 728.823 7.28125 728.59 7.3892C728.357 7.49432 728.153 7.6392 727.977 7.82386C727.803 8.00852 727.667 8.22017 727.568 8.45881C727.468 8.6946 727.419 8.94318 727.419 9.20455C727.419 9.55114 727.5 9.875 727.661 10.1761C727.826 10.4773 728.051 10.7202 728.335 10.9048C728.622 11.0895 728.947 11.1818 729.311 11.1818ZM734.174 12L738.077 4.27841V4.21023H733.577V3.27273H739.168V4.26136L735.282 12H734.174ZM743.416 12.1193C742.774 12.1193 742.227 11.9446 741.775 11.5952C741.323 11.2429 740.978 10.733 740.74 10.0653C740.501 9.39489 740.382 8.58523 740.382 7.63636C740.382 6.69318 740.501 5.88778 740.74 5.22017C740.981 4.54972 741.328 4.03835 741.779 3.68608C742.234 3.33097 742.779 3.15341 743.416 3.15341C744.052 3.15341 744.596 3.33097 745.048 3.68608C745.502 4.03835 745.849 4.54972 746.088 5.22017C746.329 5.88778 746.45 6.69318 746.45 7.63636C746.45 8.58523 746.33 9.39489 746.092 10.0653C745.853 10.733 745.508 11.2429 745.056 11.5952C744.605 11.9446 744.058 12.1193 743.416 12.1193ZM743.416 11.1818C744.052 11.1818 744.546 10.875 744.899 10.2614C745.251 9.64773 745.427 8.77273 745.427 7.63636C745.427 6.88068 745.346 6.23722 745.184 5.70597C745.025 5.17472 744.795 4.76989 744.494 4.49148C744.196 4.21307 743.836 4.07386 743.416 4.07386C742.785 4.07386 742.292 4.38494 741.937 5.0071C741.582 5.62642 741.404 6.50284 741.404 7.63636C741.404 8.39205 741.484 9.03409 741.643 9.5625C741.802 10.0909 742.031 10.4929 742.329 10.7685C742.63 11.044 742.992 11.1818 743.416 11.1818ZM749.757 8.18182L749.825 6.30682L748.24 7.3125L747.83 6.59659L749.501 5.72727L747.83 4.85795L748.24 4.14205L749.825 5.14773L749.757 3.27273H750.575L750.507 5.14773L752.092 4.14205L752.501 4.85795L750.83 5.72727L752.501 6.59659L752.092 7.3125L750.507 6.30682L750.575 8.18182H749.757Z" fill="black"/>
<path d="M38.5496 487.728V486.96L41.4302 483.807C41.7683 483.438 42.0467 483.117 42.2655 482.844C42.4842 482.568 42.6461 482.31 42.7513 482.068C42.8592 481.824 42.9132 481.568 42.9132 481.301C42.9132 480.995 42.8393 480.729 42.6916 480.505C42.5467 480.28 42.3479 480.107 42.095 479.985C41.8422 479.862 41.5581 479.801 41.2427 479.801C40.9075 479.801 40.6149 479.871 40.3649 480.01C40.1177 480.147 39.926 480.338 39.7896 480.585C39.6561 480.833 39.5893 481.122 39.5893 481.455H38.5836C38.5836 480.943 38.7015 480.495 38.9373 480.108C39.1731 479.722 39.4942 479.421 39.9004 479.205C40.3095 478.989 40.7683 478.881 41.2768 478.881C41.7882 478.881 42.2413 478.989 42.6362 479.205C43.0311 479.421 43.3408 479.712 43.5652 480.078C43.7896 480.445 43.9018 480.853 43.9018 481.301C43.9018 481.622 43.8436 481.936 43.7271 482.243C43.6135 482.547 43.4146 482.887 43.1305 483.262C42.8493 483.634 42.4586 484.088 41.9586 484.625L39.9984 486.722V486.79H44.0552V487.728H38.5496ZM48.6618 487.847C48.0197 487.847 47.4729 487.672 47.0211 487.323C46.5694 486.97 46.2243 486.46 45.9856 485.793C45.747 485.122 45.6277 484.313 45.6277 483.364C45.6277 482.421 45.747 481.615 45.9856 480.948C46.2271 480.277 46.5737 479.766 47.0254 479.414C47.48 479.059 48.0254 478.881 48.6618 478.881C49.2981 478.881 49.8422 479.059 50.2939 479.414C50.7484 479.766 51.095 480.277 51.3336 480.948C51.5751 481.615 51.6959 482.421 51.6959 483.364C51.6959 484.313 51.5765 485.122 51.3379 485.793C51.0993 486.46 50.7541 486.97 50.3024 487.323C49.8507 487.672 49.3038 487.847 48.6618 487.847ZM48.6618 486.909C49.2981 486.909 49.7925 486.603 50.1447 485.989C50.497 485.375 50.6731 484.5 50.6731 483.364C50.6731 482.608 50.5922 481.965 50.4302 481.434C50.2711 480.902 50.041 480.497 49.7399 480.219C49.4416 479.941 49.0822 479.801 48.6618 479.801C48.0311 479.801 47.5382 480.112 47.1831 480.735C46.828 481.354 46.6504 482.23 46.6504 483.364C46.6504 484.12 46.73 484.762 46.889 485.29C47.0481 485.818 47.2768 486.22 47.5751 486.496C47.8763 486.772 48.2385 486.909 48.6618 486.909ZM56.3834 479V487.728H55.3265V480.108H55.2754L53.1447 481.523V480.449L55.3265 479H56.3834ZM61.6888 487.847C61.1035 487.847 60.5865 487.743 60.1376 487.536C59.6916 487.326 59.3436 487.037 59.0936 486.671C58.8436 486.301 58.72 485.881 58.7229 485.409C58.72 485.04 58.7925 484.699 58.9402 484.387C59.0879 484.071 59.2896 483.809 59.5453 483.598C59.8038 483.385 60.0922 483.25 60.4104 483.193V483.142C59.9927 483.034 59.6604 482.8 59.4132 482.439C59.166 482.076 59.0439 481.662 59.0467 481.199C59.0439 480.756 59.1561 480.36 59.3834 480.01C59.6106 479.661 59.9231 479.385 60.3209 479.184C60.7214 478.982 61.1774 478.881 61.6888 478.881C62.1944 478.881 62.6461 478.982 63.0439 479.184C63.4416 479.385 63.7541 479.661 63.9814 480.01C64.2115 480.36 64.328 480.756 64.3308 481.199C64.328 481.662 64.2015 482.076 63.9515 482.439C63.7044 482.8 63.3763 483.034 62.9672 483.142V483.193C63.2825 483.25 63.5666 483.385 63.8194 483.598C64.0723 483.809 64.274 484.071 64.4246 484.387C64.5751 484.699 64.6518 485.04 64.6547 485.409C64.6518 485.881 64.524 486.301 64.2711 486.671C64.0211 487.037 63.6731 487.326 63.2271 487.536C62.7839 487.743 62.2711 487.847 61.6888 487.847ZM61.6888 486.909C62.0836 486.909 62.4246 486.845 62.7115 486.718C62.9984 486.59 63.22 486.409 63.3763 486.176C63.5325 485.943 63.6121 485.671 63.6149 485.358C63.6121 485.029 63.5268 484.737 63.3592 484.485C63.1916 484.232 62.9629 484.033 62.6731 483.888C62.3862 483.743 62.0581 483.671 61.6888 483.671C61.3166 483.671 60.9842 483.743 60.6916 483.888C60.4018 484.033 60.1731 484.232 60.0055 484.485C59.8408 484.737 59.7598 485.029 59.7626 485.358C59.7598 485.671 59.8351 485.943 59.9885 486.176C60.1447 486.409 60.3677 486.59 60.6575 486.718C60.9473 486.845 61.291 486.909 61.6888 486.909ZM61.6888 482.767C62.0013 482.767 62.2783 482.705 62.5197 482.58C62.764 482.455 62.9558 482.28 63.095 482.056C63.2342 481.831 63.3052 481.568 63.3081 481.267C63.3052 480.972 63.2356 480.715 63.0993 480.496C62.9629 480.274 62.774 480.104 62.5325 479.985C62.291 479.862 62.0098 479.801 61.6888 479.801C61.3621 479.801 61.0765 479.862 60.8322 479.985C60.5879 480.104 60.399 480.274 60.2655 480.496C60.1319 480.715 60.0666 480.972 60.0694 481.267C60.0666 481.568 60.1334 481.831 60.2697 482.056C60.4089 482.28 60.6007 482.455 60.845 482.58C61.0893 482.705 61.3706 482.767 61.6888 482.767Z" fill="black"/>
<path d="M225.9 487.728V486.96L228.781 483.807C229.119 483.438 229.397 483.117 229.616 482.844C229.835 482.568 229.997 482.31 230.102 482.068C230.21 481.824 230.264 481.568 230.264 481.301C230.264 480.995 230.19 480.729 230.042 480.505C229.897 480.28 229.698 480.107 229.445 479.985C229.193 479.862 228.908 479.801 228.593 479.801C228.258 479.801 227.965 479.871 227.715 480.01C227.468 480.147 227.276 480.338 227.14 480.585C227.007 480.833 226.94 481.122 226.94 481.455H225.934C225.934 480.943 226.052 480.495 226.288 480.108C226.524 479.722 226.845 479.421 227.251 479.205C227.66 478.989 228.119 478.881 228.627 478.881C229.139 478.881 229.592 478.989 229.987 479.205C230.382 479.421 230.691 479.712 230.916 480.078C231.14 480.445 231.252 480.853 231.252 481.301C231.252 481.622 231.194 481.936 231.078 482.243C230.964 482.547 230.765 482.887 230.481 483.262C230.2 483.634 229.809 484.088 229.309 484.625L227.349 486.722V486.79H231.406V487.728H225.9ZM236.012 487.847C235.37 487.847 234.823 487.672 234.372 487.323C233.92 486.97 233.575 486.46 233.336 485.793C233.097 485.122 232.978 484.313 232.978 483.364C232.978 482.421 233.097 481.615 233.336 480.948C233.578 480.277 233.924 479.766 234.376 479.414C234.83 479.059 235.376 478.881 236.012 478.881C236.649 478.881 237.193 479.059 237.644 479.414C238.099 479.766 238.445 480.277 238.684 480.948C238.926 481.615 239.046 482.421 239.046 483.364C239.046 484.313 238.927 485.122 238.688 485.793C238.45 486.46 238.105 486.97 237.653 487.323C237.201 487.672 236.654 487.847 236.012 487.847ZM236.012 486.909C236.649 486.909 237.143 486.603 237.495 485.989C237.847 485.375 238.024 484.5 238.024 483.364C238.024 482.608 237.943 481.965 237.781 481.434C237.622 480.902 237.391 480.497 237.09 480.219C236.792 479.941 236.433 479.801 236.012 479.801C235.382 479.801 234.889 480.112 234.533 480.735C234.178 481.354 234.001 482.23 234.001 483.364C234.001 484.12 234.08 484.762 234.239 485.29C234.399 485.818 234.627 486.22 234.926 486.496C235.227 486.772 235.589 486.909 236.012 486.909ZM243.734 479V487.728H242.677V480.108H242.626L240.495 481.523V480.449L242.677 479H243.734ZM249.022 478.881C249.38 478.884 249.738 478.952 250.096 479.085C250.454 479.219 250.781 479.441 251.076 479.75C251.372 480.057 251.609 480.476 251.788 481.007C251.967 481.539 252.056 482.205 252.056 483.006C252.056 483.782 251.982 484.47 251.835 485.073C251.69 485.672 251.48 486.178 251.204 486.59C250.931 487.002 250.599 487.314 250.207 487.527C249.818 487.74 249.377 487.847 248.886 487.847C248.397 487.847 247.961 487.75 247.578 487.557C247.197 487.361 246.884 487.09 246.64 486.743C246.399 486.394 246.244 485.989 246.176 485.529H247.215C247.309 485.929 247.495 486.26 247.774 486.522C248.055 486.78 248.426 486.909 248.886 486.909C249.559 486.909 250.09 486.615 250.48 486.027C250.872 485.439 251.068 484.608 251.068 483.534H250.999C250.84 483.773 250.651 483.979 250.433 484.152C250.214 484.326 249.971 484.459 249.704 484.553C249.437 484.647 249.153 484.693 248.852 484.693C248.352 484.693 247.893 484.57 247.475 484.323C247.06 484.073 246.728 483.73 246.478 483.296C246.231 482.858 246.107 482.358 246.107 481.796C246.107 481.262 246.227 480.773 246.465 480.33C246.707 479.884 247.045 479.529 247.48 479.264C247.917 479 248.431 478.872 249.022 478.881ZM249.022 479.818C248.664 479.818 248.342 479.908 248.055 480.087C247.771 480.263 247.545 480.502 247.377 480.803C247.212 481.101 247.13 481.432 247.13 481.796C247.13 482.159 247.21 482.49 247.369 482.789C247.531 483.084 247.751 483.32 248.029 483.496C248.31 483.669 248.63 483.756 248.988 483.756C249.258 483.756 249.509 483.703 249.742 483.598C249.975 483.49 250.178 483.344 250.352 483.159C250.528 482.972 250.666 482.76 250.765 482.524C250.864 482.286 250.914 482.037 250.914 481.779C250.914 481.438 250.832 481.118 250.667 480.82C250.505 480.522 250.281 480.28 249.994 480.095C249.71 479.911 249.386 479.818 249.022 479.818Z" fill="black"/>
<path d="M387.267 487.728V486.96L390.148 483.807C390.486 483.438 390.765 483.117 390.983 482.844C391.202 482.568 391.364 482.31 391.469 482.068C391.577 481.824 391.631 481.568 391.631 481.301C391.631 480.995 391.557 480.729 391.41 480.505C391.265 480.28 391.066 480.107 390.813 479.985C390.56 479.862 390.276 479.801 389.961 479.801C389.625 479.801 389.333 479.871 389.083 480.01C388.836 480.147 388.644 480.338 388.508 480.585C388.374 480.833 388.307 481.122 388.307 481.455H387.302C387.302 480.943 387.419 480.495 387.655 480.108C387.891 479.722 388.212 479.421 388.618 479.205C389.027 478.989 389.486 478.881 389.995 478.881C390.506 478.881 390.959 478.989 391.354 479.205C391.749 479.421 392.059 479.712 392.283 480.078C392.508 480.445 392.62 480.853 392.62 481.301C392.62 481.622 392.562 481.936 392.445 482.243C392.331 482.547 392.133 482.887 391.848 483.262C391.567 483.634 391.177 484.088 390.677 484.625L388.716 486.722V486.79H392.773V487.728H387.267ZM397.38 487.847C396.738 487.847 396.191 487.672 395.739 487.323C395.287 486.97 394.942 486.46 394.704 485.793C394.465 485.122 394.346 484.313 394.346 483.364C394.346 482.421 394.465 481.615 394.704 480.948C394.945 480.277 395.292 479.766 395.743 479.414C396.198 479.059 396.743 478.881 397.38 478.881C398.016 478.881 398.56 479.059 399.012 479.414C399.466 479.766 399.813 480.277 400.052 480.948C400.293 481.615 400.414 482.421 400.414 483.364C400.414 484.313 400.294 485.122 400.056 485.793C399.817 486.46 399.472 486.97 399.02 487.323C398.569 487.672 398.022 487.847 397.38 487.847ZM397.38 486.909C398.016 486.909 398.51 486.603 398.863 485.989C399.215 485.375 399.391 484.5 399.391 483.364C399.391 482.608 399.31 481.965 399.148 481.434C398.989 480.902 398.759 480.497 398.458 480.219C398.16 479.941 397.8 479.801 397.38 479.801C396.749 479.801 396.256 480.112 395.901 480.735C395.546 481.354 395.368 482.23 395.368 483.364C395.368 484.12 395.448 484.762 395.607 485.29C395.766 485.818 395.995 486.22 396.293 486.496C396.594 486.772 396.956 486.909 397.38 486.909ZM402.033 487.728V486.96L404.914 483.807C405.252 483.438 405.53 483.117 405.749 482.844C405.968 482.568 406.13 482.31 406.235 482.068C406.343 481.824 406.397 481.568 406.397 481.301C406.397 480.995 406.323 480.729 406.175 480.505C406.03 480.28 405.831 480.107 405.579 479.985C405.326 479.862 405.042 479.801 404.726 479.801C404.391 479.801 404.098 479.871 403.848 480.01C403.601 480.147 403.41 480.338 403.273 480.585C403.14 480.833 403.073 481.122 403.073 481.455H402.067C402.067 480.943 402.185 480.495 402.421 480.108C402.657 479.722 402.978 479.421 403.384 479.205C403.793 478.989 404.252 478.881 404.76 478.881C405.272 478.881 405.725 478.989 406.12 479.205C406.515 479.421 406.824 479.712 407.049 480.078C407.273 480.445 407.385 480.853 407.385 481.301C407.385 481.622 407.327 481.936 407.211 482.243C407.097 482.547 406.898 482.887 406.614 483.262C406.333 483.634 405.942 484.088 405.442 484.625L403.482 486.722V486.79H407.539V487.728H402.033ZM412.145 487.847C411.503 487.847 410.956 487.672 410.505 487.323C410.053 486.97 409.708 486.46 409.469 485.793C409.231 485.122 409.111 484.313 409.111 483.364C409.111 482.421 409.231 481.615 409.469 480.948C409.711 480.277 410.057 479.766 410.509 479.414C410.964 479.059 411.509 478.881 412.145 478.881C412.782 478.881 413.326 479.059 413.777 479.414C414.232 479.766 414.579 480.277 414.817 480.948C415.059 481.615 415.179 482.421 415.179 483.364C415.179 484.313 415.06 485.122 414.821 485.793C414.583 486.46 414.238 486.97 413.786 487.323C413.334 487.672 412.787 487.847 412.145 487.847ZM412.145 486.909C412.782 486.909 413.276 486.603 413.628 485.989C413.981 485.375 414.157 484.5 414.157 483.364C414.157 482.608 414.076 481.965 413.914 481.434C413.755 480.902 413.525 480.497 413.223 480.219C412.925 479.941 412.566 479.801 412.145 479.801C411.515 479.801 411.022 480.112 410.667 480.735C410.312 481.354 410.134 482.23 410.134 483.364C410.134 484.12 410.214 484.762 410.373 485.29C410.532 485.818 410.76 486.22 411.059 486.496C411.36 486.772 411.722 486.909 412.145 486.909Z" fill="black"/>
<path d="M560.943 487.728V486.96L563.823 483.807C564.161 483.438 564.44 483.117 564.659 482.844C564.877 482.568 565.039 482.31 565.144 482.068C565.252 481.824 565.306 481.568 565.306 481.301C565.306 480.995 565.232 480.729 565.085 480.505C564.94 480.28 564.741 480.107 564.488 479.985C564.235 479.862 563.951 479.801 563.636 479.801C563.301 479.801 563.008 479.871 562.758 480.01C562.511 480.147 562.319 480.338 562.183 480.585C562.049 480.833 561.982 481.122 561.982 481.455H560.977C560.977 480.943 561.095 480.495 561.33 480.108C561.566 479.722 561.887 479.421 562.294 479.205C562.703 478.989 563.161 478.881 563.67 478.881C564.181 478.881 564.634 478.989 565.029 479.205C565.424 479.421 565.734 479.712 565.958 480.078C566.183 480.445 566.295 480.853 566.295 481.301C566.295 481.622 566.237 481.936 566.12 482.243C566.007 482.547 565.808 482.887 565.524 483.262C565.242 483.634 564.852 484.088 564.352 484.625L562.392 486.722V486.79H566.448V487.728H560.943ZM571.055 487.847C570.413 487.847 569.866 487.672 569.414 487.323C568.963 486.97 568.617 486.46 568.379 485.793C568.14 485.122 568.021 484.313 568.021 483.364C568.021 482.421 568.14 481.615 568.379 480.948C568.62 480.277 568.967 479.766 569.419 479.414C569.873 479.059 570.419 478.881 571.055 478.881C571.691 478.881 572.235 479.059 572.687 479.414C573.142 479.766 573.488 480.277 573.727 480.948C573.968 481.615 574.089 482.421 574.089 483.364C574.089 484.313 573.97 485.122 573.731 485.793C573.492 486.46 573.147 486.97 572.695 487.323C572.244 487.672 571.697 487.847 571.055 487.847ZM571.055 486.909C571.691 486.909 572.186 486.603 572.538 485.989C572.89 485.375 573.066 484.5 573.066 483.364C573.066 482.608 572.985 481.965 572.823 481.434C572.664 480.902 572.434 480.497 572.133 480.219C571.835 479.941 571.475 479.801 571.055 479.801C570.424 479.801 569.931 480.112 569.576 480.735C569.221 481.354 569.044 482.23 569.044 483.364C569.044 484.12 569.123 484.762 569.282 485.29C569.441 485.818 569.67 486.22 569.968 486.496C570.269 486.772 570.632 486.909 571.055 486.909ZM575.708 487.728V486.96L578.589 483.807C578.927 483.438 579.205 483.117 579.424 482.844C579.643 482.568 579.805 482.31 579.91 482.068C580.018 481.824 580.072 481.568 580.072 481.301C580.072 480.995 579.998 480.729 579.85 480.505C579.705 480.28 579.507 480.107 579.254 479.985C579.001 479.862 578.717 479.801 578.401 479.801C578.066 479.801 577.774 479.871 577.524 480.01C577.276 480.147 577.085 480.338 576.948 480.585C576.815 480.833 576.748 481.122 576.748 481.455H575.742C575.742 480.943 575.86 480.495 576.096 480.108C576.332 479.722 576.653 479.421 577.059 479.205C577.468 478.989 577.927 478.881 578.436 478.881C578.947 478.881 579.4 478.989 579.795 479.205C580.19 479.421 580.499 479.712 580.724 480.078C580.948 480.445 581.061 480.853 581.061 481.301C581.061 481.622 581.002 481.936 580.886 482.243C580.772 482.547 580.573 482.887 580.289 483.262C580.008 483.634 579.617 484.088 579.117 484.625L577.157 486.722V486.79H581.214V487.728H575.708ZM586.042 479V487.728H584.985V480.108H584.934L582.803 481.523V480.449L584.985 479H586.042Z" fill="black"/>
<path d="M734.618 487.728V486.96L737.499 483.807C737.837 483.438 738.115 483.117 738.334 482.844C738.553 482.568 738.715 482.31 738.82 482.068C738.928 481.824 738.982 481.568 738.982 481.301C738.982 480.995 738.908 480.729 738.76 480.505C738.615 480.28 738.416 480.107 738.163 479.985C737.911 479.862 737.626 479.801 737.311 479.801C736.976 479.801 736.683 479.871 736.433 480.01C736.186 480.147 735.994 480.338 735.858 480.585C735.724 480.833 735.658 481.122 735.658 481.455H734.652C734.652 480.943 734.77 480.495 735.006 480.108C735.242 479.722 735.563 479.421 735.969 479.205C736.378 478.989 736.837 478.881 737.345 478.881C737.857 478.881 738.31 478.989 738.705 479.205C739.099 479.421 739.409 479.712 739.634 480.078C739.858 480.445 739.97 480.853 739.97 481.301C739.97 481.622 739.912 481.936 739.796 482.243C739.682 482.547 739.483 482.887 739.199 483.262C738.918 483.634 738.527 484.088 738.027 484.625L736.067 486.722V486.79H740.124V487.728H734.618ZM744.73 487.847C744.088 487.847 743.541 487.672 743.09 487.323C742.638 486.97 742.293 486.46 742.054 485.793C741.815 485.122 741.696 484.313 741.696 483.364C741.696 482.421 741.815 481.615 742.054 480.948C742.296 480.277 742.642 479.766 743.094 479.414C743.548 479.059 744.094 478.881 744.73 478.881C745.367 478.881 745.911 479.059 746.362 479.414C746.817 479.766 747.163 480.277 747.402 480.948C747.644 481.615 747.764 482.421 747.764 483.364C747.764 484.313 747.645 485.122 747.406 485.793C747.168 486.46 746.822 486.97 746.371 487.323C745.919 487.672 745.372 487.847 744.73 487.847ZM744.73 486.909C745.367 486.909 745.861 486.603 746.213 485.989C746.565 485.375 746.742 484.5 746.742 483.364C746.742 482.608 746.661 481.965 746.499 481.434C746.34 480.902 746.109 480.497 745.808 480.219C745.51 479.941 745.151 479.801 744.73 479.801C744.099 479.801 743.607 480.112 743.251 480.735C742.896 481.354 742.719 482.23 742.719 483.364C742.719 484.12 742.798 484.762 742.957 485.29C743.117 485.818 743.345 486.22 743.644 486.496C743.945 486.772 744.307 486.909 744.73 486.909ZM749.384 487.728V486.96L752.264 483.807C752.602 483.438 752.881 483.117 753.099 482.844C753.318 482.568 753.48 482.31 753.585 482.068C753.693 481.824 753.747 481.568 753.747 481.301C753.747 480.995 753.673 480.729 753.526 480.505C753.381 480.28 753.182 480.107 752.929 479.985C752.676 479.862 752.392 479.801 752.077 479.801C751.742 479.801 751.449 479.871 751.199 480.01C750.952 480.147 750.76 480.338 750.624 480.585C750.49 480.833 750.423 481.122 750.423 481.455H749.418C749.418 480.943 749.536 480.495 749.771 480.108C750.007 479.722 750.328 479.421 750.734 479.205C751.144 478.989 751.602 478.881 752.111 478.881C752.622 478.881 753.075 478.989 753.47 479.205C753.865 479.421 754.175 479.712 754.399 480.078C754.624 480.445 754.736 480.853 754.736 481.301C754.736 481.622 754.678 481.936 754.561 482.243C754.447 482.547 754.249 482.887 753.965 483.262C753.683 483.634 753.293 484.088 752.793 484.625L750.832 486.722V486.79H754.889V487.728H749.384ZM756.649 487.728V486.96L759.53 483.807C759.868 483.438 760.146 483.117 760.365 482.844C760.584 482.568 760.746 482.31 760.851 482.068C760.959 481.824 761.013 481.568 761.013 481.301C761.013 480.995 760.939 480.729 760.791 480.505C760.646 480.28 760.447 480.107 760.195 479.985C759.942 479.862 759.658 479.801 759.342 479.801C759.007 479.801 758.715 479.871 758.465 480.01C758.217 480.147 758.026 480.338 757.889 480.585C757.756 480.833 757.689 481.122 757.689 481.455H756.683C756.683 480.943 756.801 480.495 757.037 480.108C757.273 479.722 757.594 479.421 758 479.205C758.409 478.989 758.868 478.881 759.376 478.881C759.888 478.881 760.341 478.989 760.736 479.205C761.131 479.421 761.44 479.712 761.665 480.078C761.889 480.445 762.001 480.853 762.001 481.301C762.001 481.622 761.943 481.936 761.827 482.243C761.713 482.547 761.514 482.887 761.23 483.262C760.949 483.634 760.558 484.088 760.058 484.625L758.098 486.722V486.79H762.155V487.728H756.649Z" fill="black"/>
</svg>
