<svg version="1.2" xmlns="http://www.w3.org/2000/svg" viewBox="0 0 671 582" width="671" height="582">
	<title>Like (1)-ai</title>
	<style>
		.s0 { fill: #362d46 } 
		.s1 { fill: none;stroke: #000000;stroke-linecap: round;stroke-linejoin: round;stroke-width: 2.6 } 
		.s2 { fill: #fff8e1 } 
		.s3 { fill: #000000 } 
		.s4 { fill: #00bbd6 } 
		.s5 { fill: none;stroke: #000000;stroke-linecap: round;stroke-linejoin: round;stroke-width: 3.1 } 
	</style>
	<g id="Layer 1">
		<g id="&lt;Group&gt;">
			<g id="&lt;Group&gt;">
				<path id="&lt;Path&gt;" class="s0" d="m376.9 239.3c-24.6 0-123.8-7.7-129.5-9.3-5.8-1.6-17.8-8.1-21.2-11.6-3.3-3.6-4.9-8.7-5-13.5-0.1-4.9 3.6-9.3 6-13.7 2.4-4.4 6-12.2 8.6-16.7 2.6-4.6 6.2-12 6.2-12 0 0 7.4-15.5 9.7-20.8 2.3-5.3 5.3-12.1 7.1-16.6 1.9-4.5 3.8-11.9 5-14.8 1.2-2.9 5.9-14.8 7.8-20.3 1.9-5.5 4.2-10.9 7.3-16.2 3.2-5.2 10.3-13.4 12.9-15.5 2.6-2.1 11.8-8.7 15.6-10.3 3.7-1.7 15.1-5.4 17.9-5.9 2.8-0.5 11.1-1.9 18.7-0.6 7.6 1.4 18.4 5.6 22.8 8.2 4.5 2.6 12.9 8.9 15.9 12.2 2.9 3.4 7.6 10.6 10.5 15.5 2.9 5 8 21.2 9.5 25.1 1.5 3.8 7.6 20.1 8.9 23.7 1.3 3.6 10.6 25.6 12.7 30.5 2 4.8 8 17.4 9.1 20.3 1 2.8 8.2 13.1 10 16.4 1.7 3.3 3.8 7.9 4.1 10.7 0.3 2.8-0.8 8.3-2.9 11.8-2.2 3.6-7.5 8.6-13.7 11 0 0-29.5 12.4-54 12.4z"/>
				<path id="&lt;Path&gt;" class="s1" d="m305 198.4c-17.6 58.3-98.4 29.3-81.2-1.2 42.1-74.5 40.6-99.8 54.8-124 19.4-32.9 55.9-31.9 55.9-31.9"/>
				<path id="&lt;Path&gt;" class="s1" d="m334.5 41.3c0 0 36.5-1 55.8 31.9 14.2 24.2 12.7 49.5 54.8 124 17.2 30.5-63.8 59.5-81.4 1.2"/>
				<path id="&lt;Path&gt;" class="s2" d="m358.2 182.5c1.1 3.8 2.4 16.4 20.3 28.4 7.7 5.2 12.8 5.3 19.4 5.7 6.6 0.5 20.2 4.8 24.3 5.2 4.2 0.4 5.4 4 4.1 5.8-1.2 1.7-10.1 15.9-14.3 18.8-4.2 3-13.8 11.2-15.6 12.5-1.7 1.2-15.8 10.1-23.5 12.5-7.6 2.4-22.1 6.1-31 6.4-8.9 0.3-19.1-1.5-24.8-2.2-5.7-0.6-22.6-5.6-30.7-9.1-8-3.6-21.4-12.4-27.2-18.4-5.8-6.1-13.7-15.3-14.7-18.3-1-3.1-4.1-5.2 1.2-7.1 5.4-2 19.5-6.1 27.6-7.9 8.1-1.8 10-1.6 15.4-4.8 5.5-3.2 13.1-7.2 14.5-9.9 1.3-2.7 6.4-11.9 7.7-16.6 1.3-4.8 2.3-10.2 3.4-9.6 1.2 0.7 9.2 4.8 18.5 5.1 9.3 0.3 8.7 0.4 14-1 5.3-1.5 10-2.5 10.5-1.3 0.4 1.2 0.9 5.8 0.9 5.8z"/>
				<path id="&lt;Path&gt;" class="s1" d="m358.2 182.5c1.1 3.8 2.4 16.4 20.3 28.4 7.7 5.2 12.8 5.3 19.4 5.7 6.6 0.5 20.2 4.8 24.3 5.2 4.2 0.4 5.4 4 4.1 5.8-1.2 1.7-10.1 15.9-14.3 18.8-4.2 3-13.8 11.2-15.6 12.5-1.7 1.2-15.8 10.1-23.5 12.5-7.6 2.4-22.1 6.1-31 6.4-8.9 0.3-19.1-1.5-24.8-2.2-5.7-0.6-22.6-5.6-30.7-9.1-8-3.6-21.4-12.4-27.2-18.4-5.8-6.1-13.7-15.3-14.7-18.3-1-3.1-4.1-5.2 1.2-7.1 5.4-2 23.9-7.7 32-9.5 8.2-1.8 6.9-1.2 12.3-4.4 5.5-3.2 11.4-6.5 14.3-10.9 1.7-2.6 5.3-9.7 6.6-14.4 1.3-4.8 2.3-10.2 3.4-9.6 1.2 0.7 9.2 4.8 18.5 5.1 9.3 0.3 8.7 0.4 14-1 5.3-1.5 10-2.5 10.5-1.3 0.4 1.2 0.9 5.8 0.9 5.8z"/>
				<path id="&lt;Path&gt;" class="s2" d="m366.2 72.4c1.9 16.9 19.4 34.8 19.4 34.8 0 0 9.6 0.7 8.9 9.2-0.6 5.9-9.2 10.5-9.2 10.5-1.9 26.9-22.6 61.8-60.1 54-37.5-7.8-36-52.5-36-52.5 0 0-9.7-0.5-11.2-8-1.8-8.7 6.9-9.9 6.9-9.9 0 0 1.8-19.7 27.5-26.2 25.6-6.6 42.8-25.4 42.8-25.4l-10.9 30c7.8-0.3 21.9-16.5 21.9-16.5z"/>
				<path id="&lt;Path&gt;" class="s1" d="m366.2 72.4c1.9 16.9 19.4 34.8 19.4 34.8 0 0 9.6 0.7 8.9 9.2-0.6 5.9-9.2 10.5-9.2 10.5-1.9 26.9-22.6 61.8-60.1 54-37.5-7.8-36-52.5-36-52.5 0 0-9.7-0.5-11.2-8-1.8-8.7 6.9-9.9 6.9-9.9 0 0 1.8-19.7 27.5-26.2 25.6-6.6 42.8-25.4 42.8-25.4l-10.9 30c7.8-0.3 21.9-16.5 21.9-16.5z"/>
				<path id="&lt;Path&gt;" class="s1" d="m340.1 142.8c-3.2 0-5.8-2.6-5.8-5.8v-9.2"/>
				<path id="&lt;Path&gt;" class="s1" d="m327.8 155.4c0 0 8.6 7.3 19.6 0"/>
				<path id="&lt;Path&gt;" class="s3" d="m360.4 118.7c0 2.1-1.6 3.8-3.7 3.8-2.1 0-3.8-1.7-3.8-3.8 0-2 1.7-3.7 3.8-3.7 2.1 0 3.7 1.7 3.7 3.7z"/>
				<path id="&lt;Path&gt;" class="s3" d="m318.1 118.7c0 2.1-1.6 3.8-3.7 3.8-2.1 0-3.7-1.7-3.7-3.8 0-2 1.6-3.7 3.7-3.7 2.1 0 3.7 1.7 3.7 3.7z"/>
				<path id="&lt;Path&gt;" class="s1" d="m302.2 112.7l-15.8-6.7"/>
				<path id="&lt;Path&gt;" class="s1" d="m369.6 112.7l15.1-6.4"/>
				<path id="&lt;Path&gt;" class="s1" d="m342.8 119h-13.5"/>
				<path id="&lt;Path&gt;" class="s1" d="m367.2 98.1c0 0-9-4.6-21 1"/>
				<path id="&lt;Path&gt;" class="s1" d="m303.9 98.1c0 0 9-4.6 21 1"/>
				<path id="&lt;Path&gt;" class="s1" d="m370.2 118.7c0 7.5-6 13.6-13.5 13.6-7.5 0-13.6-6.1-13.6-13.6 0-7.5 6.1-13.5 13.6-13.5 7.5 0 13.5 6 13.5 13.5z"/>
				<path id="&lt;Path&gt;" class="s1" d="m328 118.7c0 7.5-6.1 13.6-13.6 13.6-7.5 0-13.5-6.1-13.5-13.6 0-7.5 6-13.5 13.5-13.5 7.5 0 13.6 6 13.6 13.5z"/>
			</g>
			<path id="&lt;Path&gt;" class="s4" d="m583 531.7h-479.7c0-3.8-0.1-7.6-0.1-11.4q0.1-0.2 0.2-0.4c0.4-1.4 0.4-3 0.6-4.4 0.3-1.7 0.6-3.3 0.9-4.9 0.5-3.3 0.8-6.5 1.5-9.7 0.7-3 1.6-6.1 1.4-9.2-0.1-3-2.2-4.5-4.9-4.3-2.2-2.3-5.2-3.7-7.4-5.9-0.4-0.4 0.2-2.9-0.3-3.1 6.9-39.5 14.8-70.4 15.3-73 1.5-7 5.4-16.5 7.1-22.6 1.8-6.2 6.4-16.5 7.9-22.5 1.5-6 3.4-8.4 5-13.4 1.5-5.1 3.8-10.7 5.5-15 1.6-4.4 7.7-17.4 9.7-22.1 2.1-4.6 7.7-15.1 10.9-21 3.1-5.8 12-18.4 14.8-23.1 2.9-4.7 11.6-13.7 14.4-16.6 2.9-2.9 15.8-12.9 18.1-14.8 2.4-1.9 7.5-4.4 13.6-7.2 6.2-2.9 20.4-5.1 26.5-6.3 6.2-1.1 24.8-4 30-4.7q1-0.1 2.4-0.5-0.2 1.7 0.3 3.5c5.5 20.9 18.9 34.3 38.5 42.1q1.3 0.5 2.5 0.6c5.5 2.1 12.9 1.7 19.8 0.7q1 0.2 2.2 0.2 0.8 0 1.5-0.1 1.4 0.4 3 0.4c2.5 0 4.4-0.8 5.9-2 5.5-1 9.6-2.9 13.5-5.4 2.6-0.4 4.6-1.6 5.9-3.3q1-0.7 1.8-1.6c7-3.6 12.5-13 15.8-19.7 2-4.2 4.9-9.8 5.2-15 0.9 0.3 1.4 0.4 1.4 0.4 0 0 16 3.3 37.3 6.6 21.3 3.4 31.9 11.6 40 18.2 8 6.6 25.2 25.5 29.4 31.9 4.2 6.4 17.1 29.6 22.9 42.7 5.9 13.2 3.6 7.1 6.8 18.5 3.2 11.4 19.7 63.5 19.7 63.5l17.4 67.1c0 0 11.9 46.2 15.8 66.8z"/>
			<path id="&lt;Path&gt;" class="s2" d="m304.8 492.6c-0.6-1.3-0.5-2.6-2.1-8.9-1.6-6.3-1.3-19.2-1.1-24.8 0.2-5.5 1.6-20.9 1.6-26.3 0-5.4 2.6-19.9 3-21.9 0.4-1.9 4.1-2.3 6.8-3.2 2.7-1 9.1-1.6 10.4-3.7 1.3-2.1 3-0.9 5.8-8.4 2.8-7.5 8.3-25.3 9.5-29 1.2-3.8 2.6-4.5 6-5.6 3.5-1 6.9 2.9 9.8 8.7 2.9 5.7 0.7 22.4 0.3 25.1-0.3 2.7-1.1 4.6 9.7 2.2 10.8-2.4 19.5-1.4 25.1-0.8 5.5 0.6 7.2 7.5 7.5 10 0.2 2.6 2.9 4.9 5.8 8.2 2.9 3.3 2.7 7.2 2.8 9.3 0.1 2.2-1.1 7.4-1.1 7.4 0 0 3.5 4.3 3.6 8.7 0.1 4.3-1.6 8.4-3.9 11.6-2.2 3.1-4.1 6.2-5 9-0.9 2.7-2.6 8.5-10.6 14.6-8.1 6.1-26.3 12.1-36.3 14.3-10 2.3-40.3 6.5-40.3 6.5 0 0-6.8-1.7-7.3-3z"/>
			<g id="&lt;Group&gt;">
				<path id="&lt;Path&gt;" class="s5" d=""/>
				<path id="&lt;Path&gt;" class="s5" d="m316.6 507.1c-94.5 10.1-222.9-11.2-221.4-28.7 5.2-59.6 39.4-141.9 39.4-141.9 21.8-60 52.1-96.3 82.3-109.2 10-4.2 40.2-8.9 59.5-11.6"/>
			</g>
			<g id="&lt;Group&gt;">
				<path id="&lt;Path&gt;" class="s1" d="m481.6 531.7l-26.9-183.7"/>
				<path id="&lt;Path&gt;" class="s1" d="m392.3 216c19.3 2.7 46.6 7.2 56.3 11.3 30.2 12.9 60.6 49.2 82.3 109.2 21.7 59.9 52.1 195.2 52.1 195.2"/>
			</g>
			<path id="&lt;Path&gt;" class="s1" d="m51.8 531.7h51.5 479.7 37.2"/>
			<path id="&lt;Path&gt;" class="s1" d="m392.2 216.2c0 0-7.2 47.1-57.9 47.1"/>
			<path id="&lt;Path&gt;" class="s1" d="m276.4 216.2c0 0 7.3 47.1 57.9 47.1"/>
			<path id="&lt;Path&gt;" class="s0" d="m312.2 503.8c-1.7-1.4-3.8-4-4.4-6.6-0.5-2.6 2.7-2.1 6.3-2.5 3.6-0.5 8.6-1.4 8.9 3.3 0.3 4.7 0.9 6.2-6.1 8.3 0 0-3-1.2-4.7-2.5z"/>
			<path id="&lt;Path&gt;" class="s0" d="m308.9 408.1c-1.2-3.4-3.2-8.1 1.3-9.3 4.6-1.3 5.9-2.2 9.4 4.2 0 0-0.2 1.2-0.6 2.6-1.4 0.2-2.7 0.8-3.9 1.7q-0.2 0-0.3 0.1c-0.5 0.2-1 0.4-1.1 0.4-1 0.3-2 0.5-3 0.7q-0.8 0.1-1.6 0.3-0.1-0.3-0.2-0.7z"/>
			<g id="&lt;Group&gt;">
				<path id="&lt;Path&gt;" class="s5" d="m306.7 408.5c4.4-0.6 7.2-1.2 12.1-2.2 12.6-2.7 16.9-34.3 20.8-42.3 4-8 17.6-4.2 16.3 19.5-1.4 23.7-6.3 30.5-6.3 30.5 0 0 22.6 0.1 31.9-8.3"/>
				<path id="&lt;Path&gt;" class="s5" d="m354.2 398.6c0 0 21.3-4.7 34.5-2.7 13.2 1.9 13.9 24.6-21.7 40.3"/>
				<path id="&lt;Path&gt;" class="s5" d="m396.5 409.9c0 0 10 2.1 9.1 15.2-0.5 7.9-20.1 20.7-36.1 26.9"/>
				<path id="&lt;Path&gt;" class="s5" d="m403.8 430.2c0 0 9.4 10 1.1 20.3-8.4 10.3-33.5 18.6-33.5 18.6"/>
				<path id="&lt;Path&gt;" class="s5" d="m400.7 454.6c0 0-1 21-34.6 30.8-33.6 9.8-59.8 9.6-59.8 9.6"/>
			</g>
			<path id="&lt;Path&gt;" class="s5" d="m312.1 397.9c-37.5 10.1-98.6 10.1-98.6 10.1l20.4-73.7"/>
			<path id="&lt;Path&gt;" class="s5" d="m306.4 409.9c0 0-12.7 61.3 0.3 86"/>
			<path id="&lt;Path&gt;" class="s5" d="m321.7 494.4c0 0 1.6 1.4 0.3 8.2-1.3 6.8-10.6 6.7-15.4-7"/>
			<path id="&lt;Path&gt;" class="s5" d="m306.4 409.9c2.5-13 7-13.8 10.4-11 3.8 3.1 2.7 7.2 2.7 7.2"/>
			<path id="&lt;Path&gt;" class="s5" d=""/>
			<path id="&lt;Path&gt;" class="s1" d="m102.3 531.7l1-6.6 3.6-26.2 0.9-6.8 0.5-3.2"/>
		</g>
		<path id="Like
" class="s3" aria-label="Like"  d="m321.7 622h16.3v-3h-12.9v-20.8h-3.4zm21.3-21.5c1.3 0 2.3-0.9 2.3-2.2 0-1.1-1-2-2.3-2-1.2 0-2.2 0.9-2.2 2.1 0 1.2 1 2.1 2.2 2.1zm-1.6 21.5h3.3v-18h-3.3zm23.3 0h4l-8.3-10.6 7.5-7.4h-3.9l-9.8 8.9v-16.1h-3.3v25.2h3.3v-4.9l3.7-3.5zm22.7-8.9c0-5.6-3.7-9.3-8.9-9.3-5.2 0-9 3.8-9 9.2 0 5.3 3.8 9.2 9.7 9.2 2.9 0 5.4-1 7.1-2.9l-1.8-2.1c-1.4 1.4-3.1 2.1-5.2 2.1-3.6 0-6.2-2.1-6.6-5.2h14.7c0-0.3 0-0.8 0-1zm-8.9-6.6c3.2 0 5.5 2.2 5.8 5.2h-11.6c0.4-3 2.7-5.2 5.8-5.2z"/>
	</g>
</svg>