<svg version="1.2" xmlns="http://www.w3.org/2000/svg" viewBox="0 0 500 500" width="1000" height="1000">
	<title>Content_moderation_yellow-svg</title>
	<style>
		.s0 { fill: #ffcf44 } 
		.s1 { fill: #fc6140 } 
	</style>
	<path id="Layer" class="s0" d="m250 388.5c-76.6 0-138.5-61.9-138.5-138.5 0-76.6 61.9-138.5 138.5-138.5 76.6 0 138.5 61.9 138.5 138.5 0 76.6-61.9 138.5-138.5 138.5z"/>
	<g id="Layer">
		<g id="Layer">
			<path id="Layer" class="s1" d="m192.9 180l-4.2 3.7-15-10.2v0.1l8.4 15.9-4.3 3.9-22.2-14.8 4.2-3.8 14.8 10.5v-0.1l-8.3-16.1 4-3.5 15.1 10.4v-0.1l-8.6-16.1 4.2-3.7 11.9 23.9z"/>
			<path id="Layer" class="s1" d="m192.7 149.9l5.2-2.2 3.9 9.1 9.6-4-3.8-9.1 5.2-2.2 9.9 23.8-5.2 2.2-4.3-10.3-9.6 4.1 4.3 10.2-5.3 2.2-9.9-23.8z"/>
			<path id="Layer" fill-rule="evenodd" class="s1" d="m234.1 137.3l5.8-0.7 12.3 24.7-5.8 0.6-2.6-5.5-9.6 1-1.4 5.9-5.7 0.7 7-26.7zm1.2 15.8h-0.1zm6.7-0.7l-4.2-9.1h-0.1l-2.3 9.8z"/>
			<path id="Layer" class="s1" d="m262.8 141.7l-7.6-1 0.6-4.7 20.9 2.8-0.6 4.7-7.7-1-2.7 20.8-5.7-0.7c0 0 2.8-20.9 2.8-20.9z"/>
			<path id="Layer" class="s1" d="m302.6 148l5 2.6-11.5 23-5.1-2.5 11.6-23.1z"/>
			<path id="Layer" class="s1" d="m311.3 172.9q-0.8 1-1 2-0.2 1 0.1 1.9 0.3 1 0.9 1.8 0.6 0.9 1.5 1.6 0.6 0.5 1.4 0.9 0.7 0.4 1.6 0.6 0.8 0.2 1.6 0 0.8-0.2 1.4-0.9 0.6-0.9 0.5-1.8-0.1-0.9-0.7-1.9-0.6-1.1-1.5-2.1-0.8-1.1-1.7-2.3-0.9-1.2-1.7-2.5-0.7-1.2-1.1-2.6-0.3-1.3-0.1-2.7 0.3-1.3 1.4-2.8 1.2-1.5 2.8-2.1 1.6-0.7 3.3-0.6 1.6 0.1 3.3 0.8 1.6 0.7 3 1.8 1.6 1.2 2.8 2.7 1.2 1.6 1.7 3.2 0.5 1.7 0.2 3.5-0.4 1.8-1.7 3.5l-4.4-3.4q0.7-0.9 0.8-1.8 0.2-0.8-0.1-1.6-0.3-0.8-0.9-1.5-0.5-0.7-1.3-1.3-0.6-0.4-1.2-0.8-0.6-0.3-1.3-0.3-0.7-0.1-1.3 0.1-0.6 0.2-1.1 0.9-0.5 0.6-0.5 1.1-0.1 0.5 0.3 1.4 0.5 0.8 1.4 2 0.9 1.3 2.4 3.3 0.3 0.4 0.8 1 0.5 0.6 0.9 1.4 0.5 0.8 0.8 1.8 0.3 0.9 0.4 2 0.1 1-0.3 2.2-0.3 1.1-1.2 2.2-1.1 1.4-2.6 2.2-1.5 0.8-3.2 0.8-1.8 0-3.8-0.7-1.9-0.8-4-2.4-1.7-1.3-2.9-3-1.2-1.7-1.7-3.5-0.5-1.8-0.2-3.7 0.4-2 1.9-3.8l4.3 3.4z"/>
		</g>
		<g id="Layer">
			<path id="Layer" class="s1" d="m162.9 286l3.7 6.6-11.9 13 17.2-3.3 3.6 6.6-21.2 11.7-2.4-4.4 15-8.3v-0.1l-17.9 3.1-2-3.6 12.1-13.4-0.1-0.1-14.9 8.2-2.4-4.3 21.3-11.7z"/>
			<path id="Layer" fill-rule="evenodd" class="s1" d="m169.2 320.2q1.9-1.9 4.1-3 2.2-1.2 4.5-1.4 2.3-0.2 4.6 0.7 2.3 0.8 4.3 2.7 2 2 3 4.2 0.9 2.2 0.8 4.6-0.1 2.3-1.1 4.5-1.1 2.3-2.9 4.2-1.8 1.9-4 3-2.2 1.1-4.5 1.3-2.3 0.2-4.5-0.6-2.3-0.8-4.4-2.8-2-2-2.9-4.2-0.9-2.2-0.9-4.5 0.1-2.3 1.1-4.5 1-2.3 2.8-4.2zm3.9 3.7q-1.1 1.1-1.8 2.4-0.8 1.3-1 2.7-0.2 1.4 0.2 2.7 0.4 1.4 1.7 2.7 1.3 1.2 2.7 1.6 1.4 0.3 2.8 0 1.3-0.3 2.6-1 1.3-0.8 2.3-2 1.1-1.1 1.9-2.4 0.8-1.4 1-2.8 0.3-1.3-0.2-2.7-0.4-1.4-1.7-2.6-1.3-1.3-2.7-1.6-1.4-0.4-2.8-0.1-1.3 0.3-2.6 1.1-1.3 0.9-2.4 2z"/>
			<path id="Layer" fill-rule="evenodd" class="s1" d="m198 329.7h-0.1zm9.3 4.9q2.1 1.1 3.5 2.7 1.4 1.6 2.1 3.6 0.6 2 0.3 4.4-0.3 2.4-1.7 5-1.3 2.4-2.9 4-1.7 1.7-3.6 2.5-2 0.8-4.3 0.7-2.2-0.1-4.7-1.4l-9.3-4.9 11.3-21.5zm-13.7 15.1l4.2 2.3q1 0.5 2.1 0.7 1.2 0.1 2.3-0.2 1.2-0.4 2.3-1.4 1.1-1 2-2.8 0.9-1.6 1.3-3.1 0.3-1.4 0.1-2.8-0.2-1.3-1.2-2.4-0.9-1.1-2.6-2l-3.4-1.8-7.1 13.5z"/>
			<path id="Layer" class="s1" d="m220.6 340.8l17.7 4.1-1 4.4-12.5-3-1.2 5.1 11.5 2.7-1 4-11.4-2.7-1.4 5.8 12.7 3-1 4.4-17.9-4.2z"/>
			<path id="Layer" fill-rule="evenodd" class="s1" d="m242.2 345.4l13.1-0.4q1.6 0 2.9 0.5 1.4 0.5 2.3 1.4 1 0.9 1.5 2.1 0.5 1.2 0.6 2.6 0 2.1-0.8 3.7-0.9 1.6-2.9 2.4v0.1q1 0.3 1.6 0.8 0.7 0.5 1.1 1.3 0.4 0.8 0.6 1.7 0.3 0.9 0.3 1.8 0.1 0.6 0.1 1.4 0.1 0.7 0.2 1.5 0.1 0.8 0.3 1.6 0.2 0.7 0.6 1.2l-5.3 0.2q-0.3-0.6-0.4-1.3-0.2-0.7-0.3-1.5-0.1-0.7-0.1-1.5-0.1-0.8-0.2-1.5-0.3-1.9-1.2-2.8-0.9-0.9-3-0.8l-5.3 0.1 0.2 9.5-5.3 0.1c0 0-0.6-24.2-0.6-24.2zm5.6 10.8zm5.8-0.1q1.8-0.1 2.8-0.9 0.9-0.9 0.8-2.7 0-1.8-1-2.5-0.9-0.8-2.7-0.8l-5.9 0.2 0.2 6.8z"/>
			<path id="Layer" fill-rule="evenodd" class="s1" d="m273.1 342.2zm5.2-1.5l15.5 20.8-5.3 1.5-3.3-4.7-8.7 2.6-0.3 5.7-5.2 1.5 2.1-25.9zm-1.6 16zm6-1.8l-5.4-7.7h-0.1l-0.5 9.5z"/>
			<path id="Layer" class="s1" d="m293.8 339.1l-6.4 3.5-2.2-3.9 17.5-9.5 2.2 3.9-6.4 3.5 9.4 17.4-4.7 2.5z"/>
			<path id="Layer" class="s1" d="m305.3 326.7l4.2-3.3 15.1 19-4.2 3.3z"/>
			<path id="Layer" fill-rule="evenodd" class="s1" d="m322.5 329q-2-1.7-3.3-3.8-1.3-2.2-1.6-4.4-0.4-2.3 0.3-4.7 0.6-2.3 2.4-4.5 1.8-2.1 4-3.2 2.2-1.1 4.5-1.1 2.3-0.1 4.6 0.8 2.3 0.9 4.4 2.6 2 1.7 3.3 3.8 1.2 2.1 1.5 4.3 0.4 2.3-0.3 4.6-0.6 2.3-2.4 4.5-1.8 2.2-4 3.3-2.2 1-4.5 1.1-2.3 0.1-4.6-0.8-2.3-0.8-4.3-2.5zm3.5-4.1q1.1 1 2.5 1.6 1.3 0.7 2.7 0.8 1.4 0.2 2.7-0.4 1.4-0.5 2.5-1.9 1.2-1.3 1.4-2.8 0.3-1.4-0.1-2.7-0.4-1.3-1.3-2.5-0.8-1.2-2-2.2-1.2-1-2.6-1.7-1.4-0.7-2.8-0.9-1.4-0.1-2.7 0.4-1.4 0.5-2.5 1.9-1.2 1.4-1.5 2.8-0.2 1.4 0.2 2.8 0.4 1.3 1.3 2.5 0.9 1.3 2.1 2.3z"/>
			<path id="Layer" class="s1" d="m330.1 299.7l2.1-4.9 19-2.7h0.1l-14.9-6.6 2-4.6 22.2 9.8-2.2 4.9-18.9 2.7-0.1 0.1 14.9 6.5-2 4.6-22.2-9.8z"/>
		</g>
	</g>
	<g id="Layer">
		<path id="Layer" class="s1" d="m172.2 244.4q-0.1-1-0.7-1.8-0.5-0.8-1.2-1.5-0.8-0.6-1.8-1-1-0.3-2-0.3-2 0-3.4 0.7-1.3 0.8-2.2 2.1-0.8 1.2-1.2 2.9-0.4 1.6-0.4 3.3c0 1.2 0.1 2.2 0.4 3.3q0.4 1.5 1.2 2.8 0.9 1.2 2.2 2 1.4 0.8 3.3 0.8 2.7 0 4.2-1.7 1.5-1.6 1.8-4.2h5.6q-0.2 2.4-1.1 4.4-0.9 2-2.4 3.4-1.5 1.4-3.6 2.2-2 0.7-4.4 0.7-3.1 0-5.5-1-2.4-1.1-4-3-1.7-1.8-2.6-4.3-0.9-2.5-0.9-5.4c0-1.9 0.3-3.7 0.9-5.4q0.9-2.6 2.6-4.4 1.6-1.9 4-3 2.4-1.1 5.5-1.1 2.1 0 4.1 0.7 1.9 0.6 3.5 1.8 1.5 1.2 2.5 3 1 1.7 1.2 4h-5.6z"/>
		<path id="Layer" fill-rule="evenodd" class="s1" d="m183.4 248.8q0-2.9 0.9-5.4 0.9-2.6 2.5-4.5 1.7-1.8 4.1-2.9 2.4-1.1 5.4-1.1 3.1 0 5.5 1.1 2.4 1.1 4.1 2.9 1.6 1.9 2.5 4.5 0.9 2.5 0.9 5.4c0 2-0.3 3.7-0.9 5.4q-0.9 2.5-2.5 4.3-1.7 1.9-4.1 2.9-2.4 1.1-5.5 1.1-3 0-5.4-1.1-2.4-1-4.1-2.9-1.6-1.8-2.5-4.3-0.9-2.5-0.9-5.4zm5.8 0q0 1.7 0.4 3.3 0.4 1.5 1.2 2.8 0.9 1.2 2.2 2 1.4 0.7 3.4 0.7 1.9 0.1 3.3-0.7 1.3-0.8 2.2-2 0.8-1.3 1.2-2.8 0.4-1.6 0.4-3.3c0-1.1-0.1-2.2-0.4-3.3q-0.4-1.7-1.2-2.9-0.9-1.3-2.2-2.1-1.4-0.7-3.3-0.7-2 0-3.4 0.7-1.3 0.8-2.2 2.1-0.8 1.2-1.2 2.9-0.4 1.6-0.4 3.3z"/>
		<path id="Layer" class="s1" d="m215.8 235.6h5.8l11 17.6v-17.6h5.4v26.3h-5.7l-11-17.6h-0.1v17.6h-5.4z"/>
		<path id="Layer" class="s1" d="m251.6 240.4h-7.9v-4.9h21.5v4.9h-7.8v21.5h-5.8z"/>
		<path id="Layer" class="s1" d="m270.9 235.6h19.6v4.8h-13.9v5.7h12.8v4.5h-12.8v6.4h14.2v4.9h-19.9z"/>
		<path id="Layer" class="s1" d="m297.3 235.6h5.8l11 17.6v-17.6h5.5v26.3h-5.8l-11-17.6h-0.1v17.6h-5.4z"/>
		<path id="Layer" class="s1" d="m333.1 240.4h-7.9v-4.9h21.5v4.9h-7.8v21.5h-5.8z"/>
	</g>
</svg>