<svg version="1.2" xmlns="http://www.w3.org/2000/svg" viewBox="0 0 655 609" width="430" height="400">
	<title>core values-svg</title>
	<defs>
		<clipPath clipPathUnits="userSpaceOnUse" id="cp1">
			<path d="m-133-163h933.33v933.33h-933.33z"/>
		</clipPath>
	</defs>
	<style>
		.s0 { fill: #fff8e1 } 
		.s1 { fill: #00bbd6 } 
		.s2 { fill: #fc6140 } 
		.s3 { fill: #ffd740 } 
		.s4 { fill: #ffffff } 
		.s5 { fill: #ffcf44 } 
		.s6 { fill: none;stroke: #000000;stroke-linecap: round;stroke-linejoin: round;stroke-width: 1.7 } 
	</style>
	<g id="g10">
		<g id="g12">
			<g id="Clip-Path: g14" clip-path="url(#cp1)">
				<g id="g14">
					<g id="g20">
						<path id="path22" class="s0" d="m348.7 535.8c-165.7 64.2-218.7-154.2-173-282.3 45.6-128.1 110-145.6 188.6-131.5 81.6 14.7 189.7 65.9 193 162.6 5 149.8-105.3 211.2-208.6 251.2z"/>
					</g>
					<g id="g24">
						<path id="path26" class="s0" d="m232.3 468.3c-165.6 64.2-218.6-154.2-173-282.3 45.7-128.1 110-145.6 188.7-131.5 81.5 14.7 189.6 65.9 192.9 162.6 5.1 149.8-105.3 211.2-208.6 251.2z"/>
					</g>
					<g id="g28">
						<path id="path30" class="s1" d="m361 560.1c0 1.8-1.5 3.2-3.2 3.2-1.8 0-3.3-1.4-3.3-3.2 0-1.8 1.5-3.3 3.3-3.3 1.7 0 3.2 1.5 3.2 3.3z"/>
					</g>
					<g id="g32">
						<path id="path34" class="s1" d="m93.5 363.8c0 1.8-1.5 3.2-3.3 3.2-1.7 0-3.2-1.4-3.2-3.2 0-1.8 1.5-3.2 3.2-3.2 1.8 0 3.3 1.4 3.3 3.2z"/>
					</g>
					<g id="g36">
						<path id="path38" class="s2" d="m210.9 525.4c0 5-4 8.9-8.9 8.9-4.9 0-8.9-3.9-8.9-8.9 0-4.9 4-8.8 8.9-8.8 4.9 0 8.9 3.9 8.9 8.8z"/>
					</g>
					<g id="g40">
						<path id="path42" class="s2" d="m585.2 207c0 3.4-2.8 6.2-6.2 6.2-3.5 0-6.3-2.8-6.3-6.2 0-3.5 2.8-6.3 6.3-6.3 3.4 0 6.2 2.8 6.2 6.3z"/>
					</g>
					<g id="g44">
						<path id="path46" class="s3" d="m427.2 549.5c0 2-1.6 3.7-3.7 3.7-2 0-3.7-1.7-3.7-3.7 0-2.1 1.7-3.8 3.7-3.8 2.1 0 3.7 1.7 3.7 3.8z"/>
					</g>
					<g id="g48">
						<path id="path50" class="s3" d="m176.3 92.4c0 2-1.7 3.7-3.8 3.7-2 0-3.7-1.7-3.7-3.7 0-2.1 1.7-3.7 3.7-3.7 2.1 0 3.8 1.6 3.8 3.7z"/>
					</g>
					<g id="g52">
						<path id="path54" class="s3" d="m373.5 32.8c0 2.1-1.7 3.7-3.7 3.7-2.1 0-3.7-1.6-3.7-3.7 0-2 1.6-3.7 3.7-3.7 2 0 3.7 1.7 3.7 3.7z"/>
					</g>
					<g id="g56">
						<path id="path58" class="s4" d="m557.8 307.1c0 119.1-96.7 215.7-215.8 215.7-119.2 0-215.8-96.6-215.8-215.7 0-119.2 96.6-215.8 215.8-215.8 119.1 0 215.8 96.6 215.8 215.8z"/>
					</g>
					<g id="g60">
						<path id="path62" class="s0" d="m490.5 148.5c-7.6-3-16.3-11.1-24.2-17.8-8-6.7-30.6-18.3-34-19.7-3.4-1.3-1.7-3.8-1.7-3.8 0 0 7.2-10.9 10.9-17.5 3.8-6.6 11.4-24.2 12.9-28.1 1.6-3.9 3.4-2.1 3.4-2.1 0 0 48.7 16.1 53.8 17.8 5 1.6 4.7 5.2 5.3 8.8 0.6 3.5 1.6 6.5 2.7 10.2 1.1 3.7 7.6 17.7 10.6 22.9 3.1 5.2 5.7 13.2 7.8 20 2 6.9-1.9 9.6-8.2 9.3 0 0-31.7 3-39.3 0z"/>
					</g>
					<g id="g64">
						<path id="path66" class="s0" d="m172.3 176c-1.6 8-8.1 18-13.2 27-5.2 9-12.6 33.3-13.4 36.9-0.7 3.6-3.4 2.3-3.4 2.3 0 0-12-5.1-19.2-7.6-7.2-2.5-25.8-6.9-29.9-7.7-4.1-0.9-2.7-3-2.7-3 0 0 7.2-50.8 8-56 0.8-5.3 4.4-5.6 7.7-6.9 3.4-1.2 6.2-2.7 9.6-4.4 3.4-1.8 16.1-10.6 20.7-14.5 4.5-4 12-7.9 18.3-11.2 6.4-3.2 9.8 0.2 10.6 6.5 0 0 8.5 30.6 6.9 38.6z"/>
					</g>
					<g id="g68">
						<path id="path70" class="s5" d="m350.2 90.6c5.4 1.1 7-1.8 7.1 8.1 0.1 9.9 1.4 56.8 1.2 59.3-0.3 2.4 0.4 15.8-2.7 19.2-3.1 3.5-4.3 5.9-13.3 4-9-2-13.5-9-18.8-9-5.3 0-11.3 2.3-13.2 5.6-2 3.3-4 7.8-4.4 12.1-0.4 4.3-1.3 7.6 1.6 14.4 3 6.8 4 9.9 11 10.6 7 0.8 12.2-6.3 19.2-8 6.9-1.8 12.4-1.7 15 1.2 2.6 2.9 2.7 5.3 4.3 10.6 1.6 5.3-9.9 82.9-9.9 82.9l-99.2 10.7c0 0-9.6 0.3-13.2-3.7-3.5-4-12.1-15.7-15-9.8-2.9 6-18.6 20.6-37.8 20.9-19.2 0.4-34.3-1.1-41.3-3.4-7-2.3-14.8 0.2-14.6-9.2 0.2-9.4 6.2-57.1 12.8-73.3 6.6-16.2 23-47.3 31.4-57.6 8.4-10.3 41.9-46.2 63.7-56.1 21.8-9.8 45.7-21 68.5-25.2 22.7-4.2 47.6-4.3 47.6-4.3z"/>
					</g>
					<g id="g72">
						<path id="path74" class="s2" d="m557.6 298c-0.4 4.6-5 3.6-9 3.6-3.9 0-47.4 1-54.5 0-7.1-0.9-10.9-2.4-13.5-5.6-2.7-3.2-3.1-13.2 0-16.7 3-3.6 9.6-8.2 7.1-16.2-2.5-8-1.3-10-15.1-12.5-13.8-2.6-20 1.8-23.4 4.8-3.4 3-6.4 5.5-4.4 11.5 1.9 6.1 9.6 11.1 10.5 18.5 0.9 7.4-1.5 10.3-4.5 12.6-3.1 2.4-6 3.4-14.6 3.4-8.6 0-75.9 0.2-76.4 0.2-0.5 0-2-1.6-2-2.9 0-1.2-0.4-83-0.4-83 0 0-4.4-10.3-9.9-10.3-5.6 0-13 6.5-19.3 7.8-6.2 1.4-14.2 1.8-16.5-16-2.4-17.7 12.2-24.4 26.6-17.3 14.4 7.2 19-8.9 19.5-11 0.4-2.1-0.4-31.1-0.4-31.1l0.4-43.4c0 0-0.4-2.2 6.4-2 6.7 0.3 44 5.7 73.5 21.2 29.5 15.5 55.2 38 68 52.9 12.9 15 28.6 41.3 37.2 61.6 8.5 20.3 12.4 51.4 13.8 57.8 1.4 6.4 0.9 12.1 0.9 12.1z"/>
					</g>
					<g id="g76">
						<path id="path78" class="s5" d="m557.3 321.6c-0.4 8.3-2.5 29.5-11.3 55.9-8.8 26.4-26.5 52.2-47.6 78.2-21.2 26-63.8 46.3-84.1 54.7-20.2 8.4-73.2 13.8-80.2 12.9-7-0.8-6.1-2.9-6.1-2.9 0 0 0.7-49.9 0-66.5-0.6-16.6 9-37 23.7-30.1 14.7 6.8 28.6 1.8 27.8-8.3-0.8-10.1-8.4-16-18.8-15.6-10.5 0.4-16.8 7.7-20.7-0.7-3.9-8.5 12-92.1 12-92.1 0 0 43 6.8 67.4 4.8 24.3-2 26.4-7.4 32.3-15.1 5.9-7.6 2.8-10.5-2.6-20.7-5.4-10.3 0.5-20.4 14.3-19.4 20.4 1.4 18.9 14.1 11.6 25.4-7.3 11.3-2.9 24.3 7.9 26.6 10.8 2.3 74.9-1 74.9-1 0 0-0.1 5.7-0.5 13.9z"/>
					</g>
					<g id="g80">
						<path id="path82" class="s6" d="m358.1 301.6h1.7 81.2c2.9 0 5.7-0.8 8.1-2.4q0.1-0.1 0.2-0.2 1.3-0.9 2.4-2.1 0-0.1 0-0.1 0.2-0.2 0.4-0.5 0.2-0.2 0.4-0.5 0.2-0.3 0.4-0.7c1.2-2.1 2-4.6 1.7-7.7-0.3-3.1-1.7-6.7-5-10.7q-0.2-0.3-0.5-0.6 0-0.1 0-0.1c-2.6-3.2-3.9-6.3-4.3-9.1q-0.1 0-0.1 0c-0.6-4.7 1.2-8.6 4.5-11.5q0.3-0.3 0.7-0.6c2.9-2.3 6.8-4 10.9-4.7q2.7-0.5 5.4-0.5c3.4 0 6.8 0.6 9.9 1.6q0 0.1 0 0.1c4.9 1.7 9 4.8 10.8 9q0.6 1.3 0.8 2.8 0 0.1 0.1 0.1c0.5 3.9-0.8 8.5-4.9 13.5q-0.4 0.4-0.7 0.8 0 0 0 0c-1.7 2.2-2.8 4.3-3.5 6.2-1.7 4.7-0.8 8.5 0.9 11.4 2.4 4.2 7.1 6.5 11.9 6.5h2.6 54.5 5.2 3.9"/>
					</g>
					<g id="g84">
						<path id="path86" class="s2" d="m299 518.6c-9.3-2.5-12.4-3.3-40.7-12.6-28.4-9.3-55-33.6-70-47.5-15.1-13.9-26.6-32.9-36.2-48.8-9.5-15.9-13.6-33.9-18.1-45.1-4.5-11.2-7.4-44.3-7.1-47.9 0.2-3.5 1.7-4.4 2.3-4.4 0.5 0 50.1 0.6 50.1 0.6 0 0 12.9 1.6 20.8-1 8-2.7 7.4-7.6 7.2-15.8-0.3-8.2-8.1-8.6-8.9-18.2-0.8-9.6 26.3-13.8 35.6-7.7 9.2 6.1 1.4 16.2-1.9 25.8-3.4 9.6 6.1 16 8.6 16.9 2.5 1 81.8-0.6 83.8-0.6 1.9-0.1 3.5 1.4 3.5 1.4v24.9c0 0-0.3 53.8-0.3 56.9 0 3.2 4 12.3 7.9 13.6 3.9 1.3 11.8-0.2 15.9-3.2 4.1-2.9 8.2-5.9 12.9-6.1 4.7-0.2 6.7 1.8 11.5 6.7 4.9 5 4.2 15.7 4.2 21.6 0 6-9.6 16.6-17.1 15.5-7.5-1.1-10.8-6.9-17.4-9.9-6.6-2.9-12.4 0.7-15.4 5.4-3.1 4.6-2.2 16-2.2 21.3 0 5.2 0.3 50.1 0.5 55.8 0.2 5.6 0.6 6.9-8 6 0 0-12.3-1.2-21.5-3.6z"/>
					</g>
					<g id="g88">
						<path id="path90" class="s6" d="m357.8 301.6v-2.9-79.9q0-1.6-0.4-3.1c-0.6-3-2.2-5.7-4.5-7.6q-0.8-0.7-1.6-1.2-0.1 0-0.2-0.1-0.6-0.3-1.2-0.6-0.1 0-0.1 0-1.1-0.5-2.3-0.8 0 0-0.1 0c-2.7-0.6-5.9-0.4-9.5 1.5-1.6 0.7-3.3 1.8-5.1 3.3q-2.3 1.9-4.5 3h-0.1c-3.5 1.9-6.7 2.3-9.5 1.7q0 0 0 0c-4.6-0.9-8.2-4.5-10.4-9.3q-0.3-0.6-0.6-1.3 0-0.1 0-0.2c-1.3-3.1-2-6.6-2-10.1v-0.5c0-5.8 1.7-11.6 4.8-15.7q-0.1 0 0 0 0.4-0.7 1-1.3 0 0 0 0c3.1-3.5 7.3-5.3 12.2-4.3 2.8 0.5 5.9 2.1 9.1 4.7q1.2 1 2.3 1.7c4.5 3 8.3 3.7 11.5 3.2 1.7-0.3 3.3-0.9 4.7-1.6 3.9-2.3 6.2-6.6 6.4-11.2q0.1-0.3 0.1-0.7v-13.6-34.8-25.5-2.5"/>
					</g>
					<g id="g92">
						<path id="path94" class="s6" d="m328 313.3v82.8q0 1 0.2 2c0.4 3.2 1.8 6.2 4.1 8.3q0.1 0 0.1 0 1 0.9 2.1 1.6c1.3 0.7 2.7 1.3 4.3 1.6 3.3 0.6 7.3 0 12-3.2q0.3-0.2 0.7-0.5 0.7-0.5 1.5-1.1c3.5-2.9 6.8-4.4 9.8-4.9q0.7-0.1 1.5-0.1 0 0 0.1 0 1.9-0.1 3.7 0.4 0.2 0.1 0.4 0.2c2 0.7 3.8 1.9 5.4 3.5q1.1 1.2 2 2.6c1.7 2.6 2.9 5.7 3.6 9q0.4 2.2 0.6 4.5 0 0.2 0 0.4 0 0.5 0 1c0 7.4-2.8 14.9-7.6 18.8q-0.4 0.3-0.8 0.6c-4.7 3.3-11.2 3.4-18.7-2.8-2.7-2.1-5.1-3.5-7.4-4.2q0-0.1 0-0.1c-4.5-1.5-8.2-0.6-11.1 1.1q-1.4 0.8-2.6 2-0.2 0.2-0.3 0.4-0.8 0.8-1.4 1.8v0.1q-0.2 0.2-0.4 0.5 0 0 0 0.1c-1.2 2.1-1.8 4.5-1.8 6.9v1.4 3 2.9 17.6 48.9 0.5 0.5 1"/>
					</g>
					<g id="g96">
						<path id="path98" class="s6" d="m126.3 312.9h1.8 0.1 51.1 15.4q0.6 0 1.3-0.1c1.4-0.1 2.8-0.4 4.1-0.9q0 0 0 0c2.7-1.1 5-3 6.4-5.5q0.2-0.3 0.3-0.5c1.7-3.1 2.4-7.3 0.1-12.3-0.8-1.8-2-3.7-3.6-5.6q-0.5-0.6-0.9-1.2c-2.4-3.1-3.6-6.1-4-8.9-1.4-10.4 10.1-17 21.5-17 14.8 0 29.7 11.2 16.7 27.1q-2.3 2.7-3.5 5.2-0.7 1.5-1 2.8c-1.2 4.2-0.3 7.7 1.2 10.4q0.1 0.2 0.3 0.5 0.3 0.5 0.7 0.9 0 0.1 0.1 0.1 0.1 0.2 0.3 0.4 0.2 0.3 0.5 0.5 0 0.1 0 0.1 0.1 0.1 0.3 0.3c2.5 2.4 6.1 3.7 9.7 3.7h41.9 39.8 1.1"/>
					</g>
					<g id="g100">
						<path id="path102" class="s6" d="m557.8 307.1c0 119.1-96.7 215.7-215.8 215.7-119.2 0-215.8-96.6-215.8-215.7 0-119.2 96.6-215.8 215.8-215.8 119.1 0 215.8 96.6 215.8 215.8z"/>
					</g>
					<g id="g104">
						<path id="path106" class="s0" d="m524.3 548.4c-4.4 2.3-5.6 1.2-9.8 0-4.2-1.3-18.3-7.7-26.2-11.3-7.9-3.6-25.1-13.4-30.5-18.3-5.3-4.8-10.8-17.2-12.3-21.1-1.6-4-7.4-30.5-8.7-35.1-1.4-4.6-2.1-8.8-5.7-14.7-3.7-5.9-9.8-14.7-9.8-14.7 0 0-15.6-24-20.8-30.7-5.1-6.7-9.7-16.1-10.7-18.9-1-2.7-1.9-6.2-0.8-10.1 1-3.8 5.4-4 11.8-1.3 6.3 2.7 16.3 14.6 20.6 19.7 4.3 5.1 13.6 17.5 17.2 21.9 3.6 4.4 3.6 1.9 4-2.4 0.5-4.2 4.2-6.5 7.3-7.2 3.1-0.8 7.5 1.6 9.3 2.5 1.8 0.9 2.7-1.7 3.4-5.2 0.7-3.4 1.4-5.4 9.1-7 7.8-1.7 8.9 2.3 12.6 3.7 3.7 1.3 2.6-3.3 3.3-6.5 0.7-3.3 2.4-5.7 10.1-4.6 7.6 1.1 14.1 9.2 18.5 14.8 4.5 5.7 16.2 25 16.2 25l23 40.3c0 0 21.1 39.1 22.8 42.3 1.7 3.3 0.7 2.3-2.9 5.3 0 0-46.6 31.4-51 33.6z"/>
					</g>
					<g id="g108">
						<path id="path110" class="s6" d="m486.6 397.8c-0.5-12.7 13.8-23.8 41.8 22.4 28 46.3 50.9 92.3 50.9 92.3"/>
					</g>
					<g id="g112">
						<path id="path114" class="s6" d="m461.6 407.6c0 0-1.4-17.3 14.8-12.7 16.3 4.6 19.8 17 20.1 17"/>
					</g>
					<g id="g116">
						<path id="path118" class="s6" d="m441.8 419c0 0-1-17.1 11.1-15 12 2.1 20.6 18.5 23.3 19.8"/>
					</g>
					<g id="g120">
						<path id="path122" class="s6" d="m459.2 488.2c0 0-64.3-90.7-69.8-104.8-5.5-14 3.9-20.4 21.2-3.4 17.4 16.9 44.6 58.5 44.6 58.5"/>
					</g>
					<g id="g124">
						<path id="path126" class="s6" d="m521.2 550.5c0 0-50.1-17-65.6-34.6-15.5-17.6-20.4-62-20.4-62"/>
					</g>
					<g id="g128">
						<path id="path130" class="s6" d="m404.9 382.3c0 0-2.9 4-7.3 5"/>
					</g>
					<g id="g132">
						<path id="path134" class="s1" d="m523.2 567.4l-8.4-12.8 71.1-46.4 8.3 12.8z"/>
					</g>
					<g id="g136">
						<path id="path138" class="s6" d="m523.2 567.4l-8.4-12.8 71.1-46.4 8.3 12.8z"/>
					</g>
					<g id="g140">
						<path id="path142" class="s0" d="m486.2 219.5c-4.9 2.7-6.7 4.5-9.2 2.6-2.5-1.9-2.7-4.9-0.1-9.6 2.6-4.7 9.5-12.6 12.5-15 3-2.5 8.9-8.3 8.9-10 0-1.7 0.1-10.3 2.1-13.2 2-3 6-6.6 6.2-7.5 0.1-0.9 1.7-2.2-4.1-4.4-5.9-2.2-14.3-9.9-16.9-13.9-2.6-4.1-10.2-23 2.7-21.7 12.9 1.2 48 9.2 51.1 18.2 3 8.9 3 19-1 28.2-3.9 9.1-10.6 18.6-14.5 23.4-3.8 4.8-7.5 11.3-12.1 12.8-4.7 1.5-14 6.7-17 7-3 0.4-8.6 3.1-8.6 3.1z"/>
					</g>
					<g id="g144">
						<path id="path146" class="s6" d="m499.2 194.4c0 0-3.3-5.9-0.9-13.6 2.4-7.8 10.8-17.1 10.8-17.1"/>
					</g>
					<g id="g148">
						<path id="path150" class="s6" d="m455.5 58.7c0 0-10.8 30.1-26.1 50.1"/>
					</g>
					<g id="g152">
						<path id="path154" class="s6" d="m519.6 161.1c0 0-11.5 8.2-26.6-4.3-15.2-12.4-17.4-38.5-17.4-38.5"/>
					</g>
					<g id="g156">
						<path id="path158" class="s6" d="m516.1 78.8c-0.6 5.6 4.9 25.9 12.7 38 7.8 12.1 15.4 39.9 11.1 52.7-4.3 12.7-23.2 38.9-29.3 40.4-6.2 1.5-17 5.5-26.9 11-9.9 5.6-9.8-0.7-7.1-8.3 2.7-7.6 21.2-22.7 21.2-22.7"/>
					</g>
					<g id="g160">
						<path id="path162" class="s1" d="m527.9 66.6l-4.8 14.5-80.6-26.7 4.8-14.5z"/>
					</g>
					<g id="g164">
						<path id="path166" class="s6" d="m527.9 66.6l-4.8 14.5-80.6-26.7 4.8-14.5z"/>
					</g>
					<g id="g168">
						<path id="path170" class="s6" d="m502.3 212.5c0 0-18.6-9.6-22.6 10.2"/>
					</g>
					<g id="g172">
						<path id="path174" class="s0" d="m243 167.7c3.5 4.4 5.6 5.8 4.2 8.6-1.5 2.8-4.3 3.5-9.4 1.8-5.1-1.7-14.1-7.1-17.1-9.7-2.9-2.5-9.7-7.2-11.3-6.9-1.7 0.3-10.2 1.7-13.5 0.2-3.2-1.4-7.5-4.7-8.4-4.7-0.9 0-2.5-1.3-3.6 4.8-1.1 6.1-7.2 15.8-10.7 19.1-3.5 3.3-20.8 14-21.9 1.1-1-12.9 0.7-48.9 9-53.5 8.2-4.5 18.2-6.3 27.9-4 9.7 2.3 20.2 7.2 25.6 10.1 5.4 2.9 12.5 5.4 14.7 9.8 2.3 4.3 9.1 12.5 9.9 15.4 0.9 2.9 4.6 7.9 4.6 7.9z"/>
					</g>
					<g id="g176">
						<path id="path178" class="s6" d="m216 159.3c0 0-5.3 4.3-13.3 3.3-8-1-18.7-7.6-18.7-7.6"/>
					</g>
					<g id="g180">
						<path id="path182" class="s6" d="m90.1 226.3c0 0 24.4 2 46.8 13.5"/>
					</g>
					<g id="g184">
						<path id="path186" class="s6" d="m179.6 145.1c0 0 10.1 9.9 0.5 27-9.5 17.2-34.9 24-34.9 24"/>
					</g>
					<g id="g188">
						<path id="path190" class="s6" d="m99.2 163.1c5.6-0.4 24.6-9.4 35.2-19.2 10.5-9.8 36.5-22.2 49.8-20.2 13.4 1.9 42.5 16 45 21.7 2.6 5.8 8.4 15.8 15.6 24.6 7.3 8.7 1 9.7-6.9 8.4-7.9-1.4-26.1-16.8-26.1-16.8"/>
					</g>
					<g id="g192">
						<path id="path194" class="s1" d="m85.1 153.7l15.1 2.1-12 84-15.1-2.1z"/>
					</g>
					<g id="g196">
						<path id="path198" class="s6" d="m85.1 153.7l15.1 2.1-12 84-15.1-2.1z"/>
					</g>
					<g id="g200">
						<path id="path202" class="s6" d="m233.2 153.1c0 0-6.1 20 14.1 20.4"/>
					</g>
				</g>
			</g>
		</g>
	</g>
</svg>