<svg version="1.2" xmlns="http://www.w3.org/2000/svg" viewBox="0 0 500 500" width="1000" height="1000">
	<title>Data_sourcing_yellow-svg</title>
	<style>
		.s0 { fill: #f86346 } 
		.s1 { fill: #ffcf44 } 
	</style>
	<path id="Layer" class="s0" d="m250 388.5c-76.6 0-138.5-61.9-138.5-138.5 0-76.6 61.9-138.5 138.5-138.5 76.6 0 138.5 61.9 138.5 138.5 0 76.6-61.9 138.5-138.5 138.5z"/>
	<g id="Layer">
		<g id="Layer">
			<path id="Layer" class="s1" d="m196 197l-3 4.3-16-6.1 11.2 12.9-3.1 4.4-23.7-8.7 3.1-4.4 15.8 6.4 0.1-0.1-11.2-13 2.9-4.1 16.1 6.3 0.1-0.1-11.4-12.9 3-4.3z"/>
			<path id="Layer" class="s1" d="m193.5 168l4.7-2.6 4.5 8.1 8.7-4.8-4.6-8.1 4.7-2.7 11.9 21.3-4.7 2.6-5.1-9.1-8.6 4.8 5.1 9.1-4.7 2.7z"/>
			<path id="Layer" fill-rule="evenodd" class="s1" d="m235.4 151.6l5.4-0.7 12.1 23.1-5.5 0.7-2.5-5.2-9.1 1.2-1.2 5.6-5.4 0.7zm1.4 14.9l6.2-0.8-4.1-8.5h-0.1z"/>
			<path id="Layer" class="s1" d="m266.2 156.5l-7.1-1.5 0.9-4.4 19.5 4-0.9 4.4-7.1-1.4-4.1 19.4-5.3-1.1c0 0 4.1-19.4 4.1-19.4z"/>
			<path id="Layer" class="s1" d="m308.9 170.4l4.1 3.4-15.3 19-4.1-3.4z"/>
			<path id="Layer" class="s1" d="m313.4 196.4q-1 0.7-1.5 1.5-0.4 0.9-0.4 1.8-0.1 0.9 0.3 1.8 0.3 1 1 1.9 0.4 0.5 0.9 1.2 0.6 0.6 1.3 1 0.7 0.3 1.4 0.4 0.8 0.1 1.6-0.5 0.8-0.5 0.9-1.4 0.2-0.9-0.1-2-0.2-1-0.7-2.3-0.5-1.2-1-2.5-0.5-1.3-0.8-2.7-0.3-1.3-0.3-2.6 0.1-1.3 0.7-2.5 0.6-1.2 2-2.1 1.5-1.1 3.1-1.2 1.6-0.2 3.1 0.4 1.5 0.5 2.8 1.6 1.3 1.1 2.2 2.4 1.1 1.6 1.8 3.3 0.6 1.7 0.6 3.4 0 1.6-0.7 3.1-0.8 1.5-2.5 2.7l-3-4.2q0.9-0.7 1.2-1.4 0.4-0.8 0.4-1.5-0.1-0.8-0.4-1.6-0.4-0.8-0.9-1.6-0.4-0.5-0.9-1-0.5-0.4-1-0.7-0.6-0.2-1.2-0.2-0.7 0-1.3 0.5-0.6 0.4-0.8 0.8-0.2 0.5 0 1.4 0.1 0.9 0.6 2.2 0.5 1.4 1.3 3.6 0.2 0.5 0.5 1.2 0.2 0.7 0.4 1.5 0.2 0.8 0.2 1.8 0.1 0.9-0.2 1.9-0.2 1-0.8 1.9-0.7 1-1.8 1.7-1.3 1-2.9 1.3-1.5 0.3-3.1-0.2-1.6-0.4-3.2-1.7-1.5-1.2-3-3.2-1.1-1.7-1.8-3.5-0.6-1.9-0.6-3.6 0.1-1.8 0.9-3.5 0.9-1.6 2.7-2.9l3 4.3z"/>
		</g>
		<g id="Layer">
			<path id="Layer" class="s1" d="m165.9 283.3q-1.2 0.5-1.8 1.2-0.6 0.8-0.8 1.6-0.2 0.9 0 1.9 0.1 1 0.6 2 0.3 0.7 0.7 1.4 0.4 0.7 1 1.2 0.6 0.5 1.4 0.7 0.7 0.2 1.5-0.1 0.9-0.4 1.3-1.2 0.3-0.9 0.3-2-0.1-1.1-0.3-2.4-0.3-1.3-0.4-2.7-0.3-1.4-0.3-2.7-0.1-1.4 0.2-2.7 0.3-1.2 1.2-2.3 0.8-1 2.3-1.7 1.8-0.7 3.4-0.5 1.5 0.1 2.9 1 1.4 0.8 2.4 2.1 1.1 1.4 1.7 2.9 0.8 1.7 1.1 3.5 0.3 1.8 0 3.4-0.4 1.7-1.4 3-1.1 1.3-3 2.2l-2.1-4.8q1-0.5 1.5-1.2 0.5-0.6 0.6-1.4 0.2-0.7 0-1.6-0.2-0.8-0.6-1.7-0.2-0.6-0.6-1.1-0.4-0.6-0.9-0.9-0.5-0.4-1.2-0.5-0.6-0.1-1.3 0.2-0.6 0.3-0.9 0.7-0.3 0.4-0.3 1.3 0 0.9 0.1 2.4 0.2 1.4 0.6 3.7 0.1 0.5 0.2 1.2 0.1 0.8 0.1 1.6 0.1 0.9-0.1 1.8-0.1 1-0.6 1.9-0.4 0.9-1.2 1.7-0.8 0.8-2 1.3-1.6 0.7-3.2 0.6-1.5 0-3-0.8-1.5-0.7-2.8-2.2-1.2-1.5-2.2-3.8-0.8-1.9-1.1-3.8-0.3-1.9 0.1-3.7 0.4-1.7 1.6-3.2 1.1-1.4 3.2-2.3l2.1 4.8z"/>
			<path id="Layer" fill-rule="evenodd" class="s1" d="m179.6 302.4q1.9-1.9 4.2-2.9 2.3-1 4.6-1.1 2.3 0 4.6 0.9 2.2 0.9 4.2 3 1.9 2.1 2.7 4.4 0.8 2.2 0.6 4.6-0.2 2.3-1.4 4.5-1.2 2.2-3.1 4-1.9 1.8-4.2 2.8-2.2 1-4.5 1.1-2.3 0-4.6-0.9-2.2-1-4.2-3-1.9-2.1-2.7-4.4-0.8-2.3-0.6-4.6 0.2-2.3 1.3-4.4 1.1-2.2 3-4zm3.7 3.9q-1.1 1-1.9 2.3-0.8 1.2-1.1 2.6-0.3 1.4 0 2.8 0.4 1.4 1.6 2.7 1.3 1.3 2.6 1.8 1.4 0.4 2.8 0.2 1.4-0.2 2.7-1 1.3-0.7 2.4-1.8 1.2-1.1 2-2.4 0.9-1.2 1.2-2.6 0.3-1.4-0.1-2.8-0.3-1.4-1.6-2.7-1.2-1.3-2.6-1.8-1.3-0.4-2.7-0.2-1.4 0.2-2.8 1-1.3 0.8-2.5 1.9z"/>
			<path id="Layer" class="s1" d="m221.1 335.6q-2.1 4.5-5.7 5.5-3.5 1-7.9-1.2-4.5-2.1-5.9-5.4-1.4-3.4 0.8-7.9l6.5-13.7 4.9 2.4-6.6 13.6q-0.4 0.9-0.7 1.9-0.2 0.9-0.1 1.8 0.2 0.9 0.9 1.8 0.7 0.8 2.1 1.5 2.6 1.2 4.2 0.5 1.5-0.6 2.7-3.1l6.5-13.7 4.9 2.3-6.6 13.7z"/>
			<path id="Layer" fill-rule="evenodd" class="s1" d="m233.3 324.5l13.1 1.2q1.6 0.1 2.9 0.8 1.3 0.6 2.1 1.6 0.9 1 1.2 2.3 0.4 1.3 0.3 2.6-0.2 2.2-1.3 3.6-1 1.5-3.1 2.2 0.9 0.4 1.5 1 0.6 0.6 1 1.4 0.3 0.9 0.4 1.8 0.1 0.9 0.1 1.8 0 0.6-0.1 1.4 0 0.8 0 1.6 0 0.8 0.1 1.6 0.1 0.7 0.5 1.3l-5.4-0.5q-0.2-0.6-0.2-1.3-0.1-0.8-0.1-1.5 0-0.8 0-1.6 0-0.8 0-1.5-0.1-2-0.9-2.9-0.8-1-2.8-1.2l-5.3-0.5-0.9 9.5-5.4-0.5 2.3-24.3zm4.3 11.5q0 0 0 0zm5.9 0.6q1.8 0.1 2.8-0.6 1-0.7 1.2-2.6 0.1-1.7-0.7-2.6-0.9-0.9-2.7-1.1l-5.9-0.5c0 0-0.6 6.8-0.6 6.8z"/>
			<path id="Layer" class="s1" d="m276.9 329.5q-0.3-0.9-1-1.5-0.7-0.6-1.5-1-0.9-0.3-1.8-0.4-1-0.1-1.9 0.2-1.8 0.4-2.8 1.4-1.1 1.1-1.5 2.4-0.5 1.3-0.4 2.9 0 1.5 0.5 3.1 0.4 1.5 1.1 2.8 0.7 1.3 1.8 2.2 1 0.9 2.4 1.2 1.4 0.4 3.2-0.1 2.4-0.6 3.3-2.5 0.9-1.8 0.6-4.2l5-1.4q0.4 2.3 0.1 4.3-0.4 2-1.4 3.6-1 1.6-2.6 2.8-1.6 1.2-3.8 1.8-2.8 0.7-5.2 0.3-2.4-0.4-4.3-1.6-1.9-1.2-3.3-3.3-1.4-2-2.1-4.5-0.7-2.6-0.5-5.1 0.2-2.5 1.2-4.6 1-2.1 2.9-3.6 1.9-1.5 4.6-2.3 1.9-0.5 3.8-0.4 1.9 0.1 3.6 0.8 1.6 0.7 3 2 1.3 1.3 2.1 3.3l-5.1 1.4z"/>
			<path id="Layer" class="s1" d="m284.7 316.9l4.7-2.7 12.3 21.1-4.6 2.7z"/>
			<path id="Layer" class="s1" d="m295.2 310.9l3.8-3.8 18.8 4.1-11.7-11.4 3.5-3.6 17.5 17-3.8 3.8-18.7-4.1-0.1 0.1 11.7 11.3-3.5 3.6-17.5-17z"/>
			<path id="Layer" class="s1" d="m339.8 283.6q1.1 2.1 1.1 3.9 0 1.9-0.7 3.6-1.1 2.6-2.9 4.2-1.8 1.7-4 2.4-2.2 0.7-4.6 0.6-2.5-0.2-4.9-1.2-2.5-1.1-4.3-2.8-1.8-1.7-2.8-3.8-1-2.1-1-4.5-0.1-2.4 1-5 0.8-1.8 2-3.1 1.2-1.4 2.8-2.3 1.5-0.8 3.4-1.1 1.8-0.2 3.8 0.4l-2 4.7q-2.1-0.3-3.6 0.5-1.5 0.9-2.2 2.7-0.7 1.6-0.6 3.1 0.2 1.4 0.9 2.6 0.8 1.2 2 2.1 1.3 0.9 2.7 1.5 1.5 0.7 2.9 0.9 1.5 0.2 2.9 0 1.4-0.3 2.5-1.2 1.1-0.9 1.9-2.5 1-2.4 0.3-4.3-0.6-1.9-2.9-3.1l-2.1 4.9-3.7-1.5 4.1-9.5 12.1 5.3-1.4 3.1-2.7-0.6z"/>
		</g>
	</g>
	<g id="Layer">
		<path id="Layer" fill-rule="evenodd" class="s1" d="m211 237.8q2.3 0 4.4 0.8 2 0.7 3.5 2.2 1.5 1.5 2.3 3.8 0.9 2.2 0.8 5.2 0 2.7-0.6 5-0.7 2.2-2.1 3.9-1.4 1.6-3.4 2.5-2.1 1-4.9 1h-10.5v-24.4zm-5.2 19.9h4.8q1.2 0 2.3-0.4 1.1-0.4 1.9-1.3 0.9-0.8 1.4-2.2 0.5-1.4 0.5-3.4 0-1.9-0.4-3.4-0.3-1.4-1.1-2.5-0.9-1.1-2.2-1.6-1.4-0.6-3.3-0.6h-3.9z"/>
		<path id="Layer" fill-rule="evenodd" class="s1" d="m242.4 237.8l9.1 24.4h-5.6l-1.8-5.5h-9.1l-1.9 5.5h-5.5l9.3-24.4zm0.3 15l-3.1-9h-0.1l-3.1 9z"/>
		<path id="Layer" class="s1" d="m260.9 242.3h-7.3v-4.5h19.9v4.5h-7.3v19.9h-5.3v-19.9z"/>
		<path id="Layer" fill-rule="evenodd" class="s1" d="m284.9 237.8h5.5l9.1 24.4h-5.5l-1.9-5.5h-9.1l-1.9 5.5h-5.4c0 0 9.2-24.4 9.2-24.4zm5.8 15l-3-9h-0.1c0 0-3.2 9-3.2 9z"/>
	</g>
</svg>