<svg version="1.2" xmlns="http://www.w3.org/2000/svg" viewBox="0 0 201 199" width="253" height="250">
	<title>Glance Icons (1)-ai</title>
	<defs>
		<clipPath clipPathUnits="userSpaceOnUse" id="cp1">
			<path d="m112.52 793.4h-374.8c-24.8 0-44.91-20.1-44.91-44.9v-374.8c0-24.8 20.11-44.9 44.91-44.9h374.8c24.79 0 44.9 20.1 44.9 44.9v374.8c0 24.8-20.11 44.9-44.9 44.9z"/>
		</clipPath>
	</defs>
	<style>
		.s0 { fill: #ffffff } 
		.s1 { fill: #fff8e1 } 
		.s2 { fill: #ffd740 } 
		.s3 { fill: #000000 } 
		.s4 { fill: none;stroke: #000000;stroke-linecap: round;stroke-linejoin: round;stroke-width: 1.3 } 
		.s5 { fill: #fc6140 } 
		.s6 { fill: #362d46 } 
		.s7 { fill: #00bbd6 } 
		.s8 { fill: #ffcf44 } 
		.s9 { fill: #a7adaa } 
		.s10 { fill: #6f6c6f } 
	</style>
	<g id="_Artboards_">
		<path id="Artboard 1" class="s0" d="m-599.5-301.4h200v200h-200z"/>
		<path id="Artboard 1 copy" class="s0" d="m-299.5-301.4h200v200h-200z"/>
		<path id="Artboard 1 copy 2" class="s0" d="m0.5-301.4h200v200h-200z"/>
		<path id="Artboard 1 copy 5" class="s0" d="m-599.5-1.4h200v200h-200z"/>
		<path id="Artboard 1 copy 6" class="s0" d="m-299.5-1.4h200v200h-200z"/>
		<path id="Artboard 1 copy 7" class="s0" d="m0.5-1.4h200v200h-200z"/>
		<path id="Artboard 30" class="s0" d="m237.6 299.6h523.4v523.4h-523.4z"/>
		<path id="Artboard 31" class="s0" d="m-960 299.2h526.8v526.8h-526.8z"/>
		<path id="Artboard 32" class="s0" d="m-345 299.2h523.7v523.8h-523.7z"/>
	</g>
	<g id="Layer 1">
		<path id="&lt;Path&gt;" class="s1" d="m-544.8 161.9c-0.2 0.1-0.9 0.2-1.1-0.7-0.2-1 0-24.3 0-26 0-1.7 1.7-4.2 2.8-5.6 1.1-1.3 3.6-3.9 6.5-5.9 2.8-1.9 9-4.1 15.2-4.9 6.2-0.8 11.7 1.1 17.9 2.6 6.2 1.5 14.9 8.6 16.9 11.3 2 2.6 2.6 7.4 2.6 7.4 0 0 2.9-1.4 7.4-3.3 4.4-2 15.6-5.7 21.3-7.2 5.7-1.5 9.9 0.1 12.2 3.3 2.3 3.3 0.7 7.8-2 11.4-2.7 3.7-13.2 7.8-16.3 9.6-3.1 1.7-15.5 8.5-22 12.6-6.5 4.1-12.1 3.3-17.3 0.3-5.2-3-15.6-8-20.3-9.2-4.8-1.1-16 1.5-21.5 3.2 0 0-2.1 1-2.3 1.1z"/>
		<g id="&lt;Group&gt;">
			<g id="&lt;Group&gt;">
				<path id="&lt;Path&gt;" class="s2" d="m-471.7-160c0-10 8.1-18 18-18 9.9 0 18 8 18 18v14.2h-36z"/>
				<path id="&lt;Path&gt;" class="s1" d="m-443.1-194c0 5.9-4.8 10.6-10.6 10.6-5.8 0-10.6-4.7-10.6-10.6 0-5.8 4.8-10.5 10.6-10.5 5.8 0 10.6 4.7 10.6 10.5z"/>
			</g>
		</g>
		<g id="&lt;Group&gt;">
			<g id="&lt;Group&gt;">
				<path id="&lt;Path&gt;" class="s2" d="m-517.5-160c0-10 8.1-18 18-18 9.9 0 18 8 18 18v14.2h-36z"/>
				<path id="&lt;Path&gt;" class="s1" d="m-488.9-194c0 5.9-4.8 10.6-10.6 10.6-5.8 0-10.6-4.7-10.6-10.6 0-5.8 4.8-10.5 10.6-10.5 5.8 0 10.6 4.7 10.6 10.5z"/>
			</g>
		</g>
		<g id="&lt;Group&gt;">
			<g id="&lt;Group&gt;">
				<path id="&lt;Path&gt;" class="s2" d="m-563.3-160c0-10 8.1-18 18-18 9.9 0 18 8 18 18v14.2h-36z"/>
				<path id="&lt;Path&gt;" class="s1" d="m-534.7-194c0 5.9-4.8 10.6-10.6 10.6-5.8 0-10.5-4.7-10.5-10.6 0-5.8 4.7-10.5 10.5-10.5 5.8 0 10.6 4.7 10.6 10.5z"/>
			</g>
		</g>
		<path id="Community
" class="s3" aria-label="Community"  d="m-543.8-56.9c1.8 0 3.4-0.6 4.5-1.8l-1.1-1.1c-0.9 1-2 1.4-3.3 1.4-2.7 0-4.7-1.9-4.7-4.6 0-2.6 2-4.5 4.7-4.5 1.3 0 2.4 0.4 3.3 1.4l1.1-1.1c-1.1-1.2-2.7-1.8-4.5-1.8-3.6 0-6.3 2.5-6.3 6 0 3.6 2.7 6.1 6.3 6.1zm10.2 0c2.7 0 4.7-1.9 4.7-4.6 0-2.7-2-4.6-4.7-4.6-2.7 0-4.7 1.9-4.7 4.6 0 2.7 2 4.6 4.7 4.6zm0-1.4c-1.7 0-3-1.3-3-3.2 0-1.9 1.3-3.2 3-3.2 1.7 0 3 1.3 3 3.2 0 1.9-1.3 3.2-3 3.2zm18.2-7.8c-1.5 0-2.8 0.7-3.5 1.7-0.6-1.2-1.7-1.7-3.1-1.7-1.3 0-2.5 0.5-3.1 1.4v-1.3h-1.6v9h1.7v-4.6c0-2 1-3 2.7-3 1.5 0 2.3 0.8 2.3 2.6v5h1.6v-4.6c0-2 1.1-3 2.7-3 1.5 0 2.4 0.8 2.4 2.6v5h1.6v-5.2c0-2.6-1.5-3.9-3.7-3.9zm18 0c-1.6 0-2.8 0.7-3.5 1.7-0.6-1.2-1.7-1.7-3.1-1.7-1.4 0-2.5 0.5-3.1 1.4v-1.3h-1.6v9h1.6v-4.6c0-2 1.1-3 2.7-3 1.5 0 2.4 0.8 2.4 2.6v5h1.6v-4.6c0-2 1.1-3 2.7-3 1.5 0 2.3 0.8 2.3 2.6v5h1.7v-5.2c0-2.6-1.5-3.9-3.7-3.9zm13.4 0.1v4.6c0 2-1 3-2.7 3-1.6 0-2.5-0.8-2.5-2.6v-5h-1.6v5.2c0 2.6 1.5 3.9 3.9 3.9 1.2 0 2.4-0.5 3-1.5v1.4h1.6v-9zm9.5-0.1c-1.4 0-2.6 0.5-3.2 1.4v-1.3h-1.6v9h1.7v-4.6c0-2 1.1-3 2.8-3 1.6 0 2.4 0.8 2.4 2.6v5h1.7v-5.2c0-2.6-1.6-3.9-3.8-3.9zm7.6-1.6c0.7 0 1.1-0.5 1.1-1.1 0-0.6-0.5-1.1-1.1-1.1-0.6 0-1.1 0.5-1.1 1.1 0 0.6 0.5 1.1 1.1 1.1zm-0.8 10.7h1.6v-9h-1.6zm9.3-1.7c-0.3 0.3-0.8 0.4-1.3 0.4-0.9 0-1.4-0.5-1.4-1.5v-4.9h2.6v-1.3h-2.6v-2h-1.6v2h-1.6v1.3h1.6v5c0 1.8 1 2.8 2.8 2.8 0.8 0 1.5-0.2 2-0.6zm8.7-7.3l-3.1 7.2-3.2-7.2h-1.7l4 8.9-0.3 0.7c-0.4 1-0.9 1.4-1.7 1.4-0.6 0-1.2-0.3-1.6-0.7l-0.7 1.2c0.6 0.6 1.4 0.9 2.3 0.9 1.4 0 2.4-0.6 3.2-2.5l4.4-9.9z"/>
		<path id="Health
" class="s3" aria-label="Health"  d="m-211.7-68.9v5.1h-6.8v-5.1h-1.7v11.9h1.7v-5.3h6.8v5.3h1.7v-11.9zm13.2 7.4c0-2.7-1.8-4.6-4.4-4.6-2.6 0-4.6 1.9-4.6 4.6 0 2.7 2 4.6 4.9 4.6 1.5 0 2.7-0.5 3.5-1.5l-0.9-1c-0.6 0.7-1.5 1.1-2.6 1.1-1.8 0-3-1.1-3.2-2.7h7.3c0-0.1 0-0.3 0-0.5zm-4.4-3.2c1.5 0 2.7 1.1 2.8 2.6h-5.7c0.1-1.6 1.3-2.6 2.9-2.6zm9.7-1.4c-1.4 0-2.8 0.4-3.7 1.2l0.7 1.2c0.7-0.6 1.7-1 2.8-1 1.6 0 2.4 0.8 2.4 2.2v0.3h-2.6c-2.6 0-3.6 1.2-3.6 2.7 0 1.5 1.3 2.6 3.4 2.6 1.4 0 2.4-0.5 2.9-1.3v1.2h1.6v-5.4c0-2.5-1.4-3.7-3.9-3.7zm-0.4 7.9c-1.2 0-2-0.5-2-1.4 0-0.8 0.5-1.4 2.1-1.4h2.5v1.2c-0.4 1.1-1.3 1.6-2.6 1.6zm7.3 1.2h1.6v-12.6h-1.6zm9.5-1.7c-0.3 0.3-0.8 0.4-1.3 0.4-0.9 0-1.4-0.5-1.4-1.5v-4.9h2.6v-1.3h-2.6v-2h-1.6v2h-1.5v1.3h1.5v5c0 1.8 1 2.8 2.8 2.8 0.8 0 1.5-0.2 2-0.6zm7.3-7.4c-1.4 0-2.5 0.5-3.2 1.3v-4.9h-1.6v12.7h1.6v-4.7c0-1.9 1.2-3 2.9-3 1.5 0 2.4 0.9 2.4 2.7v5h1.6v-5.2c0-2.7-1.5-3.9-3.7-3.9z"/>
		<path id="Time away from work
" class="s3" aria-label="Time away from work"  d="m8.3-57h1.7v-10.4h4.1v-1.5h-9.9v1.5h4.1zm8-10.8c0.6 0 1.1-0.4 1.1-1.1 0-0.5-0.5-1-1.1-1-0.6 0-1.1 0.5-1.1 1.1 0 0.6 0.5 1 1.1 1zm-0.8 10.8h1.6v-9h-1.6zm16-9.1c-1.5 0-2.8 0.6-3.5 1.6-0.6-1.1-1.7-1.6-3.1-1.6-1.4 0-2.5 0.5-3.1 1.4v-1.3h-1.6v9h1.6v-4.7c0-1.9 1.1-3 2.7-3 1.5 0 2.4 0.9 2.4 2.7v5h1.6v-4.7c0-1.9 1.1-3 2.7-3 1.5 0 2.3 0.9 2.3 2.7v5h1.7v-5.2c0-2.7-1.5-3.9-3.7-3.9zm14.9 4.6c0-2.8-1.9-4.6-4.5-4.6-2.6 0-4.5 1.9-4.5 4.6 0 2.6 1.9 4.6 4.8 4.6 1.5 0 2.8-0.5 3.6-1.5l-0.9-1c-0.7 0.7-1.6 1-2.6 1-1.8 0-3.1-1-3.3-2.6h7.3c0.1-0.1 0.1-0.3 0.1-0.5zm-4.5-3.2c1.6 0 2.7 1 2.9 2.5h-5.8c0.2-1.5 1.4-2.5 2.9-2.5zm14.6-1.4c-1.5 0-2.8 0.4-3.7 1.1l0.6 1.3c0.7-0.6 1.8-1 2.9-1 1.6 0 2.4 0.8 2.4 2.2v0.3h-2.6c-2.7 0-3.6 1.2-3.6 2.6 0 1.6 1.3 2.7 3.3 2.7 1.5 0 2.5-0.5 3-1.3v1.2h1.5v-5.5c0-2.4-1.3-3.6-3.8-3.6zm-0.4 7.9c-1.2 0-2-0.5-2-1.4 0-0.8 0.5-1.4 2.1-1.4h2.5v1.2c-0.4 1.1-1.4 1.6-2.6 1.6zm19.3-7.8l-2.7 7.2-2.7-7.2h-1.4l-2.7 7.1-2.6-7.1h-1.5l3.3 9h1.6l2.6-6.9 2.6 6.9h1.6l3.3-9zm6.1-0.1c-1.4 0-2.7 0.4-3.7 1.1l0.7 1.3c0.7-0.6 1.8-1 2.9-1 1.6 0 2.4 0.8 2.4 2.2v0.3h-2.6c-2.7 0-3.6 1.2-3.6 2.6 0 1.6 1.3 2.7 3.3 2.7 1.4 0 2.4-0.5 3-1.3v1.2h1.5v-5.5c0-2.4-1.4-3.6-3.9-3.6zm-0.3 7.9c-1.3 0-2-0.5-2-1.4 0-0.8 0.4-1.4 2.1-1.4h2.5v1.2c-0.4 1.1-1.4 1.6-2.6 1.6zm13.4-7.8l-3.1 7.2-3.1-7.2h-1.7l4 9-0.3 0.6c-0.5 1-1 1.4-1.8 1.4-0.6 0-1.1-0.3-1.6-0.7l-0.7 1.2c0.6 0.6 1.5 0.9 2.3 0.9 1.4 0 2.5-0.6 3.3-2.5l4.3-9.9zm11-2.4c0.5 0 0.9 0.2 1.3 0.4l0.5-1.2c-0.5-0.4-1.2-0.5-1.9-0.5-1.9 0-2.9 1.1-2.9 2.9v0.8h-1.6v1.3h1.6v7.7h1.6v-7.7h2.6v-1.3h-2.6v-0.8c0-1.1 0.5-1.6 1.4-1.6zm5.7 3.9v-1.5h-1.6v9h1.6v-4.5c0-2 1.1-3.1 2.9-3.1 0.1 0 0.2 0 0.3 0.1v-1.6c-1.5 0-2.7 0.5-3.2 1.6zm9 7.6c2.7 0 4.7-2 4.7-4.6 0-2.7-2-4.6-4.7-4.6-2.7 0-4.7 1.9-4.7 4.6 0 2.6 2 4.6 4.7 4.6zm0-1.5c-1.7 0-3-1.2-3-3.1 0-2 1.3-3.2 3-3.2 1.7 0 3 1.2 3 3.2 0 1.9-1.3 3.1-3 3.1zm18.2-7.7c-1.5 0-2.8 0.6-3.4 1.6-0.6-1.1-1.8-1.6-3.2-1.6-1.3 0-2.4 0.5-3.1 1.4v-1.3h-1.5v9h1.6v-4.7c0-1.9 1.1-3 2.7-3 1.5 0 2.3 0.9 2.3 2.7v5h1.6v-4.7c0-1.9 1.1-3 2.7-3 1.5 0 2.4 0.9 2.4 2.7v5h1.6v-5.2c0-2.7-1.5-3.9-3.7-3.9zm23.5 0.1l-2.7 7.2-2.7-7.2h-1.4l-2.7 7.1-2.6-7.1h-1.6l3.4 9h1.6l2.6-6.9 2.6 6.9h1.6l3.3-9zm6.7 9.1c2.7 0 4.7-2 4.7-4.6 0-2.7-2-4.6-4.7-4.6-2.7 0-4.7 1.9-4.7 4.6 0 2.6 2 4.6 4.7 4.6zm0-1.5c-1.7 0-3-1.2-3-3.1 0-2 1.3-3.2 3-3.2 1.8 0 3.1 1.2 3.1 3.2 0 1.9-1.3 3.1-3.1 3.1zm8.5-6.1v-1.5h-1.5v9h1.6v-4.5c0-2 1.1-3.1 2.8-3.1 0.2 0 0.3 0 0.4 0.1v-1.6c-1.6 0-2.7 0.5-3.3 1.6zm12.2 7.5h2l-4.1-5.3 3.7-3.7h-1.9l-4.9 4.4v-8h-1.7v12.6h1.7v-2.5l1.8-1.7z"/>
		<path id="Family Support
" class="s3" aria-label="Family Support"  d="m-545 228.6v-1.5h-8.4v11.9h1.7v-4.8h5.9v-1.5h-5.9v-4.1zm5.1 1.3c-1.5 0-2.8 0.4-3.8 1.2l0.7 1.2c0.7-0.6 1.8-1 2.9-1 1.6 0 2.4 0.8 2.4 2.2v0.3h-2.6c-2.7 0-3.6 1.2-3.6 2.6 0 1.6 1.3 2.7 3.3 2.7 1.4 0 2.4-0.5 3-1.3v1.2h1.5v-5.4c0-2.5-1.4-3.7-3.8-3.7zm-0.4 7.9c-1.2 0-2-0.5-2-1.4 0-0.8 0.5-1.4 2.1-1.4h2.5v1.2c-0.4 1.1-1.4 1.6-2.6 1.6zm18.5-7.9c-1.5 0-2.8 0.7-3.4 1.7-0.6-1.2-1.8-1.7-3.2-1.7-1.3 0-2.4 0.5-3.1 1.4v-1.3h-1.5v9h1.6v-4.6c0-2 1.1-3 2.7-3 1.5 0 2.3 0.8 2.3 2.6v5h1.7v-4.6c0-2 1-3 2.7-3 1.4 0 2.3 0.8 2.3 2.6v5h1.6v-5.2c0-2.6-1.5-3.9-3.7-3.9zm7.5-1.6c0.7 0 1.1-0.5 1.1-1.1 0-0.6-0.4-1.1-1.1-1.1-0.6 0-1.1 0.5-1.1 1.1 0 0.6 0.5 1.1 1.1 1.1zm-0.8 10.7h1.7v-9h-1.7zm4.8 0h1.6v-12.6h-1.6zm11.1-9l-3.1 7.2-3.2-7.2h-1.7l4 9-0.3 0.6c-0.4 1-0.9 1.4-1.7 1.4-0.6 0-1.2-0.3-1.6-0.7l-0.7 1.2c0.6 0.6 1.4 0.9 2.3 0.9 1.4 0 2.4-0.6 3.2-2.5l4.4-9.9zm11.4 9.1c3.1 0 4.6-1.6 4.6-3.4 0-4.3-7.2-2.5-7.2-5.4 0-1.1 0.9-1.9 2.9-1.9 1 0 2.2 0.3 3.2 1l0.6-1.4c-1-0.7-2.4-1.1-3.8-1.1-3.1 0-4.6 1.6-4.6 3.4 0 4.5 7.2 2.6 7.2 5.5 0 1.1-0.9 1.9-2.9 1.9-1.5 0-3.1-0.6-3.9-1.4l-0.7 1.3c1 0.9 2.8 1.5 4.6 1.5zm13.6-9.1v4.6c0 2-1.1 3-2.8 3-1.5 0-2.4-0.9-2.4-2.6v-5h-1.6v5.2c0 2.6 1.5 3.9 3.8 3.9 1.3 0 2.4-0.5 3.1-1.5v1.4h1.5v-9zm9.6-0.1c-1.4 0-2.5 0.5-3.3 1.5v-1.4h-1.5v12.3h1.6v-4.7c0.8 1 1.9 1.5 3.2 1.5 2.6 0 4.5-1.9 4.5-4.6 0-2.8-1.9-4.6-4.5-4.6zm-0.2 7.8c-1.7 0-3-1.3-3-3.2 0-1.9 1.3-3.2 3-3.2 1.8 0 3.1 1.3 3.1 3.2 0 1.9-1.3 3.2-3.1 3.2zm11.8-7.8c-1.4 0-2.5 0.5-3.3 1.5v-1.4h-1.5v12.3h1.6v-4.7c0.8 1 1.9 1.5 3.2 1.5 2.6 0 4.5-1.9 4.5-4.6 0-2.8-1.9-4.6-4.5-4.6zm-0.2 7.8c-1.7 0-3-1.3-3-3.2 0-1.9 1.3-3.2 3-3.2 1.8 0 3.1 1.3 3.1 3.2 0 1.9-1.3 3.2-3.1 3.2zm10.8 1.4c2.7 0 4.7-1.9 4.7-4.6 0-2.7-2-4.6-4.7-4.6-2.7 0-4.7 1.9-4.7 4.6 0 2.7 2 4.6 4.7 4.6zm0-1.4c-1.7 0-3-1.3-3-3.2 0-1.9 1.3-3.2 3-3.2 1.8 0 3.1 1.3 3.1 3.2 0 1.9-1.3 3.2-3.1 3.2zm8.5-6.2v-1.5h-1.5v9h1.6v-4.5c0-2 1.1-3.1 2.8-3.1 0.2 0 0.3 0 0.4 0.1v-1.6c-1.6 0-2.7 0.5-3.3 1.6zm10.2 5.8c-0.3 0.2-0.8 0.4-1.2 0.4-0.9 0-1.4-0.5-1.4-1.5v-4.9h2.5v-1.3h-2.5v-2h-1.7v2h-1.5v1.3h1.5v5c0 1.8 1.1 2.8 2.9 2.8 0.7 0 1.5-0.2 2-0.7z"/>
		<path id="Well-being
" class="s3" aria-label="Well-being"  d="m-236.2 227.1l-3.3 9.7-3.2-9.7h-1.6l-3.4 9.7-3.2-9.7h-1.7l4 11.9h1.8l3.2-9.5 3.3 9.5h1.8l3.9-11.9zm11 7.4c0-2.7-1.9-4.6-4.5-4.6-2.6 0-4.5 1.9-4.5 4.6 0 2.7 1.9 4.6 4.8 4.6 1.5 0 2.8-0.5 3.6-1.5l-0.9-1c-0.7 0.7-1.6 1.1-2.6 1.1-1.8 0-3.1-1.1-3.3-2.7h7.3c0-0.1 0.1-0.3 0.1-0.5zm-4.5-3.2c1.6 0 2.7 1.1 2.9 2.6h-5.8c0.2-1.6 1.3-2.6 2.9-2.6zm6.7 7.7h1.6v-12.6h-1.6zm4.8 0h1.6v-12.6h-1.6zm4.1-4h4.6v-1.4h-4.6zm11.9-5.1c-1.3 0-2.4 0.4-3.2 1.4v-5h-1.6v12.7h1.6v-1.5c0.7 1.1 1.9 1.6 3.2 1.6 2.6 0 4.5-1.9 4.5-4.6 0-2.8-1.9-4.6-4.5-4.6zm-0.2 7.7c-1.7 0-3-1.2-3-3.1 0-2 1.3-3.2 3-3.2 1.8 0 3.1 1.2 3.1 3.2 0 1.9-1.3 3.1-3.1 3.1zm15.1-3.1c0-2.8-1.8-4.6-4.4-4.6-2.6 0-4.5 1.9-4.5 4.6 0 2.6 1.9 4.6 4.8 4.6 1.5 0 2.8-0.5 3.6-1.5l-0.9-1.1c-0.7 0.8-1.6 1.1-2.6 1.1-1.8 0-3.1-1-3.3-2.6h7.3c0-0.2 0-0.4 0-0.5zm-4.4-3.3c1.6 0 2.7 1.1 2.9 2.6h-5.8c0.2-1.5 1.3-2.6 2.9-2.6zm7.5-3c0.7 0 1.1-0.5 1.1-1.1 0-0.5-0.4-1-1.1-1-0.6 0-1.1 0.5-1.1 1.1 0 0.6 0.5 1 1.1 1zm-0.8 10.8h1.6v-9h-1.6zm9.6-9.1c-1.5 0-2.6 0.5-3.3 1.4v-1.4h-1.6v9.1h1.7v-4.7c0-1.9 1.1-3 2.8-3 1.6 0 2.5 0.9 2.5 2.7v5h1.6v-5.2c0-2.7-1.5-3.9-3.7-3.9zm13.8 0v1.4c-0.7-1-1.9-1.4-3.3-1.4-2.6 0-4.6 1.7-4.6 4.3 0 2.6 2 4.4 4.6 4.4 1.3 0 2.5-0.5 3.3-1.4v0.7c0 2-1 3-3.1 3-1.4 0-2.7-0.4-3.5-1.1l-0.8 1.2c1 0.9 2.7 1.4 4.3 1.4 3.1 0 4.7-1.5 4.7-4.7v-7.8zm-3.1 7.2c-1.9 0-3.2-1.2-3.2-2.9 0-1.7 1.3-2.9 3.2-2.9 1.8 0 3 1.2 3 2.9 0 1.7-1.2 2.9-3 2.9z"/>
		<path id="Financial Wellness
" class="s3" aria-label="Financial Wellness"  d="m28.9 223.6v-1.5h-8.4v11.9h1.7v-4.8h5.9v-1.5h-5.9v-4.1zm2.8-0.3c0.6 0 1.1-0.5 1.1-1.1 0-0.6-0.5-1.1-1.1-1.1-0.6 0-1.1 0.5-1.1 1.1 0 0.6 0.5 1.1 1.1 1.1zm-0.8 10.7h1.6v-9h-1.6zm9.5-9.1c-1.4 0-2.6 0.5-3.2 1.4v-1.3h-1.6v9h1.6v-4.7c0-1.9 1.2-2.9 2.9-2.9 1.5 0 2.4 0.8 2.4 2.6v5h1.7v-5.2c0-2.6-1.6-3.9-3.8-3.9zm10.1 0c-1.5 0-2.8 0.4-3.8 1.2l0.7 1.2c0.7-0.6 1.8-1 2.9-1 1.6 0 2.4 0.8 2.4 2.2v0.3h-2.6c-2.7 0-3.6 1.2-3.6 2.6 0 1.6 1.3 2.7 3.3 2.7 1.4 0 2.4-0.5 3-1.3v1.2h1.5v-5.4c0-2.5-1.4-3.7-3.8-3.7zm-0.4 7.9c-1.2 0-2-0.5-2-1.4 0-0.8 0.5-1.4 2.1-1.4h2.5v1.2c-0.4 1.1-1.4 1.6-2.6 1.6zm12.1-7.9c-1.5 0-2.6 0.5-3.3 1.4v-1.3h-1.5v9h1.6v-4.7c0-1.9 1.1-2.9 2.8-2.9 1.6 0 2.5 0.8 2.5 2.6v5h1.6v-5.2c0-2.6-1.5-3.9-3.7-3.9zm10.7 9.2c1.6 0 3-0.7 3.7-1.9l-1.3-0.8c-0.5 0.9-1.4 1.3-2.4 1.3-1.8 0-3.1-1.3-3.1-3.2 0-1.9 1.3-3.2 3.1-3.2 1 0 1.9 0.4 2.4 1.3l1.3-0.8c-0.7-1.2-2.1-1.9-3.7-1.9-2.8 0-4.7 1.9-4.7 4.6 0 2.7 1.9 4.6 4.7 4.6zm6.6-10.9c0.7 0 1.1-0.4 1.1-1 0-0.6-0.5-1.1-1.1-1.1-0.6 0-1.1 0.5-1.1 1.1 0 0.6 0.5 1 1.1 1zm-0.8 10.8h1.6v-9h-1.6zm8-9.1c-1.4 0-2.8 0.4-3.7 1.1l0.7 1.3c0.7-0.6 1.8-1 2.8-1 1.6 0 2.4 0.8 2.4 2.2v0.3h-2.5c-2.7 0-3.7 1.2-3.7 2.6 0 1.6 1.3 2.7 3.4 2.7 1.4 0 2.4-0.5 2.9-1.3v1.2h1.6v-5.5c0-2.4-1.4-3.6-3.9-3.6zm-0.4 7.9c-1.2 0-1.9-0.5-1.9-1.4 0-0.8 0.4-1.4 2-1.4h2.5v1.2c-0.4 1.1-1.3 1.6-2.6 1.6zm7.3 1.2h1.6v-12.6h-1.6zm24.8-11.9l-3.3 9.7-3.3-9.7h-1.6l-3.3 9.6-3.2-9.6h-1.8l4 11.9h1.8l3.3-9.5 3.2 9.5h1.8l4-11.9zm10.9 7.4c0-2.8-1.9-4.6-4.5-4.6-2.6 0-4.5 1.9-4.5 4.6 0 2.6 1.9 4.6 4.8 4.6 1.5 0 2.8-0.5 3.6-1.5l-0.9-1c-0.7 0.7-1.5 1-2.6 1-1.8 0-3.1-1-3.3-2.6h7.3c0.1-0.1 0.1-0.4 0.1-0.5zm-4.5-3.3c1.6 0 2.7 1.1 2.9 2.6h-5.8c0.2-1.5 1.4-2.6 2.9-2.6zm6.7 7.8h1.7v-12.6h-1.7zm4.8 0h1.6v-12.7h-1.6zm9.5-9.1c-1.4 0-2.5 0.6-3.2 1.5v-1.4h-1.6v9h1.7v-4.6c0-2 1.1-3 2.8-3 1.6 0 2.4 0.9 2.4 2.6v5h1.7v-5.1c0-2.7-1.6-4-3.8-4zm15 4.7c0-2.8-1.9-4.7-4.5-4.7-2.6 0-4.5 2-4.5 4.6 0 2.7 2 4.6 4.9 4.6 1.5 0 2.7-0.5 3.5-1.4l-0.9-1.1c-0.6 0.8-1.5 1.1-2.6 1.1-1.8 0-3-1-3.2-2.6h7.3c0-0.2 0-0.4 0-0.5zm-4.5-3.3c1.6 0 2.8 1.1 2.9 2.6h-5.7c0.1-1.5 1.3-2.6 2.8-2.6zm9.3 7.8c2.4 0 3.9-1 3.9-2.6 0-3.5-5.7-1.8-5.7-3.9 0-0.7 0.7-1.3 2.1-1.3 0.9 0 1.8 0.2 2.7 0.8l0.6-1.3c-0.7-0.6-2.1-0.9-3.2-0.9-2.3 0-3.8 1.1-3.8 2.7 0 3.6 5.7 1.9 5.7 3.9 0 0.8-0.6 1.2-2.1 1.2-1.2 0-2.4-0.4-3.2-0.9l-0.7 1.3c0.8 0.6 2.2 1 3.7 1zm8.6 0c2.4 0 3.9-1 3.9-2.6 0-3.5-5.8-1.8-5.8-3.9 0-0.7 0.7-1.3 2.2-1.3 0.9 0 1.8 0.2 2.6 0.8l0.7-1.3c-0.8-0.6-2.1-0.9-3.3-0.9-2.3 0-3.8 1.1-3.8 2.7 0 3.6 5.7 1.9 5.7 3.9 0 0.8-0.6 1.2-2.1 1.2-1.2 0-2.4-0.4-3.2-0.9l-0.7 1.3c0.8 0.6 2.3 1 3.8 1z"/>
		<path id="Core Values
" class="s3" aria-label="Core Values"  d="m-724.2 889.1c1.9 0 3.5-0.6 4.6-1.8l-1.1-1.1c-0.9 1-2.1 1.4-3.4 1.4-2.7 0-4.6-1.9-4.6-4.6 0-2.6 1.9-4.5 4.6-4.5 1.3 0 2.5 0.4 3.4 1.4l1.1-1.1c-1.1-1.2-2.7-1.8-4.5-1.8-3.7 0-6.3 2.5-6.3 6 0 3.6 2.6 6.1 6.2 6.1zm10.3 0c2.7 0 4.6-1.9 4.6-4.6 0-2.7-1.9-4.6-4.6-4.6-2.7 0-4.7 1.9-4.7 4.6 0 2.7 2 4.6 4.7 4.6zm0-1.4c-1.8 0-3.1-1.3-3.1-3.2 0-1.9 1.3-3.2 3.1-3.2 1.7 0 3 1.3 3 3.2 0 1.9-1.3 3.2-3 3.2zm8.5-6.2v-1.5h-1.6v9h1.6v-4.5c0-2 1.1-3 2.9-3 0.1 0 0.2 0 0.3 0v-1.6c-1.5 0-2.7 0.5-3.2 1.6zm13.3 3c0-2.7-1.8-4.6-4.4-4.6-2.6 0-4.6 1.9-4.6 4.6 0 2.7 2 4.6 4.9 4.6 1.5 0 2.7-0.5 3.5-1.5l-0.9-1c-0.6 0.7-1.5 1.1-2.6 1.1-1.8 0-3-1.1-3.2-2.7h7.3c0-0.1 0-0.3 0-0.5zm-4.4-3.2c1.5 0 2.7 1.1 2.8 2.6h-5.7c0.1-1.6 1.3-2.6 2.9-2.6zm20.1-4.2l-4.3 9.8-4.3-9.8h-1.8l5.2 11.9h1.7l5.2-11.9zm5.6 2.8c-1.5 0-2.8 0.4-3.7 1.2l0.6 1.2c0.7-0.6 1.8-1 2.9-1 1.6 0 2.4 0.8 2.4 2.2v0.3h-2.6c-2.7 0-3.6 1.2-3.6 2.7 0 1.5 1.3 2.6 3.3 2.6 1.5 0 2.5-0.5 3-1.3v1.2h1.6v-5.4c0-2.5-1.4-3.7-3.9-3.7zm-0.4 7.9c-1.2 0-2-0.5-2-1.4 0-0.8 0.5-1.4 2.1-1.4h2.5v1.2c-0.4 1.1-1.4 1.6-2.6 1.6zm7.3 1.2h1.6v-12.6h-1.6zm11.5-9v4.6c0 2-1.1 3-2.8 3-1.5 0-2.4-0.9-2.4-2.6v-5h-1.7v5.2c0 2.6 1.6 3.9 3.9 3.9 1.3 0 2.4-0.5 3.1-1.5v1.4h1.5v-9zm12.9 4.5c0-2.7-1.8-4.6-4.4-4.6-2.7 0-4.6 1.9-4.6 4.6 0 2.7 2 4.6 4.9 4.6 1.5 0 2.7-0.5 3.5-1.5l-0.9-1c-0.6 0.7-1.5 1.1-2.6 1.1-1.8 0-3-1.1-3.2-2.7h7.3c0-0.1 0-0.3 0-0.5zm-4.4-3.2c1.5 0 2.7 1 2.8 2.6h-5.7c0.1-1.6 1.3-2.6 2.9-2.6zm9.2 7.8c2.4 0 3.9-1 3.9-2.7 0-3.5-5.7-1.7-5.7-3.9 0-0.7 0.7-1.2 2.2-1.2 0.8 0 1.7 0.2 2.6 0.7l0.7-1.3c-0.8-0.5-2.2-0.8-3.3-0.8-2.3 0-3.8 1.1-3.8 2.7 0 3.6 5.7 1.8 5.7 3.9 0 0.7-0.6 1.2-2.1 1.2-1.2 0-2.4-0.4-3.2-1l-0.7 1.3c0.8 0.6 2.3 1.1 3.7 1.1z"/>
		<path id="Blog
" class="s3" aria-label="Blog"  d="m-119.5 867.8c0.9-0.4 1.6-1.3 1.6-2.6 0-1.9-1.6-3.1-4.3-3.1h-5.3v11.9h5.6c3 0 4.6-1.2 4.6-3.2 0-1.6-0.9-2.6-2.2-3zm-2.9-4.3c1.8 0 2.8 0.6 2.8 1.9 0 1.2-1 1.9-2.8 1.9h-3.4v-3.8zm0.4 9.1h-3.9v-3.9h3.9c1.9 0 2.9 0.6 2.9 2 0 1.3-1 1.9-2.9 1.9zm7 1.4h1.6v-12.6h-1.6zm8.6 0.1c2.7 0 4.7-1.9 4.7-4.6 0-2.7-2-4.6-4.7-4.6-2.7 0-4.7 1.9-4.7 4.6 0 2.7 2 4.6 4.7 4.6zm0-1.4c-1.7 0-3-1.3-3-3.2 0-1.9 1.3-3.2 3-3.2 1.7 0 3 1.3 3 3.2 0 1.9-1.3 3.2-3 3.2zm14-7.7v1.4c-0.8-1-2-1.5-3.3-1.5-2.6 0-4.6 1.7-4.6 4.3 0 2.6 2 4.4 4.6 4.4 1.3 0 2.4-0.4 3.2-1.4v0.7c0 2.1-0.9 3.1-3.1 3.1-1.3 0-2.6-0.5-3.4-1.2l-0.8 1.2c1 0.9 2.6 1.4 4.3 1.4 3 0 4.7-1.5 4.7-4.6v-7.8zm-3.2 7.2c-1.8 0-3.1-1.2-3.1-3 0-1.7 1.3-2.9 3.1-2.9 1.8 0 3.1 1.2 3.1 2.9 0 1.8-1.3 3-3.1 3z"/>
		<path id="Like
" class="s3" aria-label="Like"  d="m452.7 874h8.1v-1.5h-6.4v-10.4h-1.7zm10.6-10.7c0.7 0 1.1-0.5 1.1-1.1 0-0.6-0.4-1.1-1.1-1.1-0.6 0-1.1 0.5-1.1 1.1 0 0.6 0.5 1.1 1.1 1.1zm-0.8 10.7h1.7v-9h-1.7zm11.7 0h2l-4.2-5.3 3.8-3.7h-2l-4.9 4.5v-8.1h-1.6v12.6h1.6v-2.5l1.9-1.7zm11.3-4.5c0-2.7-1.8-4.6-4.4-4.6-2.6 0-4.5 1.9-4.5 4.6 0 2.7 1.9 4.6 4.8 4.6 1.5 0 2.7-0.5 3.6-1.5l-1-1c-0.6 0.7-1.5 1.1-2.6 1.1-1.7 0-3-1.1-3.2-2.7h7.3c0-0.1 0-0.3 0-0.5zm-4.4-3.2c1.6 0 2.7 1 2.9 2.6h-5.8c0.2-1.6 1.3-2.6 2.9-2.6z"/>
		<g id="&lt;Group&gt;">
			<path id="&lt;Path&gt;" class="s4" d="m-471.7-160c0-10 8.1-18 18-18 9.9 0 18 8 18 18v14.2h-36z"/>
			<path id="&lt;Path&gt;" class="s4" d="m-443.1-194c0 5.9-4.8 10.6-10.6 10.6-5.8 0-10.6-4.7-10.6-10.6 0-5.8 4.8-10.5 10.6-10.5 5.8 0 10.6 4.7 10.6 10.5z"/>
		</g>
		<g id="&lt;Group&gt;">
			<path id="&lt;Path&gt;" class="s4" d="m-517.5-160c0-10 8.1-18 18-18 9.9 0 18 8 18 18v14.2h-36z"/>
			<path id="&lt;Path&gt;" class="s4" d="m-488.9-194c0 5.9-4.8 10.6-10.6 10.6-5.8 0-10.6-4.7-10.6-10.6 0-5.8 4.8-10.5 10.6-10.5 5.8 0 10.6 4.7 10.6 10.5z"/>
		</g>
		<g id="&lt;Group&gt;">
			<path id="&lt;Path&gt;" class="s4" d="m-563.3-160c0-10 8.1-18 18-18 9.9 0 18 8 18 18v14.2h-36z"/>
			<path id="&lt;Path&gt;" class="s4" d="m-534.7-194c0 5.9-4.8 10.6-10.6 10.6-5.8 0-10.5-4.7-10.5-10.6 0-5.8 4.7-10.5 10.5-10.5 5.8 0 10.6 4.7 10.6 10.5z"/>
		</g>
		<path id="&lt;Path&gt;" class="s3" d="m-490.1-242.8c0 5.1-4.2 9.3-9.4 9.3-5.2 0-9.4-4.2-9.4-9.3 0-5.2 4.2-9.4 9.4-9.4 5.2 0 9.4 4.2 9.4 9.4z"/>
		<g id="&lt;Group&gt;">
			<path id="&lt;Path&gt;" class="s3" d="m-465.2-221c0 5.2-4.2 9.4-9.4 9.4-5.2 0-9.4-4.2-9.4-9.4 0-5.1 4.2-9.3 9.4-9.3 5.2 0 9.4 4.2 9.4 9.3z"/>
			<path id="&lt;Path&gt;" class="s3" d="m-515-221c0 5.2-4.2 9.4-9.4 9.4-5.2 0-9.4-4.2-9.4-9.4 0-5.1 4.2-9.3 9.4-9.3 5.2 0 9.4 4.2 9.4 9.3z"/>
		</g>
		<path id="&lt;Path&gt;" class="s5" d="m-144.9-219.2c0 6.5-2.5 13.1-7.5 18l-12.5 12.5c0 0-20.6 20.1-30.1 28.8-2.5 2.3-6.5 2.3-9 0-9.5-8.7-30.1-28.8-30.1-28.8l-12.5-12.5c-9.9-9.9-9.9-26 0-36 5-5 11.5-7.5 18-7.5 6.5 0 13.1 2.5 18 7.5l6.3 6.3c2.7 2.6 6.9 2.6 9.6 0l6.3-6.3c9.9-9.9 26.1-9.9 36 0 5 5 7.5 11.5 7.5 18z"/>
		<path id="&lt;Path&gt;" class="s4" d="m-144.9-219.2c0 6.5-2.5 13.1-7.5 18l-12.5 12.5c0 0-20.6 20.1-30.1 28.8-2.5 2.3-6.5 2.3-9 0-9.5-8.7-30.1-28.8-30.1-28.8l-12.5-12.5c-9.9-9.9-9.9-26 0-36 5-5 11.5-7.5 18-7.5 6.5 0 13.1 2.5 18 7.5l6.3 6.3c2.7 2.6 6.9 2.6 9.6 0l6.3-6.3c9.9-9.9 26.1-9.9 36 0 5 5 7.5 11.5 7.5 18z"/>
		<g id="&lt;Group&gt;">
			<path id="&lt;Path&gt;" class="s4" d="m-195.4-195.9h6.8l3-7.6 4.3 14.6 5.9-25 9 17.5h16"/>
			<path id="&lt;Path&gt;" class="s4" d="m-248.5-196.4h15.9l9.1-17.5 5.8 25 4.3-14.6 3 7.6h15"/>
		</g>
		<g id="&lt;Group&gt;">
			<g id="&lt;Group&gt;">
				<path id="&lt;Path&gt;" class="s2" d="m68.8-225.2l5.1-2.9c8.6 11.7 17.3 27.3 18.5 41.8-4.4 0.7-8.4 2.6-12.3 4.4l-0.2-1c0.4-14 0-31.5-11.1-42.3z"/>
			</g>
			<path id="&lt;Path&gt;" class="s4" d="m79.9-182.9v1.4c0.4-14 0-32.9-11.1-43.7l5.1-2.9c8.6 11.7 17.3 26.9 18.5 41.4"/>
			<path id="&lt;Path&gt;" class="s1" d="m79-249.6l-7.9 22.8c-3.7-3.4-5.3-8.9-3.5-14 1.7-5.1 6.3-8.4 11.4-8.8z"/>
			<path id="&lt;Path&gt;" class="s4" d="m79-249.6l-7.9 22.8c-3.7-3.4-5.3-8.9-3.5-14 1.7-5.1 6.3-8.4 11.4-8.8z"/>
			<path id="&lt;Path&gt;" class="s1" d="m91.2-240.3l-20.1 13.5c-0.9-5 1.1-10.3 5.6-13.3 4.5-3 10.2-2.9 14.5-0.2z"/>
			<path id="&lt;Path&gt;" class="s1" d="m59.2-235.1c5.4 0.3 9.8 3.8 11.6 8.5l-24.1-1.3c2.3-4.5 7.1-7.5 12.5-7.2z"/>
			<path id="&lt;Path&gt;" class="s4" d="m91.2-240.3l-20.1 13.5c-0.9-5 1.1-10.3 5.6-13.3 4.5-3 10.2-2.9 14.5-0.2z"/>
			<path id="&lt;Path&gt;" class="s4" d="m59.2-235.1c5.4 0.3 9.8 3.8 11.6 8.5l-24.1-1.3c2.3-4.5 7.1-7.5 12.5-7.2z"/>
			<path id="&lt;Path&gt;" class="s1" d="m71.1-226.8l-20 13.5c-0.9-5 1.1-10.3 5.6-13.3 4.5-3 10.1-2.9 14.4-0.2z"/>
			<path id="&lt;Path&gt;" class="s4" d="m71.1-226.8l-20 13.5c-0.9-5 1.1-10.3 5.6-13.3 4.5-3 10.1-2.9 14.4-0.2z"/>
			<path id="&lt;Path&gt;" class="s1" d="m94.9-222.1l-23.7-4.7c2.9-4.2 8.1-6.4 13.4-5.4 5.3 1.1 9.2 5.2 10.3 10.1z"/>
			<path id="&lt;Path&gt;" class="s4" d="m94.9-222.1l-23.7-4.7c2.9-4.2 8.1-6.4 13.4-5.4 5.3 1.1 9.2 5.2 10.3 10.1z"/>
			<path id="&lt;Path&gt;" class="s5" d="m137.2-171.5c-6.1 0-6.1 6-12.3 6-6.1 0-6.1-6-12.2-6-6.1 0-6.1 6-12.2 6-6.1 0-6.1-6-12.2-6-6.1 0-6.1 6-12.2 6-6.1 0-6.1-6-12.2-6 8.7-10.4 21.9-17.1 36.6-17.1 14.7 0 27.9 6.7 36.7 17.1z"/>
			<path id="&lt;Path&gt;" class="s4" d="m137.2-171.5c6.1 0 6.1 6 12.2 6 6.1 0 6.1-6 12.2-6 6.1 0 6.1 6 12.2 6"/>
			<path id="&lt;Path&gt;" class="s4" d="m27.2-165.5c6.1 0 6.1-6 12.2-6 6.1 0 6.1 6 12.3 6 6.1 0 6.1-6 12.2-6"/>
			<path id="&lt;Path&gt;" class="s4" d="m27.2-150.6c6.1 0 6.1-6 12.2-6 6.1 0 6.1 6 12.3 6q1.2 0 2.1-0.3c4.1-1.2 4.8-5.7 10.1-5.7 6.1 0 6.1 6 12.2 6 6.1 0 6.1-6 12.2-6 6.1 0 6.1 6 12.2 6 6.1 0 6.1-6 12.2-6 6.1 0 6.1 6 12.2 6 6.2 0 6.2-6 12.3-6 5.3 0 6 4.5 10 5.7q1 0.3 2.2 0.3c6.1 0 6.1-6 12.2-6 6.1 0 6.1 6 12.2 6"/>
			<path id="&lt;Path&gt;" class="s4" d="m63.9-171.5"/>
			<path id="&lt;Path&gt;" class="s4" d="m99.5-188.6l2.5-9.1"/>
			<path id="&lt;Path&gt;" class="s4" d="m97.2-188.6l-1.5-4.6"/>
			<path id="&lt;Path&gt;" class="s4" d="m117.3-185.6c7.8 3 14.6 7.9 19.9 14.1-6.1 0-6.1 6-12.3 6-6.1 0-6.1-6-12.2-6-6.1 0-6.1 6-12.2 6-6.1 0-6.1-6-12.2-6-6.1 0-6.1 6-12.2 6-6.1 0-6.1-6-12.2-6 8.7-10.4 21.9-17.1 36.6-17.1q2.1 0 4.1 0.2"/>
			<g id="&lt;Group&gt;">
				<g id="&lt;Group&gt;">
					<path id="&lt;Path&gt;" class="s2" d="m117.3-185.6c-4-1.5-8.2-2.4-12.7-2.8 0.1-14.7 7.8-30.4 15.4-42.7l5.4 2.5c-10.4 11.6-9.5 29.1-8.1 43z"/>
				</g>
				<path id="&lt;Path&gt;" class="s4" d="m117.3-185.6c-4-1.5-8.2-2.4-12.7-2.8 0.1-14.7 7.8-30.4 15.4-42.7l5.4 2.5c-10.4 11.6-9.5 29.1-8.1 43z"/>
				<path id="&lt;Path&gt;" class="s1" d="m125.5-244.2c2.1 5 0.9 10.5-2.6 14.2l-9.5-22.2c5.1 0 9.9 3 12.1 8z"/>
				<path id="&lt;Path&gt;" class="s4" d="m125.5-244.2c2.1 5 0.9 10.5-2.6 14.2l-9.5-22.2c5.1 0 9.9 3 12.1 8z"/>
				<path id="&lt;Path&gt;" class="s1" d="m116.4-242.9c4.7 2.7 7.1 7.9 6.5 12.9l-20.9-12c4.1-3 9.7-3.5 14.4-0.9z"/>
				<path id="&lt;Path&gt;" class="s1" d="m147.2-232.9l-23.9 3.1c1.4-4.9 5.6-8.7 10.9-9.4 5.4-0.7 10.4 2 13 6.3z"/>
				<path id="&lt;Path&gt;" class="s4" d="m116.4-242.9c4.7 2.7 7.1 7.9 6.5 12.9l-20.9-12c4.1-3 9.7-3.5 14.4-0.9z"/>
				<path id="&lt;Path&gt;" class="s4" d="m147.2-232.9l-23.9 3.1c1.4-4.9 5.6-8.7 10.9-9.4 5.4-0.7 10.4 2 13 6.3z"/>
				<path id="&lt;Path&gt;" class="s1" d="m137.4-230.8c4.6 2.6 7 7.8 6.5 12.8l-21-12c4.1-3 9.8-3.5 14.5-0.8z"/>
				<path id="&lt;Path&gt;" class="s4" d="m137.4-230.8c4.6 2.6 7 7.8 6.5 12.8l-21-12c4.1-3 9.8-3.5 14.5-0.8z"/>
				<path id="&lt;Path&gt;" class="s1" d="m109.1-234.4c5.2-1.4 10.5 0.5 13.7 4.4l-23.3 6.4c0.7-5 4.4-9.4 9.6-10.8z"/>
				<path id="&lt;Path&gt;" class="s4" d="m109.1-234.4c5.2-1.4 10.5 0.5 13.7 4.4l-23.3 6.4c0.7-5 4.4-9.4 9.6-10.8z"/>
			</g>
		</g>
		<g id="&lt;Group&gt;">
			<g id="&lt;Group&gt;">
				<path id="&lt;Path&gt;" class="s2" d="m-188.9 118.5c-13.4 30.6-50.2 23.6-52.4 13.9-2.1-9 0.7-17.2 0.7-17.2l-14.1-2.8 16.5-26.6c0 0-4.5-26.4 14.4-40.3 20.3-14.9 65-15.2 76.6 19.5 11.6 34.7-14.8 59.7-14.8 65 0 5.3 0 31.2 0 31.2h-43.8v-23.4"/>
			</g>
			<path id="&lt;Path&gt;" class="s0" d="m-167.3 81.9c0 17-13.8 30.9-30.8 30.9-17.1 0-30.9-13.9-30.9-30.9 0-17.1 13.8-30.9 30.9-30.9 17 0 30.8 13.8 30.8 30.9z"/>
			<path id="&lt;Path&gt;" class="s5" d="m-177.2 75.1c0 2.5-1 5-2.9 6.9l-4.8 4.8c0 0-7.9 7.7-11.5 11-1 0.9-2.5 0.9-3.5 0-3.6-3.3-11.5-11-11.5-11l-4.8-4.8c-3.8-3.8-3.8-10 0-13.8 1.9-2 4.4-2.9 6.9-2.9 2.5 0 5 0.9 6.9 2.9l2.4 2.4c1 1 2.7 1 3.7 0l2.4-2.4c3.8-3.9 10-3.9 13.8 0 1.9 1.9 2.9 4.4 2.9 6.9z"/>
			<path id="&lt;Path&gt;" class="s4" d="m-188.9 118.5c-13.4 30.6-50.2 23.6-52.4 13.9-2.1-9 0.7-17.2 0.7-17.2l-14.1-2.8 16.5-26.6c0 0-4.5-26.4 14.4-40.3 20.3-14.9 65-15.2 76.6 19.5 11.6 34.7-14.8 59.7-14.8 65 0 5.3 0 31.2 0 31.2h-43.8v-23.4"/>
			<g id="&lt;Group&gt;">
				<path id="&lt;Path&gt;" class="s4" d="m-167.3 81.9c0 17-13.8 30.9-30.8 30.9-17.1 0-30.9-13.9-30.9-30.9 0-17.1 13.8-30.9 30.9-30.9 17 0 30.8 13.8 30.8 30.9z"/>
				<path id="&lt;Path&gt;" class="s4" d="m-177.2 75.1c0 2.5-1 5-2.9 6.9l-4.8 4.8c0 0-7.9 7.7-11.5 11-1 0.9-2.5 0.9-3.5 0-3.6-3.3-11.5-11-11.5-11l-4.8-4.8c-3.8-3.8-3.8-10 0-13.8 1.9-2 4.4-2.9 6.9-2.9 2.5 0 5 0.9 6.9 2.9l2.4 2.4c1 1 2.7 1 3.7 0l2.4-2.4c3.8-3.9 10-3.9 13.8 0 1.9 1.9 2.9 4.4 2.9 6.9z"/>
			</g>
			<path id="&lt;Path&gt;" class="s4" d="m-145.7 161.2h-97.9"/>
		</g>
		<g id="&lt;Group&gt;">
			<path id="&lt;Path&gt;" class="s5" d="m153.3 103.9h-29c0 0-0.8-1.7-0.9-3.7-0.1-1.9 0.2-5.6 1.1-10.2 0.9-4.5 4.3-8.6 6.6-10.3 2.3-1.8 12.1-7.6 20-12.1 7.9-4.4 17.3-12.7 20.8-16.4 3.4-3.8 6.2-2.1 7.5 3.8 1.3 6-3.2 14.6-3.2 14.6 0 0 0.5 2.2 0.6 4.5 0.1 2.3-1.5 6.9-1.5 6.9 0 0 0.5 1.7 0.7 4.8 0.2 3.1-0.8 8.1-0.8 8.1 0 0-0.6 4.6-2.3 8.7-1.6 4.1-8.3 8.2-12 10.1-3.7 1.9-7.8 2.4-7.8 2.4v-1.3z"/>
			<path id="&lt;Path&gt;" class="s5" d="m48 113.8v1.3c0 0-4.2-0.5-7.9-2.4-3.7-1.9-10.3-6-12-10.1-1.6-4.1-2.2-8.7-2.2-8.7 0 0-1-5-0.8-8.1 0.1-3.1 0.7-4.8 0.7-4.8 0 0-1.7-4.6-1.6-6.9 0.1-2.3 0.6-4.5 0.6-4.5 0 0-4.5-8.6-3.2-14.6 1.3-5.9 4.1-7.6 7.6-3.8 3.5 3.7 12.8 12 20.7 16.4 7.9 4.5 17.7 10.3 20 12.1 2.3 1.7 5.7 5.8 6.6 10.3 0.9 4.6 1.3 8.3 1.1 10.2-0.1 2-0.9 3.7-0.9 3.7h-28.9z"/>
			<path id="&lt;Path&gt;" class="s1" d="m48 103.9h105v44.2h-105z"/>
			<path id="&lt;Path&gt;" class="s4" d="m48 103.9h105v44.2h-105z"/>
			<g id="&lt;Group&gt;">
				<path id="&lt;Path&gt;" class="s2" d="m112.6 126c0 6.7-5.4 12.1-12.1 12.1-6.7 0-12.1-5.4-12.1-12.1 0-6.7 5.4-12.1 12.1-12.1 6.7 0 12.1 5.4 12.1 12.1z"/>
			</g>
			<path id="&lt;Path&gt;" class="s4" d="m112.6 126c0 6.7-5.4 12.1-12.1 12.1-6.7 0-12.1-5.4-12.1-12.1 0-6.7 5.4-12.1 12.1-12.1 6.7 0 12.1 5.4 12.1 12.1z"/>
			<g id="&lt;Group&gt;">
				<path id="&lt;Path&gt;" class="s4" d="m116.4 116.5h27.1v19h-27.1"/>
				<path id="&lt;Path&gt;" class="s4" d="m84.6 135.5h-27.1v-19h27.1"/>
			</g>
			<g id="&lt;Group&gt;">
				<g id="&lt;Group&gt;">
					<path id="&lt;Path&gt;" class="s4" d="m123.7 103.9c0 0-2.8-17.7 8.3-24.9 11.1-7.2 30.5-16.3 39.9-27.8 9.3-11.6 16.9 27.2-19.5 32.8"/>
					<path id="&lt;Path&gt;" class="s4" d="m176.3 70.5c0 0 5.4 22.1-24.8 22.7"/>
					<path id="&lt;Path&gt;" class="s4" d="m175.2 81.8c0 0 7.3 21.8-18.3 20.2"/>
					<path id="&lt;Path&gt;" class="s4" d="m174.6 95.1c0 0 2.1 14.2-21.3 20.2"/>
				</g>
				<g id="&lt;Group&gt;">
					<path id="&lt;Path&gt;" class="s4" d="m48.7 84c-36.5-5.6-28.9-44.4-19.5-32.8 9.3 11.5 28.7 20.6 39.8 27.8 11.1 7.2 8.3 24.9 8.3 24.9"/>
					<path id="&lt;Path&gt;" class="s4" d="m24.7 70.5c0 0-5.4 22.1 24.8 22.7"/>
					<path id="&lt;Path&gt;" class="s4" d="m25.9 81.8c0 0-7.4 21.8 18.2 20.2"/>
					<path id="&lt;Path&gt;" class="s4" d="m26.4 95.1c0 0-2.1 14.2 21.3 20.2"/>
				</g>
			</g>
		</g>
		<g id="&lt;Group&gt;">
			<g id="&lt;Group&gt;">
				<path id="&lt;Path&gt;" class="s2" d="m-485.7 79.4v-29.1c0-12 9.7-21.7 21.6-21.7 12 0 21.7 9.7 21.7 21.7v29.4z"/>
				<g id="&lt;Group&gt;">
					<path id="&lt;Path&gt;" class="s1" d="m-456 58.9c-1.7 2.1-4.6 4.3-9.2 4.7-4.7 0.5-9.1-2.5-11.1-5.3-2.1-2.8-2.3-5.6-2.3-6.5 0-0.8 0.3-1 0.3-1 0 0 1.9 0.6 5.6-0.4 3.7-1.1 5.9-3.5 6.5-4.2 0.6-0.7 0.7-0.5 0.7-0.5 0 0 0.4 0.4 3.5 2.3 3.1 1.9 6.9 2.8 7.9 2.9 1 0.1 0.9 0.5 0.9 1.1 0 0.6-0.3 1.3-0.5 2.9 0 0-0.6 1.9-2.3 4z"/>
					<path id="&lt;Path&gt;" class="s4" d="m-453.2 50.9c0 0-4 0.4-9.7-3.4-5.8-3.7-7.8-9.4-7.8-9.4"/>
					<path id="&lt;Path&gt;" class="s4" d="m-465.8 45.3c0 0-3.7 6.5-12.9 5.6"/>
					<path id="&lt;Path&gt;" class="s4" d="m-453.2 50.9c0 7-5.7 12.8-12.7 12.8-7.1 0-12.8-5.8-12.8-12.8"/>
				</g>
				<path id="&lt;Path&gt;" class="s4" d="m-485.7 79.4v-29.1c0-12 9.7-21.7 21.6-21.7 12 0 21.7 9.7 21.7 21.7v29.4z"/>
				<g id="&lt;Group&gt;">
					<path id="&lt;Path&gt;" class="s2" d="m-449.4 73.6c6.4 3.2 10.4 9.8 10.4 17v15.8h-50.2v-15.8c0-7.2 4-13.8 10.4-17 3.7-1.8 8.5-3.2 14.7-3.2 6.3 0 11.1 1.4 14.7 3.2z"/>
				</g>
				<g id="&lt;Group&gt;">
					<path id="&lt;Path&gt;" class="s4" d="m-449.4 73.6c6.4 3.2 10.4 9.8 10.4 17v15.8h-50.2v-15.8c0-7.2 4-13.8 10.4-17 3.7-1.8 8.5-3.2 14.7-3.2 6.3 0 11.1 1.4 14.7 3.2z"/>
				</g>
				<g id="&lt;Group&gt;">
					<path id="&lt;Path&gt;" class="s2" d="m-560 106.3c0-20.7 16.9-37.6 37.6-37.6 20.8 0 37.7 16.9 37.7 37.6z"/>
					<path id="&lt;Path&gt;" class="s1" d="m-501.8 48.2c0 11.3-9.2 20.5-20.6 20.5-11.3 0-20.5-9.2-20.5-20.5 0-11.4 9.2-20.6 20.5-20.6 11.4 0 20.6 9.2 20.6 20.6z"/>
				</g>
				<g id="&lt;Group&gt;">
					<path id="&lt;Path&gt;" class="s4" d="m-560 106.3c0-20.7 16.9-37.6 37.6-37.6 20.8 0 37.7 16.9 37.7 37.6z"/>
					<path id="&lt;Path&gt;" class="s4" d="m-501.8 48.2c0 11.3-9.2 20.5-20.6 20.5-11.3 0-20.5-9.2-20.5-20.5 0-11.4 9.2-20.6 20.5-20.6 11.4 0 20.6 9.2 20.6 20.6z"/>
				</g>
				<path id="&lt;Path&gt;" class="s2" d="m-510.2 106.4c0-11.4 9.2-20.5 20.6-20.5 11.3 0 20.5 9.1 20.5 20.5z"/>
				<path id="&lt;Path&gt;" class="s4" d="m-510.2 106.4c0-11.4 9.2-20.5 20.6-20.5 11.3 0 20.5 9.1 20.5 20.5z"/>
				<path id="&lt;Path&gt;" class="s1" d="m-478.4 74.6c0 6.2-5 11.3-11.2 11.3-6.2 0-11.3-5.1-11.3-11.3 0-6.2 5.1-11.2 11.3-11.2 6.2 0 11.2 5 11.2 11.2z"/>
				<path id="&lt;Path&gt;" class="s4" d="m-478.4 74.6c0 6.2-5 11.3-11.2 11.3-6.2 0-11.3-5.1-11.3-11.3 0-6.2 5.1-11.2 11.3-11.2 6.2 0 11.2 5 11.2 11.2z"/>
			</g>
			<g id="&lt;Group&gt;">
				<path id="&lt;Path&gt;" class="s5" d="m-557.1 128h11.2v38h-11.2z"/>
				<path id="&lt;Path&gt;" class="s4" d="m-545.9 133.4c0 0 8-14.1 25.9-14.7 18-0.6 37.6 11.5 35.5 22.8-2.2 11.3-26-1.6-26-1.6"/>
				<path id="&lt;Path&gt;" class="s4" d="m-484.4 140.3c0 0 20.4-10 31.6-11.3 11.1-1.3 18.4 12.3-2.1 21.7-20.5 9.4-28.6 17.9-36.8 18.9-8.2 1-19.9-13.3-34.6-12.2-14.6 1.2-19.6 5.2-19.6 5.2"/>
				<path id="&lt;Path&gt;" class="s4" d="m-557.1 128h11.2v38h-11.2z"/>
			</g>
		</g>
		<g id="&lt;Group&gt;">
			<g id="&lt;Group&gt;">
				<g id="&lt;Group&gt;">
					<path id="&lt;Path&gt;" class="s6" d="m543.8 524.5c-16.1 0-81-5-84.7-6-3.8-1.1-11.6-5.3-13.8-7.6-2.2-2.4-3.3-5.7-3.3-8.9-0.1-3.1 2.3-6.1 3.9-8.9 1.6-2.9 3.9-8 5.6-11 1.7-2.9 4.1-7.8 4.1-7.8 0 0 4.8-10.1 6.3-13.6 1.5-3.4 3.5-7.9 4.7-10.8 1.2-3 2.4-7.8 3.2-9.7 0.8-1.9 3.9-9.7 5.1-13.3 1.3-3.6 2.8-7.2 4.8-10.6 2.1-3.4 6.7-8.7 8.4-10.1 1.8-1.4 7.8-5.7 10.2-6.8 2.5-1.1 10-3.5 11.8-3.8 1.8-0.4 7.2-1.3 12.2-0.4 5 0.9 12 3.6 14.9 5.3 2.9 1.7 8.4 5.9 10.4 8 1.9 2.2 5 6.9 6.9 10.2 1.9 3.2 5.2 13.8 6.2 16.4 0.9 2.5 4.9 13.1 5.8 15.5 0.8 2.3 7 16.7 8.3 19.9 1.3 3.2 5.3 11.4 6 13.3 0.6 1.8 5.3 8.6 6.5 10.7 1.1 2.2 2.5 5.2 2.7 7 0.2 1.9-0.5 5.4-1.9 7.8-1.4 2.3-4.9 5.6-8.9 7.1 0 0-19.4 8.1-35.4 8.1z"/>
					<path id="&lt;Path&gt;" class="s4" d="m496.8 497.8c-11.5 38.1-64.4 19.2-53.1-0.8 27.5-48.7 26.5-65.3 35.8-81.1 12.7-21.5 36.6-20.8 36.6-20.8"/>
					<path id="&lt;Path&gt;" class="s4" d="m516.1 395.1c0 0 23.8-0.7 36.5 20.8 9.3 15.8 8.3 32.4 35.8 81.1 11.3 20-41.7 38.9-53.2 0.8"/>
					<path id="&lt;Path&gt;" class="s1" d="m531.6 487.4c0.7 2.5 1.5 10.7 13.2 18.6 5.1 3.4 8.5 3.4 12.8 3.7 4.3 0.3 13.1 3.1 15.9 3.4 2.7 0.3 3.4 2.6 2.6 3.8-0.8 1.1-6.6 10.4-9.3 12.3-2.8 1.9-9.1 7.3-10.2 8.2-1.2 0.8-10.4 6.6-15.4 8.1-5 1.6-14.4 4-20.3 4.2-5.8 0.2-12.5-1-16.2-1.4-3.7-0.4-14.8-3.7-20.1-6-5.2-2.3-14-8-17.8-12-3.8-4-8.9-10-9.6-12-0.7-2-2.7-3.3 0.8-4.6 3.5-1.3 12.7-4 18-5.2 5.3-1.2 6.6-1 10.1-3.1 3.6-2.1 8.6-4.7 9.5-6.5 0.9-1.7 4.2-7.8 5-10.9 0.9-3.1 1.5-6.6 2.3-6.2 0.7 0.4 6 3.1 12.1 3.3 6 0.2 5.7 0.3 9.1-0.7 3.5-0.9 6.6-1.6 6.9-0.8 0.3 0.8 0.6 3.8 0.6 3.8z"/>
					<path id="&lt;Path&gt;" class="s4" d="m531.6 487.4c0.7 2.5 1.5 10.7 13.2 18.6 5.1 3.4 8.5 3.4 12.8 3.7 4.3 0.3 13.1 3.1 15.9 3.4 2.7 0.3 3.4 2.6 2.6 3.8-0.8 1.1-6.6 10.4-9.3 12.3-2.8 1.9-9.1 7.3-10.2 8.2-1.2 0.8-10.4 6.6-15.4 8.1-5 1.6-14.4 4-20.3 4.2-5.8 0.2-12.5-1-16.2-1.4-3.7-0.4-14.8-3.7-20.1-6-5.2-2.3-14-8-17.8-12-3.8-4-8.9-10-9.6-12-0.7-2-2.7-3.3 0.8-4.6 3.5-1.3 15.6-5 20.9-6.2 5.4-1.2 4.5-0.8 8.1-2.9 3.6-2.1 7.5-4.2 9.3-7.1 1.1-1.7 3.5-6.4 4.3-9.5 0.9-3.1 1.5-6.6 2.3-6.2 0.7 0.4 6 3.1 12.1 3.3 6 0.2 5.7 0.3 9.1-0.7 3.5-0.9 6.6-1.6 6.9-0.8 0.3 0.8 0.6 3.8 0.6 3.8z"/>
					<path id="&lt;Path&gt;" class="s1" d="m536.8 415.4c1.2 11 12.7 22.7 12.7 22.7 0 0 6.3 0.5 5.8 6-0.4 3.9-6 6.9-6 6.9-1.2 17.6-14.8 40.5-39.3 35.4-24.6-5.2-23.5-34.4-23.5-34.4 0 0-6.4-0.3-7.4-5.2-1.2-5.7 4.5-6.5 4.5-6.5 0 0 1.2-12.9 18-17.2 16.8-4.3 28-16.5 28-16.5l-7.1 19.6c5.1-0.2 14.3-10.8 14.3-10.8z"/>
					<path id="&lt;Path&gt;" class="s4" d="m536.8 415.4c1.2 11 12.7 22.7 12.7 22.7 0 0 6.3 0.5 5.8 6-0.4 3.9-6 6.9-6 6.9-1.2 17.6-14.8 40.5-39.3 35.4-24.6-5.2-23.5-34.4-23.5-34.4 0 0-6.4-0.3-7.4-5.2-1.2-5.7 4.5-6.5 4.5-6.5 0 0 1.2-12.9 18-17.2 16.8-4.3 28-16.5 28-16.5l-7.1 19.6c5.1-0.2 14.3-10.8 14.3-10.8z"/>
					<path id="&lt;Path&gt;" class="s4" d="m519.8 461.5c-2.1 0-3.8-1.8-3.8-3.9v-6"/>
					<path id="&lt;Path&gt;" class="s4" d="m511.7 469.7c0 0 5.6 4.8 12.8 0"/>
					<path id="&lt;Path&gt;" class="s3" d="m533 445.7c0 1.3-1.1 2.4-2.4 2.4-1.4 0-2.5-1.1-2.5-2.4 0-1.4 1.1-2.5 2.5-2.5 1.3 0 2.4 1.1 2.4 2.5z"/>
					<path id="&lt;Path&gt;" class="s3" d="m505.4 445.7c0 1.3-1.1 2.4-2.5 2.4-1.3 0-2.4-1.1-2.4-2.4 0-1.4 1.1-2.5 2.4-2.5 1.4 0 2.5 1.1 2.5 2.5z"/>
					<path id="&lt;Path&gt;" class="s4" d="m495 441.8l-10.4-4.5"/>
					<path id="&lt;Path&gt;" class="s4" d="m539 441.8l9.9-4.3"/>
					<path id="&lt;Path&gt;" class="s4" d="m521.5 445.8h-8.8"/>
					<path id="&lt;Path&gt;" class="s4" d="m537.5 432.2c0 0-5.9-3-13.8 0.6"/>
					<path id="&lt;Path&gt;" class="s4" d="m496.1 432.2c0 0 5.8-3 13.7 0.6"/>
					<path id="&lt;Path&gt;" class="s4" d="m539.5 445.7c0 4.9-4 8.8-8.9 8.8-4.9 0-8.9-3.9-8.9-8.8 0-4.9 4-8.9 8.9-8.9 4.9 0 8.9 4 8.9 8.9z"/>
					<path id="&lt;Path&gt;" class="s4" d="m511.8 445.7c0 4.9-4 8.8-8.9 8.8-4.9 0-8.8-3.9-8.8-8.8 0-4.9 3.9-8.9 8.8-8.9 4.9 0 8.9 4 8.9 8.9z"/>
				</g>
				<path id="&lt;Path&gt;" class="s7" d="m678.6 715.8h-313.7c-0.1-2.5-0.1-5-0.1-7.5q0.1-0.1 0.1-0.2c0.3-1 0.3-2 0.4-2.9 0.2-1.1 0.4-2.1 0.6-3.2 0.3-2.1 0.5-4.3 1-6.4 0.4-1.9 1-3.9 0.9-6-0.1-2-1.4-2.9-3.2-2.8-1.4-1.5-3.4-2.4-4.9-3.8-0.2-0.3 0.2-1.9-0.1-2.1 4.4-25.8 9.6-46 10-47.7 0.9-4.6 3.5-10.8 4.6-14.8 1.2-4.1 4.2-10.8 5.2-14.7 0.9-4 2.2-5.5 3.2-8.8 1-3.3 2.5-7 3.6-9.8 1.1-2.8 5.1-11.4 6.4-14.4 1.4-3.1 5-9.9 7.1-13.7 2.1-3.9 7.8-12.1 9.7-15.2 1.9-3 7.6-8.9 9.4-10.8 1.9-1.9 10.3-8.5 11.9-9.7 1.5-1.3 4.8-2.9 8.9-4.7 4-1.9 13.3-3.4 17.3-4.1 4-0.8 16.2-2.6 19.6-3.1q0.7-0.1 1.6-0.4-0.2 1.2 0.2 2.4c3.6 13.6 12.3 22.4 25.2 27.5q0.8 0.3 1.6 0.4c3.6 1.4 8.4 1.1 12.9 0.4q0.7 0.1 1.4 0.1 0.6 0 1.1 0 0.9 0.2 1.9 0.2c1.6 0 2.9-0.5 3.9-1.3 3.6-0.6 6.3-1.8 8.8-3.5 1.7-0.2 3-1 3.9-2.1q0.7-0.5 1.2-1.1c4.5-2.3 8.1-8.5 10.3-12.9 1.3-2.7 3.2-6.4 3.4-9.8 0.6 0.2 0.9 0.3 0.9 0.3 0 0 10.5 2.1 24.4 4.3 13.9 2.2 20.9 7.6 26.1 11.9 5.3 4.3 16.5 16.7 19.3 20.8 2.7 4.2 11.2 19.4 15 28 3.8 8.6 2.3 4.6 4.4 12.1 2.1 7.5 12.9 41.5 12.9 41.5l11.4 43.9c0 0 7.7 30.2 10.3 43.7z"/>
				<path id="&lt;Path&gt;" class="s1" d="m496.6 690.2c-0.3-0.8-0.3-1.6-1.3-5.8-1.1-4.1-0.9-12.6-0.7-16.2 0.1-3.6 1-13.7 1-17.2 0-3.5 1.7-13 2-14.3 0.2-1.3 2.7-1.5 4.4-2.2 1.8-0.6 6-1 6.8-2.4 0.9-1.3 2-0.6 3.8-5.5 1.8-4.9 5.4-16.5 6.2-18.9 0.8-2.5 1.7-3 4-3.7 2.3-0.7 4.5 1.9 6.4 5.7 1.9 3.7 0.4 14.6 0.2 16.4-0.2 1.8-0.8 3.1 6.3 1.5 7-1.6 12.8-0.9 16.4-0.5 3.6 0.3 4.7 4.8 4.9 6.5 0.1 1.7 1.9 3.2 3.8 5.4 1.9 2.1 1.8 4.7 1.8 6.1 0.1 1.4-0.7 4.8-0.7 4.8 0 0 2.3 2.8 2.4 5.6 0 2.9-1.1 5.5-2.5 7.6-1.5 2.1-2.8 4.1-3.4 5.9-0.6 1.8-1.6 5.6-6.9 9.6-5.3 3.9-17.2 7.9-23.7 9.4-6.6 1.4-26.4 4.2-26.4 4.2 0 0-4.4-1.1-4.8-2z"/>
				<g id="&lt;Group&gt;">
					<path id="&lt;Path&gt;" class="s4" d=""/>
					<path id="&lt;Path&gt;" class="s4" d="m504.4 699.7c-61.9 6.6-145.8-7.3-144.8-18.8 3.4-38.9 25.7-92.8 25.7-92.8 14.3-39.2 34.1-63 53.9-71.4 6.5-2.7 26.3-5.8 38.9-7.6"/>
				</g>
				<g id="&lt;Group&gt;">
					<path id="&lt;Path&gt;" class="s4" d="m612.3 715.8l-17.6-120.2"/>
					<path id="&lt;Path&gt;" class="s4" d="m553.9 509.3c12.6 1.7 30.5 4.7 36.8 7.4 19.8 8.4 39.6 32.2 53.8 71.4 14.2 39.2 34.1 127.7 34.1 127.7"/>
				</g>
				<path id="&lt;Path&gt;" class="s4" d="m331.2 715.8h33.7 313.7 24.3"/>
				<path id="&lt;Path&gt;" class="s4" d="m553.8 509.5c0 0-4.7 30.8-37.8 30.8"/>
				<path id="&lt;Path&gt;" class="s4" d="m478.1 509.5c0 0 4.7 30.8 37.9 30.8"/>
				<path id="&lt;Path&gt;" class="s6" d="m501.5 697.5c-1.1-0.9-2.5-2.6-2.9-4.3-0.3-1.7 1.8-1.3 4.1-1.6 2.4-0.3 5.7-0.9 5.9 2.2 0.1 3 0.5 4-4.1 5.4 0 0-1.9-0.8-3-1.7z"/>
				<path id="&lt;Path&gt;" class="s6" d="m499.3 635c-0.8-2.3-2.1-5.3 0.9-6.2 3-0.8 3.8-1.4 6.1 2.8 0 0-0.1 0.8-0.3 1.7-1 0.1-1.9 0.5-2.6 1.1q-0.1 0-0.2 0.1c-0.3 0.1-0.6 0.2-0.7 0.3q-1 0.2-2 0.4-0.5 0.1-1 0.2-0.1-0.2-0.2-0.4z"/>
				<g id="&lt;Group&gt;">
					<path id="&lt;Path&gt;" class="s4" d="m497.9 635.2c2.9-0.4 4.7-0.7 7.9-1.4 8.2-1.8 11.1-22.4 13.6-27.7 2.6-5.2 11.6-2.8 10.6 12.8-0.9 15.5-4 19.9-4 19.9 0 0 14.7 0.1 20.8-5.4"/>
					<path id="&lt;Path&gt;" class="s4" d="m529 628.8c0 0 13.9-3.2 22.5-1.9 8.7 1.3 9.1 16.1-14.2 26.4"/>
					<path id="&lt;Path&gt;" class="s4" d="m556.6 636.1c0 0 6.6 1.4 6 9.9-0.4 5.2-13.2 13.6-23.7 17.7"/>
					<path id="&lt;Path&gt;" class="s4" d="m561.4 649.4c0 0 6.2 6.5 0.7 13.3-5.4 6.8-21.9 12.1-21.9 12.1"/>
					<path id="&lt;Path&gt;" class="s4" d="m559.4 665.4c0 0-0.7 13.7-22.7 20.1-21.9 6.4-39.1 6.3-39.1 6.3"/>
				</g>
				<path id="&lt;Path&gt;" class="s4" d="m501.4 628.3c-24.5 6.6-64.5 6.6-64.5 6.6l13.4-48.2"/>
				<path id="&lt;Path&gt;" class="s4" d="m497.7 636.1c0 0-8.3 40.1 0.2 56.3"/>
				<path id="&lt;Path&gt;" class="s4" d="m507.7 691.4c0 0 1.1 0.9 0.2 5.3-0.8 4.5-6.9 4.5-10.1-4.5"/>
				<path id="&lt;Path&gt;" class="s4" d="m497.7 636.1c1.6-8.5 4.6-9 6.8-7.2 2.5 2.1 1.7 4.8 1.7 4.8"/>
				<path id="&lt;Path&gt;" class="s4" d=""/>
				<path id="&lt;Path&gt;" class="s4" d="m364.2 715.8l0.6-4.3 2.4-17.2 0.6-4.4 0.3-2.1"/>
			</g>
		</g>
		<g id="&lt;Group&gt;">
			<path id="&lt;Path&gt;" class="s1" d="m-665.2 758.9c-124.3 48.1-164.1-115.6-129.8-211.7 34.2-96.1 82.5-109.2 141.5-98.6 61.1 10.9 142.2 49.3 144.7 121.9 3.8 112.4-79 158.4-156.4 188.4z"/>
			<path id="&lt;Path&gt;" class="s1" d="m-752.5 708.3c-124.3 48.1-164-115.6-129.8-211.7 34.3-96.1 82.5-109.2 141.5-98.7 61.2 11 142.2 49.4 144.7 122 3.8 112.3-78.9 158.4-156.4 188.4z"/>
			<path id="&lt;Path&gt;" class="s7" d="m-656 777.1c0 1.3-1.1 2.4-2.5 2.4-1.3 0-2.4-1.1-2.4-2.4 0-1.3 1.1-2.4 2.4-2.4 1.4 0 2.5 1.1 2.5 2.4z"/>
			<path id="&lt;Path&gt;" class="s7" d="m-856.7 629.9c0 1.3-1.1 2.4-2.4 2.4-1.3 0-2.4-1.1-2.4-2.4 0-1.3 1.1-2.4 2.4-2.4 1.3 0 2.4 1.1 2.4 2.4z"/>
			<path id="&lt;Path&gt;" class="s5" d="m-768.6 751.1c0 3.7-3 6.7-6.7 6.7-3.7 0-6.7-3-6.7-6.7 0-3.7 3-6.6 6.7-6.6 3.7 0 6.7 2.9 6.7 6.6z"/>
			<path id="&lt;Path&gt;" class="s5" d="m-487.8 512.3c0 2.6-2.1 4.7-4.7 4.7-2.6 0-4.7-2.1-4.7-4.7 0-2.6 2.1-4.7 4.7-4.7 2.6 0 4.7 2.1 4.7 4.7z"/>
			<g id="&lt;Group&gt;">
				<path id="&lt;Path&gt;" class="s2" d="m-606.3 769.1c0 1.6-1.3 2.8-2.8 2.8-1.6 0-2.8-1.2-2.8-2.8 0-1.5 1.2-2.7 2.8-2.7 1.5 0 2.8 1.2 2.8 2.7z"/>
			</g>
			<g id="&lt;Group&gt;">
				<path id="&lt;Path&gt;" class="s2" d="m-794.6 426.3c0 1.6-1.2 2.8-2.8 2.8-1.5 0-2.8-1.2-2.8-2.8 0-1.5 1.3-2.7 2.8-2.7 1.6 0 2.8 1.2 2.8 2.7z"/>
			</g>
			<g id="&lt;Group&gt;">
				<path id="&lt;Path&gt;" class="s2" d="m-646.7 381.6c0 1.6-1.2 2.8-2.7 2.8-1.6 0-2.8-1.2-2.8-2.8 0-1.5 1.2-2.7 2.8-2.7 1.5 0 2.7 1.2 2.7 2.7z"/>
			</g>
			<g id="&lt;Group&gt;">
				<path id="&lt;Path&gt;" class="s0" d="m-508.5 587.3c0 89.4-72.4 161.9-161.8 161.9-89.4 0-161.8-72.5-161.8-161.9 0-89.3 72.4-161.8 161.8-161.8 89.4 0 161.8 72.5 161.8 161.8z"/>
				<path id="&lt;Path&gt;" class="s1" d="m-558.9 468.4c-5.7-2.2-12.2-8.3-18.2-13.4-5.9-5-22.9-13.7-25.5-14.7-2.5-1-1.2-2.8-1.2-2.8 0 0 5.4-8.2 8.2-13.2 2.8-5 8.5-18.1 9.6-21.1 1.2-2.9 2.5-1.5 2.5-1.5 0 0 36.6 12 40.4 13.3 3.8 1.2 3.5 3.9 4 6.6 0.5 2.6 1.2 4.9 2 7.6 0.9 2.8 5.7 13.4 8 17.2 2.3 3.9 4.3 9.9 5.8 15.1 1.6 5.1-1.4 7.1-6.1 6.9 0 0-23.8 2.3-29.5 0z"/>
				<path id="&lt;Path&gt;" class="s1" d="m-797.5 489c-1.2 6-6.1 13.6-10 20.3-3.9 6.7-9.4 25-10 27.7-0.5 2.7-2.6 1.7-2.6 1.7 0 0-9-3.8-14.4-5.7-5.3-1.9-19.3-5.2-22.4-5.8-3.1-0.7-2-2.2-2-2.2 0 0 5.4-38.1 6-42.1 0.6-3.9 3.3-4.2 5.8-5.1 2.5-0.9 4.6-2 7.2-3.3 2.5-1.4 12.1-7.9 15.5-10.9 3.4-3 9-5.9 13.8-8.4 4.7-2.4 7.3 0.2 7.9 4.9 0 0 6.4 22.9 5.2 28.9z"/>
				<path id="&lt;Path&gt;" class="s8" d="m-664.1 425c4 0.8 5.2-1.3 5.3 6.1 0.1 7.4 1 42.6 0.9 44.4-0.2 1.8 0.3 11.9-2 14.5-2.3 2.6-3.3 4.4-10 2.9-6.7-1.5-10.1-6.7-14.1-6.7-3.9 0-8.4 1.7-9.9 4.2-1.5 2.5-3 5.9-3.3 9.1-0.3 3.2-1 5.7 1.2 10.8 2.3 5.1 3 7.4 8.3 7.9 5.2 0.6 9.1-4.7 14.3-6 5.2-1.3 9.4-1.3 11.3 0.9 1.9 2.2 2 4 3.2 8 1.2 3.9-7.4 62.2-7.4 62.2l-74.4 7.9c0 0-7.2 0.3-9.9-2.7-2.6-3-9.1-11.8-11.2-7.3-2.2 4.4-14 15.4-28.4 15.6-14.4 0.3-25.7-0.8-31-2.5-5.2-1.8-11.1 0.1-10.9-7 0.1-7 4.6-42.8 9.6-54.9 4.9-12.2 17.3-35.5 23.5-43.2 6.3-7.8 31.5-34.7 47.8-42.1 16.4-7.3 34.3-15.7 51.4-18.9 17-3.1 35.7-3.2 35.7-3.2z"/>
				<path id="&lt;Path&gt;" class="s5" d="m-508.6 580.5c-0.3 3.5-3.7 2.8-6.7 2.8-3 0-35.6 0.7-40.9 0-5.3-0.8-8.2-1.8-10.2-4.2-1.9-2.4-2.3-9.9 0-12.6 2.3-2.7 7.3-6.1 5.4-12.1-1.8-6.1-1-7.6-11.3-9.4-10.4-1.9-15 1.3-17.6 3.6-2.5 2.3-4.8 4.1-3.3 8.6 1.5 4.6 7.2 8.3 7.9 13.9 0.7 5.6-1.1 7.7-3.4 9.5-2.3 1.7-4.4 2.5-10.9 2.5-6.5 0-56.9 0.2-57.3 0.2-0.4 0-1.6-1.2-1.6-2.2 0-1-0.2-62.3-0.2-62.3 0 0-3.3-7.7-7.5-7.7-4.1 0-9.7 4.8-14.4 5.9-4.6 1-10.7 1.3-12.4-12-1.8-13.3 9.2-18.3 19.9-13 10.8 5.3 14.3-6.7 14.6-8.3 0.4-1.5-0.3-23.3-0.3-23.3l0.3-32.5c0 0-0.2-1.7 4.8-1.5 5.1 0.1 33.1 4.3 55.2 15.9 22.1 11.6 41.4 28.5 51 39.7 9.7 11.1 21.5 30.9 27.9 46.1 6.4 15.3 9.3 38.5 10.4 43.4 1 4.8 0.6 9 0.6 9z"/>
				<path id="&lt;Path&gt;" class="s8" d="m-508.8 598.3c-0.3 6.1-1.8 22-8.5 41.8-6.6 19.8-19.8 39.2-35.7 58.7-15.9 19.5-47.8 34.7-63 41-15.2 6.3-54.9 10.4-60.2 9.8-5.2-0.7-4.5-2.3-4.5-2.3 0 0 0.4-37.4 0-49.9-0.5-12.4 6.7-27.7 17.7-22.5 11 5.1 21.4 1.3 20.9-6.2-0.6-7.6-6.3-12-14.2-11.7-7.8 0.2-12.6 5.7-15.5-0.6-2.9-6.3 9-69.1 9-69.1 0 0 32.3 5.2 50.5 3.7 18.3-1.5 19.8-5.6 24.3-11.3 4.4-5.7 2.1-7.9-1.9-15.6-4.1-7.7 0.3-15.3 10.7-14.6 15.3 1.1 14.2 10.6 8.7 19.1-5.5 8.5-2.2 18.3 5.9 20 8.1 1.7 56.1-0.8 56.1-0.8 0 0 0 4.3-0.3 10.5z"/>
				<path id="&lt;Path&gt;" class="s4" d="m-658.2 583.3h1.3 60.9c2.1 0 4.3-0.7 6-1.9q0.1 0 0.2-0.1 1-0.7 1.8-1.6 0 0 0-0.1 0.2-0.1 0.3-0.3 0.1-0.2 0.3-0.4 0.1-0.3 0.3-0.5c0.9-1.6 1.5-3.5 1.3-5.8-0.2-2.3-1.3-5-3.8-8q-0.2-0.3-0.4-0.5 0 0 0 0c-1.9-2.5-2.9-4.8-3.2-6.9q0 0 0 0c-0.5-3.5 0.8-6.4 3.3-8.6q0.3-0.2 0.6-0.5c2.1-1.7 5-2.9 8.1-3.5q2-0.4 4.1-0.4c2.5 0 5.1 0.5 7.4 1.3q0 0 0 0c3.7 1.3 6.8 3.7 8.1 6.7q0.5 1 0.6 2.2 0 0 0 0.1c0.5 2.9-0.5 6.3-3.6 10.1q-0.3 0.3-0.5 0.6 0 0 0 0c-1.3 1.6-2.1 3.2-2.6 4.6-1.3 3.5-0.6 6.4 0.6 8.6 1.8 3.1 5.3 4.9 8.9 4.9h2 40.9 3.9 2.9"/>
				<path id="&lt;Path&gt;" class="s5" d="m-702.5 746c-7-1.9-9.3-2.5-30.6-9.5-21.2-6.9-41.2-25.2-52.5-35.6-11.3-10.4-19.9-24.7-27.1-36.6-7.1-11.9-10.2-25.4-13.6-33.8-3.4-8.4-5.5-33.3-5.3-35.9 0.2-2.6 1.3-3.3 1.7-3.3 0.4 0 37.6 0.4 37.6 0.4 0 0 9.7 1.2 15.6-0.8 6-2 5.6-5.6 5.4-11.8-0.2-6.1-6.1-6.4-6.7-13.6-0.6-7.2 19.8-10.4 26.7-5.8 7 4.6 1.1 12.2-1.4 19.4-2.5 7.1 4.6 11.9 6.4 12.6 1.9 0.7 61.4-0.4 62.9-0.5 1.4 0 2.6 1.1 2.6 1.1v18.7c0 0-0.2 40.3-0.2 42.7 0 2.4 3 9.2 5.9 10.2 3 1 8.8-0.2 11.9-2.4 3.1-2.2 6.2-4.5 9.7-4.6 3.6-0.2 5 1.3 8.7 5 3.6 3.7 3.1 11.8 3.1 16.2 0 4.5-7.2 12.5-12.8 11.7-5.6-0.9-8.1-5.2-13.1-7.5-5-2.2-9.3 0.5-11.6 4-2.2 3.5-1.5 12.1-1.6 16 0 3.9 0.2 37.6 0.4 41.9 0.2 4.2 0.5 5.2-6 4.5 0 0-9.2-0.9-16.1-2.7z"/>
				<path id="&lt;Path&gt;" class="s4" d="m-658.5 583.3v-2.2-60q0.1-1.1-0.2-2.3c-0.5-2.2-1.6-4.3-3.4-5.7q-0.6-0.5-1.2-0.9-0.1 0-0.2-0.1-0.4-0.2-0.9-0.4 0 0 0 0-0.8-0.4-1.8-0.6 0 0 0 0c-2-0.4-4.4-0.3-7.2 1.1q-1.8 0.9-3.8 2.5-1.7 1.4-3.4 2.3 0 0 0 0c-2.6 1.3-5 1.7-7.1 1.2q0 0 0 0c-3.5-0.7-6.2-3.4-7.9-7q-0.2-0.4-0.4-0.9 0-0.1 0-0.2c-1-2.3-1.5-4.9-1.5-7.6q0-0.1 0-0.3c0-4.3 1.3-8.7 3.6-11.8q0 0 0 0 0.3-0.5 0.7-1 0.1 0 0.1 0c2.3-2.6 5.4-4 9.1-3.2q0 0 0 0c2.1 0.4 4.4 1.5 6.8 3.5q0.9 0.7 1.8 1.3c3.3 2.3 6.2 2.8 8.6 2.4 1.3-0.2 2.5-0.7 3.5-1.2 2.9-1.7 4.7-5 4.8-8.4q0.1-0.3 0-0.5v-10.2-26.1-19.1-0.1-1.9"/>
				<g id="&lt;Group&gt;">
					<path id="&lt;Path&gt;" class="s4" d="m-680.8 592v62.1q0 0.8 0.1 1.5c0.4 2.4 1.5 4.6 3.2 6.2q0 0.1 0 0.1 0.7 0.6 1.6 1.2c1 0.5 2 0.9 3.2 1.1 2.5 0.5 5.5 0 9-2.4q0.3-0.1 0.5-0.3 0.6-0.4 1.2-0.9c2.6-2.1 5.1-3.3 7.3-3.6q0.6-0.1 1.1-0.1 0.1 0 0.1 0 1.5-0.1 2.8 0.3 0.2 0.1 0.3 0.1c1.5 0.5 2.9 1.5 4 2.7q0.9 0.9 1.6 1.9c1.2 2 2.2 4.3 2.7 6.8q0 0 0 0 0.3 1.6 0.4 3.4 0 0.1 0 0.3 0 0.3 0 0.7c0 5.6-2.1 11.1-5.7 14.1q-0.3 0.2-0.6 0.4c-3.6 2.5-8.4 2.6-14-2-2-1.7-3.9-2.7-5.6-3.2q0-0.1 0 0c-3.4-1.2-6.2-0.5-8.3 0.7q-1.1 0.7-1.9 1.6-0.2 0.1-0.3 0.2-0.6 0.7-1.1 1.4-0.1 0.2-0.2 0.4 0 0.1 0 0.1c-0.9 1.6-1.4 3.4-1.4 5.2v1.1 2.2 2.1 13.2 36.7 0.4 0.4 0.7"/>
					<path id="&lt;Path&gt;" class="s4" d="m-832.1 591.7h1.4 0.1 38.3 11.5q0.5 0 1 0 1.6-0.2 3.1-0.7 0-0.1 0-0.1c2-0.8 3.7-2.2 4.8-4.1q0.1-0.2 0.2-0.3c1.3-2.4 1.8-5.5 0.1-9.2v-0.1q-0.9-2-2.7-4.2-0.3-0.4-0.7-0.8c-1.7-2.4-2.7-4.6-3-6.7q0 0 0 0c-1-7.8 7.6-12.8 16.2-12.8 11.1 0 22.2 8.4 12.4 20.3q-1.6 2.1-2.5 4-0.5 1-0.8 2.1c-0.9 3.1-0.3 5.7 0.9 7.7q0.1 0.2 0.2 0.4 0.2 0.4 0.5 0.7 0.1 0 0.1 0.1 0.1 0.1 0.2 0.3 0.2 0.2 0.4 0.4 0 0 0 0 0.1 0.1 0.2 0.2c2 1.8 4.6 2.8 7.3 2.8h31.5 29.8 0.8"/>
				</g>
				<path id="&lt;Path&gt;" class="s4" d="m-508.5 587.3c0 89.4-72.4 161.9-161.8 161.9-89.4 0-161.8-72.5-161.8-161.9 0-89.3 72.4-161.8 161.8-161.8 89.4 0 161.8 72.5 161.8 161.8z"/>
				<g id="&lt;Group&gt;">
					<path id="&lt;Path&gt;" class="s1" d="m-533.6 768.4c-3.2 1.6-4.1 0.8-7.3-0.1-3.1-0.9-13.7-5.8-19.7-8.5-5.9-2.6-18.8-10-22.8-13.6-4-3.7-8.1-12.9-9.3-15.9-1.2-3-5.5-22.8-6.5-26.3-1-3.5-1.5-6.6-4.3-11-2.7-4.4-7.3-11.1-7.3-11.1 0 0-11.7-18-15.6-23-3.8-5-7.3-12.1-8-14.1-0.8-2.1-1.5-4.7-0.7-7.6 0.9-2.9 4.1-3 8.9-1 4.8 2 12.2 11 15.5 14.8 3.2 3.8 10.2 13.1 12.9 16.4 2.7 3.3 2.6 1.4 3-1.8 0.3-3.2 3.1-4.9 5.5-5.4 2.3-0.6 5.6 1.2 6.9 1.9 1.4 0.6 2-1.3 2.6-3.9 0.5-2.6 1-4.1 6.8-5.3 5.9-1.2 6.7 1.7 9.4 2.8 2.8 1 2-2.5 2.6-4.9 0.5-2.5 1.7-4.3 7.5-3.4 5.7 0.8 10.5 6.8 13.9 11.1 3.4 4.2 12.1 18.7 12.1 18.7l17.3 30.2c0 0 15.8 29.4 17 31.8 1.3 2.4 0.6 1.7-2.1 3.9 0 0-35 23.6-38.3 25.3z"/>
					<g id="&lt;Group&gt;">
						<path id="&lt;Path&gt;" class="s4" d="m-561.8 655.4c-0.4-9.6 10.4-17.9 31.3 16.8 21 34.7 38.2 69.2 38.2 69.2"/>
						<path id="&lt;Path&gt;" class="s4" d="m-580.6 662.7c0 0-1-13 11.2-9.5 12.2 3.5 14.8 12.8 15 12.8"/>
						<path id="&lt;Path&gt;" class="s4" d="m-595.4 671.3c0 0-0.7-12.8 8.3-11.3 9 1.6 15.4 13.9 17.4 14.9"/>
						<path id="&lt;Path&gt;" class="s4" d="m-582.4 723.2c0 0-48.2-68.1-52.3-78.6-4.2-10.5 2.9-15.3 15.9-2.6 13 12.7 33.4 43.9 33.4 43.9"/>
						<path id="&lt;Path&gt;" class="s4" d="m-535.9 769.9c0 0-37.6-12.7-49.2-25.9-11.6-13.2-15.2-46.5-15.2-46.5"/>
						<path id="&lt;Path&gt;" class="s4" d="m-623.1 643.8c0 0-2.2 3-5.4 3.7"/>
						<path id="&lt;Path&gt;" class="s7" d="m-534.4 782.6l-6.2-9.6 53.2-34.8 6.3 9.6z"/>
						<path id="&lt;Path&gt;" class="s4" d="m-534.4 782.6l-6.2-9.6 53.2-34.8 6.3 9.6z"/>
					</g>
				</g>
				<path id="&lt;Path&gt;" class="s1" d="m-562.1 521.7c-3.7 2-5 3.3-6.9 1.9-1.9-1.4-2-3.6-0.1-7.2 1.9-3.5 7.1-9.4 9.4-11.2 2.2-1.9 6.6-6.2 6.6-7.5 0-1.3 0.1-7.8 1.6-10 1.5-2.2 4.5-4.9 4.7-5.6 0.1-0.7 1.3-1.6-3.1-3.3-4.4-1.6-10.7-7.4-12.7-10.4-2-3-7.6-17.2 2.1-16.3 9.6 1 36 7 38.2 13.7 2.3 6.7 2.3 14.3-0.7 21.1-2.9 6.9-7.9 14-10.8 17.6-2.9 3.6-5.6 8.5-9.2 9.6-3.5 1.1-10.4 5-12.7 5.3-2.2 0.2-6.4 2.3-6.4 2.3z"/>
				<g id="&lt;Group&gt;">
					<path id="&lt;Path&gt;" class="s4" d="m-552.3 502.8c0 0-2.5-4.4-0.7-10.2 1.8-5.8 8.1-12.8 8.1-12.8"/>
					<g id="&lt;Group&gt;">
						<path id="&lt;Path&gt;" class="s4" d="m-585.1 401.1c0 0-8.1 22.5-19.6 37.5"/>
						<path id="&lt;Path&gt;" class="s4" d="m-537.1 477.8c0 0-8.6 6.2-20-3.1-11.3-9.3-13-29-13-29"/>
						<path id="&lt;Path&gt;" class="s4" d="m-539.7 416.1c-0.4 4.2 3.7 19.5 9.5 28.5 5.9 9.1 11.6 29.9 8.4 39.5-3.2 9.6-17.4 29.3-22 30.4-4.6 1.1-12.8 4.1-20.2 8.2-7.4 4.2-7.4-0.5-5.3-6.2 2-5.7 15.9-17 15.9-17"/>
						<path id="&lt;Path&gt;" class="s7" d="m-530.9 407l-3.6 10.8-60.4-19.9 3.6-10.9z"/>
						<path id="&lt;Path&gt;" class="s4" d="m-530.9 407l-3.6 10.8-60.4-19.9 3.6-10.9z"/>
					</g>
					<path id="&lt;Path&gt;" class="s4" d="m-550 516.4c0 0-14-7.2-17 7.7"/>
				</g>
				<path id="&lt;Path&gt;" class="s1" d="m-744.5 482.8c2.6 3.3 4.2 4.4 3.1 6.5-1.1 2.1-3.2 2.6-7 1.3-3.9-1.2-10.6-5.3-12.8-7.2-2.2-1.9-7.3-5.5-8.6-5.3-1.2 0.3-7.6 1.4-10 0.2-2.4-1.1-5.7-3.5-6.4-3.5-0.6 0-1.8-1-2.6 3.6-0.9 4.6-5.5 11.8-8.1 14.3-2.6 2.5-15.6 10.5-16.4 0.8-0.8-9.6 0.5-36.6 6.7-40 6.2-3.4 13.7-4.8 21-3.1 7.2 1.7 15.1 5.4 19.2 7.6 4 2.2 9.3 4 11 7.3 1.7 3.3 6.8 9.4 7.5 11.6 0.6 2.2 3.4 5.9 3.4 5.9z"/>
				<g id="&lt;Group&gt;">
					<path id="&lt;Path&gt;" class="s4" d="m-764.8 476.5c0 0-3.9 3.2-9.9 2.5-6.1-0.7-14.1-5.7-14.1-5.7"/>
					<g id="&lt;Group&gt;">
						<path id="&lt;Path&gt;" class="s4" d="m-859.2 526.8c0 0 18.3 1.5 35.1 10.1"/>
						<path id="&lt;Path&gt;" class="s4" d="m-792.1 465.9c0 0 7.6 7.4 0.4 20.2-7.2 12.9-26.2 18-26.2 18"/>
						<path id="&lt;Path&gt;" class="s4" d="m-852.4 479.4c4.2-0.3 18.5-7.1 26.4-14.4 7.9-7.4 27.4-16.7 37.4-15.2 10 1.5 31.9 12 33.8 16.3 1.9 4.3 6.2 11.9 11.7 18.4 5.4 6.6 0.7 7.3-5.3 6.3-5.9-1-19.5-12.6-19.5-12.6"/>
						<path id="&lt;Path&gt;" class="s7" d="m-862.9 472.3l11.3 1.6-9 63-11.3-1.6z"/>
						<path id="&lt;Path&gt;" class="s4" d="m-862.9 472.3l11.3 1.6-9 63-11.3-1.6z"/>
					</g>
					<path id="&lt;Path&gt;" class="s4" d="m-751.9 471.9c0 0-4.6 14.9 10.6 15.3"/>
				</g>
			</g>
		</g>
		<g id="&lt;Group&gt;">
			<path id="&lt;Path&gt;" class="s1" d="m111.4 793.4h-372.6c-25.4 0-46-20.6-46-46v-372.6c0-25.4 20.6-46 46-46h372.6c25.4 0 46 20.6 46 46v372.6c0 25.4-20.6 46-46 46z"/>
			<g id="&lt;Clip Group&gt;" clip-path="url(#cp1)">
				<g id="&lt;Group&gt;">
					<path id="&lt;Path&gt;" class="s1" d="m-170.3 680.2c0 0-0.8-0.1-2.3-0.4-1.5-0.4-0.9-1-0.9-1l28.7-128.1c0 0 1.5-5.2 1.6-5.3 0.1-0.2 0.7-7.4 0.7-7.4l45.2-34.8c0 0 63.1 0 64.1 0 1.1 0 5.4 1.7 7.4 2.5 2 0.9 34.1 7.8 34.1 7.8l-37.3 165.2c0 0-0.2 1-1.8 1.5z"/>
					<path id="&lt;Path&gt;" class="s9" d="m-33.5 680c0.2 0 1.6 0.1 2.4 0.1 0.7 0 1.6 0.2 1.3 1.4-0.3 1.2-15.7 69-15.9 70.1-0.3 1.1-1.7 2.8-2.7 3.2-1 0.4-4.1 0.3-4.1 0.3h-130.7c0 0-3.9 0.6-5.1-1.3-1.1-2-1.6-3-1.4-4 0.3-1 0.7-2.8 0.7-2.8l14.9-66c0 0 0.8-1 1.6-1 0.8 0 1.9 0.1 1.9 0.1z"/>
					<path id="&lt;Path&gt;" class="s10" d="m5.9 524.1c0 0 1.3-3.5 1.9-5.7 0.5-2.3-3-0.5-3-2.1 0.1-1.5 14.9-2.8 14.9-2.8l-49 233.5c0 0-0.3 2.1-0.7 3.8-0.4 1.7-3 3.7-4.5 4.3-1.5 0.6-4.5 0.1-5.9 0-1.5-0.1-6.6-0.2-7-0.8-0.3-0.7 1.2-0.6 1.6-2.2z"/>
					<path id="&lt;Path&gt;" class="s4" d="m-29.3 680.1h-144.6l40-176.9h144.6z"/>
					<path id="&lt;Path&gt;" class="s4" d="m18.6 518l-48.9 232.9c-0.5 2.5-2.7 4.2-5.2 4.2h-25.8"/>
					<path id="&lt;Path&gt;" class="s4" d="m-26 665.5l-19.5 85.9c-0.4 2.2-2.4 3.7-4.6 3.7h-134.8c-3.1 0-5.3-2.8-4.7-5.8l27.5-121.5"/>
					<path id="&lt;Path&gt;" class="s7" d="m29.5 669.6h-83.9c-5 0-9-4-9-9v-28.3c0-5.1 4-9.1 9-9.1h83.9c5 0 9 4 9 9.1v28.3c0 5-4 9-9 9z"/>
					<path id="&lt;Path&gt;" class="s4" d="m29.5 669.6h-83.9c-5 0-9-4-9-9v-28.3c0-5.1 4-9.1 9-9.1h83.9c5 0 9 4 9 9.1v28.3c0 5-4 9-9 9z"/>
					<path id="&lt;Path&gt;" class="s8" d="m187.9 751.4l-19.6-19c0 0-9-6-9.9-6.5-1-0.6-5.3-2-7.5-2.3-2.3-0.2-8.8 0.2-11.7 0.6-2.8 0.3-13.6 1.3-15.5 1.6-1.9 0.3-9.5-0.3-13-1.5-3.5-1.1-7.8-2.4-11.4-5.3-3.6-2.9-12-8-15.9-9.9-4-2-13.9-4-18-4.5-4.2-0.5-23.1-4.8-27-5.8-4-1-12.9-5-14-5.7-1.1-0.6-16.1-10.4-16.6-11.3-0.6-0.8-7.3-5.5-9.5-7.3-2.2-1.8-5.3-4.6-6.6-5.8-1.2-1.3-1.3-2.4 0.5-3.9 1.8-1.5 12.3-4.6 16.4-4.6 4.2-0.1 7-0.3 11.3 0.1 4.3 0.4 11.9 3.6 13 4.3 1.2 0.6 4.5 3 5.8 4.1 1.3 1 3.9 0.2 7.9 0.4 4.1 0.1 9.6 1.5 11.1 1.7 1.5 0.2 1.7-0.5 0.7-1.7-0.9-1.1-2.8-4.4-5-8.9-2.2-4.5-3.8-12.3-3.7-15.3 0.1-3 2.2-9.1 3.9-11.3 1.7-2.1 3.8-5.4 3.8-5.4 0 0 0.2-0.2 1.6-1.4 1.4-1.3 1-1.4-0.2-1.6-1.2-0.2-4.4-1-7.7-1.9-3.2-1-5.1-0.8-6.6-0.6-1.5 0.2-5.5-0.4-8.6 0.2-3.1 0.7-3.7 0.6-5.1 0.3-1.4-0.2-4.3 0-4.3 0l-47.6 0.2c0 0-7.5-3.1-9.9-5.3-2.4-2.2-2.9-3-3.9-4.7-1.1-1.7 0.1-3.7 0.7-4.5 0.5-0.8 3.6-1.2 6.5-1.8 2.9-0.6 19.8-2.5 23-2.6 3.2-0.1 29-4.7 29-4.7 0 0 19-2.7 23.2-2.6 4.1 0 10.1 0.4 15.5-0.3 5.4-0.7 19.7-3.1 21-3.4 1.3-0.3 16-4.7 16-4.7 0 0 5.6-1.5 6.8-1.7 1.2-0.3 3.4 0 7.6 1.8 4.3 1.7 16 10.5 17.6 11.8 1.6 1.3 14.6 13.1 14.6 13.1 0 0 7.9 8.6 10 11.8 2.2 3.3 15.9 17.3 16.9 18.3 1.1 1 6.7 6.1 9.1 8.1 2.3 2.1 4.6 3.5 8.6 6.5z"/>
					<path id="&lt;Path&gt;" class="s5" d="m-23.2 661h-29.3v-29.2h29.3z"/>
					<path id="&lt;Path&gt;" class="s4" d="m-23.2 661h-29.3v-29.2h29.3z"/>
					<path id="&lt;Path&gt;" class="s4" d="m-20.3 639.1h30.2"/>
					<path id="&lt;Path&gt;" class="s4" d="m-20.3 644h30.2"/>
					<path id="&lt;Path&gt;" class="s4" d="m-20.3 648.9h30.2"/>
					<path id="&lt;Path&gt;" class="s4" d="m-20.3 653.9h30.2"/>
					<path id="&lt;Path&gt;" class="s8" d="m-162.8 503.8c-7.6 10.7-21.7 4.8-28.9-1-7.3-5.7-8.6-8.2-17.1-30.3-8.6-22-4.9-39.2 1.2-43 6-3.9 24.8-2.1 29.4-2.9 4.7-0.8 25.2-0.3 25.2-0.3 0 0 4.3 10.8 4.8 12.5 0.5 1.8 3.3 8.1 4 9.9 0.6 1.7 1.6 4.5 1.7 6.9 0.1 2.5-0.1 8.8-0.3 9.8-0.2 0.9-0.2 5.2-0.8 8.2 0 0-11.6 19.5-19.2 30.2z"/>
					<path id="&lt;Path&gt;" class="s4" d="m-22.5 623.2c0 0-11-4.5-12.9-11-1.8-6.5 18.1-5.3 40-9 21.9-3.7 34.6-6.5 51.3-6.1 16.7 0.5 39.7-6.3 49.4-9.7 9.8-3.4 36.5 19.8 51.3 38.2 14.9 18.5 31.7 31 31.7 31"/>
					<path id="&lt;Path&gt;" class="s4" d="m189.2 752.7c0 0-24.3-26.3-35.4-28.6-11-2.4-27.4 3.8-41.5 1-14.1-2.7-19.5-15.9-41.4-19.8-21.8-3.9-36.4-6-46.9-12.4-10.6-6.3-33.7-23.5-33.7-26.3 0-2.8 30.3-15 49.1 2.7"/>
					<path id="&lt;Path&gt;" class="s4" d="m90.8 627c0 0 1.8 21.9-4.8 34-6.7 12.2-25.3 10.8-35.8 8.6-10.6-2.1-14.9 1.3-14.9 1.3"/>
					<path id="&lt;Path&gt;" class="s4" d="m43.3 618.5c3.3 5.1 16.9 7.3 27.8 8.5 10.8 1.3 19.9 7.3 19.9 7.3"/>
					<path id="&lt;Path&gt;" class="s4" d="m30.8 623.2l17.5-1"/>
					<path id="&lt;Path&gt;" class="s4" d="m60.1 671.1c-4.5-4.5-10.8-17.6-10.4-27.1 0.4-9.5 11-18.4 11-18.4"/>
					<path id="&lt;Path&gt;" class="s4" d="m91 638.1c0 0-6.3 8.5-16.9 11"/>
					<path id="&lt;Path&gt;" class="s4" d="m63.5 640.5c0 0 3.1 1.2 8.9 6.7 5.8 5.5 10.2 18.1 10.2 18.1"/>
					<path id="&lt;Path&gt;" class="s7" d="m-177.2 505.8v-32.2c0-1.9 1.6-3.5 3.5-3.5h71.3c1.9 0 3.5 1.6 3.5 3.5v71.2c0 2-1.6 3.5-3.5 3.5h-67.6"/>
					<path id="&lt;Path&gt;" class="s8" d="m-97.5 488.7c-0.4-0.3-1.4-1.8-1.3-2.9 0.2-1.1-0.1-6.9-0.1-6.9 0 0 0.6-4.6-0.4-6.8-0.9-2.2-5.2-2-6.7-2-1.5 0-3.2-0.8-3.7-2.6-0.4-1.8-1.8-4.2-3.4-9.5-1.7-5.3-4.6-14.2-5.5-16.4-0.9-2.2-6.3-2.4-8.6-3.4-2.4-1-5.8-2.1-8.9-4.2-3.2-2.2-8.6-3.8-13.2-5.6-4.6-1.8-15.9-0.8-20.7-0.1-4.8 0.7-17.9 5.5-22.4 7.7-4.6 2.2-11.9 8.4-13.3 9.9-1.3 1.4-0.2 6.4 0 8.1 0.2 1.7 1.1 3.9 1.9 10.3 0.7 6.5 4.9 15.2 7.9 20.9 3 5.8 12.3 14.5 12.3 14.5l7.7 7.3c0 0 6.6 7.2 7.7 8.7 1.1 1.5 4.5 8.3 4.5 10.6 0 2.3 0.3 7.2 0.2 9.1-0.2 1.9-1.8 6-2.1 6.3-0.3 0.3-2.1-1.6-3.2-3.8-1-2.2-4.7-5.5-6.1-6.8-1.3-1.3-4.1-2.1-7.8-3.1-3.6-1.1-8-0.7-9.4-0.8-1.3-0.1-1.7-1.4-2.6-3.2-0.8-1.8-3.8-4.9-10.4-7.7-6.7-2.7-12.7-7.3-15.1-9.2-2.5-2-9.7-9.4-11.3-11.4-1.5-2.1-4.8-9-6.6-10.9-1.8-1.9-6-3.8-7.5-4.9-1.5-1-9.7-4.3-12.8-6.3-3-2-9.8-6.7-13.7-11.3-3.8-4.6-8.6-12.1-11.1-16.7-2.6-4.5-9.4-20.8-10.1-22.5-0.6-1.7-5.4-15.5-5.6-16.3-0.3-0.8-2-6.4-3.3-9.2-1.3-2.8-5-8-7.4-11.4-2.4-3.4-17.7-22.8-17.7-22.8l-31.6-37.2h109.9c0 0 11.8 18.2 13.3 21.4 1.6 3.2 5.6 4.7 5.6 4.7l15.5 4.3 24.5 6.8c0 0 11.7 3.4 14.2 4.1 2.5 0.7 6.8 1.9 9.3 3.9 2.4 2 7.5 6.5 10.7 11.3 3.2 4.8 6.9 5 10.9 7 3.9 2.1 13.3 10.4 13.3 10.4 0 0 9 9.1 16.2 13 7.3 3.9 13.3 8 14.9 9.4 1.6 1.4 7.8 7.9 9.2 11.6 1.3 3.6 5.6 18.6 6.3 21.8 0.8 3.2 2.9 14 3.4 17.7 0.6 3.7 0.8 11.1 0.8 11.1 0 0 0 0.1-0.4 3.8-0.4 3.6-2.7 5.5-5.3 5.7-2.6 0.2-4.8-1.4-8-3.3 0 0-2.5-1.8-2.9-2.2z"/>
					<path id="&lt;Path&gt;" class="s0" d="m-168.7 547.1c-0.3 0.3-2.1 1.8-3.2 2.1-1 0.3-3.5 0.1-6.3-1.1-2.8-1.2-4.1-2.2-6.6-5-2.5-2.9-4.1-5.9-5-7.6-0.9-1.8-3-7.1-3-7.7 0.1-0.5 3.2-1.1 3.2-1.1 0 0 0 0 3 0.6 3.1 0.6 8.1 1.5 9.9 2.8 1.9 1.3 5.1 4.2 6.7 6 1.5 1.8 3 4.3 3.3 5.3 0.3 1-0.5 3.5-1.4 4.9 0 0-0.3 0.5-0.6 0.8z"/>
					<path id="&lt;Path&gt;" class="s4" d="m-206.9 433c0 0-1 24.3 6.8 43.6 7.8 19.3 17.9 22.2 30.4 37.2 12.6 14.9 3 36.5-3.5 35.8-13.1-1.5-17.6-16.2-20.7-24.1-3.2-8-12.6-8.4-21.3-14.5-8.8-6.2-16.5-14.9-21.1-23.7-4.6-8.7-17.7-7.4-33.2-22.3-15.5-14.9-27.1-49.9-31-63.6-4-13.7-59.5-76.6-59.5-76.6"/>
					<path id="&lt;Path&gt;" class="s4" d="m-118.9 440.3c0 0 6.6 24.1 10.8 29.8"/>
					<path id="&lt;Path&gt;" class="s4" d="m-178.5 378.7c0 0 12.8 1.7 28.8 9 16 7.3 25.2 21.6 35.9 26.2 10.7 4.6 21.4 14.6 24.3 25.1 3 10.5 10.8 38.7 8 50.5-2.8 11.7-17.4-2-17.4-2"/>
					<path id="&lt;Path&gt;" class="s4" d="m-206.4 446.8c0 0 8.3-11.9 33-17.8 24.6-5.8 32.9 4 43.7 8.2 10.8 4.2 20.4 4.2 20.4 4.2"/>
					<path id="&lt;Path&gt;" class="s4" d="m-250 340.6c0 0 5.6 6.7 20.2 11.5 14.6 4.8 53 14.7 59.7 17.2 6.7 2.6 16.8 16.8 16.8 16.8"/>
					<path id="&lt;Path&gt;" class="s4" d="m-252.1 321.3l18.3 29.4"/>
					<path id="&lt;Path&gt;" class="s4" d="m-193.2 527.3c0 0 9.9-1 16.7 2.9 6.8 3.9 10.4 12.7 10.4 12.7"/>
					<path id="&lt;Path&gt;" class="s4" d="m-152.5 427.8c0 0 8.3 20 9.5 24.6 1.2 4.7 0 17.2 0 17.2"/>
					<path id="&lt;Path&gt;" class="s4" d="m-182.4 431.7c0 0 6.3 27.7 16.3 34.2"/>
					<path id="&lt;Path&gt;" class="s4" d="m-190.9 492.2c0 0 4.2-6.2 6.7-12.6 2.6-6.5 12.5-20 12.5-20"/>
					<path id="&lt;Path&gt;" class="s4" d="m-196.3 438.2c0 0-0.3 19.5 15 23.6"/>
					<path id="&lt;Path&gt;" class="s4" d="m-191.4 454.6l-4.9 9.7"/>
					<path id="&lt;Path&gt;" class="s4" d="m-177.2 505.8v-32.2c0-1.9 1.6-3.5 3.5-3.5h71.3c1.9 0 3.5 1.6 3.5 3.5v71.2c0 2-1.6 3.5-3.5 3.5h-67.6"/>
					<g id="&lt;Group&gt;">
						<g id="&lt;Group&gt;">
							<path id="&lt;Path&gt;" class="s5" d="m-125.2 490.4l5.7 4.6-16.8 21-16.9-21 5.8-4.6z"/>
						</g>
						<g id="&lt;Group&gt;">
							<path id="&lt;Path&gt;" class="s4" d="m-125.2 490.4l5.7 4.6-16.8 21-16.9-21 5.8-4.6z"/>
						</g>
						<path id="&lt;Path&gt;" class="s4" d="m-125.2 490.4l-11.1 25.6-11.1-25.6"/>
					</g>
					<g id="&lt;Group&gt;">
						<path id="&lt;Path&gt;" class="s4" d="m-115.3 524.6h-17.2l-3.8-3.8"/>
						<path id="&lt;Path&gt;" class="s4" d="m-136.3 520.8l-3.8 3.8h-17.2"/>
					</g>
					<path id="&lt;Path&gt;" class="s4" d="m-116.7 528.7h-39.2"/>
					<path id="&lt;Path&gt;" class="s4" d="m-121.3 532.9h-30"/>
					<path id="&lt;Path&gt;" class="s8" d="m190.3 392.9c-2 4-7.3 13.8-7.3 13.8 0 0-6.1 10.6-11.4 16.6-5.2 5.9-9.8 9-14.9 10.8-5.1 1.8-12.3 3.3-15.2 3.8-2.8 0.5-4 0.5-4.1 1.8-0.1 1.3 1 8 1 8 0 0 1.2 12.2 0 15.6-1.3 3.4-7.6 10-9.9 11.7-2.2 1.7-7.8 5.2-10.1 6-2.4 0.9-5.7 0.9-8.3 0.9-2.5 0-5.4-0.2-6.2 0.5-0.7 0.6-4.4 2.6-6.6 2.6-2.2 0-8-1.6-10.2-3.1-2.2-1.5-3.2-2.2-3.9-2-0.7 0.3-2.9 2.9-7.2 3.3-4.3 0.4-10.2-0.6-11.5-1.1-1.4-0.5-4.5-2.2-4.8-0.8-0.3 1.3-2.1 6.8-2.4 8.9-0.2 2-2.6 10-6.4 12.9-3.7 2.9-7.2 6.4-11 7.7-3.8 1.3-8.8 2.4-10.4 2-1.6-0.3-2.6-1.6-4.8 0.5-2.2 2-9.8 7.3-15.2 8.8-5.5 1.5-13.1 1.1-19.2-0.2-6-1.3-13.5-7-15.4-9.5-1.8-2.5-8.7-11.4-9.1-19.7-0.5-8.3 2.3-17.5 4.1-20.9 1.9-3.4 8.7-11.4 14.5-14 5.8-2.6 17.1-4.4 21.7-3.3 4.6 1.1 5.8 1.3 5.6 0.4-0.1-0.9-2.2-7.1-2.6-8.9-0.4-1.8-2.1-12.9-2.1-14.5-0.1-1.6 0.9-12.6 2.4-18.6 1.5-5.9 2.9-13.6 2.9-13.6 0 0 3.1-14.3 4.9-18.9 1.7-4.6 5.9-14.5 10.2-19 4.2-4.6 12.5-7.3 17.2-8.3 4.6-1 15.6-2.8 21.7-3.6 6.1-0.7 23.7-2.6 28.9-3.8 5.2-1.2 12-2.5 17.8-4.8 5.7-2.4 27.3-10.6 27.3-10.6l18.8-6.2c0 0 11.5-2.9 15.8-4.1 4.3-1.2 6.7-1.5 6.7-1.5 0 0 14.9 35.6 14.7 48.4-0.2 12.7-6 26-6 26z"/>
					<path id="&lt;Path&gt;" class="s5" d="m26.1 511.7v0.1c-6.4 7.1-15.6 11.5-25.9 11.5-19.1 0-34.6-15.5-34.6-34.6 0-19.2 15.5-34.7 34.6-34.7 4 0 7.9 0.7 11.5 2 8.1 2.8 14.8 8.5 18.9 15.9l-1.6 13.4c-0.3 0.1-0.6 0.4-0.7 0.8-0.3 1.1-1 2-1.2 3.1-0.3 1.2-0.6 2.3-1 3.5q-1.2 3.3-2.5 6.7c-0.8 2-1.6 4.3-1.4 6.5 0.2 2.1 1.2 4.1 2.8 5.5 0.3 0.2 0.7 0.4 1.1 0.3z"/>
					<path id="&lt;Path&gt;" class="s4" d="m60.9 471.9c0 0 0.5 3.8-3.9 20.5-4.4 16.7-26.8 24.6-32.3 18.3-5.5-6.3-1.9-7.1 3.1-23.2 5.1-16.1 1.3-15.6 3-25.9 1.8-10.2 14.4-32.1 17.4-44.6 3-12.4-3-29.8-3-29.8"/>
					<path id="&lt;Path&gt;" class="s4" d="m93.1 443.4l-8.7 10.2c0 0-0.6 0.6-7.4 7.2-6.7 6.7-16.3 14.8-16.3 14.8"/>
					<path id="&lt;Path&gt;" class="s4" d="m178.3 370.8c0 0-3.3 18.8-10.8 29.2-7.4 10.4-33.5 30.3-48.4 36.6-14.8 6.3-31 7.4-31 7.4"/>
					<path id="&lt;Path&gt;" class="s4" d="m175.8 381.2l15.2-6.4"/>
					<path id="&lt;Path&gt;" class="s4" d="m191 391c0 0.8-13.8 30.3-26.3 38.8-12.5 8.5-27.1 8.3-31.5 8.8-4.4 0.5-7.4 4.4-7.4 4.4"/>
					<path id="&lt;Path&gt;" class="s4" d="m137.2 438.3c0 0 2.1 12.7 1.6 21.6-0.5 9-14.1 19.1-19.9 20.8-5.8 1.7-14 1.1-14 1.1"/>
					<path id="&lt;Path&gt;" class="s4" d="m103 449.5c0 0 5.9-7.4 11.9-7.4 6.1 0 9.2 7.4 9.2 7.4 0 0-2.3 1.5-5.1 5-2.7 3.6-5.5 11-9.2 18.6-3.7 7.6-6.8 12.7-13.7 11.8-6.9-0.9-11.8-5-12.7-5.4"/>
					<path id="&lt;Path&gt;" class="s4" d="m89.8 447.3c0 0 2.8-1.3 7.2-1.4 4.3 0 8.8 5.5 5 10.7-3.8 5.2-16.2 26-26.6 26.7-10.3 0.6-15.5-3.3-15.5-3.3"/>
					<path id="&lt;Path&gt;" class="s4" d="m11.7 456c-2-6.6-6.5-23.2-4.1-33.8 3-13.5 7.9-57.4 26.1-65.6 18.3-8.3 60.5-7.8 77.9-15.1 17.3-7.4 62.5-25 79.4-23.1"/>
					<path id="&lt;Path&gt;" class="s4" d="m28.8 484.2c0 0 6.7-0.6 10.7 5.5 4 6.1-1 19.5-6.6 23.1"/>
					<path id="&lt;Path&gt;" class="s4" d="m26.1 511.8c-6.4 7.1-15.6 11.5-25.9 11.5-19.1 0-34.6-15.5-34.6-34.6 0-19.2 15.5-34.7 34.6-34.7 4 0 7.9 0.7 11.5 2 8.1 2.8 14.8 8.5 18.9 15.9"/>
					<path id="&lt;Path&gt;" class="s4" d="m156.8 755.1h-463.3"/>
				</g>
			</g>
			<path id="&lt;Path&gt;" class="s4" d="m111.4 793.4h-372.6c-25.4 0-46-20.6-46-46v-372.6c0-25.4 20.6-46 46-46h372.6c25.4 0 46 20.6 46 46v372.6c0 25.4-20.6 46-46 46z"/>
		</g>
		<path id="&lt;Path&gt;" class="s4" d="m62.6 614.8h60.7"/>
	</g>
</svg>