<svg version="1.2" xmlns="http://www.w3.org/2000/svg" viewBox="0 0 398 353" width="451" height="400">
	<title>like-svg</title>
	<defs>
		<clipPath clipPathUnits="userSpaceOnUse" id="cp1">
			<path d="m-134-167h666.67v666.67h-666.67z"/>
		</clipPath>
	</defs>
	<style>
		.s0 { fill: #362d46 } 
		.s1 { fill: none;stroke: #000000;stroke-linecap: round;stroke-linejoin: round;stroke-width: 1.7 } 
		.s2 { fill: #fff8e1 } 
		.s3 { fill: #000000 } 
		.s4 { fill: #00bbd6 } 
		.s5 { fill: none;stroke: #000000;stroke-linecap: round;stroke-linejoin: round;stroke-width: 2.1 } 
	</style>
	<g id="g10">
		<g id="g12">
			<g id="Clip-Path: g14" clip-path="url(#cp1)">
				<g id="g14">
					<g id="g20">
						<path id="path22" class="s0" d="m226.6 147.2c-16.4 0-82.5-5.1-86.4-6.2-3.8-1-11.8-5.4-14-7.8-2.3-2.3-3.3-5.7-3.4-9-0.1-3.2 2.4-6.2 4-9.1 1.6-2.9 4-8.1 5.7-11.1 1.8-3.1 4.1-8 4.1-8 0 0 5-10.3 6.5-13.9 1.6-3.5 3.6-8 4.8-11 1.2-3.1 2.5-7.9 3.3-9.9 0.8-1.9 3.9-9.9 5.2-13.6 1.3-3.6 2.8-7.2 4.9-10.7 2.1-3.5 6.8-8.9 8.6-10.4 1.7-1.4 7.8-5.8 10.3-6.9 2.5-1.1 10.2-3.5 12-3.9 1.9-0.3 7.4-1.3 12.5-0.4 5.1 1 12.3 3.8 15.2 5.5 2.9 1.7 8.6 5.9 10.5 8.2 2 2.2 5.1 7 7.1 10.3 1.9 3.3 5.3 14.1 6.3 16.7 1 2.6 5 13.4 5.9 15.8 0.9 2.4 7.1 17.1 8.5 20.3 1.3 3.3 5.3 11.6 6.1 13.5 0.7 2 5.5 8.8 6.6 11 1.2 2.2 2.5 5.3 2.8 7.1 0.2 1.9-0.5 5.5-2 7.9-1.4 2.4-4.9 5.8-9.1 7.3 0 0-19.7 8.3-36 8.3z"/>
					</g>
					<g id="g24">
						<path id="path26" class="s1" d="m178.6 119.9c-11.7 38.9-65.5 19.6-54.1-0.7 28.1-49.8 27.1-66.6 36.6-82.7 12.9-22 37.2-21.3 37.2-21.3"/>
					</g>
					<g id="g28">
						<path id="path30" class="s1" d="m198.3 15.2c0 0 24.3-0.7 37.2 21.3 9.5 16.1 8.5 32.9 36.6 82.7 11.4 20.3-42.5 39.6-54.3 0.7"/>
					</g>
					<g id="g32">
						<path id="path34" class="s2" d="m214.1 109.3c0.7 2.6 1.6 10.9 13.6 19 5.1 3.4 8.5 3.5 12.9 3.8 4.4 0.3 13.4 3.2 16.2 3.4 2.8 0.3 3.6 2.7 2.8 3.9-0.9 1.2-6.8 10.6-9.6 12.6-2.8 1.9-9.2 7.4-10.4 8.3-1.2 0.8-10.6 6.7-15.7 8.3-5 1.6-14.7 4.1-20.6 4.3-5.9 0.2-12.8-1.1-16.6-1.5-3.8-0.4-15-3.7-20.4-6.1-5.4-2.4-14.3-8.2-18.2-12.3-3.8-4-9.1-10.2-9.8-12.2-0.7-2-2.7-3.4 0.8-4.7 3.6-1.3 13-4 18.4-5.2 5.4-1.2 6.7-1.1 10.3-3.2 3.7-2.2 8.7-4.8 9.6-6.6 1-1.8 4.3-8 5.2-11.1 0.9-3.2 1.5-6.8 2.3-6.4 0.8 0.5 6.1 3.2 12.3 3.4 6.2 0.2 5.8 0.3 9.3-0.7 3.6-1 6.7-1.6 7-0.8 0.3 0.8 0.6 3.8 0.6 3.8z"/>
					</g>
					<g id="g36">
						<path id="path38" class="s1" d="m214.1 109.3c0.7 2.6 1.6 10.9 13.6 19 5.1 3.4 8.5 3.5 12.9 3.8 4.4 0.3 13.4 3.2 16.2 3.4 2.8 0.3 3.6 2.7 2.8 3.9-0.9 1.2-6.8 10.6-9.6 12.6-2.8 1.9-9.2 7.4-10.4 8.3-1.2 0.8-10.6 6.7-15.7 8.3-5 1.6-14.7 4.1-20.6 4.3-5.9 0.2-12.8-1.1-16.6-1.5-3.8-0.4-15-3.7-20.4-6.1-5.4-2.4-14.3-8.2-18.2-12.3-3.8-4-9.1-10.2-9.8-12.2-0.7-2-2.7-3.4 0.8-4.7 3.6-1.3 16-5.1 21.4-6.3 5.4-1.2 4.6-0.8 8.2-2.9 3.6-2.2 7.6-4.3 9.5-7.3 1.1-1.7 3.5-6.5 4.4-9.6 0.9-3.2 1.5-6.8 2.3-6.4 0.8 0.5 6.1 3.2 12.3 3.4 6.2 0.2 5.8 0.3 9.3-0.7 3.6-1 6.7-1.6 7-0.8 0.3 0.8 0.6 3.8 0.6 3.8z"/>
					</g>
					<g id="g40">
						<path id="path42" class="s2" d="m219.5 35.9c1.2 11.3 12.9 23.2 12.9 23.2 0 0 6.4 0.5 5.9 6.1-0.3 4-6.1 7.1-6.1 7.1-1.3 17.9-15 41.2-40.1 36-25-5.2-23.9-35.1-23.9-35.1 0 0-6.5-0.3-7.5-5.2-1.2-5.9 4.5-6.6 4.5-6.6 0 0 1.3-13.2 18.4-17.6 17.1-4.3 28.6-16.9 28.6-16.9l-7.3 20.1c5.2-0.2 14.6-11.1 14.6-11.1z"/>
					</g>
					<g id="g44">
						<path id="path46" class="s1" d="m219.5 35.9c1.2 11.3 12.9 23.2 12.9 23.2 0 0 6.4 0.5 5.9 6.1-0.3 4-6.1 7.1-6.1 7.1-1.3 17.9-15 41.2-40.1 36-25-5.2-23.9-35.1-23.9-35.1 0 0-6.5-0.3-7.5-5.2-1.2-5.9 4.5-6.6 4.5-6.6 0 0 1.3-13.2 18.4-17.6 17.1-4.3 28.6-16.9 28.6-16.9l-7.3 20.1c5.2-0.2 14.6-11.1 14.6-11.1z"/>
					</g>
					<g id="g48">
						<path id="path50" class="s1" d="m202.1 82.9c-2.1 0-3.9-1.7-3.9-3.9v-6.1"/>
					</g>
					<g id="g52">
						<path id="path54" class="s1" d="m193.9 91.3c0 0 5.7 4.9 13.1 0"/>
					</g>
					<g id="g56">
						<path id="path58" class="s3" d="m215.6 66.8c0 1.4-1.1 2.5-2.5 2.5-1.4 0-2.5-1.1-2.5-2.5 0-1.4 1.1-2.5 2.5-2.5 1.4 0 2.5 1.1 2.5 2.5z"/>
					</g>
					<g id="g60">
						<path id="path62" class="s3" d="m187.4 66.8c0 1.4-1.1 2.5-2.5 2.5-1.3 0-2.5-1.1-2.5-2.5 0-1.4 1.2-2.5 2.5-2.5 1.4 0 2.5 1.1 2.5 2.5z"/>
					</g>
					<g id="g64">
						<path id="path66" class="s1" d="m176.8 62.8l-10.5-4.5"/>
					</g>
					<g id="g68">
						<path id="path70" class="s1" d="m221.7 62.8l10.1-4.3"/>
					</g>
					<g id="g72">
						<path id="path74" class="s1" d="m203.9 67h-9"/>
					</g>
					<g id="g76">
						<path id="path78" class="s1" d="m220.1 53c0 0-6-3-14 0.7"/>
					</g>
					<g id="g80">
						<path id="path82" class="s1" d="m177.9 53c0 0 6-3 14 0.7"/>
					</g>
					<g id="g84">
						<path id="path86" class="s1" d="m222.2 66.8c0 5-4.1 9-9.1 9-5 0-9-4-9-9 0-5 4-9 9-9 5 0 9.1 4 9.1 9z"/>
					</g>
					<g id="g88">
						<path id="path90" class="s1" d="m194 66.8c0 5-4.1 9-9.1 9-5 0-9-4-9-9 0-5 4-9 9-9 5 0 9.1 4 9.1 9z"/>
					</g>
					<g id="g92">
						<path id="path94" class="s4" d="m364 342.1h-319.8c0-2.5-0.1-5-0.1-7.6q0.1-0.1 0.1-0.3c0.3-0.9 0.3-1.9 0.5-2.9 0.1-1.1 0.4-2.1 0.5-3.3 0.4-2.1 0.6-4.3 1.1-6.4 0.4-2 1-4.1 0.9-6.1-0.1-2.1-1.5-3-3.3-2.9-1.4-1.5-3.4-2.5-4.9-3.9-0.3-0.3 0.1-1.9-0.2-2.1 4.6-26.3 9.9-47 10.2-48.7 1-4.6 3.6-10.9 4.8-15.1 1.1-4.1 4.2-10.9 5.2-15 1-4 2.3-5.5 3.3-8.9 1-3.3 2.6-7.1 3.7-10 1.1-2.9 5.1-11.6 6.5-14.7 1.4-3.1 5.1-10.1 7.2-14 2.1-3.9 8-12.3 9.9-15.4 1.9-3.1 7.7-9.1 9.6-11.1 1.9-1.9 10.5-8.5 12.1-9.8 1.6-1.3 4.9-2.9 9-4.8 4.1-1.9 13.6-3.5 17.7-4.2 4.1-0.8 16.6-2.7 20-3.2q0.7-0.1 1.6-0.3-0.1 1.1 0.2 2.4c3.7 13.9 12.6 22.8 25.7 28q0.8 0.3 1.6 0.4c3.7 1.4 8.6 1.1 13.2 0.4q0.7 0.2 1.5 0.2 0.5 0 1-0.1 0.9 0.3 2 0.3c1.6 0 3-0.5 4-1.3 3.6-0.7 6.4-1.9 8.9-3.6 1.8-0.3 3.1-1.1 4-2.2q0.7-0.5 1.2-1.1c4.6-2.4 8.3-8.7 10.5-13.1 1.3-2.8 3.3-6.5 3.5-10 0.6 0.2 0.9 0.3 0.9 0.3 0 0 10.7 2.1 24.9 4.4 14.1 2.2 21.3 7.7 26.6 12.1 5.4 4.4 16.8 17 19.6 21.2 2.8 4.3 11.4 19.8 15.3 28.5 3.9 8.8 2.4 4.7 4.5 12.4 2.2 7.6 13.1 42.3 13.1 42.3l11.6 44.7c0 0 8 30.8 10.6 44.5z"/>
					</g>
					<g id="g96">
						<path id="path98" class="s2" d="m178.5 316.1c-0.3-0.9-0.3-1.7-1.4-6-1.1-4.2-0.9-12.8-0.7-16.5 0.2-3.7 1-14 1-17.5 0-3.6 1.8-13.3 2.1-14.6 0.2-1.3 2.7-1.6 4.5-2.2 1.8-0.6 6.1-1.1 6.9-2.4 0.9-1.4 2-0.7 3.9-5.7 1.8-5 5.5-16.8 6.3-19.3 0.8-2.5 1.7-3 4.1-3.7 2.3-0.7 4.5 2 6.5 5.8 1.9 3.8 0.4 14.9 0.2 16.7-0.2 1.8-0.8 3.1 6.4 1.5 7.2-1.6 13-0.9 16.7-0.5 3.7 0.4 4.9 5 5 6.7 0.2 1.6 2 3.2 3.9 5.4 2 2.2 1.8 4.8 1.9 6.2 0.1 1.5-0.7 5-0.7 5 0 0 2.3 2.8 2.4 5.7 0 2.9-1.1 5.6-2.6 7.7-1.5 2.1-2.8 4.2-3.4 6-0.6 1.9-1.7 5.7-7.1 9.8-5.3 4-17.5 8.1-24.1 9.6-6.7 1.5-26.9 4.3-26.9 4.3 0 0-4.5-1.2-4.9-2z"/>
					</g>
					<g id="g100">
						<path id="path102" class="s5" d="m186.4 325.8c-63 6.7-148.6-7.6-147.6-19.2 3.5-39.7 26.3-94.6 26.3-94.6 14.5-40 34.7-64.2 54.8-72.8 6.7-2.8 26.9-6 39.7-7.7"/>
					</g>
					<g id="g104">
						<path id="path106" class="s1" d="m296.4 342.1l-17.9-122.5"/>
					</g>
					<g id="g108">
						<path id="path110" class="s1" d="m236.9 131.6c12.8 1.8 31 4.9 37.5 7.6 20.2 8.6 40.4 32.8 54.9 72.8 14.5 39.9 34.7 130.1 34.7 130.1"/>
					</g>
					<g id="g112">
						<path id="path114" class="s1" d="m9.9 342.1h34.3 319.8 24.8"/>
					</g>
					<g id="g116">
						<path id="path118" class="s1" d="m236.8 131.8c0 0-4.8 31.4-38.6 31.4"/>
					</g>
					<g id="g120">
						<path id="path122" class="s1" d="m159.6 131.8c0 0 4.8 31.4 38.6 31.4"/>
					</g>
					<g id="g124">
						<path id="path126" class="s0" d="m183.5 323.5c-1.2-0.9-2.6-2.7-2.9-4.4-0.4-1.7 1.7-1.3 4.1-1.6 2.5-0.3 5.8-1 6 2.2 0.2 3.1 0.6 4.1-4.1 5.5 0 0-2-0.8-3.1-1.7z"/>
					</g>
					<g id="g128">
						<path id="path130" class="s0" d="m181.3 259.8c-0.8-2.3-2.2-5.4 0.9-6.3 3-0.9 3.8-1.5 6.2 2.8 0 0-0.1 0.8-0.4 1.8-0.9 0.1-1.8 0.5-2.6 1.1q-0.1 0-0.2 0.1c-0.3 0.1-0.6 0.2-0.7 0.2q-1 0.3-2 0.5-0.6 0.1-1.1 0.2-0.1-0.2-0.1-0.4z"/>
					</g>
					<g id="g132">
						<path id="path134" class="s5" d="m179.8 260c2.9-0.4 4.8-0.8 8-1.5 8.4-1.8 11.3-22.8 14-28.1 2.6-5.4 11.7-2.9 10.8 12.9-0.9 15.9-4.2 20.3-4.2 20.3 0 0 15.1 0.1 21.3-5.5"/>
					</g>
					<g id="g136">
						<path id="path138" class="s5" d="m211.5 253.4c0 0 14.1-3.2 23-1.8 8.8 1.3 9.2 16.4-14.5 26.8"/>
					</g>
					<g id="g140">
						<path id="path142" class="s5" d="m239.6 260.9c0 0 6.7 1.4 6.2 10.1-0.4 5.3-13.5 13.9-24.2 18"/>
					</g>
					<g id="g144">
						<path id="path146" class="s5" d="m244.5 274.5c0 0 6.3 6.6 0.8 13.5-5.6 6.9-22.4 12.4-22.4 12.4"/>
					</g>
					<g id="g148">
						<path id="path150" class="s5" d="m242.4 290.7c0 0-0.6 14.1-23 20.6-22.4 6.5-39.9 6.4-39.9 6.4"/>
					</g>
					<g id="g152">
						<path id="path154" class="s5" d="m183.4 252.9c-25 6.7-65.8 6.7-65.8 6.7l13.7-49"/>
					</g>
					<g id="g156">
						<path id="path158" class="s5" d="m179.6 260.9c0 0-8.4 40.9 0.2 57.4"/>
					</g>
					<g id="g160">
						<path id="path162" class="s5" d="m189.8 317.3c0 0 1.1 0.9 0.2 5.4-0.8 4.6-7.1 4.5-10.3-4.6"/>
					</g>
					<g id="g164">
						<path id="path166" class="s5" d="m179.6 260.9c1.7-8.6 4.7-9.2 6.9-7.3 2.5 2.1 1.8 4.8 1.8 4.8"/>
					</g>
					<g id="g168">
						<path id="path170" class="s1" d="m43.6 342.1l0.6-4.4 2.4-17.4 0.6-4.5 0.3-2.2"/>
					</g>
				</g>
			</g>
		</g>
		<path id="tspan172" class="s3" aria-label="Like"  d="m189.6 403v-16.5h2.3v14.6h8v1.9zm12.6 0v-12.4h2v12.4zm0-14.6v-2.6h2v2.6zm6.3 14.6v-17.2h2v10.1l6.1-5.3h2.6l-6.6 5.8 6.9 6.6h-2.7l-6.3-6.1v6.1zm23-6.7v1h-9.4q0.2 2.1 1.3 3.2 1.1 1.1 3.2 1.1 1.1 0 2.2-0.3 1.1-0.3 2.2-0.9v2q-1.1 0.4-2.2 0.7-1.2 0.2-2.4 0.2-2.9 0-4.7-1.7-1.7-1.7-1.7-4.7 0-3 1.7-4.8 1.6-1.8 4.4-1.8 2.5 0 3.9 1.6 1.5 1.6 1.5 4.4zm-9.3-0.6h7.3q-0.1-1.7-1-2.7-0.9-1-2.4-1-1.7 0-2.7 1-1 1-1.2 2.7z"/>
	</g>
</svg>